<svg width="51" height="51" viewBox="0 0 51 51" fill="none" xmlns="http://www.w3.org/2000/svg">
<path d="M25.5 0.5C11.6927 0.5 0.5 11.6927 0.5 25.5C0.5 39.3073 11.6927 50.5 25.5 50.5C39.3073 50.5 50.5 39.3073 50.5 25.5C50.5 11.6927 39.3073 0.5 25.5 0.5ZM19.3802 35.862H14.3177V19.5703H19.3802V35.862ZM16.8177 17.5703C15.2187 17.5703 14.1849 16.4375 14.1849 15.0365C14.1849 13.6068 15.25 12.5078 16.8828 12.5078C18.5156 12.5078 19.5156 13.6068 19.5469 15.0365C19.5469 16.4375 18.5156 17.5703 16.8177 17.5703ZM37.8698 35.862H32.8073V26.8333C32.8073 24.7318 32.0729 23.3047 30.2422 23.3047C28.8438 23.3047 28.013 24.2708 27.6458 25.2005C27.5104 25.5312 27.4766 26 27.4766 26.4661V35.8594H22.4115V24.7656C22.4115 22.7318 22.3464 21.0312 22.2786 19.5677H26.6771L26.9089 21.8307H27.0104C27.6771 20.7682 29.3099 19.2005 32.0417 19.2005C35.3724 19.2005 37.8698 21.4323 37.8698 26.2292V35.862Z" fill="#1F2A44"/>
</svg>
