<svg width="24" height="25" viewBox="0 0 24 25" fill="none" xmlns="http://www.w3.org/2000/svg">
<path d="M15.5 5.39648C16.9045 5.39648 17.6067 5.39648 18.1111 5.73355C18.3295 5.87946 18.517 6.06696 18.6629 6.28534C19 6.78979 19 7.49202 19 8.89648V18.3965C19 20.2821 19 21.2249 18.4142 21.8107C17.8284 22.3965 16.8856 22.3965 15 22.3965H9C7.11438 22.3965 6.17157 22.3965 5.58579 21.8107C5 21.2249 5 20.2821 5 18.3965V8.89648C5 7.49202 5 6.78979 5.33706 6.28534C5.48298 6.06696 5.67048 5.87946 5.88886 5.73355C6.39331 5.39648 7.09554 5.39648 8.5 5.39648" stroke="#DCDCDC"/>
<path d="M9 5.39648C9 4.29191 9.89543 3.39648 11 3.39648H13C14.1046 3.39648 15 4.29191 15 5.39648C15 6.50105 14.1046 7.39648 13 7.39648H11C9.89543 7.39648 9 6.50105 9 5.39648Z" stroke="#DCDCDC"/>
<path d="M9 12.3965L15 12.3965" stroke="#DCDCDC" stroke-linecap="round"/>
<path d="M9 16.3965L13 16.3965" stroke="#DCDCDC" stroke-linecap="round"/>
</svg>
