<svg width="15" height="22" viewBox="0 0 15 22" fill="none" xmlns="http://www.w3.org/2000/svg">
<path d="M10.5858 21.3533L10.3088 21.7693C10.3841 21.8194 10.4715 21.8482 10.5619 21.8525C10.6522 21.8568 10.742 21.8366 10.8218 21.7939C10.9015 21.7512 10.9682 21.6877 11.0146 21.6101C11.0611 21.5325 11.0857 21.4438 11.0858 21.3533H10.5858ZM7.58576 19.3533L7.86276 18.9373C7.7807 18.8827 7.68433 18.8536 7.58576 18.8536C7.48719 18.8536 7.39082 18.8827 7.30876 18.9373L7.58576 19.3533ZM4.58576 21.3533H4.08576C4.0858 21.4438 4.11038 21.5325 4.15687 21.6101C4.20336 21.6877 4.27002 21.7512 4.34976 21.7939C4.42949 21.8366 4.51931 21.8568 4.60965 21.8525C4.69999 21.8482 4.78746 21.8194 4.86276 21.7693L4.58576 21.3533ZM10.8628 20.9373L7.86276 18.9373L7.30876 19.7693L10.3088 21.7693L10.8628 20.9373ZM7.30876 18.9373L4.30876 20.9373L4.86276 21.7693L7.86276 19.7693L7.30876 18.9373ZM8.72876 2.46733L8.77076 2.51733L9.53176 1.86933L9.48976 1.81933L8.72876 2.46733ZM10.8748 3.38933L10.9398 3.38333L10.8598 2.38733L10.7948 2.39233L10.8748 3.38933ZM12.5548 4.99933L12.5508 5.06433L13.5468 5.14433L13.5518 5.07933L12.5548 4.99933ZM13.4218 7.16833L13.4718 7.21133L14.1198 6.44934L14.0698 6.40733L13.4218 7.16833ZM13.4718 9.49633L13.4218 9.53833L14.0698 10.2993L14.1198 10.2573L13.4718 9.49633ZM12.5508 11.6423L12.5558 11.7073L13.5518 11.6273L13.5468 11.5623L12.5508 11.6423ZM10.9408 13.3223L10.8748 13.3173L10.7948 14.3143L10.8598 14.3193L10.9408 13.3223ZM8.77076 14.1893L8.72776 14.2393L9.48976 14.8873L9.53176 14.8373L8.77076 14.1893ZM6.44376 14.2393L6.40076 14.1893L5.63976 14.8373L5.68176 14.8873L6.44376 14.2393ZM4.29676 13.3183L4.23176 13.3233L4.31176 14.3193L4.37676 14.3143L4.29676 13.3183ZM2.61676 11.7083L2.62176 11.6423L1.62476 11.5623L1.61976 11.6273L2.61676 11.7083ZM1.74976 9.53833L1.69976 9.49533L1.05176 10.2573L1.10176 10.2993L1.74976 9.53833ZM1.69976 7.21133L1.74976 7.16833L1.10176 6.40733L1.05176 6.44934L1.69976 7.21133ZM2.62176 5.06433L2.61576 4.99933L1.61976 5.07933L1.62476 5.14433L2.62176 5.06433ZM4.23176 3.38433L4.29676 3.38933L4.37676 2.39233L4.31176 2.38733L4.23176 3.38433ZM6.40176 2.51733L6.44276 2.46733L5.68176 1.81933L5.63976 1.86933L6.40176 2.51733ZM4.29676 3.38933C4.69162 3.42116 5.08839 3.35869 5.45437 3.20708C5.82035 3.05547 6.14507 2.81906 6.40176 2.51733L5.63976 1.86933C5.48572 2.05034 5.29089 2.19214 5.0713 2.28307C4.85171 2.374 4.61366 2.41145 4.37676 2.39233L4.29676 3.38933ZM2.61576 4.99933C2.59828 4.78286 2.62902 4.56516 2.70392 4.3613C2.77882 4.15744 2.8971 3.97228 3.05057 3.81861C3.20405 3.66495 3.38907 3.54644 3.59283 3.47129C3.7966 3.39613 4.01426 3.36612 4.23076 3.38333L4.31176 2.38733C3.95088 2.35837 3.58702 2.40813 3.24727 2.53317C2.90751 2.65821 2.59897 2.85556 2.34298 3.11155C2.08698 3.36755 1.88964 3.67609 1.76459 4.01585C1.63955 4.3556 1.59079 4.71846 1.61976 5.07933L2.61576 4.99933ZM1.74976 7.16833C2.05148 6.91165 2.28789 6.58793 2.4395 6.22195C2.59111 5.85597 2.65358 5.4592 2.62176 5.06433L1.62476 5.14433C1.64387 5.38124 1.60643 5.61929 1.5155 5.83888C1.42457 6.05846 1.28276 6.2533 1.10176 6.40733L1.74976 7.16833ZM1.69976 9.49533C1.5344 9.35452 1.4016 9.17947 1.31053 8.9823C1.21946 8.78512 1.1723 8.57052 1.1723 8.35333C1.1723 8.13614 1.21946 7.92155 1.31053 7.72437C1.4016 7.5272 1.5344 7.35215 1.69976 7.21133L1.05176 6.44934C0.775938 6.68403 0.554404 6.97585 0.402481 7.3046C0.250558 7.63335 0.171875 7.99118 0.171875 8.35333C0.171875 8.71549 0.250558 9.07332 0.402481 9.40207C0.554404 9.73082 0.775938 10.0226 1.05176 10.2573L1.69976 9.49533ZM2.62176 11.6423C2.65342 11.2476 2.59087 10.8511 2.43927 10.4853C2.28766 10.1195 2.05134 9.79492 1.74976 9.53833L1.10176 10.2993C1.28276 10.4534 1.42457 10.6482 1.5155 10.8678C1.60643 11.0874 1.64387 11.3254 1.62476 11.5623L2.62176 11.6423ZM4.23176 13.3223C4.01519 13.3398 3.7974 13.3101 3.59346 13.2351C3.38953 13.1602 3.20431 13.0418 3.05063 12.8882C2.89694 12.7346 2.77846 12.5495 2.70337 12.3456C2.62829 12.1417 2.59839 11.9239 2.61576 11.7073L1.61976 11.6273C1.59064 11.9883 1.64028 12.3513 1.76526 12.6911C1.89023 13.031 2.08755 13.3397 2.34357 13.5958C2.59958 13.8519 2.90818 14.0493 3.24801 14.1744C3.58784 14.2995 3.95079 14.3493 4.31176 14.3203L4.23176 13.3223ZM8.72776 14.2393C8.58694 14.4047 8.41189 14.5375 8.21472 14.6286C8.01754 14.7196 7.80295 14.7668 7.58576 14.7668C7.36857 14.7668 7.15397 14.7196 6.95679 14.6286C6.75962 14.5375 6.58457 14.4047 6.44376 14.2393L5.68176 14.8873C5.91645 15.1632 6.20827 15.3847 6.53702 15.5366C6.86577 15.6885 7.2236 15.7672 7.58576 15.7672C7.94791 15.7672 8.30575 15.6885 8.63449 15.5366C8.96324 15.3847 9.25506 15.1632 9.48976 14.8873L8.72776 14.2393ZM12.5558 11.7073C12.5733 11.924 12.5435 12.1419 12.4685 12.3459C12.3935 12.5499 12.275 12.7352 12.1213 12.8889C11.9676 13.0426 11.7823 13.161 11.5783 13.2361C11.3743 13.3111 11.1564 13.3409 10.9398 13.3233L10.8598 14.3193C11.2207 14.3485 11.5837 14.2988 11.9236 14.1738C12.2634 14.0489 12.5721 13.8515 12.8282 13.5955C13.0843 13.3395 13.2818 13.0309 13.4069 12.6911C13.532 12.3513 13.5807 11.9883 13.5518 11.6273L12.5558 11.7073ZM13.4218 9.53733C13.1202 9.79412 12.884 10.1189 12.7326 10.4849C12.5811 10.8508 12.5188 11.2476 12.5508 11.6423L13.5468 11.5623C13.5276 11.3254 13.5651 11.0874 13.656 10.8678C13.7469 10.6482 13.8888 10.4534 14.0698 10.2993L13.4218 9.53733ZM13.4718 7.21133C13.6371 7.35215 13.7699 7.5272 13.861 7.72437C13.9521 7.92155 13.9992 8.13614 13.9992 8.35333C13.9992 8.57052 13.9521 8.78512 13.861 8.9823C13.7699 9.17947 13.6371 9.35552 13.4718 9.49633L14.1198 10.2573C14.3956 10.0226 14.6171 9.73082 14.769 9.40207C14.921 9.07332 14.9996 8.71549 14.9996 8.35333C14.9996 7.99118 14.921 7.63335 14.769 7.3046C14.6171 6.97585 14.3956 6.68403 14.1198 6.44934L13.4718 7.21133ZM12.5508 5.06433C12.519 5.45895 12.5814 5.85547 12.7328 6.22126C12.8842 6.58705 13.1204 6.91165 13.4218 7.16833L14.0698 6.40733C13.8888 6.2533 13.7469 6.05846 13.656 5.83888C13.5651 5.61929 13.5276 5.38124 13.5468 5.14433L12.5508 5.06433ZM10.9408 3.38433C11.1572 3.36699 11.3749 3.39686 11.5787 3.47189C11.7825 3.54692 11.9676 3.66531 12.1212 3.81888C12.2748 3.97246 12.3932 4.15754 12.4682 4.36136C12.5432 4.56517 12.5721 4.78284 12.5548 4.99933L13.5518 5.07933C13.5807 4.71837 13.532 4.35542 13.4069 4.01559C13.2818 3.67576 13.0843 3.36716 12.8282 3.11114C12.5721 2.85513 12.2634 2.65781 11.9236 2.53284C11.5837 2.40786 11.2207 2.35822 10.8598 2.38733L10.9408 3.38433ZM8.77076 2.51733C9.02734 2.81892 9.35189 3.05524 9.71769 3.20685C10.0835 3.35845 10.4801 3.421 10.8748 3.38933L10.7948 2.39233C10.5579 2.41145 10.3198 2.374 10.1002 2.28307C9.88063 2.19214 9.68579 2.05034 9.53176 1.86933L8.77076 2.51733ZM9.48976 1.81933C9.25506 1.54352 8.96324 1.32198 8.63449 1.17006C8.30575 1.01814 7.94791 0.939453 7.58576 0.939453C7.2236 0.939453 6.86577 1.01814 6.53702 1.17006C6.20827 1.32198 5.91645 1.54352 5.68176 1.81933L6.44276 2.46733C6.58357 2.30198 6.75962 2.16918 6.95679 2.07811C7.15397 1.98704 7.36857 1.93988 7.58576 1.93988C7.80295 1.93988 8.01754 1.98704 8.21472 2.07811C8.41189 2.16918 8.58794 2.30198 8.72876 2.46733L9.48976 1.81933ZM6.40176 14.1893C6.17904 13.9277 5.90479 13.7148 5.59612 13.5639C5.28745 13.413 4.951 13.3264 4.60776 13.3113L4.56376 14.3113C4.76962 14.3204 4.97141 14.3718 5.15653 14.4623C5.34166 14.5528 5.50615 14.6805 5.63976 14.8373L6.40176 14.1893ZM4.60776 13.3113C4.50409 13.3065 4.40022 13.3092 4.29676 13.3173L4.37676 14.3143C4.43976 14.3093 4.50176 14.3083 4.56376 14.3113L4.60776 13.3113ZM5.08576 21.3533V13.8113H4.08576V21.3533H5.08576ZM10.8758 13.3173C10.772 13.3092 10.6678 13.3075 10.5638 13.3123L10.6078 14.3113C10.6698 14.3083 10.7318 14.3093 10.7948 14.3143L10.8758 13.3173ZM10.5638 13.3123C10.2207 13.3275 9.88442 13.4132 9.57594 13.5641C9.26745 13.715 8.99336 13.9278 8.77076 14.1893L9.53176 14.8373C9.66536 14.6805 9.82985 14.5528 10.015 14.4623C10.2001 14.3718 10.4019 14.3204 10.6078 14.3113L10.5638 13.3123ZM10.0858 13.8123V21.3533H11.0858V13.8113L10.0858 13.8123Z" fill="rgba(92, 215, 251, 1)"/>
<path d="M9.58594 7.35352L6.58594 10.3535L5.58594 9.35352" stroke="rgba(92, 215, 251, 1)" stroke-linecap="round" stroke-linejoin="round"/>
</svg>
