<svg width="24" height="25" viewBox="0 0 24 25" fill="none" xmlns="http://www.w3.org/2000/svg">
<path d="M18 3.39649V3.39649C19.6569 3.39649 21 4.73964 21 6.39649L21 8.53934C21 8.87347 21 9.04053 20.9234 9.1625C20.8834 9.2261 20.8296 9.27988 20.766 9.31985C20.644 9.39648 20.477 9.39648 20.1429 9.39648L15 9.39648M18 3.39649V3.39649C16.3431 3.39649 15 4.73964 15 6.39649L15 9.39648M18 3.39649L7 3.39649C5.11438 3.39649 4.17157 3.39649 3.58579 3.98228C3 4.56807 3 5.51087 3 7.39649L3 21.3965L6 20.3965L9 21.3965L12 20.3965L15 21.3965L15 9.39648" stroke="#DCDCDC"/>
<path d="M7 7.39648L11 7.39648" stroke="#DCDCDC" stroke-linecap="round"/>
<path d="M8 11.3965H7" stroke="#DCDCDC" stroke-linecap="round"/>
<path d="M7 15.3965L10 15.3965" stroke="#DCDCDC" stroke-linecap="round"/>
<path d="M9 11.3965L15 11.3965" stroke="#DCDCDC" stroke-width="1.2" stroke-linecap="round" stroke-linejoin="round"/>
</svg>
