<svg width="18" height="18" viewBox="0 0 18 18" fill="none" xmlns="http://www.w3.org/2000/svg">
<path d="M6 2.11077C6.59334 2.11077 7.17336 2.28881 7.66671 2.62238C8.16006 2.95595 8.54458 3.43006 8.77164 3.98477C8.9987 4.53947 9.05811 5.14985 8.94236 5.73872C8.8266 6.32759 8.54088 6.86851 8.12132 7.29306C7.70176 7.71761 7.16721 8.00673 6.58527 8.12387C6.00333 8.241 5.40013 8.18089 4.85195 7.95112C4.30377 7.72135 3.83524 7.33226 3.50559 6.83304C3.17595 6.33382 3 5.74689 3 5.14648C3 4.34136 3.31607 3.56922 3.87868 2.99991C4.44129 2.4306 5.20435 2.11077 6 2.11077ZM6 0.896484C5.16932 0.896484 4.35729 1.14574 3.6666 1.61274C2.97592 2.07973 2.43759 2.74349 2.11971 3.52008C1.80182 4.29667 1.71864 5.1512 1.8807 5.97562C2.04276 6.80004 2.44277 7.55732 3.03015 8.15169C3.61753 8.74606 4.3659 9.15084 5.18062 9.31482C5.99534 9.47881 6.83982 9.39465 7.60727 9.07297C8.37472 8.7513 9.03067 8.20657 9.49217 7.50766C9.95367 6.80875 10.2 5.98706 10.2 5.14648C10.2 4.01931 9.7575 2.93831 8.96985 2.14128C8.1822 1.34425 7.11391 0.896484 6 0.896484ZM12 17.8965H10.8V14.8608C10.8 14.0556 10.4839 13.2835 9.92132 12.7142C9.35871 12.1449 8.59565 11.8251 7.8 11.8251H4.2C3.40435 11.8251 2.64129 12.1449 2.07868 12.7142C1.51607 13.2835 1.2 14.0556 1.2 14.8608V17.8965H0V14.8608C0 13.7336 0.442499 12.6526 1.23015 11.8556C2.0178 11.0585 3.08609 10.6108 4.2 10.6108H7.8C8.91391 10.6108 9.9822 11.0585 10.7698 11.8556C11.5575 12.6526 12 13.7336 12 14.8608V17.8965ZM12 2.11077H18V3.32506H12V2.11077ZM12 5.14648H18V6.36077H12V5.14648ZM12 8.1822H16.2V9.39648H12V8.1822Z" fill="rgba(92, 215, 251, 1)"/>
</svg>
