<svg width="23" height="23" viewBox="0 0 23 23" fill="none" xmlns="http://www.w3.org/2000/svg">
<path d="M11.5 22C10.0502 22 8.68639 21.7247 7.4085 21.174C6.13061 20.6226 5.01878 19.8743 4.073 18.9293C3.12722 17.9843 2.37861 16.8737 1.82717 15.5973C1.27572 14.321 1 12.9564 1 11.5035C1 10.0506 1.27572 8.68561 1.82717 7.4085C2.37783 6.13061 3.12489 5.01878 4.06833 4.073C5.01178 3.12722 6.12283 2.37861 7.4015 1.82717C8.68017 1.27572 10.0452 1 11.4965 1C12.9478 1 14.3128 1.27572 15.5915 1.82717C16.8702 2.37861 17.982 3.12683 18.927 4.07183C19.872 5.01683 20.6206 6.12789 21.1728 7.405C21.7251 8.68211 22.0008 10.0471 22 11.5V12.6538C22 13.6362 21.6624 14.4672 20.9873 15.147C20.3122 15.8268 19.4831 16.1667 18.5 16.1667C17.8047 16.1667 17.1708 15.9761 16.5983 15.595C16.0251 15.2139 15.6012 14.706 15.3267 14.0713C14.8833 14.7099 14.3292 15.2186 13.6642 15.5973C12.9992 15.9761 12.2778 16.1659 11.5 16.1667C10.2003 16.1667 9.09783 15.714 8.1925 14.8087C7.28639 13.9018 6.83333 12.7989 6.83333 11.5C6.83333 10.2011 7.28639 9.09861 8.1925 8.1925C9.09861 7.28639 10.2011 6.83333 11.5 6.83333C12.7989 6.83333 13.9018 7.28639 14.8087 8.1925C15.7156 9.09861 16.1682 10.2011 16.1667 11.5V12.6538C16.1667 13.2932 16.3957 13.8442 16.8538 14.307C17.3119 14.7698 17.8607 15.0008 18.5 15C19.1393 14.9992 19.6884 14.7682 20.1473 14.307C20.6062 13.8458 20.8349 13.2943 20.8333 12.6527V11.5C20.8333 8.89444 19.9292 6.6875 18.1208 4.87917C16.3125 3.07083 14.1056 2.16667 11.5 2.16667C8.89444 2.16667 6.6875 3.07083 4.87917 4.87917C3.07083 6.6875 2.16667 8.89444 2.16667 11.5C2.16667 14.1056 3.07083 16.3125 4.87917 18.1208C6.6875 19.9292 8.89444 20.8333 11.5 20.8333H17.3333V22H11.5ZM11.5 15C12.4722 15 13.2986 14.6597 13.9792 13.9792C14.6597 13.2986 15 12.4722 15 11.5C15 10.5278 14.6597 9.70139 13.9792 9.02083C13.2986 8.34028 12.4722 8 11.5 8C10.5278 8 9.70139 8.34028 9.02083 9.02083C8.34028 9.70139 8 10.5278 8 11.5C8 12.4722 8.34028 13.2986 9.02083 13.9792C9.70139 14.6597 10.5278 15 11.5 15Z" fill="#989898" stroke="#989898"/>
</svg>
