<svg width="452" height="276" viewBox="0 0 452 276" fill="none" xmlns="http://www.w3.org/2000/svg">
<path d="M402.245 183.046C402.245 183.046 392.13 181.362 390.778 178.326C389.426 175.29 387.905 171.052 384.849 169.329C381.085 167.203 377.887 171.065 374.246 168.542C369.865 165.506 369.527 158.758 358.391 157.413C347.255 156.067 347.599 168.542 346.923 170.571C346.247 172.599 339.844 168.542 336.132 171.221C332.42 173.899 333.434 179.321 332.42 180.322C331.406 181.323 326.686 179.314 325.334 180.322C323.982 181.329 322.298 182.35 322.298 182.35L314.542 184.71H407.323L402.245 183.046Z" stroke="#263238" stroke-linecap="round" stroke-linejoin="round"/>
<path d="M260.696 19.588C260.696 19.588 253.376 18.3723 252.414 16.1815C251.452 13.9907 250.334 10.9223 248.13 9.68068C245.406 8.14648 243.098 10.9353 240.465 9.11511C237.299 6.92432 237.052 2.04868 229.011 1.07356C220.969 0.0984285 221.21 9.11511 220.729 10.5778C220.248 12.0405 215.606 9.11511 212.928 11.0654C210.249 13.0156 210.977 16.9161 210.243 17.6442C209.508 18.3723 206.102 16.9161 205.127 17.6442C204.152 18.3723 202.936 19.1069 202.936 19.1069L197.326 20.8166H264.356L260.696 19.588Z" stroke="#263238" stroke-linecap="round" stroke-linejoin="round"/>
<path d="M90.3151 130.031C90.3151 130.031 85.0754 129.16 84.3733 127.587C83.6712 126.014 82.8846 123.81 81.2984 122.919C79.3481 121.821 77.6904 123.816 75.8052 122.516C73.5299 120.937 73.3543 117.446 67.5816 116.744C61.8088 116.041 61.9909 122.516 61.6398 123.563C61.2888 124.61 57.9668 122.516 56.0426 123.914C54.1183 125.312 54.6449 128.107 54.0923 128.634C53.5398 129.16 51.1214 128.107 50.4193 128.634C49.7173 129.16 48.8461 129.68 48.8461 129.68L44.8286 130.909H92.9349L90.3151 130.031Z" stroke="#263238" stroke-linecap="round" stroke-linejoin="round"/>
<path d="M143.57 240.188C143.57 240.188 135.483 238.842 134.397 236.417C133.312 233.992 132.102 230.599 129.658 229.221C126.648 227.524 124.093 230.605 121.207 228.571C117.703 226.139 117.43 220.77 108.53 219.671C99.6306 218.572 99.9037 228.571 99.3641 230.183C98.8245 231.795 93.7018 228.571 90.731 230.722C87.7601 232.874 88.5792 237.223 87.7666 238.01C86.954 238.797 83.1835 237.197 82.1043 238.01C81.0252 238.823 79.6795 239.622 79.6795 239.622L73.4712 241.514H147.613L143.57 240.188Z" stroke="#263238" stroke-linecap="round" stroke-linejoin="round"/>
<path d="M415.78 168.887L346.78 103.521H362.617L248.124 33.4092L281.655 103.521H297.491L347.86 151.237" stroke="#263238" stroke-linecap="round" stroke-linejoin="round"/>
<path d="M146.314 208.964L106.828 171.565H111.489L77.7817 150.918L87.6565 171.565H92.3176L131.797 208.964" stroke="#263238" stroke-linecap="round" stroke-linejoin="round"/>
<path d="M348.1 52.4559L324.047 37.7314L331.094 52.4559H337.068L365.236 79.1419H370.294L342.126 52.4559H348.1Z" fill="#263238"/>
<path d="M291.426 139.821L267.379 125.097L274.426 139.821H280.394L308.562 166.507H313.619L285.451 139.821H291.426Z" fill="#263238"/>
<path d="M46.4021 237.549L22.3555 222.824L29.3959 237.549H35.3702L63.5384 264.235H68.596L40.4278 237.549H46.4021Z" fill="#263238"/>
<path d="M90.3803 33.5514L42.625 4.31055L56.6148 33.5514H68.4724L124.412 86.5398H134.456L78.5162 33.5514H90.3803Z" fill="#263238"/>
<path d="M352.774 249.646C350.174 249.341 349.056 252.545 348.093 251.011C347.131 249.477 350.85 246.571 346.683 243.906C342.516 241.24 340.565 245.063 339.246 243.698C337.926 242.333 338.875 238.764 336.125 237.197C333.375 235.63 332.082 237.58 330.561 237.645C329.039 237.71 324.235 235.13 322.318 237.158C320.4 239.186 324.989 244.101 322.831 244.25C320.673 244.4 319.808 248.593 321.531 251.31C323.254 254.028 328.909 255.1 327.811 256.511C326.712 257.922 321.31 257.844 323.527 261.016C325.743 264.188 333.154 264.396 334.221 264.774C335.287 265.151 330.795 265.97 331.555 268.941C332.316 271.911 338.492 272.276 342.47 270.371C346.449 268.466 345.721 262.804 345.721 262.804H345.922C345.409 261.651 344.834 260.527 344.199 259.436H344.141H335.287C335.201 259.436 335.118 259.402 335.057 259.341C334.996 259.28 334.962 259.197 334.962 259.111C334.962 259.025 334.996 258.942 335.057 258.881C335.118 258.82 335.201 258.786 335.287 258.786H343.874C341.901 255.621 339.565 252.697 336.912 250.075L328.077 249.21C328.035 249.207 327.993 249.196 327.956 249.176C327.918 249.156 327.884 249.13 327.857 249.097C327.83 249.064 327.809 249.026 327.797 248.985C327.784 248.945 327.78 248.902 327.785 248.859C327.793 248.774 327.834 248.696 327.9 248.641C327.966 248.586 328.051 248.56 328.136 248.567L336.184 249.347C333.832 247.045 331.29 244.946 328.584 243.074C328.548 243.051 328.516 243.02 328.491 242.985C328.466 242.949 328.449 242.909 328.44 242.867C328.431 242.824 328.43 242.781 328.438 242.738C328.446 242.695 328.463 242.655 328.487 242.619C328.534 242.547 328.608 242.498 328.692 242.481C328.776 242.464 328.864 242.481 328.935 242.528C331.569 244.346 334.048 246.379 336.346 248.606L334.539 242.456C334.527 242.413 334.524 242.369 334.529 242.325C334.534 242.281 334.548 242.238 334.57 242.2C334.592 242.161 334.621 242.127 334.656 242.1C334.691 242.072 334.73 242.052 334.773 242.04C334.816 242.028 334.86 242.025 334.904 242.03C334.948 242.035 334.991 242.049 335.03 242.071C335.068 242.093 335.102 242.122 335.13 242.157C335.157 242.191 335.177 242.231 335.189 242.274L337.328 249.542C339.839 252.031 342.079 254.779 344.011 257.74L344.557 251.037C344.567 250.952 344.608 250.874 344.674 250.819C344.739 250.763 344.822 250.734 344.908 250.738C344.993 250.746 345.072 250.788 345.126 250.854C345.181 250.919 345.208 251.004 345.201 251.089L344.589 258.669C345.384 259.985 346.088 261.353 346.696 262.765C348.451 262.648 352.377 262.004 354.497 258.624C357.182 254.197 355.368 249.939 352.774 249.646Z" fill="#263238"/>
<path d="M366.562 228.252C364.528 226.601 361.869 228.713 361.875 226.9C361.882 225.086 366.576 224.618 364.476 220.139C362.376 215.66 358.69 217.857 358.3 215.998C357.91 214.138 360.621 211.623 359.126 208.847C357.63 206.071 355.505 207.02 354.178 206.246C352.852 205.473 350.174 200.74 347.469 201.436C344.765 202.131 346.026 208.736 344.128 207.709C342.23 206.682 339.246 209.77 339.278 213.001C339.311 216.232 343.497 220.152 341.814 220.756C340.13 221.361 335.625 218.429 335.787 222.277C335.95 226.126 342.126 230.274 342.828 231.164C343.53 232.055 339.291 230.352 338.349 233.27C337.406 236.189 342.438 239.771 346.8 240.298C351.162 240.824 353.593 235.637 353.593 235.637L353.756 235.741C353.943 234.494 354.056 233.237 354.094 231.977H354.042L346.501 227.218C346.433 227.169 346.387 227.097 346.372 227.015C346.356 226.933 346.372 226.849 346.417 226.779C346.462 226.709 346.533 226.659 346.613 226.639C346.694 226.619 346.78 226.631 346.852 226.672L354.139 231.229C354.154 227.499 353.735 223.779 352.891 220.145L345.877 214.704C345.808 214.65 345.764 214.572 345.753 214.485C345.742 214.399 345.766 214.312 345.818 214.242C345.875 214.178 345.953 214.137 346.038 214.126C346.123 214.115 346.209 214.136 346.28 214.184L352.657 219.144C351.904 215.94 350.877 212.806 349.589 209.776C349.553 209.698 349.549 209.608 349.579 209.527C349.609 209.446 349.67 209.38 349.748 209.344C349.826 209.308 349.916 209.304 349.997 209.334C350.078 209.364 350.144 209.425 350.18 209.503C351.435 212.449 352.446 215.493 353.203 218.605L354.952 212.442C354.975 212.355 355.032 212.282 355.109 212.238C355.187 212.193 355.279 212.181 355.365 212.204C355.451 212.228 355.524 212.284 355.569 212.362C355.613 212.439 355.625 212.531 355.602 212.617L353.489 219.905C354.293 223.348 354.728 226.868 354.789 230.404L358.827 225.021C358.879 224.953 358.956 224.909 359.041 224.897C359.126 224.885 359.212 224.906 359.282 224.956C359.351 225.008 359.396 225.085 359.408 225.17C359.42 225.255 359.398 225.342 359.347 225.411L354.796 231.496C354.767 233.033 354.635 234.566 354.399 236.085C355.94 236.924 359.6 238.471 363.182 236.735C367.863 234.454 368.591 229.896 366.562 228.252Z" fill="#263238"/>
<path d="M372.342 266.757C371.21 265.84 369.741 267.017 369.741 266.009C369.741 265.002 372.342 264.709 371.191 262.232C370.04 259.755 367.94 260.932 367.739 259.918C367.537 258.904 369.039 257.48 368.201 255.92C367.362 254.36 366.179 254.899 365.438 254.477C364.697 254.054 363.208 251.402 361.7 251.792C360.191 252.182 360.887 255.861 359.827 255.289C358.768 254.717 357.104 256.44 357.123 258.241C357.143 260.042 359.476 262.232 358.54 262.57C357.604 262.908 355.082 261.27 355.173 263.422C355.264 265.574 358.709 267.888 359.073 268.382C359.437 268.876 357.123 267.927 356.57 269.559C356.018 271.191 358.852 273.199 361.297 273.459C363.741 273.719 365.087 270.859 365.087 270.859L365.184 270.917C365.286 270.222 365.349 269.521 365.373 268.818L361.167 266.165C361.125 266.139 361.096 266.098 361.085 266.051C361.074 266.003 361.082 265.953 361.108 265.912C361.134 265.87 361.175 265.841 361.223 265.83C361.27 265.819 361.32 265.827 361.362 265.853L365.418 268.415C365.428 266.334 365.194 264.259 364.723 262.232L360.822 259.19C360.805 259.174 360.791 259.154 360.782 259.132C360.773 259.11 360.768 259.087 360.768 259.063C360.768 259.039 360.773 259.016 360.782 258.994C360.791 258.972 360.805 258.953 360.822 258.936C360.852 258.899 360.895 258.874 360.942 258.868C360.99 258.862 361.038 258.875 361.076 258.904L364.638 261.667C364.213 259.888 363.639 258.148 362.922 256.466C362.911 256.445 362.904 256.422 362.903 256.398C362.901 256.374 362.904 256.35 362.912 256.328C362.92 256.305 362.933 256.284 362.949 256.267C362.965 256.249 362.985 256.235 363.006 256.226C363.05 256.206 363.1 256.204 363.145 256.221C363.19 256.238 363.227 256.273 363.247 256.317C363.952 257.958 364.517 259.657 364.937 261.394L365.912 257.948C365.927 257.903 365.959 257.864 366.001 257.841C366.044 257.818 366.093 257.812 366.14 257.825C366.163 257.831 366.184 257.843 366.203 257.858C366.222 257.873 366.237 257.892 366.249 257.913C366.26 257.934 366.268 257.957 366.27 257.981C366.273 258.005 366.27 258.029 366.263 258.052L365.106 262.122C365.552 264.041 365.792 266.002 365.821 267.973L368.077 264.969C368.106 264.93 368.15 264.905 368.198 264.898C368.246 264.891 368.295 264.904 368.334 264.933C368.373 264.963 368.398 265.006 368.405 265.054C368.412 265.103 368.399 265.151 368.37 265.19L365.821 268.584C365.803 269.442 365.727 270.297 365.594 271.145C366.458 271.613 368.506 272.478 370.502 271.509C373.07 270.222 373.473 267.68 372.342 266.757Z" fill="#263238"/>
<path d="M407.622 264.195C406.322 260.242 400.965 260.743 402.545 258.344C404.124 255.945 410.788 259.397 411.867 251.596C412.946 243.795 406.133 243.535 407.225 240.72C408.317 237.905 414.103 236.911 414.539 231.892C414.974 226.873 411.288 226.314 410.19 224.156C409.091 221.998 409.631 213.358 405.424 211.941C401.218 210.524 397.175 220.392 395.537 217.395C393.898 214.398 387.255 215.913 384.485 220.243C381.716 224.572 383.92 233.394 381.144 232.744C378.368 232.094 374.922 224.293 371.802 229.545C368.682 234.798 373.317 245.687 373.486 247.481C373.655 249.275 369.475 243.334 365.685 246.408C361.895 249.483 365.483 258.637 370.885 263.109C376.288 267.582 383.978 262.784 383.978 262.784L384.102 263.07C385.43 261.569 386.671 259.993 387.82 258.351C387.799 258.327 387.782 258.301 387.768 258.272L381.846 245.407C381.817 245.346 381.801 245.279 381.798 245.212C381.795 245.144 381.806 245.076 381.829 245.013C381.852 244.949 381.888 244.89 381.934 244.84C381.979 244.79 382.035 244.75 382.096 244.721C382.158 244.693 382.224 244.677 382.292 244.674C382.36 244.671 382.427 244.681 382.491 244.705C382.555 244.728 382.613 244.763 382.663 244.809C382.713 244.855 382.753 244.91 382.782 244.972L388.49 257.375C391.744 252.422 394.412 247.108 396.44 241.539L391.805 228.193C391.783 228.129 391.773 228.062 391.777 227.995C391.781 227.928 391.798 227.862 391.828 227.801C391.858 227.741 391.899 227.687 391.95 227.642C392.001 227.598 392.06 227.564 392.124 227.543C392.252 227.504 392.391 227.516 392.511 227.575C392.632 227.634 392.725 227.736 392.774 227.862L396.986 239.992C398.751 235.068 400.093 230.003 400.997 224.852C401.018 224.717 401.091 224.596 401.201 224.514C401.31 224.433 401.447 224.397 401.582 224.416C401.65 224.426 401.714 224.448 401.772 224.483C401.831 224.518 401.882 224.563 401.922 224.618C401.963 224.672 401.992 224.734 402.008 224.8C402.025 224.866 402.028 224.934 402.018 225.001C401.146 230.012 399.858 234.941 398.17 239.739L405.847 233.036C405.952 232.973 406.077 232.949 406.198 232.969C406.319 232.989 406.429 233.053 406.507 233.147C406.586 233.241 406.628 233.361 406.626 233.483C406.624 233.606 406.579 233.724 406.497 233.816L397.396 241.734C395.473 247.015 392.995 252.077 390.004 256.836L400.042 253.163C400.169 253.121 400.308 253.13 400.43 253.188C400.551 253.246 400.645 253.349 400.692 253.475C400.736 253.602 400.729 253.741 400.672 253.862C400.615 253.984 400.512 254.078 400.386 254.125L389.036 258.279C387.663 260.3 386.156 262.226 384.524 264.045C385.824 266.496 389.393 271.729 395.667 272.496C403.981 273.582 408.896 268.141 407.622 264.195Z" fill="#263238"/>
<path d="M376.898 274.98L385.304 263.721L384.264 262.947L375.273 274.98H376.898Z" fill="#263238"/>
<path d="M363.526 274.98L355.004 235.949L353.736 236.222L362.193 274.98H363.526Z" fill="#263238"/>
<path d="M356.096 274.98L346.468 262.395L345.435 263.181L354.458 274.98H356.096Z" fill="#263238"/>
<path d="M275.264 170.336C275.264 170.336 276.792 173.411 277.423 184.183C278.053 194.955 282.493 218.637 285.029 227.738C287.564 236.84 290.736 274.857 290.736 274.857H267.918C267.918 274.857 266.651 266.828 265.806 260.49C264.961 254.151 262.211 243.588 261.158 239.993C260.104 236.398 258.2 229.643 258.2 229.643C258.2 229.643 258.947 198.348 275.264 170.336Z" fill="#92E3A9" stroke="#263238" stroke-linecap="round" stroke-linejoin="round"/>
<path d="M273.561 179.84C273.561 179.84 271.318 189.195 267.249 204.05C263.179 218.904 262.367 228.46 262.165 230.294C261.964 232.127 261.177 239.993 261.177 239.993L258.323 231.717C258.323 231.717 258.928 212.39 260.761 204.251C262.594 196.112 273.984 177.806 273.984 177.806L273.561 179.84Z" fill="#263238" stroke="#263238" stroke-linecap="round" stroke-linejoin="round"/>
<path d="M268.757 256.629C271.76 248.107 273.748 239.261 274.68 230.274" stroke="#263238" stroke-linecap="round" stroke-linejoin="round"/>
<path d="M266.228 262.817C266.228 262.817 266.878 261.517 267.827 259.099" stroke="#263238" stroke-linecap="round" stroke-linejoin="round"/>
<path d="M273.529 218.508C272.397 227.069 270.811 238.66 269.81 244.433" stroke="#263238" stroke-linecap="round" stroke-linejoin="round"/>
<path d="M274.887 208.087C274.887 208.087 274.516 210.999 273.964 215.238" stroke="#263238" stroke-linecap="round" stroke-linejoin="round"/>
<path d="M200.908 152.635L197.879 152.206C197.879 152.206 196.799 148.526 195.499 148.097C194.199 147.668 191.176 148.097 190.533 147.661C188.45 145.932 186.206 144.409 183.83 143.111C179.507 140.732 168.267 144.411 166.538 144.411C164.809 144.411 160.915 141.811 160.915 141.811L150.11 132.71C150.11 132.71 149.031 128.386 144.058 123.199C139.085 118.011 136.257 115.853 132.597 111.094C128.937 106.336 125.037 108.071 121.793 109.365C118.549 110.659 110.553 125.182 112.308 127.996C114.063 130.811 118.159 135.342 120.304 137.936C122.449 140.53 132.656 159.987 135.652 160.852C137.494 161.381 139.299 162.033 141.055 162.802C141.055 162.802 148.407 173.392 154.245 177.286C158.929 180.265 163.761 183.005 168.722 185.496L171.076 187.239C171.076 187.239 173.676 224.638 175.834 231.984C177.992 239.33 178.207 262.245 178.207 262.245L177.966 275H254.026L256.841 245.389C256.841 245.389 259.442 215.342 265.702 200.643C271.962 185.945 276.779 172.287 275.265 170.336C273.75 168.386 251.056 157.796 246.297 154.552C241.538 151.308 238.301 148.936 238.301 148.936L204.366 150.886L200.908 152.635Z" fill="#92E3A9" stroke="#263238" stroke-linecap="round" stroke-linejoin="round"/>
<path d="M217.115 248.737L217.336 252.501L207.175 270.872L199.367 259.658L195.285 253.801L195.584 252.065L197.482 241.092L199.393 229.988L201.291 219.008L203.209 207.905L205.101 196.931L207.019 185.828L208.904 174.9L208.891 174.868L205.166 167.236L204.581 166.039L212.362 159.831L213.929 161.846L218.2 167.333L215.899 170.551L212.791 174.9L213.208 182.018L213.767 191.601L214.326 201.066L214.885 210.642L215.437 220.113L216.003 229.689L216.555 239.161L217.115 248.737Z" fill="white" stroke="#263238" stroke-linecap="round" stroke-linejoin="round"/>
<path d="M213.929 161.847L205.166 167.236L208.891 174.887L215.899 170.571L218.2 167.353L213.929 161.847ZM213.208 181.999L207.019 185.809L205.101 196.912L213.767 191.582L213.208 181.999ZM214.326 201.047L203.209 207.886L201.291 218.989L214.885 210.642L214.326 201.047ZM215.437 220.094L199.419 229.989L197.469 241.092L215.99 229.69L215.437 220.094ZM216.555 239.142L195.584 252.065L195.285 253.801L199.367 259.652L217.115 248.731L216.555 239.142Z" fill="#263238"/>
<path d="M150.325 134.263L153.133 143.988" stroke="#263238" stroke-linecap="round" stroke-linejoin="round"/>
<path d="M165.79 166.163C165.14 163.523 164.646 161.671 164.594 161.495" stroke="#263238" stroke-linecap="round" stroke-linejoin="round"/>
<path d="M171.075 187.238C171.075 187.238 168.508 176.961 166.603 169.394L167.428 180.647L154.219 177.299L171.075 187.238Z" fill="#263238" stroke="#263238" stroke-linecap="round" stroke-linejoin="round"/>
<path d="M168.676 154.656C168.346 152.858 167.847 151.095 167.188 149.391" stroke="#263238" stroke-linecap="round" stroke-linejoin="round"/>
<path d="M171.725 183.117C171.725 183.117 170.978 168.107 169.209 157.536" stroke="#263238" stroke-linecap="round" stroke-linejoin="round"/>
<path d="M195.72 150.255C195.72 150.255 193.77 161.066 197.228 170.362" stroke="#263238" stroke-linecap="round" stroke-linejoin="round"/>
<path d="M198.528 180.789C199.105 181.758 199.757 182.679 200.479 183.545" stroke="#263238" stroke-linecap="round" stroke-linejoin="round"/>
<path d="M192.69 164.096C192.69 164.096 194.023 171.962 197.319 178.586" stroke="#263238" stroke-linecap="round" stroke-linejoin="round"/>
<path d="M111.007 118.485C111.007 118.485 113.822 123.686 116.416 124.752C119.01 125.818 123.762 124.752 126.356 121.079C128.95 117.406 130.464 114.377 128.306 111.783C126.954 110.178 125.428 108.728 123.755 107.46C123.755 107.46 113.361 109.839 111.007 118.485Z" fill="#92E3A9" stroke="#263238" stroke-linecap="round" stroke-linejoin="round"/>
<path d="M123.736 107.46C123.736 107.46 114.68 98.0597 112.405 95.7584C110.13 93.4571 104.572 89.186 99.6439 85.0189C94.7163 80.8519 89.4051 74.273 88.3974 76.5678C87.3898 78.8626 90.2892 84.7849 92.6945 88.5749C95.0998 92.3649 99.1369 94.5167 99.5204 94.7702C99.904 95.0238 95.8539 99.8214 96.231 101.213L96.608 102.604C96.608 102.604 93.4486 106.394 93.7021 107.531C94.0208 108.436 94.541 109.256 95.2233 109.93C95.2233 109.93 93.4486 113.22 93.9557 114.104C94.4627 114.988 98.8833 120.423 100.782 120.546C102.68 120.67 102.927 119.408 102.296 118.654C101.666 117.9 99.5204 114.988 99.5204 114.988C99.5204 114.988 105.839 118.401 107.477 118.524C108.933 118.506 110.379 118.287 111.774 117.874C111.774 117.874 114.68 121.034 117.716 120.657C120.752 120.28 124.796 115.852 125.426 113.324C126.057 110.795 125.589 110.034 123.736 107.46Z" fill="white" stroke="#263238" stroke-linecap="round" stroke-linejoin="round"/>
<path d="M113.543 99.4766C113.543 99.4766 105.332 102.506 104.701 103.267C104.071 104.027 99.8973 107.564 98.5061 108.194C97.115 108.825 97.492 111.737 99.1562 111.984C100.82 112.231 106.613 109.715 107.243 109.462C107.874 109.208 112.678 109.462 114.453 108.578" stroke="#263238" stroke-linecap="round" stroke-linejoin="round"/>
<path d="M108.869 109.689C108.869 109.689 109.376 112.94 113.543 113.59C114.833 113.82 116.155 113.793 117.435 113.511C118.714 113.228 119.926 112.696 120.999 111.945" stroke="#263238" stroke-linecap="round" stroke-linejoin="round"/>
<path d="M100.405 95.1543C100.405 95.1543 104.702 96.5455 107.354 96.4155" stroke="#263238" stroke-linecap="round" stroke-linejoin="round"/>
<path d="M101.542 95.5312C101.542 95.5312 103.057 100.335 106.47 102.104" stroke="#263238" stroke-linecap="round" stroke-linejoin="round"/>
<path d="M96.6084 102.61C96.6084 102.61 98.7602 105.393 101.289 106.654" stroke="#263238" stroke-linecap="round" stroke-linejoin="round"/>
<path d="M95.2231 109.937C95.2231 109.937 99.3902 113.226 106.847 114.741C106.847 114.741 108.868 114.741 108.615 112.088" stroke="#263238" stroke-linecap="round" stroke-linejoin="round"/>
<path d="M100.528 113.096L99.5205 114.994" stroke="#263238" stroke-linecap="round" stroke-linejoin="round"/>
<path d="M208.826 85.9612C208.826 85.9612 203.118 106.335 201.025 115.28C198.932 124.225 199.12 131.084 201.974 135.842C202.859 137.381 204.098 138.687 205.588 139.652L204.067 148.792C204.067 148.792 209.781 158.498 211.868 159.843C213.955 161.189 234.14 144.423 234.14 144.423L236.233 126.715C236.233 126.715 243.092 127.099 244.802 123.289C246.511 119.48 246.329 116.054 245.562 115.293L244.802 114.532C244.802 114.532 247.467 104.066 248.8 101.778C250.308 99.1774 252.284 96.9476 252.167 93.7752C251.881 86.2602 245.315 78.6672 238.593 75.8719C232.027 73.135 223.875 71.4253 216.815 72.8425C208.254 74.5392 204.067 80.8255 208.826 85.9612Z" fill="white" stroke="#263238" stroke-linecap="round" stroke-linejoin="round"/>
<path d="M238.6 75.8592C232.034 73.1223 223.882 71.4126 216.822 72.8298C208.254 74.5395 204.067 80.8258 208.826 85.9615C211.331 86.5782 213.877 87.0128 216.445 87.2617C220.443 87.6452 229.576 88.2173 232.814 89.7385C234.432 90.4415 235.96 91.3363 237.364 92.4038C237.364 92.4038 233.938 98.9047 235.843 102.305C237.748 105.705 241.362 107.447 240.79 108.968C240.218 110.489 237.937 115.631 238.697 116.769C239.458 117.907 241.746 113.72 242.695 113.72C243.444 113.801 244.162 114.062 244.788 114.481C244.788 114.481 247.454 104.014 248.786 101.726C250.295 99.1257 252.271 96.8959 252.154 93.7235C251.887 86.2475 245.321 78.674 238.6 75.8592Z" fill="#263238" stroke="#263238" stroke-linecap="round" stroke-linejoin="round"/>
<path d="M212.245 106.147C212.063 107.395 211.322 108.318 210.594 108.208C209.866 108.097 209.424 107.005 209.612 105.757C209.801 104.509 210.535 103.586 211.264 103.69C211.992 103.794 212.421 104.899 212.245 106.147Z" fill="#263238"/>
<path d="M225.422 110.145C225.24 111.393 224.499 112.316 223.771 112.212C223.043 112.108 222.601 111.003 222.79 109.755C222.978 108.507 223.706 107.584 224.434 107.688C225.162 107.792 225.572 108.897 225.422 110.145Z" fill="#263238"/>
<path d="M216.445 105.978C216.445 105.978 215.489 111.12 213.396 113.974C211.303 116.827 207.688 117.595 208.637 119.116C209.586 120.637 214.351 121.209 214.351 121.209" stroke="#263238" stroke-linecap="round" stroke-linejoin="round"/>
<path d="M209.586 123.849C209.586 123.849 214.917 126.703 219.682 124.993" stroke="#263238" stroke-linecap="round" stroke-linejoin="round"/>
<path d="M227.483 137.364C227.483 137.364 223.869 139.269 216.432 141.174C208.995 143.079 205.575 139.653 205.575 139.653L204.061 148.754C211.335 145.783 227.483 137.364 227.483 137.364Z" fill="#263238" stroke="#263238" stroke-linecap="round" stroke-linejoin="round"/>
<path d="M204.067 104.43C204.067 104.43 202.923 102.337 200.817 105.002C198.711 107.667 201.012 115.28 201.012 115.28L204.067 104.43Z" stroke="#263238" stroke-linecap="round" stroke-linejoin="round"/>
<path d="M208.253 97.5788C208.253 97.5788 211.686 96.2461 215.112 100.049" stroke="#263238" stroke-width="3" stroke-linecap="round" stroke-linejoin="round"/>
<path d="M223.108 102.728C224.533 101.965 226.143 101.614 227.756 101.715C229.369 101.816 230.923 102.365 232.242 103.3" stroke="#263238" stroke-width="3" stroke-linecap="round" stroke-linejoin="round"/>
<path d="M226.534 118.901C230.846 118.901 234.342 115.406 234.342 111.094C234.342 106.782 230.846 103.286 226.534 103.286C222.222 103.286 218.727 106.782 218.727 111.094C218.727 115.406 222.222 118.901 226.534 118.901Z" stroke="#263238" stroke-linecap="round" stroke-linejoin="round"/>
<path d="M209.444 113.376C213.307 113.376 216.439 110.244 216.439 106.381C216.439 102.517 213.307 99.3857 209.444 99.3857C205.58 99.3857 202.449 102.517 202.449 106.381C202.449 110.244 205.58 113.376 209.444 113.376Z" stroke="#263238" stroke-linecap="round" stroke-linejoin="round"/>
<path d="M216.445 106.381C216.445 106.381 218.538 105.38 219.487 106.907" stroke="#263238" stroke-linecap="round" stroke-linejoin="round"/>
<path d="M234.146 112.615L241.005 115.092" stroke="#263238" stroke-linecap="round" stroke-linejoin="round"/>
<path d="M211.874 159.831L202.201 173.385L198.743 149.826L203.93 147.018L211.874 159.831Z" fill="#92E3A9" stroke="#263238" stroke-linecap="round" stroke-linejoin="round"/>
<path d="M211.875 159.831L219.708 174.9L238.3 148.962L234.146 144.411L211.875 159.831Z" fill="#92E3A9" stroke="#263238" stroke-linecap="round" stroke-linejoin="round"/>
<path d="M189.128 64.5668C194.396 57.7172 196.96 49.1688 196.33 40.5507C195.701 31.9327 191.922 23.8474 185.715 17.836C179.508 11.8245 171.306 8.30714 162.672 7.95419C154.038 7.60124 145.576 10.4374 138.899 15.9221C132.222 21.4069 127.796 29.1567 126.465 37.6947C125.135 46.2326 126.992 54.9618 131.683 62.2184C136.374 69.4751 143.572 74.752 151.903 77.0433C160.235 79.3347 169.119 78.4803 176.861 74.6431C179.064 73.5466 181.147 72.2242 183.076 70.6971L193.373 79.9738L189.128 64.5668Z" fill="#263238" stroke="#263238" stroke-linecap="round" stroke-linejoin="round"/>
<path d="M186.417 63.4878C191.692 56.6348 194.26 48.0807 193.633 39.4557C193.006 30.8307 189.227 22.738 183.017 16.72C176.807 10.702 168.599 7.17945 159.959 6.82377C151.319 6.46809 142.849 9.30414 136.166 14.7914C129.482 20.2786 125.051 28.0334 123.717 36.5776C122.383 45.1219 124.24 53.8582 128.933 61.1215C133.627 68.3847 140.829 73.6671 149.166 75.9618C157.504 78.2565 166.395 77.403 174.143 73.5641C176.346 72.469 178.428 71.1488 180.358 69.6246L190.656 78.8883L186.417 63.4878Z" fill="white" stroke="#263238" stroke-linecap="round" stroke-linejoin="round"/>
<path d="M174.17 73.5636C167.765 76.7335 160.549 77.8832 153.477 76.8605C146.405 75.8377 139.81 72.6907 134.566 67.8363L140.788 57.6495L144.786 60.1718L155.298 31.373L164.314 66.6922L170.412 62.9087L174.17 73.5636Z" fill="#263238" stroke="#263238" stroke-linecap="round" stroke-linejoin="round"/>
<path d="M155.298 31.3735V12.8721" stroke="#263238" stroke-linecap="round" stroke-linejoin="round"/>
<path d="M155.401 13.9834C155.401 13.9834 162.819 14.484 163.567 15.5696C164.314 16.6552 164.568 19.4051 164.867 19.5676C165.166 19.7302 169.45 19.6521 169.781 20.2177C170.113 20.7833 170.782 23.2991 171.198 23.8842C171.615 24.4693 175.099 24.8853 175.099 24.8853C174.624 25.2059 174.121 25.4843 173.597 25.7174C173.097 25.88 171.764 26.1335 171.764 26.1335L173.929 26.7186C173.118 27.406 172.124 27.84 171.068 27.9667C170.413 27.9933 169.762 27.8633 169.167 27.5874C168.572 27.3116 168.052 26.8978 167.649 26.3805C167.402 25.9645 164.568 26.1335 163.651 25.88C162.734 25.6264 162.903 24.0467 162.487 23.5527C162.071 23.0586 155.336 22.714 155.336 22.714L155.401 13.9834Z" fill="#92E3A9" stroke="#263238" stroke-linecap="round" stroke-linejoin="round"/>
<path d="M1 274.98H451.444" stroke="#263238" stroke-linecap="round" stroke-linejoin="round"/>
</svg>
