<svg width="419" height="383" viewBox="0 0 419 383" fill="none" xmlns="http://www.w3.org/2000/svg">
<path d="M225.086 382.345C320.016 382.345 396.971 377.047 396.971 370.512C396.971 363.977 320.016 358.679 225.086 358.679C130.157 358.679 53.2012 363.977 53.2012 370.512C53.2012 377.047 130.157 382.345 225.086 382.345Z" fill="#263238"/>
<path d="M121.827 281.367C121.114 277.925 120.167 272.986 119.302 267.018C119.047 265.298 118.803 263.475 118.579 261.591C119.352 261.448 125.503 260.247 127.896 258.536C130.076 256.998 132.418 254.462 132.509 251.611C132.562 250.944 132.472 250.273 132.246 249.643C132.02 249.013 131.662 248.438 131.197 247.957C130.732 247.476 130.17 247.098 129.549 246.851C128.927 246.603 128.259 246.49 127.591 246.519C123.599 246.794 119.913 252.986 119.047 256.458C118.996 256.682 118.64 259.371 118.487 260.756C118.354 259.615 118.222 258.485 118.1 257.304C117.917 255.593 117.774 253.79 117.631 252.039C117.631 251.122 117.54 250.206 117.499 249.279C117.458 248.352 117.499 247.446 117.499 246.509C117.499 245.145 117.601 243.729 117.672 242.324C119.424 242.242 124.546 241.906 126.837 240.745C129.128 239.584 131.929 237.375 132.448 234.635C132.591 233.988 132.596 233.319 132.464 232.67C132.332 232.02 132.066 231.406 131.682 230.866C131.299 230.326 130.806 229.872 130.237 229.534C129.667 229.196 129.033 228.98 128.375 228.902C124.393 228.576 119.801 234.136 118.436 237.436C118.385 237.538 118.171 238.271 117.917 239.136C118.039 237.762 118.151 236.387 118.324 235.002C118.792 231.081 119.403 227.09 119.994 223.087C120.116 222.252 120.228 221.428 120.35 220.593C121.817 220.521 127.377 220.216 129.79 219.004C132.204 217.792 134.882 215.623 135.401 212.894C135.546 212.247 135.552 211.577 135.421 210.927C135.29 210.277 135.024 209.662 134.64 209.121C134.256 208.581 133.763 208.127 133.192 207.789C132.622 207.452 131.987 207.237 131.328 207.161C127.336 206.835 122.754 212.395 121.379 215.694C121.379 215.806 121.073 216.713 120.788 217.65C121.084 215.48 121.338 213.301 121.532 211.142C121.89 207.42 121.996 203.677 121.847 199.941C122.367 199.941 128.884 199.686 131.572 198.342C133.966 197.15 136.664 194.971 137.184 192.232C137.328 191.585 137.334 190.916 137.203 190.266C137.072 189.617 136.805 189.003 136.421 188.463C136.037 187.924 135.544 187.471 134.974 187.134C134.403 186.797 133.768 186.584 133.11 186.509C129.118 186.173 124.536 191.743 123.161 195.032C123.059 195.267 122.143 198.423 121.868 199.554C121.863 199.51 121.863 199.465 121.868 199.421C121.632 195.764 121.073 192.135 120.198 188.576C119.429 185.394 118.477 182.259 117.346 179.187C116.328 176.336 115.218 173.78 114.22 171.529C113.67 170.307 113.141 169.207 112.642 168.189H112.723C112.794 168.189 112.601 163.352 112.56 163.097C112.01 159.574 108.884 153.077 104.933 152.445C104.274 152.358 103.604 152.41 102.967 152.599C102.33 152.788 101.74 153.109 101.235 153.542C100.731 153.974 100.323 154.508 100.039 155.109C99.755 155.71 99.6008 156.364 99.5865 157.028C99.4236 159.849 101.532 162.608 103.558 164.34C105.585 166.071 111.063 167.761 112.407 168.148C112.906 169.228 113.426 170.378 113.986 171.661C114.933 173.932 116.022 176.499 116.929 179.37C117.183 180.134 117.428 180.969 117.682 181.763C116.98 180.501 115.992 178.78 115.87 178.627C113.762 175.745 107.988 171.417 104.2 172.68C103.575 172.905 103.004 173.26 102.526 173.721C102.047 174.182 101.671 174.738 101.422 175.354C101.173 175.97 101.057 176.632 101.081 177.296C101.105 177.96 101.269 178.611 101.562 179.207C102.713 181.784 105.859 183.281 108.466 183.861C111.073 184.442 116.878 183.413 118.12 183.169C118.65 184.951 119.139 186.794 119.566 188.749C120.336 192.263 120.793 195.837 120.931 199.432C120.931 199.645 120.931 199.859 120.931 200.073C120.686 199.381 119.098 195.725 118.965 195.48C117.183 192.425 111.919 187.446 108.008 188.281C107.361 188.437 106.755 188.728 106.228 189.135C105.701 189.541 105.266 190.055 104.951 190.641C104.636 191.227 104.448 191.873 104.399 192.536C104.35 193.2 104.442 193.867 104.668 194.493C105.534 197.171 108.507 198.994 111.022 199.869C113.925 200.888 120.676 200.236 120.921 200.216C120.976 203.822 120.796 207.427 120.381 211.01C120.086 213.668 119.678 216.346 119.24 219.024C118.904 218.138 117.438 214.737 117.295 214.503C115.523 211.448 110.259 206.478 106.348 207.313C105.703 207.47 105.097 207.761 104.571 208.167C104.045 208.573 103.611 209.085 103.296 209.67C102.981 210.255 102.792 210.899 102.743 211.562C102.693 212.224 102.784 212.89 103.008 213.515C103.874 216.203 106.837 218.016 109.363 218.902C112.194 219.92 118.66 219.299 119.21 219.248C119.006 220.46 118.813 221.682 118.609 222.904C117.927 226.876 117.234 230.868 116.674 234.819C116.471 236.193 116.328 237.548 116.185 238.892C115.646 237.578 114.617 235.216 114.505 235.022C112.723 231.967 107.458 226.988 103.548 227.833C102.902 227.99 102.297 228.28 101.771 228.686C101.245 229.092 100.81 229.604 100.495 230.189C100.18 230.774 99.992 231.419 99.9424 232.081C99.8929 232.744 99.9832 233.409 100.208 234.035C101.073 236.723 104.037 238.536 106.562 239.422C109.088 240.308 114.536 239.921 116.073 239.798C115.839 242.059 115.666 244.31 115.595 246.53C115.595 247.487 115.503 248.475 115.595 249.391C115.686 250.308 115.595 251.244 115.656 252.151C115.778 254.035 115.87 255.786 116.022 257.538C116.094 258.424 116.175 259.259 116.257 260.114C115.91 258.709 115.32 256.479 115.238 256.285C113.945 252.955 109.495 247.283 105.493 247.517C104.831 247.576 104.189 247.774 103.609 248.097C103.028 248.419 102.522 248.86 102.123 249.391C101.723 249.922 101.44 250.531 101.291 251.178C101.142 251.825 101.13 252.497 101.257 253.149C101.705 255.929 104.312 258.179 106.715 259.432C109.322 260.807 115.585 261.214 116.348 261.265C116.552 263.363 116.776 265.41 117.01 267.314C117.764 273.363 118.609 278.363 119.251 281.866C119.892 285.369 120.35 287.355 120.35 287.355C120.381 287.547 120.451 287.73 120.557 287.894C120.662 288.057 120.8 288.197 120.962 288.304C121.124 288.412 121.307 288.484 121.499 288.517C121.69 288.55 121.887 288.543 122.075 288.497C122.264 288.45 122.441 288.365 122.595 288.246C122.749 288.128 122.877 287.978 122.97 287.808C123.064 287.637 123.121 287.449 123.138 287.256C123.155 287.062 123.132 286.867 123.069 286.683C123.069 286.683 122.54 284.819 121.827 281.367Z" fill="#92E3A9"/>
<path d="M118.405 182.425C118.405 182.425 125.126 180.389 127.458 178.281C129.495 176.509 131.532 173.688 131.236 170.867C131.205 170.204 131.033 169.555 130.734 168.963C130.434 168.37 130.013 167.848 129.498 167.429C128.983 167.01 128.386 166.704 127.745 166.532C127.104 166.359 126.434 166.323 125.778 166.427C121.847 167.16 118.884 173.739 118.436 177.283C118.395 177.588 118.334 182.446 118.405 182.425Z" fill="#92E3A9"/>
<path d="M121.949 288.496C122.115 288.61 122.254 288.759 122.357 288.932C122.46 289.106 122.525 289.299 122.547 289.5C122.569 289.7 122.547 289.903 122.484 290.094C122.42 290.286 122.316 290.461 122.179 290.609C122.042 290.756 121.874 290.873 121.688 290.95C121.502 291.027 121.301 291.063 121.099 291.056C120.898 291.049 120.7 290.998 120.52 290.908C120.34 290.818 120.181 290.689 120.055 290.532C120.055 290.532 118.568 289.107 116.114 286.551C113.659 283.995 110.177 280.278 106.215 275.654C104.963 274.188 103.659 272.599 102.325 270.97C101.663 271.347 96.2153 274.463 93.2825 274.748C90.6247 275.003 87.1725 274.595 85.258 272.518C84.7925 272.045 84.4317 271.479 84.199 270.857C83.9663 270.236 83.8668 269.572 83.9072 268.909C83.9475 268.247 84.1267 267.6 84.4331 267.011C84.7395 266.422 85.1663 265.905 85.6857 265.491C88.8935 263.088 95.7367 265.369 98.6492 267.436C98.8223 267.559 100.543 269.086 101.602 270.064C101.063 269.392 100.584 268.75 99.9832 268.027C98.8936 266.652 97.8447 265.247 96.7143 263.73L95.1359 261.469C94.586 260.726 94.1176 259.87 93.588 259.066C92.417 257.172 91.3273 255.196 90.2784 253.18C89.0666 254.127 84.7285 257.447 82.1318 258.108C79.535 258.77 76.0217 258.882 73.8629 257.09C73.3301 256.693 72.8869 256.188 72.5621 255.608C72.2373 255.028 72.0381 254.387 71.9776 253.725C71.9171 253.063 71.9966 252.396 72.2108 251.767C72.4251 251.138 72.7694 250.561 73.2213 250.074C76.0319 247.222 83.1399 248.434 86.3273 250.074C86.531 250.176 88.6898 251.581 89.8609 252.375C89.2397 251.153 88.6084 249.941 88.0177 248.689C86.3069 245.084 84.6878 241.377 83.0584 237.681C82.5595 236.55 82.0401 235.43 81.5411 234.3C81.1134 234.646 76.0421 238.709 73.1398 239.442C70.5533 240.104 67.0298 240.216 64.8709 238.424C64.3382 238.027 63.895 237.522 63.5702 236.942C63.2454 236.362 63.0462 235.721 62.9857 235.059C62.9252 234.397 63.0047 233.73 63.2189 233.101C63.4332 232.472 63.7775 231.895 64.2294 231.408C67.0298 228.556 74.1378 229.768 77.3354 231.408C77.5798 231.53 80.6857 233.556 81.4087 234.106C80.2886 231.632 79.1582 229.177 77.9362 226.795C76.3046 223.577 74.4678 220.468 72.4372 217.487C72.2335 217.65 66.9687 221.917 63.985 222.67C61.3984 223.322 57.875 223.444 55.7161 221.652C55.1827 221.255 54.7391 220.75 54.4143 220.17C54.0895 219.589 53.8908 218.947 53.8312 218.285C53.7716 217.623 53.8525 216.955 54.0685 216.327C54.2845 215.698 54.6308 215.122 55.0847 214.636C57.8852 211.784 64.9931 212.996 68.1805 214.636C68.4351 214.758 71.7753 216.937 72.3557 217.375C72.2335 217.202 72.1317 217.019 72.0095 216.845C69.8768 213.926 67.4915 211.2 64.8811 208.699C63.4555 207.293 62.0196 206.031 60.5939 204.829C59.6876 205.725 55.5023 209.768 52.9259 210.746C50.3495 211.723 46.989 212.181 44.5959 210.664C44.0231 210.329 43.5274 209.876 43.1412 209.336C42.755 208.796 42.4868 208.181 42.3542 207.531C42.2216 206.88 42.2276 206.209 42.3717 205.561C42.5158 204.913 42.7948 204.303 43.1906 203.77C45.6651 200.623 52.8648 201.041 56.2151 202.283C56.3984 202.355 58.1703 203.24 59.4534 203.902C58.8017 203.373 58.1398 202.813 57.5084 202.324C55.1255 200.45 52.8342 198.882 50.7975 197.517C49.6265 196.754 48.5572 196.082 47.5491 195.481C46.2049 195.898 40.7771 197.517 38.0683 197.181C35.3596 196.845 32.1314 195.715 30.7058 193.271C30.3544 192.708 30.1251 192.077 30.0326 191.42C29.9401 190.763 29.9866 190.093 30.1689 189.455C30.3513 188.817 30.6654 188.224 31.0912 187.715C31.517 187.206 32.0448 186.792 32.6406 186.499C36.2863 184.849 42.4777 188.536 44.8606 191.183C45.0643 191.418 47.9157 195.359 47.8342 195.379H47.7527C48.7711 195.949 49.7894 196.581 50.9096 197.293C52.9462 198.617 55.319 200.135 57.7528 201.957C60.3869 203.898 62.9096 205.986 65.3088 208.21C67.9974 210.707 70.4642 213.433 72.6816 216.357C72.6992 216.398 72.7233 216.435 72.7529 216.469C72.3659 215.369 71.3883 212.232 71.3374 211.988C70.6653 208.485 71.429 201.306 74.9321 199.381C75.5233 199.078 76.1716 198.903 76.8348 198.867C77.4981 198.831 78.1615 198.935 78.7819 199.173C79.4023 199.41 79.9659 199.775 80.436 200.244C80.9061 200.713 81.2722 201.276 81.5106 201.896C82.6104 204.503 81.5106 207.813 80.2275 210.124C78.7203 212.731 73.4148 216.53 72.9973 216.825C75.1685 219.856 77.1382 223.027 78.8934 226.316C79.9118 228.23 80.9301 230.186 81.867 232.161C81.5615 231.194 81.2967 230.328 81.2763 230.206C80.6042 226.703 81.3578 219.524 84.8711 217.599C85.4629 217.296 86.1118 217.122 86.7756 217.087C87.4393 217.051 88.103 217.156 88.7235 217.395C89.3441 217.633 89.9075 217.999 90.3771 218.469C90.8468 218.94 91.2122 219.504 91.4495 220.124C92.5493 222.721 91.4495 226.031 90.1664 228.342C88.8833 230.654 84.3517 234.015 83.1603 234.88C83.5167 235.644 83.8833 236.397 84.2397 237.161C85.9607 240.817 87.6511 244.483 89.423 248.027C90.0442 249.269 90.7061 250.471 91.3579 251.683C91.0931 250.827 90.8793 250.104 90.8487 249.982C90.1766 246.479 90.9404 239.31 94.4434 237.385C95.0346 237.082 95.6829 236.907 96.3462 236.872C97.0094 236.836 97.6728 236.94 98.2932 237.177C98.9136 237.414 99.4772 237.779 99.9473 238.248C100.417 238.718 100.784 239.281 101.022 239.901C102.122 242.497 101.073 245.817 99.7388 248.129C98.4048 250.44 94.362 253.465 92.9465 254.504C93.6593 255.715 94.362 256.937 95.1054 258.088C95.6349 258.862 96.1237 259.646 96.6532 260.389L98.2826 262.62C99.3722 263.994 100.482 265.43 101.582 266.744C102.336 267.671 103.069 268.536 103.812 269.412C103.171 268.18 101.979 265.736 101.908 265.522C100.706 262.151 100.37 254.952 103.547 252.518C104.086 252.129 104.7 251.857 105.35 251.721C106 251.585 106.671 251.587 107.321 251.727C107.97 251.867 108.582 252.143 109.118 252.535C109.654 252.927 110.102 253.428 110.431 254.005C111.908 256.408 111.368 259.85 110.431 262.335C109.413 265.074 104.902 269.463 104.321 270.013C105.553 271.459 106.755 272.844 107.926 274.147C111.938 278.638 115.452 282.233 117.947 284.718C120.442 287.202 121.949 288.496 121.949 288.496ZM60.5125 204.045C60.5125 204.045 64.983 198.617 65.7773 195.593C66.4494 193.016 66.5919 189.483 64.8506 187.324C64.4573 186.787 63.9553 186.34 63.3775 186.01C62.7997 185.681 62.1589 185.477 61.497 185.412C60.835 185.346 60.1667 185.421 59.5357 185.631C58.9046 185.841 58.3248 186.182 57.8342 186.631C54.9625 189.411 56.1234 196.53 57.7019 199.737C57.7935 200.012 60.4616 204.096 60.5125 204.045Z" fill="#92E3A9"/>
<path opacity="0.1" d="M121.949 288.496C122.115 288.61 122.254 288.759 122.357 288.932C122.46 289.106 122.525 289.299 122.547 289.5C122.569 289.7 122.547 289.903 122.484 290.094C122.42 290.286 122.316 290.461 122.179 290.609C122.042 290.756 121.874 290.873 121.688 290.95C121.502 291.027 121.301 291.063 121.099 291.056C120.898 291.049 120.7 290.998 120.52 290.908C120.34 290.818 120.181 290.689 120.055 290.532C120.055 290.532 118.568 289.107 116.114 286.551C113.659 283.995 110.177 280.278 106.215 275.654C104.963 274.188 103.659 272.599 102.325 270.97C101.663 271.347 96.2153 274.463 93.2825 274.748C90.6247 275.003 87.1725 274.595 85.258 272.518C84.7925 272.045 84.4317 271.479 84.199 270.857C83.9663 270.236 83.8668 269.572 83.9072 268.909C83.9475 268.247 84.1267 267.6 84.4331 267.011C84.7395 266.422 85.1663 265.905 85.6857 265.491C88.8935 263.088 95.7367 265.369 98.6492 267.436C98.8223 267.559 100.543 269.086 101.602 270.064C101.063 269.392 100.584 268.75 99.9832 268.027C98.8936 266.652 97.8447 265.247 96.7143 263.73L95.1359 261.469C94.586 260.726 94.1176 259.87 93.588 259.066C92.417 257.172 91.3273 255.196 90.2784 253.18C89.0666 254.127 84.7285 257.447 82.1318 258.108C79.535 258.77 76.0217 258.882 73.8629 257.09C73.3301 256.693 72.8869 256.188 72.5621 255.608C72.2373 255.028 72.0381 254.387 71.9776 253.725C71.9171 253.063 71.9966 252.396 72.2108 251.767C72.4251 251.138 72.7694 250.561 73.2213 250.074C76.0319 247.222 83.1399 248.434 86.3273 250.074C86.531 250.176 88.6898 251.581 89.8609 252.375C89.2397 251.153 88.6084 249.941 88.0177 248.689C86.3069 245.084 84.6878 241.377 83.0584 237.681C82.5595 236.55 82.0401 235.43 81.5411 234.3C81.1134 234.646 76.0421 238.709 73.1398 239.442C70.5533 240.104 67.0298 240.216 64.8709 238.424C64.3382 238.027 63.895 237.522 63.5702 236.942C63.2454 236.362 63.0462 235.721 62.9857 235.059C62.9252 234.397 63.0047 233.73 63.2189 233.101C63.4332 232.472 63.7775 231.895 64.2294 231.408C67.0298 228.556 74.1378 229.768 77.3354 231.408C77.5798 231.53 80.6857 233.556 81.4087 234.106C80.2886 231.632 79.1582 229.177 77.9362 226.795C76.3046 223.577 74.4678 220.468 72.4372 217.487C72.2335 217.65 66.9687 221.917 63.985 222.67C61.3984 223.322 57.875 223.444 55.7161 221.652C55.1827 221.255 54.7391 220.75 54.4143 220.17C54.0895 219.589 53.8908 218.947 53.8312 218.285C53.7716 217.623 53.8525 216.955 54.0685 216.327C54.2845 215.698 54.6308 215.122 55.0847 214.636C57.8852 211.784 64.9931 212.996 68.1805 214.636C68.4351 214.758 71.7753 216.937 72.3557 217.375C72.2335 217.202 72.1317 217.019 72.0095 216.845C69.8768 213.926 67.4915 211.2 64.8811 208.699C63.4555 207.293 62.0196 206.031 60.5939 204.829C59.6876 205.725 55.5023 209.768 52.9259 210.746C50.3495 211.723 46.989 212.181 44.5959 210.664C44.0231 210.329 43.5274 209.876 43.1412 209.336C42.755 208.796 42.4868 208.181 42.3542 207.531C42.2216 206.88 42.2276 206.209 42.3717 205.561C42.5158 204.913 42.7948 204.303 43.1906 203.77C45.6651 200.623 52.8648 201.041 56.2151 202.283C56.3984 202.355 58.1703 203.24 59.4534 203.902C58.8017 203.373 58.1398 202.813 57.5084 202.324C55.1255 200.45 52.8342 198.882 50.7975 197.517C49.6265 196.754 48.5572 196.082 47.5491 195.481C46.2049 195.898 40.7771 197.517 38.0683 197.181C35.3596 196.845 32.1314 195.715 30.7058 193.271C30.3544 192.708 30.1251 192.077 30.0326 191.42C29.9401 190.763 29.9866 190.093 30.1689 189.455C30.3513 188.817 30.6654 188.224 31.0912 187.715C31.517 187.206 32.0448 186.792 32.6406 186.499C36.2863 184.849 42.4777 188.536 44.8606 191.183C45.0643 191.418 47.9157 195.359 47.8342 195.379H47.7527C48.7711 195.949 49.7894 196.581 50.9096 197.293C52.9462 198.617 55.319 200.135 57.7528 201.957C60.3869 203.898 62.9096 205.986 65.3088 208.21C67.9974 210.707 70.4642 213.433 72.6816 216.357C72.6992 216.398 72.7233 216.435 72.7529 216.469C72.3659 215.369 71.3883 212.232 71.3374 211.988C70.6653 208.485 71.429 201.306 74.9321 199.381C75.5233 199.078 76.1716 198.903 76.8348 198.867C77.4981 198.831 78.1615 198.935 78.7819 199.173C79.4023 199.41 79.9659 199.775 80.436 200.244C80.9061 200.713 81.2722 201.276 81.5106 201.896C82.6104 204.503 81.5106 207.813 80.2275 210.124C78.7203 212.731 73.4148 216.53 72.9973 216.825C75.1685 219.856 77.1382 223.027 78.8934 226.316C79.9118 228.23 80.9301 230.186 81.867 232.161C81.5615 231.194 81.2967 230.328 81.2763 230.206C80.6042 226.703 81.3578 219.524 84.8711 217.599C85.4629 217.296 86.1118 217.122 86.7756 217.087C87.4393 217.051 88.103 217.156 88.7235 217.395C89.3441 217.633 89.9075 217.999 90.3771 218.469C90.8468 218.94 91.2122 219.504 91.4495 220.124C92.5493 222.721 91.4495 226.031 90.1664 228.342C88.8833 230.654 84.3517 234.015 83.1603 234.88C83.5167 235.644 83.8833 236.397 84.2397 237.161C85.9607 240.817 87.6511 244.483 89.423 248.027C90.0442 249.269 90.7061 250.471 91.3579 251.683C91.0931 250.827 90.8793 250.104 90.8487 249.982C90.1766 246.479 90.9404 239.31 94.4434 237.385C95.0346 237.082 95.6829 236.907 96.3462 236.872C97.0094 236.836 97.6728 236.94 98.2932 237.177C98.9136 237.414 99.4772 237.779 99.9473 238.248C100.417 238.718 100.784 239.281 101.022 239.901C102.122 242.497 101.073 245.817 99.7388 248.129C98.4048 250.44 94.362 253.465 92.9465 254.504C93.6593 255.715 94.362 256.937 95.1054 258.088C95.6349 258.862 96.1237 259.646 96.6532 260.389L98.2826 262.62C99.3722 263.994 100.482 265.43 101.582 266.744C102.336 267.671 103.069 268.536 103.812 269.412C103.171 268.18 101.979 265.736 101.908 265.522C100.706 262.151 100.37 254.952 103.547 252.518C104.086 252.129 104.7 251.857 105.35 251.721C106 251.585 106.671 251.587 107.321 251.727C107.97 251.867 108.582 252.143 109.118 252.535C109.654 252.927 110.102 253.428 110.431 254.005C111.908 256.408 111.368 259.85 110.431 262.335C109.413 265.074 104.902 269.463 104.321 270.013C105.553 271.459 106.755 272.844 107.926 274.147C111.938 278.638 115.452 282.233 117.947 284.718C120.442 287.202 121.949 288.496 121.949 288.496ZM60.5125 204.045C60.5125 204.045 64.983 198.617 65.7773 195.593C66.4494 193.016 66.5919 189.483 64.8506 187.324C64.4573 186.787 63.9553 186.34 63.3775 186.01C62.7997 185.681 62.1589 185.477 61.497 185.412C60.835 185.346 60.1667 185.421 59.5357 185.631C58.9046 185.841 58.3248 186.182 57.8342 186.631C54.9625 189.411 56.1234 196.53 57.7019 199.737C57.7935 200.012 60.4616 204.096 60.5125 204.045Z" fill="black"/>
<path d="M95.8493 355.655C94.9837 352.244 93.8126 347.356 92.6924 341.398C92.3666 339.698 92.0407 337.875 91.7352 336.011C92.4888 335.828 98.5886 334.362 100.9 332.559C103.008 330.92 105.238 328.252 105.208 325.431C105.223 324.771 105.099 324.115 104.844 323.505C104.59 322.896 104.211 322.346 103.731 321.892C103.251 321.438 102.682 321.09 102.059 320.87C101.436 320.65 100.775 320.563 100.116 320.614C96.1344 321.062 92.723 327.417 91.9694 330.92C91.9694 331.144 91.6843 333.852 91.6028 335.237C91.4093 334.107 91.226 332.987 91.0529 331.806C90.7983 330.115 90.5743 328.313 90.3503 326.571L90.1059 323.822C89.9938 322.885 90.0142 321.979 89.9633 321.052C89.9633 319.687 89.9633 318.272 89.9633 316.867C91.7046 316.704 96.8065 316.144 99.0672 314.881C101.328 313.618 104.006 311.286 104.393 308.496C104.509 307.841 104.486 307.17 104.324 306.525C104.163 305.88 103.868 305.277 103.457 304.754C103.047 304.231 102.531 303.801 101.943 303.491C101.355 303.181 100.708 302.999 100.045 302.956C96.0529 302.793 91.7148 308.557 90.4826 311.918C90.4826 312.019 90.2586 312.753 90.0549 313.628C90.0549 312.254 90.167 310.889 90.2688 309.494C90.5743 305.543 91.002 301.541 91.4195 297.518C91.501 296.673 91.5723 295.838 91.6639 295.003C93.1303 294.871 98.6599 294.31 101.022 292.966C103.385 291.622 105.961 289.372 106.359 286.571C106.473 285.917 106.448 285.246 106.286 284.602C106.124 283.958 105.829 283.355 105.419 282.832C105.009 282.31 104.493 281.88 103.906 281.569C103.319 281.259 102.673 281.076 102.01 281.031C98.0183 280.879 93.67 286.642 92.448 289.993C92.448 290.115 92.1833 291.011 91.9491 291.978C92.1425 289.789 92.3055 287.61 92.4073 285.441C92.598 281.707 92.5368 277.965 92.224 274.239C92.7433 274.239 99.2403 273.669 101.878 272.202C104.2 270.909 106.817 268.608 107.204 265.807C107.32 265.153 107.296 264.481 107.135 263.836C106.974 263.192 106.678 262.588 106.268 262.065C105.858 261.542 105.342 261.112 104.753 260.802C104.165 260.493 103.519 260.31 102.855 260.268C98.8636 260.115 94.5254 265.879 93.2933 269.229C93.2118 269.463 92.4379 272.65 92.2036 273.801C92.2036 273.801 92.2036 273.71 92.2036 273.669C91.8134 270.024 91.0977 266.422 90.0651 262.905C89.1535 259.763 88.0621 256.676 86.7963 253.659C85.6557 250.848 84.4337 248.343 83.3339 246.133C82.7331 244.942 82.1628 243.872 81.6129 242.864H81.6944C81.7657 242.864 81.3685 238.047 81.3074 237.772C80.6048 234.269 77.2341 227.915 73.1607 227.457C72.5023 227.405 71.8404 227.493 71.2178 227.713C70.5951 227.933 70.0256 228.281 69.5458 228.735C69.066 229.189 68.6867 229.738 68.4324 230.348C68.178 230.957 68.0542 231.613 68.0691 232.273C68.0691 235.094 70.2585 237.762 72.3664 239.402C74.4744 241.041 80.004 242.457 81.3685 242.823C81.9184 243.842 82.4887 245.003 83.0997 246.255C84.118 248.485 85.2993 251.001 86.3787 253.832C86.6741 254.585 86.949 255.4 87.2342 256.194C86.4806 254.962 85.4113 253.282 85.2891 253.139C83.059 250.359 77.1424 246.296 73.3644 247.722C72.7512 247.976 72.1984 248.357 71.7419 248.839C71.2854 249.321 70.9353 249.894 70.7145 250.52C70.4936 251.146 70.4069 251.811 70.4599 252.473C70.5129 253.135 70.7045 253.778 71.0222 254.361C72.285 256.887 75.4927 258.221 78.1506 258.709C80.8084 259.198 86.5315 257.885 87.7637 257.579C88.3747 259.341 88.9551 261.164 89.4541 263.098C90.4031 266.592 91.0336 270.164 91.3381 273.771C91.3381 273.974 91.3381 274.198 91.3381 274.402C91.0733 273.73 89.3014 270.135 89.1792 269.901C87.2647 266.846 81.7861 262.192 77.9164 263.2C77.278 263.385 76.6857 263.702 76.1781 264.131C75.6706 264.56 75.2592 265.091 74.9709 265.69C74.6826 266.288 74.5239 266.941 74.505 267.605C74.4861 268.27 74.6075 268.93 74.8614 269.545C75.8797 272.192 78.9347 273.883 81.4398 274.636C84.3828 275.522 91.0936 274.575 91.3482 274.545C91.5531 278.144 91.5293 281.753 91.2769 285.349C91.0936 288.017 90.8085 290.706 90.4928 293.404C90.1262 292.539 88.4562 289.198 88.3543 288.974C86.4399 285.919 80.9612 281.266 77.0915 282.274C76.4531 282.458 75.8608 282.775 75.3533 283.204C74.8457 283.633 74.4344 284.164 74.1461 284.763C73.8578 285.362 73.699 286.015 73.6801 286.679C73.6612 287.343 73.7827 288.004 74.0365 288.618C75.0548 291.266 78.1099 292.946 80.615 293.71C83.4867 294.565 89.9226 293.71 90.4725 293.618C90.3197 294.84 90.1873 296.072 90.0346 297.294C89.5356 301.296 89.0162 305.319 88.6191 309.29C88.4867 310.665 88.4052 312.03 88.3136 313.364C87.7128 312.08 86.5824 309.759 86.4602 309.575C84.5457 306.52 79.0773 301.867 75.2585 302.875C74.621 303.061 74.0298 303.378 73.5231 303.808C73.0165 304.237 72.6057 304.768 72.3176 305.366C72.0295 305.964 71.8705 306.617 71.8508 307.28C71.8312 307.944 71.9513 308.605 72.2035 309.219C73.2218 311.867 76.2769 313.547 78.782 314.311C81.2871 315.074 86.7759 314.463 88.3034 314.26C88.171 316.531 88.0896 318.791 88.1201 321.011C88.1201 321.979 88.1201 322.956 88.2118 323.873L88.3951 326.632C88.5987 328.506 88.7718 330.248 88.9959 331.999C89.1079 332.875 89.2301 333.7 89.3523 334.555C88.9348 333.17 88.2525 330.971 88.171 330.777C86.725 327.508 82.061 322.04 78.0488 322.447C77.3908 322.534 76.7585 322.759 76.1929 323.106C75.6272 323.453 75.1409 323.915 74.7655 324.463C74.39 325.01 74.1338 325.63 74.0135 326.283C73.8932 326.936 73.9115 327.606 74.0671 328.252C74.6373 331.022 77.3868 333.15 79.8003 334.29C82.4582 335.553 88.7311 335.685 89.505 335.696C89.8004 337.793 90.1059 339.82 90.4317 341.724C91.4501 347.722 92.4684 352.692 93.3034 356.154C94.1385 359.616 94.6476 361.592 94.6476 361.592C94.7726 361.924 95.0188 362.197 95.3367 362.356C95.6546 362.514 96.0207 362.546 96.3613 362.445C96.7019 362.345 96.9918 362.119 97.1726 361.813C97.3535 361.507 97.4119 361.145 97.3361 360.798C97.3361 360.798 96.7149 359.077 95.8493 355.655Z" fill="#92E3A9"/>
<path d="M88.0588 256.958C88.0588 256.958 94.6882 254.616 96.9183 252.426C98.8226 250.553 100.737 247.65 100.381 244.85C100.318 244.188 100.117 243.547 99.7909 242.968C99.4643 242.389 99.0196 241.885 98.4855 241.489C97.9514 241.094 97.34 240.815 96.691 240.671C96.042 240.527 95.37 240.521 94.7187 240.654C90.8287 241.561 88.1606 248.261 87.8653 251.856C87.8348 252.151 87.9875 256.988 88.0588 256.958Z" fill="#92E3A9"/>
<path d="M92.0303 357.091C89.4335 354.728 85.7675 351.286 81.5516 346.968C80.3398 345.726 79.0668 344.392 77.7837 343.007C78.3133 342.437 82.5801 337.844 83.5271 335.064C84.3825 332.538 84.7695 329.086 83.1809 326.744C82.827 326.183 82.3588 325.702 81.8068 325.334C81.2548 324.965 80.6314 324.717 79.9771 324.606C79.3229 324.494 78.6525 324.522 78.0096 324.687C77.3668 324.852 76.7659 325.15 76.246 325.563C73.191 328.129 73.8326 335.319 75.1768 338.618C75.2583 338.832 76.5617 341.225 77.2135 342.426C76.4293 341.591 75.6554 340.756 74.8611 339.86C73.7104 338.598 72.5393 337.213 71.3886 335.889L69.6574 333.73C69.0566 333.007 68.578 332.243 68.0179 331.5C67.2236 330.39 66.4598 329.198 65.6961 328.007C67.0606 326.917 71.0118 323.628 72.2032 321.337C73.3947 319.046 74.3418 315.614 73.1198 313.068C72.8552 312.459 72.4652 311.912 71.9751 311.463C71.485 311.015 70.9059 310.675 70.2756 310.465C69.6452 310.256 68.9777 310.182 68.3167 310.248C67.6557 310.314 67.0161 310.518 66.4395 310.848C63.0178 312.885 62.58 320.115 63.3844 323.587C63.3844 323.709 63.6696 324.422 63.9751 325.268C63.2623 324.086 62.5494 322.915 61.8671 321.693C59.9425 318.231 58.0891 314.656 56.2154 311.072C55.8284 310.329 55.4312 309.585 55.0341 308.842C56.1848 307.925 60.4924 304.402 61.7449 301.999C62.9975 299.595 63.8733 296.275 62.6614 293.73C62.3969 293.12 62.0069 292.574 61.5168 292.125C61.0267 291.677 60.4476 291.337 59.8172 291.127C59.1869 290.918 58.5194 290.844 57.8584 290.909C57.1974 290.975 56.5578 291.18 55.9811 291.51C52.5595 293.546 52.1217 300.777 52.9261 304.249C52.9261 304.381 53.2622 305.267 53.6084 306.184C52.5901 304.249 51.4903 302.345 50.3803 300.471C48.477 297.264 46.3645 294.185 44.0564 291.255C44.4739 290.929 49.6064 286.907 50.9913 284.239C52.2235 281.876 53.1298 278.516 51.9078 275.97C51.6443 275.36 51.255 274.812 50.7653 274.362C50.2757 273.913 49.6967 273.572 49.0662 273.361C48.4358 273.151 47.768 273.076 47.1065 273.141C46.445 273.206 45.8048 273.41 45.2275 273.74C41.8059 275.776 41.368 283.017 42.1725 286.489C42.2336 286.734 43.3538 289.819 43.7815 290.909L43.7102 290.797C41.3659 287.98 38.7796 285.373 35.981 283.007C33.5224 280.889 30.9452 278.914 28.262 277.09C25.7569 275.379 23.3537 273.964 21.2253 272.732C20.0644 272.07 18.985 271.489 17.987 270.96H18.0583C18.1296 270.96 15.1255 267.121 14.9015 266.886C12.3862 264.351 6.04193 260.939 2.47776 262.752C1.89372 263.068 1.38279 263.503 0.978273 264.029C0.573754 264.556 0.284728 265.162 0.130038 265.807C-0.0246534 266.453 -0.0415357 267.124 0.0804889 267.777C0.202513 268.429 0.460705 269.049 0.838235 269.595C2.36574 271.978 5.6957 272.976 8.36374 273.18C11.0318 273.383 16.4391 271.53 17.7528 271.062C18.7711 271.632 19.8913 272.253 21.0929 272.976C23.1907 274.249 25.5533 275.715 28.0074 277.477C28.6694 277.945 29.3517 278.495 30.0441 278.974C28.7407 278.363 26.9178 277.559 26.7345 277.497C23.3333 276.408 16.1235 276.296 13.7915 279.534C13.4216 280.085 13.1715 280.708 13.0573 281.362C12.9431 282.016 12.9675 282.687 13.1287 283.331C13.2899 283.975 13.5845 284.578 13.9934 285.101C14.4022 285.624 14.9163 286.055 15.5023 286.367C17.9565 287.762 21.3679 287.121 23.8221 286.072C26.2763 285.023 30.3598 280.756 31.2254 279.829C32.702 280.96 34.1887 282.161 35.6755 283.495C38.3902 285.888 40.8849 288.519 43.1297 291.357C43.2621 291.52 43.3741 291.703 43.5065 291.876C42.9057 291.459 39.4332 289.432 39.2091 289.32C35.9505 287.864 28.7916 286.958 26.1235 289.941C25.6943 290.448 25.3764 291.039 25.1904 291.676C25.0043 292.313 24.9543 292.982 25.0436 293.64C25.1329 294.298 25.3596 294.93 25.7087 295.494C26.0579 296.059 26.5219 296.543 27.0706 296.917C29.3517 298.577 32.8242 298.312 35.37 297.538C38.313 296.652 43.3945 292.161 43.588 291.999C45.7515 294.885 47.7245 297.909 49.4943 301.051C50.8182 303.373 52.0606 305.777 53.2826 308.18C52.4984 307.66 49.3009 305.777 49.0565 305.665C45.7978 304.208 38.6389 303.312 35.9607 306.286C35.5304 306.792 35.2119 307.384 35.0257 308.021C34.8396 308.659 34.7901 309.329 34.8804 309.987C34.9707 310.646 35.1989 311.278 35.55 311.842C35.9011 312.406 36.3672 312.89 36.9179 313.261C39.199 314.931 42.6613 314.656 45.2173 313.893C48.089 313.017 52.9771 308.74 53.364 308.384C53.9241 309.483 54.4842 310.583 55.0341 311.683C56.8264 315.308 58.5983 318.933 60.472 322.467C61.1136 323.689 61.7958 324.881 62.5087 326.062C61.2969 325.318 59.0769 324.025 58.8732 323.923C55.6145 322.467 48.4556 321.571 45.7876 324.545C45.3584 325.051 45.0405 325.642 44.8544 326.279C44.6684 326.916 44.6184 327.585 44.7077 328.243C44.797 328.901 45.0236 329.533 45.3728 330.097C45.722 330.662 46.186 331.146 46.7347 331.52C49.0157 333.19 52.4781 332.915 55.0341 332.151C57.5901 331.388 61.7857 327.864 62.9567 326.856C64.0973 328.822 65.2684 330.756 66.5209 332.589C67.081 333.373 67.6004 334.209 68.1706 334.932L69.8509 337.121C71.0525 338.577 72.1625 339.942 73.3132 341.266L75.0139 343.211C73.9039 342.274 72.1218 340.828 71.9588 340.716C68.9038 338.781 62.0199 336.805 58.9241 339.341C58.4217 339.776 58.0167 340.313 57.7353 340.915C57.4539 341.517 57.3025 342.172 57.291 342.837C57.2794 343.502 57.408 344.162 57.6684 344.773C57.9287 345.385 58.3149 345.935 58.8019 346.388C60.8386 348.374 64.2806 348.638 66.9486 348.262C69.8611 347.844 75.1666 344.494 75.8183 344.076C77.2135 345.655 78.5984 347.131 79.8917 348.587C84.0465 353.038 87.682 356.592 90.2583 359.036C92.8347 361.48 94.3317 362.844 94.3317 362.844C94.6195 363.055 94.9767 363.149 95.3309 363.106C95.6851 363.063 96.0098 362.887 96.2391 362.614C96.4684 362.341 96.5852 361.99 96.5657 361.634C96.5462 361.278 96.3919 360.942 96.1341 360.695C96.1341 360.695 94.6372 359.463 92.0303 357.091Z" fill="#92E3A9"/>
<path d="M31.0929 279.076C31.0929 279.076 35.319 273.465 35.9809 270.4C36.541 267.793 36.5308 264.29 34.6876 262.172C34.2697 261.655 33.748 261.233 33.1563 260.931C32.5647 260.629 31.9163 260.454 31.253 260.419C30.5897 260.383 29.9264 260.487 29.3059 260.725C28.6854 260.962 28.1216 261.326 27.6509 261.795C24.9014 264.697 26.378 271.764 28.0888 274.891C28.2619 275.166 31.0419 279.127 31.0929 279.076Z" fill="#92E3A9"/>
<g opacity="0.1">
<path d="M95.8493 355.656C94.9837 352.245 93.8126 347.357 92.6924 341.399C92.3666 339.699 92.0407 337.876 91.7352 336.012C92.4888 335.829 98.5886 334.363 100.9 332.56C103.008 330.921 105.238 328.253 105.208 325.432C105.223 324.772 105.099 324.116 104.844 323.506C104.59 322.897 104.211 322.347 103.731 321.893C103.251 321.439 102.682 321.091 102.059 320.871C101.436 320.651 100.775 320.564 100.116 320.615C96.1344 321.063 92.723 327.418 91.9694 330.921C91.9694 331.145 91.6843 333.853 91.6028 335.238C91.4093 334.108 91.226 332.988 91.0529 331.807C90.7983 330.116 90.5743 328.314 90.3503 326.572L90.1059 323.823C89.9938 322.886 90.0142 321.98 89.9633 321.053C89.9633 319.688 89.9633 318.273 89.9633 316.868C91.7046 316.705 96.8065 316.145 99.0672 314.882C101.328 313.619 104.006 311.287 104.393 308.497C104.509 307.842 104.486 307.171 104.324 306.526C104.163 305.881 103.868 305.278 103.457 304.755C103.047 304.232 102.531 303.802 101.943 303.492C101.355 303.182 100.708 303 100.045 302.957C96.0529 302.794 91.7148 308.558 90.4826 311.918C90.4826 312.02 90.2586 312.754 90.0549 313.629C90.0549 312.255 90.167 310.89 90.2688 309.495C90.5743 305.544 91.002 301.542 91.4195 297.519C91.501 296.674 91.5723 295.839 91.6639 295.004C93.1303 294.872 98.6599 294.311 101.022 292.967C103.385 291.623 105.961 289.373 106.359 286.572C106.473 285.918 106.448 285.247 106.286 284.603C106.124 283.959 105.829 283.356 105.419 282.833C105.009 282.311 104.493 281.881 103.906 281.57C103.319 281.26 102.673 281.077 102.01 281.032C98.0183 280.88 93.67 286.643 92.448 289.994C92.448 290.116 92.1833 291.012 91.9491 291.979C92.1425 289.79 92.3055 287.611 92.4073 285.442C92.598 281.708 92.5368 277.966 92.224 274.24C92.7433 274.24 99.2403 273.67 101.878 272.203C104.2 270.91 106.817 268.609 107.204 265.808C107.32 265.154 107.296 264.482 107.135 263.837C106.974 263.193 106.678 262.589 106.268 262.066C105.858 261.543 105.342 261.113 104.753 260.803C104.165 260.494 103.519 260.311 102.855 260.268C98.8636 260.116 94.5254 265.88 93.2933 269.23C93.2118 269.464 92.4379 272.651 92.2036 273.802C92.2036 273.802 92.2036 273.711 92.2036 273.67C91.8134 270.025 91.0977 266.423 90.0651 262.906C89.1535 259.764 88.0621 256.676 86.7963 253.659C85.6557 250.849 84.4337 248.344 83.3339 246.134C82.7331 244.943 82.1628 243.873 81.6129 242.865H81.6944C81.7657 242.865 81.3685 238.048 81.3074 237.773C80.6048 234.27 77.2341 227.916 73.1607 227.458C72.5023 227.406 71.8404 227.493 71.2178 227.714C70.5951 227.934 70.0256 228.282 69.5458 228.736C69.066 229.19 68.6867 229.739 68.4324 230.349C68.178 230.958 68.0542 231.614 68.0691 232.274C68.0691 235.095 70.2585 237.763 72.3664 239.403C74.4744 241.042 80.004 242.458 81.3685 242.824C81.9184 243.843 82.4887 245.004 83.0997 246.256C84.118 248.486 85.2993 251.002 86.3787 253.833C86.6741 254.586 86.949 255.401 87.2342 256.195C86.4806 254.963 85.4113 253.283 85.2891 253.14C83.059 250.36 77.1424 246.297 73.3644 247.723C72.7512 247.977 72.1984 248.358 71.7419 248.84C71.2854 249.322 70.9353 249.895 70.7145 250.521C70.4936 251.147 70.4069 251.812 70.4599 252.474C70.5129 253.136 70.7045 253.779 71.0222 254.362C72.285 256.888 75.4927 258.222 78.1506 258.71C80.8084 259.199 86.5315 257.886 87.7637 257.58C88.3747 259.342 88.9551 261.165 89.4541 263.099C90.4031 266.593 91.0336 270.165 91.3381 273.772C91.3381 273.975 91.3381 274.199 91.3381 274.403C91.0733 273.731 89.3014 270.136 89.1792 269.902C87.2647 266.847 81.7861 262.193 77.9164 263.201C77.278 263.386 76.6857 263.703 76.1781 264.132C75.6706 264.561 75.2592 265.092 74.9709 265.691C74.6826 266.289 74.5239 266.942 74.505 267.606C74.4861 268.271 74.6075 268.931 74.8614 269.546C75.8797 272.193 78.9347 273.884 81.4398 274.637C84.3828 275.523 91.0936 274.576 91.3482 274.546C91.5531 278.145 91.5293 281.754 91.2769 285.35C91.0936 288.018 90.8085 290.707 90.4928 293.405C90.1262 292.54 88.4562 289.199 88.3543 288.975C86.4399 285.92 80.9612 281.267 77.0915 282.275C76.4531 282.459 75.8608 282.776 75.3533 283.205C74.8457 283.634 74.4344 284.165 74.1461 284.764C73.8578 285.363 73.699 286.016 73.6801 286.68C73.6612 287.344 73.7827 288.005 74.0365 288.619C75.0548 291.267 78.1099 292.947 80.615 293.711C83.4867 294.566 89.9226 293.711 90.4725 293.619C90.3197 294.841 90.1873 296.073 90.0346 297.295C89.5356 301.297 89.0162 305.32 88.6191 309.291C88.4867 310.666 88.4052 312.03 88.3136 313.365C87.7128 312.081 86.5824 309.76 86.4602 309.576C84.5457 306.521 79.0773 301.868 75.2585 302.876C74.621 303.062 74.0298 303.379 73.5231 303.809C73.0165 304.238 72.6057 304.769 72.3176 305.367C72.0295 305.965 71.8705 306.618 71.8508 307.281C71.8312 307.945 71.9513 308.606 72.2035 309.22C73.2218 311.868 76.2769 313.548 78.782 314.312C81.2871 315.075 86.7759 314.464 88.3034 314.261C88.171 316.532 88.0896 318.792 88.1201 321.012C88.1201 321.98 88.1201 322.957 88.2118 323.874L88.3951 326.633C88.5987 328.507 88.7718 330.249 88.9959 332C89.1079 332.876 89.2301 333.701 89.3523 334.556C88.9348 333.171 88.2525 330.972 88.171 330.778C86.725 327.509 82.061 322.041 78.0488 322.448C77.3908 322.535 76.7585 322.76 76.1929 323.107C75.6272 323.454 75.1409 323.916 74.7655 324.464C74.39 325.011 74.1338 325.631 74.0135 326.284C73.8932 326.937 73.9115 327.607 74.0671 328.253C74.6373 331.022 77.3868 333.151 79.8003 334.291C82.4582 335.554 88.7311 335.686 89.505 335.697C89.8004 337.794 90.1059 339.821 90.4317 341.725C91.4501 347.723 92.4684 352.693 93.3034 356.155C94.1385 359.617 94.6476 361.593 94.6476 361.593C94.7726 361.925 95.0188 362.198 95.3367 362.357C95.6546 362.515 96.0207 362.547 96.3613 362.446C96.7019 362.346 96.9918 362.12 97.1726 361.814C97.3535 361.508 97.4119 361.146 97.3361 360.799C97.3361 360.799 96.7149 359.078 95.8493 355.656Z" fill="black"/>
<path d="M88.0588 256.959C88.0588 256.959 94.6882 254.617 96.9183 252.427C98.8226 250.554 100.737 247.651 100.381 244.851C100.318 244.189 100.117 243.548 99.7909 242.969C99.4643 242.39 99.0196 241.886 98.4855 241.49C97.9514 241.094 97.34 240.816 96.691 240.672C96.042 240.528 95.37 240.522 94.7187 240.655C90.8287 241.562 88.1606 248.262 87.8653 251.857C87.8348 252.152 87.9875 256.989 88.0588 256.959Z" fill="black"/>
<path d="M92.0303 357.092C89.4335 354.729 85.7675 351.287 81.5516 346.969C80.3398 345.727 79.0668 344.393 77.7837 343.008C78.3133 342.438 82.5801 337.845 83.5271 335.065C84.3825 332.539 84.7695 329.087 83.1809 326.745C82.827 326.184 82.3588 325.703 81.8068 325.335C81.2548 324.966 80.6314 324.718 79.9771 324.607C79.3229 324.495 78.6525 324.523 78.0096 324.688C77.3668 324.853 76.7659 325.151 76.246 325.564C73.191 328.13 73.8326 335.319 75.1768 338.619C75.2583 338.833 76.5617 341.226 77.2135 342.427C76.4293 341.592 75.6554 340.757 74.8611 339.861C73.7104 338.599 72.5393 337.214 71.3886 335.89L69.6574 333.731C69.0566 333.008 68.578 332.244 68.0179 331.501C67.2236 330.391 66.4598 329.199 65.6961 328.008C67.0606 326.918 71.0118 323.629 72.2032 321.338C73.3947 319.046 74.3418 315.615 73.1198 313.069C72.8552 312.46 72.4652 311.913 71.9751 311.464C71.485 311.016 70.9059 310.676 70.2756 310.466C69.6452 310.257 68.9777 310.183 68.3167 310.249C67.6557 310.315 67.0161 310.519 66.4395 310.849C63.0178 312.886 62.58 320.116 63.3844 323.588C63.3844 323.71 63.6696 324.423 63.9751 325.269C63.2623 324.087 62.5494 322.916 61.8671 321.694C59.9425 318.232 58.0891 314.657 56.2154 311.073C55.8284 310.33 55.4312 309.586 55.0341 308.843C56.1848 307.926 60.4924 304.403 61.7449 302C62.9975 299.596 63.8733 296.276 62.6614 293.731C62.3969 293.121 62.0069 292.575 61.5168 292.126C61.0267 291.678 60.4476 291.338 59.8172 291.128C59.1869 290.919 58.5194 290.845 57.8584 290.91C57.1974 290.976 56.5578 291.181 55.9811 291.511C52.5595 293.547 52.1217 300.778 52.9261 304.25C52.9261 304.382 53.2622 305.268 53.6084 306.185C52.5901 304.25 51.4903 302.346 50.3803 300.472C48.477 297.265 46.3645 294.186 44.0564 291.256C44.4739 290.93 49.6064 286.908 50.9913 284.24C52.2235 281.877 53.1298 278.517 51.9078 275.971C51.6443 275.361 51.255 274.813 50.7653 274.363C50.2757 273.914 49.6967 273.573 49.0662 273.362C48.4358 273.152 47.768 273.077 47.1065 273.142C46.445 273.207 45.8048 273.411 45.2275 273.741C41.8059 275.777 41.368 283.018 42.1725 286.49C42.2336 286.735 43.3538 289.82 43.7815 290.91L43.7102 290.798C41.3659 287.981 38.7796 285.374 35.981 283.008C33.5224 280.89 30.9452 278.915 28.262 277.091C25.7569 275.38 23.3537 273.965 21.2253 272.733C20.0644 272.071 18.985 271.49 17.987 270.961H18.0583C18.1296 270.961 15.1255 267.122 14.9015 266.887C12.3862 264.352 6.04193 260.94 2.47776 262.753C1.89372 263.069 1.38279 263.504 0.978273 264.03C0.573754 264.557 0.284728 265.163 0.130038 265.808C-0.0246534 266.454 -0.0415357 267.125 0.0804889 267.778C0.202513 268.43 0.460705 269.05 0.838235 269.596C2.36574 271.979 5.6957 272.977 8.36374 273.181C11.0318 273.384 16.4391 271.531 17.7528 271.062C18.7711 271.633 19.8913 272.254 21.0929 272.977C23.1907 274.25 25.5533 275.716 28.0074 277.478C28.6694 277.946 29.3517 278.496 30.0441 278.975C28.7407 278.364 26.9178 277.559 26.7345 277.498C23.3333 276.409 16.1235 276.297 13.7915 279.535C13.4216 280.086 13.1715 280.709 13.0573 281.363C12.9431 282.017 12.9675 282.688 13.1287 283.332C13.2899 283.976 13.5845 284.579 13.9934 285.102C14.4022 285.625 14.9163 286.056 15.5023 286.368C17.9565 287.763 21.3679 287.122 23.8221 286.073C26.2763 285.024 30.3598 280.757 31.2254 279.83C32.702 280.961 34.1887 282.162 35.6755 283.496C38.3902 285.889 40.8849 288.52 43.1297 291.358C43.2621 291.521 43.3741 291.704 43.5065 291.877C42.9057 291.46 39.4332 289.433 39.2091 289.321C35.9505 287.865 28.7916 286.959 26.1235 289.942C25.6943 290.449 25.3764 291.04 25.1904 291.677C25.0043 292.314 24.9543 292.983 25.0436 293.641C25.1329 294.299 25.3596 294.931 25.7087 295.495C26.0579 296.06 26.5219 296.544 27.0706 296.918C29.3517 298.578 32.8242 298.313 35.37 297.539C38.313 296.653 43.3945 292.162 43.588 291.999C45.7515 294.886 47.7245 297.91 49.4943 301.052C50.8182 303.374 52.0606 305.778 53.2826 308.181C52.4984 307.661 49.3009 305.778 49.0565 305.666C45.7978 304.209 38.6389 303.313 35.9607 306.287C35.5304 306.793 35.2119 307.385 35.0257 308.022C34.8396 308.66 34.7901 309.33 34.8804 309.988C34.9707 310.647 35.1989 311.279 35.55 311.843C35.9011 312.407 36.3672 312.891 36.9179 313.262C39.199 314.932 42.6613 314.657 45.2173 313.894C48.089 313.018 52.9771 308.741 53.364 308.385C53.9241 309.484 54.4842 310.584 55.0341 311.684C56.8264 315.309 58.5983 318.934 60.472 322.468C61.1136 323.69 61.7958 324.882 62.5087 326.063C61.2969 325.319 59.0769 324.026 58.8732 323.924C55.6145 322.468 48.4556 321.572 45.7876 324.545C45.3584 325.052 45.0405 325.643 44.8544 326.28C44.6684 326.917 44.6184 327.586 44.7077 328.244C44.797 328.902 45.0236 329.534 45.3728 330.098C45.722 330.663 46.186 331.147 46.7347 331.521C49.0157 333.191 52.4781 332.916 55.0341 332.152C57.5901 331.389 61.7857 327.865 62.9567 326.857C64.0973 328.822 65.2684 330.757 66.5209 332.59C67.081 333.374 67.6004 334.21 68.1706 334.933L69.8509 337.122C71.0525 338.578 72.1625 339.943 73.3132 341.267L75.0139 343.212C73.9039 342.275 72.1218 340.829 71.9588 340.717C68.9038 338.782 62.0199 336.806 58.9241 339.342C58.4217 339.777 58.0167 340.314 57.7353 340.916C57.4539 341.518 57.3025 342.173 57.291 342.838C57.2794 343.503 57.408 344.163 57.6684 344.774C57.9287 345.386 58.3149 345.936 58.8019 346.389C60.8386 348.375 64.2806 348.639 66.9486 348.263C69.8611 347.845 75.1666 344.495 75.8183 344.077C77.2135 345.656 78.5984 347.132 79.8917 348.588C84.0465 353.039 87.682 356.593 90.2583 359.037C92.8347 361.481 94.3317 362.845 94.3317 362.845C94.6195 363.056 94.9767 363.15 95.3309 363.107C95.6851 363.064 96.0098 362.888 96.2391 362.615C96.4684 362.341 96.5852 361.991 96.5657 361.635C96.5462 361.279 96.3919 360.943 96.1341 360.696C96.1341 360.696 94.6372 359.464 92.0303 357.092Z" fill="black"/>
<path d="M31.0929 279.077C31.0929 279.077 35.319 273.466 35.9809 270.401C36.541 267.794 36.5308 264.291 34.6876 262.173C34.2697 261.656 33.748 261.234 33.1563 260.932C32.5647 260.63 31.9163 260.455 31.253 260.42C30.5897 260.384 29.9264 260.488 29.3059 260.725C28.6854 260.963 28.1216 261.327 27.6509 261.796C24.9014 264.698 26.378 271.765 28.0888 274.892C28.2619 275.167 31.0419 279.128 31.0929 279.077Z" fill="black"/>
</g>
<g opacity="0.1">
<path d="M121.827 281.368C121.114 277.926 120.167 272.987 119.302 267.019C119.047 265.298 118.803 263.476 118.579 261.592C119.352 261.449 125.503 260.248 127.896 258.537C130.076 256.999 132.418 254.463 132.509 251.612C132.562 250.945 132.472 250.274 132.246 249.644C132.02 249.014 131.662 248.439 131.197 247.958C130.732 247.477 130.17 247.099 129.549 246.852C128.927 246.604 128.259 246.491 127.591 246.52C123.599 246.795 119.913 252.987 119.047 256.459C118.996 256.683 118.64 259.372 118.487 260.757C118.354 259.616 118.222 258.486 118.1 257.305C117.917 255.594 117.774 253.791 117.631 252.04C117.631 251.123 117.54 250.207 117.499 249.28C117.458 248.353 117.499 247.447 117.499 246.51C117.499 245.146 117.601 243.73 117.672 242.325C119.424 242.243 124.546 241.907 126.837 240.746C129.128 239.585 131.929 237.376 132.448 234.636C132.591 233.989 132.596 233.32 132.464 232.671C132.332 232.021 132.066 231.407 131.682 230.867C131.299 230.327 130.806 229.873 130.237 229.535C129.667 229.197 129.033 228.981 128.375 228.903C124.393 228.577 119.801 234.137 118.436 237.437C118.385 237.539 118.171 238.272 117.917 239.137C118.039 237.763 118.151 236.388 118.324 235.003C118.792 231.082 119.403 227.09 119.994 223.088C120.116 222.253 120.228 221.429 120.35 220.594C121.817 220.522 127.377 220.217 129.79 219.005C132.204 217.793 134.882 215.624 135.401 212.895C135.546 212.248 135.552 211.578 135.421 210.928C135.29 210.278 135.024 209.663 134.64 209.122C134.256 208.582 133.763 208.128 133.192 207.79C132.622 207.453 131.987 207.238 131.328 207.162C127.336 206.836 122.754 212.396 121.379 215.695C121.379 215.807 121.073 216.714 120.788 217.651C121.084 215.481 121.338 213.302 121.532 211.143C121.89 207.421 121.996 203.678 121.847 199.942C122.367 199.942 128.884 199.687 131.572 198.343C133.966 197.151 136.664 194.972 137.184 192.233C137.328 191.586 137.334 190.917 137.203 190.267C137.072 189.618 136.805 189.004 136.421 188.464C136.037 187.925 135.544 187.472 134.974 187.135C134.403 186.798 133.768 186.585 133.11 186.51C129.118 186.174 124.536 191.744 123.161 195.033C123.059 195.267 122.143 198.424 121.868 199.555C121.863 199.511 121.863 199.466 121.868 199.422C121.632 195.765 121.073 192.136 120.198 188.577C119.429 185.395 118.477 182.26 117.346 179.188C116.328 176.337 115.218 173.781 114.22 171.53C113.67 170.308 113.141 169.208 112.642 168.19H112.723C112.794 168.19 112.601 163.353 112.56 163.098C112.01 159.575 108.884 153.078 104.933 152.446C104.274 152.359 103.604 152.411 102.967 152.6C102.33 152.789 101.74 153.11 101.235 153.543C100.731 153.975 100.323 154.509 100.039 155.11C99.755 155.711 99.6008 156.365 99.5865 157.029C99.4236 159.85 101.532 162.609 103.558 164.341C105.585 166.072 111.063 167.762 112.407 168.149C112.906 169.229 113.426 170.379 113.986 171.662C114.933 173.933 116.022 176.5 116.929 179.371C117.183 180.135 117.428 180.97 117.682 181.764C116.98 180.502 115.992 178.781 115.87 178.628C113.762 175.746 107.988 171.418 104.2 172.681C103.575 172.906 103.004 173.261 102.526 173.722C102.047 174.183 101.671 174.739 101.422 175.355C101.173 175.971 101.057 176.633 101.081 177.297C101.105 177.961 101.269 178.612 101.562 179.208C102.713 181.785 105.859 183.282 108.466 183.862C111.073 184.443 116.878 183.414 118.12 183.17C118.65 184.952 119.139 186.795 119.566 188.75C120.336 192.264 120.793 195.838 120.931 199.432C120.931 199.646 120.931 199.86 120.931 200.074C120.686 199.382 119.098 195.726 118.965 195.481C117.183 192.426 111.919 187.447 108.008 188.282C107.361 188.438 106.755 188.729 106.228 189.136C105.701 189.542 105.266 190.056 104.951 190.642C104.636 191.228 104.448 191.874 104.399 192.537C104.35 193.201 104.442 193.868 104.668 194.494C105.534 197.172 108.507 198.995 111.022 199.87C113.925 200.889 120.676 200.237 120.921 200.217C120.976 203.823 120.796 207.428 120.381 211.011C120.086 213.669 119.678 216.347 119.24 219.025C118.904 218.139 117.438 214.738 117.295 214.504C115.523 211.449 110.259 206.479 106.348 207.314C105.703 207.471 105.097 207.762 104.571 208.168C104.045 208.574 103.611 209.086 103.296 209.671C102.981 210.256 102.792 210.9 102.743 211.563C102.693 212.225 102.784 212.891 103.008 213.516C103.874 216.204 106.837 218.017 109.363 218.903C112.194 219.921 118.66 219.3 119.21 219.249C119.006 220.461 118.813 221.683 118.609 222.905C117.927 226.877 117.234 230.869 116.674 234.82C116.471 236.194 116.328 237.549 116.185 238.893C115.646 237.579 114.617 235.217 114.505 235.023C112.723 231.968 107.458 226.989 103.548 227.834C102.902 227.991 102.297 228.281 101.771 228.687C101.245 229.093 100.81 229.605 100.495 230.19C100.18 230.775 99.992 231.42 99.9424 232.082C99.8929 232.745 99.9832 233.41 100.208 234.036C101.073 236.724 104.037 238.537 106.562 239.423C109.088 240.308 114.536 239.922 116.073 239.799C115.839 242.06 115.666 244.311 115.595 246.531C115.595 247.488 115.503 248.476 115.595 249.392C115.686 250.309 115.595 251.245 115.656 252.152C115.778 254.036 115.87 255.787 116.022 257.539C116.094 258.425 116.175 259.26 116.257 260.115C115.91 258.71 115.32 256.48 115.238 256.286C113.945 252.956 109.495 247.284 105.493 247.518C104.831 247.577 104.189 247.775 103.609 248.098C103.028 248.42 102.522 248.861 102.123 249.392C101.723 249.923 101.44 250.532 101.291 251.179C101.142 251.826 101.13 252.498 101.257 253.15C101.705 255.93 104.312 258.18 106.715 259.433C109.322 260.808 115.585 261.215 116.348 261.266C116.552 263.364 116.776 265.411 117.01 267.315C117.764 273.364 118.609 278.364 119.251 281.867C119.892 285.37 120.35 287.356 120.35 287.356C120.381 287.548 120.451 287.731 120.557 287.895C120.662 288.058 120.8 288.198 120.962 288.305C121.124 288.413 121.307 288.485 121.499 288.518C121.69 288.551 121.887 288.544 122.075 288.498C122.264 288.451 122.441 288.366 122.595 288.247C122.749 288.129 122.877 287.979 122.97 287.809C123.064 287.638 123.121 287.45 123.138 287.257C123.155 287.063 123.132 286.868 123.069 286.684C123.069 286.684 122.54 284.82 121.827 281.368Z" fill="black"/>
<path d="M118.405 182.425C118.405 182.425 125.126 180.389 127.458 178.281C129.495 176.509 131.531 173.688 131.236 170.867C131.204 170.204 131.033 169.555 130.733 168.963C130.434 168.37 130.013 167.848 129.498 167.429C128.983 167.01 128.386 166.704 127.745 166.532C127.103 166.359 126.433 166.323 125.778 166.427C121.847 167.16 118.884 173.739 118.435 177.283C118.395 177.588 118.334 182.446 118.405 182.425Z" fill="black"/>
</g>
<path d="M337.194 306.775C337.327 338.679 362.714 364.443 362.714 364.443C362.714 364.443 387.887 338.465 387.745 306.561C387.602 274.656 362.276 248.893 362.276 248.893C362.276 248.893 337.052 274.87 337.194 306.775Z" fill="#92E3A9"/>
<path d="M362.714 364.443L362.226 248.893" stroke="white" stroke-width="0.910297" stroke-miterlimit="10"/>
<path d="M362.399 289.962L348.193 277.671" stroke="white" stroke-width="0.910297" stroke-miterlimit="10"/>
<path d="M362.704 309.056L380.118 283.598" stroke="white" stroke-width="0.910297" stroke-miterlimit="10"/>
<path d="M362.531 320.064L341.553 301.51" stroke="white" stroke-width="0.910297" stroke-miterlimit="10"/>
<path d="M362.816 334.89L383.407 316.377" stroke="white" stroke-width="0.910297" stroke-miterlimit="10"/>
<path d="M362.867 347.691L346.645 334.962" stroke="white" stroke-width="0.910297" stroke-miterlimit="10"/>
<path d="M319.893 356.022C332.225 369.851 353.111 371.297 353.111 371.297C353.111 371.297 354.038 350.35 341.706 336.562C329.374 322.773 308.447 321.368 308.447 321.368C308.447 321.368 307.561 342.275 319.893 356.022Z" fill="#92E3A9"/>
<path d="M353.152 371.255L308.488 321.326" stroke="white" stroke-width="0.910297" stroke-miterlimit="10"/>
<path d="M324.363 339.066L313.467 339.199" stroke="white" stroke-width="0.910297" stroke-miterlimit="10"/>
<path d="M331.838 347.233L329.598 329.493" stroke="white" stroke-width="0.910297" stroke-miterlimit="10"/>
<path d="M335.994 352.08L319.761 352.1" stroke="white" stroke-width="0.910297" stroke-miterlimit="10"/>
<path d="M341.828 358.394L343.641 342.447" stroke="white" stroke-width="0.910297" stroke-miterlimit="10"/>
<path d="M346.778 363.934L334.843 364.646" stroke="white" stroke-width="0.910297" stroke-miterlimit="10"/>
<path d="M384.211 335.849C371.38 349.179 371.543 370.146 371.543 370.146C371.543 370.146 392.5 369.505 405.331 356.175C418.162 342.844 418 321.877 418 321.877C418 321.877 397.042 322.519 384.211 335.849Z" fill="#92E3A9"/>
<path d="M371.543 370.146L417.999 321.877" stroke="white" stroke-width="0.910297" stroke-miterlimit="10"/>
<path d="M401.492 339.035L400.545 328.18" stroke="white" stroke-width="0.910297" stroke-miterlimit="10"/>
<path d="M393.906 347.101L411.431 343.547" stroke="white" stroke-width="0.910297" stroke-miterlimit="10"/>
<path d="M389.385 351.612L388.152 335.421" stroke="white" stroke-width="0.910297" stroke-miterlimit="10"/>
<path d="M383.519 357.896L399.558 358.507" stroke="white" stroke-width="0.910297" stroke-miterlimit="10"/>
<path d="M378.366 363.241L376.757 351.388" stroke="white" stroke-width="0.910297" stroke-miterlimit="10"/>
<g opacity="0.1">
<path d="M337.194 306.775C337.327 338.679 362.714 364.443 362.714 364.443C362.714 364.443 387.887 338.465 387.745 306.561C387.602 274.656 362.276 248.893 362.276 248.893C362.276 248.893 337.052 274.87 337.194 306.775Z" fill="black"/>
<path d="M319.893 356.022C332.225 369.851 353.111 371.297 353.111 371.297C353.111 371.297 354.038 350.35 341.706 336.562C329.374 322.773 308.447 321.368 308.447 321.368C308.447 321.368 307.561 342.275 319.893 356.022Z" fill="black"/>
<path d="M384.211 335.849C371.38 349.179 371.543 370.146 371.543 370.146C371.543 370.146 392.5 369.505 405.331 356.175C418.162 342.844 418 321.877 418 321.877C418 321.877 397.042 322.519 384.211 335.849Z" fill="black"/>
</g>
<path d="M344.425 46.2227H93.2217V369.555H344.425V46.2227Z" fill="white" stroke="#263238" stroke-width="0.987488" stroke-linecap="round" stroke-linejoin="round"/>
<g style="mix-blend-mode:multiply">
<path d="M133.293 46.2227H93.2217V369.555H133.293V46.2227Z" fill="#92E3A9"/>
</g>
<path d="M288.61 93.9922H211.573V103.055H288.61V93.9922Z" fill="#92E3A9" stroke="#263238" stroke-width="0.987488" stroke-linecap="round" stroke-linejoin="round"/>
<path d="M336.003 171.214H124.831V180.277H336.003V171.214Z" fill="#92E3A9"/>
<path d="M336.003 295.776H124.831V304.84H336.003V295.776Z" fill="#92E3A9"/>
<path d="M260.128 109.604H211.573V118.668H260.128V109.604Z" fill="#92E3A9" stroke="#263238" stroke-width="0.987488" stroke-linecap="round" stroke-linejoin="round"/>
<path d="M260.128 124.89H211.573V133.953H260.128V124.89Z" fill="#92E3A9" stroke="#263238" stroke-width="0.987488" stroke-linecap="round" stroke-linejoin="round"/>
<path d="M204.893 190.257H199.893V195.257H204.893V190.257Z" fill="#92E3A9" stroke="#263238" stroke-width="0.987488" stroke-linecap="round" stroke-linejoin="round"/>
<path d="M204.893 254.563H199.893V259.564H204.893V254.563Z" fill="#92E3A9" stroke="#263238" stroke-width="0.987488" stroke-linecap="round" stroke-linejoin="round"/>
<path d="M275.453 190.257H270.453V195.257H275.453V190.257Z" fill="#92E3A9" stroke="#263238" stroke-width="0.987488" stroke-linecap="round" stroke-linejoin="round"/>
<path d="M275.453 254.563H270.453V259.564H275.453V254.563Z" fill="#92E3A9" stroke="#263238" stroke-width="0.987488" stroke-linecap="round" stroke-linejoin="round"/>
<path d="M344.425 46.2227H93.2217V62.6688H344.425V46.2227Z" fill="#263238" stroke="#263238" stroke-width="0.987488" stroke-linecap="round" stroke-linejoin="round"/>
<path d="M257.215 193.729H212.999C212.621 193.729 212.258 193.579 211.991 193.312C211.723 193.044 211.573 192.682 211.573 192.304C211.573 191.925 211.723 191.563 211.991 191.295C212.258 191.028 212.621 190.878 212.999 190.878H257.215C257.593 190.878 257.956 191.028 258.223 191.295C258.491 191.563 258.641 191.925 258.641 192.304C258.641 192.682 258.491 193.044 258.223 193.312C257.956 193.579 257.593 193.729 257.215 193.729Z" fill="#263238"/>
<path d="M257.215 200.867H212.999C212.62 200.865 212.257 200.712 211.99 200.443C211.723 200.174 211.573 199.811 211.573 199.432C211.573 199.053 211.723 198.691 211.991 198.423C212.258 198.156 212.621 198.006 212.999 198.006H257.215C257.593 198.006 257.956 198.156 258.223 198.423C258.491 198.691 258.641 199.053 258.641 199.432C258.641 199.811 258.491 200.174 258.224 200.443C257.957 200.712 257.594 200.865 257.215 200.867Z" fill="#263238"/>
<path d="M257.215 207.996H212.999C212.621 207.996 212.258 207.846 211.991 207.578C211.723 207.311 211.573 206.948 211.573 206.57C211.573 206.192 211.723 205.829 211.991 205.562C212.258 205.295 212.621 205.145 212.999 205.145H257.215C257.593 205.145 257.956 205.295 258.223 205.562C258.491 205.829 258.641 206.192 258.641 206.57C258.641 206.948 258.491 207.311 258.223 207.578C257.956 207.846 257.593 207.996 257.215 207.996Z" fill="#263238"/>
<path d="M257.215 215.124H212.998C212.62 215.124 212.258 214.974 211.99 214.706C211.723 214.439 211.573 214.076 211.573 213.698C211.573 213.32 211.723 212.957 211.99 212.69C212.258 212.423 212.62 212.272 212.998 212.272H257.215C257.593 212.272 257.955 212.423 258.223 212.69C258.49 212.957 258.64 213.32 258.64 213.698C258.64 214.076 258.49 214.439 258.223 214.706C257.955 214.974 257.593 215.124 257.215 215.124Z" fill="#263238"/>
<path d="M257.215 222.253H212.998C212.62 222.253 212.258 222.103 211.99 221.835C211.723 221.568 211.573 221.205 211.573 220.827C211.573 220.449 211.723 220.086 211.99 219.819C212.258 219.552 212.62 219.401 212.998 219.401H257.215C257.593 219.401 257.955 219.552 258.223 219.819C258.49 220.086 258.64 220.449 258.64 220.827C258.64 221.205 258.49 221.568 258.223 221.835C257.955 222.103 257.593 222.253 257.215 222.253Z" fill="#263238"/>
<path d="M324.099 193.729H279.883C279.505 193.729 279.142 193.579 278.875 193.312C278.608 193.044 278.458 192.682 278.458 192.304C278.458 191.925 278.608 191.563 278.875 191.295C279.142 191.028 279.505 190.878 279.883 190.878H324.099C324.477 190.878 324.84 191.028 325.107 191.295C325.375 191.563 325.525 191.925 325.525 192.304C325.525 192.682 325.375 193.044 325.107 193.312C324.84 193.579 324.477 193.729 324.099 193.729Z" fill="#263238"/>
<path d="M324.099 200.867H279.883C279.504 200.865 279.142 200.712 278.874 200.443C278.607 200.174 278.458 199.811 278.458 199.432C278.458 199.053 278.608 198.691 278.875 198.423C279.142 198.156 279.505 198.006 279.883 198.006H324.099C324.477 198.006 324.84 198.156 325.107 198.423C325.375 198.691 325.525 199.053 325.525 199.432C325.525 199.811 325.375 200.174 325.108 200.443C324.841 200.712 324.478 200.865 324.099 200.867Z" fill="#263238"/>
<path d="M324.099 207.996H279.883C279.505 207.996 279.142 207.846 278.875 207.578C278.608 207.311 278.458 206.948 278.458 206.57C278.458 206.192 278.608 205.829 278.875 205.562C279.142 205.295 279.505 205.145 279.883 205.145H324.099C324.477 205.145 324.84 205.295 325.107 205.562C325.375 205.829 325.525 206.192 325.525 206.57C325.525 206.948 325.375 207.311 325.107 207.578C324.84 207.846 324.477 207.996 324.099 207.996Z" fill="#263238"/>
<path d="M324.099 215.124H279.883C279.505 215.124 279.142 214.974 278.875 214.706C278.607 214.439 278.457 214.076 278.457 213.698C278.457 213.32 278.607 212.957 278.875 212.69C279.142 212.423 279.505 212.272 279.883 212.272H324.099C324.477 212.272 324.84 212.423 325.107 212.69C325.374 212.957 325.525 213.32 325.525 213.698C325.525 214.076 325.374 214.439 325.107 214.706C324.84 214.974 324.477 215.124 324.099 215.124Z" fill="#263238"/>
<path d="M324.099 222.253H279.883C279.505 222.253 279.142 222.103 278.875 221.835C278.607 221.568 278.457 221.205 278.457 220.827C278.457 220.449 278.607 220.086 278.875 219.819C279.142 219.552 279.505 219.401 279.883 219.401H324.099C324.477 219.401 324.84 219.552 325.107 219.819C325.374 220.086 325.525 220.449 325.525 220.827C325.525 221.205 325.374 221.568 325.107 221.835C324.84 222.103 324.477 222.253 324.099 222.253Z" fill="#263238"/>
<path d="M257.215 256.968H212.999C212.62 256.965 212.257 256.813 211.99 256.544C211.723 256.275 211.573 255.911 211.573 255.532C211.573 255.154 211.723 254.791 211.991 254.524C212.258 254.257 212.621 254.106 212.999 254.106H257.215C257.593 254.106 257.956 254.257 258.223 254.524C258.491 254.791 258.641 255.154 258.641 255.532C258.641 255.911 258.491 256.275 258.224 256.544C257.957 256.813 257.594 256.965 257.215 256.968Z" fill="#263238"/>
<path d="M257.215 264.096H212.999C212.621 264.096 212.258 263.945 211.991 263.678C211.723 263.411 211.573 263.048 211.573 262.67C211.573 262.292 211.723 261.929 211.991 261.662C212.258 261.394 212.621 261.244 212.999 261.244H257.215C257.593 261.244 257.956 261.394 258.223 261.662C258.491 261.929 258.641 262.292 258.641 262.67C258.641 263.048 258.491 263.411 258.223 263.678C257.956 263.945 257.593 264.096 257.215 264.096Z" fill="#263238"/>
<path d="M257.215 271.224H212.999C212.621 271.224 212.258 271.074 211.991 270.807C211.723 270.539 211.573 270.177 211.573 269.799C211.573 269.421 211.723 269.058 211.991 268.791C212.258 268.523 212.621 268.373 212.999 268.373H257.215C257.593 268.373 257.956 268.523 258.223 268.791C258.491 269.058 258.641 269.421 258.641 269.799C258.641 270.177 258.491 270.539 258.223 270.807C257.956 271.074 257.593 271.224 257.215 271.224Z" fill="#263238"/>
<path d="M257.215 278.352H212.999C212.621 278.352 212.258 278.202 211.991 277.935C211.723 277.667 211.573 277.305 211.573 276.927C211.573 276.549 211.723 276.186 211.991 275.919C212.258 275.651 212.621 275.501 212.999 275.501H257.215C257.593 275.501 257.956 275.651 258.223 275.919C258.491 276.186 258.641 276.549 258.641 276.927C258.641 277.305 258.491 277.667 258.223 277.935C257.956 278.202 257.593 278.352 257.215 278.352Z" fill="#263238"/>
<path d="M257.215 285.491H212.999C212.621 285.491 212.258 285.341 211.991 285.073C211.723 284.806 211.573 284.443 211.573 284.065C211.573 283.687 211.723 283.325 211.991 283.057C212.258 282.79 212.621 282.64 212.999 282.64H257.215C257.593 282.64 257.956 282.79 258.223 283.057C258.491 283.325 258.641 283.687 258.641 284.065C258.641 284.443 258.491 284.806 258.223 285.073C257.956 285.341 257.593 285.491 257.215 285.491Z" fill="#263238"/>
<path d="M324.099 256.968H279.883C279.504 256.965 279.142 256.813 278.874 256.544C278.607 256.275 278.458 255.911 278.458 255.532C278.458 255.154 278.608 254.791 278.875 254.524C279.142 254.257 279.505 254.106 279.883 254.106H324.099C324.477 254.106 324.84 254.257 325.107 254.524C325.375 254.791 325.525 255.154 325.525 255.532C325.525 255.911 325.375 256.275 325.108 256.544C324.841 256.813 324.478 256.965 324.099 256.968Z" fill="#263238"/>
<path d="M324.099 264.096H279.883C279.505 264.096 279.142 263.945 278.875 263.678C278.608 263.411 278.458 263.048 278.458 262.67C278.458 262.292 278.608 261.929 278.875 261.662C279.142 261.394 279.505 261.244 279.883 261.244H324.099C324.477 261.244 324.84 261.394 325.107 261.662C325.375 261.929 325.525 262.292 325.525 262.67C325.525 263.048 325.375 263.411 325.107 263.678C324.84 263.945 324.477 264.096 324.099 264.096Z" fill="#263238"/>
<path d="M324.099 271.224H279.883C279.505 271.224 279.142 271.074 278.875 270.807C278.608 270.539 278.458 270.177 278.458 269.799C278.458 269.421 278.608 269.058 278.875 268.791C279.142 268.523 279.505 268.373 279.883 268.373H324.099C324.477 268.373 324.84 268.523 325.107 268.791C325.375 269.058 325.525 269.421 325.525 269.799C325.525 270.177 325.375 270.539 325.107 270.807C324.84 271.074 324.477 271.224 324.099 271.224Z" fill="#263238"/>
<path d="M324.099 278.352H279.883C279.505 278.352 279.142 278.202 278.875 277.935C278.608 277.667 278.458 277.305 278.458 276.927C278.458 276.549 278.608 276.186 278.875 275.919C279.142 275.651 279.505 275.501 279.883 275.501H324.099C324.477 275.501 324.84 275.651 325.107 275.919C325.375 276.186 325.525 276.549 325.525 276.927C325.525 277.305 325.375 277.667 325.107 277.935C324.84 278.202 324.477 278.352 324.099 278.352Z" fill="#263238"/>
<path d="M324.099 285.491H279.883C279.505 285.491 279.142 285.341 278.875 285.073C278.608 284.806 278.458 284.443 278.458 284.065C278.458 283.687 278.608 283.325 278.875 283.057C279.142 282.79 279.505 282.64 279.883 282.64H324.099C324.477 282.64 324.84 282.79 325.107 283.057C325.375 283.325 325.525 283.687 325.525 284.065C325.525 284.443 325.375 284.806 325.107 285.073C324.84 285.341 324.477 285.491 324.099 285.491Z" fill="#263238"/>
<path d="M324.099 318.037H279.883C279.505 318.037 279.142 317.887 278.875 317.619C278.608 317.352 278.458 316.989 278.458 316.611C278.458 316.233 278.608 315.87 278.875 315.603C279.142 315.336 279.505 315.186 279.883 315.186H324.099C324.477 315.186 324.84 315.336 325.107 315.603C325.375 315.87 325.525 316.233 325.525 316.611C325.525 316.989 325.375 317.352 325.107 317.619C324.84 317.887 324.477 318.037 324.099 318.037Z" fill="#263238"/>
<path d="M324.099 325.165H279.883C279.505 325.165 279.142 325.015 278.875 324.747C278.608 324.48 278.458 324.117 278.458 323.739C278.458 323.361 278.608 322.998 278.875 322.731C279.142 322.464 279.505 322.313 279.883 322.313H324.099C324.477 322.313 324.84 322.464 325.107 322.731C325.375 322.998 325.525 323.361 325.525 323.739C325.525 324.117 325.375 324.48 325.107 324.747C324.84 325.015 324.477 325.165 324.099 325.165Z" fill="#263238"/>
<path d="M324.099 332.303H279.883C279.505 332.303 279.142 332.153 278.875 331.886C278.608 331.619 278.458 331.256 278.458 330.878C278.458 330.5 278.608 330.137 278.875 329.87C279.142 329.602 279.505 329.452 279.883 329.452H324.099C324.477 329.452 324.84 329.602 325.107 329.87C325.375 330.137 325.525 330.5 325.525 330.878C325.525 331.256 325.375 331.619 325.107 331.886C324.84 332.153 324.477 332.303 324.099 332.303Z" fill="#263238"/>
<path d="M324.099 336.581H279.883C279.096 336.581 278.458 337.219 278.458 338.007C278.458 338.794 279.096 339.432 279.883 339.432H324.099C324.887 339.432 325.525 338.794 325.525 338.007C325.525 337.219 324.887 336.581 324.099 336.581Z" fill="#263238"/>
<path d="M324.099 346.56H279.883C279.505 346.56 279.142 346.41 278.875 346.143C278.608 345.875 278.458 345.513 278.458 345.135C278.458 344.757 278.608 344.394 278.875 344.127C279.142 343.859 279.505 343.709 279.883 343.709H324.099C324.477 343.709 324.84 343.859 325.107 344.127C325.375 344.394 325.525 344.757 325.525 345.135C325.525 345.513 325.375 345.875 325.107 346.143C324.84 346.41 324.477 346.56 324.099 346.56Z" fill="#263238"/>
<path d="M319.822 235.094C318.474 235.094 317.17 235.572 316.141 236.443C315.112 237.313 314.425 238.52 314.201 239.849H307.378C307.128 238.547 306.433 237.372 305.41 236.527C304.388 235.682 303.103 235.22 301.777 235.22C300.451 235.22 299.166 235.682 298.144 236.527C297.121 237.372 296.426 238.547 296.176 239.849H289.353C289.104 238.547 288.408 237.372 287.386 236.527C286.364 235.682 285.079 235.22 283.753 235.22C282.426 235.22 281.141 235.682 280.119 236.527C279.097 237.372 278.401 238.547 278.152 239.849H271.237C270.999 238.538 270.308 237.351 269.284 236.497C268.261 235.642 266.97 235.174 265.636 235.174C264.303 235.174 263.012 235.642 261.988 236.497C260.965 237.351 260.274 238.538 260.035 239.849H253.202C252.964 238.538 252.273 237.351 251.249 236.497C250.226 235.642 248.935 235.174 247.602 235.174C246.268 235.174 244.977 235.642 243.954 236.497C242.93 237.351 242.239 238.538 242.001 239.849H235.168C234.929 238.538 234.238 237.351 233.215 236.497C232.191 235.642 230.9 235.174 229.567 235.174C228.234 235.174 226.943 235.642 225.919 236.497C224.895 237.351 224.204 238.538 223.966 239.849H217.133C216.894 238.44 216.135 237.171 215.005 236.295C213.875 235.419 212.457 234.999 211.033 235.119C209.608 235.239 208.28 235.889 207.312 236.942C206.345 237.994 205.808 239.372 205.808 240.802C205.808 242.231 206.345 243.609 207.312 244.661C208.28 245.714 209.608 246.364 211.033 246.484C212.457 246.604 213.875 246.184 215.005 245.308C216.135 244.432 216.894 243.163 217.133 241.754H223.966C224.204 243.065 224.895 244.252 225.919 245.106C226.943 245.961 228.234 246.429 229.567 246.429C230.9 246.429 232.191 245.961 233.215 245.106C234.238 244.252 234.929 243.065 235.168 241.754H242.001C242.239 243.065 242.93 244.252 243.954 245.106C244.977 245.961 246.268 246.429 247.602 246.429C248.935 246.429 250.226 245.961 251.249 245.106C252.273 244.252 252.964 243.065 253.202 241.754H260.035C260.274 243.065 260.965 244.252 261.988 245.106C263.012 245.961 264.303 246.429 265.636 246.429C266.97 246.429 268.261 245.961 269.284 245.106C270.308 244.252 270.999 243.065 271.237 241.754H278.07C278.32 243.056 279.015 244.231 280.038 245.076C281.06 245.921 282.345 246.383 283.671 246.383C284.997 246.383 286.282 245.921 287.304 245.076C288.327 244.231 289.022 243.056 289.272 241.754H296.095C296.344 243.056 297.04 244.231 298.062 245.076C299.084 245.921 300.369 246.383 301.696 246.383C303.022 246.383 304.307 245.921 305.329 245.076C306.351 244.231 307.047 243.056 307.296 241.754H314.119C314.302 242.825 314.787 243.822 315.517 244.627C316.247 245.433 317.192 246.012 318.241 246.298C319.29 246.584 320.398 246.564 321.436 246.241C322.474 245.918 323.398 245.305 324.099 244.475C324.8 243.644 325.249 242.63 325.393 241.553C325.538 240.476 325.371 239.379 324.913 238.394C324.455 237.408 323.725 236.573 322.808 235.989C321.892 235.404 320.827 235.094 319.741 235.094H319.822Z" fill="#263238"/>
<path d="M186.807 315.715C184.905 315.713 183.046 316.275 181.463 317.33C179.881 318.385 178.647 319.886 177.918 321.642C177.189 323.398 176.997 325.332 177.367 327.197C177.737 329.063 178.652 330.776 179.996 332.122C181.34 333.467 183.052 334.384 184.918 334.756C186.783 335.127 188.716 334.938 190.473 334.21C192.23 333.483 193.732 332.251 194.789 330.67C195.846 329.089 196.41 327.23 196.41 325.328C196.411 324.066 196.164 322.816 195.682 321.65C195.2 320.484 194.493 319.424 193.601 318.531C192.709 317.638 191.65 316.93 190.484 316.447C189.318 315.964 188.069 315.715 186.807 315.715ZM186.807 330.114C185.857 330.116 184.929 329.836 184.138 329.31C183.348 328.784 182.732 328.035 182.367 327.158C182.003 326.281 181.907 325.316 182.092 324.385C182.277 323.453 182.734 322.598 183.405 321.926C184.077 321.255 184.932 320.798 185.863 320.613C186.795 320.428 187.76 320.524 188.637 320.888C189.514 321.253 190.263 321.869 190.789 322.659C191.315 323.45 191.595 324.378 191.593 325.328C191.59 326.596 191.085 327.812 190.188 328.709C189.291 329.606 188.075 330.111 186.807 330.114Z" fill="#92E3A9" stroke="#263238" stroke-width="0.987488" stroke-linecap="round" stroke-linejoin="round"/>
<path d="M189.669 329.147L194.251 331.377C195.395 329.971 196.117 328.27 196.335 326.471C196.552 324.671 196.256 322.847 195.481 321.209C194.706 319.571 193.483 318.186 191.953 317.214C190.424 316.241 188.65 315.722 186.838 315.715V320.532C187.838 320.542 188.81 320.866 189.617 321.457C190.423 322.048 191.025 322.878 191.336 323.828C191.647 324.779 191.653 325.803 191.352 326.757C191.051 327.711 190.459 328.547 189.659 329.147H189.669Z" fill="#263238" stroke="#263238" stroke-width="0.987488" stroke-linecap="round" stroke-linejoin="round"/>
<path d="M191.43 346.856H182.265C181.965 346.858 181.667 346.8 181.389 346.686C181.111 346.572 180.859 346.404 180.646 346.192C180.433 345.98 180.264 345.728 180.149 345.451C180.033 345.173 179.974 344.876 179.974 344.575C179.974 343.968 180.216 343.385 180.645 342.955C181.075 342.526 181.658 342.284 182.265 342.284H191.43C192.038 342.284 192.621 342.526 193.051 342.955C193.48 343.385 193.722 343.968 193.722 344.575C193.722 344.876 193.662 345.173 193.547 345.451C193.432 345.728 193.263 345.98 193.05 346.192C192.837 346.404 192.584 346.572 192.306 346.686C192.029 346.8 191.731 346.858 191.43 346.856Z" fill="#92E3A9" stroke="#263238" stroke-width="0.987488" stroke-linecap="round" stroke-linejoin="round"/>
<path d="M215.453 315.715C213.552 315.715 211.693 316.279 210.112 317.335C208.531 318.391 207.299 319.893 206.572 321.649C205.844 323.406 205.654 325.339 206.025 327.203C206.395 329.068 207.311 330.781 208.655 332.125C210 333.47 211.713 334.385 213.578 334.756C215.442 335.127 217.375 334.937 219.132 334.209C220.888 333.482 222.39 332.25 223.446 330.669C224.502 329.088 225.066 327.229 225.066 325.328C225.067 324.065 224.82 322.814 224.337 321.648C223.854 320.481 223.146 319.42 222.253 318.527C221.36 317.635 220.3 316.926 219.133 316.444C217.966 315.961 216.716 315.714 215.453 315.715ZM215.453 330.114C214.504 330.114 213.576 329.833 212.787 329.305C211.998 328.778 211.383 328.028 211.021 327.151C210.658 326.274 210.564 325.309 210.75 324.378C210.935 323.448 211.393 322.593 212.065 321.923C212.737 321.252 213.592 320.796 214.523 320.612C215.455 320.428 216.419 320.525 217.296 320.889C218.172 321.254 218.92 321.87 219.446 322.66C219.972 323.451 220.251 324.379 220.249 325.328C220.249 325.957 220.125 326.581 219.884 327.162C219.643 327.743 219.289 328.271 218.844 328.716C218.398 329.16 217.87 329.513 217.288 329.753C216.706 329.993 216.082 330.115 215.453 330.114Z" fill="#92E3A9" stroke="#263238" stroke-width="0.987488" stroke-linecap="round" stroke-linejoin="round"/>
<path d="M225.015 324.32C224.763 321.968 223.654 319.791 221.9 318.204C220.146 316.617 217.869 315.731 215.504 315.715V320.532C216.767 320.545 217.974 321.056 218.863 321.954C219.751 322.852 220.249 324.065 220.249 325.328C220.239 325.512 220.219 325.696 220.188 325.878L225.015 324.32Z" fill="#263238" stroke="#263238" stroke-width="0.987488" stroke-linecap="round" stroke-linejoin="round"/>
<path d="M220.035 346.856H210.87C210.57 346.858 210.272 346.8 209.994 346.686C209.716 346.572 209.464 346.404 209.251 346.192C209.038 345.98 208.869 345.728 208.754 345.451C208.638 345.173 208.579 344.876 208.579 344.575C208.579 343.968 208.82 343.385 209.25 342.955C209.68 342.526 210.263 342.284 210.87 342.284H220.035C220.643 342.284 221.226 342.526 221.656 342.955C222.085 343.385 222.327 343.968 222.327 344.575C222.327 344.876 222.267 345.173 222.152 345.451C222.037 345.728 221.868 345.98 221.655 346.192C221.442 346.404 221.189 346.572 220.911 346.686C220.634 346.8 220.336 346.858 220.035 346.856Z" fill="#92E3A9" stroke="#263238" stroke-width="0.987488" stroke-linecap="round" stroke-linejoin="round"/>
<path d="M244.272 315.715C242.37 315.715 240.512 316.279 238.931 317.335C237.35 318.391 236.118 319.893 235.39 321.649C234.663 323.406 234.472 325.339 234.843 327.203C235.214 329.068 236.13 330.781 237.474 332.125C238.819 333.47 240.532 334.385 242.396 334.756C244.261 335.127 246.194 334.937 247.951 334.209C249.707 333.482 251.208 332.25 252.265 330.669C253.321 329.088 253.885 327.229 253.885 325.328C253.886 324.065 253.638 322.814 253.156 321.648C252.673 320.481 251.965 319.42 251.072 318.527C250.179 317.635 249.119 316.926 247.952 316.444C246.785 315.961 245.535 315.714 244.272 315.715ZM244.272 330.114C243.323 330.114 242.395 329.833 241.606 329.305C240.817 328.778 240.202 328.028 239.84 327.151C239.477 326.274 239.382 325.309 239.568 324.378C239.754 323.448 240.212 322.593 240.884 321.923C241.556 321.252 242.411 320.796 243.342 320.612C244.273 320.428 245.238 320.525 246.114 320.889C246.991 321.254 247.739 321.87 248.265 322.66C248.791 323.451 249.07 324.379 249.068 325.328C249.068 325.957 248.944 326.581 248.703 327.162C248.462 327.743 248.108 328.271 247.663 328.716C247.217 329.16 246.688 329.513 246.107 329.753C245.525 329.993 244.901 330.115 244.272 330.114Z" fill="#92E3A9" stroke="#263238" stroke-width="0.987488" stroke-linecap="round" stroke-linejoin="round"/>
<path d="M244.323 315.715V320.532C245.13 320.533 245.923 320.738 246.63 321.127C247.337 321.517 247.934 322.079 248.366 322.76C248.798 323.442 249.052 324.222 249.102 325.028C249.153 325.833 248.999 326.638 248.656 327.369C248.312 328.099 247.79 328.731 247.137 329.206C246.485 329.681 245.723 329.984 244.922 330.086C244.121 330.188 243.308 330.086 242.557 329.79C241.806 329.495 241.142 329.014 240.626 328.393L236.817 331.367C237.838 332.624 239.159 333.604 240.659 334.214C242.16 334.823 243.79 335.044 245.398 334.855C247.007 334.665 248.541 334.072 249.859 333.131C251.176 332.189 252.234 330.93 252.935 329.47C253.635 328.009 253.954 326.396 253.863 324.779C253.773 323.162 253.274 321.594 252.415 320.222C251.555 318.849 250.363 317.716 248.948 316.928C247.533 316.14 245.942 315.723 244.323 315.715Z" fill="#263238" stroke="#263238" stroke-width="0.987488" stroke-linecap="round" stroke-linejoin="round"/>
<path d="M248.854 346.857H239.689C239.388 346.858 239.091 346.8 238.813 346.686C238.535 346.572 238.282 346.404 238.069 346.192C237.856 345.98 237.687 345.728 237.572 345.451C237.457 345.173 237.397 344.876 237.397 344.575C237.396 344.274 237.454 343.976 237.569 343.697C237.684 343.418 237.853 343.165 238.066 342.952C238.279 342.739 238.532 342.571 238.81 342.456C239.089 342.341 239.387 342.283 239.689 342.284H248.854C249.461 342.284 250.044 342.526 250.474 342.955C250.904 343.385 251.145 343.968 251.145 344.575C251.145 344.876 251.086 345.173 250.97 345.451C250.855 345.728 250.686 345.98 250.473 346.192C250.26 346.404 250.008 346.572 249.73 346.686C249.452 346.8 249.154 346.858 248.854 346.857Z" fill="#92E3A9" stroke="#263238" stroke-width="0.987488" stroke-linecap="round" stroke-linejoin="round"/>
<path d="M145.575 167.548C169.331 167.548 188.589 148.289 188.589 124.533C188.589 100.777 169.331 81.5186 145.575 81.5186C121.818 81.5186 102.56 100.777 102.56 124.533C102.56 148.289 121.818 167.548 145.575 167.548Z" fill="white"/>
<path d="M158.609 363.842C158.609 363.842 164.821 373.18 163.965 376.877C163.11 380.574 157.652 379.433 155.065 375.451C152.479 371.47 145.9 365.523 147.092 362.967C148.283 360.411 156.287 361.571 158.609 363.842Z" fill="white" stroke="#263238" stroke-width="1.02307" stroke-linecap="round" stroke-linejoin="round"/>
<path d="M131.919 363.323C131.919 363.323 124.414 374.463 125.615 377.508C126.817 380.553 130.707 379.647 133.68 376.897C136.654 374.148 142.591 366.429 142.591 366.429C142.591 366.429 137.601 360.278 131.919 363.323Z" fill="white" stroke="#263238" stroke-width="1.02307" stroke-linecap="round" stroke-linejoin="round"/>
<path d="M125.615 377.509C127.65 377.789 129.721 377.384 131.501 376.358C134.922 374.627 140.89 366.816 140.89 366.816" stroke="#263238" stroke-width="0.767303" stroke-linecap="round" stroke-linejoin="round"/>
<path d="M149.18 364.83C149.18 364.83 152.428 370.94 156.084 374.402C159.74 377.865 161.532 378.853 163.935 376.877" stroke="#263238" stroke-width="0.767303" stroke-linecap="round" stroke-linejoin="round"/>
<path d="M121.378 224.299C121.378 224.299 114.81 237.7 115.105 243.179C115.401 248.657 116.602 276.377 118.395 285.511C120.187 294.646 121.949 317.395 123.171 326.489C124.393 335.583 132.224 356.886 132.224 356.886C132.224 356.886 131.022 361.764 131.918 363.281C132.814 364.799 142.295 367.304 142.59 366.387C142.886 365.471 144.383 362.731 144.627 359.992C144.871 357.253 140.452 328.016 142.244 321.621C144.036 315.226 144.383 272.232 144.627 267.802C144.871 263.372 144.556 255.582 144.556 255.582C145.088 255.746 145.658 255.747 146.191 255.586C146.724 255.424 147.197 255.108 147.55 254.676C148.741 253.148 152.692 294.544 153.894 304.289C155.095 314.035 152.397 316.774 151.501 322.864C150.605 328.953 148.517 348.74 148.517 351.184C148.517 353.628 145.829 361.53 147.02 363.057C148.211 364.585 150.747 364.33 151.786 364.615C154.902 365.481 157.336 364.127 158.527 363.821C159.719 363.516 160.727 359.106 160.727 359.106C160.727 359.106 170.32 331.998 172.112 320.725C173.904 309.452 176.888 288.535 176.297 275.745C175.707 262.955 172.112 237.048 172.112 237.048L171.216 229.431L121.378 224.299Z" fill="#263238" stroke="#263238" stroke-width="1.02307" stroke-linecap="round" stroke-linejoin="round"/>
<path d="M117.183 239.799C117.183 239.799 116.603 247.314 121.521 252.223" stroke="white" stroke-width="0.506629" stroke-linecap="round" stroke-linejoin="round"/>
<path d="M117.468 250.491C117.468 250.491 120.36 255.41 123.833 255.98" stroke="white" stroke-width="0.506629" stroke-linecap="round" stroke-linejoin="round"/>
<path d="M140.584 332.732C140.584 332.732 136.511 342.447 135.961 347.753C135.411 353.058 140.584 350.991 141.745 354.525C142.906 358.058 134.81 357.773 136.257 358.649C137.703 359.525 142.03 360.126 142.03 360.126" stroke="white" stroke-width="0.511535" stroke-linecap="round" stroke-linejoin="round"/>
<path d="M148.426 356.888C149.291 356.592 159.118 354.851 157.957 349.525C156.797 344.199 151.023 343.924 151.847 337.743C152.672 331.562 161.664 317.997 161.664 314.168C161.664 310.339 155.31 296.073 154.729 287.233" stroke="white" stroke-width="0.511535" stroke-linecap="round" stroke-linejoin="round"/>
<path d="M162.55 239.228C162.55 239.228 155.9 248.759 155.035 250.205C154.169 251.651 162.835 243.851 162.835 243.851" stroke="white" stroke-width="0.506629" stroke-linecap="round" stroke-linejoin="round"/>
<path d="M145.157 235.857C145.157 235.857 145.88 242.823 145.88 244.259V252.192" stroke="white" stroke-width="0.506629" stroke-linecap="round" stroke-linejoin="round"/>
<path d="M145.88 247.875C145.88 247.875 149.006 247.396 149.719 244.993C150.432 242.59 150.208 237.783 150.208 237.783" stroke="white" stroke-width="0.506629" stroke-linecap="round" stroke-linejoin="round"/>
<path d="M206.216 153.21C202.632 142.752 202.031 137.079 201.736 134.096C201.44 131.112 198.151 131.998 198.151 131.998C198.151 131.998 191.023 136.183 191.023 137.09C191.023 137.996 194.312 160.094 194.903 163.974C195.261 166.248 195.462 168.545 195.503 170.848C195.503 170.848 182.958 157.405 179.668 154.116C177.163 151.601 175.177 149.452 173.049 148.169C171.898 147.151 169.902 146.774 166.827 145.756C161.45 143.963 155.778 139.778 149.2 140.073C144.881 140.37 140.641 141.382 136.654 143.067C136.654 143.067 127.102 147.548 120.523 150.532C119.757 150.874 119.03 151.297 118.354 151.794C117.275 151.662 115.024 152.243 112.458 157.996C108.884 166.061 92.7533 187.273 90.0547 194.738C87.3561 202.202 93.0385 209.677 99.3114 215.644C103.837 220.095 108.124 224.782 112.153 229.687L119.281 220.909C119.483 222.862 119.823 224.798 120.299 226.703C121.195 229.687 124.179 232.976 136.134 233.832C148.09 234.687 174.943 236.337 174.067 230.247C172.835 221.591 173.467 193.801 172.876 186.336C172.701 181.549 172.8 176.755 173.171 171.978C174.546 173.719 177.245 176.947 179.129 178.22C181.817 180.013 193.182 188.404 197.662 190.216C202.143 192.029 208.416 189.025 211.104 183.088C213.793 177.151 209.801 163.668 206.216 153.21ZM108.843 202.793C107.641 198.017 107.051 196.224 107.051 196.224C107.051 196.224 114.709 187.976 118.395 183.577C118.894 195.379 119.21 208.292 118.863 210.186C118.592 213.362 118.663 216.557 119.077 219.717C117.081 216.978 109.861 206.907 108.843 202.793Z" fill="#92E3A9" stroke="#263238" stroke-width="1.01326" stroke-linecap="round" stroke-linejoin="round"/>
<path opacity="0.1" d="M206.216 153.21C202.632 142.752 202.031 137.079 201.736 134.096C201.44 131.112 198.151 131.998 198.151 131.998C198.151 131.998 191.023 136.183 191.023 137.09C191.023 137.996 194.312 160.094 194.903 163.974C195.261 166.248 195.462 168.545 195.503 170.848C195.503 170.848 182.958 157.405 179.668 154.116C177.163 151.601 175.177 149.452 173.049 148.169C171.898 147.151 169.902 146.774 166.827 145.756C161.45 143.963 155.778 139.778 149.2 140.073C144.881 140.37 140.641 141.382 136.654 143.067C136.654 143.067 127.102 147.548 120.523 150.532C119.757 150.874 119.03 151.297 118.354 151.794C117.275 151.662 115.024 152.243 112.458 157.996C108.884 166.061 92.7533 187.273 90.0547 194.738C87.3561 202.202 93.0385 209.677 99.3114 215.644C103.837 220.095 108.124 224.782 112.153 229.687L119.281 220.909C119.483 222.862 119.823 224.798 120.299 226.703C121.195 229.687 124.179 232.976 136.134 233.832C148.09 234.687 174.943 236.337 174.067 230.247C172.835 221.591 173.467 193.801 172.876 186.336C172.701 181.549 172.8 176.755 173.171 171.978C174.546 173.719 177.245 176.947 179.129 178.22C181.817 180.013 193.182 188.404 197.662 190.216C202.143 192.029 208.416 189.025 211.104 183.088C213.793 177.151 209.801 163.668 206.216 153.21ZM108.843 202.793C107.641 198.017 107.051 196.224 107.051 196.224C107.051 196.224 114.709 187.976 118.395 183.577C118.894 195.379 119.21 208.292 118.863 210.186C118.592 213.362 118.663 216.557 119.077 219.717C117.081 216.978 109.861 206.907 108.843 202.793Z" fill="black"/>
<path d="M122.091 182.294C123.982 179.455 125.628 176.461 127.01 173.343" stroke="#263238" stroke-width="0.759943" stroke-linecap="round" stroke-linejoin="round"/>
<path d="M129.607 174.208C128.916 175.649 127.93 176.928 126.715 177.966" stroke="#263238" stroke-width="0.759943" stroke-linecap="round" stroke-linejoin="round"/>
<path d="M195.463 170.837C195.503 172.558 195.884 174.254 196.583 175.827C197.282 177.4 198.286 178.819 199.536 180.002" stroke="#263238" stroke-width="1.01326" stroke-linecap="round" stroke-linejoin="round"/>
<path d="M196.644 175.654C196.401 178.372 197.01 181.098 198.385 183.455" stroke="#263238" stroke-width="1.01326" stroke-linecap="round" stroke-linejoin="round"/>
<path d="M107.051 196.225C107.051 196.225 104.851 194.137 99.4233 195.043" stroke="#263238" stroke-width="0.759943" stroke-linecap="round" stroke-linejoin="round"/>
<path d="M96.4194 193.841C96.4194 193.841 97.9266 191.428 103.639 193.23" stroke="#263238" stroke-width="0.759943" stroke-linecap="round" stroke-linejoin="round"/>
<path d="M179.526 162.823C178.324 163.119 173.202 171.856 173.202 171.856L185.555 168.546" stroke="#263238" stroke-width="0.759943" stroke-linecap="round" stroke-linejoin="round"/>
<path d="M144.057 156.866C144.057 156.866 146.369 160.043 151.572 158.607C156.776 157.171 158.507 151.672 157.682 148.199C156.858 144.727 139.434 147.619 144.057 156.866Z" fill="white" stroke="#263238" stroke-width="1.01326" stroke-linecap="round" stroke-linejoin="round"/>
<path d="M139.108 137.079C139.108 137.079 135.615 139.4 135.157 141.498C134.698 143.596 135.849 150.327 136.776 152.649C137.703 154.971 140.737 160.317 140.737 160.317C140.737 160.317 151.195 154.278 151.939 153.81C152.682 153.341 160.086 157.527 161.705 156.865C163.324 156.203 157.754 141.987 155.198 138.973C152.642 135.958 142.825 134.278 139.108 137.079Z" fill="white" stroke="#263238" stroke-width="1.01326" stroke-linecap="round" stroke-linejoin="round"/>
<path d="M137.224 129.401C137.224 129.401 137.458 133.118 137.927 138.699C138.395 144.279 140.279 148.689 143.334 151.245C146.389 153.801 150.768 155.196 151.929 153.801C153.09 152.406 154.485 146.601 153.966 143.108C153.446 139.615 152.805 132.192 152.805 132.192L137.224 129.401Z" fill="white" stroke="#263238" stroke-width="1.01326" stroke-linecap="round" stroke-linejoin="round"/>
<g style="mix-blend-mode:multiply" opacity="0.5">
<path d="M153.517 138.76C153.171 135.511 152.856 132.192 152.856 132.192L137.224 129.401C137.224 129.401 137.458 133.118 137.927 138.699C138.104 141.279 138.699 143.814 139.688 146.204L153.517 138.76Z" fill="#92E3A9"/>
</g>
<path d="M132.132 123.841C132.132 123.841 128.65 120.358 127.947 123.373C127.244 126.387 130.045 131.051 133.996 129.88V127.1L132.132 123.841Z" fill="white" stroke="#263238" stroke-width="1.01326" stroke-linecap="round" stroke-linejoin="round"/>
<path opacity="0.5" d="M132.132 123.841C132.132 123.841 128.65 120.358 127.947 123.373C127.244 126.387 130.045 131.051 133.996 129.88V127.1L132.132 123.841Z" fill="#92E3A9" stroke="#263238" stroke-width="1.01326" stroke-linecap="round" stroke-linejoin="round"/>
<path d="M129.077 117.548C129.077 117.548 134.892 133.119 140.004 136.143C145.116 139.167 155.34 141.948 158.13 131.051C160.921 120.155 153.487 104.32 150.931 99.6662C148.375 95.0124 138.843 93.6274 132.804 98.2711C126.766 102.915 125.391 107.314 129.077 117.548Z" fill="white" stroke="#263238" stroke-width="1.01326" stroke-linecap="round" stroke-linejoin="round"/>
<g style="mix-blend-mode:multiply" opacity="0.5">
<path d="M135.524 104.36C137.991 103.219 140.667 102.595 143.385 102.527L149.179 97.6496C145.371 94.7168 137.886 94.3604 132.835 98.2504C126.786 102.904 125.391 107.314 129.108 117.548C129.108 117.548 134.923 133.118 140.035 136.143C141.848 137.209 143.812 137.995 145.86 138.475C143.395 135.297 139.607 130.247 138.405 127.67C136.572 123.739 135.788 115.623 133.426 110.908C131.063 106.193 131.858 106.193 135.524 104.36Z" fill="#92E3A9"/>
</g>
<path d="M147.703 112.894C147.703 112.894 150.024 117.079 149.098 117.985C148.784 118.256 148.405 118.442 147.998 118.524C147.591 118.606 147.171 118.582 146.776 118.454" stroke="#263238" stroke-width="1.01326" stroke-linecap="round" stroke-linejoin="round"/>
<path d="M137.01 112.201C137.01 112.201 137.479 109.411 140.961 109.411" stroke="#263238" stroke-width="2.02651" stroke-linecap="round" stroke-linejoin="round"/>
<path d="M139.108 114.992C139.108 114.992 141.664 116.153 142.591 113.597" stroke="#263238" stroke-width="1.01326" stroke-linecap="round" stroke-linejoin="round"/>
<path d="M150.258 113.129C150.258 113.129 152.814 114.289 153.751 111.733" stroke="#263238" stroke-width="1.01326" stroke-linecap="round" stroke-linejoin="round"/>
<path d="M148.141 107.793C148.761 107.16 149.6 106.788 150.485 106.752C151.371 106.716 152.237 107.019 152.906 107.599" stroke="#263238" stroke-width="2.02651" stroke-linecap="round" stroke-linejoin="round"/>
<path d="M158.609 122.099C155.9 120.918 149.444 118.311 147.285 119.401C144.495 120.796 137.285 125.684 137.285 129.401C137.285 129.401 132.642 123.128 132.642 120.796C132.642 118.464 134.495 117.741 132.876 114.757C131.257 111.773 128.914 111.498 129.617 108.016C130.259 104.787 136.684 101.366 139.8 100.887C141.747 102.534 144.226 103.417 146.776 103.372C151.868 103.372 156.074 100.103 156.074 96.0501C156.074 91.9971 151.909 88.7384 146.776 88.7384C145.634 88.7331 144.497 88.9014 143.405 89.2374C138.538 88.881 137.611 92.4859 134.24 94.4614C130.87 96.437 128.752 102.262 128.752 102.262H128.894C126.43 105.867 126.44 110.215 129.118 117.537C129.118 117.537 134.933 133.107 140.045 136.132C145.157 139.156 155.381 141.936 158.171 131.04C158.849 128.11 158.997 125.082 158.609 122.099Z" fill="#263238" stroke="#263238" stroke-width="1.01326" stroke-linecap="round" stroke-linejoin="round"/>
<path d="M153.059 121.865C153.059 121.865 149.576 126.743 145.625 123.495" stroke="white" stroke-width="1.01326" stroke-linecap="round" stroke-linejoin="round"/>
<path d="M119.586 220.42C120.967 221.291 122.181 222.401 123.171 223.699C124.384 225.36 125.683 226.958 127.061 228.485C127.061 228.485 130.34 228.78 130.045 230.277C129.749 231.774 129.149 232.66 127.652 232.66C126.155 232.66 122.876 229.677 122.876 229.677L118.1 237.141C118.1 237.141 113.619 233.862 112.122 229.677L119.586 220.42Z" fill="white" stroke="#263238" stroke-width="1.01326" stroke-linecap="round" stroke-linejoin="round"/>
<path d="M145.575 167.548C169.331 167.548 188.589 148.289 188.589 124.533C188.589 100.777 169.331 81.5186 145.575 81.5186C121.818 81.5186 102.56 100.777 102.56 124.533C102.56 148.289 121.818 167.548 145.575 167.548Z" stroke="#263238" stroke-width="2.02651" stroke-linecap="round" stroke-linejoin="round"/>
<path d="M184.414 116.172C184.414 116.172 181.42 115.867 180.829 117.659C180.239 119.451 179.333 121.243 179.333 122.445C179.333 123.647 179.628 124.533 181.125 124.828C182.622 125.123 183.518 123.036 183.518 123.036L184.414 116.172Z" fill="white" stroke="#263238" stroke-width="1.01326" stroke-linecap="round" stroke-linejoin="round"/>
<path d="M185.004 114.074C185.004 114.074 183.518 122.14 183.518 124.533C183.583 126.373 184.208 128.149 185.31 129.624C185.855 130.242 186.589 130.661 187.397 130.816L188.894 129.024C188.894 129.024 187.102 131.417 189.485 134.4C191.868 137.384 193.67 137.089 195.758 136.193C197.846 135.296 198.446 134.105 197.55 130.816C196.654 127.527 196.063 122.15 195.463 118.871C194.862 115.592 192.774 114.39 191.583 114.39C190.391 114.39 187.122 113.178 185.004 114.074Z" fill="white" stroke="#263238" stroke-width="1.01326" stroke-linecap="round" stroke-linejoin="round"/>
<path d="M183.915 126.214C183.915 126.214 183.386 124.36 185.636 124.096C187.887 123.831 191.603 123.434 191.603 123.434" stroke="#263238" stroke-width="0.506629" stroke-linecap="round" stroke-linejoin="round"/>
<path d="M184.18 121.448C184.18 121.448 189.343 120.114 191.206 120.379" stroke="#263238" stroke-width="0.506629" stroke-linecap="round" stroke-linejoin="round"/>
<path d="M184.577 117.731C186.503 117.388 188.455 117.211 190.412 117.201" stroke="#263238" stroke-width="0.506629" stroke-linecap="round" stroke-linejoin="round"/>
<path d="M186.298 127.67C186.706 128.037 187.197 128.302 187.728 128.442C188.259 128.582 188.816 128.593 189.353 128.474" stroke="#263238" stroke-width="0.506629" stroke-linecap="round" stroke-linejoin="round"/>
</svg>
