<svg width="445" height="460" viewBox="0 0 445 460" fill="none" xmlns="http://www.w3.org/2000/svg">
<path d="M38.5314 293.804C39.0547 293.487 39.6504 293.311 40.2615 293.29C40.8726 293.27 41.4787 293.407 42.0218 293.688C42.5596 293.972 43.0763 294.31 43.6141 294.563C44.1793 294.799 44.7055 295.119 45.1748 295.512C45.6221 295.934 45.9527 296.464 46.1344 297.052C46.2762 297.645 46.34 298.255 46.3242 298.865L46.4402 302.514L61.3298 301.997L61.2349 302.092L61.0556 297.305C61.0743 296.462 61.3877 295.652 61.9414 295.016C63.188 293.975 64.5718 293.109 66.0539 292.443C66.8755 292.211 67.7524 292.275 68.532 292.623L72.75 294.848L72.4231 294.943L79.3723 281.761L79.5094 282.246L75.2914 279.99C74.5254 279.518 73.9475 278.795 73.6569 277.944C73.511 277.523 73.4327 277.082 73.4249 276.636V275.455V274.264C73.3931 273.817 73.4359 273.368 73.5515 272.935C73.7889 272.053 74.3257 271.282 75.0699 270.752L79.1403 268.2L78.9927 268.844L71.105 256.19L71.8115 256.348L67.7095 258.9C66.891 259.342 65.9419 259.481 65.0311 259.29C64.5816 259.201 64.1503 259.037 63.7551 258.805L62.7006 258.214L61.6461 257.687C61.0057 257.392 60.453 256.936 60.0425 256.363C59.6321 255.789 59.3779 255.119 59.3051 254.418L59.168 249.599L59.6637 250.063L44.7741 250.474L45.1853 250.031L45.2908 254.85C45.2528 255.744 44.9147 256.598 44.3312 257.276C44.0257 257.604 43.6697 257.882 43.2767 258.098L42.2222 258.71L41.1677 259.321C40.8045 259.568 40.4013 259.75 39.9761 259.859C39.1204 260.075 38.2168 259.993 37.4137 259.627L33.1957 257.318L33.5753 257.202L26.4363 270.288L26.3625 270.056L30.5805 272.366C31.2842 272.813 31.81 273.492 32.0673 274.285C32.2549 275.075 32.3295 275.888 32.2888 276.7C32.3674 277.502 32.3355 278.311 32.1939 279.104C31.9774 279.897 31.493 280.59 30.823 281.065L26.7421 283.586V283.512L34.556 296.166L38.5314 293.804ZM38.5314 293.804L34.6509 296.219L26.7526 283.564L30.8125 281.023C31.4479 280.561 31.9056 279.895 32.1095 279.136C32.2413 278.355 32.2626 277.56 32.1728 276.773C32.1999 275.986 32.1183 275.198 31.9302 274.432C31.7042 273.684 31.2276 273.036 30.5805 272.598L26.3625 270.362L26.2148 270.288L26.2887 270.141L33.2378 256.949L33.3644 256.696L33.6174 256.833L37.8355 259.047C38.4983 259.344 39.2429 259.403 39.9445 259.216C40.2913 259.121 40.6193 258.968 40.9146 258.763L41.9691 258.109L43.0236 257.466C43.3316 257.285 43.6092 257.058 43.8461 256.791C44.3117 256.241 44.5758 255.549 44.5948 254.829L44.289 250.063V249.641H44.7214L59.632 249.146H60.1066V249.631L60.2647 254.386C60.3331 255.076 60.6387 255.721 61.1294 256.211C61.375 256.449 61.656 256.648 61.9625 256.801L63.017 257.339L64.0715 257.94C64.3637 258.118 64.685 258.243 65.0205 258.309C65.6934 258.438 66.3903 258.33 66.9925 258.003L71.0628 255.515L71.4952 255.241L71.7588 255.673L79.5832 268.327L79.8257 268.728L79.425 268.97L75.3758 271.48C74.8004 271.879 74.3855 272.469 74.2053 273.146C74.1131 273.49 74.074 273.845 74.0893 274.2V275.413V276.615C74.0869 276.974 74.1439 277.33 74.258 277.67C74.4828 278.345 74.9286 278.924 75.5234 279.315L79.7414 281.603L80.0577 281.772L79.889 282.088L72.75 295.164L72.634 295.385L72.4231 295.269L68.2051 292.981C67.5105 292.666 66.7288 292.599 65.9907 292.791C65.2418 293.042 64.5318 293.397 63.8817 293.846C63.1889 294.206 62.5471 294.656 61.973 295.185C61.448 295.764 61.1486 296.513 61.1294 297.294L61.2349 302.082V302.176H61.14L46.398 302.556L46.2926 298.907C46.3212 298.301 46.2644 297.694 46.1238 297.104C45.9445 296.527 45.6216 296.004 45.1853 295.586C44.7251 295.191 44.2056 294.87 43.6458 294.637C43.0974 294.373 42.5913 294.036 42.0535 293.751C41.5131 293.451 40.9035 293.298 40.2854 293.307C39.6674 293.316 39.0626 293.488 38.5314 293.804Z" fill="#EBEBEB"/>
<path d="M41.6002 271.733C42.4698 269.444 43.9935 267.462 45.9815 266.034C47.9695 264.605 50.3339 263.793 52.7801 263.699C55.2264 263.604 57.6463 264.232 59.7385 265.503C61.8307 266.774 63.5027 268.632 64.5462 270.847C65.2554 272.357 65.6541 273.995 65.7188 275.662C65.7835 277.329 65.5128 278.992 64.9228 280.553C64.3327 282.114 63.4353 283.54 62.2838 284.747C61.1323 285.955 59.7501 286.919 58.2191 287.582C56.7048 288.234 55.0769 288.58 53.4285 288.602C51.7801 288.624 50.1436 288.32 48.6126 287.709C45.5668 286.488 43.1286 284.111 41.8322 281.097C40.5189 278.129 40.4355 274.762 41.6002 271.733ZM41.6002 271.733C41.0495 273.232 40.7995 274.825 40.8647 276.421C40.9298 278.017 41.3087 279.584 41.9798 281.034C42.9777 283.155 44.5782 284.936 46.5816 286.153C48.585 287.371 50.9027 287.972 53.2453 287.881C55.588 287.79 57.852 287.011 59.7548 285.641C61.6576 284.271 63.115 282.372 63.9451 280.179C65.0422 277.259 64.955 274.026 63.7021 271.17C62.4492 268.313 60.1297 266.06 57.2385 264.889C54.2754 263.708 50.965 263.75 48.0327 265.005C45.0924 266.322 42.7837 268.736 41.6002 271.733Z" fill="#EBEBEB"/>
<path d="M393.456 193.026L388.247 183.988L385.473 185.591C385.075 185.817 384.621 185.927 384.163 185.911C383.705 185.894 383.261 185.751 382.879 185.496C382.439 185.214 381.985 184.953 381.519 184.716C381.109 184.511 380.764 184.197 380.522 183.808C380.28 183.419 380.151 182.97 380.148 182.512V179.349H369.709V182.512C369.706 182.97 369.577 183.419 369.335 183.808C369.093 184.197 368.748 184.511 368.338 184.716C367.875 184.953 367.425 185.214 366.988 185.496C366.605 185.751 366.159 185.895 365.699 185.912C365.239 185.929 364.784 185.818 364.383 185.591L361.621 183.988L356.422 193.026L359.206 194.628C359.6 194.863 359.922 195.201 360.136 195.607C360.35 196.013 360.448 196.469 360.418 196.927C360.418 197.191 360.418 197.444 360.418 197.697C360.418 197.95 360.418 198.214 360.418 198.467C360.447 198.924 360.348 199.381 360.134 199.786C359.921 200.192 359.599 200.53 359.206 200.766L356.422 202.368L361.642 211.416L364.415 209.813C364.815 209.585 365.269 209.472 365.729 209.487C366.189 209.502 366.636 209.644 367.02 209.898C367.45 210.184 367.897 210.445 368.359 210.678C368.767 210.885 369.111 211.199 369.353 211.588C369.595 211.977 369.725 212.424 369.73 212.882V216.045H380.169V212.882C380.174 212.424 380.304 211.977 380.546 211.588C380.788 211.199 381.132 210.885 381.54 210.678C382.005 210.445 382.456 210.184 382.89 209.898C383.274 209.644 383.72 209.502 384.18 209.487C384.64 209.472 385.095 209.585 385.495 209.813L388.268 211.416L393.477 202.368L390.704 200.766C390.31 200.533 389.989 200.196 389.775 199.792C389.561 199.389 389.463 198.933 389.491 198.477C389.491 198.214 389.491 197.961 389.491 197.697C389.491 197.433 389.491 197.191 389.491 196.927C389.462 196.468 389.56 196.01 389.776 195.604C389.992 195.198 390.317 194.86 390.714 194.628L393.456 193.026ZM383.48 197.697C383.48 199.389 382.979 201.043 382.038 202.449C381.098 203.856 379.762 204.952 378.199 205.599C376.635 206.246 374.915 206.415 373.256 206.084C371.597 205.753 370.073 204.937 368.877 203.74C367.682 202.543 366.868 201.019 366.539 199.359C366.211 197.699 366.381 195.979 367.03 194.417C367.679 192.854 368.777 191.52 370.185 190.581C371.593 189.643 373.247 189.143 374.939 189.145C377.205 189.148 379.378 190.05 380.979 191.654C382.581 193.257 383.48 195.431 383.48 197.697Z" fill="#EBEBEB"/>
<path d="M37.2557 324.079L31.9832 315.031L29.2731 316.634C28.8726 316.861 28.4172 316.972 27.9574 316.955C27.4976 316.938 27.0514 316.794 26.6685 316.539C26.2361 316.265 25.7827 316.002 25.3187 315.759C24.9088 315.554 24.5637 315.24 24.3217 314.851C24.0797 314.462 23.9503 314.013 23.9479 313.555V310.392H13.4978V313.555C13.4953 314.013 13.3659 314.462 13.1239 314.851C12.8819 315.24 12.5368 315.554 12.1269 315.759C11.6629 316.002 11.2095 316.265 10.7771 316.539C10.3942 316.794 9.94804 316.938 9.48824 316.955C9.02844 316.972 8.573 316.861 8.17251 316.634L5.40972 315.031L0.137207 324.079L2.92109 325.671C3.33194 325.896 3.67138 326.232 3.9007 326.64C4.13003 327.048 4.24002 327.513 4.21813 327.981C4.21813 328.234 4.21813 328.487 4.21813 328.75C4.21813 329.014 4.21813 329.257 4.21813 329.51C4.24851 329.966 4.15238 330.423 3.94029 330.828C3.7282 331.234 3.40838 331.573 3.016 331.809L0.221565 333.422L5.49408 342.459L8.18306 340.888C8.58355 340.661 9.03899 340.55 9.49879 340.567C9.95859 340.584 10.4047 340.728 10.7877 340.983C11.22 341.267 11.6735 341.521 12.1269 341.763C12.5383 341.966 12.8848 342.28 13.1271 342.669C13.3694 343.059 13.4978 343.508 13.4978 343.967V347.13H23.9479V343.967C23.9409 343.504 24.065 343.049 24.3056 342.653C24.5463 342.258 24.8938 341.938 25.3082 341.731C25.7616 341.489 26.215 341.236 26.6474 340.951C27.0303 340.696 27.4765 340.552 27.9363 340.535C28.3961 340.519 28.8515 340.63 29.252 340.856L32.0254 342.459L37.2979 333.422L34.514 331.819C34.1199 331.585 33.7988 331.246 33.5864 330.84C33.3741 330.434 33.279 329.977 33.3119 329.52C33.3119 329.267 33.3119 329.004 33.3119 328.75C33.3119 328.497 33.3119 328.234 33.3119 327.981C33.2817 327.521 33.379 327.063 33.593 326.655C33.807 326.248 34.1293 325.907 34.5245 325.671L37.2557 324.079ZM27.2696 328.75C27.2675 330.442 26.7639 332.095 25.8224 333.5C24.881 334.905 23.544 336 21.9805 336.645C20.417 337.29 18.6973 337.458 17.0388 337.126C15.3803 336.794 13.8575 335.977 12.6629 334.78C11.4684 333.582 10.6557 332.057 10.3278 330.398C9.99987 328.739 10.1713 327.019 10.8206 325.457C11.4698 323.896 12.5675 322.561 13.9751 321.623C15.3826 320.685 17.0367 320.186 18.7281 320.188C19.8515 320.188 20.964 320.41 22.0016 320.84C23.0393 321.271 23.9819 321.902 24.7753 322.697C25.5687 323.493 26.1974 324.437 26.6254 325.475C27.0534 326.514 27.2723 327.627 27.2696 328.75Z" fill="#EBEBEB"/>
<path d="M96.8771 98.3515L4.49219 98.2144C4.49219 98.2144 9.08982 92.2354 14.162 91.4972C14.162 91.4972 24.0532 62.1926 40.5245 61.9712C55.8886 61.8657 61.9837 80.1086 61.9837 80.1086C61.9837 80.1086 69.1015 71.9468 75.882 75.6902C82.6624 79.4337 86.4692 90.1475 86.4692 90.1475C86.4692 90.1475 94.1143 94.2706 96.8771 98.3515Z" fill="#EBEBEB"/>
<path d="M323.732 63.922L440.561 64.1013C440.561 64.1013 440.561 56.6354 424.48 55.1591C424.48 55.1591 409.833 22.4695 387.393 26.8562C373.368 29.5663 366.197 48.7899 366.197 48.7899C366.197 48.7899 355.652 33.6789 347.216 36.5893C338.78 39.4997 333.729 55.5703 333.729 55.5703C333.729 55.5703 325.008 59.704 323.732 63.922Z" fill="#EBEBEB"/>
<path d="M125.359 29.3662L204.795 29.4927C204.795 29.4927 197.308 22.5014 193.976 22.5014C190.644 22.5014 180.963 -0.950766 168.531 0.0299211C156.098 1.01061 149.486 18.4415 149.486 18.4415C149.486 18.4415 134.386 13.6857 125.359 29.3662Z" fill="#EBEBEB"/>
<path d="M309.665 125.358L377.596 125.463C377.596 125.463 374.222 121.055 370.499 120.507C370.499 120.507 363.297 98.9318 351.17 98.7631C339.898 98.6049 335.353 111.997 335.353 111.997C335.353 111.997 330.143 105.976 325.145 108.718C320.147 111.459 317.321 119.326 317.321 119.326C317.321 119.326 311.7 122.342 309.665 125.358Z" fill="#EBEBEB"/>
<path d="M59.5268 312.173L82.5255 308.293L102.435 288.025L138.035 325.038L162.668 309.738L180.035 323.857L214.064 286.475L240.848 283.997L269.552 241.511L300.755 272.767L319.177 244.253L330.671 242.608L345.961 214.273L375.825 263.698L417.583 426.112H5.77881L59.5268 312.173Z" fill="#DBDBDB"/>
<path d="M63.6183 366.522L62.9751 365.689L97.6155 338.673L148.147 334.349L148.232 334.37L192.816 346.181L231.822 312.331L231.97 312.3L286.624 304.454L327.339 277.058L346.214 233.992L347.185 234.425L328.182 277.765L328.056 277.849L287.015 305.466L286.888 305.477L232.275 313.322L193.08 347.351L192.816 347.277L148.052 335.414L98.0162 339.706L63.6183 366.522Z" fill="white"/>
<path d="M65.1577 365.9C65.1577 366.843 64.8782 367.764 64.3544 368.548C63.8307 369.332 63.0863 369.943 62.2154 370.304C61.3444 370.664 60.3861 370.759 59.4615 370.575C58.5369 370.391 57.6876 369.937 57.021 369.27C56.3544 368.604 55.9005 367.755 55.7166 366.83C55.5327 365.905 55.6271 364.947 55.9878 364.076C56.3486 363.205 56.9595 362.461 57.7433 361.937C58.5271 361.413 59.4487 361.134 60.3913 361.134C61.6555 361.134 62.8678 361.636 63.7617 362.53C64.6555 363.424 65.1577 364.636 65.1577 365.9Z" fill="#DBDBDB"/>
<path d="M60.3912 371.193C59.3484 371.193 58.329 370.884 57.4619 370.305C56.5949 369.726 55.9191 368.902 55.52 367.939C55.1209 366.975 55.0165 365.915 55.22 364.892C55.4234 363.87 55.9256 362.93 56.6629 362.193C57.4003 361.455 58.3398 360.953 59.3625 360.75C60.3853 360.546 61.4454 360.651 62.4089 361.05C63.3723 361.449 64.1957 362.125 64.7751 362.992C65.3544 363.859 65.6637 364.878 65.6637 365.921C65.6637 367.319 65.1082 368.66 64.1194 369.649C63.1306 370.638 61.7895 371.193 60.3912 371.193ZM60.3912 361.703C59.5569 361.703 58.7414 361.95 58.0478 362.414C57.3541 362.877 56.8135 363.536 56.4942 364.307C56.175 365.078 56.0914 365.926 56.2542 366.744C56.417 367.562 56.8187 368.314 57.4086 368.904C57.9985 369.493 58.7501 369.895 59.5683 370.058C60.3865 370.221 61.2346 370.137 62.0053 369.818C62.7761 369.499 63.4348 368.958 63.8983 368.264C64.3618 367.571 64.6092 366.755 64.6092 365.921C64.6147 365.363 64.5098 364.81 64.3003 364.294C64.0908 363.777 63.781 363.307 63.3888 362.911C62.9965 362.515 62.5297 362.2 62.0151 361.986C61.5006 361.771 60.9486 361.661 60.3912 361.661V361.703Z" fill="white"/>
<path d="M102.36 339.189C102.36 340.132 102.081 341.053 101.557 341.837C101.033 342.621 100.289 343.232 99.418 343.593C98.5471 343.954 97.5887 344.048 96.6641 343.864C95.7395 343.68 94.8903 343.226 94.2237 342.56C93.5571 341.893 93.1031 341.044 92.9192 340.119C92.7353 339.195 92.8297 338.236 93.1905 337.365C93.5512 336.494 94.1621 335.75 94.9459 335.226C95.7298 334.702 96.6513 334.423 97.594 334.423C98.8573 334.426 100.068 334.929 100.961 335.822C101.854 336.715 102.358 337.926 102.36 339.189Z" fill="#DBDBDB"/>
<path d="M97.5943 344.483C96.5515 344.483 95.5321 344.173 94.665 343.594C93.798 343.015 93.1222 342.191 92.7231 341.228C92.3241 340.264 92.2196 339.204 92.4231 338.181C92.6265 337.159 93.1287 336.219 93.8661 335.482C94.6034 334.744 95.5429 334.242 96.5657 334.039C97.5884 333.835 98.6486 333.94 99.612 334.339C100.575 334.738 101.399 335.414 101.978 336.281C102.558 337.148 102.867 338.167 102.867 339.21C102.867 340.608 102.311 341.949 101.323 342.938C100.334 343.927 98.9927 344.483 97.5943 344.483ZM97.5943 334.992C96.7601 334.992 95.9445 335.239 95.2509 335.703C94.5572 336.166 94.0166 336.825 93.6974 337.596C93.3781 338.367 93.2946 339.215 93.4573 340.033C93.6201 340.851 94.0218 341.603 94.6117 342.193C95.2016 342.783 95.9532 343.184 96.7714 343.347C97.5896 343.51 98.4377 343.426 99.2085 343.107C99.9792 342.788 100.638 342.247 101.101 341.553C101.565 340.86 101.812 340.044 101.812 339.21C101.818 338.653 101.713 338.1 101.503 337.583C101.294 337.066 100.984 336.596 100.592 336.2C100.2 335.804 99.7328 335.489 99.2183 335.275C98.7037 335.06 98.1518 334.95 97.5943 334.95V334.992Z" fill="white"/>
<path d="M152.903 334.159C152.903 335.102 152.623 336.024 152.099 336.808C151.575 337.592 150.83 338.203 149.958 338.563C149.086 338.924 148.128 339.018 147.203 338.833C146.278 338.648 145.429 338.193 144.762 337.525C144.096 336.858 143.643 336.008 143.46 335.082C143.278 334.157 143.374 333.198 143.736 332.328C144.098 331.457 144.711 330.713 145.496 330.191C146.281 329.668 147.204 329.391 148.147 329.393C148.772 329.393 149.392 329.516 149.969 329.756C150.547 329.995 151.072 330.347 151.514 330.789C151.955 331.232 152.305 331.758 152.544 332.336C152.782 332.914 152.904 333.534 152.903 334.159Z" fill="#DBDBDB"/>
<path d="M148.105 339.453C147.062 339.453 146.043 339.144 145.176 338.565C144.309 337.985 143.633 337.162 143.234 336.198C142.835 335.235 142.73 334.175 142.934 333.152C143.137 332.129 143.639 331.19 144.377 330.452C145.114 329.715 146.054 329.213 147.076 329.01C148.099 328.806 149.159 328.91 150.123 329.31C151.086 329.709 151.91 330.384 152.489 331.251C153.068 332.119 153.378 333.138 153.378 334.181C153.378 335.579 152.822 336.92 151.833 337.909C150.844 338.898 149.503 339.453 148.105 339.453ZM148.105 329.963C147.271 329.963 146.455 330.21 145.762 330.674C145.068 331.137 144.527 331.796 144.208 332.567C143.889 333.337 143.805 334.185 143.968 335.004C144.131 335.822 144.533 336.573 145.122 337.163C145.712 337.753 146.464 338.155 147.282 338.318C148.1 338.48 148.948 338.397 149.719 338.078C150.49 337.758 151.149 337.218 151.612 336.524C152.076 335.83 152.323 335.015 152.323 334.181C152.329 333.623 152.224 333.07 152.014 332.554C151.805 332.037 151.495 331.567 151.103 331.171C150.71 330.775 150.244 330.46 149.729 330.246C149.214 330.031 148.663 329.92 148.105 329.921V329.963Z" fill="white"/>
<path d="M192.731 351.643C195.364 351.643 197.498 349.509 197.498 346.877C197.498 344.244 195.364 342.11 192.731 342.11C190.099 342.11 187.965 344.244 187.965 346.877C187.965 349.509 190.099 351.643 192.731 351.643Z" fill="#DBDBDB"/>
<path d="M192.732 352.17C191.689 352.17 190.669 351.861 189.802 351.281C188.935 350.702 188.259 349.879 187.86 348.915C187.461 347.952 187.357 346.892 187.56 345.869C187.764 344.846 188.266 343.907 189.003 343.169C189.741 342.432 190.68 341.93 191.703 341.726C192.726 341.523 193.786 341.627 194.749 342.026C195.713 342.425 196.536 343.101 197.115 343.968C197.695 344.835 198.004 345.855 198.004 346.898C198.004 348.296 197.449 349.637 196.46 350.626C195.471 351.615 194.13 352.17 192.732 352.17ZM192.732 342.68C191.897 342.68 191.082 342.927 190.388 343.39C189.694 343.854 189.154 344.513 188.835 345.283C188.515 346.054 188.432 346.902 188.595 347.72C188.757 348.539 189.159 349.29 189.749 349.88C190.339 350.47 191.09 350.872 191.909 351.034C192.727 351.197 193.575 351.114 194.346 350.794C195.116 350.475 195.775 349.935 196.239 349.241C196.702 348.547 196.95 347.732 196.95 346.898C196.955 346.34 196.85 345.787 196.641 345.27C196.431 344.754 196.121 344.284 195.729 343.888C195.337 343.491 194.87 343.177 194.355 342.962C193.841 342.748 193.289 342.637 192.732 342.637V342.68Z" fill="white"/>
<path d="M236.81 313.365C236.81 314.308 236.53 315.229 236.006 316.013C235.483 316.797 234.738 317.408 233.867 317.769C232.996 318.129 232.038 318.224 231.113 318.04C230.189 317.856 229.339 317.402 228.673 316.735C228.006 316.069 227.552 315.219 227.368 314.295C227.185 313.37 227.279 312.412 227.64 311.541C228 310.67 228.611 309.926 229.395 309.402C230.179 308.878 231.1 308.599 232.043 308.599C233.307 308.599 234.52 309.101 235.414 309.995C236.307 310.889 236.81 312.101 236.81 313.365Z" fill="#DBDBDB"/>
<path d="M232.043 318.658C231.001 318.658 229.981 318.349 229.114 317.77C228.247 317.19 227.571 316.367 227.172 315.403C226.773 314.44 226.669 313.38 226.872 312.357C227.076 311.334 227.578 310.395 228.315 309.658C229.053 308.92 229.992 308.418 231.015 308.215C232.038 308.011 233.098 308.116 234.061 308.515C235.025 308.914 235.848 309.589 236.427 310.457C237.007 311.324 237.316 312.343 237.316 313.386C237.316 314.784 236.761 316.125 235.772 317.114C234.783 318.103 233.442 318.658 232.043 318.658ZM232.043 309.168C231.209 309.168 230.394 309.415 229.7 309.879C229.006 310.342 228.466 311.001 228.147 311.772C227.827 312.542 227.744 313.39 227.907 314.209C228.069 315.027 228.471 315.778 229.061 316.368C229.651 316.958 230.402 317.36 231.221 317.523C232.039 317.686 232.887 317.602 233.658 317.283C234.428 316.963 235.087 316.423 235.551 315.729C236.014 315.036 236.262 314.22 236.262 313.386C236.267 312.828 236.162 312.275 235.953 311.759C235.743 311.242 235.433 310.772 235.041 310.376C234.649 309.98 234.182 309.665 233.667 309.451C233.153 309.236 232.601 309.126 232.043 309.126V309.168Z" fill="white"/>
<path d="M291.581 304.549C291.576 305.491 291.293 306.411 290.766 307.193C290.24 307.974 289.493 308.581 288.621 308.939C287.749 309.296 286.791 309.387 285.868 309.199C284.944 309.012 284.097 308.556 283.433 307.887C282.769 307.219 282.318 306.368 282.137 305.444C281.956 304.519 282.053 303.561 282.416 302.692C282.779 301.822 283.391 301.08 284.176 300.558C284.961 300.037 285.882 299.76 286.825 299.762C287.452 299.763 288.072 299.888 288.65 300.13C289.229 300.371 289.754 300.724 290.196 301.169C290.637 301.614 290.987 302.141 291.225 302.721C291.462 303.301 291.583 303.922 291.581 304.549Z" fill="#DBDBDB"/>
<path d="M286.825 309.843C285.782 309.843 284.763 309.534 283.895 308.954C283.028 308.375 282.353 307.551 281.954 306.588C281.555 305.625 281.45 304.565 281.654 303.542C281.857 302.519 282.359 301.58 283.097 300.842C283.834 300.105 284.773 299.603 285.796 299.399C286.819 299.196 287.879 299.3 288.842 299.699C289.806 300.098 290.629 300.774 291.209 301.641C291.788 302.508 292.097 303.528 292.097 304.57C292.097 305.969 291.542 307.31 290.553 308.299C289.564 309.287 288.223 309.843 286.825 309.843ZM286.825 300.352C285.991 300.352 285.175 300.6 284.481 301.063C283.788 301.527 283.247 302.185 282.928 302.956C282.609 303.727 282.525 304.575 282.688 305.393C282.851 306.211 283.252 306.963 283.842 307.553C284.432 308.143 285.184 308.545 286.002 308.707C286.82 308.87 287.668 308.787 288.439 308.467C289.21 308.148 289.868 307.607 290.332 306.914C290.795 306.22 291.043 305.405 291.043 304.57C291.047 304.014 290.941 303.462 290.731 302.946C290.521 302.431 290.211 301.962 289.819 301.567C289.426 301.172 288.96 300.859 288.446 300.645C287.932 300.431 287.381 300.321 286.825 300.321V300.352Z" fill="white"/>
<path d="M332.559 277.533C332.559 278.476 332.279 279.398 331.755 280.182C331.23 280.966 330.485 281.577 329.614 281.938C328.742 282.298 327.783 282.392 326.858 282.207C325.934 282.022 325.084 281.567 324.418 280.9C323.752 280.232 323.299 279.382 323.116 278.456C322.933 277.531 323.029 276.572 323.392 275.702C323.754 274.831 324.367 274.087 325.152 273.565C325.937 273.042 326.86 272.765 327.803 272.767C328.428 272.767 329.047 272.89 329.625 273.13C330.203 273.369 330.728 273.721 331.169 274.163C331.611 274.606 331.961 275.132 332.2 275.71C332.438 276.288 332.56 276.908 332.559 277.533Z" fill="#DBDBDB"/>
<path d="M327.803 282.826C326.76 282.826 325.741 282.517 324.874 281.938C324.006 281.358 323.331 280.535 322.932 279.571C322.533 278.608 322.428 277.548 322.632 276.525C322.835 275.502 323.337 274.563 324.075 273.826C324.812 273.088 325.751 272.586 326.774 272.383C327.797 272.179 328.857 272.284 329.82 272.683C330.784 273.082 331.607 273.757 332.187 274.625C332.766 275.492 333.075 276.511 333.075 277.554C333.075 278.952 332.52 280.293 331.531 281.282C330.542 282.271 329.201 282.826 327.803 282.826ZM327.803 273.336C326.969 273.336 326.153 273.583 325.459 274.047C324.766 274.51 324.225 275.169 323.906 275.94C323.587 276.71 323.503 277.558 323.666 278.377C323.829 279.195 324.23 279.946 324.82 280.536C325.41 281.126 326.162 281.528 326.98 281.691C327.798 281.853 328.646 281.77 329.417 281.451C330.188 281.131 330.846 280.591 331.31 279.897C331.773 279.204 332.021 278.388 332.021 277.554C332.026 276.996 331.921 276.443 331.712 275.927C331.502 275.41 331.193 274.94 330.8 274.544C330.408 274.148 329.941 273.833 329.427 273.619C328.912 273.404 328.36 273.294 327.803 273.294V273.336Z" fill="white"/>
<path d="M351.687 234.224C351.687 235.167 351.407 236.089 350.884 236.872C350.36 237.656 349.616 238.267 348.745 238.628C347.874 238.989 346.915 239.083 345.991 238.899C345.066 238.715 344.217 238.261 343.55 237.595C342.884 236.928 342.43 236.079 342.246 235.154C342.062 234.23 342.156 233.271 342.517 232.4C342.878 231.529 343.489 230.785 344.273 230.261C345.056 229.738 345.978 229.458 346.921 229.458C347.547 229.457 348.167 229.579 348.746 229.818C349.325 230.057 349.851 230.408 350.294 230.851C350.737 231.294 351.088 231.82 351.327 232.399C351.566 232.978 351.688 233.598 351.687 234.224Z" fill="#DBDBDB"/>
<path d="M346.931 239.508C345.888 239.508 344.869 239.199 344.002 238.619C343.135 238.04 342.459 237.217 342.06 236.253C341.661 235.29 341.557 234.23 341.76 233.207C341.963 232.184 342.466 231.245 343.203 230.507C343.94 229.77 344.88 229.268 345.903 229.064C346.925 228.861 347.985 228.965 348.949 229.364C349.912 229.763 350.736 230.439 351.315 231.306C351.894 232.173 352.204 233.193 352.204 234.235C352.204 235.634 351.648 236.975 350.659 237.964C349.671 238.952 348.33 239.508 346.931 239.508ZM346.931 230.017C346.097 230.017 345.281 230.265 344.588 230.728C343.894 231.192 343.354 231.851 343.034 232.621C342.715 233.392 342.632 234.24 342.794 235.058C342.957 235.877 343.359 236.628 343.949 237.218C344.539 237.808 345.29 238.21 346.108 238.372C346.927 238.535 347.775 238.452 348.545 238.132C349.316 237.813 349.975 237.272 350.438 236.579C350.902 235.885 351.149 235.07 351.149 234.235C351.153 233.679 351.047 233.127 350.837 232.612C350.627 232.096 350.317 231.627 349.925 231.232C349.533 230.837 349.067 230.524 348.553 230.31C348.039 230.096 347.488 229.986 346.931 229.986V230.017Z" fill="white"/>
<path d="M151.658 459.92C233.385 459.92 299.637 453.966 299.637 446.622C299.637 439.279 233.385 433.325 151.658 433.325C69.9323 433.325 3.68018 439.279 3.68018 446.622C3.68018 453.966 69.9323 459.92 151.658 459.92Z" fill="#EBEBEB"/>
<path d="M296.125 290.514H247.776V426.144H296.125V290.514Z" fill="#FFC727"/>
<g opacity="0.1">
<path d="M296.125 290.514H285.053V426.144H296.125V290.514Z" fill="black"/>
</g>
<path d="M359.828 239.255H311.479V426.144H359.828V239.255Z" fill="#FFC727"/>
<g opacity="0.1">
<path d="M359.817 239.255H348.745V426.144H359.817V239.255Z" fill="black"/>
</g>
<path d="M232.571 321.053H184.222V426.134H232.571V321.053Z" fill="#FFC727"/>
<g opacity="0.1">
<path d="M232.57 321.053H221.498V426.134H232.57V321.053Z" fill="black"/>
</g>
<path d="M423.52 170.986H375.171V426.134H423.52V170.986Z" fill="#FFC727"/>
<g opacity="0.1">
<path d="M423.52 170.986H412.447V426.134H423.52V170.986Z" fill="black"/>
</g>
<path d="M167.097 385.397V359.245C167.097 359.245 343.199 344.261 414.335 149.178L421.411 151.002C421.411 151.002 374.159 350.957 167.097 385.397Z" fill="#37474F"/>
<path d="M428.012 157.562L405.762 150.201L424.195 131.821L428.012 157.562Z" fill="#37474F"/>
<path d="M0 426.143L55.625 425.88L111.25 425.795L222.5 425.616L333.75 425.785L389.375 425.88L445 426.143L389.375 426.397L333.75 426.491L222.5 426.671L111.25 426.491L55.625 426.397L0 426.143Z" fill="#263238"/>
<path d="M271.44 65.6625C274.603 83.5891 264.058 103.076 241.028 110.3C220.096 116.869 196.412 105.976 191.203 92.1833C185.688 77.5679 195.083 63.5535 206.862 62.3408C218.208 61.1282 227.235 67.3814 235.629 63.9859C239.646 62.3514 244.149 56.6044 249.981 53.9048C256.487 50.8995 269.426 54.1685 271.44 65.6625Z" fill="#263238"/>
<path d="M199.776 104.457C205.686 109.075 212.676 112.109 220.086 113.273C227.499 114.412 235.075 113.835 242.23 111.585C249.459 109.453 255.981 105.418 261.116 99.9016C266.142 94.3235 269.56 87.4866 271.008 80.1191C269.259 87.3224 265.703 93.9607 260.673 99.406C258.135 102.074 255.247 104.386 252.09 106.281C248.926 108.158 245.544 109.638 242.019 110.689C238.495 111.763 234.87 112.47 231.2 112.798C223.825 113.449 216.401 112.366 209.519 109.635C206.059 108.342 202.784 106.601 199.776 104.457Z" fill="#263238"/>
<path d="M203.709 62.0241C205.903 61.3379 208.191 61.0033 210.489 61.0328C212.77 61.039 215.042 61.3115 217.259 61.8448C219.495 62.3932 221.752 62.8993 224.029 63.3C226.325 63.7375 228.664 63.9074 231 63.8062C232.179 63.7445 233.35 63.5786 234.5 63.3106C235.646 62.9857 236.745 62.5143 237.769 61.9081C239.731 60.6757 241.616 59.3233 243.411 57.8588C245.202 56.4465 247.165 55.2667 249.253 54.3473C251.371 53.4589 253.633 52.9623 255.928 52.8815C253.604 52.7887 251.283 53.1468 249.095 53.936C246.932 54.7946 244.888 55.925 243.01 57.2999C241.112 58.618 239.32 60.0733 237.358 61.191C236.395 61.7637 235.36 62.2036 234.279 62.4986C233.184 62.7456 232.069 62.8904 230.947 62.931C226.423 63.2157 221.91 62.0663 217.407 61.191C215.129 60.7244 212.803 60.5297 210.479 60.611C208.159 60.6975 205.87 61.1752 203.709 62.0241Z" fill="#263238"/>
<path d="M40.8094 98.9319C43.0344 93.7754 112.052 91.2446 170.724 90.4959H170.83C197.308 90.169 222.743 87.7331 238.771 88.5661C248.958 89.1039 254.409 92.7841 255.643 94.2394C259.576 98.9635 266.779 114.117 239.657 133.256C219.136 147.734 195.589 160.673 178.095 182.818C160.601 204.962 150.783 232.875 152.028 251.898C153.272 270.921 167.086 289.08 165.736 287.108C165.315 286.496 160.179 286.802 153.008 282.647C144.203 277.544 133.975 266.745 127.057 263.571C112.916 257.097 93.7982 258.193 78.8664 243.051C63.0383 227.149 59.1894 199.046 51.6708 176.796C42.5599 149.769 21.5648 143.464 40.8094 98.9319Z" fill="#FFC727"/>
<g opacity="0.2">
<path d="M40.8094 98.9319C43.0344 93.7754 112.052 91.2446 170.724 90.4959H170.83C197.308 90.169 222.743 87.7331 238.771 88.5661C248.958 89.1039 254.409 92.7841 255.643 94.2394C259.576 98.9635 266.779 114.117 239.657 133.256C219.136 147.734 195.589 160.673 178.095 182.818C160.601 204.962 150.783 232.875 152.028 251.898C153.272 270.921 167.086 289.08 165.736 287.108C165.315 286.496 160.179 286.802 153.008 282.647C144.203 277.544 133.975 266.745 127.057 263.571C112.916 257.097 93.7982 258.193 78.8664 243.051C63.0383 227.149 59.1894 199.046 51.6708 176.796C42.5599 149.769 21.5648 143.464 40.8094 98.9319Z" fill="black"/>
</g>
<path opacity="0.1" d="M54.8345 186.867C53.8327 183.429 52.8204 180.044 51.6709 176.796C49.4385 170.534 46.5507 164.525 43.0557 158.87C43.0557 158.87 104.923 143.474 122.966 150.972C132.868 155.063 103.879 157.647 54.8345 186.867Z" fill="black"/>
<path opacity="0.1" d="M137.918 271.353C133.88 268.031 130.073 265.026 126.962 263.624C123.329 262.048 119.569 260.785 115.721 259.848C119.697 234.15 124.157 216.403 135.282 204.635C142.358 197.084 124.495 240.414 137.918 271.353Z" fill="black"/>
<path opacity="0.1" d="M60.1913 206.058C59.2739 202.958 58.3987 199.826 57.5234 196.694C77.4852 188.638 94.431 176.996 94.5681 179.717C94.779 182.712 73.2777 197.475 60.1913 206.058Z" fill="black"/>
<path d="M22.4507 155.296C22.4507 155.296 16.7458 129.987 34.1345 99.4069C35.8217 96.4332 65.2635 83.8636 84.9405 82.208C104.617 80.5524 119.581 86.426 142.938 89.8109C166.295 93.1959 228.469 85.6773 243.506 88.883C253.84 91.0869 255.506 94.2926 255.506 94.2926C255.506 94.2926 243.432 90.4753 236.177 90.5913C207.463 91.0553 156.488 106.272 143.117 106.071C126.794 105.829 108.614 104.353 95.3695 107.537C80.5643 111.006 31.1187 145.963 22.4507 155.296Z" fill="#FFC727"/>
<path d="M184.032 345.801C182.461 344.061 157.047 285.695 157.501 282.837C157.648 281.782 212.113 265.026 212.113 265.026L227.045 302.925L192.594 310.37C192.594 310.37 192.32 337.07 191.54 340.139C190.76 343.207 185.593 347.541 184.032 345.801Z" fill="#EB9481"/>
<path d="M184.032 345.801C183.346 345.032 178.053 333.337 172.369 320.219C172 319.354 171.62 318.479 171.251 317.604C170.271 315.368 169.311 313.101 168.351 310.855C167.982 309.98 167.624 309.105 167.297 308.24C166.938 307.375 166.569 306.5 166.242 305.656C165.684 304.349 165.188 303.062 164.64 301.808C164.302 300.985 163.975 300.173 163.648 299.393L162.71 297.073C162.246 295.934 161.814 294.848 161.402 293.804C161.118 293.108 160.843 292.412 160.59 291.748C160.084 290.461 159.631 289.28 159.251 288.226C159.04 287.698 158.861 287.171 158.703 286.739C158.291 285.579 157.986 284.63 157.817 283.997C157.698 283.658 157.637 283.302 157.638 282.942C157.638 282.563 164.06 279.958 172.401 276.679C173.582 282.879 176.081 294.067 180.837 310.792C188.598 338.283 192.13 327.495 192.531 322.054C192.531 322.001 192.531 321.949 192.531 321.896C192.531 322.223 192.531 322.56 192.531 322.887V322.961C192.531 323.562 192.531 324.174 192.478 324.775C192.426 325.376 192.478 326.103 192.478 326.768C192.478 327.822 192.426 328.961 192.373 330.026C192.32 331.091 192.31 332.135 192.257 333.074C192.257 333.653 192.257 334.212 192.183 334.74C192.183 335.014 192.183 335.267 192.183 335.531C192.183 335.794 192.183 336.216 192.12 336.585C192.12 337.302 192.036 337.945 191.972 338.494C191.983 338.62 191.983 338.747 191.972 338.873C191.93 339.316 191.863 339.756 191.772 340.191C190.686 343.186 185.593 347.531 184.032 345.801Z" fill="#263238"/>
<path d="M204.426 313.618L189.589 269.635C189.589 269.635 245.858 247.838 246.817 244.137C247.197 242.692 210.342 188.775 203.488 167.96C198.932 154.103 210.194 138.792 210.194 138.792L250.761 149.674C250.761 149.674 248.652 161.274 250.012 163.583C262.846 184.874 298.794 243.652 295.419 264.077C292.192 283.628 204.426 313.618 204.426 313.618Z" fill="#263238"/>
<path d="M213.21 307.935C211.607 302.831 204.774 282.194 202.844 277.09C202.296 275.614 201.79 274.138 201.178 272.683C200.662 271.206 200.063 269.759 199.385 268.348C199.376 268.331 199.361 268.317 199.342 268.309C199.324 268.301 199.303 268.301 199.284 268.307C199.265 268.313 199.248 268.326 199.238 268.344C199.228 268.361 199.224 268.381 199.227 268.401C199.531 269.76 199.907 271.101 200.356 272.419C200.746 273.758 201.168 275.087 201.589 276.415C202.412 279.041 203.266 281.688 204.12 284.271C205.807 289.375 211.375 305.362 212.778 308.093C212.894 308.314 213.294 308.198 213.21 307.935Z" fill="#37474F"/>
<path d="M253.081 245.265C248.23 239.413 213.716 178.831 211.955 175.288C210.131 172.062 208.741 168.608 207.822 165.017C206.156 157.119 208.644 148.894 212.04 141.818C212.053 141.776 212.052 141.731 212.035 141.69C212.019 141.649 211.989 141.615 211.95 141.594C211.912 141.572 211.867 141.565 211.823 141.574C211.78 141.582 211.741 141.605 211.713 141.639C208.317 147.797 205.945 154.799 206.44 161.907C206.742 165.527 207.733 169.056 209.361 172.304C211.027 175.858 212.873 179.338 214.634 182.849C218.282 190.083 249.601 242.165 252.185 245.465C246.142 248.713 240.089 251.951 233.942 254.956C227.615 258.119 221.161 261.062 214.697 263.961C211.048 265.592 207.379 267.188 203.688 268.749C203.53 268.812 203.604 269.065 203.762 269.002C217.017 264.031 229.95 258.238 242.483 251.655C246.026 249.799 249.569 247.912 253.028 245.908C253.077 245.872 253.117 245.825 253.147 245.772C253.176 245.718 253.194 245.659 253.199 245.599C253.204 245.538 253.196 245.477 253.176 245.419C253.155 245.362 253.123 245.309 253.081 245.265Z" fill="#37474F"/>
<path d="M241.366 234.868C230.926 218.238 208.676 183.672 203.488 167.96C198.932 154.103 210.195 138.792 210.195 138.792L225.812 143.01L241.366 234.868Z" fill="#37474F"/>
<path d="M141.304 384.955C139.1 384.132 89.633 344.019 88.7473 341.288C88.3782 340.233 93.8089 332.715 100.621 323.783L100.842 323.509C102.245 321.663 129.314 292.696 129.314 292.696L161.139 319.649L133.026 349.038L132.572 349.566C132.572 349.566 144.625 373.387 145.311 376.487C145.996 379.587 143.413 385.777 141.304 384.955Z" fill="#EB9481"/>
<path d="M97.2044 328.233C92.0584 335.119 88.3887 340.434 88.6945 341.299C89.6331 344.051 139.047 384.122 141.304 384.955C143.56 385.788 146.007 379.577 145.321 376.519C144.91 374.632 140.27 365.046 136.706 357.844C138.963 362.916 140.703 373.197 120.889 353.457C108.54 341.246 101.233 333.01 97.2044 328.233Z" fill="#263238"/>
<path d="M250.761 149.675C250.761 149.675 241.333 171.566 233.646 176.522C233.646 176.522 205.681 245.265 196.802 263.329C185.086 287.182 144.467 342.09 144.467 342.09L105.767 312.68C105.767 312.68 156.689 249.62 157.342 248.039C161.044 239.044 190.327 172.81 190.222 171.06C189.167 153.133 201.821 136.557 201.821 136.557L250.761 149.675Z" fill="#263238"/>
<path d="M233.436 176.564C233.045 177.053 232.752 177.611 232.571 178.209C232.328 178.758 232.096 179.264 231.864 179.865C231.4 180.92 230.926 182.08 230.472 183.197C229.534 185.507 228.574 187.805 227.615 190.115C226.655 192.424 225.696 194.734 224.778 197.053C223.861 199.373 222.954 201.577 222.237 203.897C222.237 203.982 222.342 204.034 222.384 203.897C223.629 201.788 224.683 199.479 225.717 197.222C226.75 194.966 227.752 192.667 228.701 190.368C229.65 188.069 230.588 185.739 231.506 183.419C231.938 182.364 232.339 181.246 232.75 180.16C232.961 179.601 233.161 179.032 233.362 178.463C233.64 177.903 233.805 177.294 233.847 176.67C233.836 176.628 233.814 176.59 233.783 176.559C233.753 176.528 233.714 176.507 233.672 176.496C233.63 176.485 233.586 176.486 233.545 176.498C233.503 176.51 233.465 176.533 233.436 176.564Z" fill="#37474F"/>
<path d="M250.36 152.943C247.249 158.047 244.276 163.225 240.87 168.149C240.153 169.204 239.404 170.68 238.254 171.313C238.021 171.45 237.755 171.522 237.485 171.522C237.214 171.522 236.948 171.45 236.715 171.313C236.061 170.859 236.388 169.952 236.662 169.383C237.316 168.023 238.138 166.726 238.866 165.397C239.594 164.068 240.395 162.581 241.165 161.179C242.873 158.015 244.392 154.852 246.11 151.688C246.163 151.594 246.026 151.509 245.973 151.604C244.191 154.683 242.23 157.657 240.437 160.736L237.674 165.45L236.388 167.706C235.97 168.342 235.637 169.03 235.397 169.752C235.297 170.018 235.255 170.302 235.272 170.585C235.288 170.868 235.364 171.145 235.494 171.397C235.625 171.649 235.806 171.872 236.027 172.05C236.248 172.228 236.504 172.357 236.778 172.431C237.359 172.53 237.956 172.465 238.502 172.243C239.048 172.022 239.521 171.652 239.868 171.176C240.837 169.953 241.728 168.671 242.536 167.337C243.453 165.935 244.36 164.522 245.214 163.119C247.19 159.862 248.931 156.469 250.423 152.964C250.455 152.933 250.392 152.891 250.36 152.943Z" fill="#37474F"/>
<path d="M236.546 171.787C235.776 172.43 232.845 176.279 232.666 176.49C232.486 176.701 233.087 176.965 233.172 176.88C234.53 175.304 235.781 173.637 236.915 171.893C236.936 171.829 236.609 171.724 236.546 171.787Z" fill="#37474F"/>
<path d="M239.71 175.172C237.077 175.364 234.466 175.784 231.906 176.427C230.63 176.701 229.365 176.986 228.099 177.313C226.742 177.59 225.407 177.964 224.103 178.431C224.087 178.437 224.073 178.447 224.063 178.462C224.053 178.476 224.048 178.492 224.048 178.51C224.048 178.527 224.053 178.544 224.063 178.558C224.073 178.572 224.087 178.583 224.103 178.589C225.477 178.511 226.844 178.338 228.194 178.072C229.439 177.893 230.672 177.682 231.906 177.439C234.564 177.04 237.183 176.408 239.731 175.552C239.781 175.549 239.828 175.526 239.862 175.489C239.895 175.451 239.913 175.402 239.91 175.351C239.907 175.301 239.884 175.254 239.847 175.22C239.809 175.187 239.76 175.169 239.71 175.172Z" fill="#37474F"/>
<path d="M147.631 332.367C143.413 329.066 126.087 315.948 121.595 312.837C120.308 311.941 119.022 311.023 117.725 310.148C116.461 309.227 115.148 308.375 113.792 307.596C113.774 307.588 113.753 307.586 113.733 307.591C113.714 307.596 113.697 307.608 113.685 307.624C113.674 307.641 113.669 307.661 113.671 307.681C113.673 307.701 113.682 307.72 113.697 307.733C114.7 308.681 115.757 309.572 116.86 310.401C117.915 311.277 119.054 312.131 120.15 312.995C122.259 314.693 124.505 316.359 126.688 318.025C130.98 321.273 144.615 331.323 147.325 332.736C147.631 332.852 147.873 332.535 147.631 332.367Z" fill="#37474F"/>
<path d="M206.82 140.258C203.556 144.599 201.109 149.498 199.596 154.715C198.864 157.285 198.356 159.913 198.078 162.571C197.762 165.555 197.962 168.624 197.024 171.513C195.951 174.466 194.729 177.362 193.364 180.192L189.494 189.049L181.87 206.638L166.517 241.954C165.294 244.79 164.091 247.638 162.668 250.39C161.274 253.05 159.666 255.593 157.859 257.993C154.095 263.086 150.067 267.989 146.186 272.988C138.351 283.037 130.474 293.023 122.818 303.231L119.929 307.09C119.866 307.175 119.929 307.291 120.045 307.206C128.133 297.315 136.031 287.276 143.94 277.227C147.898 272.207 151.838 267.174 155.761 262.126C157.532 259.849 159.293 257.55 160.865 255.125C162.504 252.556 163.946 249.866 165.178 247.079C170.45 235.479 175.385 223.658 180.478 211.953C185.572 200.248 190.718 188.406 195.8 176.617C197.104 174.042 198.004 171.282 198.468 168.434C198.774 165.513 198.785 162.592 199.291 159.681C200.266 154.178 202.159 148.878 204.89 144.001C205.565 142.788 206.303 141.607 207.073 140.458C207.199 140.289 206.936 140.099 206.82 140.258Z" fill="#37474F"/>
<path d="M118.197 176.535L101.497 223.332L178.744 250.899L195.445 204.102L118.197 176.535Z" fill="#455A64"/>
<path d="M118.201 176.527L110.336 198.565L187.584 226.133L195.448 204.095L118.201 176.527Z" fill="#37474F"/>
<path d="M111.038 190.823L191.94 219.694L199.734 197.855L118.832 168.983L111.038 190.823Z" fill="#455A64"/>
<path d="M146.692 164.891L142.242 177.344L148.105 179.432L150.636 172.346L172.981 180.329L170.45 187.415L176.313 189.503L180.753 177.038L146.692 164.891Z" fill="#263238"/>
<path d="M173.711 219.06L178.984 220.942L182.706 210.514L177.432 208.632L173.711 219.06Z" fill="#263238"/>
<path d="M120.275 200.012L125.548 201.894L129.27 191.465L123.996 189.583L120.275 200.012Z" fill="#263238"/>
<path d="M248.947 106.049C262.266 127.698 279.138 147.534 286.909 147.681C297.37 147.882 319.599 137.136 330.65 130.43C333.887 128.479 318.144 103.561 314.674 105.649C310.456 108.169 289.018 121.582 288.533 121.698C287.479 121.951 263.352 105.48 257.679 101.399C248.199 94.5976 243.042 96.443 248.947 106.049Z" fill="#EB9481"/>
<path d="M346.689 119.589C342.692 124.451 330.608 131.189 327.075 131.695C323.543 132.201 311.395 112.06 312.713 108.633C314.031 105.206 328.783 89.8946 335.068 88.5975C341.353 87.3005 350.833 114.549 346.689 119.589Z" fill="#EB9481"/>
<path d="M325.841 92.541C325.356 95.8415 329.522 94.5234 329.522 94.5234C329.522 94.5234 323.985 97.8767 324.808 101.473C325.63 105.068 330.587 103.16 330.945 103.033C330.65 103.213 325.673 106.429 326.833 109.951C327.993 113.473 332.769 111.005 333.075 110.805C332.854 111.058 329.975 114.496 331.493 116.974C334.109 121.192 341.701 112.64 345.74 112.566C345.74 112.566 346.657 119.389 346.721 119.589C346.721 119.589 354.102 111.564 353.712 106.123C353.666 105.331 353.35 104.579 352.816 103.992C352.283 103.404 351.564 103.018 350.78 102.896C350.78 102.896 353.448 100.566 352.594 97.7607C352.151 96.3266 349.431 95.7466 349.431 95.7466C350.006 95.1888 350.416 94.4834 350.617 93.7078C350.818 92.9322 350.801 92.1163 350.569 91.3494C349.842 89.388 347.258 89.1244 347.258 89.1244C347.258 89.1244 348.366 86.3299 346.974 84.5689C344.179 81.0152 326.896 85.4758 325.841 92.541Z" fill="#EB9481"/>
<path d="M346.847 89.0197C346.911 89.0197 346.911 88.9248 346.847 88.9248C340.548 88.9804 334.414 90.9478 329.258 94.5664C329.1 94.6929 329.258 94.9987 329.427 94.9038C334.916 92.1047 340.785 90.1224 346.847 89.0197Z" fill="#263238"/>
<path d="M349.505 95.6939C349.568 95.6939 349.557 95.5674 349.505 95.5674C342.557 95.7017 335.886 98.3203 330.703 102.949C330.524 103.118 330.534 103.445 330.703 103.265C334.394 100.27 343.768 96.643 349.505 95.6939Z" fill="#263238"/>
<path d="M332.801 111.269C337.916 106.809 343.947 104.425 350.496 102.833C350.58 102.833 350.496 102.696 350.496 102.696C347.09 102.58 343.019 104.004 339.951 105.385C337.075 106.604 334.569 108.556 332.685 111.048C332.569 111.195 332.696 111.364 332.801 111.269Z" fill="#263238"/>
<path d="M329.49 94.5234C328.489 95.2644 327.558 96.0937 326.706 97.0015C325.846 97.851 325.228 98.9136 324.913 100.081C324.793 100.623 324.88 101.191 325.156 101.673C325.443 102.155 325.85 102.554 326.337 102.833C326.842 103.074 327.393 103.205 327.953 103.218C328.513 103.23 329.069 103.124 329.585 102.907L332.158 101.958L330.049 103.74C329.116 104.526 328.318 105.459 327.687 106.503C327.368 106.967 327.152 107.494 327.052 108.049C326.952 108.603 326.971 109.172 327.107 109.719C327.239 110.227 327.541 110.675 327.963 110.988C328.385 111.301 328.902 111.459 329.427 111.438C330.594 111.365 331.725 111.003 332.717 110.383L335.5 108.728L333.391 111.195C332.807 111.88 332.314 112.639 331.926 113.452C331.529 114.202 331.364 115.054 331.451 115.898C331.51 116.276 331.671 116.631 331.916 116.924C332.161 117.218 332.482 117.439 332.843 117.564C333.697 117.711 334.574 117.612 335.374 117.28C337.116 116.577 338.801 115.741 340.414 114.78C341.237 114.327 342.081 113.863 342.935 113.441C343.768 112.97 344.692 112.683 345.645 112.598C344.719 112.775 343.838 113.134 343.051 113.652C342.239 114.127 341.448 114.654 340.657 115.171C339.081 116.266 337.404 117.209 335.648 117.986C334.704 118.425 333.652 118.579 332.622 118.429C332.079 118.278 331.592 117.974 331.218 117.553C330.844 117.132 330.599 116.613 330.513 116.056C330.374 115.008 330.554 113.943 331.029 112.998C331.446 112.087 331.978 111.233 332.611 110.457L333.318 111.269C332.163 112.043 330.824 112.498 329.437 112.587C328.678 112.606 327.935 112.368 327.328 111.912C326.747 111.431 326.322 110.789 326.105 110.067C325.931 109.373 325.906 108.65 326.034 107.947C326.161 107.243 326.437 106.575 326.843 105.986C327.547 104.847 328.438 103.834 329.479 102.991L329.964 103.824C329.313 104.067 328.617 104.166 327.923 104.115C327.23 104.064 326.556 103.864 325.947 103.529C325.366 103.147 324.891 102.624 324.565 102.01C324.244 101.383 324.161 100.659 324.333 99.9752C324.734 98.7476 325.463 97.6533 326.442 96.8117C327.368 95.9363 328.391 95.1687 329.49 94.5234Z" fill="#263238"/>
<path d="M314.769 105.585C314.769 105.585 322.256 79.9397 330.85 87.7747C333.402 90.1051 341.1 102.717 338.601 104.309C335.363 106.418 331.167 101.715 328.994 98.3619C328.994 98.3619 327.676 107.452 321.086 108.411C319.874 108.57 318.643 108.389 317.528 107.891C316.413 107.392 315.458 106.594 314.769 105.585Z" fill="#EB9481"/>
<path d="M330.059 87.1738C331.169 87.9685 332.156 88.9205 332.991 89.9999C333.845 91.0614 334.634 92.1742 335.353 93.3321C336.812 95.6483 338.068 98.0863 339.107 100.619C339.381 101.293 339.559 102.003 339.634 102.728C339.677 103.145 339.626 103.566 339.487 103.962C339.337 104.401 339.039 104.774 338.643 105.016C337.946 105.444 337.12 105.608 336.313 105.48C335.571 105.35 334.858 105.093 334.204 104.721C333 103.986 331.93 103.052 331.04 101.958C330.142 100.914 329.324 99.8034 328.594 98.6363L329.458 98.4359C329.267 99.4653 328.981 100.475 328.604 101.452C328.236 102.425 327.77 103.358 327.212 104.236C326.646 105.107 325.957 105.892 325.166 106.566C324.38 107.229 323.474 107.737 322.499 108.064C323.403 107.625 324.226 107.037 324.934 106.324C325.628 105.606 326.221 104.797 326.695 103.919C327.177 103.053 327.573 102.142 327.877 101.199C328.177 100.26 328.392 99.2969 328.52 98.3199L328.657 97.1072L329.384 98.1617C330.131 99.2705 330.952 100.327 331.841 101.325C332.681 102.309 333.674 103.149 334.784 103.814C335.254 104.144 335.802 104.348 336.374 104.407C336.946 104.466 337.524 104.378 338.052 104.151C338.864 103.719 338.538 102.264 338.116 101.072C337.661 99.8201 337.144 98.5918 336.566 97.3919C335.986 96.1793 335.406 94.9666 334.762 93.7856C333.547 91.3512 331.96 89.1206 330.059 87.1738Z" fill="#263238"/>
<path d="M299.173 114.623L311.711 142.726C311.711 142.726 291.401 149.886 284.779 147.545C278.157 145.204 259.471 125.464 250.56 110.163C241.65 94.8619 246.901 92.8584 261.612 103.203C276.322 113.548 287.974 120.813 288.406 120.623C288.839 120.434 299.173 114.623 299.173 114.623Z" fill="#EBEBEB"/>
<path d="M295.06 118.767C295.06 118.683 294.881 118.767 294.902 118.83C297.553 127.161 300.655 135.342 304.192 143.337C304.192 143.421 304.382 143.337 304.35 143.274C301.704 134.941 298.602 126.76 295.06 118.767Z" fill="#263238"/>
<path d="M273.559 138.887C265.65 131.189 256.16 119.79 250.56 110.162C243.358 97.7824 245.425 94.1022 254.283 98.6471L273.559 138.887Z" fill="#C7C7C7"/>
<path d="M252.754 142.23L250.645 158.69C250.645 158.69 216.184 155.253 198.426 140.078C198.426 140.078 217.407 102.043 236.652 93.8807C246.29 89.7892 253.64 93.7541 256.244 100.851C256.908 102.644 264.311 122.742 262.508 130.809C260.947 137.917 252.754 142.23 252.754 142.23Z" fill="#EBEBEB"/>
<path d="M252.026 104.268L251.963 103.972V103.856C251.963 103.856 252.026 103.804 252.037 103.856L252.111 103.994C252.184 104.183 252.258 104.373 252.321 104.563C252.448 104.943 252.553 105.333 252.659 105.723C252.87 106.493 253.06 107.284 253.239 108.064C253.597 109.635 253.84 111.227 254.061 112.82C254.495 116.02 254.64 119.253 254.494 122.479C254.378 125.73 253.796 128.948 252.764 132.033C251.771 135.163 249.987 137.985 247.587 140.226L247.661 140.11C246.69 143.01 245.678 145.889 244.655 148.768L243.095 153.07C242.557 154.494 242.04 155.938 241.365 157.288C241.977 155.886 242.42 154.43 242.926 152.986L244.36 148.641L247.123 139.92V139.857L247.176 139.804C249.342 137.509 250.941 134.74 251.847 131.716C252.758 128.689 253.303 125.563 253.471 122.405C253.636 119.242 253.586 116.071 253.323 112.915C253.197 111.333 252.986 109.751 252.775 108.169C252.669 107.368 252.543 106.588 252.406 105.797L252.163 104.626C252.163 104.426 252.079 104.236 252.026 104.046C252.03 104.001 252.03 103.955 252.026 103.909C252.026 103.909 252.026 103.983 252.026 104.015V104.268Z" fill="#263238"/>
<path d="M261.949 118.588L261.823 118.071C261.847 117.399 261.819 116.725 261.738 116.057C261.627 115.246 261.437 114.448 261.169 113.674C261.169 113.621 261.084 113.674 261.095 113.674C261.349 114.795 261.518 115.933 261.601 117.08C261.057 114.743 260.334 112.452 259.439 110.226C259.439 110.212 259.434 110.198 259.424 110.188C259.414 110.178 259.401 110.173 259.387 110.173C259.373 110.173 259.359 110.178 259.349 110.188C259.34 110.198 259.334 110.212 259.334 110.226C260.03 113.009 260.768 115.783 261.359 118.588C261.949 121.393 262.413 124.208 262.898 127.024C262.898 127.129 263.088 127.098 263.077 127.024C262.954 124.184 262.577 121.36 261.949 118.588Z" fill="#263238"/>
<path d="M251.773 112.292C251.784 112.502 251.731 112.711 251.622 112.891C251.512 113.072 251.352 113.215 251.16 113.303C250.969 113.391 250.755 113.419 250.547 113.385C250.339 113.35 250.147 113.254 249.994 113.109C249.841 112.964 249.735 112.776 249.69 112.57C249.645 112.365 249.662 112.15 249.74 111.954C249.818 111.758 249.953 111.59 250.128 111.472C250.302 111.354 250.508 111.29 250.719 111.29C250.99 111.29 251.25 111.394 251.446 111.58C251.643 111.767 251.76 112.021 251.773 112.292Z" fill="#263238"/>
<path d="M251.004 122.943C251.563 122.943 252.016 122.489 252.016 121.93C252.016 121.371 251.563 120.918 251.004 120.918C250.444 120.918 249.991 121.371 249.991 121.93C249.991 122.489 250.444 122.943 251.004 122.943Z" fill="#263238"/>
<path d="M245.373 139.804C245.932 139.804 246.385 139.351 246.385 138.792C246.385 138.233 245.932 137.779 245.373 137.779C244.814 137.779 244.36 138.233 244.36 138.792C244.36 139.351 244.814 139.804 245.373 139.804Z" fill="#263238"/>
<path d="M242.378 148.694C242.937 148.694 243.39 148.24 243.39 147.681C243.39 147.122 242.937 146.669 242.378 146.669C241.818 146.669 241.365 147.122 241.365 147.681C241.365 148.24 241.818 148.694 242.378 148.694Z" fill="#263238"/>
<path d="M249.749 131.579C250.308 131.579 250.761 131.126 250.761 130.567C250.761 130.008 250.308 129.555 249.749 129.555C249.19 129.555 248.736 130.008 248.736 130.567C248.736 131.126 249.19 131.579 249.749 131.579Z" fill="#263238"/>
<path d="M231.759 92.0242C206.693 92.1191 187.048 97.4443 182.492 103.149C178.728 107.852 167.065 128.457 162.141 141.006C160.759 144.528 188.872 157.129 189.874 153.206C191.435 147.132 204.236 117.722 204.373 117.248C204.648 116.193 229.819 105.87 236.251 103.539C248.051 99.0999 245.046 91.9398 231.759 92.0242Z" fill="#EB9481"/>
<path d="M171.568 186.108C170.656 185.98 169.806 185.576 169.131 184.95C168.456 184.324 167.989 183.506 167.793 182.607C166.388 183.294 164.787 183.466 163.269 183.092C160.633 182.322 160.686 177.819 160.686 177.819C159.081 178.226 157.391 178.141 155.835 177.577C153.378 176.575 152.798 172.04 152.798 172.04C151.116 171.603 149.648 170.573 148.664 169.141C146.186 165.218 149.276 158.828 151.195 154.747C153.114 150.666 162.383 140.88 163.954 138.845L190.317 150.94C190.317 150.94 186.911 171.692 183.99 176.174C181.438 179.949 175.048 186.456 171.568 186.108Z" fill="#EB9481"/>
<path d="M168.299 182.617C171.895 179.242 174.299 174.982 176.935 170.87C176.988 170.775 176.851 170.68 176.788 170.775C174.215 174.898 170.851 178.462 168.12 182.469C168.1 182.493 168.091 182.523 168.094 182.554C168.097 182.585 168.112 182.613 168.136 182.633C168.159 182.652 168.19 182.661 168.221 182.658C168.251 182.656 168.279 182.641 168.299 182.617Z" fill="#263238"/>
<path d="M161.075 177.903C161.818 177.058 162.445 176.118 162.942 175.109C163.532 174.055 164.102 173 164.661 171.946C165.778 169.837 166.854 167.728 167.824 165.534C167.824 165.439 167.729 165.355 167.677 165.45C166.559 167.559 165.42 169.668 164.207 171.682C163.606 172.736 162.995 173.728 162.383 174.751C161.732 175.67 161.187 176.661 160.759 177.703C160.732 177.745 160.724 177.796 160.735 177.844C160.745 177.893 160.775 177.935 160.817 177.961C160.859 177.988 160.91 177.997 160.958 177.986C161.007 177.975 161.049 177.945 161.075 177.903Z" fill="#263238"/>
<path d="M152.84 171.966C153.502 171.193 154.026 170.312 154.39 169.362C154.886 168.391 155.371 167.421 155.877 166.451C156.931 164.521 157.87 162.592 158.946 160.694C158.957 160.674 158.96 160.651 158.954 160.629C158.948 160.607 158.934 160.589 158.914 160.578C158.894 160.566 158.871 160.563 158.849 160.569C158.828 160.575 158.809 160.59 158.798 160.609C157.743 162.528 156.584 164.427 155.508 166.367C154.981 167.305 154.453 168.265 153.937 169.214C153.387 170.042 152.984 170.959 152.745 171.924C152.745 171.924 152.808 171.998 152.84 171.966Z" fill="#263238"/>
<path d="M196.433 139.361L168.109 125.389C168.109 125.389 177.505 104.204 183.209 100.081C188.914 95.9576 213.199 91.6447 230.883 91.8134C248.863 91.9927 249.601 99.0895 232.708 105.237C215.815 111.385 204.953 116.984 204.858 117.459C204.763 117.933 196.433 139.361 196.433 139.361Z" fill="#EBEBEB"/>
<path d="M198.004 136.092C199.238 133.139 205.006 117.628 205.196 117.501C205.597 117.248 212.061 114.106 213.98 113.167C215.604 112.376 217.249 111.617 218.894 110.858C220.286 110.562 221.689 110.267 223.049 109.803C223.065 109.797 223.079 109.786 223.089 109.772C223.099 109.758 223.104 109.741 223.104 109.724C223.104 109.707 223.099 109.69 223.089 109.676C223.079 109.662 223.065 109.651 223.049 109.645C222.081 109.774 221.123 109.968 220.181 110.225L225.59 107.747C225.59 107.747 225.59 107.673 225.59 107.684C221.509 109.107 204.785 116.531 204.753 116.784C204.722 117.037 197.899 135.396 197.857 135.765C197.783 135.965 197.973 136.176 198.004 136.092Z" fill="#263238"/>
<path d="M196.433 131.685C196.528 131.685 196.591 131.569 196.507 131.526C188.815 127.37 180.902 123.639 172.802 120.349C172.707 120.349 172.644 120.454 172.728 120.507C180.423 124.657 188.336 128.388 196.433 131.685Z" fill="#263238"/>
<path d="M245.035 93.6586C245.035 94.7131 248.198 102.527 252.859 103.487C254.388 103.792 256.444 95.5461 256.444 95.5461L256.74 94.9767L260.81 86.9308L252.427 77.9676L251.193 76.7549C251.193 76.7549 250.233 79.0221 249.084 81.8692C249.031 81.9958 248.968 82.1223 248.915 82.2699C248.863 82.4176 248.778 82.5757 248.715 82.7339C248.536 83.1557 248.346 83.5775 248.177 84.0204C248.008 84.4633 247.913 84.6637 247.787 85.0749L247.386 86.1294C246.439 88.5851 245.653 91.1002 245.035 93.6586Z" fill="#EB9481"/>
<path d="M249.053 81.8692C249.306 84.4811 250.124 87.0065 251.452 89.2701C252.78 91.5336 254.584 93.4809 256.74 94.9767L260.81 86.9308L252.427 77.9676L251.193 76.7549C251.193 76.7549 250.234 79.0221 249.053 81.8692Z" fill="#263238"/>
<path d="M275.162 71.1457C278.326 86.6364 269.404 90.2849 266.072 90.9598C263.035 91.582 252.627 93.3008 247.872 78.2109C243.116 63.121 249.327 56.7623 256.192 55.0118C263.056 53.2614 271.999 55.6551 275.162 71.1457Z" fill="#EB9481"/>
<path d="M269.953 79.7822C269.652 80.5051 269.173 81.14 268.561 81.6275C268.214 81.8791 267.798 82.0189 267.369 82.0282C266.441 82.0282 266.199 81.2374 266.178 80.5098C266.168 80.1238 266.204 79.7381 266.283 79.3604C267.43 79.8876 268.716 80.0353 269.953 79.7822Z" fill="#263238"/>
<path d="M268.572 81.6271C268.224 81.8787 267.809 82.0185 267.38 82.0278C266.452 82.0278 266.21 81.2369 266.188 80.5093C266.654 80.3978 267.143 80.4477 267.576 80.6508C268.009 80.8539 268.36 81.1981 268.572 81.6271Z" fill="#FF9BBC"/>
<path d="M271.44 67.3596C271.089 67.3792 270.737 67.3792 270.385 67.3596C270.002 67.411 269.612 67.333 269.278 67.1382C269.182 67.0583 269.116 66.9477 269.091 66.825C269.066 66.7022 269.083 66.5745 269.141 66.4633C269.281 66.2588 269.473 66.096 269.698 65.992C269.922 65.888 270.171 65.8468 270.417 65.8728C270.928 65.8478 271.43 66.0089 271.83 66.3262C271.91 66.4096 271.965 66.5139 271.988 66.6272C272.012 66.7405 272.002 66.858 271.961 66.9662C271.921 67.0743 271.85 67.1687 271.758 67.2384C271.665 67.308 271.555 67.35 271.44 67.3596Z" fill="#263238"/>
<path d="M261.517 70.8715C261.871 70.855 262.223 70.8127 262.571 70.745C262.95 70.748 263.319 70.6298 263.626 70.4075C263.71 70.3159 263.761 70.1992 263.773 70.0755C263.784 69.9517 263.755 69.8276 263.689 69.7221C263.525 69.5356 263.315 69.3954 263.08 69.3158C262.845 69.2362 262.593 69.22 262.35 69.2687C261.841 69.3026 261.361 69.5199 261 69.8803C260.921 69.9714 260.872 70.0841 260.858 70.2038C260.844 70.3235 260.866 70.4447 260.922 70.5515C260.977 70.6584 261.064 70.746 261.17 70.8031C261.276 70.8602 261.397 70.884 261.517 70.8715Z" fill="#263238"/>
<path d="M264.48 73.877C264.48 73.877 264.417 73.9508 264.427 73.9929C264.702 75.0475 264.839 76.2707 263.963 76.8401C263.963 76.8401 263.963 76.9034 263.963 76.8928C265.113 76.4605 264.912 74.826 264.48 73.877Z" fill="#263238"/>
<path d="M263.299 73.0437C261.58 73.2967 262.244 76.7133 263.816 76.4708C265.387 76.2283 264.733 72.78 263.299 73.0437Z" fill="#263238"/>
<path d="M262.656 73.3076C262.392 73.5502 262.17 73.9509 261.812 74.0563C261.453 74.1618 261.021 73.8771 260.684 73.5818C260.789 74.2356 261.169 74.8578 261.896 74.8261C262.624 74.7945 262.898 74.1302 262.951 73.4342C262.898 73.3604 262.761 73.2022 262.656 73.3076Z" fill="#263238"/>
<path d="M270.227 72.4111C270.227 72.4111 270.322 72.4111 270.322 72.4849C270.48 73.5394 270.849 74.7521 271.862 74.9314C270.67 75.0368 270.206 73.4445 270.227 72.4111Z" fill="#263238"/>
<path d="M271.007 71.1355C272.684 70.6926 273.433 74.0881 271.883 74.4888C270.333 74.8895 269.563 71.494 271.007 71.1355Z" fill="#263238"/>
<path d="M271.735 71.1987C272.041 71.3147 272.378 71.5889 272.705 71.5362C273.032 71.4834 273.275 71.0511 273.433 70.6504C273.433 70.6504 273.433 70.6504 273.496 70.6504C273.654 71.2936 273.591 72.0212 272.99 72.2849C272.389 72.5485 271.936 72.0529 271.609 71.4413C271.556 71.3569 271.609 71.146 271.735 71.1987Z" fill="#263238"/>
<path d="M269.752 77.5252C269.752 77.5252 270.29 79.0543 270.438 79.803C270.438 79.8768 270.28 79.94 270.027 80.0033C269.411 80.2479 268.74 80.3183 268.087 80.2067C267.434 80.0951 266.825 79.8058 266.325 79.3706C266.309 79.3594 266.297 79.342 266.293 79.3222C266.289 79.3025 266.293 79.2819 266.304 79.2652C266.315 79.2484 266.333 79.2367 266.353 79.2328C266.372 79.2288 266.393 79.2329 266.41 79.2441C267.488 79.7064 268.688 79.8027 269.826 79.5182C269.826 79.3073 268.825 76.9242 268.941 76.8925C269.525 76.8146 270.117 76.8146 270.702 76.8925C269.647 73.729 268.15 70.6393 267.179 67.402C267.179 67.286 267.317 67.2122 267.369 67.3071C269.104 70.5127 270.517 73.8825 271.587 77.367C271.724 77.8416 270.079 77.5885 269.752 77.5252Z" fill="#263238"/>
<path d="M249.253 80.1193C251.868 79.6343 251.025 74.1298 251.025 74.1298C251.025 74.1298 256.223 72.7589 255.96 64.8396C256.4 67.1164 256.17 69.4721 255.295 71.6201C255.295 71.6201 264.195 68.2246 266.009 59.5355C266.009 59.5355 265.513 63.8484 264.438 65.6199C266.573 64.2945 268.194 62.2829 269.036 59.9151C269.036 59.9151 271.819 63.9116 273.37 64.7974C273.37 64.7974 272.863 56.4879 268.445 53.3772C259.123 46.8287 250.097 57.5319 250.097 57.5319C250.097 57.5319 244.107 60.3052 243.242 65.6516C241.914 73.8978 249.253 80.1193 249.253 80.1193Z" fill="#263238"/>
<path d="M251.067 78.6332C251.067 78.6332 247.292 73.9406 245.14 75.3115C242.989 76.6823 246.058 83.6631 248.747 84.454C249.084 84.5816 249.444 84.6395 249.804 84.6243C250.164 84.609 250.518 84.5208 250.843 84.3651C251.168 84.2093 251.459 83.9893 251.696 83.7182C251.934 83.4471 252.115 83.1307 252.227 82.7879L251.067 78.6332Z" fill="#EB9481"/>
<path d="M246.068 77.2617V77.325C247.966 77.9471 249.042 79.5922 249.843 81.311C249.723 81.1348 249.566 80.9867 249.383 80.8766C249.2 80.7666 248.996 80.6972 248.784 80.6731C248.571 80.6491 248.357 80.6711 248.154 80.7375C247.951 80.8039 247.765 80.9132 247.608 81.0579C247.602 81.0682 247.599 81.0799 247.599 81.0919C247.599 81.1038 247.603 81.1154 247.61 81.1253C247.616 81.1352 247.626 81.143 247.636 81.1479C247.647 81.1528 247.659 81.1545 247.671 81.1528C247.988 81.0298 248.335 81.0073 248.665 81.0884C248.996 81.1695 249.293 81.3504 249.517 81.6063C249.882 82.0412 250.203 82.511 250.476 83.0088C250.571 83.1669 250.866 83.0088 250.793 82.8717C250.645 80.5201 248.599 77.3566 246.068 77.2617Z" fill="#263238"/>
<path d="M256.424 95.7053L252.026 101.832L245.699 91.1709L242.631 93.3432C242.631 93.3432 247.566 109.034 247.766 108.433L251.984 103.255L255.042 108.317L257.215 97.9935L256.424 95.7053Z" fill="#EBEBEB"/>
<path d="M256.392 103.276C256.687 101.557 257.046 99.8383 257.267 98.1089C257.267 98.1089 257.183 98.0034 257.151 98.1089C256.413 99.659 255.295 106.229 254.916 107.779C254.789 107.557 252.037 103.265 251.984 103.318C251.151 104.098 248.051 107.863 247.819 108.222C247.039 105.722 243.96 96.622 242.916 94.1756C242.916 94.1123 242.778 94.1756 242.8 94.1756C243.39 96.7591 247.429 109.002 247.534 109.002C249.111 107.252 250.596 105.422 251.984 103.518C252.915 105.381 253.972 107.178 255.148 108.896C255.658 107.045 256.074 105.169 256.392 103.276Z" fill="#263238"/>
<path d="M246.153 91.2027C245.394 89.4101 243.348 93.1852 244.972 95.4207C247.376 98.6686 251.921 102.518 252.923 102.539C253.924 102.56 257.141 98.5421 257.552 97.6668C257.963 96.7916 257.056 94.8302 256.74 95.02C256.424 95.2098 253.64 99.4806 253.25 99.6809C252.859 99.8813 247.808 95.0517 246.153 91.2027Z" fill="#FFC727"/>
<path d="M94.4513 430.479H46.7456V441.024H94.4513V430.479Z" fill="#FFC727"/>
<g opacity="0.1">
<path d="M48.7177 431.438C49.4207 434.206 49.4207 437.105 48.7177 439.874C48.3394 438.5 48.1618 437.08 48.1905 435.656C48.1687 434.232 48.3462 432.812 48.7177 431.438Z" fill="black"/>
<path d="M52.2714 431.438C52.9744 434.206 52.9744 437.105 52.2714 439.874C51.5684 437.105 51.5684 434.206 52.2714 431.438Z" fill="black"/>
<path d="M54.0009 431.438C54.7039 434.206 54.7039 437.105 54.0009 439.874C53.2979 437.105 53.2979 434.206 54.0009 431.438Z" fill="black"/>
<path d="M63.5336 431.438C64.2366 434.206 64.2366 437.105 63.5336 439.874C62.8306 437.105 62.8306 434.206 63.5336 431.438Z" fill="black"/>
<path d="M66.1064 431.438C66.4779 432.812 66.6554 434.232 66.6336 435.656C66.6623 437.08 66.4847 438.5 66.1064 439.874C65.4034 437.105 65.4034 434.206 66.1064 431.438Z" fill="black"/>
<path d="M76.7675 431.438C77.1339 432.813 77.3113 434.232 77.2948 435.656C77.3178 437.079 77.1403 438.499 76.7675 439.874C76.3892 438.5 76.2116 437.08 76.2403 435.656C76.2185 434.232 76.396 432.812 76.7675 431.438Z" fill="black"/>
<path d="M79.2245 431.438C79.9275 434.206 79.9275 437.105 79.2245 439.874C78.5215 437.105 78.5215 434.206 79.2245 431.438Z" fill="black"/>
<path d="M83.7485 431.438C84.12 432.812 84.2975 434.232 84.2757 435.656C84.3044 437.08 84.1268 438.5 83.7485 439.874C83.3757 438.499 83.1982 437.079 83.2212 435.656C83.2047 434.232 83.3821 432.813 83.7485 431.438Z" fill="black"/>
<path d="M74.7113 431.438C75.4143 434.206 75.4143 437.105 74.7113 439.874C74.0083 437.105 74.0083 434.206 74.7113 431.438Z" fill="black"/>
<path d="M57.1538 431.438C57.5202 432.813 57.6975 434.232 57.681 435.656C57.7041 437.079 57.5266 438.499 57.1538 439.874C56.7755 438.5 56.5979 437.08 56.6265 435.656C56.6047 434.232 56.7822 432.812 57.1538 431.438Z" fill="black"/>
<path d="M69.5019 431.438C70.2049 434.206 70.2049 437.105 69.5019 439.874C68.7989 437.105 68.7989 434.206 69.5019 431.438Z" fill="black"/>
<path d="M71.2738 431.438C71.6454 432.812 71.8229 434.232 71.8011 435.656C71.8297 437.08 71.6521 438.5 71.2738 439.874C70.5708 437.105 70.5708 434.206 71.2738 431.438Z" fill="black"/>
<path d="M89.6323 431.438C89.9987 432.813 90.176 434.232 90.1595 435.656C90.1882 437.08 90.0106 438.5 89.6323 439.874C89.2595 438.499 89.082 437.079 89.105 435.656C89.0885 434.232 89.2659 432.813 89.6323 431.438Z" fill="black"/>
<path d="M92.3109 431.438C93.0139 434.206 93.0139 437.105 92.3109 439.874C91.6079 437.105 91.6079 434.206 92.3109 431.438Z" fill="black"/>
<path d="M85.8466 431.438C86.2181 432.812 86.3956 434.232 86.3738 435.656C86.4025 437.08 86.2249 438.5 85.8466 439.874C85.1436 437.105 85.1436 434.206 85.8466 431.438Z" fill="black"/>
<path d="M61.477 431.438C62.18 434.206 62.18 437.105 61.477 439.874C60.774 437.105 60.774 434.206 61.477 431.438Z" fill="black"/>
</g>
<path opacity="0.1" d="M94.4513 430.479V432.714L46.7456 434.222V430.479H94.4513Z" fill="black"/>
<path d="M91.193 419.934H43.4873V430.479H91.193V419.934Z" fill="#FFC727"/>
<g opacity="0.1">
<path d="M45.4486 420.903C46.1516 423.671 46.1516 426.571 45.4486 429.339C44.7456 426.571 44.7456 423.671 45.4486 420.903Z" fill="black"/>
<path d="M49.0023 420.903C49.7054 423.671 49.7054 426.571 49.0023 429.339C48.2993 426.571 48.2993 423.671 49.0023 420.903Z" fill="black"/>
<path d="M50.7423 420.903C51.1094 422.279 51.2868 423.698 51.2696 425.121C51.2914 426.545 51.1139 427.965 50.7423 429.339C50.3656 427.966 50.188 426.545 50.2151 425.121C50.1926 423.698 50.3701 422.278 50.7423 420.903Z" fill="black"/>
<path d="M60.2646 420.903C60.9676 423.671 60.9676 426.571 60.2646 429.339C59.5616 426.571 59.5616 423.671 60.2646 420.903Z" fill="black"/>
<path d="M62.8478 420.903C63.5508 423.671 63.5508 426.571 62.8478 429.339C62.4711 427.966 62.2935 426.545 62.3206 425.121C62.2981 423.698 62.4756 422.278 62.8478 420.903Z" fill="black"/>
<path d="M73.4984 420.903C74.2014 423.671 74.2014 426.571 73.4984 429.339C72.7954 426.571 72.7954 423.671 73.4984 420.903Z" fill="black"/>
<path d="M75.924 420.903C76.291 422.279 76.4684 423.698 76.4512 425.121C76.4783 426.545 76.3007 427.966 75.924 429.339C75.5473 427.966 75.3697 426.545 75.3967 425.121C75.3795 423.698 75.5569 422.279 75.924 420.903Z" fill="black"/>
<path d="M80.4897 420.903C81.1927 423.671 81.1927 426.571 80.4897 429.339C79.7867 426.571 79.7867 423.671 80.4897 420.903Z" fill="black"/>
<path d="M71.4423 420.903C72.1453 423.671 72.1453 426.571 71.4423 429.339C70.7393 426.571 70.7393 423.671 71.4423 420.903Z" fill="black"/>
<path d="M53.8954 420.903C54.5984 423.671 54.5984 426.571 53.8954 429.339C53.1924 426.571 53.1924 423.671 53.8954 420.903Z" fill="black"/>
<path d="M66.2328 420.903C66.9358 423.671 66.9358 426.571 66.2328 429.339C65.5298 426.571 65.5298 423.671 66.2328 420.903Z" fill="black"/>
<path d="M68.0153 420.903C68.7183 423.671 68.7183 426.571 68.0153 429.339C67.6386 427.966 67.461 426.545 67.488 425.121C67.4656 423.698 67.643 422.278 68.0153 420.903Z" fill="black"/>
<path d="M86.3847 420.903C87.0877 423.671 87.0877 426.571 86.3847 429.339C85.6817 426.571 85.6817 423.671 86.3847 420.903Z" fill="black"/>
<path d="M89.0419 420.903C89.7449 423.671 89.7449 426.571 89.0419 429.339C88.3389 426.571 88.3389 423.671 89.0419 420.903Z" fill="black"/>
<path d="M82.5885 420.903C83.2915 423.671 83.2915 426.571 82.5885 429.339C82.2118 427.966 82.0342 426.545 82.0613 425.121C82.0388 423.698 82.2163 422.278 82.5885 420.903Z" fill="black"/>
<path d="M58.2082 420.903C58.5805 422.278 58.758 423.698 58.7355 425.121C58.7625 426.545 58.585 427.966 58.2082 429.339C57.8367 427.965 57.6592 426.545 57.681 425.121C57.6638 423.698 57.8412 422.279 58.2082 420.903Z" fill="black"/>
</g>
<path opacity="0.1" d="M91.1824 419.934V422.18L43.4873 423.677V419.934H91.1824Z" fill="black"/>
<path d="M98.5641 398.938H50.8584V409.483H98.5641V398.938Z" fill="#FFC727"/>
<g opacity="0.1">
<path d="M52.8197 399.94C53.5227 402.708 53.5227 405.608 52.8197 408.376C52.1167 405.608 52.1167 402.708 52.8197 399.94Z" fill="black"/>
<path d="M56.3734 399.94C56.7457 401.315 56.9232 402.735 56.9007 404.158C56.9277 405.582 56.7502 407.003 56.3734 408.376C55.6704 405.608 55.6704 402.708 56.3734 399.94Z" fill="black"/>
<path d="M58.1129 399.94C58.8159 402.708 58.8159 405.608 58.1129 408.376C57.7362 407.003 57.5587 405.582 57.5857 404.158C57.5632 402.735 57.7407 401.315 58.1129 399.94Z" fill="black"/>
<path d="M67.6356 399.94C68.3387 402.708 68.3387 405.608 67.6356 408.376C66.9326 405.608 66.9326 402.708 67.6356 399.94Z" fill="black"/>
<path d="M70.2187 399.94C70.9217 402.708 70.9217 405.608 70.2187 408.376C69.5157 405.608 69.5157 402.708 70.2187 399.94Z" fill="black"/>
<path d="M80.8695 399.94C81.5725 402.708 81.5725 405.608 80.8695 408.376C80.1665 405.608 80.1665 402.708 80.8695 399.94Z" fill="black"/>
<path d="M83.3053 399.94C84.0083 402.708 84.0083 405.608 83.3053 408.376C82.9286 407.003 82.751 405.582 82.7781 404.158C82.7556 402.735 82.9331 401.315 83.3053 399.94Z" fill="black"/>
<path d="M87.8607 399.94C88.5637 402.708 88.5637 405.608 87.8607 408.376C87.1577 405.608 87.1577 402.708 87.8607 399.94Z" fill="black"/>
<path d="M78.8127 399.94C79.185 401.315 79.3625 402.735 79.34 404.158C79.367 405.582 79.1895 407.003 78.8127 408.376C78.4412 407.002 78.2637 405.582 78.2855 404.158C78.2683 402.735 78.4457 401.316 78.8127 399.94Z" fill="black"/>
<path d="M61.2558 399.94C61.9588 402.708 61.9588 405.608 61.2558 408.376C60.5528 405.608 60.5528 402.708 61.2558 399.94Z" fill="black"/>
<path d="M73.6034 399.94C74.3064 402.708 74.3064 405.608 73.6034 408.376C72.9004 405.608 72.9004 402.708 73.6034 399.94Z" fill="black"/>
<path d="M75.3861 399.94C76.0891 402.708 76.0891 405.608 75.3861 408.376C74.6831 405.608 74.6831 402.708 75.3861 399.94Z" fill="black"/>
<path d="M93.7553 399.94C94.4443 402.71 94.4443 405.607 93.7553 408.376C93.0523 405.608 93.0523 402.708 93.7553 399.94Z" fill="black"/>
<path d="M96.4125 399.94C96.7847 401.315 96.9622 402.735 96.9398 404.158C96.9668 405.582 96.7892 407.003 96.4125 408.376C95.7095 405.608 95.7095 402.708 96.4125 399.94Z" fill="black"/>
<path d="M89.9589 399.94C90.6619 402.708 90.6619 405.608 89.9589 408.376C89.2559 405.608 89.2559 402.708 89.9589 399.94Z" fill="black"/>
<path d="M65.5788 399.94C65.9459 401.316 66.1233 402.735 66.1061 404.158C66.1331 405.582 65.9556 407.003 65.5788 408.376C65.2073 407.002 65.0298 405.582 65.0516 404.158C65.0344 402.735 65.2118 401.316 65.5788 399.94Z" fill="black"/>
</g>
<path opacity="0.1" d="M98.5535 398.948V401.184L50.8584 402.692V398.948H98.5535Z" fill="black"/>
<path d="M97.3619 388.403H49.6562V398.948H97.3619V388.403Z" fill="#FFC727"/>
<g opacity="0.1">
<path d="M95.2106 397.831C94.8429 396.455 94.6655 395.036 94.6833 393.613C94.6563 392.189 94.8339 390.768 95.2106 389.395C95.5873 390.768 95.7649 392.189 95.7378 393.613C95.7557 395.036 95.5783 396.455 95.2106 397.831Z" fill="black"/>
<path d="M91.657 397.831C91.2893 396.455 91.1119 395.036 91.1297 393.613C91.1079 392.189 91.2854 390.769 91.657 389.395C92.0337 390.768 92.2113 392.189 92.1842 393.613C92.2072 395.036 92.0298 396.456 91.657 397.831Z" fill="black"/>
<path d="M89.9171 397.831C89.2281 395.061 89.2281 392.164 89.9171 389.395C90.6201 392.163 90.6201 395.062 89.9171 397.831Z" fill="black"/>
<path d="M80.3948 397.831C80.0271 396.455 79.8497 395.036 79.8675 393.613C79.8457 392.189 80.0232 390.769 80.3948 389.395C80.7715 390.768 80.949 392.189 80.922 393.613C80.9399 395.036 80.7625 396.455 80.3948 397.831Z" fill="black"/>
<path d="M77.8217 397.831C77.1187 395.062 77.1187 392.163 77.8217 389.395C78.5247 392.163 78.5247 395.062 77.8217 397.831Z" fill="black"/>
<path d="M67.1608 397.831C66.7931 396.455 66.6157 395.036 66.6335 393.613C66.6065 392.189 66.7841 390.768 67.1608 389.395C67.5323 390.769 67.7098 392.189 67.688 393.613C67.7059 395.036 67.5285 396.455 67.1608 397.831Z" fill="black"/>
<path d="M64.6933 397.831C63.9903 395.062 63.9903 392.163 64.6933 389.395C65.3963 392.163 65.3963 395.062 64.6933 397.831Z" fill="black"/>
<path d="M60.1801 397.831C59.4771 395.062 59.4771 392.163 60.1801 389.395C60.8831 392.163 60.8831 395.062 60.1801 397.831Z" fill="black"/>
<path d="M69.2172 397.831C68.5142 395.062 68.5142 392.163 69.2172 389.395C69.5939 390.768 69.7715 392.189 69.7444 393.613C69.7675 395.036 69.59 396.456 69.2172 397.831Z" fill="black"/>
<path d="M86.7746 397.831C86.4018 396.456 86.2243 395.036 86.2473 393.613C86.2203 392.189 86.3978 390.768 86.7746 389.395C87.1461 390.769 87.3236 392.189 87.3018 393.613C87.3197 395.036 87.1423 396.455 86.7746 397.831Z" fill="black"/>
<path d="M74.4265 397.831C74.0588 396.455 73.8814 395.036 73.8992 393.613C73.8775 392.189 74.0549 390.769 74.4265 389.395C74.8032 390.768 74.9808 392.189 74.9537 393.613C74.9716 395.036 74.7942 396.455 74.4265 397.831Z" fill="black"/>
<path d="M72.6547 397.831C71.9517 395.062 71.9517 392.163 72.6547 389.395C73.3577 392.163 73.3577 395.062 72.6547 397.831Z" fill="black"/>
<path d="M54.2856 397.831C53.5826 395.062 53.5826 392.163 54.2856 389.395C54.9886 392.163 54.9886 395.062 54.2856 397.831Z" fill="black"/>
<path d="M51.6702 397.831C51.3025 396.455 51.1251 395.036 51.1429 393.613C51.1211 392.189 51.2986 390.769 51.6702 389.395C52.0469 390.768 52.2244 392.189 52.1974 393.613C52.2204 395.036 52.0429 396.456 51.6702 397.831Z" fill="black"/>
<path d="M58.0815 397.831C57.3784 395.062 57.3784 392.163 58.0815 389.395C58.7845 392.163 58.7845 395.062 58.0815 397.831Z" fill="black"/>
<path d="M82.4511 397.831C81.7481 395.062 81.7481 392.163 82.4511 389.395C83.1541 392.163 83.1541 395.062 82.4511 397.831Z" fill="black"/>
</g>
<path opacity="0.1" d="M97.3514 388.403V390.639L49.6562 392.147V388.403H97.3514Z" fill="black"/>
<path d="M94.4513 377.858H46.7456V388.403H94.4513V377.858Z" fill="#FFC727"/>
<g opacity="0.1">
<path d="M48.7179 378.85C49.0856 380.225 49.263 381.644 49.2452 383.068C49.2669 384.491 49.0895 385.911 48.7179 387.286C48.3412 385.912 48.1636 384.492 48.1907 383.068C48.1676 381.644 48.3451 380.224 48.7179 378.85Z" fill="black"/>
<path d="M52.2716 378.85C52.9746 381.618 52.9746 384.518 52.2716 387.286C51.8949 385.912 51.7173 384.492 51.7444 383.068C51.7213 381.644 51.8988 380.224 52.2716 378.85Z" fill="black"/>
<path d="M54.0014 378.85C54.7044 381.618 54.7044 384.518 54.0014 387.286C53.2984 384.518 53.2984 381.618 54.0014 378.85Z" fill="black"/>
<path d="M63.5338 378.85C64.2368 381.618 64.2368 384.518 63.5338 387.286C63.1571 385.912 62.9796 384.492 63.0066 383.068C62.9836 381.644 63.161 380.224 63.5338 378.85Z" fill="black"/>
<path d="M66.1068 378.85C66.8098 381.618 66.8098 384.518 66.1068 387.286C65.4038 384.518 65.4038 381.618 66.1068 378.85Z" fill="black"/>
<path d="M76.7677 378.85C77.1354 380.225 77.3128 381.644 77.295 383.068C77.3168 384.491 77.1393 385.911 76.7677 387.286C76.391 385.912 76.2134 384.492 76.2405 383.068C76.2226 381.644 76.4 380.225 76.7677 378.85Z" fill="black"/>
<path d="M79.2248 378.85C79.9278 381.618 79.9278 384.518 79.2248 387.286C78.5358 384.516 78.5358 381.619 79.2248 378.85Z" fill="black"/>
<path d="M83.7489 378.85C84.4519 381.618 84.4519 384.518 83.7489 387.286C83.0459 384.518 83.0459 381.618 83.7489 378.85Z" fill="black"/>
<path d="M74.7113 378.85C75.4143 381.618 75.4143 384.518 74.7113 387.286C74.0083 384.518 74.0083 381.618 74.7113 378.85Z" fill="black"/>
<path d="M57.154 378.85C57.5217 380.225 57.6991 381.644 57.6813 383.068C57.7083 384.492 57.5308 385.912 57.154 387.286C56.7825 385.911 56.605 384.491 56.6268 383.068C56.6089 381.644 56.7863 380.225 57.154 378.85Z" fill="black"/>
<path d="M69.5021 378.85C69.8698 380.225 70.0472 381.644 70.0294 383.068C70.0511 384.491 69.8737 385.911 69.5021 387.286C69.1254 385.912 68.9478 384.492 68.9748 383.068C68.9518 381.644 69.1293 380.224 69.5021 378.85Z" fill="black"/>
<path d="M71.2738 378.85C71.9768 381.618 71.9768 384.518 71.2738 387.286C70.5708 384.518 70.5708 381.618 71.2738 378.85Z" fill="black"/>
<path d="M89.6327 378.85C90.0055 380.224 90.183 381.644 90.16 383.068C90.187 384.492 90.0094 385.912 89.6327 387.286C88.9297 384.518 88.9297 381.618 89.6327 378.85Z" fill="black"/>
<path d="M92.3112 378.85C93.0142 381.618 93.0142 384.518 92.3112 387.286C91.9345 385.912 91.7569 384.492 91.7839 383.068C91.7609 381.644 91.9384 380.224 92.3112 378.85Z" fill="black"/>
<path d="M85.8471 378.85C86.5501 381.618 86.5501 384.518 85.8471 387.286C85.1441 384.518 85.1441 381.618 85.8471 378.85Z" fill="black"/>
<path d="M61.4774 378.85C62.1804 381.618 62.1804 384.518 61.4774 387.286C60.7744 384.518 60.7744 381.618 61.4774 378.85Z" fill="black"/>
</g>
<path opacity="0.1" d="M94.4513 377.858V380.104L46.7456 381.602V377.858H94.4513Z" fill="black"/>
<path d="M94.4513 409.483H46.7456V420.028H94.4513V409.483Z" fill="#FFC727"/>
<g opacity="0.1">
<path d="M92.3108 418.92C91.606 416.153 91.606 413.252 92.3108 410.484C93.0156 413.252 93.0156 416.153 92.3108 418.92Z" fill="black"/>
<path d="M88.7573 418.92C88.3845 417.546 88.207 416.126 88.23 414.702C88.2014 413.278 88.379 411.858 88.7573 410.484C89.1305 411.859 89.308 413.279 89.2845 414.702C89.3024 416.126 89.125 417.545 88.7573 418.92Z" fill="black"/>
<path d="M87.0174 418.92C86.3126 416.153 86.3126 413.252 87.0174 410.484C87.7222 413.252 87.7222 416.153 87.0174 418.92Z" fill="black"/>
<path d="M77.4951 418.92C77.1223 417.546 76.9448 416.126 76.9678 414.702C76.9392 413.278 77.1168 411.858 77.4951 410.484C78.1999 413.252 78.1999 416.153 77.4951 418.92Z" fill="black"/>
<path d="M74.8694 418.92C74.1646 416.153 74.1646 413.252 74.8694 410.484C75.5742 413.252 75.5742 416.153 74.8694 418.92Z" fill="black"/>
<path d="M64.261 418.92C63.5562 416.153 63.5562 413.252 64.261 410.484C64.9658 413.252 64.9658 416.153 64.261 418.92Z" fill="black"/>
<path d="M61.7937 418.92C61.0889 416.153 61.0889 413.252 61.7937 410.484C62.172 411.858 62.3496 413.278 62.321 414.702C62.344 416.126 62.1665 417.546 61.7937 418.92Z" fill="black"/>
<path d="M57.2698 418.92C56.565 416.153 56.565 413.252 57.2698 410.484C57.9746 413.252 57.9746 416.153 57.2698 418.92Z" fill="black"/>
<path d="M66.3173 418.92C65.9497 417.545 65.7723 416.126 65.7901 414.702C65.7614 413.278 65.939 411.858 66.3173 410.484C66.6906 411.859 66.8681 413.279 66.8446 414.702C66.8624 416.126 66.685 417.545 66.3173 418.92Z" fill="black"/>
<path d="M83.8748 418.92C83.17 416.153 83.17 413.252 83.8748 410.484C84.5796 413.252 84.5796 416.153 83.8748 418.92Z" fill="black"/>
<path d="M71.5268 418.92C71.154 417.546 70.9765 416.126 70.9996 414.702C70.9709 413.278 71.1485 411.858 71.5268 410.484C72.2316 413.252 72.2316 416.153 71.5268 418.92Z" fill="black"/>
<path d="M69.7444 418.92C69.0396 416.153 69.0396 413.252 69.7444 410.484C70.4492 413.252 70.4492 416.153 69.7444 418.92Z" fill="black"/>
<path d="M51.3855 418.92C50.6807 416.153 50.6807 413.252 51.3855 410.484C52.0903 413.252 52.0903 416.153 51.3855 418.92Z" fill="black"/>
<path d="M48.7177 418.92C48.3449 417.546 48.1675 416.126 48.1905 414.702C48.1618 413.278 48.3394 411.858 48.7177 410.484C49.0909 411.859 49.2684 413.279 49.245 414.702C49.2628 416.126 49.0854 417.545 48.7177 418.92Z" fill="black"/>
<path d="M55.1712 418.92C54.4664 416.153 54.4664 413.252 55.1712 410.484C55.876 413.252 55.876 416.153 55.1712 418.92Z" fill="black"/>
<path d="M79.5513 418.92C79.1836 417.545 79.0062 416.126 79.024 414.702C79.0006 413.279 79.1781 411.859 79.5513 410.484C79.9296 411.858 80.1072 413.278 80.0785 414.702C80.0964 416.126 79.919 417.545 79.5513 418.92Z" fill="black"/>
</g>
<path opacity="0.1" d="M94.4513 409.483V411.719L46.7456 413.227V409.483H94.4513Z" fill="black"/>
<path d="M142.157 441.94H94.4517V452.485H142.157V441.94Z" fill="#FFC727"/>
<g opacity="0.1">
<path d="M96.4236 442.911C97.1284 445.679 97.1284 448.579 96.4236 451.347C95.7188 448.579 95.7188 445.679 96.4236 442.911Z" fill="black"/>
<path d="M99.9773 442.911C100.682 445.679 100.682 448.579 99.9773 451.347C99.2725 448.579 99.2725 445.679 99.9773 442.911Z" fill="black"/>
<path d="M101.706 442.911C102.08 444.285 102.257 445.705 102.234 447.129C102.262 448.553 102.085 449.974 101.706 451.347C101.002 448.579 101.002 445.679 101.706 442.911Z" fill="black"/>
<path d="M111.24 442.911C111.944 445.679 111.944 448.579 111.24 451.347C110.535 448.579 110.535 445.679 111.24 442.911Z" fill="black"/>
<path d="M113.812 442.911C114.186 444.285 114.363 445.705 114.34 447.129C114.368 448.553 114.191 449.974 113.812 451.347C113.44 449.973 113.262 448.553 113.285 447.129C113.267 445.706 113.444 444.286 113.812 442.911Z" fill="black"/>
<path d="M124.431 442.911C125.136 445.679 125.136 448.579 124.431 451.347C123.726 448.579 123.726 445.679 124.431 442.911Z" fill="black"/>
<path d="M126.93 442.911C127.635 445.679 127.635 448.579 126.93 451.347C126.225 448.579 126.225 445.679 126.93 442.911Z" fill="black"/>
<path d="M131.454 442.911C131.822 444.286 131.999 445.706 131.981 447.129C132.01 448.553 131.832 449.974 131.454 451.347C131.081 449.973 130.904 448.553 130.927 447.129C130.909 445.706 131.086 444.286 131.454 442.911Z" fill="black"/>
<path d="M122.417 442.911C123.108 445.681 123.108 448.578 122.417 451.347C121.712 448.579 121.712 445.679 122.417 442.911Z" fill="black"/>
<path d="M104.859 442.911C105.564 445.679 105.564 448.579 104.859 451.347C104.481 449.974 104.303 448.553 104.332 447.129C104.309 445.705 104.486 444.285 104.859 442.911Z" fill="black"/>
<path d="M117.207 442.911C117.912 445.679 117.912 448.579 117.207 451.347C116.503 448.579 116.503 445.679 117.207 442.911Z" fill="black"/>
<path d="M118.979 442.911C119.353 444.285 119.53 445.705 119.507 447.129C119.535 448.553 119.358 449.974 118.979 451.347C118.607 449.973 118.429 448.553 118.452 447.129C118.434 445.706 118.611 444.286 118.979 442.911Z" fill="black"/>
<path d="M137.349 442.911C137.717 444.286 137.894 445.706 137.876 447.129C137.899 448.553 137.721 449.973 137.349 451.347C136.97 449.974 136.793 448.553 136.821 447.129C136.798 445.705 136.975 444.285 137.349 442.911Z" fill="black"/>
<path d="M140.016 442.911C140.721 445.679 140.721 448.579 140.016 451.347C139.312 448.579 139.312 445.679 140.016 442.911Z" fill="black"/>
<path d="M133.553 442.911C133.926 444.285 134.103 445.705 134.08 447.129C134.109 448.553 133.931 449.974 133.553 451.347C133.18 449.973 133.002 448.553 133.025 447.129C133.007 445.706 133.185 444.286 133.553 442.911Z" fill="black"/>
<path d="M109.172 442.911C109.877 445.679 109.877 448.579 109.172 451.347C108.467 448.579 108.467 445.679 109.172 442.911Z" fill="black"/>
</g>
<path opacity="0.1" d="M142.157 441.94V444.176L94.4517 445.684V441.94H142.157Z" fill="black"/>
<path d="M150.151 431.396H102.445V441.941H150.151V431.396Z" fill="#FFC727"/>
<g opacity="0.1">
<path d="M104.395 432.365C105.098 435.133 105.098 438.033 104.395 440.801C103.692 438.033 103.692 435.133 104.395 432.365Z" fill="black"/>
<path d="M107.96 432.365C108.663 435.133 108.663 438.033 107.96 440.801C107.257 438.033 107.257 435.133 107.96 432.365Z" fill="black"/>
<path d="M109.668 432.365C110.371 435.133 110.371 438.033 109.668 440.801C109.291 439.428 109.113 438.007 109.141 436.583C109.119 435.159 109.296 433.74 109.668 432.365Z" fill="black"/>
<path d="M119.222 432.365C119.925 435.133 119.925 438.033 119.222 440.801C118.519 438.033 118.519 435.133 119.222 432.365Z" fill="black"/>
<path d="M121.805 432.365C122.508 435.133 122.508 438.033 121.805 440.801C121.102 438.033 121.102 435.133 121.805 432.365Z" fill="black"/>
<path d="M132.456 432.365C133.159 435.133 133.159 438.033 132.456 440.801C131.753 438.033 131.753 435.133 132.456 432.365Z" fill="black"/>
<path d="M134.976 432.365C135.343 433.741 135.521 435.16 135.504 436.583C135.526 438.007 135.349 439.427 134.976 440.801C134.599 439.428 134.421 438.007 134.449 436.583C134.427 435.159 134.604 433.74 134.976 432.365Z" fill="black"/>
<path d="M139.447 432.365C140.15 435.133 140.15 438.033 139.447 440.801C138.744 438.033 138.744 435.133 139.447 432.365Z" fill="black"/>
<path d="M130.399 432.365C130.772 433.74 130.949 435.159 130.927 436.583C130.954 438.007 130.777 439.428 130.399 440.801C129.696 438.033 129.696 435.133 130.399 432.365Z" fill="black"/>
<path d="M112.831 432.365C113.534 435.133 113.534 438.033 112.831 440.801C112.128 438.033 112.128 435.133 112.831 432.365Z" fill="black"/>
<path d="M125.19 432.365C125.893 435.133 125.893 438.033 125.19 440.801C124.487 438.033 124.487 435.133 125.19 432.365Z" fill="black"/>
<path d="M126.972 432.365C127.675 435.133 127.675 438.033 126.972 440.801C126.269 438.033 126.269 435.133 126.972 432.365Z" fill="black"/>
<path d="M145.342 432.365C146.045 435.133 146.045 438.033 145.342 440.801C144.639 438.033 144.639 435.133 145.342 432.365Z" fill="black"/>
<path d="M147.999 432.365C148.702 435.133 148.702 438.033 147.999 440.801C147.296 438.033 147.296 435.133 147.999 432.365Z" fill="black"/>
<path d="M141.545 432.365C142.248 435.133 142.248 438.033 141.545 440.801C140.842 438.033 140.842 435.133 141.545 432.365Z" fill="black"/>
<path d="M117.165 432.365C117.538 433.74 117.715 435.159 117.693 436.583C117.72 438.007 117.543 439.428 117.165 440.801C116.793 439.427 116.616 438.007 116.638 436.583C116.621 435.16 116.798 433.741 117.165 432.365Z" fill="black"/>
</g>
<path opacity="0.1" d="M150.14 431.396V433.642L102.445 435.15V431.396H150.14Z" fill="black"/>
<path d="M146.154 420.945H98.4482V431.49H146.154V420.945Z" fill="#FFC727"/>
<g opacity="0.1">
<path d="M144.013 430.341C143.308 427.573 143.308 424.673 144.013 421.905C144.718 424.673 144.718 427.573 144.013 430.341Z" fill="black"/>
<path d="M140.459 430.341C140.086 428.967 139.909 427.547 139.932 426.123C139.904 424.699 140.081 423.278 140.459 421.905C141.164 424.673 141.164 427.573 140.459 430.341Z" fill="black"/>
<path d="M138.72 430.341C138.015 427.573 138.015 424.673 138.72 421.905C139.098 423.278 139.275 424.699 139.247 426.123C139.27 427.547 139.093 428.967 138.72 430.341Z" fill="black"/>
<path d="M129.197 430.341C128.492 427.573 128.492 424.673 129.197 421.905C129.902 424.673 129.902 427.573 129.197 430.341Z" fill="black"/>
<path d="M126.614 430.341C125.909 427.573 125.909 424.673 126.614 421.905C127.318 424.673 127.318 427.573 126.614 430.341Z" fill="black"/>
<path d="M115.994 430.341C115.29 427.573 115.29 424.673 115.994 421.905C116.699 424.673 116.699 427.573 115.994 430.341Z" fill="black"/>
<path d="M113.496 430.341C113.128 428.966 112.95 427.547 112.968 426.123C112.945 424.7 113.123 423.28 113.496 421.905C113.874 423.278 114.051 424.699 114.023 426.123C114.046 427.547 113.869 428.967 113.496 430.341Z" fill="black"/>
<path d="M108.972 430.341C108.267 427.573 108.267 424.673 108.972 421.905C109.677 424.673 109.677 427.573 108.972 430.341Z" fill="black"/>
<path d="M118.019 430.341C117.646 428.967 117.469 427.547 117.492 426.123C117.464 424.699 117.641 423.278 118.019 421.905C118.392 423.28 118.57 424.7 118.547 426.123C118.565 427.547 118.387 428.966 118.019 430.341Z" fill="black"/>
<path d="M135.577 430.341C134.872 427.573 134.872 424.673 135.577 421.905C136.282 424.673 136.282 427.573 135.577 430.341Z" fill="black"/>
<path d="M123.229 430.341C122.524 427.573 122.524 424.673 123.229 421.905C123.934 424.673 123.934 427.573 123.229 430.341Z" fill="black"/>
<path d="M121.447 430.341C120.742 427.573 120.742 424.673 121.447 421.905C122.151 424.673 122.151 427.573 121.447 430.341Z" fill="black"/>
<path d="M103.077 430.341C102.372 427.573 102.372 424.673 103.077 421.905C103.782 424.673 103.782 427.573 103.077 430.341Z" fill="black"/>
<path d="M100.42 430.341C100.047 428.967 99.8692 427.547 99.8926 426.123C99.864 424.699 100.042 423.278 100.42 421.905C101.125 424.673 101.125 427.573 100.42 430.341Z" fill="black"/>
<path d="M106.873 430.341C106.169 427.573 106.169 424.673 106.873 421.905C107.578 424.673 107.578 427.573 106.873 430.341Z" fill="black"/>
<path d="M131.253 430.341C130.885 428.966 130.708 427.547 130.726 426.123C130.697 424.699 130.875 423.278 131.253 421.905C131.626 423.28 131.804 424.7 131.781 426.123C131.799 427.547 131.621 428.966 131.253 430.341Z" fill="black"/>
</g>
<path opacity="0.1" d="M146.154 420.945V423.191L98.4482 424.689V420.945H146.154Z" fill="black"/>
<path d="M42.7705 404.242C74.1736 409.873 65.8747 456.387 34.4294 450.746C2.98416 445.104 11.3147 398.601 42.7705 404.242Z" fill="#FFC727"/>
<path opacity="0.1" d="M42.7705 404.242C74.1736 409.873 65.8747 456.387 34.4294 450.746C2.98416 445.104 11.3147 398.601 42.7705 404.242Z" fill="black"/>
<path d="M39.8178 403.715C69.7446 409.083 61.4562 455.597 31.4767 450.219C1.49722 444.841 9.84888 398.337 39.8178 403.715Z" fill="#FFC727"/>
<path opacity="0.1" d="M16.6714 428.063C16.8296 436.341 21.6592 444.377 32.1937 446.264C57.0588 450.725 63.9553 412.119 39.1112 407.669L38.6261 407.585C61.9201 412.246 55.2451 448.784 31.5293 444.493C21.849 442.795 17.1881 435.635 16.6714 428.063Z" fill="black"/>
<g opacity="0.1">
<path d="M38.2359 412.489C38.4374 412.544 38.6101 412.674 38.7181 412.853C38.8261 413.031 38.8611 413.245 38.8158 413.449L38.4889 414.703C40.5262 415.375 42.3128 416.647 43.6138 418.352C43.7269 418.458 43.8106 418.591 43.8568 418.739C43.903 418.887 43.9101 419.044 43.8774 419.196C43.851 419.306 43.802 419.41 43.7335 419.5C43.665 419.591 43.5785 419.666 43.4794 419.722C43.3804 419.777 43.2709 419.812 43.1579 419.823C43.045 419.834 42.9309 419.821 42.8229 419.786C42.7136 419.766 42.6099 419.723 42.5189 419.659C42.4279 419.596 42.3517 419.513 42.2957 419.417C41.2368 417.944 39.7709 416.811 38.0777 416.159L35.8527 425.111C40.4503 427.336 42.0426 429.667 41.2623 432.799C40.4187 436.184 36.981 437.871 32.9528 437.017L32.3306 439.505C32.2807 439.707 32.153 439.882 31.9753 439.99C31.7976 440.099 31.5843 440.133 31.3816 440.085C31.1786 440.033 31.0043 439.903 30.8958 439.724C30.7874 439.544 30.7536 439.33 30.8016 439.126L31.4343 436.605C28.8121 435.739 26.5551 434.021 25.0229 431.723C24.9073 431.591 24.8365 431.425 24.8207 431.25C24.805 431.075 24.845 430.899 24.9351 430.748C25.0252 430.597 25.1608 430.479 25.3224 430.409C25.4841 430.34 25.6634 430.324 25.8349 430.363C25.9419 430.385 26.043 430.43 26.1319 430.493C26.2209 430.557 26.2957 430.638 26.3516 430.732C27.628 432.797 29.5693 434.367 31.8561 435.182L34.1233 426.092C29.5995 423.846 28.0599 421.589 28.8508 418.405C29.6417 415.22 33.0688 413.417 37.0021 414.303L37.2974 413.08C37.3475 412.879 37.4731 412.706 37.648 412.596C37.8229 412.486 38.0335 412.447 38.2359 412.489ZM34.5135 424.437L36.6857 415.758C33.5222 415.051 31.0652 416.391 30.4958 418.689C29.9264 420.988 30.6434 422.422 34.5135 424.437ZM35.4309 426.735L33.227 435.551C36.3905 436.279 38.974 434.95 39.554 432.525C40.1234 430.321 39.3431 428.697 35.4309 426.735Z" fill="black"/>
</g>
</svg>
