<svg width="29" height="29" viewBox="0 0 29 29" fill="none" xmlns="http://www.w3.org/2000/svg">
<path d="M16.9163 18.125L12.083 22.9583L16.9163 27.7917" stroke="#656565"/>
<path d="M21.8248 10.2702C22.6122 11.6339 23.0032 13.1904 22.9539 14.7644C22.9045 16.3383 22.4168 17.8672 21.5455 19.179C20.6743 20.4908 19.4542 21.5333 18.0225 22.1891C16.5909 22.845 15.0046 23.0882 13.4422 22.8913" stroke="#656565" stroke-linecap="round"/>
<path d="M12.0837 10.875L16.917 6.04167L12.0837 1.20833" stroke="#656565"/>
<path d="M7.17519 18.7298C6.3764 17.3463 5.98577 15.7648 6.04852 14.1685C6.11126 12.5721 6.62482 11.0262 7.52974 9.70959C8.43465 8.39301 9.69393 7.35963 11.1618 6.72906C12.6297 6.09849 14.2461 5.89652 15.824 6.14653" stroke="#656565" stroke-linecap="round"/>
</svg>
