<svg width="31" height="31" viewBox="0 0 31 31" fill="none" xmlns="http://www.w3.org/2000/svg">
<circle cx="15.5003" cy="15.4993" r="10.3333" fill="#EFFEF7"/>
<path d="M12.2705 15.4993L14.7478 17.9766C14.8064 18.0352 14.9013 18.0352 14.9599 17.9766L20.0205 12.916" stroke="#4CE7A0" stroke-width="1.2"/>
<path d="M25.3337 15.4993C25.3337 17.4442 24.7569 19.3454 23.6764 20.9625C22.5959 22.5795 21.0602 23.8399 19.2634 24.5842C17.4666 25.3284 15.4894 25.5232 13.5819 25.1437C11.6745 24.7643 9.92233 23.8278 8.54711 22.4526C7.17189 21.0773 6.23536 19.3252 5.85594 17.4177C5.47652 15.5103 5.67125 13.5331 6.41551 11.7363C7.15977 9.93949 8.42013 8.40373 10.0372 7.32323C11.6543 6.24273 13.5555 5.66602 15.5003 5.66602" stroke="#4CE7A0" stroke-linecap="round"/>
</svg>
