<svg width="1440" height="599" viewBox="0 0 1440 599" fill="none" xmlns="http://www.w3.org/2000/svg">
<path d="M-121 230.659C-121 150.289 -72.8913 77.7266 1.13757 46.4377L12.6583 41.5684C73.0859 16.0282 142.197 21.747 197.605 56.8722L251.063 90.762C311.365 128.99 387.471 132.172 450.754 99.1129L542 51.445L584.829 25.0477C644.852 -11.947 721.874 -6.06672 775.585 39.6112L778.877 42.4109C785.937 48.4148 792.302 55.19 797.855 62.61C836.062 113.667 906.729 127.492 961.36 94.5961L1009.79 65.437C1074.72 26.3351 1156.86 30.3758 1217.64 75.663L1266.04 111.717C1299.3 136.497 1344.09 139.169 1380.07 118.519C1449.47 78.6759 1536 128.777 1536 208.803V399C1536 509.457 1446.46 599 1336 599H79C-31.4569 599 -121 509.457 -121 399V230.659Z" fill="#EFFEF7"/>
</svg>
