<svg width="39" height="39" viewBox="0 0 39 39" fill="none" xmlns="http://www.w3.org/2000/svg">
<path fill-rule="evenodd" clip-rule="evenodd" d="M26.4757 27.7225C25.7831 30.5899 25.3711 34.7594 23.2789 36.9194C19.9384 40.3676 16.3055 34.9167 15.1897 32.3104C14.8939 31.6187 14.6054 30.9224 14.3487 30.2149C14.0431 29.3732 13.7522 28.5247 13.4939 27.6671C10.7536 28.6691 7.22585 29.4682 4.31943 28.9411C1.88419 28.4993 0.717383 26.6425 1.58287 24.2784C2.61599 21.4555 5.03881 18.9528 7.11725 16.8611C6.23732 13.8812 5.29839 10.8321 5.16286 7.72686C5.03293 4.74178 7.2521 3.29803 10.0195 4.14967C10.9136 4.4247 11.7742 4.80214 12.6054 5.22978C13.7238 5.80549 16.2895 7.40089 16.9559 7.78564C17.0539 7.78571 17.5848 7.22903 17.6876 7.14147C18.3867 6.5471 19.0932 5.97036 19.8268 5.41861C20.3806 5.00247 20.938 4.59044 21.4996 4.18524C23.4982 2.74303 28.4665 -1.37546 30.2389 2.30948C30.4188 2.68406 30.5213 3.08377 30.5884 3.49213C30.6988 4.16667 30.6809 4.87726 30.648 5.55816C30.5862 6.8366 30.3846 8.102 30.1925 9.36513C29.9059 11.2518 29.4916 13.1349 29.2847 15.0334C29.2823 15.0568 29.2771 15.08 29.2707 15.1029C30.248 15.6996 31.2324 16.2906 32.1946 16.9121C34.2938 18.2675 37.9981 19.6562 37.7023 22.3586C37.5426 23.82 36.2631 24.7253 35.0213 25.2685C32.4986 26.3713 29.7304 26.748 27.0294 27.1435" fill="white"/>
<path d="M26.4757 27.7225C25.7831 30.5899 25.3711 34.7594 23.2789 36.9194C19.9384 40.3676 16.3055 34.9167 15.1897 32.3104C14.8939 31.6187 14.6054 30.9224 14.3487 30.2149C14.0431 29.3732 13.7522 28.5247 13.4939 27.6671C10.7536 28.6691 7.22585 29.4682 4.31943 28.9411C1.8842 28.4993 0.717382 26.6425 1.58287 24.2784C2.61599 21.4555 5.03881 18.9528 7.11725 16.8611C6.23732 13.8812 5.29839 10.8321 5.16286 7.72686C5.03293 4.74178 7.2521 3.29803 10.0195 4.14967C10.9136 4.4247 11.7742 4.80214 12.6054 5.22978C13.7238 5.80549 16.2895 7.40089 16.9559 7.78564C17.0539 7.78571 17.5848 7.22903 17.6876 7.14147C18.3867 6.5471 19.0932 5.97036 19.8268 5.41861C20.3806 5.00247 20.938 4.59044 21.4996 4.18524C23.4982 2.74302 28.4665 -1.37546 30.2389 2.30948C30.4188 2.68406 30.5213 3.08377 30.5884 3.49213C30.6988 4.16667 30.6809 4.87726 30.648 5.55816C30.5862 6.8366 30.3846 8.102 30.1925 9.36513C29.9059 11.2518 29.4916 13.1349 29.2847 15.0334C29.2823 15.0568 29.2771 15.08 29.2707 15.1029C30.248 15.6996 31.2324 16.2906 32.1946 16.9121C34.2938 18.2675 37.9981 19.6562 37.7023 22.3586C37.5426 23.82 36.2631 24.7253 35.0213 25.2685C32.4986 26.3713 29.7304 26.748 27.0294 27.1435" stroke="#2F2965" stroke-miterlimit="1.5" stroke-linecap="round" stroke-linejoin="round"/>
</svg>
