<svg width="35" height="36" viewBox="0 0 35 36" fill="none" xmlns="http://www.w3.org/2000/svg">
<path fill-rule="evenodd" clip-rule="evenodd" d="M31.4027 19.2779C32.1557 15.5707 29.8859 5.40699 19.248 2.86168C16.6458 2.23901 15.2816 6.68052 13.6896 8.81305C8.97934 7.19178 5.72623 9.78921 5.04232 13.327C3.63205 20.6229 9.6859 29.1166 16.4717 30.5907C19.2225 31.188 22.8982 31.322 24.6897 27.4152C25.9991 24.56 24.8888 23.6307 24.8637 22.5591C26.9638 21.341 29.226 20.359 31.4027 19.2779Z" stroke="#2F2965" stroke-width="2" stroke-miterlimit="1.5" stroke-linecap="round" stroke-linejoin="round"/>
<path d="M13.8582 8.61672C12.7958 9.97313 11.7896 11.4157 10.8816 12.8806" stroke="#2F2965" stroke-width="2" stroke-miterlimit="1.5" stroke-linecap="round" stroke-linejoin="round"/>
<path d="M24.8839 22.5662C23.3239 23.2343 21.681 23.7155 20.1198 24.3865" stroke="#2F2965" stroke-width="2" stroke-miterlimit="1.5" stroke-linecap="round" stroke-linejoin="round"/>
<path d="M1.98194 28.6066C4.00289 27.3598 5.80998 25.6487 7.72333 24.229" stroke="#2F2965" stroke-width="2" stroke-miterlimit="1.5" stroke-linecap="round" stroke-linejoin="round"/>
<path d="M18.4715 3.53762C17.9164 4.92892 18.0948 6.4814 18.4057 7.90465C19.1953 11.5168 21.7289 15.4431 25.2039 17.0271" stroke="#2F2965" stroke-width="2" stroke-miterlimit="1.5" stroke-linecap="round" stroke-linejoin="round"/>
</svg>
