<svg width="50" height="50" viewBox="0 0 50 50" fill="none" xmlns="http://www.w3.org/2000/svg">
<path d="M29.0892 26.0692C27.3631 32.6699 24.1332 37.542 21.8751 36.9515C19.6169 36.361 19.1855 30.5314 20.9116 23.9308C22.6377 17.3301 25.8676 12.458 28.1258 13.0485C30.384 13.639 30.8153 19.4686 29.0892 26.0692Z" stroke="#1F2A44"/>
<path d="M29.0323 20.9685C33.8566 25.7928 35.9624 31.5087 33.7358 33.7353C31.5092 35.9619 25.7933 33.856 20.969 29.0317C16.1447 24.2074 14.0389 18.4915 16.2655 16.2649C18.4921 14.0383 24.208 16.1442 29.0323 20.9685Z" stroke="#1F2A44"/>
<path d="M23.8397 20.6684C30.4299 18.9026 36.2919 19.4104 36.9329 21.8027C37.5739 24.1949 32.7512 27.5657 26.161 29.3316C19.5709 31.0974 13.7089 30.5895 13.0679 28.1973C12.4269 25.805 17.2496 22.4342 23.8397 20.6684Z" stroke="#1F2A44"/>
<path d="M27.2329 24.9999C27.2329 26.2328 26.2334 27.2322 25.0005 27.2322C23.7677 27.2322 22.7682 26.2328 22.7682 24.9999C22.7682 23.767 23.7677 22.7676 25.0005 22.7676C26.2334 22.7676 27.2329 23.767 27.2329 24.9999Z" stroke="#1F2A44"/>
<path d="M21.8927 15.7067C21.8927 16.2643 21.4406 16.7164 20.8829 16.7164C20.3252 16.7164 19.8732 16.2643 19.8732 15.7067C19.8732 15.149 20.3252 14.6969 20.8829 14.6969C21.4406 14.6969 21.8927 15.149 21.8927 15.7067Z" stroke="#1F2A44"/>
<path d="M36.4137 25.0001C36.4137 25.5577 35.9616 26.0098 35.404 26.0098C34.8463 26.0098 34.3942 25.5577 34.3942 25.0001C34.3942 24.4424 34.8463 23.9903 35.404 23.9903C35.9616 23.9903 36.4137 24.4424 36.4137 25.0001Z" stroke="#1F2A44"/>
<path d="M20.9863 33.8087C20.9863 34.3663 20.5342 34.8184 19.9766 34.8184C19.4189 34.8184 18.9668 34.3663 18.9668 33.8087C18.9668 33.251 19.4189 32.7989 19.9766 32.7989C20.5342 32.7989 20.9863 33.251 20.9863 33.8087Z" stroke="#1F2A44"/>
</svg>
