<svg width="50" height="50" viewBox="0 0 50 50" fill="none" xmlns="http://www.w3.org/2000/svg">
<path d="M21.0945 16.6095C20.8184 16.6094 20.5945 16.8333 20.5945 17.1094C20.5945 17.3856 20.8183 17.6094 21.0944 17.6095L21.0945 16.6095ZM25.88 17.6096C26.1561 17.6096 26.38 17.3857 26.38 17.1096C26.38 16.8334 26.1561 16.6096 25.88 16.6096V17.6096ZM21.8931 23.985L22.0455 24.4612L22.3931 24.35V23.985H21.8931ZM25.2071 24.0302H24.7071V24.3847L25.0416 24.502L25.2071 24.0302ZM19.1771 36.5C18.901 36.5 18.6771 36.7239 18.6771 37C18.6771 37.2761 18.901 37.5 19.1771 37.5V36.5ZM30.7841 37V37.5C31.0602 37.5 31.2841 37.2761 31.2841 37H30.7841ZM31.2841 14.2681C31.2841 13.9919 31.0602 13.7681 30.7841 13.7681C30.508 13.7681 30.2841 13.9919 30.2841 14.2681H31.2841ZM26.1182 19.9308V19.4308C26.0743 19.4308 26.0307 19.4366 25.9883 19.448L26.1182 19.9308ZM21.1967 19.4527C20.9327 19.3719 20.6531 19.5205 20.5723 19.7845C20.4915 20.0486 20.6401 20.3281 20.9042 20.4089L21.1967 19.4527ZM29.7588 27.9654C29.4827 27.9654 29.2588 28.1893 29.2588 28.4654C29.2588 28.7415 29.4827 28.9654 29.7588 28.9654V27.9654ZM31.7277 28.9654C32.0039 28.9654 32.2277 28.7415 32.2277 28.4654C32.2277 28.1893 32.0039 27.9654 31.7277 27.9654V28.9654ZM18.5814 28.5306L18.2497 28.9047C18.2743 28.9265 18.3011 28.9459 18.3296 28.9625L18.5814 28.5306ZM28.1737 28.5306L28.4255 28.9625C28.4483 28.9493 28.47 28.9342 28.4904 28.9175L28.1737 28.5306ZM28.6329 28.1548L29.1272 28.0793L28.6329 28.1548ZM21.8931 17.6096H25.2071V16.6096H21.8931V17.6096ZM21.8932 16.6096L21.0945 16.6095L21.0944 17.6095L21.893 17.6096L21.8932 16.6096ZM25.2071 17.6096H25.88V16.6096H25.2071V17.6096ZM28.1929 28.9483C28.1929 31.5497 26.0841 33.6585 23.4827 33.6585V34.6585C26.6364 34.6585 29.1929 32.102 29.1929 28.9483H28.1929ZM22.3931 23.985V17.1096H21.3931V23.985H22.3931ZM24.7071 17.1096V24.0302H25.7071V17.1096H24.7071ZM23.4827 33.6585C20.8813 33.6585 18.7725 31.5497 18.7725 28.9483H17.7725C17.7725 32.102 20.329 34.6585 23.4827 34.6585V33.6585ZM19.1771 37.5H30.7841V36.5H19.1771V37.5ZM31.2841 19.9308V14.2681H30.2841V19.9308H31.2841ZM30.7841 19.4308H26.1182V20.4308H30.7841V19.4308ZM25.9883 19.448C24.1698 19.9371 22.9665 19.9941 21.1967 19.4527L20.9042 20.4089C22.8882 21.0159 24.2867 20.9412 26.248 20.4136L25.9883 19.448ZM31.2841 37V28.4654H30.2841V37H31.2841ZM31.2841 28.4654V19.9308H30.2841V28.4654H31.2841ZM30.7841 27.9654H29.7588V28.9654H30.7841V27.9654ZM30.7841 28.9654H31.7277V27.9654H30.7841V28.9654ZM18.3296 28.9625C18.329 28.9622 18.3416 28.97 18.375 28.9948C18.4057 29.0178 18.4425 29.0464 18.4884 29.0824C18.5767 29.1517 18.6923 29.2429 18.8159 29.3309C18.9386 29.4184 19.0825 29.5124 19.2332 29.5859C19.3766 29.656 19.5696 29.7295 19.7804 29.7295V28.7295C19.7914 28.7295 19.7596 28.7301 19.672 28.6874C19.5916 28.6481 19.4982 28.5892 19.3961 28.5165C19.2948 28.4443 19.1981 28.3681 19.1053 28.2954C19.0278 28.2346 18.9203 28.1494 18.8332 28.0986L18.3296 28.9625ZM19.7804 29.7295C20.0234 29.7295 20.2222 29.6251 20.3544 29.5384C20.4887 29.4503 20.6156 29.3382 20.7091 29.2564C20.8154 29.1635 20.8884 29.1008 20.9539 29.0579C21.0215 29.0135 21.0226 29.0306 20.9795 29.0306V28.0306C20.7365 28.0306 20.5377 28.135 20.4055 28.2217C20.2712 28.3098 20.1444 28.4219 20.0509 28.5036C19.9445 28.5966 19.8715 28.6592 19.806 28.7022C19.7384 28.7465 19.7373 28.7295 19.7804 28.7295V29.7295ZM20.9795 29.0306C20.9363 29.0306 20.9374 29.0135 21.0051 29.0579C21.0705 29.1008 21.1436 29.1635 21.2499 29.2564C21.3434 29.3382 21.4702 29.4503 21.6046 29.5384C21.7368 29.6251 21.9355 29.7295 22.1785 29.7295V28.7295C22.2217 28.7295 22.2206 28.7465 22.153 28.7022C22.0875 28.6592 22.0145 28.5966 21.9081 28.5036C21.8146 28.4219 21.6878 28.3098 21.5534 28.2217C21.4212 28.135 21.2225 28.0306 20.9795 28.0306V29.0306ZM22.1785 29.7295C22.4215 29.7295 22.6203 29.6251 22.7525 29.5384C22.8868 29.4503 23.0137 29.3382 23.1072 29.2564C23.2135 29.1635 23.2865 29.1008 23.352 29.0579C23.4196 29.0135 23.4207 29.0306 23.3776 29.0306V28.0306C23.1346 28.0306 22.9358 28.135 22.8036 28.2217C22.6693 28.3098 22.5424 28.4219 22.4489 28.5036C22.3426 28.5966 22.2696 28.6592 22.2041 28.7022C22.1365 28.7465 22.1354 28.7295 22.1785 28.7295V29.7295ZM23.3776 29.0306C23.3344 29.0306 23.3355 29.0135 23.4032 29.0579C23.4686 29.1008 23.5416 29.1635 23.648 29.2564C23.7415 29.3382 23.8683 29.4503 24.0027 29.5384C24.1349 29.6251 24.3336 29.7295 24.5766 29.7295V28.7295C24.6198 28.7295 24.6187 28.7465 24.551 28.7022C24.4856 28.6592 24.4125 28.5966 24.3062 28.5036C24.2127 28.4219 24.0859 28.3098 23.9515 28.2217C23.8193 28.135 23.6206 28.0306 23.3776 28.0306V29.0306ZM24.5766 29.7295C24.8196 29.7295 25.0184 29.6251 25.1506 29.5384C25.2849 29.4503 25.4118 29.3382 25.5053 29.2564C25.6116 29.1635 25.6846 29.1008 25.7501 29.0579C25.8177 29.0135 25.8188 29.0306 25.7757 29.0306V28.0306C25.5327 28.0306 25.3339 28.135 25.2017 28.2217C25.0674 28.3098 24.9405 28.4219 24.847 28.5036C24.7407 28.5966 24.6677 28.6592 24.6022 28.7022C24.5346 28.7465 24.5335 28.7295 24.5766 28.7295V29.7295ZM25.7757 29.0306C25.7325 29.0306 25.7336 29.0135 25.8012 29.0579C25.8667 29.1008 25.9397 29.1635 26.0461 29.2564C26.1396 29.3382 26.2664 29.4503 26.4008 29.5384C26.533 29.6251 26.7317 29.7295 26.9747 29.7295V28.7295C27.0179 28.7295 27.0168 28.7465 26.9491 28.7022C26.8836 28.6592 26.8106 28.5966 26.7043 28.5036C26.6108 28.4219 26.484 28.3098 26.3496 28.2217C26.2174 28.135 26.0187 28.0306 25.7757 28.0306V29.0306ZM26.9747 29.7295C27.1855 29.7295 27.3785 29.656 27.522 29.5859C27.6727 29.5124 27.8166 29.4184 27.9393 29.3309C28.0628 29.2429 28.1784 29.1517 28.2668 29.0824C28.3127 29.0464 28.3494 29.0178 28.3802 28.9948C28.4135 28.97 28.4261 28.9622 28.4255 28.9625L27.922 28.0986C27.8349 28.1494 27.7274 28.2346 27.6498 28.2954C27.5571 28.3681 27.4603 28.4443 27.359 28.5165C27.2569 28.5892 27.1635 28.6481 27.0832 28.6874C26.9956 28.7301 26.9637 28.7295 26.9747 28.7295V29.7295ZM25.0416 24.502C26.6593 25.0692 27.8735 26.4948 28.1386 28.2304L29.1272 28.0793C28.8052 25.9721 27.3332 24.2457 25.3725 23.5583L25.0416 24.502ZM28.1386 28.2304C28.1744 28.4642 28.1929 28.7039 28.1929 28.9483H29.1929C29.1929 28.6532 29.1705 28.3629 29.1272 28.0793L28.1386 28.2304ZM28.4904 28.9175L28.9495 28.5418L28.3163 27.7679L27.8571 28.1436L28.4904 28.9175ZM18.7725 28.9483C18.7725 28.7471 18.785 28.5492 18.8094 28.3551L17.8172 28.2306C17.7877 28.4659 17.7725 28.7054 17.7725 28.9483H18.7725ZM18.8094 28.3551C19.0398 26.5195 20.3282 25.0107 22.0455 24.4612L21.7407 23.5088C19.6591 24.1749 18.0969 26.0021 17.8172 28.2306L18.8094 28.3551ZM18.9131 28.1565L18.645 27.9187L17.9816 28.6669L18.2497 28.9047L18.9131 28.1565ZM22.7529 32.5518C22.7529 32.4065 22.8708 32.2886 23.0161 32.2886V33.2886C23.4231 33.2886 23.7529 32.9588 23.7529 32.5518H22.7529ZM23.0161 32.2886C23.1615 32.2886 23.2794 32.4065 23.2794 32.5518H22.2794C22.2794 32.9588 22.6092 33.2886 23.0161 33.2886V32.2886ZM23.2794 32.5518C23.2794 32.6972 23.1615 32.8151 23.0161 32.8151V31.8151C22.6092 31.8151 22.2794 32.1449 22.2794 32.5518H23.2794ZM23.0161 32.8151C22.8708 32.8151 22.7529 32.6972 22.7529 32.5518H23.7529C23.7529 32.1449 23.4231 31.8151 23.0161 31.8151V32.8151ZM20.5978 31.0851C20.5978 30.9397 20.7156 30.8219 20.861 30.8219V31.8219C21.2679 31.8219 21.5978 31.492 21.5978 31.0851H20.5978ZM20.861 30.8219C21.0063 30.8219 21.1242 30.9397 21.1242 31.0851H20.1242C20.1242 31.492 20.4541 31.8219 20.861 31.8219V30.8219ZM21.1242 31.0851C21.1242 31.2304 21.0063 31.3483 20.861 31.3483V30.3483C20.4541 30.3483 20.1242 30.6782 20.1242 31.0851H21.1242ZM20.861 31.3483C20.7156 31.3483 20.5978 31.2304 20.5978 31.0851H21.5978C21.5978 30.6782 21.2679 30.3483 20.861 30.3483V31.3483ZM23.7584 30.6115C23.7584 30.4661 23.8762 30.3483 24.0216 30.3483V31.3483C24.4285 31.3483 24.7584 31.0184 24.7584 30.6115H23.7584ZM24.0216 30.3483C24.1669 30.3483 24.2848 30.4661 24.2848 30.6115H23.2848C23.2848 31.0184 23.6147 31.3483 24.0216 31.3483V30.3483ZM24.2848 30.6115C24.2848 30.7569 24.1669 30.8747 24.0216 30.8747V29.8747C23.6147 29.8747 23.2848 30.2046 23.2848 30.6115H24.2848ZM24.0216 30.8747C23.8762 30.8747 23.7584 30.7569 23.7584 30.6115H24.7584C24.7584 30.2046 24.4285 29.8747 24.0216 29.8747V30.8747ZM26.0985 31.0851C26.0985 30.9397 26.2164 30.8219 26.3617 30.8219V31.8219C26.7687 31.8219 27.0985 31.492 27.0985 31.0851H26.0985ZM26.3617 30.8219C26.5071 30.8219 26.625 30.9397 26.625 31.0851H25.625C25.625 31.492 25.9548 31.8219 26.3617 31.8219V30.8219ZM26.625 31.0851C26.625 31.2304 26.5071 31.3483 26.3617 31.3483V30.3483C25.9548 30.3483 25.625 30.6782 25.625 31.0851H26.625ZM26.3617 31.3483C26.2164 31.3483 26.0985 31.2304 26.0985 31.0851H27.0985C27.0985 30.6782 26.7687 30.3483 26.3617 30.3483V31.3483ZM23.3512 15.7633C23.3512 15.6179 23.469 15.5 23.6144 15.5V16.5C24.0213 16.5 24.3512 16.1702 24.3512 15.7633H23.3512ZM23.6144 15.5C23.7597 15.5 23.8776 15.6179 23.8776 15.7633H22.8776C22.8776 16.1702 23.2074 16.5 23.6144 16.5V15.5ZM23.8776 15.7633C23.8776 15.9086 23.7597 16.0265 23.6144 16.0265V15.0265C23.2074 15.0265 22.8776 15.3563 22.8776 15.7633H23.8776ZM23.6144 16.0265C23.469 16.0265 23.3512 15.9086 23.3512 15.7633H24.3512C24.3512 15.3563 24.0213 15.0265 23.6144 15.0265V16.0265ZM23.7903 13.2368C23.7903 13.0914 23.9081 12.9736 24.0535 12.9736V13.9736C24.4604 13.9736 24.7903 13.6437 24.7903 13.2368H23.7903ZM24.0535 12.9736C24.1989 12.9736 24.3167 13.0914 24.3167 13.2368H23.3167C23.3167 13.6437 23.6466 13.9736 24.0535 13.9736V12.9736ZM24.3167 13.2368C24.3167 13.3822 24.1989 13.5 24.0535 13.5V12.5C23.6466 12.5 23.3167 12.8299 23.3167 13.2368H24.3167ZM24.0535 13.5C23.9081 13.5 23.7903 13.3822 23.7903 13.2368H24.7903C24.7903 12.8299 24.4604 12.5 24.0535 12.5V13.5ZM22.3323 14.2681C22.3323 14.1227 22.4502 14.0049 22.5956 14.0049V15.0049C23.0025 15.0049 23.3323 14.675 23.3323 14.2681H22.3323ZM22.5956 14.0049C22.7409 14.0049 22.8588 14.1227 22.8588 14.2681H21.8588C21.8588 14.675 22.1886 15.0049 22.5956 15.0049V14.0049ZM22.8588 14.2681C22.8588 14.4134 22.7409 14.5313 22.5956 14.5313V13.5313C22.1886 13.5313 21.8588 13.8611 21.8588 14.2681H22.8588ZM22.5956 14.5313C22.4502 14.5313 22.3323 14.4134 22.3323 14.2681H23.3323C23.3323 13.8611 23.0025 13.5313 22.5956 13.5313V14.5313Z" fill="#1F2A44"/>
</svg>
