<svg width="365" height="223" viewBox="0 0 365 223" fill="none" xmlns="http://www.w3.org/2000/svg">
<path d="M1.30664 206.291H359.569" stroke="#263238" stroke-linecap="round" stroke-linejoin="round"/>
<path d="M173.621 200.804H164.747V203.096H173.621V200.804Z" fill="white" stroke="#263238" stroke-linecap="round" stroke-linejoin="round"/>
<path d="M171.085 182.195H167.287V200.803H171.085V182.195Z" fill="white" stroke="#263238" stroke-linecap="round" stroke-linejoin="round"/>
<path d="M172.339 181.484H166.035V187.654H172.339V181.484Z" fill="white" stroke="#263238" stroke-linecap="round" stroke-linejoin="round"/>
<path d="M158.324 202.956H180.049C180.708 202.956 181.34 203.218 181.807 203.684C182.273 204.15 182.535 204.783 182.535 205.442V206.317H155.838V205.467C155.835 205.138 155.897 204.812 156.02 204.508C156.144 204.203 156.326 203.926 156.557 203.693C156.788 203.459 157.064 203.274 157.367 203.148C157.67 203.021 157.995 202.956 158.324 202.956Z" fill="white" stroke="#263238" stroke-linecap="round" stroke-linejoin="round"/>
<path d="M170.952 177.801C170.952 179.824 170.161 181.46 169.187 181.46C168.212 181.46 167.422 179.824 167.422 177.801C167.422 175.778 168.481 171.935 169.187 171.935C169.893 171.935 170.952 175.778 170.952 177.801Z" fill="#92E3A9" stroke="#263238" stroke-linecap="round" stroke-linejoin="round"/>
<path d="M170.42 179.327C170.42 180.505 169.868 181.459 169.187 181.459C168.506 181.459 167.949 180.505 167.949 179.327C167.949 178.148 168.69 175.906 169.187 175.906C169.684 175.906 170.42 178.148 170.42 179.327Z" fill="white" stroke="#263238" stroke-linecap="round" stroke-linejoin="round"/>
<path d="M172.741 192.044H171.065V196.101H172.741V192.044Z" fill="#263238" stroke="#263238" stroke-linecap="round" stroke-linejoin="round"/>
<path d="M69.9066 170.616L68.3655 170.949L67.2568 169.528L70.3391 168.861L69.9066 170.616Z" fill="white" stroke="#263238" stroke-linecap="round" stroke-linejoin="round"/>
<path d="M68.7531 161.485L65.6719 162.149L67.2416 169.434L70.3228 168.77L68.7531 161.485Z" fill="white" stroke="#263238" stroke-linecap="round" stroke-linejoin="round"/>
<path d="M64.5319 170.676L63.125 169.965L63.1499 168.16L65.9687 169.572L64.5319 170.676Z" fill="white" stroke="#263238" stroke-linecap="round" stroke-linejoin="round"/>
<path d="M69.3561 162.828L66.5391 161.414L63.1965 168.075L66.0135 169.488L69.3561 162.828Z" fill="white" stroke="#263238" stroke-linecap="round" stroke-linejoin="round"/>
<path d="M60.152 168.707L58.7451 168.001L58.77 166.191L61.5888 167.603L60.152 168.707Z" fill="white" stroke="#263238" stroke-linecap="round" stroke-linejoin="round"/>
<path d="M64.9753 160.868L62.1582 159.454L58.8156 166.115L61.6326 167.528L64.9753 160.868Z" fill="white" stroke="#263238" stroke-linecap="round" stroke-linejoin="round"/>
<path d="M62.6035 183.468H39.1035V189.19H62.6035V183.468Z" fill="#263238" stroke="#263238" stroke-linecap="round" stroke-linejoin="round"/>
<path d="M44.7305 196.373H78.9141C79.9861 196.373 81.0141 196.799 81.7721 197.557C82.5301 198.315 82.9559 199.343 82.9559 200.415V206.316H44.7305V196.373Z" fill="white" stroke="#263238" stroke-linecap="round" stroke-linejoin="round"/>
<path d="M82.6528 201.319H54.5293" stroke="#263238" stroke-linecap="round" stroke-linejoin="round"/>
<path d="M54.4504 183.468H39.1035V206.292H54.4504V183.468Z" fill="#263238" stroke="#263238" stroke-linecap="round" stroke-linejoin="round"/>
<path d="M105.79 138.486L75.9713 150.343L74.7334 147.206L104.547 135.349L105.79 138.486Z" fill="#263238" stroke="#263238" stroke-linecap="round" stroke-linejoin="round"/>
<path d="M94.6497 138.762L93.1104 139.371L94.7403 143.49L96.2796 142.881L94.6497 138.762Z" fill="white" stroke="#263238" stroke-linecap="round" stroke-linejoin="round"/>
<path d="M87.1216 140.58L74.1514 145.715L76.5671 151.816L89.5374 146.681L87.1216 140.58Z" fill="#263238" stroke="#263238" stroke-linecap="round" stroke-linejoin="round"/>
<path d="M81.1765 153.092L76.8961 159.371L59.7695 159.937L39.0783 196.04C39.0783 196.04 32.6602 186.197 32.6602 181.489V181.344C32.6819 177.603 33.8248 173.955 35.9413 170.87L54.4898 143.676H76.1802L81.1765 153.092Z" fill="white" stroke="#263238" stroke-linecap="round" stroke-linejoin="round"/>
<path d="M81.1763 153.092H48.499" stroke="#263238" stroke-linecap="round" stroke-linejoin="round"/>
<path d="M71.4721 140.221H60.7686V143.646H71.4721V140.221Z" fill="#263238" stroke="#263238" stroke-linecap="round" stroke-linejoin="round"/>
<path d="M39.173 183.203C38.6917 183.204 38.2189 183.077 37.8028 182.835C37.3867 182.593 37.0422 182.245 36.8046 181.826C36.567 181.408 36.4448 180.934 36.4504 180.452C36.456 179.971 36.5892 179.5 36.8364 179.087L47.53 161.19C47.8999 160.57 48.5007 160.123 49.2005 159.946C49.9002 159.769 50.6414 159.878 51.2611 160.248C51.8808 160.618 52.3282 161.218 52.5049 161.918C52.6816 162.618 52.573 163.359 52.2032 163.979L41.5146 181.876C41.2726 182.281 40.9296 182.616 40.5192 182.849C40.1087 183.082 39.6449 183.204 39.173 183.203Z" fill="#263238" stroke="#263238" stroke-linecap="round" stroke-linejoin="round"/>
<path d="M76.8965 159.371L72.984 166.326L59.2578 160.833L63.1604 154.335L76.8965 159.371Z" fill="#263238" stroke="#263238" stroke-linecap="round" stroke-linejoin="round"/>
<path d="M78.8001 176.413H56.9805V178.098H78.8001V176.413Z" fill="#263238" stroke="#263238" stroke-linecap="round" stroke-linejoin="round"/>
<path d="M71.0845 178.173H56.9805V183.229H71.0845V178.173Z" fill="white" stroke="#263238" stroke-linecap="round" stroke-linejoin="round"/>
<path d="M51.1982 195.551C53.9521 195.089 55.8107 192.483 55.3493 189.729C54.888 186.975 52.2814 185.116 49.5275 185.578C46.7735 186.039 44.915 188.646 45.3764 191.4C45.8377 194.154 48.4442 196.012 51.1982 195.551Z" fill="white" stroke="#263238" stroke-linecap="round" stroke-linejoin="round"/>
<path d="M61.2456 186.157C61.2446 185.716 61.1129 185.285 60.867 184.918C60.6211 184.552 60.2722 184.266 59.8642 184.098C59.4562 183.93 59.0076 183.886 58.5749 183.973C58.1422 184.06 57.745 184.273 57.4333 184.585C57.1216 184.898 56.9095 185.295 56.8238 185.728C56.7381 186.161 56.7825 186.61 56.9516 187.017C57.1207 187.425 57.4068 187.773 57.7738 188.018C58.1408 188.263 58.5722 188.394 59.0134 188.394C59.307 188.394 59.5976 188.336 59.8688 188.224C60.1399 188.111 60.3862 187.946 60.5936 187.739C60.8009 187.531 60.9652 187.284 61.0771 187.013C61.189 186.741 61.2463 186.45 61.2456 186.157Z" fill="white" stroke="#263238" stroke-linecap="round" stroke-linejoin="round"/>
<path d="M279.647 85.2668V83.3827C279.647 82.9199 279.831 82.476 280.159 82.1488C280.486 81.8215 280.93 81.6377 281.392 81.6377H293.821" stroke="#263238" stroke-width="4" stroke-miterlimit="10"/>
<path d="M267.149 113.674C267.505 114.113 267.985 114.436 268.526 114.598C271.45 115.742 274.243 117.139 277.082 118.411L267.741 122.607C267.542 122.678 267.369 122.806 267.241 122.973C267.113 123.141 267.036 123.342 267.02 123.552C266.999 123.788 267.058 124.024 267.187 124.223C267.315 124.422 267.507 124.573 267.731 124.651L277.082 128.846L267.741 133.037C267.546 133.108 267.375 133.232 267.247 133.396C267.12 133.56 267.041 133.756 267.02 133.962C267.002 134.196 267.062 134.429 267.19 134.625C267.319 134.822 267.509 134.969 267.731 135.046L278.121 139.709V154.405H281.104V143.965C281.104 142.617 281.576 141.265 281.233 139.923C280.736 137.934 278.25 137.134 276.177 136.219L271.45 134.126L271.295 134.056L280.378 129.985C281.074 129.672 281.696 129.428 281.556 128.687C281.387 127.797 279.692 127.435 278.812 127.032L275.7 125.635L272.638 124.263C272.199 124.014 271.738 123.806 271.261 123.641L274.989 121.971L277.907 120.658C278.554 120.37 279.17 120.037 279.831 119.769C280.393 119.545 281.189 119.237 281.477 118.774C281.865 118.153 281.084 117.661 280.458 117.357C279.603 116.95 278.708 116.562 277.838 116.169L274.855 114.837L272.23 113.659C271.881 113.46 271.515 113.294 271.136 113.161C274.185 111.796 277.238 110.431 280.294 109.065L280.373 109.03C281.119 108.687 281.74 108.255 281.477 107.539C281.159 106.699 279.747 106.49 278.862 106.092L276.003 104.809L271.445 102.761L271.39 102.736L275.765 100.773C276.913 100.276 278.146 99.9474 279.299 99.4254C280.592 98.8437 281.402 98.4311 281.402 97.0739V91.8887H278.419V96.9745C278.419 97.2081 275.839 98.1328 275.566 98.2571C273.234 99.3061 270.878 100.32 268.516 101.334C268.123 101.476 267.753 101.675 267.418 101.926C266.737 102.503 266.975 103.278 267.736 103.736C268.482 104.107 269.247 104.439 270.028 104.73L273.11 106.112L275.894 107.36C276.268 107.571 276.661 107.748 277.067 107.887C274.084 109.234 271.062 110.551 268.084 111.919C267.269 112.296 266.682 112.928 267.149 113.674Z" fill="white" stroke="#263238" stroke-linecap="round" stroke-linejoin="round"/>
<path d="M271.405 102.731L269.401 103.422" stroke="#263238" stroke-miterlimit="10"/>
<path d="M277.082 107.882L278.916 106.923" stroke="#263238" stroke-miterlimit="10"/>
<path d="M271.151 113.146L269.401 113.922" stroke="#263238" stroke-miterlimit="10"/>
<path d="M277.082 118.412L279.076 117.542" stroke="#263238" stroke-miterlimit="10"/>
<path d="M271.26 123.626L269.709 124.426" stroke="#263238" stroke-miterlimit="10"/>
<path d="M277.082 128.846L278.916 127.927" stroke="#263238" stroke-miterlimit="10"/>
<path d="M283.689 85.3359H276.162V86.7429H277.256V90.8841C277.256 91.4458 277.867 91.9032 278.618 91.9032H281.228C281.979 91.9032 282.59 91.4458 282.59 90.8841V86.7429H283.689V85.3359Z" fill="white" stroke="#263238" stroke-linecap="round" stroke-linejoin="round"/>
<path d="M301.651 62.7412H296.113V65.3264H301.651V62.7412Z" fill="#263238" stroke="#263238" stroke-miterlimit="10"/>
<path d="M295.099 78.9033H291.465V85.1773H295.099V78.9033Z" fill="white" stroke="#263238" stroke-miterlimit="10"/>
<path d="M313.101 104.188H303.019V72.525C303.019 71.7775 302.816 71.044 302.433 70.4023C302.05 69.7607 301.499 69.2349 300.841 68.8809V65.2617H296.929V68.8809C296.27 69.2347 295.719 69.7602 295.335 70.4018C294.95 71.0434 294.747 71.7771 294.746 72.525V111.606C294.746 112.149 294.853 112.687 295.061 113.188C295.269 113.69 295.573 114.146 295.958 114.53C296.342 114.914 296.798 115.219 297.299 115.427C297.801 115.635 298.339 115.742 298.882 115.742C299.426 115.742 299.963 115.635 300.465 115.427C300.967 115.219 301.423 114.914 301.807 114.53C302.191 114.146 302.496 113.69 302.704 113.188C302.912 112.687 303.019 112.149 303.019 111.606V106.634H314.14C313.719 105.852 313.371 105.034 313.101 104.188Z" fill="white" stroke="#263238" stroke-linecap="round" stroke-linejoin="round"/>
<path d="M300.215 98.1227C300.16 97.72 299.608 97.5559 299.325 97.372L298.331 96.7406L296.889 95.8408L298.102 95.0851L299.051 94.4885C299.26 94.3593 299.459 94.2101 299.678 94.0908C299.896 93.9941 300.081 93.835 300.21 93.6334C300.334 93.355 300.081 93.1363 299.877 92.9971C299.673 92.8579 299.31 92.6342 299.027 92.4552L298.062 91.8537L297.212 91.3217C297.101 91.2348 296.981 91.1598 296.854 91.098L299.837 89.2486H299.867C300.11 89.0895 300.309 88.8956 300.225 88.5775C300.14 88.2593 299.663 88.0803 299.375 87.9212L298.445 87.3396L296.954 86.405L298.341 85.5101C298.713 85.2764 299.111 85.1372 299.484 84.9036C299.857 84.6699 300.17 84.4611 300.17 83.8397V82.4029C300.17 82.2835 300.146 82.1652 300.101 82.0548C300.055 81.9444 299.988 81.8441 299.904 81.7596C299.819 81.6752 299.719 81.6081 299.608 81.5624C299.498 81.5167 299.38 81.4932 299.26 81.4932H294.741V82.6813H298.291C298.41 82.6813 298.529 82.7049 298.639 82.7506C298.749 82.7963 298.85 82.8633 298.934 82.9478C299.019 83.0323 299.086 83.1326 299.131 83.243C299.177 83.3533 299.201 83.4716 299.201 83.5911V83.7949C299.201 83.8993 298.36 84.3219 298.276 84.3766C297.517 84.8505 296.753 85.3146 295.984 85.7686C295.851 85.8376 295.73 85.9283 295.626 86.0371C295.577 86.0964 295.54 86.1652 295.519 86.2392C295.497 86.3133 295.491 86.3909 295.501 86.4674C295.511 86.5439 295.536 86.6176 295.576 86.6838C295.615 86.75 295.668 86.8074 295.731 86.8524C295.968 87.0167 296.215 87.1662 296.471 87.2998L297.466 87.9262L298.37 88.493C298.4 88.493 298.718 88.7515 298.753 88.7316C297.759 89.3381 296.799 89.9347 295.835 90.5511C295.691 90.6185 295.578 90.7385 295.52 90.8864C295.462 91.0344 295.462 91.1991 295.522 91.3466C295.623 91.5294 295.78 91.6755 295.969 91.7642C296.924 92.2862 297.828 92.9176 298.753 93.4893L295.716 95.3884C295.643 95.4414 295.583 95.5109 295.542 95.5913C295.502 95.6716 295.48 95.7605 295.48 95.8507C295.48 95.9409 295.502 96.0298 295.542 96.1101C295.583 96.1905 295.643 96.26 295.716 96.313L298.753 98.2072L295.716 100.106C295.645 100.151 295.586 100.212 295.545 100.285C295.504 100.358 295.483 100.44 295.482 100.524C295.468 100.621 295.482 100.719 295.524 100.808C295.565 100.896 295.632 100.97 295.716 101.021L299.091 103.134V109.781H300.086V105.048C300.153 104.442 300.167 103.831 300.125 103.223C299.966 102.333 299.156 101.961 298.485 101.548L296.949 100.603L296.899 100.569L299.847 98.7292C300.061 98.5651 300.26 98.4359 300.215 98.1227Z" fill="white" stroke="#263238" stroke-miterlimit="10"/>
<path d="M329.004 73.8574H324.833V83.5368H329.004V73.8574Z" fill="#263238" stroke="#263238" stroke-linecap="round" stroke-linejoin="round"/>
<path d="M330.158 85.5797V78.1523H323.754V85.5797C320.57 86.2968 317.72 88.0651 315.663 90.5998C313.606 93.1345 312.462 96.2879 312.416 99.5518C312.371 102.816 313.425 106 315.41 108.592C317.394 111.183 320.194 113.031 323.357 113.837V119.982C323.353 120.18 323.39 120.377 323.463 120.56C323.536 120.744 323.646 120.912 323.785 121.053C323.923 121.194 324.089 121.306 324.272 121.383C324.454 121.459 324.65 121.498 324.848 121.498H328.989C329.387 121.491 329.765 121.328 330.044 121.044C330.323 120.761 330.48 120.38 330.481 119.982V113.847C333.644 113.041 336.443 111.193 338.428 108.601C340.413 106.01 341.467 102.826 341.421 99.5617C341.375 96.2978 340.231 93.1444 338.175 90.6097C336.118 88.0751 333.268 86.3067 330.083 85.5896L330.158 85.5797Z" fill="white" stroke="#263238" stroke-linecap="round" stroke-linejoin="round"/>
<path d="M331.261 76.1094H322.605V79.3756H331.261V76.1094Z" fill="#92E3A9" stroke="#263238" stroke-linecap="round" stroke-linejoin="round"/>
<path d="M291.624 176.742L284.504 149.096V141.539H274.427V149.096L267.313 176.742C267.202 177.175 267.191 177.628 267.281 178.066C267.372 178.504 267.561 178.916 267.835 179.269C268.109 179.623 268.46 179.909 268.862 180.106C269.263 180.303 269.705 180.406 270.152 180.406H288.785C289.232 180.406 289.673 180.303 290.075 180.106C290.477 179.909 290.828 179.623 291.102 179.269C291.376 178.916 291.565 178.504 291.655 178.066C291.746 177.628 291.735 177.175 291.624 176.742Z" fill="white" stroke="#263238" stroke-linecap="round" stroke-linejoin="round"/>
<path d="M285.797 162.771H273.14L269.402 177.278C269.371 177.392 269.368 177.512 269.392 177.628C269.416 177.744 269.467 177.852 269.541 177.944C269.612 178.039 269.704 178.115 269.811 178.167C269.917 178.219 270.034 178.245 270.152 178.243H288.785C288.903 178.244 289.02 178.217 289.126 178.166C289.232 178.114 289.325 178.039 289.397 177.945C289.47 177.852 289.519 177.743 289.542 177.627C289.566 177.512 289.562 177.392 289.531 177.278L285.797 162.771Z" fill="#92E3A9" stroke="#263238" stroke-linecap="round" stroke-linejoin="round"/>
<path d="M298.072 180.45H261.402V184.149H298.072V180.45Z" fill="#263238" stroke="#263238" stroke-linecap="round" stroke-linejoin="round"/>
<path d="M265.718 183.836L261.711 205.72" stroke="#263238" stroke-width="3" stroke-linecap="round" stroke-linejoin="round"/>
<path d="M293.756 183.836L297.763 205.72" stroke="#263238" stroke-width="3" stroke-linecap="round" stroke-linejoin="round"/>
<path d="M333.985 125.615V119.744C333.985 119.378 333.913 119.015 333.773 118.677C333.633 118.338 333.428 118.031 333.169 117.772C332.91 117.513 332.602 117.308 332.264 117.167C331.925 117.027 331.563 116.955 331.196 116.955H323.033C322.667 116.955 322.304 117.027 321.966 117.167C321.628 117.308 321.32 117.513 321.061 117.772C320.802 118.031 320.597 118.338 320.457 118.677C320.316 119.015 320.244 119.378 320.244 119.744V125.431C317.373 126.924 315.082 129.332 313.735 132.275C312.388 135.218 312.062 138.526 312.809 141.675C313.557 144.823 315.334 147.633 317.859 149.656C320.384 151.68 323.513 152.803 326.749 152.846C329.985 152.89 333.143 151.851 335.721 149.896C338.3 147.94 340.152 145.179 340.983 142.052C341.814 138.924 341.577 135.608 340.309 132.631C339.042 129.653 336.816 127.184 333.985 125.615Z" fill="white" stroke="#263238" stroke-linecap="round" stroke-linejoin="round"/>
<path d="M350.157 191.358C356.437 178.515 351.117 163.012 338.274 156.731C325.431 150.451 309.928 155.77 303.648 168.614C297.367 181.457 302.687 196.96 315.53 203.24C328.373 209.521 343.876 204.201 350.157 191.358Z" fill="white" stroke="#263238" stroke-linecap="round" stroke-linejoin="round"/>
<path d="M332.578 151.79H320.811V154.36H332.578V151.79Z" fill="#92E3A9" stroke="#263238" stroke-linecap="round" stroke-linejoin="round"/>
<path d="M302.999 176.488C302.609 179.866 302.938 183.287 303.964 186.528C304.989 189.77 306.689 192.757 308.951 195.295C311.213 197.834 313.986 199.865 317.088 201.255C320.19 202.646 323.552 203.365 326.951 203.365C330.351 203.365 333.712 202.646 336.815 201.255C339.917 199.865 342.69 197.834 344.952 195.295C347.214 192.757 348.913 189.77 349.939 186.528C350.965 183.287 351.294 179.866 350.904 176.488H302.999Z" fill="#92E3A9" stroke="#263238" stroke-linecap="round" stroke-linejoin="round"/>
<path d="M323.66 188.181C323.661 188.538 323.556 188.887 323.358 189.184C323.161 189.482 322.879 189.714 322.549 189.851C322.22 189.989 321.857 190.025 321.506 189.956C321.156 189.887 320.834 189.716 320.581 189.463C320.328 189.211 320.156 188.89 320.086 188.539C320.016 188.189 320.051 187.826 320.188 187.496C320.324 187.166 320.555 186.884 320.852 186.685C321.149 186.487 321.498 186.381 321.855 186.381C322.333 186.382 322.79 186.572 323.128 186.909C323.466 187.246 323.657 187.703 323.66 188.181Z" stroke="#263238" stroke-miterlimit="10"/>
<path d="M316.457 189.309C316.457 189.621 316.364 189.926 316.191 190.185C316.018 190.444 315.772 190.646 315.484 190.765C315.196 190.885 314.879 190.916 314.573 190.855C314.267 190.794 313.987 190.644 313.766 190.424C313.546 190.203 313.396 189.923 313.335 189.617C313.274 189.311 313.305 188.994 313.425 188.706C313.544 188.418 313.746 188.172 314.005 187.999C314.264 187.826 314.569 187.733 314.881 187.733C315.299 187.733 315.699 187.899 315.995 188.195C316.291 188.491 316.457 188.891 316.457 189.309Z" stroke="#263238" stroke-miterlimit="10"/>
<path d="M326.583 181.991C326.583 182.28 326.498 182.563 326.337 182.803C326.176 183.043 325.948 183.231 325.681 183.341C325.414 183.452 325.12 183.481 324.837 183.424C324.553 183.368 324.293 183.229 324.088 183.024C323.884 182.82 323.745 182.56 323.688 182.276C323.632 181.993 323.661 181.699 323.771 181.432C323.882 181.164 324.069 180.936 324.31 180.776C324.55 180.615 324.833 180.529 325.122 180.529C325.509 180.529 325.881 180.683 326.155 180.957C326.429 181.231 326.583 181.603 326.583 181.991Z" stroke="#263238" stroke-miterlimit="10"/>
<path d="M328.72 192.009C329.404 192.009 329.958 191.455 329.958 190.771C329.958 190.087 329.404 189.533 328.72 189.533C328.037 189.533 327.482 190.087 327.482 190.771C327.482 191.455 328.037 192.009 328.72 192.009Z" stroke="#263238" stroke-miterlimit="10"/>
<path d="M319.831 195.946C319.831 196.143 319.773 196.335 319.664 196.499C319.555 196.662 319.399 196.79 319.218 196.865C319.036 196.94 318.836 196.96 318.643 196.922C318.45 196.883 318.273 196.789 318.134 196.649C317.995 196.51 317.9 196.333 317.862 196.14C317.824 195.948 317.843 195.748 317.918 195.566C317.994 195.384 318.121 195.229 318.285 195.12C318.448 195.01 318.64 194.952 318.837 194.952C319.101 194.952 319.354 195.057 319.54 195.243C319.727 195.43 319.831 195.683 319.831 195.946Z" stroke="#263238" stroke-miterlimit="10"/>
<path d="M106.045 197.656H102.854V199.739H106.045V197.656Z" fill="white" stroke="#263238" stroke-linecap="round" stroke-linejoin="round"/>
<path d="M142.262 206.291H88.7588L94.1081 198.342H136.912L142.262 206.291Z" fill="white" stroke="#263238" stroke-linecap="round" stroke-linejoin="round"/>
<path d="M135.526 193.087H95.6348V198.207H135.526V193.087Z" fill="white" stroke="#263238" stroke-linecap="round" stroke-linejoin="round"/>
<path d="M101.481 196.418H98.4482V198.257H101.481V196.418Z" fill="#263238" stroke="#263238" stroke-linecap="round" stroke-linejoin="round"/>
<path d="M132.558 196.418H129.525V198.257H132.558V196.418Z" fill="#263238" stroke="#263238" stroke-linecap="round" stroke-linejoin="round"/>
<path d="M118.716 188.836H115.619V190.859H118.716V188.836Z" fill="white" stroke="#263238" stroke-linecap="round" stroke-linejoin="round"/>
<path d="M118.14 163.611H114.218V167.777H118.14V163.611Z" fill="#263238" stroke="#263238" stroke-linecap="round" stroke-linejoin="round"/>
<path d="M126.86 190.447L118.17 174.285V166.674H114.128V174.285L105.448 190.447C105.334 190.72 105.29 191.016 105.318 191.309C105.346 191.603 105.446 191.885 105.609 192.131C105.772 192.377 105.994 192.579 106.253 192.719C106.513 192.858 106.803 192.932 107.098 192.933H125.224C125.518 192.93 125.807 192.854 126.064 192.713C126.322 192.572 126.541 192.37 126.703 192.125C126.864 191.88 126.963 191.598 126.991 191.306C127.018 191.013 126.973 190.718 126.86 190.447Z" fill="white" stroke="#263238" stroke-linecap="round" stroke-linejoin="round"/>
<path d="M122.291 184.864H110.011L107.436 189.701C107.347 189.924 107.313 190.165 107.338 190.404C107.362 190.643 107.443 190.872 107.575 191.073C107.707 191.273 107.885 191.439 108.094 191.556C108.304 191.673 108.539 191.738 108.778 191.745H123.544C123.784 191.739 124.019 191.674 124.229 191.558C124.439 191.441 124.618 191.275 124.751 191.075C124.883 190.874 124.965 190.644 124.989 190.405C125.014 190.166 124.98 189.925 124.891 189.701L122.291 184.864Z" fill="#92E3A9" stroke="#263238" stroke-linecap="round" stroke-linejoin="round"/>
<path d="M174.347 122.452H164.131V125.853H174.347V122.452Z" fill="#263238" stroke="#263238" stroke-linecap="round" stroke-linejoin="round"/>
<path d="M174.257 134.176V125.854H164.111V134.176C161.75 135.177 159.736 136.852 158.322 138.99C156.907 141.129 156.154 143.637 156.156 146.202C156.156 151.884 164.26 160.147 167.68 163.383C168.084 163.763 168.617 163.974 169.172 163.974C169.726 163.974 170.259 163.763 170.663 163.383C174.088 160.147 182.187 151.884 182.187 146.202C182.191 143.64 181.442 141.134 180.032 138.996C178.622 136.857 176.613 135.181 174.257 134.176Z" fill="white" stroke="#263238" stroke-linecap="round" stroke-linejoin="round"/>
<path d="M158.146 147.961C159.528 152.694 165.26 158.52 167.87 160.986C168.221 161.319 168.688 161.505 169.172 161.505C169.657 161.505 170.123 161.319 170.475 160.986C173.085 158.5 178.822 152.694 180.199 147.961H158.146Z" fill="#92E3A9" stroke="#263238" stroke-linecap="round" stroke-linejoin="round"/>
<path d="M189.779 151.078H153.721V153.211H189.779V151.078Z" fill="white" stroke="#263238" stroke-linecap="round" stroke-linejoin="round"/>
<path d="M201.486 202.896V105.336H199.354V202.896H201.486Z" fill="white" stroke="#263238" stroke-linecap="round" stroke-linejoin="round"/>
<path d="M189.779 152.142H209.571" stroke="#263238" stroke-width="2" stroke-linecap="round" stroke-linejoin="round"/>
<path d="M203.53 152.321C203.53 151.688 203.343 151.07 202.991 150.545C202.64 150.019 202.141 149.609 201.557 149.367C200.973 149.125 200.33 149.062 199.71 149.185C199.09 149.309 198.52 149.613 198.073 150.06C197.626 150.507 197.321 151.077 197.198 151.697C197.075 152.317 197.138 152.96 197.38 153.544C197.622 154.128 198.032 154.627 198.557 154.979C199.083 155.33 199.701 155.517 200.333 155.517C201.181 155.517 201.994 155.181 202.594 154.581C203.193 153.982 203.53 153.168 203.53 152.321Z" fill="#263238" stroke="#263238" stroke-linecap="round" stroke-linejoin="round"/>
<path d="M215.332 202.448H185.051V206.291H215.332V202.448Z" fill="#263238" stroke="#263238" stroke-linecap="round" stroke-linejoin="round"/>
<path d="M116.182 165.694V164.914C116.182 163.27 116.835 161.693 117.997 160.53C119.16 159.368 120.737 158.715 122.381 158.715H139.538C140.267 158.715 140.989 158.571 141.663 158.292C142.336 158.013 142.948 157.604 143.464 157.088C143.98 156.572 144.389 155.96 144.668 155.287C144.947 154.613 145.091 153.891 145.091 153.161V120.216C145.091 119.576 145.217 118.943 145.462 118.352C145.706 117.761 146.065 117.224 146.518 116.772C146.97 116.32 147.507 115.962 148.099 115.718C148.69 115.473 149.323 115.348 149.963 115.349H165.106C166.292 115.349 167.43 115.82 168.269 116.659C169.109 117.498 169.58 118.636 169.58 119.823V124.148" stroke="#263238" stroke-width="4" stroke-linecap="round" stroke-linejoin="round"/>
<path d="M151.225 191.297V165.878H145.856V191.297C144.152 191.927 142.724 193.136 141.822 194.713C140.92 196.289 140.601 198.133 140.921 199.921C141.241 201.709 142.179 203.327 143.572 204.493C144.965 205.659 146.724 206.298 148.54 206.298C150.357 206.298 152.115 205.659 153.508 204.493C154.901 203.327 155.84 201.709 156.16 199.921C156.48 198.133 156.161 196.289 155.259 194.713C154.356 193.136 152.929 191.927 151.225 191.297Z" fill="white" stroke="#263238" stroke-miterlimit="10"/>
<path d="M141.913 196.592C141.606 197.624 141.543 198.714 141.731 199.774C141.919 200.835 142.352 201.837 142.996 202.7C143.639 203.564 144.476 204.265 145.438 204.748C146.401 205.232 147.463 205.483 148.54 205.483C149.617 205.483 150.68 205.232 151.642 204.748C152.605 204.265 153.441 203.564 154.085 202.7C154.729 201.837 155.162 200.835 155.35 199.774C155.537 198.714 155.475 197.624 155.167 196.592H141.913Z" fill="#92E3A9" stroke="#263238" stroke-linecap="round" stroke-linejoin="round"/>
<path d="M226.8 177.979H231.115V203.159C231.115 203.686 230.906 204.192 230.533 204.565C230.16 204.938 229.654 205.147 229.126 205.147H228.818C228.291 205.147 227.785 204.938 227.412 204.565C227.039 204.192 226.83 203.686 226.83 203.159V177.979H226.8Z" fill="white" stroke="#263238" stroke-linecap="round" stroke-linejoin="round"/>
<path d="M226.801 186.191V203.025C226.827 203.58 227.067 204.103 227.469 204.486C227.871 204.87 228.405 205.084 228.961 205.084C229.516 205.084 230.051 204.87 230.453 204.486C230.855 204.103 231.094 203.58 231.121 203.025V186.191H226.801Z" fill="#92E3A9" stroke="#263238" stroke-linecap="round" stroke-linejoin="round"/>
<path d="M231.881 177.362H226.04V181.424H231.881V177.362Z" fill="#263238" stroke="#263238" stroke-linecap="round" stroke-linejoin="round"/>
<path d="M237.355 205.182C236.783 205.182 236.234 204.955 235.829 204.55C235.425 204.146 235.197 203.597 235.197 203.025V177.979H239.517V203.005C239.52 203.29 239.466 203.573 239.359 203.838C239.251 204.102 239.092 204.343 238.891 204.545C238.69 204.748 238.45 204.908 238.187 205.018C237.923 205.127 237.64 205.183 237.355 205.182Z" fill="white" stroke="#263238" stroke-linecap="round" stroke-linejoin="round"/>
<path d="M235.202 186.191V203.025C235.229 203.58 235.468 204.103 235.87 204.486C236.272 204.87 236.807 205.084 237.362 205.084C237.918 205.084 238.452 204.87 238.854 204.486C239.256 204.103 239.496 203.58 239.522 203.025V186.191H235.202Z" fill="#92E3A9" stroke="#263238" stroke-linecap="round" stroke-linejoin="round"/>
<path d="M240.278 177.362H234.437V181.424H240.278V177.362Z" fill="white" stroke="#263238" stroke-linecap="round" stroke-linejoin="round"/>
<path d="M245.751 205.182C245.179 205.182 244.63 204.955 244.226 204.55C243.821 204.146 243.594 203.597 243.594 203.025V177.979H247.909V203.005C247.912 203.29 247.858 203.572 247.75 203.837C247.643 204.101 247.485 204.341 247.284 204.543C247.083 204.746 246.845 204.906 246.582 205.016C246.319 205.126 246.036 205.182 245.751 205.182Z" fill="white" stroke="#263238" stroke-linecap="round" stroke-linejoin="round"/>
<path d="M243.594 186.191V203.025C243.594 203.597 243.821 204.146 244.226 204.55C244.63 204.955 245.179 205.182 245.751 205.182C246.324 205.182 246.872 204.955 247.277 204.55C247.682 204.146 247.909 203.597 247.909 203.025V186.191H243.594Z" fill="#92E3A9" stroke="#263238" stroke-linecap="round" stroke-linejoin="round"/>
<path d="M248.674 177.362H242.833V181.424H248.674V177.362Z" fill="#263238" stroke="#263238" stroke-linecap="round" stroke-linejoin="round"/>
<path d="M254.148 205.182C253.576 205.182 253.027 204.955 252.622 204.55C252.218 204.146 251.99 203.597 251.99 203.025V177.979H256.305V203.005C256.308 203.29 256.254 203.572 256.147 203.837C256.04 204.101 255.881 204.341 255.681 204.543C255.48 204.746 255.241 204.906 254.978 205.016C254.715 205.126 254.433 205.182 254.148 205.182Z" fill="white" stroke="#263238" stroke-linecap="round" stroke-linejoin="round"/>
<path d="M251.99 186.191V203.025C251.99 203.597 252.218 204.146 252.622 204.55C253.027 204.955 253.576 205.182 254.148 205.182C254.72 205.182 255.269 204.955 255.673 204.55C256.078 204.146 256.305 203.597 256.305 203.025V186.191H251.99Z" fill="#92E3A9" stroke="#263238" stroke-linecap="round" stroke-linejoin="round"/>
<path d="M257.072 177.362H251.23V181.424H257.072V177.362Z" fill="white" stroke="#263238" stroke-linecap="round" stroke-linejoin="round"/>
<path d="M260.72 183.616H223.121V184.894H260.72V203.189H221.297V206.291H263.276V205.565V203.189V184.894V183.616H260.72Z" fill="white" stroke="#263238" stroke-linecap="round" stroke-linejoin="round"/>
<path d="M23.8166 105.237H17.2345H10.6572L11.6565 108.255V206.004H22.9566V108.21L22.9964 108.195L23.8166 105.237Z" fill="white" stroke="#263238" stroke-miterlimit="10"/>
<path d="M27.4859 203.662H7.13281V206.292H27.4859V203.662Z" fill="white" stroke="#263238" stroke-miterlimit="10"/>
<path d="M13.2871 112.958H15.743" stroke="#263238" stroke-linecap="round" stroke-linejoin="round"/>
<path d="M13.2871 116.821H15.743" stroke="#263238" stroke-linecap="round" stroke-linejoin="round"/>
<path d="M13.2871 120.679H15.743" stroke="#263238" stroke-linecap="round" stroke-linejoin="round"/>
<path d="M13.2871 124.537H15.743" stroke="#263238" stroke-linecap="round" stroke-linejoin="round"/>
<path d="M13.2871 128.399H15.743" stroke="#263238" stroke-linecap="round" stroke-linejoin="round"/>
<path d="M13.2871 132.258H15.743" stroke="#263238" stroke-linecap="round" stroke-linejoin="round"/>
<path d="M13.2871 136.115H15.743" stroke="#263238" stroke-linecap="round" stroke-linejoin="round"/>
<path d="M13.2871 139.978H15.743" stroke="#263238" stroke-linecap="round" stroke-linejoin="round"/>
<path d="M13.2871 143.836H15.743" stroke="#263238" stroke-linecap="round" stroke-linejoin="round"/>
<path d="M13.2871 147.698H15.743" stroke="#263238" stroke-linecap="round" stroke-linejoin="round"/>
<path d="M13.2871 151.557H15.743" stroke="#263238" stroke-linecap="round" stroke-linejoin="round"/>
<path d="M13.2871 155.414H15.743" stroke="#263238" stroke-linecap="round" stroke-linejoin="round"/>
<path d="M13.2871 159.277H15.743" stroke="#263238" stroke-linecap="round" stroke-linejoin="round"/>
<path d="M13.2871 163.135H15.743" stroke="#263238" stroke-linecap="round" stroke-linejoin="round"/>
<path d="M13.2871 166.993H15.743" stroke="#263238" stroke-linecap="round" stroke-linejoin="round"/>
<path d="M13.2871 170.855H15.743" stroke="#263238" stroke-linecap="round" stroke-linejoin="round"/>
<path d="M13.2871 174.713H15.743" stroke="#263238" stroke-linecap="round" stroke-linejoin="round"/>
<path d="M13.2871 178.576H15.743" stroke="#263238" stroke-linecap="round" stroke-linejoin="round"/>
<path d="M13.2871 182.434H15.743" stroke="#263238" stroke-linecap="round" stroke-linejoin="round"/>
<path d="M13.2871 186.292H15.743" stroke="#263238" stroke-linecap="round" stroke-linejoin="round"/>
<path d="M13.2871 190.155H15.743" stroke="#263238" stroke-linecap="round" stroke-linejoin="round"/>
<path d="M13.2871 194.013H15.743" stroke="#263238" stroke-linecap="round" stroke-linejoin="round"/>
<path d="M13.2871 197.875H15.743" stroke="#263238" stroke-linecap="round" stroke-linejoin="round"/>
<path d="M13.2871 201.733H15.743" stroke="#263238" stroke-linecap="round" stroke-linejoin="round"/>
<path d="M29.5784 72.3857L33.0286 78.3663H45.1142L51.1545 67.9014L45.1142 57.4365H33.0286L26.9883 67.9014L28.7432 70.939" stroke="#263238" stroke-miterlimit="10"/>
<path d="M58.9103 88.9366H63.2255L69.2658 78.4717L63.2255 68.0068H51.1399L45.0996 78.4717L51.1399 88.9366H57.3343" stroke="#263238" stroke-miterlimit="10"/>
<path d="M45.0243 78.3721H32.9387L26.8984 88.837L32.9387 99.3019H45.0243L51.0646 88.837L45.0243 78.3721Z" stroke="#263238" stroke-miterlimit="10"/>
<path d="M63.2256 68.0065L66.3228 61.3398" stroke="#263238" stroke-miterlimit="10"/>
<path d="M63.2256 88.9355L68.3611 98.7591" stroke="#263238" stroke-miterlimit="10"/>
<path d="M26.9886 67.9023H16.6729" stroke="#263238" stroke-miterlimit="10"/>
<path d="M51.334 48.6273L52.4277 47.0762" stroke="#263238" stroke-miterlimit="10"/>
<path d="M45.1143 57.4369L50.389 49.9648" stroke="#263238" stroke-miterlimit="10"/>
<path d="M32.939 99.3018L27.0479 105.988" stroke="#263238" stroke-miterlimit="10"/>
<path d="M143.509 45.0088C142.737 45.0078 141.982 45.2359 141.34 45.6641C140.697 46.0923 140.196 46.7015 139.9 47.4145C139.604 48.1275 139.526 48.9123 139.676 49.6697C139.826 50.427 140.197 51.1229 140.743 51.6692C141.288 52.2154 141.984 52.5876 142.741 52.7386C143.498 52.8896 144.283 52.8126 144.996 52.5174C145.71 52.2221 146.32 51.7219 146.749 51.0801C147.178 50.4382 147.407 49.6834 147.407 48.9114C147.407 47.8772 146.996 46.8853 146.265 46.1536C145.535 45.4219 144.543 45.0101 143.509 45.0088Z" fill="#263238"/>
<path d="M165.424 54.623C165.424 54.0956 165.214 53.5898 164.841 53.2168C164.468 52.8439 163.963 52.6344 163.435 52.6344C163.215 52.6365 162.996 52.6751 162.789 52.7488C162.197 51.4401 161.534 50.1654 160.8 48.9307C165.449 41.0907 166.473 33.5192 162.704 29.7608C160.378 27.4341 156.604 26.932 152.21 27.986C149.848 24.1331 146.825 21.8164 143.534 21.8164C142.009 21.8268 140.521 22.2849 139.254 23.1338C139.075 22.9416 138.861 22.7864 138.622 22.6771C138.384 22.5678 138.126 22.5065 137.864 22.4968C137.601 22.4871 137.34 22.5292 137.094 22.6206C136.848 22.7119 136.622 22.8509 136.43 23.0294C136.238 23.208 136.083 23.4227 135.973 23.6612C135.864 23.8998 135.803 24.1575 135.793 24.4197C135.783 24.6819 135.826 24.9435 135.917 25.1894C136.008 25.4354 136.147 25.661 136.326 25.8532C135.782 26.5252 135.284 27.2328 134.834 27.9711C130.44 26.9171 126.666 27.4192 124.34 29.7459C120.571 33.5093 121.595 41.0658 126.234 48.9008C124.964 51.0013 123.923 53.2312 123.127 55.5526C122.523 57.2868 122.157 59.0945 122.038 60.9268C121.507 60.9485 121.007 61.1802 120.647 61.5709C120.287 61.9615 120.097 62.4791 120.119 63.0098C120.141 63.5405 120.372 64.0408 120.763 64.4007C121.154 64.7606 121.671 64.9506 122.202 64.9288C122.292 64.9257 122.381 64.9174 122.47 64.9039C122.822 66.1022 123.464 67.1951 124.34 68.0857C125.881 69.6318 128.073 70.4123 130.743 70.4123C132.126 70.3971 133.503 70.2186 134.844 69.8804C137.206 73.7183 140.223 76.0251 143.51 76.0251C146.796 76.0251 149.828 73.7084 152.19 69.8555C153.533 70.1911 154.911 70.3696 156.296 70.3874C158.906 70.3874 161.118 69.6467 162.679 68.0857C165.2 65.5651 165.578 61.3543 164.171 56.4922C164.544 56.3437 164.863 56.0855 165.087 55.7519C165.311 55.4182 165.428 55.0246 165.424 54.623ZM156.261 27.9114C158.747 27.9114 160.85 28.6124 162.326 30.0889C165.911 33.6733 164.927 40.8819 160.492 48.4335C159.408 46.6664 158.209 44.9724 156.903 43.3627C156.276 37.4317 154.67 32.2117 152.428 28.3887C153.684 28.0848 154.97 27.9247 156.261 27.9114ZM152.831 58.2372C150.031 61.0645 146.902 63.5449 143.51 65.6248C140.119 63.5447 136.99 61.0662 134.188 58.2422C132.924 56.978 131.724 55.6506 130.594 54.265C130.236 50.7078 130.236 47.1237 130.594 43.5665C131.723 42.1803 132.923 40.8528 134.188 39.5893C136.988 36.7668 140.118 34.2915 143.51 32.2167C146.901 34.2915 150.031 36.7668 152.831 39.5893C154.097 40.8523 155.296 42.1798 156.425 43.5665C156.783 47.1237 156.783 50.7078 156.425 54.265C155.295 55.6472 154.095 56.9713 152.831 58.2323V58.2372ZM156.311 55.1599C155.64 60.7826 154.084 65.7192 151.951 69.3186C149.156 68.551 146.48 67.4035 143.997 65.9082C147.331 63.8336 150.411 61.3759 153.174 58.5852C154.303 57.4617 155.347 56.3133 156.321 55.1549L156.311 55.1599ZM143.032 65.8982C141.029 67.0897 138.908 68.0709 136.704 68.8264C136.137 69.0153 135.585 69.1744 135.043 69.3236C132.915 65.7242 131.359 60.7925 130.688 55.1698C131.682 56.3282 132.707 57.4766 133.825 58.6001C136.602 61.3832 139.695 63.8309 143.042 65.8932L143.032 65.8982ZM130.022 53.5591C128.853 52.0768 127.775 50.5245 126.796 48.9108C127.778 47.2973 128.857 45.745 130.027 44.2625C129.893 45.7539 129.818 47.3299 129.818 48.9158C129.818 50.5017 129.903 52.0428 130.032 53.5541L130.022 53.5591ZM130.688 42.6667C131.359 37.0489 132.915 32.1172 135.043 28.5179C137.848 29.2809 140.534 30.4304 143.022 31.9333C139.679 33.9983 136.592 36.4513 133.825 39.2413C132.725 40.3516 131.682 41.4917 130.698 42.6617L130.688 42.6667ZM143.977 31.9333C146.465 30.4304 149.151 29.2809 151.956 28.5179C154.084 32.1172 155.64 37.0489 156.311 42.6716C155.317 41.5083 154.293 40.3599 153.174 39.2413C150.409 36.4514 147.326 33.9968 143.987 31.9283L143.977 31.9333ZM156.982 44.2476C158.151 45.7303 159.228 47.2826 160.209 48.8959C159.229 50.5083 158.152 52.059 156.982 53.5392C157.116 52.0478 157.191 50.4818 157.191 48.8959C157.191 47.31 157.116 45.7738 156.982 44.2476ZM136.684 26.1515C137.01 26.3664 137.392 26.4805 137.782 26.4796C138.31 26.4796 138.816 26.2701 139.189 25.8972C139.561 25.5243 139.771 25.0185 139.771 24.491C139.769 24.1608 139.686 23.8362 139.527 23.5465C140.705 22.758 142.087 22.3296 143.505 22.3136C146.602 22.3136 149.47 24.4861 151.702 28.1103C148.819 28.9105 146.06 30.1068 143.505 31.6648C140.949 30.1076 138.19 28.9114 135.307 28.1103C135.723 27.4281 136.183 26.7737 136.684 26.1515ZM124.688 30.0889C126.179 28.5975 128.267 27.9114 130.758 27.9114C132.048 27.9316 133.333 28.0983 134.586 28.4085C132.349 32.2316 130.743 37.4516 130.111 43.3776C128.802 44.9856 127.6 46.6779 126.512 48.4435C122.093 40.872 121.113 33.6683 124.688 30.0889ZM124.688 67.7277C123.877 66.902 123.281 65.8896 122.953 64.7796C123.372 64.6285 123.729 64.3407 123.965 63.9624C124.202 63.5841 124.304 63.1373 124.256 62.6939C124.207 62.2505 124.012 61.8361 123.7 61.5174C123.387 61.1987 122.977 60.9942 122.535 60.9367C122.653 59.1536 123.011 57.3945 123.599 55.7068C124.353 53.5037 125.332 51.3845 126.522 49.3831C127.609 51.1511 128.81 52.8467 130.116 54.4589C130.743 60.3849 132.349 65.6049 134.591 69.4279C130.305 70.4322 126.825 69.8555 124.688 67.7277ZM143.51 75.5229C140.417 75.5229 137.579 73.3604 135.327 69.7561C135.824 69.6218 136.321 69.4677 136.873 69.2937C139.196 68.4959 141.427 67.4526 143.529 66.1816C146.079 67.7335 148.831 68.9263 151.707 69.7262C149.455 73.3504 146.607 75.5229 143.51 75.5229ZM162.326 67.7277C160.139 69.9201 156.589 70.3974 152.433 69.4279C154.67 65.6099 156.276 60.3899 156.908 54.4589C158.214 52.8475 159.413 51.1519 160.497 49.3831C161.173 50.5325 161.787 51.7174 162.336 52.9327C161.953 53.1566 161.656 53.5022 161.492 53.9145C161.328 54.3268 161.307 54.7821 161.431 55.2079C161.556 55.6338 161.819 56.0057 162.18 56.2646C162.54 56.5234 162.977 56.6543 163.42 56.6364C163.518 56.6314 163.616 56.6214 163.714 56.6066C165.106 61.2847 164.733 65.3265 162.326 67.7277Z" fill="#263238"/>
<path d="M194.263 72.2374C197.296 74.0022 201.064 74.5441 205.29 73.7835C207.484 73.3856 209.616 72.7037 211.634 71.7551L211.713 71.7154L211.768 71.6905L211.822 71.6607L211.897 71.6259C213.876 70.5927 215.714 69.3095 217.366 67.8078C220.532 64.9045 222.387 61.5836 222.834 58.0986C225.872 59.8634 229.64 60.4003 233.866 59.6447C236.155 59.2326 238.377 58.5066 240.468 57.4871L239.548 55.7222C238.584 56.189 237.587 56.5845 236.565 56.9054L230.172 43.9797C231.05 43.3615 231.97 42.8066 232.926 42.3192L232.081 40.5195C230.001 41.565 228.075 42.8934 226.359 44.4669C223.197 47.3652 221.338 50.6911 220.89 54.1761C217.853 52.4063 214.084 51.8693 209.864 52.63C207.659 53.0377 205.517 53.7295 203.49 54.6882L203.426 54.718L203.371 54.7478L203.316 54.7776L203.247 54.8075C201.267 55.8409 199.429 57.1259 197.778 58.6305C194.611 61.5338 192.757 64.8548 192.31 68.3397C189.277 66.5749 185.509 66.038 181.283 66.7936C178.992 67.2061 176.769 67.9321 174.676 68.9512L175.6 70.7161C176.406 70.3197 177.236 69.976 178.086 69.687L184.549 82.7271C183.8 83.2347 183.019 83.6946 182.212 84.1042L183.058 85.9039C185.136 84.8576 187.06 83.5293 188.775 81.9565C191.952 79.0482 193.826 75.7223 194.263 72.2374ZM201.005 58.5609L207.293 71.263C205.824 71.6955 204.312 71.9688 202.784 72.0783L197.619 61.6482C198.633 60.4999 199.768 59.4648 201.005 58.5609ZM204.256 56.5226C204.853 56.2317 205.466 55.9729 206.09 55.7471L212.613 68.9164C211.703 69.4881 211.037 69.8312 210.848 69.9107C210.065 70.29 209.26 70.622 208.437 70.905L201.974 57.8749C202.706 57.3774 203.468 56.9258 204.256 56.5226ZM213.602 68.2503L207.219 55.3593C208.885 54.8262 210.609 54.4925 212.354 54.365L217.52 64.805C216.356 66.1056 215.041 67.2622 213.602 68.2503ZM235.382 57.2435C234.118 57.5857 232.825 57.812 231.519 57.9196L226.294 47.3702C227.171 46.3968 228.135 45.505 229.173 44.7055L235.382 57.2435ZM225.469 48.3694L230.232 57.9693C227.562 58.0465 224.942 57.2429 222.775 55.6824C222.846 53.0152 223.793 50.4455 225.469 48.3694ZM220.92 56.6022C220.851 59.206 219.945 61.7182 218.335 63.766L213.657 54.3203C216.261 54.2789 218.808 55.0792 220.92 56.6022ZM196.799 62.6673L201.482 72.1131C198.877 72.1533 196.329 71.3493 194.219 69.8212C194.286 67.221 195.191 64.712 196.799 62.6673ZM192.369 70.741C192.303 73.3281 191.407 75.8255 189.814 77.865L185.151 68.4541C187.74 68.4196 190.272 69.2216 192.369 70.741ZM179.19 69.339C180.707 68.8853 182.269 68.5985 183.848 68.4839L188.994 78.8792C187.955 80.0697 186.788 81.1417 185.514 82.0758L179.19 69.339Z" stroke="#263238" stroke-miterlimit="10"/>
<path d="M237.935 106.136C238.748 102.711 236.632 99.2758 233.207 98.4625C229.782 97.6491 226.347 99.766 225.533 103.191C224.72 106.615 226.837 110.051 230.261 110.864C233.686 111.678 237.122 109.561 237.935 106.136Z" stroke="#263238" stroke-miterlimit="10"/>
<path d="M255.67 84.1581C255.67 84.8395 255.468 85.5056 255.089 86.0722C254.711 86.6387 254.172 87.0803 253.543 87.3411C252.913 87.6018 252.221 87.67 251.552 87.5371C250.884 87.4042 250.27 87.0761 249.788 86.5942C249.307 86.1124 248.978 85.4985 248.845 84.8302C248.713 84.1619 248.781 83.4692 249.042 82.8397C249.302 82.2101 249.744 81.6721 250.31 81.2935C250.877 80.9149 251.543 80.7129 252.225 80.7129C253.138 80.7129 254.015 81.0759 254.661 81.722C255.307 82.3681 255.67 83.2444 255.67 84.1581Z" stroke="#263238" stroke-miterlimit="10"/>
<path d="M227.423 85.0136C227.423 85.4571 227.291 85.8905 227.045 86.2593C226.798 86.628 226.448 86.9154 226.039 87.0851C225.629 87.2548 225.178 87.2992 224.743 87.2126C224.308 87.1261 223.909 86.9126 223.595 86.599C223.282 86.2855 223.068 85.8859 222.982 85.451C222.895 85.0161 222.939 84.5653 223.109 84.1556C223.279 83.7459 223.566 83.3957 223.935 83.1493C224.304 82.903 224.737 82.7715 225.181 82.7715C225.775 82.7715 226.346 83.0077 226.766 83.4282C227.187 83.8487 227.423 84.419 227.423 85.0136Z" stroke="#263238" stroke-miterlimit="10"/>
<path d="M251.877 130.667C253.398 130.667 254.631 129.433 254.631 127.912C254.631 126.391 253.398 125.158 251.877 125.158C250.356 125.158 249.123 126.391 249.123 127.912C249.123 129.433 250.356 130.667 251.877 130.667Z" stroke="#263238" stroke-miterlimit="10"/>
<path d="M214.327 119.297C215.659 119.297 216.738 118.217 216.738 116.886C216.738 115.554 215.659 114.475 214.327 114.475C212.996 114.475 211.916 115.554 211.916 116.886C211.916 118.217 212.996 119.297 214.327 119.297Z" stroke="#263238" stroke-miterlimit="10"/>
<path d="M230.977 123.97C232.308 123.97 233.388 122.89 233.388 121.559C233.388 120.227 232.308 119.147 230.977 119.147C229.645 119.147 228.565 120.227 228.565 121.559C228.565 122.89 229.645 123.97 230.977 123.97Z" stroke="#263238" stroke-miterlimit="10"/>
<path d="M218.96 101.803C217.996 102.616 216.764 103.045 215.503 103.005C214.241 102.966 213.039 102.461 212.127 101.589C211.215 100.717 210.657 99.5386 210.562 98.2802C210.466 97.0219 210.839 95.7726 211.608 94.7724C212.378 93.7722 213.49 93.0918 214.731 92.8619C215.972 92.6321 217.254 92.869 218.33 93.5272C219.407 94.1853 220.203 95.2183 220.564 96.4275C220.925 97.6366 220.827 98.9367 220.288 100.078" stroke="#263238" stroke-miterlimit="10"/>
<path d="M254.437 95.2148C255.662 95.2148 256.654 94.2221 256.654 92.9975C256.654 91.773 255.662 90.7803 254.437 90.7803C253.212 90.7803 252.22 91.773 252.22 92.9975C252.22 94.2221 253.212 95.2148 254.437 95.2148Z" stroke="#263238" stroke-miterlimit="10"/>
<path d="M225.931 87.082L229.381 98.3324" stroke="#263238" stroke-miterlimit="10"/>
<path d="M245.832 91.0046L249.988 86.6396" stroke="#263238" stroke-miterlimit="10"/>
<path d="M236.844 100.45L244.709 92.1875" stroke="#263238" stroke-miterlimit="10"/>
<path d="M235.57 109.607L249.654 125.844" stroke="#263238" stroke-miterlimit="10"/>
<path d="M216.352 115.26L226.821 108.802" stroke="#263238" stroke-miterlimit="10"/>
<path d="M113.844 108.539C113.262 105.586 112.885 104.964 110.598 103.194L117.314 91.5762C122.385 93.2863 128.366 103.508 127.212 108.539H113.844Z" stroke="#263238" stroke-miterlimit="10"/>
<path d="M104.453 113.809C106.795 114.892 107.53 114.912 110.578 114.007L117.299 125.636C111.567 129.155 103.31 129.056 97.7168 125.462L104.453 113.809Z" stroke="#263238" stroke-miterlimit="10"/>
<path d="M97.7169 91.7305C99.9541 95.5983 102.191 99.476 104.359 103.224C103.627 103.97 102.961 104.779 102.37 105.641C101.939 106.575 101.593 107.547 101.336 108.544H88.0475C87.4211 102.792 92.5218 93.8732 97.7169 91.7305Z" stroke="#263238" stroke-miterlimit="10"/>
<path d="M107.625 112.565C106.607 112.523 105.645 112.087 104.942 111.349C104.239 110.61 103.85 109.628 103.858 108.609C103.865 107.59 104.267 106.613 104.98 105.885C105.693 105.157 106.661 104.734 107.68 104.706C108.208 104.691 108.733 104.783 109.225 104.975C109.716 105.168 110.164 105.458 110.541 105.827C110.918 106.196 111.217 106.638 111.42 107.125C111.623 107.613 111.726 108.136 111.722 108.664C111.718 109.192 111.609 109.714 111.399 110.198C111.189 110.683 110.884 111.12 110.502 111.484C110.12 111.848 109.668 112.132 109.174 112.317C108.679 112.503 108.153 112.588 107.625 112.565Z" stroke="#263238" stroke-miterlimit="10"/>
<path d="M54.833 34.583C56.8216 38.7789 62.6282 41.8214 69.4888 41.8214C76.3494 41.8214 82.166 38.7789 84.1496 34.583H54.833Z" fill="white" stroke="#263238" stroke-linecap="round" stroke-linejoin="round"/>
<path d="M69.4147 25.8477L44.6768 36.1932H94.1526L69.4147 25.8477Z" fill="#263238" stroke="#263238" stroke-linecap="round" stroke-linejoin="round"/>
<path d="M76.4298 21.9102H62.4004V30.0534H76.4298V21.9102Z" fill="#263238" stroke="#263238" stroke-linecap="round" stroke-linejoin="round"/>
<path d="M69.415 22.363V2" stroke="#263238" stroke-width="4" stroke-linecap="round" stroke-linejoin="round"/>
<path d="M262.108 34.583C264.097 38.7789 269.899 41.8214 276.764 41.8214C283.63 41.8214 289.441 38.7789 291.42 34.583H262.108Z" fill="white" stroke="#263238" stroke-linecap="round" stroke-linejoin="round"/>
<path d="M276.689 25.8477L251.951 36.1932H301.427L276.689 25.8477Z" fill="#263238" stroke="#263238" stroke-linecap="round" stroke-linejoin="round"/>
<path d="M283.703 21.9102H269.674V30.0534H283.703V21.9102Z" fill="#263238" stroke="#263238" stroke-linecap="round" stroke-linejoin="round"/>
<path d="M276.689 22.363V2" stroke="#263238" stroke-width="4" stroke-linecap="round" stroke-linejoin="round"/>
</svg>
