<svg width="70" height="65" viewBox="0 0 70 65" fill="none" xmlns="http://www.w3.org/2000/svg">
<path fill-rule="evenodd" clip-rule="evenodd" d="M27.8706 60.9973C34.4588 55.8932 40.9482 50.5205 47.3294 45.1674C42.8309 44.1158 38.4964 43.798 33.876 43.6047C34.335 39.6111 33.7193 33.3433 32.7229 29.4674C27.6124 30.1012 23.4874 31.1162 18.6624 32.6182C17.6987 28.6835 16.394 25.1764 14.4756 21.5902C10.7426 28.4542 7.48743 35.5214 4.62239 42.7886C7.89544 44.9136 11.2006 46.1363 14.3651 48.439C19.8034 52.3956 23.3804 55.931 27.8706 60.9973Z" fill="white" stroke="#5CD7FB" stroke-width="4" stroke-miterlimit="1.5" stroke-linecap="round" stroke-linejoin="round"/>
<path d="M3.13672 8.51855C4.2714 10.3444 5.34358 12.2171 6.5142 14.0196" stroke="#5CD7FB" stroke-width="4" stroke-miterlimit="1.5" stroke-linecap="round" stroke-linejoin="round"/>
<path d="M32.4258 2.6582C31.7273 4.94262 31.2085 7.27489 30.5439 9.56761" stroke="#5CD7FB" stroke-width="4" stroke-miterlimit="1.5" stroke-linecap="round" stroke-linejoin="round"/>
<path d="M49.6055 24.0244C52.644 22.8607 55.5546 21.3925 58.5892 20.2218" stroke="#5CD7FB" stroke-width="4" stroke-miterlimit="1.5" stroke-linecap="round" stroke-linejoin="round"/>
<path d="M57.7894 53.358C60.9176 54.1255 64.0893 54.9546 67.2769 55.44" stroke="#5CD7FB" stroke-width="4" stroke-miterlimit="1.5" stroke-linecap="round" stroke-linejoin="round"/>
</svg>
