<svg width="46" height="42" viewBox="0 0 46 42" fill="none" xmlns="http://www.w3.org/2000/svg">
<path fill-rule="evenodd" clip-rule="evenodd" d="M30.5962 10.5833C26.5022 6.77281 18.2006 6.04639 11.3401 15.6223C9.66957 17.954 5.66395 17.1426 4.55637 19.8167C1.70051 26.711 15.2012 35.6686 20.3396 37.2664C22.2629 37.8644 25.179 38.6942 27.014 37.3614C29.1828 35.786 27.5203 31.9708 29.0816 29.898C33.1878 24.4465 37.3278 16.8487 30.5962 10.5833Z" fill="white" stroke="#2F2965" stroke-width="2" stroke-miterlimit="1.5" stroke-linecap="round" stroke-linejoin="round"/>
<path d="M25.2283 36.1992C25.7643 35.7714 25.4471 35.1284 25.162 34.6395C24.4878 33.4831 23.5562 32.5486 22.6106 31.6152C19.2481 28.2956 15.5065 24.794 11.2602 22.6383C9.8606 21.9278 6.20374 20.1912 6.4089 23.1592" stroke="#2F2965" stroke-width="2" stroke-miterlimit="1.5" stroke-linecap="round" stroke-linejoin="round"/>
<path d="M27.0196 28.6441C25.6014 25.7929 23.6207 23.2603 21.1313 21.2749C19.8925 20.2868 18.4483 19.5438 17.069 18.7792C14.8844 17.5684 12.5067 16.6628 9.97954 16.7664" stroke="#2F2965" stroke-width="2" stroke-miterlimit="1.5" stroke-linecap="round" stroke-linejoin="round"/>
<path fill-rule="evenodd" clip-rule="evenodd" d="M19.1364 28.3159C18.524 29.0231 17.474 29.9409 16.5374 30.0749C14.7698 30.3276 12.8905 29.1682 12.9832 27.2499C13.0053 26.7933 13.1642 26.3366 13.3452 25.9229C13.5483 25.4587 13.9741 24.827 14.3525 24.4913C16.0754 25.6411 17.7254 27.0402 19.1364 28.3159Z" fill="white" stroke="#2F2965" stroke-width="2" stroke-miterlimit="1.5" stroke-linecap="round" stroke-linejoin="round"/>
<path fill-rule="evenodd" clip-rule="evenodd" d="M31.9687 12.0454C31.0547 10.9676 30.1791 10.0597 28.8477 9.3C29.2377 8.73612 29.7191 8.29455 30.2639 7.75271C31.6364 6.38753 34.1465 6.37392 34.0738 8.69033C34.0367 9.87443 32.7372 11.2191 31.9687 12.0454Z" fill="white" stroke="#2F2965" stroke-width="2" stroke-miterlimit="1.5" stroke-linecap="round" stroke-linejoin="round"/>
<path fill-rule="evenodd" clip-rule="evenodd" d="M6.02734 9.35156C6.83916 9.95347 7.6708 10.553 8.43549 11.215L6.02734 9.35156Z" fill="white"/>
<path d="M6.02734 9.35156C6.83916 9.95347 7.6708 10.553 8.43549 11.215" stroke="#00C2FF" stroke-width="2" stroke-miterlimit="1.5" stroke-linecap="round" stroke-linejoin="round"/>
<path fill-rule="evenodd" clip-rule="evenodd" d="M8.82031 1.02734C9.87959 3.21378 11.0631 5.31774 12.2586 7.43063L8.82031 1.02734Z" fill="white"/>
<path d="M8.82031 1.02734C9.87959 3.21378 11.0631 5.31774 12.2586 7.43063" stroke="#00C2FF" stroke-width="2" stroke-miterlimit="1.5" stroke-linecap="round" stroke-linejoin="round"/>
<path fill-rule="evenodd" clip-rule="evenodd" d="M16.0312 2.00977C16.1467 3.01438 16.265 4.01873 16.3847 5.02287L16.0312 2.00977Z" fill="white"/>
<path d="M16.0312 2.00977C16.1467 3.01438 16.265 4.01873 16.3847 5.02287" stroke="#00C2FF" stroke-width="2" stroke-miterlimit="1.5" stroke-linecap="round" stroke-linejoin="round"/>
<path fill-rule="evenodd" clip-rule="evenodd" d="M36.0349 23.2837C36.7752 23.4357 37.5173 23.5848 38.2596 23.7264L36.0349 23.2837Z" fill="white"/>
<path d="M36.0349 23.2837C36.7752 23.4357 37.5173 23.5848 38.2596 23.7264" stroke="#00C2FF" stroke-width="2" stroke-miterlimit="1.5" stroke-linecap="round" stroke-linejoin="round"/>
<path fill-rule="evenodd" clip-rule="evenodd" d="M34.3408 26.4082C36.276 27.1785 38.1325 28.1033 39.9368 29.1398L34.3408 26.4082Z" fill="white"/>
<path d="M34.3408 26.4082C36.276 27.1785 38.1325 28.1033 39.9368 29.1398" stroke="#00C2FF" stroke-width="2" stroke-miterlimit="1.5" stroke-linecap="round" stroke-linejoin="round"/>
<path fill-rule="evenodd" clip-rule="evenodd" d="M32.8066 29.291C33.1372 30.2174 33.4157 31.1552 33.7242 32.0881L32.8066 29.291Z" fill="white"/>
<path d="M32.8066 29.291C33.1372 30.2174 33.4157 31.1552 33.7242 32.0881" stroke="#00C2FF" stroke-width="2" stroke-miterlimit="1.5" stroke-linecap="round" stroke-linejoin="round"/>
</svg>
