<svg width="336" height="287" viewBox="0 0 336 287" fill="none" xmlns="http://www.w3.org/2000/svg">
<path d="M285.9 283.286C272.917 275.573 268.932 259.763 268.364 245.338C268.265 242.93 267.817 240.416 268.797 238.235C269.777 236.055 272.348 234.407 274.571 235.26C276.418 235.97 277.349 237.987 278.478 239.628C279.978 241.821 282.068 243.545 284.508 244.599C286.099 245.309 288.059 245.629 289.479 244.684C291.468 243.385 291.504 240.508 291.312 238.115C290.957 233.669 290.599 229.218 290.239 224.762C290.048 222.376 289.863 219.933 290.438 217.61C291.014 215.288 292.498 213.065 294.7 212.255C296.901 211.445 299.835 212.553 300.481 214.861C300.646 215.843 300.743 216.835 300.772 217.83C300.914 218.818 301.482 219.883 302.42 220.089C303.358 220.295 304.295 219.549 304.963 218.796C307.25 216.204 308.691 212.972 310.027 209.762C311.362 206.552 312.647 203.285 314.693 200.486C316.738 197.688 319.665 195.373 323.088 194.925C326.511 194.478 330.297 196.346 331.405 199.62C332.513 202.894 330.808 206.488 328.876 209.371C326.008 213.644 322.537 217.478 318.571 220.756C317.79 221.269 317.191 222.015 316.859 222.887C316.461 224.514 318.088 225.984 319.7 226.396C321.525 226.857 323.443 226.531 325.318 226.609C327.193 226.687 329.281 227.362 330.112 229.073C331.27 231.446 329.402 234.152 327.534 235.977C323.752 239.627 319.37 242.599 314.579 244.763C312.868 245.537 311.064 246.233 309.735 247.604C308.407 248.974 307.711 251.155 308.691 252.774C309.672 254.393 311.909 254.77 313.727 254.294C315.545 253.818 317.115 252.696 318.826 251.908C322.015 250.423 326.27 250.338 328.585 253.016C330.105 254.784 330.418 257.369 329.885 259.642C329.247 261.895 328.163 263.996 326.696 265.821C321.953 272.456 315.534 277.713 308.095 281.056C300.673 284.259 293.67 285.495 285.893 283.286" fill="#F5F5F5"/>
<path d="M288.244 283.961C288.343 278.222 287.349 281.404 288.954 274.018C290.761 266 293.031 258.094 295.751 250.338L297.846 244.223C298.556 242.213 299.231 240.225 300.026 238.321C301.554 234.676 303.285 231.119 305.211 227.668C307.022 224.351 308.862 221.275 310.609 218.399C312.356 215.523 314.039 212.895 315.673 210.551C318.234 206.845 321.084 203.347 324.196 200.089C325.297 198.938 326.185 198.072 326.788 197.49L327.498 196.836L327.74 196.623C327.68 196.715 327.608 196.798 327.527 196.872L326.866 197.582C326.277 198.186 325.446 199.066 324.338 200.238C321.276 203.501 318.462 206.988 315.922 210.672C314.309 213.015 312.647 215.643 310.95 218.527C309.252 221.41 307.399 224.486 305.595 227.803C303.685 231.256 301.968 234.813 300.453 238.456C299.664 240.352 298.982 242.32 298.322 244.33L296.191 250.445C293.485 258.188 291.209 266.074 289.373 274.068C287.761 281.454 288.734 278.244 288.592 283.961" fill="#E0E0E0"/>
<path d="M300.14 238.264C300.003 237.942 299.901 237.606 299.835 237.263C299.657 236.616 299.437 235.665 299.181 234.486C298.67 232.135 298.073 228.861 297.427 225.253C296.781 221.645 296.134 218.378 295.587 216.02C295.318 214.848 295.09 213.889 294.92 213.25C294.812 212.915 294.743 212.57 294.714 212.22C294.87 212.533 294.994 212.861 295.083 213.2C295.303 213.839 295.58 214.777 295.886 215.941C296.518 218.271 297.214 221.531 297.86 225.175C298.507 228.818 299.053 231.964 299.487 234.408C299.693 235.523 299.863 236.46 299.998 237.213C300.084 237.557 300.131 237.91 300.14 238.264Z" fill="#E0E0E0"/>
<path d="M330.439 230.259C330.042 230.373 329.636 230.452 329.225 230.493C328.444 230.621 327.307 230.806 325.915 231.069C323.124 231.58 319.289 232.425 315.105 233.533C310.922 234.641 307.172 235.834 304.494 236.765C303.145 237.219 302.065 237.617 301.32 237.887C300.94 238.05 300.545 238.176 300.141 238.263C300.496 238.051 300.869 237.87 301.256 237.724C301.966 237.404 303.053 236.957 304.388 236.466C307.051 235.458 310.78 234.229 314.992 233.107C318.571 232.136 322.198 231.351 325.858 230.756C327.279 230.529 328.408 230.401 329.204 230.323C329.612 230.259 330.026 230.238 330.439 230.259Z" fill="#E0E0E0"/>
<path d="M289.281 273.392C289.186 273.285 289.105 273.166 289.04 273.037L288.436 271.965C287.911 271.027 287.193 269.656 286.305 267.952C284.565 264.543 282.307 259.756 279.913 254.457C277.52 249.159 275.282 244.336 273.613 240.899L271.625 236.829L271.092 235.714C271.019 235.59 270.964 235.456 270.929 235.316C271.027 235.422 271.108 235.542 271.17 235.672L271.774 236.744C272.299 237.681 273.024 239.052 273.905 240.757C275.645 244.166 277.903 248.953 280.297 254.251C282.69 259.55 284.928 264.372 286.597 267.81L288.585 271.88C288.798 272.327 288.976 272.689 289.118 272.995C289.191 273.119 289.246 273.253 289.281 273.392Z" fill="#E0E0E0"/>
<path d="M329.133 257.221C329.013 257.307 328.882 257.374 328.742 257.42L327.584 257.903L323.323 259.643C319.722 261.113 314.8 263.194 309.303 265.516C303.805 267.839 298.848 269.87 295.219 271.269C293.4 271.979 291.923 272.512 290.9 272.874L289.714 273.279C289.579 273.338 289.435 273.376 289.288 273.393C289.41 273.311 289.541 273.244 289.679 273.194L290.836 272.711L295.098 270.971C298.699 269.501 303.621 267.42 309.125 265.104C314.629 262.789 319.566 260.743 323.202 259.351C325.02 258.641 326.498 258.101 327.52 257.746L328.706 257.334C328.843 257.28 328.986 257.242 329.133 257.221Z" fill="#E0E0E0"/>
<path d="M91.0527 11.6406C91.0906 11.7377 91.1214 11.8374 91.1451 11.9389C91.209 12.152 91.2871 12.4503 91.3936 12.8267C91.5141 13.3088 91.6635 13.7831 91.8411 14.2472C92.0455 14.891 92.2825 15.5239 92.5513 16.1435L93.0414 17.2515C93.2332 17.6279 93.4462 18.0257 93.6593 18.4376C93.8724 18.8496 94.121 19.2686 94.3696 19.6947C94.6181 20.1209 94.888 20.5825 95.2218 21.0158C96.6109 23.0481 98.2583 24.8912 100.122 26.4988C102.373 28.454 104.922 30.0366 107.672 31.1864C109.199 31.8272 110.783 32.3241 112.403 32.6708C114.131 33.0026 115.876 33.2397 117.63 33.381C121.181 33.7362 125.109 33.9279 128.83 35.4265C132.552 36.9251 135.791 39.6241 138.596 42.7278C141.409 45.717 143.685 49.1699 145.322 52.9339C146.059 54.7479 146.514 56.6641 146.672 58.6159C146.787 60.4842 146.668 62.3597 146.316 64.1983C145.581 67.5625 144.588 70.8653 143.348 74.0778C142.294 76.8751 141.511 79.7672 141.011 82.7143C140.598 85.1407 140.69 87.6262 141.281 90.0155C141.728 91.8185 142.54 93.5106 143.667 94.9872C144.374 95.9243 145.246 96.7256 146.238 97.3523C146.949 97.7855 147.311 97.956 147.297 97.9773C146.913 97.8243 146.545 97.6365 146.196 97.4162C145.177 96.8053 144.282 96.0106 143.554 95.0724C142.391 93.5928 141.55 91.8876 141.082 90.0652C140.46 87.6528 140.346 85.1374 140.748 82.6787C141.244 79.7184 142.022 76.8122 143.071 73.9996C144.295 70.8012 145.268 67.5123 145.983 64.1628C146.329 62.3499 146.444 60.5003 146.324 58.6585C146.172 56.7424 145.724 54.8616 144.995 53.0831C143.371 49.3597 141.114 45.9453 138.326 42.9906C135.549 39.9082 132.346 37.2376 128.703 35.7746C125.059 34.3115 121.202 34.0984 117.609 33.7362C115.843 33.5944 114.086 33.3573 112.346 33.0259C110.706 32.6685 109.104 32.1597 107.559 31.506C102.475 29.3473 98.1315 25.7537 95.0585 21.1649C94.7318 20.7317 94.4832 20.2629 94.2133 19.8297C93.954 19.4165 93.7169 18.9897 93.5031 18.5513L92.8923 17.3581L92.4235 16.2359C92.1502 15.6108 91.9131 14.9705 91.7133 14.3182C91.5457 13.854 91.4081 13.3796 91.3013 12.8977C91.2113 12.519 91.1403 12.2207 91.0882 12.0028C91.0651 11.8835 91.0532 11.7622 91.0527 11.6406Z" fill="#E0E0E0"/>
<path d="M113.397 0C113.48 0.0660127 113.558 0.137178 113.632 0.213071L114.342 0.873594C114.633 1.17189 114.967 1.58383 115.379 2.01708C115.791 2.45033 116.217 3.02562 116.657 3.69324C119.236 7.39739 120.747 11.7387 121.025 16.2432C121.103 17.7317 121.05 19.224 120.869 20.7035C120.64 22.2988 120.293 23.8751 119.832 25.4195C118.916 28.6297 117.574 31.9395 116.665 35.5546C116.192 37.3969 115.926 39.2858 115.869 41.1868C115.826 43.1735 116.026 45.158 116.466 47.096C117.402 51.181 119.261 54.9977 121.899 58.2538C124.55 61.5004 127.828 64.1793 131.537 66.1304C134.983 67.9581 138.688 69.2468 142.524 69.9515C146.196 70.6262 149.755 70.8109 153.057 71.3151C156.144 71.6808 159.142 72.5872 161.914 73.9927C164.167 75.2267 166.158 76.8891 167.773 78.8863C169.79 81.324 171.18 84.2184 171.822 87.3168C171.893 87.7146 171.942 88.0271 171.978 88.2543C172.014 88.4816 172.014 88.5739 172.014 88.5739C172.014 88.5739 172.014 88.4674 171.942 88.2614C171.871 88.0555 171.829 87.7288 171.751 87.331C171.471 86.1534 171.093 85.0012 170.621 83.8864C169.853 82.1297 168.842 80.4896 167.617 79.0141C165.999 77.0592 164.023 75.4319 161.793 74.22C159.037 72.8501 156.065 71.9682 153.008 71.6134C149.726 71.1305 146.168 70.9529 142.468 70.2853C138.591 69.5869 134.846 68.2906 131.367 66.4429C127.609 64.4756 124.289 61.7671 121.608 58.4811C118.937 55.181 117.056 51.3132 116.111 47.1741C115.668 45.2078 115.467 43.1947 115.514 41.1797C115.575 39.2613 115.849 37.3556 116.331 35.4978C117.261 31.8542 118.618 28.5516 119.541 25.3626C120 23.8318 120.349 22.27 120.585 20.6893C120.773 19.2295 120.833 17.756 120.763 16.2858C120.493 11.8159 119.02 7.50198 116.501 3.79978C116.075 3.13926 115.621 2.59948 115.258 2.11651C114.896 1.63355 114.548 1.25712 114.25 0.951721L113.596 0.241481C113.526 0.164438 113.46 0.0838382 113.397 0Z" fill="#E0E0E0"/>
<path d="M168.001 78.7373C167.735 79.0223 167.445 79.2836 167.134 79.5186C166.566 80.0086 165.714 80.6905 164.662 81.5143C161.891 83.6424 159.013 85.6289 156.04 87.4661C153.062 89.2986 149.992 90.977 146.843 92.4946C145.635 93.077 144.648 93.5245 143.959 93.8086C143.608 93.9811 143.242 94.1213 142.865 94.2276C143.196 94.0224 143.54 93.8397 143.895 93.6807L146.736 92.2603C149.122 91.0457 152.375 89.2915 155.848 87.1465C159.321 85.0016 162.354 82.8851 164.513 81.3013L167.049 79.412C167.345 79.1593 167.664 78.9335 168.001 78.7373Z" fill="#E0E0E0"/>
<path d="M162.098 74.1348C161.832 74.338 161.544 74.5097 161.239 74.6461L158.838 75.9459C156.814 77.0467 154.044 78.6093 151.025 80.4488C148.007 82.2883 145.393 84.0639 143.497 85.3708L141.252 86.9262C140.984 87.1267 140.702 87.3071 140.407 87.466C140.638 87.2215 140.893 87.0003 141.167 86.8054C141.671 86.4006 142.41 85.8395 143.341 85.1577C145.201 83.7869 147.836 81.9829 150.834 80.1363C153.831 78.2897 156.636 76.7627 158.696 75.7186C159.726 75.193 160.564 74.7882 161.153 74.5183C161.457 74.3646 161.773 74.2363 162.098 74.1348Z" fill="#E0E0E0"/>
<path d="M153.633 72.3594C153.11 72.8242 152.544 73.238 151.942 73.5952C150.863 74.3054 149.357 75.2785 147.681 76.2941C146.005 77.3097 144.428 78.1904 143.284 78.8013C142.688 79.1665 142.058 79.4733 141.402 79.7175C141.95 79.2866 142.532 78.9017 143.142 78.5669L147.475 75.9745L151.8 73.3679C152.382 72.9816 152.995 72.6442 153.633 72.3594Z" fill="#E0E0E0"/>
<path d="M145.755 63.0127C145.358 63.3664 144.928 63.6804 144.47 63.9502L141.288 66.0809L138.17 68.2472C137.753 68.5786 137.3 68.8621 136.82 69.0923C137.173 68.6923 137.574 68.337 138.014 68.0341C138.781 67.4233 139.874 66.6136 141.117 65.7755C142.36 64.9374 143.511 64.213 144.363 63.73C144.796 63.4348 145.263 63.1938 145.755 63.0127Z" fill="#E0E0E0"/>
<path d="M145.116 54.6816C145.116 54.7314 144.193 55.2427 142.68 56.1021C141.167 56.9615 139.129 58.2328 136.955 59.7527C134.782 61.2727 132.9 62.7855 131.572 63.9076C130.244 65.0298 129.441 65.7472 129.398 65.7046C129.545 65.4968 129.714 65.3062 129.903 65.1364C130.244 64.7812 130.755 64.2983 131.401 63.7159C133.093 62.1881 134.877 60.765 136.742 59.4544C138.604 58.1488 140.547 56.9627 142.559 55.9032C143.326 55.4913 143.98 55.193 144.406 54.9799C144.629 54.8506 144.868 54.7503 145.116 54.6816Z" fill="#E0E0E0"/>
<path d="M141.012 48.2178C141.069 48.3031 137.212 51.0588 132.404 54.4466C127.596 57.8345 123.639 60.4553 123.583 60.37C123.526 60.2848 127.375 57.5291 132.191 54.1412C137.006 50.7534 140.941 48.1326 141.012 48.2178Z" fill="#E0E0E0"/>
<path d="M137.709 40.9238C137.491 41.1297 137.253 41.3129 136.998 41.4707L134.917 42.8912C133.163 44.0631 130.748 45.7322 128.12 47.5788C125.492 49.4254 123.149 51.201 121.473 52.4794L119.477 53.9922C119.239 54.189 118.985 54.3649 118.717 54.5178C118.913 54.2786 119.137 54.0639 119.384 53.8786C119.832 53.4951 120.485 52.9411 121.309 52.2735C122.957 50.9453 125.272 49.1555 127.907 47.3018C130.542 45.4481 132.978 43.8145 134.775 42.6923C135.677 42.1312 136.409 41.6838 136.906 41.3926C137.156 41.2081 137.425 41.0509 137.709 40.9238Z" fill="#E0E0E0"/>
<path d="M130.94 36.8969C130.997 36.9821 127.723 39.3543 123.632 42.1953C119.541 45.0362 116.167 47.2664 116.11 47.167C116.053 47.0675 119.327 44.7166 123.418 41.8757C127.509 39.0347 130.883 36.8117 130.94 36.8969Z" fill="#E0E0E0"/>
<path d="M123.823 32.8418C122.649 34.0124 121.391 35.0949 120.059 36.0805C118.805 37.162 117.473 38.1495 116.074 39.0351C117.243 37.8597 118.499 36.7746 119.831 35.7893C121.086 34.7075 122.42 33.7221 123.823 32.8418Z" fill="#E0E0E0"/>
<path d="M119.03 22.6211C118.547 23.1665 118.011 23.6637 117.432 24.1055C116.402 24.9791 114.953 26.151 113.305 27.3797C111.658 28.6084 110.123 29.6667 108.994 30.4053C108.406 30.8338 107.778 31.2048 107.119 31.5133C107.661 31.0255 108.24 30.5814 108.852 30.1851C109.939 29.3968 111.444 28.3101 113.114 27.0814C114.783 25.8527 116.232 24.7234 117.297 23.9066C117.842 23.4353 118.421 23.0056 119.03 22.6211Z" fill="#E0E0E0"/>
<path d="M121.125 15.6826C120.907 15.8945 120.669 16.0848 120.414 16.2508C119.932 16.5988 119.221 17.0818 118.341 17.6713C116.572 18.8503 114.079 20.4128 111.281 22.0393C108.482 23.6657 105.883 25.0294 103.98 25.9811C103.028 26.4498 102.254 26.8263 101.714 27.0678C101.441 27.2151 101.153 27.3318 100.854 27.4158C101.104 27.233 101.371 27.0737 101.65 26.9399L103.859 25.7467C105.727 24.7453 108.298 23.339 111.096 21.7197C113.894 20.1003 116.395 18.5733 118.199 17.4582L120.329 16.1372C120.578 15.9591 120.845 15.8068 121.125 15.6826Z" fill="#E0E0E0"/>
<path d="M117.794 8.25293C117.548 8.48041 117.282 8.68486 116.998 8.86374C116.466 9.23306 115.699 9.75864 114.733 10.405C112.815 11.6834 110.13 13.4164 107.133 15.2701C104.136 17.1238 101.387 18.7574 99.3844 19.9009C98.3758 20.4761 97.5591 20.9307 96.9909 21.2361C96.7042 21.4119 96.4023 21.5617 96.0889 21.6836C96.3459 21.4665 96.6243 21.2762 96.9198 21.1154L99.2494 19.6949L106.92 14.9647L114.569 10.1919L116.899 8.7714C117.177 8.56595 117.477 8.39206 117.794 8.25293Z" fill="#E0E0E0"/>
<path d="M301.312 69.2765C301.248 69.3475 300.225 68.3248 298.251 66.6415C297.271 65.7963 296.042 64.7878 294.557 63.7011C292.884 62.4692 291.12 61.3652 289.28 60.3985C288.222 59.8421 287.123 59.3672 285.992 58.978C284.802 58.5438 283.545 58.3203 282.277 58.3175C281.652 58.3254 281.036 58.4709 280.473 58.7436C279.927 59.0319 279.492 59.4943 279.238 60.0576C278.974 60.6715 278.848 61.3358 278.868 62.0036C278.883 62.7214 278.973 63.4356 279.138 64.1343C279.515 65.6254 280.053 67.0709 280.743 68.4455C281.46 69.8986 282.272 71.3031 283.172 72.6501C287.014 78.3296 291.821 83.2912 297.377 87.3095C298.695 88.2515 300.073 89.1056 301.504 89.8663C302.855 90.6008 304.285 91.182 305.765 91.5993C306.461 91.7883 307.175 91.9003 307.896 91.9331C308.564 91.9742 309.233 91.8675 309.856 91.6206C310.423 91.3848 310.895 90.9676 311.198 90.4345C311.489 89.8806 311.654 89.2695 311.681 88.6447C311.72 87.377 311.534 86.1124 311.134 84.9088C310.776 83.7643 310.332 82.6485 309.806 81.5707C308.894 79.7058 307.845 77.911 306.667 76.2013C305.623 74.6885 304.657 73.4314 303.826 72.4228C302.2 70.3987 301.212 69.3475 301.276 69.2765C301.575 69.4777 301.848 69.7164 302.086 69.9867C302.583 70.4626 303.293 71.1799 304.167 72.1601C305.041 73.1402 306.07 74.3618 307.171 75.8604C308.429 77.5623 309.548 79.3626 310.517 81.244C311.076 82.3473 311.551 83.4918 311.937 84.6674C312.393 85.97 312.614 87.343 312.59 88.7228C312.563 89.4947 312.367 90.2512 312.015 90.9388C311.613 91.669 310.978 92.244 310.211 92.5723C309.458 92.893 308.642 93.0363 307.825 92.9914C307.026 92.9668 306.233 92.8524 305.46 92.6505C303.897 92.2243 302.387 91.6264 300.957 90.8678C299.48 90.0915 298.057 89.2184 296.695 88.2541C293.859 86.2264 291.222 83.9339 288.819 81.4074C286.375 78.9078 284.171 76.1852 282.235 73.2751C281.317 71.8805 280.489 70.4287 279.756 68.9285C279.034 67.472 278.474 65.9405 278.087 64.3616C277.912 63.5805 277.821 62.7828 277.817 61.9823C277.804 61.1652 277.971 60.3552 278.307 59.6101C278.662 58.8571 279.257 58.2428 279.998 57.8629C280.695 57.5317 281.456 57.3571 282.228 57.3516C283.608 57.3681 284.975 57.6328 286.262 58.1328C287.426 58.5596 288.557 59.0748 289.643 59.674C291.492 60.7021 293.256 61.8753 294.92 63.1826C296.383 64.3332 297.583 65.3986 298.528 66.3006C299.472 67.2026 300.175 67.9412 300.658 68.4313C300.916 68.6802 301.136 68.9648 301.312 69.2765Z" fill="#E0E0E0"/>
<path d="M288.138 72.5718C288.23 72.5718 287.832 73.9355 287.307 76.3929C287.044 77.6216 286.753 79.1344 286.518 80.8958C286.251 82.887 286.142 84.8961 286.192 86.9044C286.218 88.0603 286.337 89.2122 286.547 90.3491C286.747 91.5571 287.163 92.7191 287.775 93.7796C288.085 94.2992 288.505 94.7451 289.004 95.0864C289.509 95.4108 290.102 95.5697 290.702 95.5409C291.346 95.5072 291.974 95.3301 292.541 95.0225C293.163 94.7076 293.745 94.3189 294.274 93.8648C295.394 92.8908 296.4 91.7923 297.271 90.5906C298.199 89.3287 299.039 88.0045 299.786 86.6274C302.92 80.7756 304.945 74.3945 305.759 67.8061C305.945 66.2509 306.023 64.6846 305.993 63.1185C305.976 61.634 305.788 60.1563 305.432 58.715C305.269 58.0418 305.031 57.389 304.722 56.769C304.431 56.1908 304.019 55.6821 303.514 55.2775C303.039 54.9144 302.464 54.7039 301.867 54.6738C301.26 54.6643 300.659 54.7879 300.105 55.036C298.994 55.5487 297.984 56.2558 297.122 57.1241C296.295 57.9342 295.532 58.8081 294.842 59.7378C293.646 61.352 292.577 63.057 291.646 64.8373C290.822 66.414 290.183 67.8132 289.693 68.9638C288.706 71.2721 288.273 72.6002 288.166 72.5718C288.187 72.2299 288.256 71.8927 288.372 71.5704C288.557 70.9312 288.841 69.9865 289.274 68.8004C289.707 67.6143 290.297 66.1726 291.078 64.539C291.965 62.6911 293.005 60.9212 294.189 59.2477C294.886 58.269 295.66 57.3475 296.504 56.492C297.427 55.5193 298.523 54.7269 299.736 54.1553C300.416 53.8443 301.155 53.6844 301.902 53.6865C302.703 53.7143 303.477 53.987 304.118 54.4678C304.746 54.9489 305.26 55.5624 305.624 56.2647C305.989 56.9395 306.275 57.6546 306.476 58.3954C306.872 59.9154 307.087 61.477 307.115 63.0475C307.157 64.6651 307.086 66.2836 306.902 67.8913C306.108 74.6348 304.035 81.1649 300.794 87.1317C300.021 88.5525 299.145 89.9151 298.173 91.2085C297.245 92.4766 296.17 93.6305 294.97 94.646C294.375 95.1434 293.724 95.57 293.031 95.9174C292.326 96.2799 291.55 96.4835 290.758 96.514C289.957 96.5403 289.168 96.3169 288.5 95.8748C287.886 95.4448 287.373 94.8876 286.994 94.2412C286.338 93.0761 285.902 91.8 285.709 90.4769C285.511 89.2891 285.412 88.0872 285.41 86.8831C285.405 84.8341 285.574 82.7884 285.915 80.768C286.167 79.2466 286.497 77.739 286.902 76.2509C287.229 75.0292 287.541 74.1201 287.761 73.4667C287.846 73.1528 287.972 72.8517 288.138 72.5718Z" fill="#E0E0E0"/>
<path d="M292.647 66.2152C292.647 66.3076 291.319 66.6698 288.954 67.515C287.775 67.9411 286.341 68.488 284.693 69.2195C282.86 70.0267 281.093 70.9766 279.409 72.0605C278.44 72.6971 277.523 73.4095 276.667 74.1912C275.744 74.9929 274.974 75.9555 274.394 77.0322C274.118 77.5699 273.96 78.161 273.933 78.7652C273.923 79.3649 274.099 79.9529 274.437 80.4484C274.808 80.9795 275.294 81.4211 275.857 81.7411C276.454 82.101 277.09 82.3894 277.754 82.6005C279.171 83.0431 280.634 83.3219 282.115 83.4314C283.677 83.5514 285.245 83.568 286.809 83.4812C293.444 83.069 299.945 81.434 305.986 78.6586C307.406 77.996 308.779 77.2391 310.098 76.393C311.349 75.5944 312.505 74.6556 313.543 73.5946C314.027 73.0944 314.452 72.539 314.807 71.9398C315.146 71.389 315.362 70.771 315.439 70.1287C315.505 69.5326 315.381 68.931 315.084 68.4099C314.773 67.8912 314.354 67.4455 313.855 67.103C312.832 66.4313 311.697 65.9501 310.503 65.6826C309.381 65.4047 308.238 65.2148 307.087 65.1144C305.084 64.9587 303.073 64.9587 301.071 65.1144C299.295 65.2422 297.768 65.434 296.525 65.6186C294.047 65.9951 292.683 66.3289 292.662 66.2223C292.963 66.0617 293.286 65.9445 293.62 65.8743C294.26 65.6897 295.211 65.434 296.461 65.1641C297.711 64.8942 299.231 64.6456 301.028 64.4538C303.066 64.2362 305.119 64.1911 307.165 64.3189C308.36 64.3949 309.548 64.5659 310.716 64.8303C312.028 65.1063 313.277 65.6215 314.402 66.3502C315.023 66.7658 315.546 67.311 315.936 67.9482C316.337 68.6424 316.514 69.4439 316.44 70.2423C316.369 71.0285 316.127 71.7897 315.73 72.4724C315.341 73.1437 314.877 73.768 314.345 74.3333C313.259 75.4688 312.044 76.4724 310.723 77.3234C309.37 78.2087 307.958 79.0012 306.497 79.6956C300.34 82.5535 293.699 84.2257 286.923 84.6246C285.306 84.7069 283.685 84.6784 282.072 84.5394C280.507 84.4144 278.962 84.1045 277.47 83.6161C276.722 83.3777 276.006 83.0485 275.339 82.636C274.658 82.2313 274.076 81.6807 273.634 81.0237C273.19 80.356 272.964 79.5668 272.988 78.7652C273.031 78.0202 273.235 77.2934 273.585 76.6344C274.231 75.4766 275.083 74.4465 276.099 73.5946C277.003 72.8071 277.97 72.0945 278.99 71.4639C280.736 70.3628 282.572 69.4124 284.48 68.6229C286.149 67.9127 287.619 67.4511 288.833 67.0888C290.048 66.7266 291 66.4922 291.674 66.3786C291.99 66.2791 292.317 66.2241 292.647 66.2152Z" fill="#E0E0E0"/>
<path d="M299.572 74.1631C299.747 74.8719 299.708 75.6168 299.46 76.3033C299.211 76.9898 298.764 77.587 298.176 78.0193C297.587 78.4515 296.884 78.6993 296.155 78.7311C295.425 78.7629 294.703 78.5774 294.079 78.1981C293.455 77.8188 292.958 77.2628 292.65 76.6005C292.343 75.9383 292.239 75.1996 292.352 74.4783C292.465 73.757 292.79 73.0854 293.285 72.5488C293.78 72.0122 294.423 71.6347 295.133 71.4642C296.079 71.237 297.077 71.3932 297.909 71.8988C298.74 72.4044 299.338 73.2184 299.572 74.1631Z" fill="#E0E0E0"/>
<path d="M40.1578 119.391C40.108 119.391 40.5129 118.624 41.145 117.26C41.4575 116.55 41.8552 115.712 42.1961 114.697C42.6219 113.541 42.9568 112.353 43.1976 111.145C43.3409 110.457 43.4311 109.759 43.4675 109.057C43.5207 108.315 43.4413 107.57 43.2331 106.855C43.1263 106.502 42.9419 106.177 42.6933 105.904C42.4438 105.644 42.1132 105.476 41.7558 105.428C41.3668 105.376 40.9711 105.412 40.5981 105.534C40.1919 105.658 39.8011 105.827 39.4333 106.039C38.6686 106.507 37.9586 107.06 37.3168 107.686C36.6126 108.327 35.9529 109.016 35.3423 109.746C32.7626 112.842 30.7501 116.369 29.3976 120.165C29.0783 121.063 28.8196 121.981 28.6235 122.914C28.4311 123.796 28.3382 124.696 28.3465 125.599C28.3507 126.022 28.4032 126.444 28.5027 126.856C28.5862 127.24 28.7563 127.599 28.9999 127.907C29.2256 128.192 29.541 128.392 29.8948 128.475C30.2528 128.553 30.6234 128.553 30.9815 128.475C31.7033 128.29 32.3863 127.977 32.9985 127.552C33.5839 127.163 34.1394 126.731 34.6605 126.259C35.5657 125.442 36.4062 124.557 37.1747 123.61C37.885 122.779 38.4106 122.026 38.8509 121.401C39.7245 120.151 40.1578 119.42 40.2075 119.448C40.1454 119.647 40.0595 119.838 39.9518 120.016C39.7671 120.371 39.4759 120.897 39.0711 121.543C38.6662 122.19 38.1336 122.964 37.473 123.844C36.7166 124.832 35.883 125.758 34.9801 126.614C34.4508 127.115 33.8833 127.573 33.2826 127.985C32.6131 128.456 31.8616 128.798 31.0667 128.994C30.628 129.108 30.1694 129.122 29.7243 129.036C29.2477 128.926 28.8208 128.661 28.5098 128.283C28.2086 127.912 27.995 127.477 27.8848 127.012C27.7675 126.547 27.7008 126.071 27.6859 125.592C27.6719 124.637 27.7649 123.684 27.9629 122.751C28.1543 121.787 28.4129 120.837 28.7371 119.91C30.0973 116.021 32.1524 112.411 34.8025 109.256C35.4343 108.499 36.1177 107.787 36.848 107.125C37.5503 106.483 38.3221 105.921 39.1492 105.449C39.5617 105.223 39.9975 105.042 40.449 104.909C40.9083 104.767 41.3934 104.728 41.8694 104.796C42.3518 104.876 42.7953 105.11 43.1337 105.463C43.4343 105.804 43.6572 106.207 43.7871 106.642C44.0014 107.423 44.076 108.236 44.0072 109.043C43.9543 109.76 43.8475 110.473 43.6876 111.174C43.4109 112.385 43.038 113.573 42.5726 114.725C42.1606 115.741 41.7558 116.586 41.4007 117.268C41.0456 117.949 40.7472 118.468 40.5342 118.809C40.4387 119.021 40.3118 119.217 40.1578 119.391Z" fill="#E0E0E0"/>
<path d="M36.1587 112.502C36.1587 112.552 35.342 112.545 33.8647 112.651C33.1544 112.708 32.2311 112.786 31.2013 112.942C30.0344 113.119 28.8828 113.385 27.7566 113.738C27.1084 113.946 26.4769 114.202 25.8674 114.505C25.2188 114.816 24.6317 115.242 24.1344 115.762C23.8933 116.02 23.7116 116.328 23.6017 116.664C23.4951 116.999 23.4951 117.359 23.6017 117.694C23.7292 118.053 23.9327 118.38 24.1983 118.653C24.4798 118.948 24.7944 119.21 25.1358 119.434C25.867 119.91 26.6512 120.298 27.4725 120.592C28.3372 120.909 29.2222 121.168 30.1217 121.366C32.0216 121.787 33.9576 122.025 35.9031 122.076C37.8477 122.135 39.7935 122.004 41.7128 121.685C42.6217 121.539 43.5189 121.328 44.3975 121.053C45.2325 120.801 46.0356 120.453 46.791 120.016C47.1412 119.817 47.4676 119.579 47.764 119.306C48.0461 119.052 48.265 118.736 48.4033 118.383C48.5346 118.058 48.5619 117.701 48.4814 117.36C48.3844 117.017 48.2176 116.698 47.9913 116.423C47.5207 115.88 46.9551 115.427 46.3223 115.087C45.7309 114.749 45.1134 114.46 44.4756 114.221C43.3687 113.81 42.2312 113.487 41.0736 113.255C40.0508 113.049 39.1631 112.914 38.4315 112.829C36.9613 112.644 36.1445 112.609 36.1445 112.559C36.339 112.508 36.5409 112.491 36.7411 112.509C37.1318 112.509 37.7142 112.509 38.4528 112.566C39.3549 112.627 40.2534 112.733 41.1446 112.886C42.333 113.083 43.5021 113.382 44.639 113.78C45.3086 114.008 45.9573 114.294 46.578 114.633C47.2734 114.989 47.897 115.47 48.4175 116.053C48.709 116.382 48.9205 116.773 49.0354 117.197C49.1514 117.653 49.1241 118.134 48.9573 118.575C48.7889 119.008 48.527 119.398 48.1902 119.718C47.8642 120.039 47.5019 120.32 47.1106 120.556C46.3165 121.025 45.4703 121.399 44.5893 121.671C43.6861 121.972 42.7629 122.21 41.8264 122.381C39.8629 122.711 37.872 122.849 35.8817 122.793C33.8934 122.752 31.914 122.514 29.9726 122.083C29.049 121.844 28.1425 121.542 27.2594 121.181C26.3935 120.864 25.5685 120.444 24.802 119.931C24.422 119.681 24.0738 119.385 23.7651 119.05C23.446 118.713 23.2038 118.311 23.0548 117.871C22.9127 117.423 22.9127 116.942 23.0548 116.494C23.2054 116.074 23.4481 115.693 23.7651 115.379C24.3137 114.814 24.9644 114.358 25.6827 114.036C26.3198 113.731 26.98 113.477 27.6572 113.276C28.8185 112.939 30.0065 112.701 31.2084 112.566C32.2595 112.445 33.1686 112.396 33.9144 112.381C34.6601 112.367 35.2354 112.381 35.6261 112.381C35.8088 112.394 35.9885 112.434 36.1587 112.502Z" fill="#E0E0E0"/>
<path d="M40.4839 114C40.4342 114 40.0081 113.332 39.1416 112.132C38.7083 111.535 38.1686 110.818 37.4938 110.001C36.7326 109.097 35.8988 108.256 35.0009 107.487C34.487 107.044 33.9384 106.642 33.3602 106.287C32.7547 105.896 32.0833 105.62 31.3787 105.47C31.0323 105.395 30.6739 105.395 30.3275 105.47C29.9872 105.562 29.6843 105.758 29.461 106.031C29.2207 106.325 29.0506 106.67 28.9639 107.04C28.8566 107.433 28.797 107.839 28.7863 108.247C28.769 109.12 28.8524 109.992 29.0349 110.846C29.2107 111.747 29.448 112.635 29.7451 113.503C30.3924 115.335 31.2153 117.099 32.2025 118.773C33.1801 120.457 34.3144 122.046 35.5904 123.517C36.1963 124.21 36.8489 124.86 37.5435 125.463C38.1947 126.038 38.9096 126.536 39.6743 126.948C40.0368 127.141 40.4205 127.291 40.8178 127.395C41.1833 127.495 41.5662 127.514 41.9399 127.452C42.285 127.391 42.6026 127.225 42.849 126.976C43.0919 126.715 43.276 126.405 43.3888 126.067C43.5999 125.377 43.6889 124.656 43.6516 123.936C43.624 123.256 43.5433 122.579 43.4101 121.912C43.1764 120.755 42.8535 119.617 42.4442 118.51C42.082 117.53 41.734 116.706 41.4144 116.038C40.7964 114.696 40.3987 113.979 40.4484 113.95C40.5821 114.098 40.6988 114.26 40.7964 114.433C41.0095 114.767 41.3078 115.264 41.6487 115.918C41.9896 116.571 42.359 117.395 42.7993 118.375C43.2665 119.514 43.6395 120.69 43.9144 121.891C44.0664 122.58 44.1638 123.281 44.2056 123.986C44.262 124.769 44.1754 125.556 43.9499 126.308C43.8179 126.728 43.5948 127.114 43.2965 127.438C42.9717 127.777 42.55 128.008 42.0891 128.098C41.6316 128.182 41.1615 128.165 40.7112 128.048C40.2727 127.94 39.8484 127.78 39.447 127.573C38.6294 127.147 37.8642 126.627 37.1671 126.024C36.4423 125.404 35.7612 124.735 35.1287 124.021C32.5033 121.021 30.4738 117.547 29.1485 113.787C28.8494 112.888 28.6121 111.97 28.4383 111.038C28.2514 110.135 28.1727 109.212 28.2039 108.29C28.2216 107.833 28.2931 107.38 28.417 106.94C28.5334 106.491 28.7495 106.073 29.0491 105.719C29.3561 105.369 29.7624 105.121 30.2139 105.008C30.6442 104.913 31.0904 104.913 31.5207 105.008C32.2811 105.184 33.0031 105.497 33.6514 105.932C34.2469 106.311 34.8099 106.738 35.3347 107.21C36.2215 108.008 37.0388 108.88 37.7779 109.817C38.4385 110.648 38.9569 111.393 39.3618 112.018C39.7666 112.643 40.072 113.148 40.2354 113.496C40.3361 113.654 40.4194 113.823 40.4839 114Z" fill="#E0E0E0"/>
<path d="M37.1249 119.206C36.7599 119.412 36.3424 119.505 35.9247 119.475C35.507 119.444 35.1076 119.291 34.7763 119.035C34.445 118.779 34.1966 118.43 34.0621 118.034C33.9276 117.637 33.913 117.21 34.02 116.805C34.1271 116.4 34.3511 116.036 34.6641 115.757C34.9771 115.479 35.3651 115.299 35.7798 115.24C36.1944 115.181 36.6172 115.246 36.9954 115.425C37.3736 115.605 37.6904 115.893 37.9061 116.252C38.0529 116.496 38.1493 116.767 38.1894 117.049C38.2295 117.331 38.2127 117.619 38.1399 117.894C38.067 118.17 37.9397 118.428 37.7653 118.653C37.591 118.878 37.3732 119.067 37.1249 119.206Z" fill="#E0E0E0"/>
<path d="M57.2031 229.784C57.2031 230.085 57.3228 230.374 57.5359 230.587C57.749 230.801 58.0381 230.92 58.3395 230.92H60.3281V251.517L47.9061 279.117C47.583 279.832 47.4437 280.616 47.5008 281.399C47.5578 282.181 47.8095 282.937 48.2329 283.597C48.6562 284.258 49.2379 284.802 49.925 285.181C50.6122 285.559 51.383 285.76 52.1675 285.765H76.8625C77.6482 285.759 78.42 285.557 79.1078 285.178C79.7956 284.798 80.3776 284.252 80.801 283.59C81.2244 282.928 81.4757 282.171 81.5321 281.388C81.5885 280.604 81.4482 279.819 81.1239 279.103L68.2189 250.636V231.048H70.0513C70.3696 231.048 70.675 230.922 70.9001 230.697C71.1252 230.471 71.2516 230.166 71.2516 229.848C71.2516 229.529 71.1252 229.224 70.9001 228.999C70.675 228.774 70.3696 228.647 70.0513 228.647H58.304C58.0088 228.657 57.7288 228.78 57.5233 228.993C57.3178 229.205 57.2029 229.489 57.2031 229.784Z" fill="#EBEBEB"/>
<path d="M96.039 286.419H75.1438C73.9891 286.419 72.8817 285.96 72.0652 285.143C71.2487 284.327 70.79 283.22 70.79 282.065V246.184H103.717L100.386 249.486V282.072C100.384 283.224 99.9253 284.329 99.1105 285.143C98.2958 285.958 97.1913 286.417 96.039 286.419Z" fill="#F5F5F5"/>
<path d="M78.7451 256.325C77.4753 256.508 76.1912 256.569 74.9098 256.51C73.626 256.57 72.3395 256.508 71.0674 256.325C72.3391 256.139 73.626 256.077 74.9098 256.141C76.1912 256.077 77.4757 256.139 78.7451 256.325Z" fill="#E0E0E0"/>
<path d="M74.4765 252.049C73.9282 252.233 73.3468 252.296 72.772 252.234C72.1971 252.297 71.6155 252.234 71.0674 252.049C71.6164 251.869 72.1971 251.807 72.772 251.865C73.3468 251.807 73.9273 251.87 74.4765 252.049Z" fill="#E0E0E0"/>
<path d="M78.7441 264.806C77.4743 264.988 76.1902 265.05 74.9088 264.99C73.625 265.05 72.3385 264.988 71.0664 264.806C72.3381 264.619 73.625 264.557 74.9088 264.621C76.1902 264.557 77.4748 264.619 78.7441 264.806Z" fill="#E0E0E0"/>
<path d="M74.4765 260.537C73.9273 260.716 73.3468 260.779 72.772 260.721C72.1971 260.78 71.6164 260.717 71.0674 260.537C71.6146 260.348 72.1966 260.283 72.772 260.345C73.3473 260.284 73.9292 260.349 74.4765 260.537Z" fill="#E0E0E0"/>
<path d="M78.7451 273.286C77.4753 273.468 76.1912 273.53 74.9098 273.47C73.626 273.53 72.3395 273.468 71.0674 273.286C72.3395 273.103 73.626 273.041 74.9098 273.101C76.1912 273.042 77.4753 273.103 78.7451 273.286Z" fill="#E0E0E0"/>
<path d="M74.4756 269.018C73.9263 269.197 73.3458 269.26 72.771 269.202C72.1961 269.261 71.6154 269.198 71.0664 269.018C71.6146 268.834 72.1961 268.771 72.771 268.833C73.3458 268.771 73.9273 268.834 74.4756 269.018Z" fill="#E0E0E0"/>
<path d="M78.7451 281.766C77.4753 281.949 76.1912 282.01 74.9098 281.951C73.626 282.011 72.3395 281.949 71.0674 281.766C72.3395 281.584 73.626 281.522 74.9098 281.582C76.1912 281.522 77.4753 281.584 78.7451 281.766Z" fill="#E0E0E0"/>
<path d="M74.4756 277.497C73.9263 277.676 73.3458 277.739 72.771 277.682C72.1961 277.74 71.6154 277.677 71.0664 277.497C71.6146 277.313 72.1961 277.25 72.771 277.312C73.3458 277.251 73.9273 277.314 74.4756 277.497Z" fill="#E0E0E0"/>
<path d="M336 286.418C336 286.517 260.779 286.603 168.007 286.603C75.2356 286.603 0 286.517 0 286.418C0 286.319 75.2072 286.233 168.007 286.233C260.807 286.233 336 286.312 336 286.418Z" fill="#263238"/>
<path d="M252.405 117.878L221.736 116.457C221.559 113.205 223.221 93.0763 223.221 93.0763C223.221 93.0763 211.63 91.2723 211.488 79.6812C211.346 68.0901 213.356 41.4774 213.356 41.4774C226.772 35.7103 243.115 34.7373 254.684 43.6082L256.403 44.9292L252.405 117.878Z" fill="#B78876"/>
<path d="M223.2 92.9138C228.549 93.0227 233.81 91.5394 238.314 88.6523C238.314 88.6523 234.763 96.9906 223.179 95.9465L223.2 92.9138Z" fill="#AA6550"/>
<path d="M254.117 59.9018C254.316 59.8165 262.079 57.5438 261.83 65.47C261.581 73.3963 253.669 71.5071 253.662 71.2798C253.655 71.0525 254.117 59.9018 254.117 59.9018Z" fill="#B78876"/>
<path d="M256.184 68.3536C256.184 68.3536 256.319 68.453 256.546 68.5666C256.869 68.7197 257.239 68.7401 257.576 68.6235C258.421 68.3394 259.174 67.0325 259.252 65.612C259.287 64.9414 259.17 64.2716 258.912 63.6518C258.846 63.4008 258.72 63.1698 258.544 62.9791C258.368 62.7884 258.148 62.6438 257.903 62.558C257.747 62.5128 257.579 62.5227 257.429 62.5861C257.279 62.6494 257.156 62.7624 257.079 62.906C256.965 63.1262 257.015 63.2896 256.973 63.2967C256.93 63.3038 256.802 63.1617 256.88 62.835C256.928 62.6404 257.044 62.4692 257.207 62.3521C257.317 62.2732 257.441 62.217 257.573 62.1865C257.704 62.156 257.841 62.1519 257.974 62.1745C258.301 62.2455 258.603 62.3999 258.852 62.6228C259.101 62.8456 259.288 63.1292 259.394 63.4458C259.708 64.1431 259.847 64.906 259.799 65.6689C259.7 67.2669 258.833 68.73 257.669 69.0283C257.454 69.0829 257.229 69.0889 257.012 69.0459C256.795 69.0029 256.589 68.912 256.412 68.7797C256.191 68.5453 256.156 68.3678 256.184 68.3536Z" fill="#AA6550"/>
<path d="M215.906 59.6531C215.902 60.0848 216.067 60.5009 216.366 60.8127C216.664 61.1246 217.073 61.3074 217.504 61.3222C217.715 61.3396 217.927 61.3145 218.127 61.2484C218.328 61.1823 218.513 61.0765 218.672 60.9374C218.832 60.7983 218.961 60.6286 219.053 60.4385C219.145 60.2484 219.198 60.0417 219.209 59.8307C219.213 59.4002 219.049 58.9851 218.752 58.6735C218.455 58.3618 218.048 58.1782 217.618 58.1616C217.407 58.1442 217.195 58.1693 216.994 58.2353C216.793 58.3013 216.607 58.4069 216.447 58.546C216.288 58.685 216.158 58.8546 216.065 59.0448C215.972 59.2349 215.918 59.4418 215.906 59.6531Z" fill="#263238"/>
<path d="M215.543 57.792C215.749 58.0051 217.007 57.0817 218.789 57.0817C220.572 57.0817 221.872 57.9766 222.063 57.792C222.163 57.6925 221.95 57.3019 221.353 56.89C220.582 56.354 219.664 56.071 218.725 56.0803C217.8 56.0771 216.897 56.3681 216.147 56.9113C215.629 57.3019 215.444 57.6925 215.543 57.792Z" fill="#263238"/>
<path d="M233.343 60.1004C233.339 60.5321 233.504 60.9482 233.802 61.26C234.101 61.5718 234.509 61.7546 234.941 61.7694C235.151 61.7868 235.363 61.7618 235.564 61.6957C235.765 61.6296 235.95 61.5238 236.109 61.3847C236.268 61.2455 236.397 61.0759 236.49 60.8858C236.582 60.6956 236.635 60.4889 236.645 60.2779C236.651 59.8469 236.488 59.4308 236.191 59.1188C235.893 58.8068 235.485 58.6237 235.055 58.6089C234.844 58.5915 234.631 58.6165 234.43 58.6825C234.229 58.7486 234.043 58.8542 233.884 58.9932C233.724 59.1323 233.594 59.3019 233.501 59.4921C233.408 59.6822 233.354 59.8891 233.343 60.1004Z" fill="#263238"/>
<path d="M233.051 58.1257C233.257 58.3387 234.514 57.4154 236.297 57.4154C238.08 57.4154 239.379 58.3103 239.571 58.1257C239.671 58.0333 239.465 57.6427 238.861 57.2307C238.092 56.6957 237.177 56.4128 236.24 56.4211C235.312 56.4168 234.407 56.7079 233.655 57.2521C233.136 57.6356 232.952 58.0262 233.051 58.1257Z" fill="#263238"/>
<path d="M226.588 71.3291C226.588 71.2296 225.494 71.0379 223.697 70.8106C223.243 70.7609 222.81 70.6756 222.732 70.3631C222.695 69.8928 222.801 69.4224 223.037 69.0137C223.463 67.9128 223.911 66.7622 224.386 65.5477C226.254 60.6186 227.604 56.5632 227.405 56.4922C227.206 56.4211 225.53 60.3559 223.662 65.2849C223.215 66.4994 222.781 67.6642 222.376 68.7722C222.088 69.3193 222.003 69.9508 222.135 70.5549C222.203 70.7154 222.305 70.8587 222.436 70.9742C222.566 71.0897 222.72 71.1746 222.888 71.2225C223.138 71.2881 223.396 71.3239 223.655 71.3291C225.466 71.464 226.581 71.464 226.588 71.3291Z" fill="#263238"/>
<path d="M231.829 72.5648C231.538 72.5648 231.538 74.4824 229.883 75.8532C228.228 77.2239 226.169 77.0108 226.154 77.2736C226.154 77.3944 226.616 77.6501 227.482 77.6714C228.615 77.692 229.717 77.3093 230.593 76.5918C231.434 75.9029 231.976 74.9155 232.106 73.8361C232.177 73.0335 231.964 72.5506 231.829 72.5648Z" fill="#263238"/>
<path d="M232.632 51.1443C232.802 51.6273 234.585 51.4 236.673 51.6486C238.761 51.8972 240.452 52.4725 240.729 52.0392C240.856 51.8332 240.558 51.3716 239.876 50.9028C238.972 50.3196 237.943 49.9593 236.872 49.8517C235.802 49.7245 234.717 49.851 233.704 50.221C232.902 50.5335 232.518 50.917 232.632 51.1443Z" fill="#263238"/>
<path d="M216.204 52.6355C216.517 53.0403 217.738 52.6355 219.216 52.6355C220.693 52.6355 221.943 52.9054 222.227 52.4864C222.355 52.2804 222.156 51.8756 221.609 51.492C220.883 51.0186 220.025 50.7873 219.159 50.8315C218.294 50.8449 217.455 51.1279 216.758 51.6412C216.233 52.0247 216.062 52.4366 216.204 52.6355Z" fill="#263238"/>
<path d="M254.685 35.8954C253.151 34.7945 251.326 33.6653 249.593 34.0488C249.593 31.1155 245.267 27.6566 241.958 26.6339C238.094 25.4123 232.994 27.3015 229.173 28.5729C226.744 29.3825 224.322 30.5047 221.766 30.3982C220.055 30.2236 218.38 29.7976 216.794 29.1339C215.2 28.457 213.483 28.1184 211.751 28.1396C210.039 28.2532 208.278 29.1623 207.632 30.7533C207.384 31.401 207.357 32.1125 207.557 32.7768C207.756 33.4411 208.169 34.0207 208.733 34.4252C206.68 33.9778 204.258 35.4409 203.953 37.5787C203.881 38.5395 204.152 39.4947 204.718 40.2748C205.283 41.0549 206.107 41.6095 207.042 41.8401C206.683 42.0275 206.385 42.3134 206.182 42.6644C205.979 43.0154 205.881 43.4168 205.899 43.8217C206.034 45.2422 207.319 46.2294 208.576 46.7905C211.843 48.211 215.679 47.7635 219.038 46.6271C222.398 45.4907 225.565 43.7152 228.918 42.4935C232.27 41.2719 237.888 39.0773 241.254 40.2634C241.703 40.4271 242.129 40.6441 242.526 40.9097L242.59 40.9594C244.417 42.3982 245.618 44.4873 245.942 46.7905C245.942 46.8686 245.942 46.9467 245.942 47.0249C246.389 50.292 246.311 53.6159 246.787 56.883C247.263 60.1501 248.399 63.474 250.814 65.7255C251.809 66.6488 253.563 67.288 254.365 66.2013C254.642 65.751 254.785 65.2312 254.777 64.7027C255.388 56.8049 257.54 49.7877 257.526 41.5418C257.533 40.4429 257.28 39.358 256.786 38.3764C256.292 37.3947 255.572 36.5444 254.685 35.8954Z" fill="#263238"/>
<path d="M247.476 34.5889C247.476 34.5889 246.951 34.2693 245.935 33.8787C244.489 33.3291 242.95 33.0685 241.404 33.1116C239.108 33.1894 236.845 33.6852 234.727 34.5747C232.313 35.5122 229.805 36.8972 227.071 38.1685C222.388 40.3404 217.316 41.5481 212.156 41.7197C210.596 41.773 209.035 41.7208 207.483 41.5635C206.936 41.5209 206.51 41.4427 206.226 41.4072C206.077 41.3876 205.93 41.3591 205.785 41.322C205.934 41.302 206.084 41.302 206.233 41.322C206.524 41.322 206.943 41.3859 207.497 41.4143C209.046 41.5122 210.599 41.5265 212.149 41.4569C217.27 41.2081 222.295 39.9759 226.95 37.8276C229.663 36.5634 232.192 35.1855 234.642 34.2764C236.797 33.3828 239.1 32.901 241.432 32.8559C243.006 32.8308 244.569 33.1331 246.02 33.7437C246.414 33.9097 246.792 34.1118 247.149 34.3474C247.268 34.4136 247.378 34.4948 247.476 34.5889Z" fill="#455A64"/>
<path d="M208.945 33.4379C209.325 33.8446 209.76 34.196 210.238 34.4819C211.614 35.1327 213.141 35.3955 214.656 35.2419C216.912 35.1083 219.148 34.7345 221.325 34.1268C222.611 33.7728 223.873 33.3363 225.103 32.82C226.389 32.2944 227.674 31.641 228.995 30.9733C231.616 29.6381 234.258 28.4165 236.879 28.2105C239.19 28.029 241.501 28.5621 243.498 29.7375C244.842 30.5114 246.01 31.5563 246.929 32.8058C247.177 33.1446 247.4 33.5006 247.597 33.8711C247.675 33.9926 247.737 34.124 247.781 34.2618C247.746 34.2618 247.476 33.7433 246.815 32.891C245.868 31.7009 244.698 30.707 243.371 29.9648C241.409 28.8495 239.156 28.3543 236.907 28.5443C234.372 28.7574 231.779 29.9648 229.159 31.3001C227.838 31.9606 226.545 32.6211 225.245 33.1538C223.998 33.665 222.719 34.0967 221.417 34.4464C219.211 35.0437 216.946 35.3962 214.663 35.4976C213.109 35.6304 211.549 35.3175 210.167 34.5956C209.808 34.3846 209.48 34.124 209.194 33.8214C209.098 33.7028 209.014 33.5743 208.945 33.4379Z" fill="#455A64"/>
<path d="M256.93 51.1158C256.636 51.1438 256.339 51.1295 256.049 51.0732C255.253 50.9769 254.469 50.7935 253.713 50.5263C252.581 50.1374 251.508 49.5949 250.524 48.914C249.948 48.5059 249.405 48.0548 248.897 47.5646C248.338 47.0439 247.859 46.4431 247.477 45.7819C246.762 44.4998 246.304 43.0911 246.127 41.6341C245.977 40.453 246.003 39.2562 246.205 38.0829C246.351 37.2901 246.609 36.5223 246.972 35.803C247.104 35.5476 247.266 35.3091 247.455 35.0928C246.994 36.0389 246.669 37.0456 246.489 38.0829C246.318 39.2366 246.318 40.4093 246.489 41.5631C246.66 42.9787 247.101 44.3483 247.789 45.5972C248.158 46.2292 248.617 46.8036 249.153 47.3018C249.639 47.7882 250.164 48.2347 250.723 48.637C251.673 49.3151 252.707 49.8688 253.798 50.2848C254.821 50.6348 255.868 50.9124 256.93 51.1158Z" fill="#455A64"/>
<path d="M257.413 45.5972C257.413 45.5972 257.193 45.5972 256.823 45.4694C256.295 45.3076 255.777 45.1107 255.275 44.8799C254.536 44.5365 253.823 44.1376 253.144 43.6867C252.754 43.4381 252.356 43.1611 251.944 42.877C251.506 42.5883 251.094 42.2602 250.715 41.8969C249.424 40.5843 248.452 38.9926 247.874 37.2448C247.694 36.7191 247.568 36.1766 247.498 35.6255C247.464 35.4232 247.464 35.2169 247.498 35.0146C247.562 35.0146 247.633 35.874 248.13 37.1454C248.757 38.8193 249.725 40.3453 250.971 41.627C251.713 42.2726 252.501 42.8636 253.329 43.3955C253.993 43.853 254.686 44.2681 255.403 44.6384C256.617 45.2634 257.434 45.5404 257.413 45.5972Z" fill="#455A64"/>
<path d="M188.697 230.956L190.828 286.632H237.633L237.448 270.687L242.945 286.632H291.412L275.836 231.546L188.697 230.956Z" fill="#455A64"/>
<path d="M222.099 104.362C220.913 104.504 220.032 104.767 218.058 105.002L217.674 105.044C210.25 105.999 203.47 109.751 198.718 115.535C193.966 121.319 191.601 128.698 192.106 136.167L195.146 158.028C195.146 158.028 188.853 230.018 189.08 239.62H277.242L277.313 199.321V188.348L276.83 158.596L288.684 126.366C286.205 118.098 277.377 109.107 265.055 106.777C261.148 106.031 257.341 104.646 252.753 104.426C244.131 111.237 230.885 110.968 222.106 104.362H222.099Z" fill="#FF725E"/>
<path d="M252.319 130.415C252.319 130.514 244.997 130.734 235.984 130.897C226.971 131.061 219.648 131.111 219.648 131.011C219.648 130.912 226.971 130.692 235.984 130.528C244.997 130.365 252.312 130.28 252.319 130.415Z" fill="#FAFAFA"/>
<path d="M252.157 135.45C252.157 135.556 244.792 135.45 235.715 135.272C226.638 135.094 219.28 134.817 219.287 134.718C219.294 134.619 226.645 134.718 235.722 134.903C244.799 135.087 252.157 135.386 252.157 135.45Z" fill="#FAFAFA"/>
<path d="M113.539 92.3164C113.539 92.3164 148.824 134.675 151.665 137.033C154.506 139.391 196.048 114.348 196.048 114.348C200.615 110.285 204.422 107.956 209.5 106.422L209.706 106.358C212.875 105.491 216.111 104.886 219.379 104.547L221.133 104.348L215.523 202.78L215.807 202.929C215.807 202.929 215.686 203.121 215.48 203.426L213.442 239.165H213.406L217.845 286.609H181.175L187.717 223.32C187.916 221.246 188.093 218.796 188.264 216.04L192.93 169.051L194.222 158.276C194.222 158.276 158.434 172.566 146.381 171.998C130.756 171.288 93.8799 108.133 93.8799 108.133L113.539 92.3164Z" fill="#FF725E"/>
<path d="M306.724 198.995L289.941 125.932C287.484 117.658 278.634 108.702 266.333 106.344C262.426 105.598 257.575 104.561 252.98 104.362L252.781 181.778L251.361 181.572L242.341 197.745L252.725 201.722L252.646 230.955L252.923 239.18L259.5 286.667H291.773L278.57 214.691V212.162L283.059 214.222C285.679 215.401 288.552 215.908 291.417 215.699C294.283 215.489 297.051 214.569 299.472 213.022C302.538 211.003 304.901 208.082 306.234 204.662C306.982 202.87 307.153 200.889 306.724 198.995Z" fill="#FF725E"/>
<path d="M113.539 92.3164C113.539 92.3164 148.824 134.675 151.665 137.033C154.506 139.391 196.048 114.348 196.048 114.348C200.615 110.285 204.422 107.956 209.5 106.422L209.706 106.358C212.875 105.491 216.111 104.886 219.379 104.547L221.133 104.348L215.523 202.78L215.807 202.929C215.807 202.929 215.686 203.121 215.48 203.426L213.442 239.165H213.406L217.845 286.609H181.175L187.717 223.32C187.916 221.246 188.093 218.796 188.264 216.04L192.93 169.051L194.222 158.276C194.222 158.276 158.434 172.566 146.381 171.998C130.756 171.288 93.8799 108.133 93.8799 108.133L113.539 92.3164Z" fill="#FF725E"/>
<path d="M306.724 198.995L289.941 125.932C287.484 117.658 278.634 108.702 266.333 106.344C262.426 105.598 257.575 104.561 252.98 104.362L252.781 181.778L251.361 181.572L242.341 197.745L252.725 201.722L252.646 230.955L252.923 239.18L259.5 286.667H291.773L278.57 214.691V212.162L283.059 214.222C285.679 215.401 288.552 215.908 291.417 215.699C294.283 215.489 297.051 214.569 299.472 213.022C302.538 211.003 304.901 208.082 306.234 204.662C306.982 202.87 307.153 200.889 306.724 198.995Z" fill="#FF725E"/>
<path opacity="0.8" d="M113.539 92.3164C113.539 92.3164 148.824 134.675 151.665 137.033C154.506 139.391 196.048 114.348 196.048 114.348C200.615 110.285 204.422 107.956 209.5 106.422L209.706 106.358C212.875 105.491 216.111 104.886 219.379 104.547L221.133 104.348L215.523 202.78L215.807 202.929C215.807 202.929 215.686 203.121 215.48 203.426L213.442 239.165H213.406L217.845 286.609H181.175L187.717 223.32C187.916 221.246 188.093 218.796 188.264 216.04L192.93 169.051L194.222 158.276C194.222 158.276 158.434 172.566 146.381 171.998C130.756 171.288 93.8799 108.133 93.8799 108.133L113.539 92.3164Z" fill="white"/>
<path opacity="0.8" d="M306.724 198.995L289.941 125.932C287.484 117.658 278.634 108.702 266.333 106.344C262.426 105.598 257.575 104.561 252.98 104.362L252.781 181.778L251.361 181.572L242.341 197.745L252.725 201.722L252.646 230.955L252.923 239.18L259.5 286.667H291.773L278.57 214.691V212.162L283.059 214.222C285.679 215.401 288.552 215.908 291.417 215.699C294.283 215.489 297.051 214.569 299.472 213.022C302.538 211.003 304.901 208.082 306.234 204.662C306.982 202.87 307.153 200.889 306.724 198.995Z" fill="white"/>
<path d="M259.181 182.041C259.181 182.041 259.181 181.992 259.216 181.892C259.252 181.793 259.301 181.637 259.358 181.459L259.941 179.79C260.438 178.327 261.155 176.196 261.943 173.483C262.896 170.261 263.662 166.986 264.238 163.675C264.99 159.498 265.264 155.25 265.054 151.011L265.253 151.174L258.293 152.197L257.426 152.325L258.137 151.863C260.06 150.778 261.818 149.422 263.357 147.836C263.869 147.267 264.306 146.635 264.657 145.954C264.987 145.282 265.215 144.564 265.331 143.823C265.461 142.34 265.316 140.845 264.905 139.413L262.831 131.11C261.489 125.826 260.168 121.103 258.932 117.168C257.696 113.233 256.56 110.101 255.729 107.935C255.324 106.856 255.019 106.025 254.763 105.456C254.656 105.194 254.578 104.98 254.514 104.817C254.48 104.745 254.456 104.669 254.443 104.59C254.483 104.659 254.518 104.73 254.55 104.803L254.834 105.428C255.075 105.989 255.438 106.806 255.864 107.878C256.737 110.009 257.909 113.148 259.181 117.076C260.452 121.003 261.801 125.734 263.158 131.011C263.868 133.66 264.529 136.437 265.289 139.313C265.716 140.788 265.863 142.33 265.722 143.859C265.604 144.644 265.364 145.406 265.012 146.118C264.641 146.826 264.186 147.487 263.655 148.085C262.094 149.697 260.307 151.072 258.35 152.169L258.229 151.835L265.189 150.826H265.381V151.018C265.59 155.299 265.299 159.589 264.515 163.802C263.916 167.118 263.121 170.396 262.135 173.618C261.311 176.331 260.566 178.455 260.005 179.897C259.742 180.607 259.522 181.175 259.372 181.551L259.202 181.97C259.196 181.994 259.189 182.018 259.181 182.041Z" fill="#263238"/>
<path d="M279.948 184.527C279.842 184.527 278.854 175.827 277.725 165.066C276.596 154.306 275.772 145.577 275.878 145.57C275.985 145.563 276.972 154.271 278.094 165.031C279.217 175.791 280.048 184.513 279.948 184.527Z" fill="#263238"/>
<path d="M280.68 213.107C280.618 213.097 280.558 213.078 280.502 213.05L279.998 212.865L278.088 212.091L270.829 209.25L246.07 199.236L245.921 199.172L245.964 199.016C247.107 195.202 248.329 191.125 249.586 186.942C250.133 185.116 250.672 183.312 251.177 181.615L251.226 181.466H251.376L282.768 184.74L292.108 185.749L294.629 186.04L295.283 186.125L295.503 186.168H295.275L294.622 186.118L292.094 185.891L282.74 184.996L251.34 181.842L251.532 181.714C251.02 183.412 250.481 185.216 249.941 187.041C248.677 191.246 247.455 195.33 246.312 199.115L246.205 198.895L270.914 209.037L278.102 212.02L280.019 212.837L280.517 213.05L280.68 213.107Z" fill="#263238"/>
<path d="M214.542 198.093C214.492 198.029 214.454 197.957 214.429 197.88C214.348 197.724 214.249 197.511 214.13 197.241C213.875 196.673 213.47 195.82 213.022 194.748C211.719 191.637 210.586 188.457 209.627 185.223C206.386 174.332 205.076 162.958 205.757 151.615V151.416H205.948L211.971 152.29L212.909 152.432L212.788 152.773C211.212 151.858 209.732 150.787 208.37 149.577C206.996 148.403 206.007 146.844 205.529 145.102C205.219 143.404 205.316 141.656 205.813 140.003C206.211 138.39 206.63 136.821 207.056 135.294C208.768 129.193 210.678 123.823 212.34 119.342C214.002 114.86 215.444 111.28 216.439 108.802C216.929 107.58 217.319 106.621 217.589 105.961L217.902 105.251C217.932 105.164 217.97 105.081 218.015 105.002C217.997 105.09 217.968 105.176 217.93 105.258C217.866 105.449 217.774 105.698 217.66 106.01L216.566 108.851C215.622 111.344 214.223 114.945 212.582 119.434C210.941 123.923 209.073 129.292 207.383 135.386C206.966 136.911 206.557 138.478 206.154 140.088C205.67 141.7 205.576 143.404 205.877 145.059C206.341 146.717 207.285 148.2 208.59 149.321C209.937 150.509 211.397 151.56 212.951 152.46L213.718 152.929L212.83 152.801L211.893 152.666L205.87 151.785L206.083 151.615C205.405 162.918 206.669 174.254 209.819 185.131C211.019 189.243 212.22 192.475 213.107 194.67C213.534 195.778 213.917 196.616 214.152 197.191C214.258 197.468 214.35 197.681 214.414 197.844C214.463 197.924 214.506 198.007 214.542 198.093Z" fill="#263238"/>
<path d="M257.114 160.279H270.801V155.677H257.114V160.279Z" fill="#455A64"/>
<path d="M292.519 181.267C292.519 181.331 291.738 181.082 290.467 180.919C287.142 180.484 283.771 181.238 280.95 183.05C279.877 183.76 279.295 184.293 279.252 184.243C279.209 184.193 279.366 184.079 279.621 183.817C279.986 183.455 280.38 183.125 280.8 182.829C282.195 181.843 283.771 181.143 285.438 180.77C287.103 180.392 288.826 180.344 290.509 180.628C291.016 180.715 291.515 180.844 292.001 181.011C292.342 181.16 292.526 181.239 292.519 181.267Z" fill="#263238"/>
<path d="M199.492 121.849C199.496 122.046 199.48 122.244 199.443 122.438C199.393 122.857 199.322 123.411 199.23 124.114L198.434 130.272C197.781 135.499 196.879 142.673 195.891 150.592C194.904 158.511 193.967 165.713 193.235 170.912C192.866 173.504 192.525 175.607 192.319 177.048C192.205 177.759 192.106 178.298 192.035 178.717C192.013 178.913 191.973 179.105 191.914 179.293C191.915 179.095 191.931 178.898 191.964 178.703C192.021 178.291 192.092 177.73 192.177 177.027C192.369 175.543 192.638 173.476 192.972 170.876C193.633 165.642 194.528 158.469 195.522 150.549C196.516 142.63 197.44 135.428 198.171 130.237C198.541 127.637 198.881 125.542 199.087 124.093C199.208 123.383 199.301 122.843 199.372 122.424C199.398 122.229 199.438 122.037 199.492 121.849Z" fill="#263238"/>
<path d="M112.644 99.3771C112.644 99.3771 112.488 99.5262 112.282 99.8103C111.939 100.312 111.788 100.921 111.857 101.525C111.926 102.129 112.211 102.687 112.658 103.099C113.016 103.327 113.432 103.45 113.857 103.454C114.281 103.458 114.699 103.342 115.061 103.12C115.423 102.897 115.716 102.578 115.905 102.197C116.094 101.817 116.172 101.391 116.131 100.968C115.962 100.375 115.582 99.8648 115.063 99.5326C114.543 99.2004 113.921 99.0693 113.312 99.164C112.963 99.2279 112.786 99.3274 112.772 99.2989C112.758 99.2705 112.914 99.1356 113.283 99.022C113.806 98.8813 114.362 98.9213 114.86 99.1356C115.238 99.2844 115.577 99.519 115.849 99.821C116.122 100.123 116.32 100.484 116.429 100.876C116.545 101.352 116.492 101.854 116.28 102.296C116.046 102.763 115.687 103.156 115.243 103.433C114.803 103.711 114.294 103.858 113.773 103.859C113.278 103.858 112.798 103.685 112.417 103.369C112.114 103.097 111.878 102.758 111.727 102.38C111.577 102.002 111.516 101.594 111.55 101.188C111.581 100.649 111.788 100.135 112.14 99.7251C112.271 99.5637 112.446 99.443 112.644 99.3771Z" fill="#263238"/>
<path d="M251.766 180.088L255.452 162.19H207.994L210.402 202.291C210.402 202.291 247.292 202.227 246.12 202.34L251.766 180.088Z" fill="#263238"/>
<path d="M255.303 171.928C254.452 171.926 253.621 172.183 252.918 172.663C252.216 173.144 251.675 173.826 251.368 174.62C250.708 176.331 249.749 178.334 248.684 178.881C246.709 179.961 243.307 180.813 241.517 179.939C239.728 179.066 232.568 172.617 231.311 173.334C230.054 174.051 228.989 175.664 230.239 177.091C231.489 178.519 238.115 182.823 236.865 184.257C235.615 185.692 221.645 179.385 219.5 179.939C217.355 180.493 216.098 181.814 217.369 182.681C218.641 183.547 228.115 187.12 228.648 188.363C228.648 188.363 214.329 184.598 213.79 185.522C213.25 186.445 212.369 187.851 213.79 188.363C215.21 188.874 227.575 192.12 228.648 192.66C230.425 193.396 232.278 193.934 234.173 194.265C236.125 194.778 238.05 195.39 239.941 196.097C242.84 197.103 246.006 197.017 248.847 195.856L250.267 195.266C251.372 194.822 252.309 194.042 252.946 193.036C253.583 192.031 253.888 190.851 253.819 189.662L253.528 184.776L255.09 180.749L255.303 171.928Z" fill="#B78876"/>
<path d="M111.032 94.5963C111.032 94.5963 104.036 82.7566 102.381 81.5137C100.726 80.2707 86.0458 75.1712 84.7887 75.5832C83.5316 75.9951 65.8964 79.3119 67.9632 81.3787C70.0299 83.4455 82.3384 80.9597 82.3384 80.9597L84.0075 81.7623C84.0075 81.7623 73.3539 83.6373 71.1521 84.9725C69.1066 86.2013 69.8524 88.7226 71.8055 88.4882C73.7587 88.2538 82.9847 86.3078 83.5458 86.6771C84.1069 87.0464 73.5101 89.3405 72.3737 90.0365C70.8467 90.9741 70.7402 93.7156 72.6791 93.5451C73.8297 93.4457 83.8086 90.7042 83.8086 90.7042C83.8086 90.7042 75.9107 93.8931 75.1863 94.6034C74.0073 95.7611 74.9874 97.4799 76.7062 97.0679C77.8781 96.7909 83.4535 94.021 85.0302 93.6446C85.0302 93.6446 86.5146 94.021 87.8712 96.9898C89.2277 99.9586 96.6639 105.839 96.6639 105.839L111.032 94.5963Z" fill="#B78876"/>
<path d="M67.999 81.4077C67.999 81.5071 69.178 81.983 71.2377 82.2458C72.4487 82.3949 73.6714 82.4258 74.8883 82.3381C76.2378 82.1676 77.7293 81.9333 79.2705 81.6918L82.5589 81.1591H82.3601C86.7493 82.6435 89.9667 83.6023 90.0306 83.4319C90.0946 83.2614 86.9837 82.0114 82.6157 80.4062H82.5305H82.4169L79.1498 80.9034L74.8244 81.6137C73.6446 81.732 72.4574 81.7605 71.2732 81.6989C69.2775 81.571 68.0274 81.3012 67.999 81.4077Z" fill="#AA6550"/>
<path d="M97.9212 68.2464C97.9288 68.4516 97.8949 68.6563 97.8216 68.8482C97.7483 69.0401 97.6371 69.2152 97.4945 69.3631C97.3519 69.5109 97.181 69.6285 96.9919 69.7088C96.8029 69.7891 96.5995 69.8304 96.3941 69.8302H94.9737V108.481C94.9737 109.657 94.5067 110.784 93.6756 111.615C92.8444 112.446 91.7172 112.913 90.5418 112.913C89.3664 112.913 88.2391 112.446 87.4079 111.615C86.5768 110.784 86.1099 109.657 86.1099 108.481V69.8728H84.732C84.526 69.8757 84.3214 69.8375 84.1302 69.7606C83.939 69.6837 83.7651 69.5696 83.6184 69.4249C83.4717 69.2802 83.3552 69.1077 83.2757 68.9176C83.1962 68.7275 83.1553 68.5235 83.1553 68.3174C83.1553 67.903 83.3199 67.5056 83.6129 67.2125C83.906 66.9195 84.3034 66.7549 84.7178 66.7549H96.4154C96.8107 66.7603 97.1884 66.9187 97.4692 67.1969C97.75 67.475 97.912 67.8512 97.9212 68.2464Z" fill="#F5F5F5"/>
<path d="M97.9212 68.2464C97.9034 68.1293 97.8797 68.0132 97.8502 67.8984C97.747 67.5658 97.5342 67.2779 97.2465 67.0816C97.0337 66.9407 96.7901 66.853 96.5363 66.8259C96.2593 66.8259 95.9397 66.8259 95.5987 66.8259H93.2621L86.8699 66.8615H84.9025C84.5864 66.8319 84.2685 66.8935 83.9863 67.039C83.7035 67.2001 83.4814 67.4496 83.3542 67.7493C83.2221 68.0583 83.2039 68.4041 83.3027 68.7253C83.4016 69.0465 83.6111 69.3222 83.894 69.5036C84.1949 69.691 84.5503 69.7711 84.9025 69.7308H86.0673H86.2094V69.8729C86.2094 79.8162 86.2094 92.913 86.252 107.239C86.2085 107.989 86.2491 108.742 86.3727 109.483C86.5437 110.197 86.8988 110.853 87.4026 111.386C87.8989 111.912 88.5191 112.305 89.2066 112.53C89.8963 112.743 90.6279 112.785 91.3373 112.651C92.0299 112.513 92.6784 112.208 93.2265 111.763C93.7579 111.315 94.1764 110.748 94.4482 110.108C94.6994 109.462 94.8107 108.769 94.7749 108.077V105.946C94.7749 100.378 94.7749 95.1858 94.7749 90.5053C94.8175 81.1728 94.8459 73.8999 94.8601 69.8019V69.7379H94.924C95.5632 69.7379 96.1385 69.7379 96.6073 69.7379C96.8035 69.7074 96.9918 69.6383 97.1612 69.5347C97.3306 69.4311 97.4779 69.295 97.5945 69.1342C97.7828 68.868 97.8868 68.5512 97.8928 68.2251C97.9383 68.5616 97.8518 68.9027 97.6513 69.1768C97.5326 69.3503 97.3803 69.4981 97.2034 69.6116C97.0265 69.725 96.8286 69.8018 96.6215 69.8374C96.1243 69.8871 95.5703 69.8374 94.924 69.8374L94.9879 69.7734C94.9879 73.8715 95.0377 81.1373 95.0732 90.4769C95.0732 95.1574 95.0732 100.349 95.0732 105.918V108.048C95.1069 108.775 94.9884 109.501 94.7251 110.179C94.4333 110.882 93.9729 111.503 93.3846 111.986C92.7962 112.469 92.098 112.8 91.3515 112.949C90.5871 113.089 89.8001 113.043 89.0574 112.814C88.3082 112.575 87.6331 112.147 87.0972 111.571C86.5514 110.994 86.1669 110.284 85.9821 109.511C85.8874 109.123 85.8421 108.725 85.8472 108.325V107.175C85.8472 92.8491 85.8472 79.7452 85.8898 69.809L86.0318 69.951H84.9025C84.4973 69.9938 84.0894 69.8988 83.7448 69.6811C83.4986 69.5226 83.2979 69.3026 83.1627 69.0428C83.0276 68.783 82.9625 68.4924 82.9739 68.1998C82.9854 67.9071 83.0731 67.6225 83.2282 67.3741C83.3833 67.1257 83.6006 66.9221 83.8585 66.7833C84.1785 66.6203 84.5374 66.549 84.8954 66.5774H86.8344H93.2265H95.5632C95.9112 66.5774 96.2166 66.5774 96.5078 66.5774C96.8225 66.6125 97.119 66.7429 97.3576 66.951C97.5961 67.1592 97.7655 67.4352 97.8431 67.7422C97.9139 67.9002 97.9409 68.0744 97.9212 68.2464Z" fill="#263238"/>
<path d="M90.5844 111.472C91.4628 111.47 92.3047 111.12 92.9252 110.498C93.5456 109.876 93.8941 109.034 93.8941 108.155V82.416H87.2676V108.155C87.2676 108.591 87.3534 109.022 87.5201 109.424C87.6867 109.827 87.9311 110.192 88.2391 110.5C88.547 110.808 88.9127 111.053 89.3151 111.219C89.7175 111.386 90.1488 111.472 90.5844 111.472Z" fill="#FF725E"/>
<path d="M87.4453 69.9439C88.5528 69.7616 89.6768 69.6997 90.7976 69.7592C91.9208 69.6997 93.0472 69.7616 94.1571 69.9439C93.0472 70.1262 91.9208 70.1881 90.7976 70.1286C89.6768 70.1881 88.5528 70.1262 87.4453 69.9439Z" fill="#263238"/>
<path d="M93.8796 82.4158C93.849 82.1687 93.7389 81.9381 93.566 81.7588C93.3931 81.5795 93.1667 81.4611 92.9208 81.4215C92.3594 81.3437 91.7883 81.3726 91.2376 81.5067L87.9847 81.9826C87.7631 81.9906 87.5496 82.0676 87.3738 82.2028C87.332 82.2381 87.2983 82.2821 87.2753 82.3318C87.2522 82.3815 87.2402 82.4356 87.2402 82.4904C87.2402 82.5452 87.2522 82.5993 87.2753 82.649C87.2983 82.6987 87.332 82.7427 87.3738 82.7781" fill="#FF725E"/>
<path opacity="0.21" d="M91.728 87.2031C92.2811 87.2031 92.7294 86.7547 92.7294 86.2016C92.7294 85.6486 92.2811 85.2002 91.728 85.2002C91.1749 85.2002 90.7266 85.6486 90.7266 86.2016C90.7266 86.7547 91.1749 87.2031 91.728 87.2031Z" fill="white"/>
<path opacity="0.21" d="M90.6982 90.6976C90.6982 90.7635 90.7113 90.8288 90.7367 90.8895C90.7622 90.9503 90.7994 91.0055 90.8464 91.0517C90.8933 91.098 90.9489 91.1345 91.0101 91.159C91.0712 91.1836 91.1366 91.1957 91.2025 91.1948C91.3344 91.1948 91.4608 91.1424 91.5541 91.0492C91.6473 90.956 91.6997 90.8295 91.6997 90.6976C91.7006 90.6317 91.6884 90.5663 91.6639 90.5052C91.6393 90.4441 91.6029 90.3884 91.5566 90.3415C91.5103 90.2946 91.4552 90.2573 91.3944 90.2319C91.3336 90.2064 91.2684 90.1934 91.2025 90.1934C91.0688 90.1934 90.9405 90.2465 90.8459 90.3411C90.7514 90.4356 90.6982 90.5639 90.6982 90.6976Z" fill="white"/>
<path d="M109.491 93.7375C108.518 94.675 106.892 94.4477 105.727 93.7943C104.562 93.1409 103.66 92.0684 102.545 91.3155C99.214 89.0499 94.4767 89.6749 91.2594 87.253C90.8048 86.9192 90.3573 86.3581 90.5917 85.8325C90.8261 85.3069 91.444 85.2998 91.9696 85.2998L105.315 85.3992" fill="#B78876"/>
<path d="M105.315 85.4128C104.85 85.2984 104.373 85.2458 103.894 85.2566C102.964 85.1998 101.622 85.1501 99.9596 85.1074L94.1357 84.9583H92.4453C91.7618 84.8477 91.0621 85.0055 90.4921 85.3986C90.3382 85.5636 90.2376 85.7711 90.2034 85.9941C90.1692 86.217 90.203 86.4452 90.3004 86.6487C90.4653 86.9857 90.7089 87.278 91.0106 87.5009C91.5351 87.8966 92.102 88.2325 92.701 88.5024C95.13 89.5748 97.5874 89.7382 99.6471 90.3632C100.622 90.6259 101.553 91.0303 102.41 91.5635C103.191 92.082 103.83 92.7141 104.541 93.2326C105.04 93.7049 105.635 94.0627 106.287 94.2811C106.938 94.4994 107.629 94.573 108.312 94.4968C109.299 94.2908 109.612 93.7439 109.576 93.7439C109.172 93.9737 108.729 94.1278 108.269 94.1985C107.64 94.2155 107.013 94.1011 106.43 93.8627C105.846 93.6242 105.319 93.2669 104.882 92.8135C104.202 92.1877 103.491 91.5974 102.751 91.045C101.86 90.4451 100.879 89.9897 99.846 89.6956C97.7153 88.9853 95.2507 88.8149 93.0135 87.8135C92.4707 87.5697 91.9563 87.2672 91.4794 86.9114C91.039 86.5705 90.8189 86.1018 91.0532 85.9171C91.2876 85.7325 91.8913 85.6756 92.4737 85.6898H94.157L99.9951 85.6472C101.657 85.6472 103.007 85.5975 103.937 85.562C104.401 85.5746 104.864 85.5244 105.315 85.4128Z" fill="#AA6550"/>
<path d="M27.9126 255.935C27.0461 258.3 24.1554 258.364 22.5716 257.483C20.9877 256.602 19.9934 254.983 19.0204 253.428C16.8896 249.876 14.7021 246.148 14.4748 242.014C14.3591 240.774 14.5851 239.526 15.1282 238.406C15.4124 237.844 15.8411 237.367 16.3703 237.025C16.8995 236.683 17.5102 236.488 18.1397 236.46C19.6028 236.46 20.8102 237.568 21.769 238.683C24.5827 241.965 26.6304 245.832 27.7634 250.004C28.289 251.943 28.6015 254.038 27.9339 255.935" fill="#FF725E"/>
<g opacity="0.2">
<path d="M27.9126 255.935C27.0461 258.3 24.1554 258.364 22.5716 257.483C20.9877 256.602 19.9934 254.983 19.0204 253.428C16.8896 249.876 14.7021 246.148 14.4748 242.014C14.3591 240.774 14.5851 239.526 15.1282 238.406C15.4124 237.844 15.8411 237.367 16.3703 237.025C16.8995 236.683 17.5102 236.488 18.1397 236.46C19.6028 236.46 20.8102 237.568 21.769 238.683C24.5827 241.965 26.6304 245.832 27.7634 250.004C28.289 251.943 28.6015 254.038 27.9339 255.935" fill="black"/>
</g>
<path d="M25.3767 267.427C22.7432 266.955 20.028 267.338 17.6279 268.521C16.2737 269.01 15.1231 269.941 14.3608 271.163C13.7074 272.434 14.0057 274.281 15.3055 274.877C16.1128 275.171 16.9981 275.171 17.8055 274.877C19.78 274.33 21.8894 273.393 23.7928 274.167C24.8795 274.607 25.7815 275.587 26.9534 275.63C27.5276 275.609 28.0796 275.403 28.5265 275.042C28.9734 274.68 29.2912 274.184 29.4321 273.627C29.6821 272.496 29.4889 271.311 28.8923 270.317C28.5698 269.597 28.0844 268.96 27.4744 268.459C26.8643 267.957 26.1463 267.604 25.3767 267.427Z" fill="#FF725E"/>
<path d="M32.507 257.775C31.5377 257.027 30.7657 256.054 30.2582 254.94C29.7507 253.826 29.523 252.605 29.595 251.383C29.767 248.939 30.6073 246.591 32.0241 244.593C33.6019 242.204 35.628 240.144 37.9901 238.527C38.8885 237.839 39.9257 237.355 41.0299 237.107C41.5816 236.994 42.1526 237.017 42.6934 237.174C43.2342 237.331 43.7285 237.618 44.1336 238.009C45.2558 239.237 45.0001 241.148 44.6024 242.76C43.9095 245.629 42.9855 248.436 41.8396 251.155C40.9305 253.329 39.8012 255.523 37.8977 256.901C35.9943 258.279 33.7571 258.776 32.2158 257.611" fill="#FF725E"/>
<path d="M36.0302 285.957C35.8724 285.684 35.7484 285.393 35.6608 285.09C35.4194 284.444 35.1211 283.67 34.7588 282.683C34.3133 281.497 33.806 280.335 33.2389 279.203C32.5236 277.839 31.6994 276.535 30.7744 275.303C29.8648 274.057 28.7813 272.947 27.557 272.008C26.5617 271.246 25.4094 270.714 24.1834 270.452C23.364 270.281 22.5226 270.24 21.6904 270.332C21.3818 270.396 21.0681 270.434 20.7529 270.445C21.0465 270.321 21.3542 270.233 21.6691 270.183C22.5264 270.029 23.4042 270.029 24.2615 270.183C25.5489 270.413 26.7648 270.941 27.8127 271.724C29.0779 272.668 30.1957 273.796 31.1295 275.069C32.0643 276.33 32.8911 277.668 33.6012 279.068C34.1444 280.222 34.6187 281.408 35.0216 282.619C35.3839 283.649 35.6395 284.494 35.81 285.076C35.911 285.362 35.9847 285.657 36.0302 285.957Z" fill="#263238"/>
<path d="M35.3481 284.132C35.2929 283.998 35.2478 283.86 35.2132 283.72C35.1279 283.4 35.0285 283.009 34.8935 282.512C34.6237 281.468 34.1833 279.963 33.6648 278.109C32.5782 274.408 30.8807 269.344 28.7571 263.854C26.6335 258.364 24.4317 253.492 22.7058 250.04C22.2797 249.174 21.882 248.392 21.5197 247.718C21.1575 247.043 20.8663 246.453 20.5964 245.985L19.9998 244.891C19.9239 244.766 19.8642 244.633 19.8223 244.493C19.9138 244.605 19.9969 244.724 20.0709 244.848L20.7243 245.907C21.0155 246.368 21.3422 246.943 21.7115 247.618C22.0808 248.293 22.507 249.039 22.9473 249.912C25.2474 254.399 27.3053 259.005 29.1122 263.712C31.2429 269.217 32.9049 274.302 33.9276 278.038C34.4461 279.899 34.8154 281.426 35.0427 282.477C35.1421 282.974 35.2274 283.379 35.2913 283.698C35.3276 283.84 35.3466 283.985 35.3481 284.132Z" fill="#263238"/>
<path d="M32.6707 274.181C32.5266 273.772 32.4174 273.351 32.344 272.924C32.1735 272.107 31.9747 270.907 31.8184 269.415C31.6518 267.671 31.5807 265.919 31.6053 264.166C31.6231 262.026 31.7916 259.89 32.1096 257.774C32.6094 253.889 33.8127 250.127 35.6608 246.673C35.9804 246.08 36.3387 245.508 36.7333 244.962C36.9037 244.713 37.0529 244.479 37.2091 244.251L37.6637 243.719C37.9271 243.375 38.2193 243.054 38.5373 242.76C37.5776 244.044 36.6953 245.384 35.8952 246.773C34.1423 250.23 32.9872 253.96 32.4789 257.803C32.1603 259.919 31.9824 262.055 31.9463 264.195C31.9029 265.936 31.948 267.678 32.0812 269.415C32.1948 270.899 32.3582 272.093 32.4789 272.917C32.574 273.333 32.6381 273.755 32.6707 274.181Z" fill="#263238"/>
<path d="M120.947 154.343V156.999H124.633V181.062L110.123 213.3C109.746 214.139 109.585 215.058 109.654 215.975C109.724 216.892 110.022 217.777 110.521 218.55C111.02 219.322 111.705 219.957 112.512 220.397C113.32 220.838 114.224 221.069 115.144 221.07H143.994C144.919 221.071 145.829 220.839 146.64 220.396C147.452 219.953 148.139 219.313 148.639 218.535C149.138 217.757 149.434 216.866 149.498 215.943C149.563 215.021 149.394 214.097 149.008 213.257L133.909 180.025V157.148H137.46V154.343H120.947Z" fill="#F5F5F5"/>
<path d="M120.947 154.343H121.209H122.026H125.229L137.474 154.286H137.581V154.393C137.581 155.252 137.581 156.211 137.581 157.198V157.305H133.909L134.022 157.191C134.022 163.583 134.022 171.396 134.065 180.068V180.004C137.247 187.021 140.748 194.727 144.477 202.93L147.318 209.181C147.801 210.232 148.277 211.311 148.738 212.37C149.008 212.907 149.245 213.459 149.449 214.024C149.707 214.916 149.743 215.857 149.554 216.766C149.364 217.675 148.955 218.523 148.362 219.238C147.556 220.205 146.452 220.877 145.223 221.148L144.754 221.24L144.285 221.276C143.966 221.276 143.667 221.276 143.362 221.276H115.854C115.055 221.318 114.254 221.232 113.482 221.02C112.719 220.787 112.013 220.396 111.411 219.873C110.809 219.349 110.324 218.704 109.988 217.98C109.657 217.272 109.478 216.502 109.462 215.721C109.446 214.939 109.594 214.163 109.895 213.442C110.492 212.057 111.11 210.722 111.707 209.394L124.491 181.034V181.091C124.526 170.437 124.548 162.106 124.562 157.028L124.626 157.092H120.94H120.897V157.049C120.897 156.154 120.897 155.486 120.897 155.032C120.897 154.577 120.897 154.393 120.897 154.393C120.897 154.393 120.897 154.613 120.897 155.06C120.897 155.508 120.897 156.161 120.897 157.049L120.861 157.006H124.548H124.675V157.07C124.675 162.148 124.718 170.458 124.746 181.133L112.012 209.543C111.422 210.878 110.797 212.227 110.208 213.584C109.93 214.269 109.798 215.005 109.819 215.744C109.841 216.483 110.016 217.209 110.333 217.877C110.65 218.545 111.103 219.14 111.662 219.623C112.221 220.107 112.875 220.469 113.582 220.686C114.32 220.884 115.084 220.963 115.847 220.921H143.362C143.667 220.921 143.98 220.921 144.271 220.921H144.711L145.137 220.836C146.291 220.586 147.326 219.956 148.078 219.046C148.82 218.146 149.249 217.029 149.299 215.864C149.326 215.291 149.259 214.718 149.101 214.166C148.909 213.619 148.686 213.083 148.433 212.561L147.012 209.372L144.172 203.122L133.802 180.174C133.802 171.481 133.802 163.711 133.838 157.298V157.177H137.46L137.353 157.29C137.353 156.303 137.353 155.344 137.353 154.485L137.453 154.584L125.272 154.528H122.04H121.209L120.947 154.343Z" fill="#263238"/>
<path d="M115.443 206.766C115.836 205.831 116.515 205.045 117.383 204.52C118.251 203.996 119.262 203.76 120.273 203.846C121.829 204.1 123.405 204.216 124.982 204.194C127.716 203.946 130.074 202.277 132.503 200.998C134.932 199.72 137.951 198.868 140.358 200.167L146.459 212.277C146.783 212.92 146.937 213.636 146.906 214.356C146.874 215.075 146.66 215.775 146.281 216.388C145.903 217.001 145.375 217.507 144.746 217.858C144.117 218.209 143.408 218.393 142.688 218.392H116.864C116.168 218.392 115.482 218.219 114.869 217.89C114.256 217.561 113.734 217.085 113.349 216.505C112.965 215.925 112.729 215.258 112.665 214.565C112.6 213.872 112.708 213.174 112.979 212.533L115.443 206.766Z" fill="#FF725E"/>
<path d="M139.889 202.632C138.816 203.046 137.803 203.603 136.878 204.287C136.019 204.919 135.067 205.771 133.938 206.652C132.74 207.675 131.312 208.391 129.776 208.74C128.224 208.959 126.644 208.863 125.131 208.456C123.71 208.136 122.51 207.781 121.473 207.504L119.023 206.794C118.719 206.72 118.422 206.62 118.135 206.496C118.448 206.516 118.757 206.571 119.058 206.659L121.537 207.227C122.581 207.476 123.824 207.802 125.202 208.108C126.675 208.48 128.207 208.562 129.712 208.349C131.189 208.01 132.566 207.329 133.732 206.361C134.854 205.501 135.862 204.663 136.722 204.052C137.414 203.546 138.175 203.14 138.98 202.845C139.197 202.76 139.42 202.693 139.648 202.646C139.804 202.632 139.889 202.618 139.889 202.632Z" fill="#FAFAFA"/>
<path d="M142.794 236.148C141.913 232.363 139.449 228.797 135.841 227.355C135.187 227.093 134.363 226.922 133.838 227.398C133.655 227.614 133.517 227.863 133.431 228.133C133.346 228.402 133.315 228.686 133.341 228.968C133.234 231.617 133.12 234.259 133.014 236.908C132.833 235.854 132.338 234.878 131.593 234.11C130.769 233.4 129.285 233.449 128.831 234.415C128.468 235.175 128.887 236.049 129.157 236.844C129.598 238.185 129.643 239.624 129.287 240.99C128.93 242.355 128.187 243.589 127.147 244.543C125.684 245.836 123.752 246.489 122.24 247.718C121.064 248.67 120.182 249.936 119.698 251.369C119.214 252.803 119.146 254.344 119.503 255.814C119.86 257.284 120.627 258.622 121.715 259.674C122.803 260.725 124.167 261.446 125.649 261.752H130.869C133.895 261.688 137.424 258.762 139.321 256.397C141.195 253.849 142.538 250.951 143.27 247.874C144.229 244.096 143.682 239.927 142.794 236.148Z" fill="#FF725E"/>
<g opacity="0.8">
<path d="M142.794 236.148C141.913 232.363 139.449 228.797 135.841 227.355C135.187 227.093 134.363 226.922 133.838 227.398C133.655 227.614 133.517 227.863 133.431 228.133C133.346 228.402 133.315 228.686 133.341 228.968C133.234 231.617 133.12 234.259 133.014 236.908C132.833 235.854 132.338 234.878 131.593 234.11C130.769 233.4 129.285 233.449 128.831 234.415C128.468 235.175 128.887 236.049 129.157 236.844C129.598 238.185 129.643 239.624 129.287 240.99C128.93 242.355 128.187 243.589 127.147 244.543C125.684 245.836 123.752 246.489 122.24 247.718C121.064 248.67 120.182 249.936 119.698 251.369C119.214 252.803 119.146 254.344 119.503 255.814C119.86 257.284 120.627 258.622 121.715 259.674C122.803 260.725 124.167 261.446 125.649 261.752H130.869C133.895 261.688 137.424 258.762 139.321 256.397C141.195 253.849 142.538 250.951 143.27 247.874C144.229 244.096 143.682 239.927 142.794 236.148Z" fill="white"/>
</g>
<path d="M126.331 261.752C124.051 260.594 122.829 257.455 122.829 255.587C122.829 253.719 124.25 251.688 125.762 250.615C127.524 249.358 130.024 249.244 131.48 247.675C132.602 246.474 132.9 244.72 133.611 243.264C134.058 242.405 134.839 241.56 135.805 241.624C136.963 241.709 137.588 243.009 137.844 244.138C138.554 247.334 138.909 251.688 137.794 254.031C136.373 256.993 134.584 260.644 130.841 261.759" fill="#FF725E"/>
<path d="M138.973 235.097C138.728 234.856 138.412 234.701 138.071 234.657H137.823C137.629 234.651 137.437 234.688 137.258 234.763C137.08 234.839 136.92 234.952 136.789 235.095C136.659 235.238 136.56 235.407 136.501 235.591C136.441 235.775 136.422 235.97 136.445 236.162C136.476 236.429 136.588 236.679 136.766 236.879C136.944 237.08 137.179 237.221 137.439 237.285C137.702 237.341 137.975 237.329 138.232 237.251C138.489 237.173 138.722 237.03 138.909 236.837C139.138 236.625 139.284 236.338 139.321 236.028C139.331 235.857 139.305 235.686 139.245 235.526C139.185 235.366 139.092 235.22 138.973 235.097Z" fill="#FF725E"/>
<path d="M133.277 261.227H125.947V279.48H133.277V261.227Z" fill="#455A64"/>
<path d="M115.628 286.667C115.63 285.374 116.144 284.134 117.059 283.219C117.974 282.305 119.214 281.79 120.507 281.788H138.76C140.055 281.788 141.297 282.302 142.213 283.217C143.129 284.132 143.645 285.373 143.647 286.667H115.628Z" fill="#263238"/>
<path d="M138.76 281.753H120.123C120.123 281.415 120.19 281.081 120.319 280.769C120.448 280.457 120.637 280.173 120.876 279.935C121.115 279.696 121.398 279.507 121.71 279.377C122.022 279.248 122.356 279.182 122.694 279.182H136.189C136.526 279.182 136.861 279.248 137.173 279.377C137.484 279.507 137.768 279.696 138.007 279.935C138.245 280.173 138.435 280.457 138.564 280.769C138.693 281.081 138.76 281.415 138.76 281.753Z" fill="#455A64"/>
<path d="M163.605 162.716C163.605 162.815 152.695 162.901 139.243 162.901C125.791 162.901 114.875 162.815 114.875 162.716C114.875 162.616 125.784 162.531 139.243 162.531C152.702 162.531 163.605 162.616 163.605 162.716Z" fill="#263238"/>
<path d="M164.855 285.29C164.748 285.29 164.67 255.807 164.67 219.443C164.67 183.079 164.748 153.59 164.855 153.59C164.961 153.59 165.039 183.072 165.039 219.443C165.039 255.815 164.954 285.29 164.855 285.29Z" fill="#263238"/>
<path d="M172.149 286.419C172.149 284.485 171.38 282.629 170.012 281.261C168.645 279.893 166.789 279.125 164.855 279.125C163.897 279.124 162.948 279.312 162.062 279.678C161.177 280.045 160.372 280.582 159.695 281.259C159.017 281.937 158.48 282.741 158.114 283.627C157.748 284.512 157.56 285.461 157.561 286.419H172.149Z" fill="#455A64"/>
<path d="M164.854 159.073C163.887 159.073 162.959 159.457 162.275 160.14C161.59 160.823 161.205 161.75 161.203 162.717C161.203 163.685 161.588 164.614 162.272 165.298C162.957 165.983 163.886 166.367 164.854 166.367V159.073Z" fill="#455A64"/>
<path d="M226.646 228.222C226.638 228.427 226.672 228.631 226.745 228.823C226.819 229.014 226.93 229.189 227.073 229.336C227.215 229.484 227.386 229.6 227.575 229.68C227.764 229.759 227.968 229.8 228.173 229.799H229.593V268.457C229.594 269.041 229.71 269.619 229.935 270.159C230.16 270.698 230.489 271.187 230.903 271.599C231.318 272.011 231.809 272.336 232.35 272.558C232.89 272.779 233.469 272.892 234.053 272.889C235.229 272.889 236.356 272.422 237.187 271.591C238.018 270.76 238.485 269.632 238.485 268.457V229.848H239.863C240.07 229.85 240.274 229.811 240.465 229.734C240.657 229.656 240.831 229.541 240.977 229.396C241.124 229.251 241.24 229.078 241.32 228.887C241.399 228.697 241.44 228.492 241.44 228.286C241.44 228.081 241.399 227.878 241.321 227.689C241.242 227.5 241.127 227.328 240.982 227.184C240.837 227.039 240.664 226.925 240.475 226.847C240.285 226.769 240.082 226.73 239.877 226.73H228.173C227.774 226.73 227.391 226.886 227.105 227.165C226.82 227.444 226.655 227.823 226.646 228.222Z" fill="#F5F5F5"/>
<path d="M226.645 228.222C226.635 228.1 226.647 227.977 226.681 227.86C226.765 227.507 226.975 227.196 227.27 226.986C227.49 226.828 227.747 226.731 228.016 226.702C228.307 226.702 228.62 226.702 228.961 226.702H231.297H237.69H239.629C239.986 226.668 240.346 226.737 240.665 226.901C240.922 227.041 241.137 227.245 241.291 227.494C241.445 227.742 241.532 228.026 241.543 228.318C241.555 228.609 241.49 228.899 241.356 229.159C241.222 229.418 241.024 229.639 240.779 229.799C240.434 230.015 240.027 230.113 239.621 230.076H238.464L238.606 229.934C238.606 239.877 238.606 252.981 238.648 267.299V268.457C238.653 268.854 238.608 269.25 238.513 269.636C238.329 270.408 237.944 271.119 237.398 271.696C236.863 272.273 236.188 272.704 235.438 272.946C234.332 273.302 233.133 273.228 232.079 272.739C231.026 272.249 230.196 271.379 229.756 270.304C229.492 269.626 229.373 268.9 229.408 268.173C229.408 267.463 229.408 266.752 229.408 266.042C229.408 260.474 229.408 255.282 229.408 250.602C229.408 241.269 229.479 233.996 229.493 229.898L229.557 229.969C228.911 229.969 228.357 229.969 227.86 229.926C227.653 229.892 227.456 229.816 227.28 229.702C227.104 229.588 226.953 229.44 226.837 229.266C226.637 228.994 226.548 228.656 226.589 228.321C226.631 228.622 226.756 228.905 226.951 229.138C227.066 229.3 227.213 229.437 227.383 229.541C227.552 229.644 227.741 229.713 227.938 229.742C228.407 229.784 228.982 229.742 229.621 229.742H229.692V229.806C229.692 233.904 229.735 241.17 229.778 250.509C229.778 255.19 229.778 260.382 229.778 265.95V268.081C229.742 268.771 229.853 269.461 230.104 270.105C230.514 271.088 231.278 271.882 232.244 272.33C233.21 272.778 234.309 272.848 235.324 272.527C236.018 272.305 236.644 271.909 237.141 271.377C237.639 270.845 237.991 270.194 238.165 269.487C238.289 268.743 238.329 267.988 238.286 267.235C238.286 252.917 238.286 239.806 238.329 229.87V229.728H238.471H239.636C239.987 229.767 240.341 229.689 240.644 229.507C240.855 229.375 241.027 229.189 241.143 228.968C241.26 228.748 241.316 228.501 241.307 228.252C241.297 228.003 241.223 227.761 241.09 227.55C240.958 227.339 240.772 227.167 240.552 227.05C240.269 226.906 239.952 226.842 239.636 226.865H237.697H231.305H228.968C228.627 226.865 228.307 226.865 228.03 226.865C227.776 226.887 227.532 226.972 227.32 227.114C227.034 227.311 226.821 227.599 226.716 227.931C226.688 228.027 226.664 228.124 226.645 228.222Z" fill="#263238"/>
<path d="M233.996 271.44C233.118 271.44 232.277 271.091 231.656 270.47C231.035 269.85 230.687 269.008 230.687 268.13V242.384H237.313V268.13C237.311 269.008 236.961 269.85 236.339 270.471C235.717 271.091 234.875 271.44 233.996 271.44Z" fill="#FF725E"/>
<path d="M237.121 229.912C234.89 230.158 232.64 230.158 230.409 229.912C232.64 229.666 234.89 229.666 237.121 229.912Z" fill="#263238"/>
<path d="M230.686 242.383C230.716 242.136 230.826 241.906 230.999 241.726C231.172 241.547 231.398 241.429 231.644 241.389C232.206 241.31 232.778 241.342 233.328 241.481L236.581 241.95C236.801 241.961 237.014 242.038 237.191 242.17C237.233 242.206 237.267 242.25 237.29 242.299C237.313 242.349 237.325 242.403 237.325 242.458C237.325 242.513 237.313 242.567 237.29 242.617C237.267 242.666 237.233 242.71 237.191 242.746" fill="#FF725E"/>
<path opacity="0.21" d="M233.84 246.183C233.838 246.381 233.778 246.574 233.668 246.738C233.557 246.902 233.4 247.029 233.217 247.103C233.034 247.178 232.832 247.197 232.639 247.158C232.445 247.118 232.267 247.022 232.128 246.882C231.988 246.742 231.894 246.563 231.856 246.369C231.818 246.175 231.838 245.974 231.914 245.791C231.99 245.609 232.118 245.453 232.283 245.343C232.447 245.233 232.641 245.175 232.838 245.175C232.97 245.175 233.101 245.201 233.223 245.252C233.345 245.302 233.456 245.377 233.549 245.471C233.642 245.564 233.716 245.676 233.766 245.798C233.815 245.92 233.841 246.051 233.84 246.183Z" fill="white"/>
<path opacity="0.21" d="M233.868 250.665C233.868 250.731 233.855 250.797 233.829 250.857C233.804 250.918 233.767 250.973 233.72 251.019C233.673 251.066 233.617 251.102 233.556 251.127C233.495 251.151 233.429 251.164 233.363 251.163C233.232 251.163 233.105 251.11 233.012 251.017C232.919 250.924 232.866 250.797 232.866 250.665C232.865 250.6 232.878 250.534 232.902 250.473C232.927 250.412 232.963 250.356 233.009 250.309C233.056 250.262 233.111 250.225 233.172 250.2C233.232 250.174 233.298 250.161 233.363 250.161C233.497 250.161 233.625 250.214 233.72 250.309C233.815 250.403 233.868 250.532 233.868 250.665Z" fill="white"/>
<path d="M249.529 228.222C249.522 228.427 249.557 228.631 249.631 228.822C249.705 229.013 249.816 229.187 249.958 229.334C250.101 229.481 250.271 229.598 250.46 229.678C250.649 229.758 250.851 229.799 251.056 229.799H252.477V268.457C252.477 269.631 252.943 270.757 253.772 271.588C254.602 272.419 255.727 272.887 256.901 272.889C258.077 272.889 259.204 272.422 260.035 271.591C260.866 270.76 261.333 269.632 261.333 268.457V229.848H262.711C262.918 229.85 263.122 229.811 263.313 229.734C263.505 229.656 263.679 229.541 263.825 229.396C263.972 229.251 264.088 229.078 264.168 228.887C264.247 228.697 264.288 228.492 264.288 228.286C264.288 227.873 264.124 227.478 263.832 227.186C263.541 226.894 263.145 226.73 262.732 226.73H251.056C250.657 226.73 250.274 226.886 249.989 227.165C249.703 227.444 249.538 227.823 249.529 228.222Z" fill="#F5F5F5"/>
<path d="M249.529 228.222C249.507 228.102 249.507 227.979 249.529 227.86C249.616 227.506 249.828 227.196 250.126 226.986C250.335 226.834 250.579 226.737 250.836 226.702C251.134 226.702 251.44 226.702 251.78 226.702H254.124H260.516H262.448C262.806 226.668 263.166 226.737 263.485 226.901C263.741 227.041 263.957 227.245 264.111 227.494C264.265 227.742 264.352 228.026 264.363 228.318C264.374 228.609 264.31 228.899 264.176 229.159C264.042 229.418 263.843 229.639 263.599 229.799C263.254 230.015 262.847 230.113 262.441 230.076H261.284L261.426 229.934C261.426 239.877 261.426 252.981 261.468 267.299V268.457C261.476 268.854 261.431 269.251 261.333 269.636C261.151 270.409 260.766 271.12 260.218 271.696C259.684 272.275 259.008 272.705 258.258 272.946C257.522 273.177 256.74 273.222 255.982 273.076C255.224 272.93 254.515 272.597 253.918 272.108C253.34 271.619 252.885 271.001 252.59 270.304C252.326 269.626 252.207 268.9 252.242 268.173C252.242 267.463 252.242 266.752 252.242 266.042C252.242 260.474 252.242 255.282 252.242 250.602C252.285 241.269 252.313 233.996 252.327 229.898L252.398 229.969C251.745 229.969 251.191 229.969 250.694 229.926C250.487 229.892 250.29 229.816 250.114 229.702C249.938 229.588 249.787 229.44 249.671 229.266C249.471 228.994 249.382 228.656 249.423 228.321C249.435 228.645 249.541 228.958 249.728 229.223C249.84 229.387 249.985 229.525 250.154 229.629C250.323 229.733 250.512 229.8 250.708 229.827C251.177 229.87 251.752 229.827 252.398 229.827H252.462V229.891C252.462 233.989 252.505 241.255 252.548 250.594C252.548 255.275 252.548 260.467 252.548 266.035C252.548 266.745 252.548 267.456 252.548 268.166C252.506 268.856 252.615 269.546 252.867 270.19C253.14 270.831 253.561 271.398 254.096 271.845C254.641 272.292 255.287 272.599 255.978 272.74C256.688 272.874 257.42 272.83 258.109 272.612C258.796 272.392 259.415 271.998 259.906 271.468C260.41 270.938 260.766 270.284 260.935 269.572C261.063 268.829 261.103 268.073 261.056 267.321C261.056 253.002 261.092 239.891 261.106 229.955V229.813H261.248H262.406C262.757 229.852 263.111 229.775 263.414 229.593C263.699 229.411 263.909 229.134 264.008 228.811C264.107 228.489 264.088 228.141 263.954 227.831C263.833 227.53 263.612 227.279 263.329 227.121C263.044 226.977 262.724 226.913 262.406 226.936H260.474H254.082H251.738C251.397 226.936 251.077 226.936 250.8 226.936C250.547 226.959 250.303 227.044 250.09 227.185C249.803 227.38 249.592 227.669 249.494 228.002C249.536 228.094 249.543 228.222 249.529 228.222Z" fill="#263238"/>
<path d="M256.887 271.44C256.009 271.44 255.166 271.091 254.544 270.471C253.922 269.85 253.572 269.008 253.57 268.13V242.384H260.197V268.13C260.197 269.008 259.848 269.85 259.227 270.47C258.607 271.091 257.765 271.44 256.887 271.44Z" fill="#FF725E"/>
<path d="M260.012 229.912C257.779 230.158 255.526 230.158 253.293 229.912C255.526 229.666 257.779 229.666 260.012 229.912Z" fill="#263238"/>
<path d="M253.57 242.384C253.602 242.137 253.712 241.907 253.885 241.728C254.058 241.549 254.284 241.43 254.529 241.389C255.091 241.31 255.663 241.342 256.212 241.482L259.465 241.95C259.686 241.961 259.899 242.038 260.076 242.17C260.118 242.206 260.152 242.25 260.175 242.299C260.198 242.349 260.21 242.403 260.21 242.458C260.21 242.513 260.198 242.567 260.175 242.617C260.152 242.666 260.118 242.71 260.076 242.746" fill="#FF725E"/>
<path opacity="0.21" d="M256.73 246.183C256.73 246.383 256.671 246.578 256.56 246.744C256.449 246.91 256.292 247.039 256.107 247.115C255.923 247.191 255.72 247.211 255.525 247.173C255.329 247.134 255.149 247.038 255.008 246.896C254.867 246.755 254.771 246.576 254.732 246.38C254.693 246.184 254.713 245.982 254.79 245.797C254.866 245.613 254.995 245.456 255.161 245.345C255.327 245.234 255.522 245.175 255.721 245.175C255.989 245.175 256.245 245.281 256.435 245.47C256.624 245.659 256.73 245.916 256.73 246.183Z" fill="white"/>
<path opacity="0.21" d="M256.781 250.665C256.781 250.797 256.728 250.924 256.635 251.017C256.542 251.11 256.415 251.163 256.284 251.163C256.218 251.164 256.152 251.151 256.091 251.127C256.03 251.102 255.974 251.066 255.927 251.019C255.881 250.973 255.843 250.918 255.818 250.857C255.792 250.797 255.779 250.731 255.779 250.665C255.779 250.532 255.832 250.403 255.927 250.309C256.022 250.214 256.15 250.161 256.284 250.161C256.349 250.161 256.415 250.174 256.475 250.2C256.536 250.225 256.591 250.262 256.638 250.309C256.684 250.356 256.72 250.412 256.745 250.473C256.77 250.534 256.782 250.6 256.781 250.665Z" fill="white"/>
<g opacity="0.3">
<path d="M232.838 267.293C232.327 267.293 231.915 264.523 231.915 261.106C231.915 257.69 232.327 254.913 232.838 254.913C233.35 254.913 233.762 257.683 233.762 261.106C233.762 264.53 233.343 267.293 232.838 267.293Z" fill="white"/>
</g>
<g opacity="0.3">
<path d="M255.403 267.293C254.891 267.293 254.479 264.523 254.479 261.106C254.479 257.69 254.891 254.913 255.403 254.913C255.914 254.913 256.333 257.683 256.333 261.106C256.333 264.53 255.914 267.293 255.403 267.293Z" fill="white"/>
</g>
<path d="M211.098 226.745C211.204 226.745 211.282 239.927 211.282 256.192C211.282 272.456 211.204 285.638 211.098 285.638C210.991 285.638 210.913 272.456 210.913 256.192C210.913 239.927 210.998 226.745 211.098 226.745Z" fill="#263238"/>
<path d="M296.937 226.809C297.036 226.809 297.121 239.998 297.121 256.255C297.121 272.512 297.036 285.709 296.937 285.709C296.837 285.709 296.752 272.527 296.752 256.255C296.752 239.984 296.83 226.809 296.937 226.809Z" fill="#263238"/>
<path d="M297.023 237.163C297.023 237.263 277.676 237.348 253.819 237.348C229.962 237.348 210.615 237.263 210.615 237.163C210.615 237.064 229.955 236.979 253.819 236.979C277.683 236.979 297.023 237.064 297.023 237.163Z" fill="#263238"/>
<path d="M218.428 286.419C218.429 285.461 218.241 284.512 217.875 283.627C217.509 282.741 216.971 281.937 216.294 281.259C215.616 280.582 214.812 280.045 213.926 279.678C213.041 279.312 212.092 279.124 211.134 279.125C209.199 279.125 207.344 279.893 205.976 281.261C204.608 282.629 203.84 284.485 203.84 286.419H218.428Z" fill="#455A64"/>
<path d="M304.232 286.667C304.232 284.733 303.463 282.877 302.095 281.509C300.728 280.142 298.872 279.373 296.938 279.373C295.003 279.373 293.148 280.142 291.78 281.509C290.412 282.877 289.644 284.733 289.644 286.667H304.232Z" fill="#455A64"/>
<path d="M210.615 241.646C211.583 241.646 212.512 241.261 213.197 240.576C213.881 239.892 214.266 238.963 214.266 237.995C214.264 237.028 213.879 236.101 213.194 235.418C212.51 234.735 211.582 234.352 210.615 234.352V241.646Z" fill="#455A64"/>
<path d="M297.022 234.352C296.056 234.352 295.129 234.735 294.446 235.419C293.763 236.102 293.379 237.029 293.379 237.995C293.378 238.474 293.472 238.949 293.654 239.392C293.837 239.834 294.105 240.237 294.444 240.576C294.782 240.915 295.184 241.184 295.626 241.368C296.069 241.551 296.543 241.646 297.022 241.646V234.352Z" fill="#455A64"/>
<path d="M273.336 216.02H272.562H270.289L261.539 216.055L229.372 216.112H218.718H213.036C212.071 216.112 211.097 216.112 210.139 216.169C209.166 216.27 208.211 216.496 207.298 216.844C206.834 217.019 206.381 217.223 205.941 217.454C205.506 217.695 205.086 217.963 204.684 218.257C203.032 219.464 201.744 221.103 200.962 222.994C200.572 223.959 200.314 224.972 200.195 226.006C200.032 228.094 200.195 230.267 200.032 232.469C199.815 234.696 199.277 236.88 198.434 238.953C196.598 243.249 193.431 246.842 189.4 249.202C185.201 251.692 180.272 252.658 175.444 251.937C170.362 251.209 165.704 248.698 162.304 244.851C158.904 241.005 156.983 236.075 156.885 230.942C156.885 210.217 156.885 190.458 156.885 172.51C156.885 163.526 156.885 154.996 156.885 147.013C156.886 145.175 156.514 143.356 155.793 141.665C155.072 139.974 154.016 138.447 152.688 137.175C151.361 135.904 149.79 134.914 148.07 134.266C146.35 133.618 144.517 133.325 142.68 133.405C139.451 133.536 136.377 134.821 134.015 137.027C132.937 138.035 132.022 139.204 131.302 140.493C130.65 141.718 130.172 143.028 129.882 144.385C129.669 145.664 129.581 146.96 129.619 148.256C129.619 149.506 129.619 150.713 129.619 151.864C129.619 154.179 129.619 156.289 129.619 158.185C129.619 161.978 129.619 164.925 129.583 166.935C129.583 167.929 129.583 168.689 129.583 169.208C129.583 169.726 129.583 169.982 129.583 169.982C129.583 169.982 129.583 169.719 129.583 169.208C129.583 168.696 129.583 167.929 129.583 166.935C129.583 164.925 129.583 161.963 129.548 158.185C129.548 156.291 129.548 154.184 129.548 151.864C129.548 150.713 129.548 149.506 129.548 148.256C129.505 146.946 129.591 145.635 129.804 144.342C130.085 142.962 130.563 141.63 131.224 140.386C131.946 139.066 132.871 137.868 133.966 136.835C136.362 134.575 139.495 133.259 142.787 133.128C144.66 133.042 146.532 133.338 148.289 133.996C150.045 134.654 151.65 135.661 153.006 136.957C154.362 138.253 155.442 139.81 156.179 141.535C156.917 143.26 157.297 145.116 157.297 146.992C157.297 154.975 157.297 163.505 157.297 172.489C157.297 190.444 157.297 210.189 157.297 230.913C157.401 235.957 159.291 240.8 162.631 244.581C165.971 248.362 170.544 250.835 175.536 251.56C177.918 251.893 180.339 251.833 182.702 251.383C186.105 250.69 189.288 249.184 191.981 246.992C194.674 244.8 196.796 241.988 198.164 238.797C198.994 236.753 199.525 234.6 199.741 232.405C199.933 230.239 199.741 228.087 199.911 225.935C200.042 224.87 200.309 223.827 200.707 222.831C201.116 221.859 201.653 220.947 202.305 220.118C202.949 219.306 203.705 218.589 204.549 217.987C204.963 217.685 205.395 217.407 205.842 217.156C206.291 216.923 206.753 216.716 207.227 216.538C208.165 216.177 209.146 215.938 210.146 215.828C211.147 215.757 212.113 215.778 213.079 215.778H218.761H229.415L261.581 215.835L270.331 215.871H272.604L273.336 216.02Z" fill="#263238"/>
<path d="M233.755 216.021C234.001 218.925 234.001 221.845 233.755 224.749C233.509 221.845 233.509 218.925 233.755 216.021Z" fill="#263238"/>
<path d="M255.402 216.021C255.649 218.925 255.649 221.845 255.402 224.749C255.156 221.845 255.156 218.925 255.402 216.021Z" fill="#263238"/>
<path d="M59.0568 137.034L63.3182 141.736C64.1528 142.651 64.7376 143.765 65.0163 144.972C65.295 146.179 65.2581 147.437 64.9091 148.625L48.6802 203.875C48.221 205.437 48.1322 207.084 48.4209 208.687C48.7095 210.289 49.3677 211.802 50.3432 213.106C51.3186 214.409 52.5845 215.468 54.0403 216.197C55.4962 216.926 57.1019 217.305 58.7301 217.305H89.2703C91.0063 217.305 92.7179 216.897 94.2673 216.114C95.8167 215.331 97.1606 214.196 98.1909 212.798C99.2211 211.401 99.9089 209.782 100.199 208.07C100.489 206.359 100.373 204.603 99.86 202.944L82.9634 148.171C82.5826 146.937 82.5405 145.623 82.8416 144.367C83.1428 143.112 83.776 141.96 84.6751 141.033L88.5246 137.055L59.0568 137.034Z" fill="#F5F5F5"/>
<path d="M59.0569 137.034L88.5247 136.913H88.8088L88.6099 137.119L85.6838 140.152C85.1567 140.666 84.6587 141.209 84.1922 141.778C83.7435 142.369 83.3933 143.029 83.1553 143.731C82.6573 145.206 82.6573 146.803 83.1553 148.277C83.6288 149.811 84.1165 151.383 84.6184 152.993L91.0958 173.846C93.3969 181.282 95.8402 189.172 98.3899 197.397C98.7095 198.42 99.0291 199.457 99.3488 200.494C99.5121 201.012 99.6755 201.531 99.8317 202.056C100.008 202.579 100.157 203.11 100.279 203.647C100.541 204.739 100.644 205.864 100.585 206.985L100.478 207.823L100.428 208.242L100.329 208.654L100.13 209.478L99.8388 210.281C99.0044 212.429 97.5415 214.275 95.6413 215.579C93.6909 216.87 91.3959 217.541 89.0574 217.504H58.787C57.3538 217.505 55.9352 217.217 54.616 216.657C53.2969 216.097 52.1042 215.276 51.1096 214.244C50.1149 213.213 49.3387 211.991 48.8273 210.652C48.3159 209.313 48.0799 207.885 48.1334 206.453C48.1689 205.991 48.2186 205.536 48.2754 205.082C48.3323 204.627 48.4743 204.187 48.588 203.754C48.8436 202.894 49.0922 202.042 49.3408 201.197C49.838 199.506 50.3351 197.837 50.8181 196.19C51.7935 192.904 52.7405 189.712 53.6591 186.616C55.4773 180.437 57.2103 174.684 58.7302 169.428L62.9277 155.223C63.5456 153.142 64.1209 151.196 64.6536 149.413C64.7814 148.966 64.9235 148.525 65.0229 148.099C65.1117 147.678 65.1664 147.251 65.1862 146.821C65.2101 146.02 65.1022 145.221 64.8666 144.456C64.6554 143.771 64.3417 143.122 63.9362 142.531C63.5622 142.028 63.1515 141.553 62.7075 141.111L60.7046 138.88L59.0853 137.062L60.7544 138.852L62.7714 141.025C63.2212 141.467 63.6368 141.941 64.0143 142.446C64.4303 143.045 64.7535 143.703 64.9732 144.399C65.2238 145.179 65.3391 145.995 65.3141 146.814C65.2998 147.253 65.2475 147.69 65.1578 148.121C65.0584 148.568 64.9235 149.001 64.7956 149.449C64.27 151.239 63.7042 153.178 63.0981 155.266L58.9574 169.47L53.9218 186.665C53.0175 189.753 52.0823 192.946 51.1164 196.246L49.6462 201.254C49.1917 202.958 48.4956 204.642 48.4601 206.431C48.4173 207.814 48.6527 209.192 49.1524 210.483C49.6521 211.773 50.4059 212.95 51.369 213.943C52.3322 214.937 53.4851 215.727 54.7593 216.267C56.0335 216.806 57.4032 217.085 58.787 217.085H89.0503C91.3002 217.146 93.5134 216.506 95.3838 215.254C97.2542 214.002 98.6894 212.199 99.4908 210.096L99.7678 209.322L99.9667 208.527L100.059 208.129L100.109 207.724L100.208 206.907C100.268 205.824 100.17 204.738 99.9169 203.683C99.7966 203.152 99.6496 202.629 99.4766 202.113C99.3203 201.595 99.157 201.069 98.9936 200.551L98.0419 197.454C95.4993 189.222 93.0702 181.339 90.7691 173.895C88.4679 166.452 86.323 159.534 84.3343 153.064L82.9138 148.341C82.3985 146.814 82.3985 145.159 82.9138 143.632C83.1632 142.904 83.5277 142.22 83.9934 141.608C84.464 141.035 84.9667 140.49 85.4991 139.974L88.4395 136.956L88.5247 137.155L59.0569 137.034Z" fill="#263238"/>
<path d="M39.0636 283.5C38.9641 283.5 38.8789 251.937 38.8789 213.015C38.8789 174.094 38.9641 142.531 39.0636 142.531C39.163 142.531 39.2482 174.087 39.2482 213.015C39.2482 251.944 39.1701 283.5 39.0636 283.5Z" fill="#263238"/>
<path d="M102.659 151.012C102.659 151.111 88.9229 151.196 71.9766 151.196C55.0302 151.196 41.2871 151.111 41.2871 151.012C41.2871 150.912 55.0231 150.827 71.9766 150.827C88.93 150.827 102.659 150.891 102.659 151.012Z" fill="#263238"/>
<path d="M87.9778 171.126C84.9569 171.821 81.8107 171.752 78.8228 170.927C75.9819 170.132 73.3114 168.654 70.4775 167.71C67.6437 166.765 64.4121 166.41 61.7771 167.802L52.0681 202.987C51.7091 204.307 51.6589 205.691 51.9215 207.033C52.1841 208.375 52.7523 209.638 53.5821 210.725C54.4119 211.812 55.481 212.693 56.7064 213.299C57.9318 213.906 59.2805 214.222 60.6478 214.223H88.0488C89.4165 214.224 90.7659 213.91 91.9923 213.305C93.2186 212.699 94.2887 211.819 95.1195 210.733C95.9503 209.646 96.5193 208.383 96.7822 207.041C97.0452 205.699 96.995 204.314 96.6356 202.994L87.9778 171.126Z" fill="#FF725E"/>
<path d="M46.3579 286.667C46.3579 284.733 45.5894 282.877 44.2214 281.509C42.8535 280.142 40.9982 279.373 39.0637 279.373C38.1058 279.373 37.1573 279.562 36.2723 279.928C35.3874 280.295 34.5833 280.832 33.9059 281.509C33.2286 282.187 32.6913 282.991 32.3248 283.876C31.9582 284.761 31.7695 285.709 31.7695 286.667H46.3579Z" fill="#455A64"/>
<path d="M39.0635 155.983C40.2879 155.983 41.4621 155.497 42.3279 154.631C43.1936 153.765 43.68 152.591 43.68 151.367C43.68 150.142 43.1936 148.968 42.3279 148.102C41.4621 147.236 40.2879 146.75 39.0635 146.75V155.983Z" fill="#455A64"/>
<path d="M88.0424 137.61C87.7109 137.822 87.3615 138.005 86.9983 138.157C86.5868 138.365 86.1648 138.552 85.7341 138.718C85.2298 138.909 84.6688 139.158 84.0153 139.35C83.3619 139.542 82.6659 139.797 81.8846 139.982C81.1034 140.167 80.2724 140.344 79.3917 140.515C77.467 140.833 75.5185 140.985 73.5677 140.969C71.6152 140.932 69.6693 140.73 67.7509 140.365C66.8773 140.174 66.0392 140.003 65.2721 139.769C64.5051 139.534 63.7948 139.314 63.1414 139.059C62.488 138.803 61.9411 138.583 61.4439 138.348C61.0174 138.173 60.6002 137.977 60.1939 137.759C59.8351 137.596 59.4906 137.404 59.1641 137.184C59.5364 137.307 59.8995 137.457 60.2507 137.631C60.5916 137.787 61.0178 137.972 61.5221 138.157C62.0263 138.341 62.5803 138.59 63.2266 138.782C63.8729 138.973 64.569 139.229 65.3573 139.414C66.1457 139.598 66.9554 139.79 67.8219 139.975C71.6252 140.682 75.5216 140.733 79.342 140.124C80.2156 139.961 81.0536 139.826 81.8207 139.627C82.5878 139.428 83.298 139.243 83.9514 139.044C84.6048 138.846 85.1659 138.64 85.6773 138.469C86.1887 138.299 86.6077 138.121 86.9557 137.972C87.3078 137.823 87.6712 137.702 88.0424 137.61Z" fill="#263238"/>
<g opacity="0.3">
<path d="M64.1848 210.843C64.1848 210.949 63.5314 211.049 62.4376 210.665C60.9129 210.033 59.6465 208.904 58.8438 207.462C58.2642 206.48 57.8649 205.403 57.6648 204.28C57.4473 203.018 57.4019 201.733 57.5299 200.459C57.9018 197.67 58.4763 194.912 59.2487 192.206C62.1393 180.764 64.8809 171.609 65.3709 171.723C65.861 171.836 63.9504 181.219 61.0456 192.661C60.2977 195.285 59.6884 197.948 59.2202 200.637C59.0753 201.768 59.0753 202.914 59.2202 204.046C59.3321 205.015 59.6058 205.958 60.0299 206.837C60.6296 208.137 61.585 209.24 62.7857 210.019C63.5953 210.551 64.2132 210.672 64.1848 210.843Z" fill="white"/>
</g>
<path d="M87.0331 176.232C86.7427 176.408 86.4358 176.556 86.1169 176.673C85.5132 176.928 84.6325 177.29 83.5175 177.66C82.207 178.106 80.8434 178.378 79.462 178.469C78.6392 178.516 77.8139 178.461 77.0046 178.306C76.1398 178.132 75.2951 177.87 74.4832 177.525C72.8212 176.815 71.344 175.976 69.9377 175.351C68.7083 174.785 67.3972 174.415 66.0527 174.258C65.1435 174.163 64.2247 174.245 63.3467 174.499C62.7359 174.698 62.4162 174.883 62.402 174.847C62.3878 174.812 62.466 174.783 62.6151 174.698C62.8417 174.566 63.0793 174.455 63.3254 174.364C64.2113 174.043 65.1562 173.917 66.0953 173.995C67.4794 174.117 68.8334 174.47 70.101 175.039C71.5215 175.657 73.0201 176.495 74.6466 177.17C75.436 177.506 76.2568 177.763 77.0969 177.937C77.8783 178.086 78.6742 178.145 79.4691 178.114C80.8237 178.042 82.1643 177.804 83.4606 177.404C84.5757 177.07 85.4706 176.744 86.0885 176.53C86.3927 176.4 86.7091 176.3 87.0331 176.232Z" fill="#FAFAFA"/>
</svg>
