<svg width="547" height="349" viewBox="0 0 547 349" fill="none" xmlns="http://www.w3.org/2000/svg">
<path d="M4.12988 289.467V321.498H50.976H102.641V289.467H4.12988Z" fill="#F5F5F5"/>
<path d="M0 280.51V289.466H106.082V280.51H50.9762H0Z" fill="#E0E0E0"/>
<path d="M53.0416 321.497H102.641V289.466H106.083V280.51H50.9766V288.637L53.0416 321.497Z" fill="#E0E0E0"/>
<path d="M37.8896 294.629H17.9121V299.447H37.8896V294.629Z" fill="#E0E0E0"/>
<path d="M40.9873 305.478H15.3389V315.662H40.9873V305.478Z" fill="white"/>
<path d="M19.2891 248.518V280.549H66.1274H117.792V248.518H19.2891Z" fill="#F5F5F5"/>
<path d="M15.1514 239.562V248.518H121.242V239.562H66.1276H15.1514Z" fill="#E0E0E0"/>
<path d="M68.192 280.549H117.791V248.518H121.241V239.562H66.127V247.689L68.192 280.549Z" fill="#E0E0E0"/>
<path d="M53.0419 253.681H33.0645V258.499H53.0419V253.681Z" fill="#E0E0E0"/>
<path d="M56.1387 264.537H30.4902V274.721H56.1387V264.537Z" fill="white"/>
<path d="M79.8633 4.5332H6.93066V110.248H79.8633V4.5332Z" fill="#E0E0E0"/>
<path d="M76.2022 4.5332H3.26953V110.248H76.2022V4.5332Z" fill="#F5F5F5"/>
<path d="M67.1439 15.9844H12.335V98.7962H67.1439V15.9844Z" fill="white"/>
<path d="M67.144 98.7966C67.144 98.7966 67.144 98.6558 67.144 98.3899C67.144 98.1239 67.144 97.725 67.144 97.2166C67.144 96.1763 67.144 94.651 67.144 92.672C67.144 88.7062 67.144 82.9179 67.0971 75.6121C67.0971 61.0162 67.0423 40.3348 67.011 15.9848L67.1909 16.1647H12.3898L12.5853 15.9691C12.5853 47.2103 12.5853 76.0111 12.5853 98.781L12.4289 98.6246L52.3212 98.7028L63.3425 98.7419H66.2366C66.8937 98.7419 67.2379 98.7419 67.2379 98.7419H66.2679H63.4051H52.4542L12.4602 98.8279H12.3037V98.6715C12.3037 75.9015 12.3037 47.1008 12.3037 15.8596V15.6562H12.5071H67.3082H67.4882V15.9926C67.4882 40.3895 67.4256 61.1101 67.4021 75.7451C67.4021 83.0274 67.4021 88.8001 67.3474 92.758C67.3474 94.7214 67.3474 96.231 67.3474 97.2635C67.3474 97.7641 67.3474 98.1552 67.3474 98.4212C67.3474 98.6871 67.144 98.7966 67.144 98.7966Z" fill="#E0E0E0"/>
<path d="M76.4134 4.5332C76.035 5.20169 75.5979 5.83516 75.1072 6.42614C74.2624 7.55251 73.0578 9.09345 71.6889 10.7595C70.3201 12.4256 69.0294 13.8884 68.083 14.9522C67.6092 15.5433 67.0859 16.0928 66.5186 16.5948C66.9289 15.948 67.3948 15.3382 67.9109 14.7722L71.3839 10.5171L74.8881 6.25405C75.3474 5.63865 75.8576 5.063 76.4134 4.5332Z" fill="#E0E0E0"/>
<path d="M67.3945 98.5303C70.1182 102.863 73.3249 106.873 76.9531 110.482L67.3945 98.5303Z" fill="white"/>
<path d="M76.9843 110.482C76.3744 110.04 75.8156 109.531 75.3182 108.965C72.7758 106.37 70.5035 103.524 68.5365 100.47C68.0976 99.8598 67.7252 99.2042 67.4258 98.5146C67.9172 99.081 68.3669 99.6822 68.7712 100.314C69.5534 101.44 70.7032 102.989 72.0173 104.639C73.3314 106.29 74.5986 107.768 75.5216 108.762C76.0493 109.3 76.5381 109.875 76.9843 110.482Z" fill="#E0E0E0"/>
<path d="M3.25391 110.162L12.8046 98.374L3.25391 110.162Z" fill="white"/>
<path d="M12.8124 98.374C11.3813 100.459 9.84083 102.467 8.19743 104.389C6.65235 106.399 5.00221 108.326 3.25391 110.162C4.68938 108.078 6.23241 106.07 7.87673 104.147C9.42065 102.138 11.0681 100.211 12.8124 98.374Z" fill="#E0E0E0"/>
<path d="M3.25391 4.5332C4.9205 6.29285 6.48736 8.14435 7.94713 10.079C9.49625 11.9259 10.9404 13.8584 12.2727 15.8673C10.6275 14.1039 9.07908 12.2526 7.63424 10.3215C6.07245 8.47117 4.61027 6.539 3.25391 4.5332Z" fill="#E0E0E0"/>
<path d="M50.0692 32.7939H31.7188V84.9043H50.0692V32.7939Z" fill="#E0E0E0"/>
<path d="M473.359 310.297C471.638 308.819 467.789 304.133 470.754 298.681C471.841 296.679 474.157 295.693 476.229 294.809C478.302 293.925 480.516 293.167 482.252 291.68C485.514 288.904 486.414 284.289 488.58 280.589C491.068 276.334 495.706 273.15 500.611 273.369C506.227 273.627 510.912 278.211 513.032 283.444C515.152 288.677 515.23 294.481 515.277 300.128C515.277 303.257 515.16 306.769 512.868 308.881C510.756 310.829 507.572 310.852 504.709 310.758L474.016 309.82" fill="#F5F5F5"/>
<path d="M532.062 225.904H451.347L465.888 312.596C466.188 314.403 466.995 316.088 468.215 317.455C469.435 318.821 471.017 319.814 472.779 320.316L473.061 320.394C473.303 320.449 473.53 320.535 473.78 320.574C474.321 320.685 474.871 320.748 475.423 320.762V320.848L475.822 320.786H511.803C512.468 320.784 513.13 320.719 513.782 320.59C515.881 320.264 517.815 319.259 519.289 317.729C520.762 316.199 521.694 314.229 521.941 312.119L528.98 252.382L529.293 250.035H529.254L532.023 226.35L532.062 225.904ZM516.833 281.198H508.557L509.394 256.043H518.992L516.833 281.198ZM519.789 256.043H527.721L524.764 281.198H517.638L519.789 256.043ZM496.128 309.092L495.619 287.237H507.548L506.821 309.092H496.128ZM483.229 287.237H494.822L495.322 309.092H484.927L483.229 287.237ZM484.121 309.092H474.406C473.483 303.194 472.278 295.52 470.98 287.237H482.424L484.121 309.092ZM482.744 281.198L480.789 256.043H494.086L494.665 281.198H482.744ZM495.463 281.198L494.884 256.043H508.557L507.775 281.198H495.463ZM494.751 250.004L494.211 226.71H509.543L508.76 250.004H494.751ZM493.969 250.004H480.335L478.528 226.71H493.39L493.969 250.004ZM479.537 250.004H465.113C464.605 246.789 464.12 243.746 463.682 241.001C462.18 231.614 461.617 228.04 461.335 226.71H477.762L479.537 250.004ZM480.007 256.043L481.962 281.198H470.034C469.635 278.648 469.251 276.067 468.821 273.486C467.882 267.541 466.952 261.604 466.068 256.043H480.007ZM469.228 281.198H461.406L457.182 256.043H465.231C466.49 263.818 467.882 272.469 469.22 281.198H469.228ZM470.182 287.237C471.363 294.801 472.529 302.255 473.6 309.092H466.123L462.454 287.237H470.182ZM507.634 309.092L508.361 287.237H516.324L514.463 309.092H507.634ZM509.597 250.004L510.38 226.71H521.502L519.508 250.004H509.597ZM460.545 226.71C460.866 228.392 462.337 237.559 464.308 250.004H456.204L452.293 226.71H460.545ZM521.502 309.092H515.245L517.161 287.237H524.099L521.502 309.092ZM528.433 250.004H520.29L522.277 226.71H531.163L528.433 250.004Z" fill="#E0E0E0"/>
<path d="M533.861 10.1963V81.1812H431.909L428.232 10.6969L533.861 10.1963Z" fill="#E0E0E0"/>
<path d="M428.232 10.6975V81.0332H530.185V10.6975H428.232Z" fill="white"/>
<path d="M530.67 81.5176H427.748V10.2119H530.67V81.5176ZM428.718 80.5476H529.677V11.1818H428.718V80.5476Z" fill="#E0E0E0"/>
<path d="M519.14 19.4336H439.277V72.2949H519.14V19.4336Z" fill="white"/>
<path d="M519.141 19.4338H518.75H517.615H513.227L496.801 19.4964L439.309 19.6137L439.536 19.3791C439.536 35.5316 439.536 53.4284 439.536 72.2326L439.286 71.9823L519.149 72.0292L518.953 72.2326C518.992 56.1426 519.031 42.9547 519.055 33.7716C519.055 29.1801 519.094 25.5976 519.109 23.1337C519.109 21.9186 519.109 20.9878 519.109 20.3412C519.109 19.7076 519.109 19.3713 519.109 19.3713C519.109 19.3713 519.109 19.6763 519.109 20.3021C519.109 20.9278 519.109 21.8665 519.109 23.0554C519.109 25.5037 519.109 29.0784 519.156 33.6465C519.156 42.8608 519.219 56.0957 519.266 72.2326V72.4359H519.062L439.2 72.4829H438.949V72.3108C438.949 53.5379 438.949 35.6098 438.949 19.4573V19.2305H439.184L496.824 19.34L513.251 19.4026H517.592H518.695L519.141 19.4338Z" fill="#E0E0E0"/>
<path d="M428.233 10.5166C428.861 10.8209 429.45 11.2018 429.985 11.6508C431.033 12.433 432.449 13.4733 433.982 14.7014C435.515 15.9294 436.868 17.0871 437.815 17.9554C438.364 18.3888 438.856 18.8909 439.277 19.4494C439.183 19.5589 436.727 17.533 433.669 15.0925C430.611 12.652 428.147 10.6105 428.233 10.5166Z" fill="#E0E0E0"/>
<path d="M530.186 10.697C530.272 10.8065 527.839 12.848 524.82 15.265C521.8 17.6821 519.227 19.5437 519.141 19.4342C519.055 19.3247 521.487 17.2831 524.507 14.8661C527.526 12.4491 530.1 10.5875 530.186 10.697Z" fill="#E0E0E0"/>
<path d="M530.107 81.0405L518.726 71.834L530.107 81.0405Z" fill="white"/>
<path d="M518.726 71.8335C518.82 71.7239 521.433 73.6951 524.569 76.2373C527.706 78.7794 530.186 80.9305 530.1 81.04C530.014 81.1495 527.393 79.1783 524.257 76.6284C521.12 74.0784 518.648 71.9351 518.726 71.8335Z" fill="#E0E0E0"/>
<path d="M428.233 81.0327C428.147 80.9232 430.525 78.8973 433.544 76.5116C436.563 74.1259 439.074 72.2799 439.16 72.3894C439.246 72.4989 436.876 74.5248 433.857 76.9105C430.837 79.2963 428.319 81.1422 428.233 81.0327Z" fill="#E0E0E0"/>
<path d="M455.492 35.8993V53.6006H505.749V35.8993H455.492Z" fill="#E0E0E0"/>
<path d="M532.063 321.497C532.063 321.607 414.482 321.701 269.469 321.701C124.457 321.701 6.85254 321.607 6.85254 321.497C6.85254 321.388 124.41 321.294 269.469 321.294C414.529 321.294 532.063 321.38 532.063 321.497Z" fill="#263238"/>
<path d="M71.4459 48.0625H469.4C470.798 48.0625 472.139 48.6179 473.128 49.6066C474.116 50.5953 474.672 51.9363 474.672 53.3345V307.316C474.67 310.336 473.469 313.231 471.334 315.367C469.198 317.502 466.303 318.703 463.283 318.705H76.7805C73.7579 318.705 70.8591 317.504 68.7218 315.367C66.5845 313.23 65.3838 310.331 65.3838 307.308V54.1168C65.3859 52.5103 66.0255 50.9704 67.1621 49.8353C68.2987 48.7001 69.8395 48.0625 71.4459 48.0625Z" fill="#455A64"/>
<path d="M48.2695 298.696H491.701V311.665C491.701 314.511 490.57 317.241 488.557 319.254C486.545 321.266 483.815 322.397 480.969 322.397H59.0014C56.1551 322.397 53.4254 321.266 51.4128 319.254C49.4002 317.241 48.2695 314.511 48.2695 311.665V298.696Z" fill="#455A64"/>
<path d="M462.54 58.8027H76.3662V287.37H462.54V58.8027Z" fill="#F5F5F5"/>
<path d="M229.678 298.696L235.184 307.449H312.615L317.723 298.696H229.678Z" fill="#263238"/>
<path d="M474.742 298.61H65.4463V299.917H474.742V298.61Z" fill="#263238"/>
<path d="M185.711 48.0625H143.19V33.0755C143.19 22.508 151.756 13.5674 162.323 13.5674L185.711 13.935V48.0625Z" fill="#E0E0E0"/>
<path d="M161.408 13.5445C161.408 13.5445 185.61 11.3465 185.61 42.9084V288.403H375.529V33.9835C375.528 31.2413 374.986 28.5262 373.935 25.9935C372.883 23.4609 371.343 21.1603 369.402 19.2235C367.461 17.2866 365.157 15.7515 362.622 14.7059C360.087 13.6603 357.37 13.1248 354.628 13.1299L161.408 13.5445Z" fill="white"/>
<path d="M161.408 13.5438L301.915 13.0902L335.941 12.9963L354.034 12.9416C357.203 12.8545 360.351 13.4822 363.245 14.7781C366.139 16.074 368.704 18.0048 370.749 20.4272C372.842 22.921 374.328 25.8663 375.091 29.0315C375.291 29.8267 375.44 30.6341 375.536 31.4485C375.646 32.2307 375.638 33.0833 375.693 33.9046C375.693 35.5368 375.693 37.1794 375.693 38.8325C375.693 45.4186 375.693 52.1117 375.693 58.9116C375.693 72.4959 375.693 86.4687 375.693 100.83C375.693 158.197 375.693 221.289 375.693 287.464V288.606H375.49H185.571H185.383V288.418C185.383 203.424 185.438 131.25 185.461 80.3518C185.461 67.6176 185.461 56.213 185.461 46.2712C185.461 43.7838 185.461 41.3903 185.32 39.0984C185.183 36.8989 184.88 34.7129 184.413 32.5592C183.964 30.5966 183.341 28.6779 182.551 26.8257C181.808 25.1714 180.896 23.5986 179.829 22.1324C178.002 19.6941 175.66 17.6884 172.969 16.2581C171.004 15.2184 168.895 14.4751 166.712 14.0523C165.387 13.7831 164.042 13.6313 162.691 13.5986C161.784 13.5986 161.314 13.5986 161.314 13.5986C161.773 13.5713 162.233 13.5713 162.691 13.5986C164.046 13.6212 165.397 13.7625 166.727 14.021C168.91 14.4384 171.018 15.1765 172.985 16.2112C175.694 17.6368 178.053 19.6458 179.892 22.0933C180.968 23.559 181.891 25.1317 182.645 26.7866C183.442 28.6461 184.073 30.5726 184.53 32.5436C185.003 34.7047 185.312 36.8985 185.453 39.1063C185.625 41.4059 185.602 43.7995 185.602 46.2869C185.602 56.2287 185.602 67.6332 185.602 80.3675C185.602 131.297 185.641 203.471 185.672 288.434L185.485 288.254H375.403L375.2 288.457V287.518C375.2 221.321 375.2 158.251 375.2 100.885C375.2 86.5391 375.2 72.5663 375.2 58.9664V38.8325C375.153 35.5394 375.443 32.2385 374.613 29.1097C373.9 26.0239 372.49 23.1423 370.491 20.6854C368.483 18.3006 365.964 16.3991 363.12 15.1221C360.276 13.845 357.181 13.2254 354.065 13.3092H335.934L301.853 13.3639L161.408 13.5438Z" fill="#263238"/>
<path d="M266.904 88.0491C266.904 88.1586 255.351 88.2525 241.091 88.2525C226.831 88.2525 215.278 88.1586 215.278 88.0491C215.278 87.9396 226.824 87.8457 241.091 87.8457C255.358 87.8457 266.904 87.9552 266.904 88.0491Z" fill="#263238"/>
<path d="M278.465 94.2131C278.465 94.3305 264.33 94.4165 246.887 94.4165C229.444 94.4165 215.317 94.3305 215.317 94.2131C215.317 94.0958 229.452 94.0098 246.887 94.0098C264.322 94.0098 278.465 94.1036 278.465 94.2131Z" fill="#263238"/>
<path d="M282.611 118.5C282.611 118.61 268.015 118.704 250.008 118.704C232.002 118.704 217.406 118.61 217.406 118.5C217.406 118.391 232.002 118.297 250.008 118.297C268.015 118.297 282.611 118.383 282.611 118.5Z" fill="#263238"/>
<path d="M325.201 142.17C325.201 142.28 300.796 142.374 270.697 142.374C240.598 142.374 216.193 142.28 216.193 142.17C216.193 142.061 240.59 141.967 270.697 141.967C300.804 141.967 325.201 142.053 325.201 142.17Z" fill="#263238"/>
<path d="M325.201 149.225C325.201 149.342 300.796 149.428 270.697 149.428C240.598 149.428 216.193 149.342 216.193 149.225C216.193 149.108 240.59 149.021 270.697 149.021C300.804 149.021 325.201 149.115 325.201 149.225Z" fill="#263238"/>
<path d="M325.201 156.288C325.201 156.406 300.796 156.492 270.697 156.492C240.598 156.492 216.193 156.406 216.193 156.288C216.193 156.171 240.59 156.085 270.697 156.085C300.804 156.085 325.201 156.179 325.201 156.288Z" fill="#263238"/>
<path d="M325.201 163.352C325.201 163.461 300.796 163.555 270.697 163.555C240.598 163.555 216.193 163.461 216.193 163.352C216.193 163.242 240.59 163.148 270.697 163.148C300.804 163.148 325.201 163.242 325.201 163.352Z" fill="#263238"/>
<path d="M325.201 170.415C325.201 170.525 300.796 170.619 270.697 170.619C240.598 170.619 216.193 170.525 216.193 170.415C216.193 170.306 240.59 170.212 270.697 170.212C300.804 170.212 325.201 170.298 325.201 170.415Z" fill="#263238"/>
<path d="M257.533 177.479C257.533 177.588 248.272 177.682 236.859 177.682C225.447 177.682 216.193 177.588 216.193 177.479C216.193 177.369 225.447 177.275 236.859 177.275C248.272 177.275 257.533 177.361 257.533 177.479Z" fill="#263238"/>
<path d="M233.387 51.5668C233.381 50.9613 233.501 50.3612 233.738 49.8042C233.976 49.2472 234.326 48.7453 234.767 48.3302C235.207 47.9151 235.729 47.5957 236.3 47.3921C236.87 47.1886 237.476 47.1052 238.08 47.1473C238.768 47.1103 239.456 47.2321 240.089 47.5034C240.723 47.7747 241.285 48.1882 241.733 48.7118L240.208 50.0963C239.973 49.7877 239.67 49.5376 239.323 49.3652C238.975 49.1929 238.593 49.1031 238.205 49.1029C237.562 49.1029 236.945 49.3583 236.491 49.8131C236.036 50.2678 235.78 50.8846 235.78 51.5277C235.78 52.1708 236.036 52.7876 236.491 53.2423C236.945 53.697 237.562 53.9525 238.205 53.9525C238.593 53.9522 238.975 53.8624 239.323 53.6901C239.67 53.5178 239.973 53.2677 240.208 52.9591L241.733 54.3358C241.289 54.8665 240.728 55.2874 240.094 55.5655C239.461 55.8437 238.771 55.9716 238.08 55.9393C237.48 55.9811 236.878 55.8991 236.311 55.6984C235.744 55.4977 235.224 55.1825 234.784 54.7724C234.344 54.3624 233.993 53.8662 233.752 53.3148C233.512 52.7633 233.388 52.1683 233.387 51.5668Z" fill="#263238"/>
<path d="M249.586 53.9524V55.8062H242.773V47.3193H249.43V49.1732H245.144V50.6046H248.922V52.4037H245.144V53.9681L249.586 53.9524Z" fill="#263238"/>
<path d="M254.631 53.5378H253.325V55.7906H250.924V47.3193H254.835C257.181 47.3193 258.605 48.5161 258.605 50.4481C258.626 51.0094 258.478 51.5639 258.181 52.0406C257.884 52.5173 257.452 52.8944 256.939 53.1233L258.777 55.7906H256.204L254.631 53.5378ZM254.631 49.1966H253.302V51.684H254.631C255.625 51.684 256.125 51.2225 256.125 50.4481C256.125 49.6738 255.648 49.2123 254.655 49.2123L254.631 49.1966Z" fill="#263238"/>
<path d="M261.577 49.2201H258.973V47.3193H266.576V49.2201H263.979V55.8062H261.577V49.2201Z" fill="#263238"/>
<path d="M267.475 47.3193H269.876V55.8062H267.475V47.3193Z" fill="#263238"/>
<path d="M273.99 49.1732V51.0426H277.737V52.8964H273.99V55.8062H271.589V47.3193H278.245V49.1732H273.99Z" fill="#263238"/>
<path d="M279.372 47.3193H281.773V55.8062H279.372V47.3193Z" fill="#263238"/>
<path d="M283.048 51.5672C283.043 50.9621 283.164 50.3625 283.402 49.806C283.639 49.2495 283.99 48.7482 284.43 48.3333C284.871 47.9184 285.392 47.599 285.962 47.395C286.532 47.191 287.137 47.1068 287.741 47.1478C288.428 47.1107 289.114 47.2326 289.747 47.504C290.379 47.7753 290.94 48.1887 291.386 48.7122L289.861 50.0967C289.627 49.7877 289.324 49.5372 288.976 49.3648C288.629 49.1925 288.246 49.103 287.859 49.1033C287.215 49.1033 286.599 49.3587 286.144 49.8135C285.689 50.2682 285.434 50.885 285.434 51.5281C285.434 52.1712 285.689 52.788 286.144 53.2427C286.599 53.6975 287.215 53.9529 287.859 53.9529C288.246 53.9532 288.629 53.8637 288.976 53.6914C289.324 53.519 289.627 53.2685 289.861 52.9595L291.386 54.3362C290.944 54.8668 290.384 55.2876 289.752 55.5658C289.12 55.8441 288.431 55.972 287.741 55.9397C285.027 55.9788 283.048 54.1485 283.048 51.5672Z" fill="#263238"/>
<path d="M297.973 54.1558H294.391L293.718 55.8062H291.27L295.016 47.3193H297.363L301.117 55.8062H298.622L297.973 54.1558ZM297.277 52.388L296.182 49.6738L295.087 52.388H297.277Z" fill="#263238"/>
<path d="M303.206 49.2201H300.602V47.3193H308.205V49.2201H305.608V55.8062H303.206V49.2201Z" fill="#263238"/>
<path d="M309.096 47.3193H311.497V55.8062H309.096V47.3193Z" fill="#263238"/>
<path d="M312.772 51.5669C312.772 49.0169 314.775 47.1475 317.466 47.1475C320.156 47.1475 322.159 49.0169 322.159 51.5669C322.159 54.1169 320.156 55.9785 317.466 55.9785C314.775 55.9785 312.772 54.1091 312.772 51.5669ZM319.812 51.5669C319.786 51.1202 319.63 50.6909 319.363 50.3319C319.096 49.9729 318.73 49.6999 318.309 49.5466C317.889 49.3934 317.433 49.3666 316.997 49.4694C316.562 49.5723 316.166 49.8004 315.859 50.1256C315.551 50.4508 315.346 50.8589 315.268 51.2994C315.19 51.74 315.242 52.1938 315.419 52.6049C315.595 53.016 315.889 53.3664 316.262 53.6128C316.636 53.8593 317.073 53.991 317.52 53.9917C317.831 53.9914 318.139 53.9272 318.424 53.8031C318.709 53.6789 318.965 53.4975 319.177 53.2702C319.389 53.0428 319.552 52.7743 319.656 52.4813C319.76 52.1883 319.802 51.877 319.781 51.5669H319.812Z" fill="#263238"/>
<path d="M331.545 47.3193V55.8062H329.566L325.819 51.2851V55.8062H323.473V47.3193H325.444L329.191 51.8405V47.3193H331.545Z" fill="#263238"/>
<path d="M341.166 207.288C341.166 207.398 330.341 207.492 316.996 207.492C303.652 207.492 292.818 207.398 292.818 207.288C292.818 207.179 303.644 207.085 316.996 207.085C330.348 207.085 341.166 207.179 341.166 207.288Z" fill="#263238"/>
<path d="M341.166 214.109C341.166 214.218 330.341 214.312 316.996 214.312C303.652 214.312 292.818 214.218 292.818 214.109C292.818 213.999 303.621 213.89 317.004 213.89C330.388 213.89 341.166 213.999 341.166 214.109Z" fill="#263238"/>
<path d="M337.959 243.747C337.948 243.632 337.948 243.517 337.959 243.403C337.959 243.16 337.92 242.831 337.889 242.409C337.889 242.19 337.873 241.948 337.842 241.682C337.842 241.408 337.756 241.118 337.709 240.806C337.612 240.076 337.463 239.355 337.263 238.647C336.77 236.689 335.978 234.818 334.917 233.101C332.435 228.949 328.582 225.792 324.024 224.175C319.465 222.557 314.485 222.58 309.941 224.239C309.013 224.573 308.108 224.97 307.234 225.427C306.349 225.915 305.497 226.461 304.684 227.062C303.859 227.678 303.075 228.347 302.338 229.065C301.608 229.823 300.929 230.627 300.304 231.474C299.013 233.207 298.012 235.138 297.34 237.192C295.91 241.442 295.91 246.043 297.34 250.294C298.012 252.348 299.013 254.279 300.304 256.012C300.929 256.858 301.608 257.663 302.338 258.421C303.075 259.139 303.859 259.808 304.684 260.423C306.281 261.631 308.054 262.586 309.941 263.255C313.425 264.519 317.183 264.835 320.829 264.17C323.734 263.627 326.491 262.474 328.918 260.787C331.345 259.1 333.387 256.918 334.909 254.385C335.97 252.667 336.762 250.797 337.255 248.839C337.456 248.131 337.605 247.409 337.701 246.68C337.748 246.367 337.803 246.078 337.834 245.812C337.865 245.546 337.834 245.295 337.881 245.076C337.881 244.654 337.936 244.294 337.952 244.083C337.939 243.971 337.939 243.858 337.952 243.747C337.962 243.859 337.962 243.971 337.952 244.083V245.084C337.952 245.303 337.952 245.554 337.952 245.82C337.952 246.085 337.881 246.383 337.834 246.703C337.755 247.438 337.619 248.165 337.427 248.878C336.96 250.859 336.189 252.756 335.143 254.502C332.654 258.735 328.761 261.963 324.141 263.626C319.52 265.289 314.463 265.282 309.847 263.607C308.9 263.269 307.978 262.866 307.086 262.402C306.181 261.911 305.313 261.354 304.489 260.736C303.641 260.113 302.836 259.433 302.08 258.702C301.335 257.93 300.643 257.11 300.007 256.246C298.689 254.481 297.666 252.513 296.98 250.419C295.52 246.088 295.52 241.398 296.98 237.067C297.668 234.974 298.69 233.006 300.007 231.239C300.643 230.376 301.338 229.558 302.087 228.791C302.842 228.058 303.644 227.376 304.489 226.749C306.862 224.997 309.576 223.763 312.456 223.127C315.337 222.491 318.318 222.467 321.208 223.057C324.099 223.647 326.832 224.838 329.233 226.552C331.633 228.266 333.647 230.465 335.143 233.007C336.188 234.754 336.958 236.651 337.427 238.631C337.62 239.347 337.756 240.076 337.834 240.813C337.881 241.134 337.928 241.424 337.952 241.689C337.975 241.955 337.952 242.206 337.952 242.433V243.426C337.963 243.532 337.966 243.64 337.959 243.747Z" fill="#4CE7A0"/>
<path d="M330.091 246.85C331.813 239.613 327.342 232.35 320.104 230.629C312.867 228.907 305.605 233.379 303.884 240.616C302.162 247.853 306.633 255.115 313.871 256.837C321.108 258.558 328.37 254.087 330.091 246.85Z" fill="#4CE7A0"/>
<path d="M346.954 232.146L346.391 232.459L344.709 233.351L338.24 236.722L328.017 242.049C326.977 242.59 325.853 242.95 324.692 243.113C324.06 243.192 323.419 243.137 322.809 242.951C322.2 242.765 321.637 242.452 321.157 242.034C320.647 241.592 320.284 241.005 320.117 240.352C320.021 240.011 320.012 239.651 320.09 239.306C320.167 238.961 320.33 238.64 320.562 238.373C321.05 237.839 321.726 237.514 322.448 237.465C322.826 237.414 323.21 237.487 323.543 237.673C323.876 237.86 324.139 238.149 324.294 238.498V238.553C324.313 240.811 323.51 243 322.033 244.709C321.261 245.632 320.307 246.387 319.23 246.925C318.154 247.464 316.977 247.774 315.775 247.837C314.507 247.906 313.238 247.719 312.044 247.287C310.849 246.856 309.754 246.189 308.822 245.327C307.814 244.444 307.112 243.263 306.819 241.955C306.684 241.267 306.777 240.552 307.085 239.922C307.398 239.276 307.938 238.769 308.603 238.498C308.947 238.366 309.319 238.323 309.684 238.374C310.049 238.424 310.396 238.567 310.691 238.787C311.255 239.237 311.667 239.849 311.872 240.54C312.095 241.208 312.203 241.908 312.193 242.612C312.224 242.961 312.224 243.312 312.193 243.661C312.176 244.013 312.132 244.363 312.06 244.709C311.509 247.553 309.962 250.108 307.695 251.913C306.553 252.859 305.225 253.557 303.797 253.961C302.369 254.365 300.873 254.467 299.404 254.259C296.376 253.752 293.66 252.099 291.816 249.644C290.741 248.268 289.996 246.662 289.642 244.951C289.258 243.251 289.392 241.475 290.025 239.851C290.369 239.039 290.953 238.351 291.699 237.88C292.456 237.413 293.359 237.243 294.233 237.403C294.662 237.5 295.063 237.691 295.409 237.962C295.755 238.232 296.038 238.575 296.236 238.967C296.617 239.708 296.896 240.498 297.065 241.314C297.799 244.476 297.598 247.783 296.486 250.833C295.434 253.77 293.404 256.255 290.737 257.873C288.2 259.42 285.217 260.073 282.266 259.727C280.857 259.556 279.495 259.115 278.253 258.429C277.051 257.751 275.99 256.851 275.124 255.777C273.453 253.757 272.537 251.218 272.535 248.596C272.561 247.363 272.826 246.146 273.317 245.014C273.528 244.453 273.852 243.942 274.269 243.513C274.687 243.084 275.188 242.745 275.742 242.519C276.306 242.343 276.907 242.327 277.479 242.472C278.016 242.648 278.505 242.945 278.91 243.34C279.664 244.1 280.23 245.027 280.561 246.046C280.9 246.987 281.077 247.979 281.085 248.979C281.085 249.464 281.085 249.934 281.085 250.403C281.085 250.872 281.046 251.326 280.999 251.772C280.705 254.845 279.809 257.83 278.363 260.556C277.453 262.275 276.328 263.87 275.015 265.304C274.569 265.797 274.193 266.141 273.943 266.376C273.693 266.61 273.56 266.72 273.56 266.72C273.56 266.72 273.677 266.587 273.92 266.344C274.162 266.102 274.514 265.75 274.952 265.249C276.23 263.799 277.328 262.199 278.222 260.486C279.629 257.768 280.495 254.804 280.772 251.756C280.819 251.31 280.842 250.857 280.85 250.395C280.858 249.934 280.85 249.464 280.85 248.987C280.836 248.013 280.659 247.048 280.326 246.132C280.012 245.16 279.477 244.273 278.761 243.543C278.387 243.184 277.935 242.917 277.44 242.761C276.924 242.632 276.382 242.648 275.875 242.808C275.36 243.024 274.895 243.344 274.509 243.748C274.123 244.152 273.824 244.63 273.63 245.155C273.174 246.251 272.932 247.425 272.918 248.612C272.934 251.158 273.829 253.62 275.453 255.581C276.297 256.638 277.342 257.518 278.528 258.17C279.713 258.822 281.015 259.235 282.36 259.383C285.231 259.712 288.13 259.074 290.596 257.568C293.191 255.986 295.16 253.558 296.173 250.693C297.258 247.715 297.451 244.486 296.729 241.4C296.572 240.619 296.309 239.864 295.946 239.155C295.776 238.81 295.531 238.506 295.23 238.267C294.928 238.028 294.577 237.858 294.202 237.771C293.428 237.63 292.629 237.786 291.965 238.209C291.284 238.63 290.756 239.258 290.455 240C289.851 241.543 289.725 243.233 290.096 244.849C290.439 246.501 291.159 248.051 292.2 249.378C293.981 251.745 296.601 253.341 299.521 253.837C300.937 254.03 302.378 253.926 303.752 253.531C305.125 253.136 306.402 252.46 307.5 251.545C309.694 249.803 311.192 247.334 311.724 244.584C311.848 243.918 311.901 243.242 311.88 242.565C311.893 241.901 311.792 241.24 311.583 240.61C311.398 239.997 311.036 239.453 310.542 239.046C310.298 238.864 310.011 238.747 309.708 238.706C309.406 238.665 309.098 238.701 308.814 238.811C308.24 239.05 307.773 239.489 307.5 240.047C307.227 240.605 307.145 241.237 307.265 241.846C307.551 243.062 308.213 244.157 309.158 244.975C310.05 245.806 311.101 246.45 312.247 246.868C313.393 247.286 314.612 247.469 315.83 247.407C316.983 247.347 318.111 247.049 319.144 246.532C320.176 246.015 321.091 245.291 321.83 244.404C323.261 242.758 324.045 240.648 324.035 238.467V238.521C323.907 238.226 323.682 237.983 323.399 237.831C323.115 237.679 322.788 237.628 322.471 237.684C321.833 237.72 321.233 238 320.797 238.467C320.594 238.698 320.452 238.977 320.384 239.278C320.315 239.578 320.323 239.891 320.406 240.188C320.554 240.795 320.887 241.342 321.36 241.752C321.807 242.148 322.334 242.443 322.905 242.619C323.475 242.794 324.077 242.845 324.669 242.769C325.802 242.62 326.9 242.276 327.915 241.752L338.162 236.535L344.678 233.242L346.375 232.389L346.954 232.146Z" fill="#263238"/>
<path d="M276.885 39.1848C276.885 39.3022 260.341 39.396 239.934 39.396C219.526 39.396 202.975 39.3022 202.975 39.1848C202.975 39.0675 219.518 38.9814 239.934 38.9814C260.349 38.9814 276.885 39.0753 276.885 39.1848Z" fill="#E0E0E0"/>
<path d="M289.204 39.1848C287.506 39.4664 285.772 39.4664 284.073 39.1848C285.773 38.9137 287.505 38.9137 289.204 39.1848Z" fill="#E0E0E0"/>
<path d="M362.778 39.1848C362.778 39.3022 347.682 39.396 329.073 39.396C310.465 39.396 295.368 39.3022 295.368 39.1848C295.368 39.0675 310.449 38.9814 329.073 38.9814C347.698 38.9814 362.778 39.0753 362.778 39.1848Z" fill="#E0E0E0"/>
<path d="M276.885 59.7493C276.885 59.8666 260.341 59.9526 239.934 59.9526C219.526 59.9526 202.975 59.8666 202.975 59.7493C202.975 59.6319 219.518 59.5459 239.934 59.5459C260.349 59.5459 276.885 59.6398 276.885 59.7493Z" fill="#E0E0E0"/>
<path d="M289.204 59.7493C287.505 60.0204 285.773 60.0204 284.073 59.7493C285.773 59.4781 287.505 59.4781 289.204 59.7493Z" fill="#E0E0E0"/>
<path d="M362.778 59.7493C362.778 59.8666 347.682 59.9526 329.073 59.9526C310.465 59.9526 295.368 59.8666 295.368 59.7493C295.368 59.6319 310.449 59.5459 329.073 59.5459C347.698 59.5459 362.778 59.6398 362.778 59.7493Z" fill="#E0E0E0"/>
<path d="M344.694 141.145L325.303 186.207C325.21 186.417 325.183 186.65 325.226 186.876C325.268 187.101 325.378 187.309 325.54 187.471C325.703 187.633 325.911 187.741 326.137 187.783C326.363 187.824 326.596 187.795 326.805 187.701L341.753 181.099C341.9 181.032 342.059 180.996 342.221 180.995C342.382 180.994 342.542 181.027 342.69 181.092C342.838 181.157 342.97 181.252 343.078 181.372C343.187 181.492 343.268 181.634 343.317 181.788L348.363 196.923C348.44 197.146 348.585 197.339 348.777 197.476C348.969 197.613 349.199 197.686 349.434 197.686C349.67 197.686 349.9 197.613 350.092 197.476C350.284 197.339 350.429 197.146 350.506 196.923L368.739 148.317L344.694 141.145Z" fill="#4CE7A0"/>
<path d="M369.967 148.677L379.252 196.845C379.295 197.07 379.405 197.277 379.568 197.439C379.73 197.6 379.937 197.709 380.163 197.751C380.388 197.794 380.621 197.767 380.831 197.675C381.041 197.583 381.218 197.43 381.34 197.236L389.991 183.384C390.075 183.249 390.186 183.133 390.318 183.044C390.449 182.955 390.597 182.894 390.753 182.865C390.909 182.837 391.069 182.841 391.224 182.878C391.378 182.914 391.523 182.983 391.649 183.078L404.329 192.77C404.516 192.911 404.743 192.991 404.978 192.999C405.212 193.007 405.444 192.943 405.64 192.815C405.837 192.686 405.989 192.501 406.076 192.283C406.164 192.065 406.182 191.825 406.128 191.597L393.879 141.145L369.967 148.677Z" fill="#4CE7A0"/>
<g opacity="0.3">
<path d="M344.694 141.145L325.303 186.207C325.21 186.417 325.183 186.65 325.226 186.876C325.268 187.101 325.378 187.309 325.54 187.471C325.703 187.633 325.911 187.741 326.137 187.783C326.363 187.824 326.596 187.795 326.805 187.701L341.753 181.099C341.9 181.032 342.059 180.996 342.221 180.995C342.382 180.994 342.542 181.027 342.69 181.092C342.838 181.157 342.97 181.252 343.078 181.372C343.187 181.492 343.268 181.634 343.317 181.788L348.363 196.923C348.44 197.146 348.585 197.339 348.777 197.476C348.969 197.613 349.199 197.686 349.434 197.686C349.67 197.686 349.9 197.613 350.092 197.476C350.284 197.339 350.429 197.146 350.506 196.923L368.739 148.317L344.694 141.145Z" fill="black"/>
</g>
<g opacity="0.3">
<path d="M369.967 148.677L379.252 196.845C379.295 197.07 379.405 197.277 379.568 197.439C379.73 197.6 379.937 197.709 380.163 197.751C380.388 197.794 380.621 197.767 380.831 197.675C381.041 197.583 381.218 197.43 381.34 197.236L389.991 183.384C390.075 183.249 390.186 183.133 390.318 183.044C390.449 182.955 390.597 182.894 390.753 182.865C390.909 182.837 391.069 182.841 391.224 182.878C391.378 182.914 391.523 182.983 391.649 183.078L404.329 192.77C404.516 192.911 404.743 192.991 404.978 192.999C405.212 193.007 405.444 192.943 405.64 192.815C405.837 192.686 405.989 192.501 406.076 192.283C406.164 192.065 406.182 191.825 406.128 191.597L393.879 141.145L369.967 148.677Z" fill="black"/>
</g>
<path d="M370.906 62.1893L377.273 57.5117L382.279 63.6207L389.608 60.6796L392.932 67.8446L400.77 66.8121L402.202 74.5794L410.047 75.5259L409.507 83.4105L416.868 86.2733L414.388 93.7747L420.802 98.3897L416.539 105.038L421.608 111.093L415.812 116.474L419.222 123.6L412.276 127.37L413.802 135.122L406.136 137.046L405.682 144.931L397.782 144.892L395.381 152.416L387.739 150.414L383.538 157.102L376.639 153.261L370.906 158.698L365.18 153.261L358.281 157.102L354.08 150.414L346.438 152.416L344.037 144.892L336.137 144.931L335.683 137.046L328.017 135.122L329.543 127.37L322.597 123.6L325.999 116.474L320.211 111.093L325.28 105.038L321.017 98.3897L327.431 93.7747L324.943 86.2733L332.312 83.4105L331.772 75.5259L339.617 74.5794L341.049 66.8121L348.887 67.8446L352.211 60.6796L359.54 63.6207L364.538 57.5117L370.906 62.1893Z" fill="#4CE7A0"/>
<path d="M396.21 133.41C410.185 119.435 410.185 96.7763 396.21 82.8011C382.235 68.8258 359.576 68.8259 345.601 82.8011C331.626 96.7763 331.626 119.435 345.601 133.41C359.576 147.385 382.235 147.385 396.21 133.41Z" fill="white"/>
<path d="M378.712 99.625L388.31 101.033C388.666 101.085 389 101.235 389.274 101.467C389.549 101.698 389.753 102.002 389.864 102.344C389.975 102.686 389.988 103.053 389.901 103.401C389.814 103.75 389.632 104.068 389.374 104.318L382.42 111.084C382.195 111.302 382.027 111.571 381.93 111.868C381.834 112.165 381.811 112.481 381.864 112.789L383.499 122.371C383.559 122.725 383.519 123.089 383.384 123.421C383.248 123.753 383.023 124.041 382.732 124.252C382.442 124.462 382.098 124.588 381.74 124.613C381.382 124.639 381.024 124.564 380.707 124.397L372.102 119.868C371.827 119.722 371.519 119.645 371.207 119.645C370.895 119.645 370.587 119.722 370.311 119.868L361.707 124.374C361.389 124.539 361.031 124.613 360.674 124.586C360.316 124.559 359.973 124.432 359.684 124.221C359.394 124.009 359.17 123.721 359.035 123.389C358.9 123.057 358.861 122.693 358.922 122.34L360.573 112.782C360.626 112.474 360.604 112.159 360.509 111.862C360.413 111.565 360.247 111.295 360.025 111.076L353.079 104.295C352.821 104.044 352.639 103.726 352.552 103.376C352.466 103.027 352.479 102.66 352.591 102.318C352.703 101.976 352.908 101.672 353.184 101.44C353.459 101.209 353.795 101.06 354.151 101.009L363.756 99.625C364.065 99.5822 364.358 99.4643 364.611 99.2815C364.863 99.0987 365.067 98.8567 365.203 98.5768L369.513 89.8787C369.672 89.5571 369.918 89.2864 370.223 89.0972C370.528 88.9079 370.879 88.8076 371.238 88.8076C371.597 88.8076 371.949 88.9079 372.253 89.0972C372.558 89.2864 372.804 89.5571 372.963 89.8787L377.242 98.5925C377.384 98.8716 377.592 99.1117 377.848 99.2917C378.105 99.4717 378.401 99.5861 378.712 99.625Z" fill="#4CE7A0"/>
<path d="M509.934 136.529C509.934 136.529 500.61 174.724 458.864 165.971C458.864 165.971 470.965 127.291 509.934 136.529Z" fill="#263238"/>
<path d="M489.785 194.374C489.785 194.374 470.621 222.948 438.941 203.189C438.941 203.189 460.53 175.053 489.785 194.374Z" fill="#263238"/>
<path d="M459.232 237.966C459.232 237.966 431.276 261.737 404.478 232.271C404.524 232.271 434.819 209.65 459.232 237.966Z" fill="#263238"/>
<path d="M429.626 145.548C429.626 145.548 460.632 160.449 445.583 194.6C445.583 194.6 414.694 177.235 429.626 145.548Z" fill="#263238"/>
<path d="M422.898 186.723C422.898 186.723 438.362 207.6 415.311 225.536C415.311 225.536 400.832 203.016 422.898 186.723Z" fill="#263238"/>
<path d="M494.619 91.8662C494.619 91.8662 498.178 122.826 464.738 127.785C464.754 127.785 463.104 95.699 494.619 91.8662Z" fill="#263238"/>
<path d="M446.662 60.5771C446.662 60.5771 473.703 71.8722 461.962 103.598C461.962 103.536 434.858 90.0036 446.662 60.5771Z" fill="#263238"/>
<path d="M430.338 105.773C430.338 105.773 466.147 109.857 462.995 148.834C462.995 148.834 426.427 142.279 430.338 105.773Z" fill="#263238"/>
<path d="M379.377 241.822C379.377 241.822 379.526 241.767 379.831 241.681L381.168 241.329C382.349 241.016 384.094 240.602 386.299 239.882C392.532 237.953 398.558 235.412 404.29 232.295C412.799 227.645 420.653 221.888 427.647 215.172C431.783 211.222 435.638 206.988 439.184 202.501L441.875 198.887L443.228 197.064C443.666 196.439 444.065 195.789 444.495 195.148L447.022 191.237L449.369 187.154C449.752 186.465 450.151 185.785 450.526 185.104C450.902 184.424 451.222 183.696 451.567 183C452.255 181.6 452.951 180.223 453.616 178.831C454.281 177.439 454.805 176.015 455.399 174.623C455.689 173.927 456.002 173.238 456.268 172.542L457.05 170.43L458.544 166.269C458.958 164.869 459.326 163.476 459.772 162.108C459.975 161.419 460.179 160.739 460.374 160.058C460.57 159.378 460.71 158.689 460.883 158.009L461.829 153.973C463.873 144.493 464.768 134.803 464.496 125.109C464.282 118.578 463.555 112.074 462.322 105.656C461.829 103.388 461.399 101.643 461.141 100.454C461.008 99.8677 460.906 99.4218 460.836 99.1011C460.765 98.7804 460.75 98.6396 460.75 98.6396C460.75 98.6396 460.796 98.7883 460.875 99.0933L461.219 100.439C461.508 101.62 462.001 103.364 462.478 105.625C465.741 121.612 465.645 138.103 462.197 154.051C461.884 155.381 461.568 156.731 461.25 158.103C461.086 158.783 460.953 159.479 460.75 160.16C460.546 160.84 460.351 161.529 460.147 162.217L458.919 166.386L457.425 170.563C457.175 171.267 456.925 171.971 456.643 172.683C456.361 173.395 456.064 174.075 455.767 174.779L453.983 179.003C453.319 180.396 452.615 181.78 451.934 183.18L450.886 185.292C450.503 185.98 450.104 186.661 449.721 187.349L447.374 191.448L444.832 195.359C444.402 196 444.003 196.65 443.557 197.275L442.196 199.114L439.497 202.735C435.95 207.241 432.089 211.491 427.944 215.454C420.92 222.178 413.028 227.931 404.478 232.561C398.708 235.661 392.638 238.169 386.362 240.046C384.148 240.743 382.388 241.134 381.199 241.415L379.854 241.736L379.377 241.822Z" fill="#263238"/>
<path d="M419.542 203.557C419.583 203.847 419.583 204.142 419.542 204.433C419.495 204.988 419.409 205.802 419.292 206.779C419.049 208.774 418.635 211.519 418.048 214.531C417.462 217.542 416.805 220.249 416.281 222.181C416.015 223.151 415.796 223.933 415.623 224.473C415.556 224.758 415.453 225.034 415.318 225.294C415.338 225.003 415.388 224.715 415.467 224.434C415.616 223.8 415.795 223.026 415.999 222.087C416.453 220.139 417.063 217.433 417.649 214.429C418.236 211.426 418.69 208.696 419.003 206.717C419.151 205.794 419.284 205.012 419.386 204.37C419.41 204.094 419.463 203.822 419.542 203.557Z" fill="#455A64"/>
<path d="M427.162 234.563C426.868 234.576 426.573 234.549 426.286 234.485L423.939 234.133C421.937 233.836 419.16 233.444 416.117 233.085C413.074 232.725 410.258 232.467 408.24 232.302L405.847 232.091C405.551 232.081 405.257 232.039 404.971 231.966C405.264 231.928 405.561 231.928 405.855 231.966C406.426 231.966 407.247 231.966 408.256 232.044C410.29 232.146 413.082 232.357 416.164 232.717C419.246 233.077 422.015 233.499 423.986 233.89C424.987 234.078 425.785 234.242 426.333 234.367C426.616 234.398 426.895 234.463 427.162 234.563Z" fill="#455A64"/>
<path d="M464.848 196.68C464.513 196.798 464.167 196.882 463.816 196.931L460.984 197.486C458.591 197.963 455.298 198.652 451.684 199.52C448.07 200.388 444.824 201.295 442.477 201.968L439.7 202.75C439.368 202.867 439.025 202.951 438.676 203.001C438.984 202.826 439.313 202.69 439.654 202.594C440.295 202.359 441.218 202.046 442.399 201.671C444.746 200.928 447.961 199.981 451.582 199.105C455.204 198.229 458.52 197.58 460.969 197.181C462.173 196.978 463.151 196.837 463.831 196.751C464.167 196.693 464.508 196.669 464.848 196.68Z" fill="#455A64"/>
<path d="M437.479 167.388C437.72 167.681 437.933 167.998 438.112 168.334C438.511 168.96 439.035 169.899 439.637 171.048C442.774 177.171 444.692 183.844 445.285 190.697C445.394 192.004 445.441 193.044 445.441 193.826C445.478 194.206 445.478 194.588 445.441 194.968C445.363 194.595 445.322 194.215 445.316 193.834C445.277 193.107 445.183 192.051 445.035 190.744C444.295 183.953 442.395 177.338 439.418 171.189C438.847 170.008 438.37 169.069 438.018 168.42C437.806 168.094 437.625 167.748 437.479 167.388Z" fill="#455A64"/>
<path d="M479.013 149.576C478.76 149.796 478.484 149.99 478.192 150.155L475.892 151.649C473.968 152.932 471.356 154.778 468.618 156.984C465.88 159.189 463.534 161.38 461.883 162.999L459.943 164.939C459.722 165.19 459.476 165.418 459.208 165.619C459.388 165.339 459.595 165.077 459.826 164.837C460.248 164.344 460.882 163.648 461.68 162.811C463.776 160.63 466.007 158.581 468.36 156.679C470.709 154.775 473.172 153.017 475.736 151.414C476.729 150.804 477.535 150.335 478.083 150.022C478.374 149.836 478.686 149.686 479.013 149.576Z" fill="#455A64"/>
<path d="M439.912 121.3C440.019 121.364 440.119 121.44 440.209 121.527L440.991 122.231C441.672 122.849 442.642 123.795 443.807 124.914C446.154 127.213 449.282 130.491 452.536 134.3C455.79 138.109 458.528 141.731 460.429 144.406C461.375 145.744 462.126 146.839 462.627 147.605L463.198 148.497C463.323 148.708 463.386 148.818 463.37 148.826C463.276 148.743 463.195 148.649 463.127 148.544L462.494 147.699L460.194 144.57C458.239 141.942 455.501 138.36 452.224 134.558C448.946 130.757 445.888 127.448 443.619 125.101L440.882 122.371L440.146 121.589C439.982 121.409 439.904 121.315 439.912 121.3Z" fill="#455A64"/>
<path d="M483.042 101.925C482.809 102.27 482.547 102.594 482.259 102.895L480.085 105.46C478.262 107.635 475.814 110.693 473.295 114.213C470.777 117.733 468.68 121.042 467.21 123.475L465.536 126.353C465.346 126.719 465.123 127.067 464.871 127.393C465.017 127.008 465.192 126.634 465.395 126.275C465.755 125.571 466.31 124.562 467.014 123.326C468.422 120.854 470.495 117.514 473.022 113.979C475.548 110.443 478.043 107.4 479.921 105.273C480.859 104.201 481.642 103.356 482.197 102.785C482.454 102.475 482.736 102.187 483.042 101.925Z" fill="#455A64"/>
<path d="M450.674 72.5303C450.887 72.8978 451.075 73.2793 451.237 73.6723C451.573 74.4076 452.019 75.487 452.614 76.8011C453.748 79.4762 455.25 83.2152 456.791 87.3843C458.332 91.5535 459.622 95.3628 460.506 98.1396C460.952 99.5241 461.288 100.65 461.523 101.433C461.659 101.833 461.764 102.244 461.836 102.661C461.643 102.282 461.486 101.887 461.367 101.48L460.232 98.2257C459.286 95.4801 457.948 91.6864 456.407 87.5251C454.866 83.3638 453.412 79.617 452.348 76.9106C451.832 75.6043 451.409 74.564 451.088 73.6958C450.911 73.3222 450.772 72.9317 450.674 72.5303Z" fill="#455A64"/>
<path d="M41.582 128.027C41.582 128.027 50.3975 164.118 89.844 155.85C89.8205 155.85 78.3847 119.297 41.582 128.027Z" fill="#263238"/>
<path d="M60.6211 182.687C60.6211 182.687 78.7291 209.689 108.648 191.018C108.648 191.018 88.2485 164.43 60.6211 182.687Z" fill="#263238"/>
<path d="M89.4688 223.878C89.4688 223.878 115.892 246.351 141.196 218.504C141.196 218.504 112.544 197.119 89.4688 223.878Z" fill="#263238"/>
<path d="M117.456 136.553C117.456 136.553 88.1542 150.632 102.375 182.898C102.367 182.898 131.59 166.495 117.456 136.553Z" fill="#263238"/>
<path d="M123.807 175.46C123.807 175.46 109.196 195.187 130.972 212.137C130.972 212.137 144.661 190.862 123.807 175.46Z" fill="#263238"/>
<path d="M56.0372 85.8193C56.0372 85.8193 52.6737 115.074 84.2747 119.759C84.2747 119.759 85.8079 89.4409 56.0372 85.8193Z" fill="#263238"/>
<path d="M101.358 56.2129C101.358 56.2129 75.7954 66.89 86.8948 96.8875C86.8948 96.8484 112.504 84.0437 101.358 56.2129Z" fill="#263238"/>
<path d="M116.783 98.96C116.783 98.96 82.9371 102.824 85.9173 139.635C85.9173 139.65 120.483 133.463 116.783 98.96Z" fill="#263238"/>
<path d="M172.359 230.026L171.897 229.94L170.559 229.643C169.386 229.369 167.65 229.002 165.452 228.352C159.224 226.618 153.16 224.344 147.328 221.555C143.29 219.647 139.371 217.494 135.595 215.11C131.248 212.393 127.1 209.372 123.181 206.067C118.838 202.428 114.782 198.458 111.049 194.194L108.202 190.76C107.279 189.579 106.403 188.351 105.488 187.138C105.034 186.528 104.581 185.91 104.119 185.3L102.86 183.384C102.031 182.085 101.147 180.802 100.341 179.473C98.7767 176.75 97.2123 174.107 95.9216 171.338C94.5137 168.639 93.4029 165.862 92.2453 163.14C84.0824 142.846 82.0324 120.608 86.3475 99.1637C86.8168 96.9266 87.2939 95.2136 87.5677 94.0403C87.7163 93.4692 87.8258 93.0234 87.9041 92.7105C87.9823 92.3976 88.037 92.2646 88.037 92.2646C88.037 92.2646 88.037 92.4211 87.9432 92.7262C87.8493 93.0312 87.7789 93.5084 87.6459 94.0559C87.3956 95.237 86.9419 96.9579 86.4961 99.195C85.3025 105.533 84.625 111.958 84.4702 118.406C84.2452 133.658 87.0144 148.806 92.6207 162.991C93.7706 165.69 94.8813 168.467 96.2893 171.158C97.5643 173.911 99.16 176.547 100.685 179.261C101.467 180.591 102.367 181.866 103.196 183.172L104.455 185.097L105.817 186.927C106.724 188.139 107.6 189.367 108.515 190.541L111.355 193.959C118.448 202.063 126.673 209.102 135.775 214.859C145.004 220.693 155.01 225.194 165.499 228.227C167.681 228.9 169.41 229.291 170.583 229.588L171.905 229.932L172.359 230.026Z" fill="#263238"/>
<path d="M126.975 191.361C127.061 191.615 127.121 191.877 127.155 192.144C127.257 192.754 127.374 193.489 127.515 194.357C127.812 196.227 128.25 198.808 128.798 201.647C129.345 204.487 129.924 207.037 130.362 208.883C130.558 209.735 130.722 210.447 130.863 211.073C130.94 211.327 130.985 211.59 130.996 211.855C130.869 211.606 130.772 211.344 130.706 211.073C130.55 210.572 130.331 209.829 130.081 208.914C129.58 207.084 128.97 204.534 128.407 201.686C127.844 198.839 127.468 196.211 127.241 194.357C127.124 193.419 127.046 192.652 127.007 192.12C126.966 191.869 126.956 191.615 126.975 191.361Z" fill="#455A64"/>
<path d="M119.803 220.663C120.055 220.561 120.317 220.485 120.585 220.436C121.101 220.319 121.868 220.163 122.806 219.983C124.692 219.631 127.312 219.201 130.222 218.872C133.131 218.544 135.775 218.332 137.692 218.246C138.654 218.199 139.428 218.168 139.96 218.168C140.238 218.131 140.519 218.131 140.797 218.168C140.529 218.24 140.253 218.28 139.976 218.285L137.715 218.489C135.807 218.653 133.171 218.903 130.269 219.271C127.367 219.639 124.793 219.983 122.853 220.264L120.608 220.585C120.344 220.646 120.074 220.672 119.803 220.663Z" fill="#455A64"/>
<path d="M84.165 184.854C84.501 184.842 84.8372 184.871 85.1663 184.94C85.8077 185.018 86.7307 185.151 87.8649 185.339C90.1489 185.715 93.2777 186.325 96.7038 187.154C100.13 187.983 103.188 188.875 105.386 189.586C106.481 189.938 107.365 190.243 107.975 190.462C108.295 190.558 108.605 190.686 108.898 190.846C108.564 190.807 108.236 190.728 107.921 190.611L105.3 189.829C103.087 189.195 100.02 188.351 96.6021 187.521C93.1838 186.692 90.0785 186.043 87.8179 185.589L85.1428 185.065C84.811 185.025 84.4837 184.955 84.165 184.854Z" fill="#455A64"/>
<path d="M110.033 157.188C109.907 157.524 109.749 157.849 109.564 158.157C109.235 158.768 108.782 159.659 108.242 160.778C106.843 163.677 105.692 166.689 104.8 169.781C103.917 172.876 103.292 176.039 102.931 179.238C102.798 180.466 102.704 181.467 102.665 182.155C102.659 182.516 102.617 182.875 102.54 183.227C102.495 182.869 102.482 182.508 102.5 182.148C102.5 181.451 102.54 180.45 102.641 179.214C102.923 175.982 103.515 172.783 104.409 169.664C105.304 166.548 106.502 163.528 107.984 160.645C108.555 159.542 109.047 158.666 109.423 158.079C109.592 157.76 109.797 157.461 110.033 157.188Z" fill="#455A64"/>
<path d="M70.7812 140.362C71.0787 140.471 71.3644 140.61 71.6338 140.777C72.1736 141.066 72.9401 141.512 73.8788 142.091C76.3038 143.602 78.634 145.261 80.856 147.058C83.0752 148.858 85.1808 150.794 87.1606 152.854C87.9428 153.636 88.5138 154.301 88.9127 154.77C89.134 155.011 89.3305 155.273 89.4994 155.553C89.2402 155.364 89.004 155.147 88.7954 154.903L86.9494 153.05C85.385 151.485 83.1792 149.467 80.5901 147.363C78.001 145.259 75.5292 143.53 73.7145 142.326L71.5478 140.902C71.2719 140.753 71.0146 140.572 70.7812 140.362Z" fill="#455A64"/>
<path d="M107.733 113.634C107.453 113.987 107.147 114.319 106.818 114.627L104.244 117.248C102.093 119.461 99.1679 122.59 96.1017 126.18C93.0355 129.771 90.4229 133.158 88.5691 135.645L86.3946 138.594C86.1452 138.966 85.8681 139.319 85.5654 139.65C85.7677 139.249 86.0004 138.865 86.2616 138.5C86.7309 137.773 87.4427 136.732 88.3344 135.473C90.1335 132.939 92.7226 129.52 95.7967 125.914C98.8707 122.308 101.812 119.242 104.041 117.044C105.152 115.957 106.059 115.089 106.708 114.51C107.028 114.194 107.371 113.901 107.733 113.634Z" fill="#455A64"/>
<path d="M66.9727 95.3232C67.2761 95.5594 67.5587 95.821 67.8174 96.1054C68.3415 96.6452 69.0768 97.443 69.9607 98.4521C72.2752 101.097 74.4526 103.859 76.4843 106.728C78.8309 110.068 80.8333 113.228 82.163 115.559C82.8279 116.724 83.3442 117.679 83.7275 118.351C83.9252 118.689 84.0902 119.046 84.2202 119.415C83.9831 119.104 83.7713 118.774 83.5867 118.43L81.9518 115.707C80.5595 113.416 78.5727 110.295 76.1948 106.962C73.8169 103.63 71.5016 100.744 69.7808 98.6867C68.9986 97.7011 68.2711 96.8876 67.7392 96.2619C67.4513 95.9769 67.1943 95.6623 66.9727 95.3232Z" fill="#455A64"/>
<path d="M97.5725 67.5469C97.4738 67.9351 97.343 68.3145 97.1814 68.6811C96.8763 69.4633 96.4774 70.488 95.9924 71.716C94.9912 74.2738 93.6458 77.8172 92.1596 81.7517C90.6734 85.6862 89.4375 89.2687 88.5145 91.8656C88.0765 93.1093 87.7323 94.1418 87.4429 94.9396C87.3309 95.3235 87.1816 95.6956 86.9971 96.0504C87.0611 95.6571 87.1579 95.2698 87.2865 94.8927C87.4977 94.1105 87.8262 93.0858 88.2408 91.7639C89.0777 89.1435 90.2901 85.5063 91.7529 81.5952C93.2156 77.6842 94.6314 74.133 95.703 71.5987C96.2427 70.3315 96.6886 69.3146 97.0093 68.6107C97.1632 68.2392 97.3518 67.883 97.5725 67.5469Z" fill="#455A64"/>
<path d="M172.32 104.382C178.022 105.125 178.867 110.968 180.979 115.872C183.091 120.777 187.135 125.141 190.248 129.529C191.89 131.876 194.159 133.933 194.722 136.687C195.34 139.565 194.026 142.545 193.408 145.479C192.79 148.412 193.228 152.002 196.044 153.301C195.728 153.67 195.33 153.96 194.882 154.149C194.434 154.338 193.948 154.42 193.463 154.388C193.463 155.741 192.156 156.907 190.733 157.298C189.298 157.583 187.82 157.567 186.392 157.251C186.775 158.15 185.961 159.237 184.952 159.597C183.928 159.877 182.848 159.877 181.824 159.597C180.807 159.309 179.742 159.232 178.695 159.37C176.348 159.879 174.979 162.499 172.633 162.828C169.41 163.297 167.095 159.175 163.911 159.895C162.417 160.231 161.424 161.537 160.196 162.429C158.968 163.321 156.895 163.094 156.285 161.811C154.579 163.962 151.943 166.05 149.167 166.621C149.365 166.151 149.42 165.633 149.324 165.132C149.228 164.63 148.985 164.169 148.627 163.806C147.104 165.049 145.275 165.859 143.331 166.152C143.915 165.616 144.376 164.959 144.681 164.227C144.986 163.495 145.129 162.705 145.099 161.913C144.445 162.426 143.682 162.784 142.869 162.959C142.056 163.134 141.213 163.121 140.406 162.922C143.269 161.287 143.535 157.485 142.533 154.63C141.532 151.775 139.577 149.217 139.201 146.206C138.787 142.929 142.635 138.783 141.884 135.568C140.727 130.609 140.813 127.59 141.016 122.959C141.149 119.932 142.487 117.241 143.816 114.417C145.373 110.92 148.04 108.033 151.404 106.204C154.431 104.499 158.795 102.934 162.261 102.856C168.44 102.723 170.951 102.528 175.84 105.797" fill="#263238"/>
<path d="M153.281 144.759C151.252 140.819 149.569 136.71 148.252 132.478C146.931 128.227 146.689 123.713 147.548 119.345C147.696 118.696 149.112 114.245 149.785 114.222C150.262 114.222 149.566 118.266 149.863 118.649C152.671 122.263 153.93 126.901 154.173 131.469C154.37 135.921 154.071 140.381 153.281 144.767" fill="#263238"/>
<path d="M180.299 182.226C173.47 183.008 157.044 175.828 156.129 169.022L150.591 128.066C148.76 117.115 153.602 106.947 164.608 105.382L165.633 105.296C170.608 104.896 175.552 106.386 179.479 109.468C183.406 112.549 186.028 116.998 186.822 121.926C188.387 131.43 189.951 141.942 190.288 147.082C191.007 157.712 180.518 160.215 180.518 160.215C180.518 160.215 180.784 162.671 181.167 165.776C182.035 172.753 180.925 180.403 180.299 182.202V182.226Z" fill="#FFBE9D"/>
<path d="M180.517 160.216C175.608 160.597 170.692 159.562 166.352 157.235C166.352 157.235 170.325 164.956 180.846 163.149L180.517 160.216Z" fill="#EB996E"/>
<path d="M182.864 131.172C182.899 131.566 182.779 131.958 182.529 132.265C182.28 132.572 181.92 132.769 181.527 132.815C181.335 132.847 181.138 132.84 180.949 132.794C180.759 132.748 180.581 132.665 180.425 132.549C180.269 132.433 180.138 132.286 180.039 132.118C179.941 131.95 179.877 131.764 179.853 131.571C179.817 131.177 179.938 130.784 180.187 130.478C180.437 130.171 180.797 129.974 181.19 129.928C181.382 129.895 181.579 129.901 181.769 129.946C181.959 129.992 182.137 130.075 182.294 130.191C182.45 130.308 182.582 130.454 182.68 130.623C182.778 130.792 182.841 130.978 182.864 131.172Z" fill="#263238"/>
<path d="M184.937 126.792C184.765 127.003 183.553 126.244 181.918 126.377C180.283 126.51 179.157 127.425 178.961 127.238C178.766 127.05 179.031 126.784 179.524 126.369C180.19 125.82 181.01 125.492 181.871 125.431C182.719 125.358 183.569 125.558 184.296 126.002C184.828 126.346 185.023 126.69 184.937 126.792Z" fill="#263238"/>
<path d="M167.517 132.369C167.542 132.762 167.419 133.15 167.171 133.456C166.923 133.762 166.569 133.963 166.179 134.019C165.987 134.05 165.791 134.042 165.602 133.996C165.413 133.95 165.236 133.866 165.08 133.751C164.924 133.635 164.792 133.489 164.694 133.321C164.595 133.154 164.531 132.968 164.505 132.775C164.48 132.382 164.603 131.994 164.851 131.688C165.099 131.382 165.453 131.181 165.843 131.125C166.035 131.095 166.23 131.104 166.419 131.15C166.607 131.197 166.785 131.28 166.94 131.396C167.096 131.512 167.227 131.657 167.326 131.824C167.425 131.991 167.49 132.176 167.517 132.369Z" fill="#263238"/>
<path d="M168.964 128.449C168.792 128.661 167.572 127.91 165.945 128.043C164.318 128.176 163.176 129.091 162.988 128.903C162.8 128.715 163.051 128.449 163.544 128.027C164.209 127.478 165.03 127.153 165.89 127.096C166.741 127.022 167.594 127.222 168.323 127.667C168.855 128.011 169.082 128.355 168.964 128.449Z" fill="#263238"/>
<path d="M175.832 140.528C176.67 140.187 177.548 139.955 178.445 139.839C178.859 139.761 179.227 139.644 179.289 139.354C179.293 138.921 179.162 138.497 178.914 138.142L177.428 135.068C175.355 130.687 173.814 127.066 173.994 126.988C174.174 126.909 175.996 130.39 178.069 134.771L179.508 137.899C179.81 138.382 179.932 138.955 179.852 139.519C179.804 139.67 179.722 139.809 179.612 139.924C179.503 140.039 179.368 140.128 179.219 140.183C178.991 140.263 178.755 140.315 178.515 140.34C177.632 140.515 176.731 140.578 175.832 140.528Z" fill="#263238"/>
<path d="M168.299 122.372C168.111 122.802 166.492 122.489 164.56 122.607C162.628 122.724 161.04 123.146 160.813 122.732C160.712 122.536 161.009 122.129 161.658 121.738C162.527 121.266 163.491 120.996 164.478 120.949C165.465 120.902 166.451 121.078 167.361 121.465C168.08 121.785 168.417 122.153 168.299 122.372Z" fill="#263238"/>
<path d="M184.249 123.006C183.944 123.405 182.583 123.147 180.979 123.28C179.375 123.413 178.054 123.811 177.709 123.452C177.553 123.28 177.709 122.888 178.288 122.482C179.065 121.981 179.955 121.684 180.877 121.62C181.799 121.555 182.722 121.725 183.56 122.114C184.155 122.443 184.382 122.81 184.249 123.006Z" fill="#263238"/>
<path d="M152.092 135.866C151.904 135.803 144.622 134.301 145.435 141.536C146.249 148.772 153.351 146.472 153.344 146.23C153.336 145.987 152.092 135.866 152.092 135.866Z" fill="#FFBE9D"/>
<path d="M150.825 143.766C150.825 143.766 150.708 143.868 150.504 143.993C150.218 144.151 149.883 144.196 149.566 144.118C148.783 143.923 148.001 142.78 147.798 141.474C147.713 140.855 147.766 140.224 147.954 139.628C147.995 139.395 148.093 139.175 148.239 138.988C148.385 138.801 148.575 138.653 148.791 138.557C148.931 138.503 149.086 138.499 149.229 138.546C149.371 138.593 149.493 138.688 149.573 138.815C149.699 139.01 149.667 139.159 149.706 139.167C149.746 139.175 149.847 139.026 149.753 138.737C149.695 138.56 149.576 138.411 149.417 138.314C149.201 138.185 148.942 138.145 148.697 138.205C148.407 138.299 148.146 138.465 147.938 138.688C147.73 138.912 147.582 139.184 147.508 139.48C147.273 140.141 147.201 140.849 147.297 141.545C147.508 143 148.408 144.282 149.487 144.47C149.688 144.506 149.895 144.496 150.092 144.441C150.288 144.385 150.469 144.285 150.622 144.149C150.825 143.946 150.848 143.774 150.825 143.766Z" fill="#EB996E"/>
<path d="M180.681 110.498C181.776 109.716 177.803 106.337 174.768 105.383C170.176 103.936 163.387 103.529 159.507 105.156C154.814 107.111 151.13 109.998 149.237 114.691C147.443 119.448 146.949 124.597 147.805 129.608C147.931 131.156 148.472 132.642 149.37 133.91C150.574 135.388 152.639 136.162 152.819 138.376C152.87 139.188 153.234 139.948 153.836 140.496C155.338 141.74 156.793 140.222 157.379 138.806C158.623 135.779 158.388 132.369 158.162 129.107C158.108 126.775 157.669 124.468 156.863 122.278C156.363 121.113 155.659 120.041 155.221 118.852C154.967 118.272 154.843 117.643 154.857 117.009C154.87 116.376 155.021 115.753 155.299 115.184C155.439 114.957 155.602 114.745 155.784 114.55C156.685 113.546 157.838 112.799 159.123 112.387C160.408 111.974 161.78 111.911 163.097 112.204C167.345 113.15 174.572 114.456 176.223 112.853C178.569 110.506 179.062 109.176 179.062 109.176L180.681 110.498Z" fill="#263238"/>
<path d="M171.468 141.927C171.374 141.927 171.358 142.357 171.577 142.967C171.879 143.77 172.426 144.457 173.142 144.93C173.829 145.388 174.596 145.714 175.402 145.892C176.004 146.033 176.396 146.049 176.427 145.955C176.458 145.861 176.13 145.65 175.582 145.384C174.887 145.074 174.218 144.711 173.58 144.297C172.125 143.366 171.694 141.864 171.468 141.927Z" fill="#263238"/>
<path d="M152.326 136.812C152.389 136.937 152.443 137.07 152.506 137.218C152.506 137.234 152.436 137.07 152.326 136.812Z" fill="#4CE7A0"/>
<path d="M149.847 135.669C149.847 135.669 151.059 134.105 152.327 136.78C150.817 133.229 140.781 107.549 168.299 104.162C168.299 104.162 158.357 102.41 152.366 107.353C152.366 107.385 140.179 114.667 149.847 135.669Z" fill="#455A64"/>
<path d="M202.466 265.344L138.505 266.212C138.505 266.212 120.616 258.726 115.704 258.523C110.792 258.319 101.03 258.945 96.5164 266.212C91.8232 273.721 91.2053 286.964 105.574 296.585C119.576 305.971 183.583 314.622 192.399 313.793L208.528 292.111C208.528 292.111 208.7 274.315 208.528 273.463C208.356 272.61 205.649 264.992 205.649 264.992L202.466 265.344Z" fill="#263238"/>
<path d="M164.177 295.38L131.035 307.684L146.139 349C149.996 347.31 150.105 323.046 150.105 323.046L171.663 316.007L164.177 295.38Z" fill="#4CE7A0"/>
<g opacity="0.6">
<path d="M147.227 309.616C146.961 309.263 146.575 309.021 146.142 308.936C145.709 308.851 145.259 308.929 144.88 309.154C144.511 309.407 144.255 309.793 144.166 310.231C144.077 310.669 144.162 311.124 144.403 311.501C144.686 311.876 145.097 312.132 145.559 312.22C146.02 312.308 146.497 312.222 146.898 311.978C147.248 311.675 147.467 311.249 147.509 310.788C147.551 310.327 147.414 309.868 147.125 309.506" fill="white"/>
</g>
<path d="M131.035 307.684L134.383 306.448L147.68 346.599C147.68 346.599 147.555 348.734 146.179 349L131.035 307.684Z" fill="#263238"/>
<path d="M150.559 323.64C150.356 323.703 149.902 322.725 148.885 321.974C147.868 321.223 146.836 320.996 146.844 320.785C146.852 320.574 148.134 320.441 149.339 321.38C150.544 322.318 150.763 323.609 150.559 323.64Z" fill="#263238"/>
<path d="M150.356 328.623C150.176 328.74 149.511 327.997 148.408 327.622C147.305 327.246 146.335 327.379 146.265 327.176C146.195 326.973 147.297 326.394 148.658 326.918C150.019 327.442 150.544 328.553 150.356 328.623Z" fill="#263238"/>
<path d="M146.069 332.98C145.959 332.816 146.851 332.198 148.157 332.276C149.463 332.355 150.238 333.176 150.097 333.324C149.956 333.473 149.158 333.105 148.095 333.027C147.031 332.949 146.163 333.176 146.069 332.98Z" fill="#263238"/>
<path d="M155.299 321.49C155.08 321.49 155.025 320.45 154.516 319.339C154.008 318.228 153.335 317.47 153.468 317.298C153.601 317.125 154.634 317.72 155.197 319.042C155.76 320.364 155.494 321.537 155.299 321.49Z" fill="#263238"/>
<path d="M159.844 318.705C159.757 318.705 159.343 317.985 159.061 316.632C158.924 315.837 158.882 315.028 158.936 314.223C158.969 313.744 159.035 313.269 159.132 312.799C159.178 312.527 159.265 312.263 159.39 312.017C159.484 311.831 159.638 311.683 159.826 311.595C160.015 311.507 160.228 311.485 160.43 311.532C160.607 311.581 160.77 311.671 160.906 311.795C161.042 311.918 161.147 312.072 161.212 312.244C161.308 312.495 161.368 312.758 161.392 313.026C161.543 314.322 161.363 315.636 160.868 316.843C160.328 318.126 159.695 318.728 159.632 318.673C159.57 318.619 159.992 317.891 160.368 316.663C160.584 315.941 160.708 315.195 160.735 314.442C160.746 314 160.723 313.558 160.665 313.12C160.618 312.643 160.485 312.267 160.25 312.228C160.164 312.228 160.133 312.228 160.031 312.353C159.945 312.543 159.881 312.743 159.844 312.948C159.746 313.381 159.673 313.82 159.625 314.262C159.556 315.022 159.556 315.786 159.625 316.546C159.746 317.26 159.819 317.981 159.844 318.705Z" fill="#263238"/>
<path d="M159.453 318.556C159.398 318.502 159.977 317.837 161.252 317.281C161.998 316.97 162.791 316.785 163.598 316.734C164.082 316.711 164.566 316.735 165.046 316.804C165.359 316.815 165.665 316.908 165.932 317.072C166.199 317.237 166.419 317.468 166.571 317.743C166.637 317.927 166.648 318.127 166.602 318.317C166.557 318.508 166.456 318.681 166.313 318.814C166.112 319.012 165.882 319.178 165.632 319.307C165.196 319.546 164.727 319.717 164.24 319.816C163.423 319.988 162.576 319.953 161.776 319.714C160.415 319.299 159.867 318.549 159.93 318.502C160.571 318.779 161.229 319.014 161.901 319.206C162.627 319.343 163.374 319.322 164.091 319.143C164.505 319.043 164.903 318.885 165.272 318.674C165.687 318.447 165.976 318.15 165.875 318.001C165.773 317.852 165.343 317.571 164.928 317.532C164.497 317.457 164.06 317.421 163.622 317.422C162.871 317.436 162.125 317.557 161.408 317.782C160.204 318.165 159.523 318.658 159.453 318.556Z" fill="#263238"/>
<path d="M191.515 290.272L223.585 305.134L205.282 345.128C201.566 343.149 203.365 318.948 203.365 318.948L182.426 310.258L191.515 290.272Z" fill="#4CE7A0"/>
<g opacity="0.6">
<path d="M207.292 305.799C207.584 305.478 207.983 305.273 208.414 305.223C208.845 305.173 209.28 305.28 209.639 305.525C209.978 305.805 210.196 306.205 210.25 306.641C210.304 307.077 210.189 307.518 209.928 307.872C209.617 308.222 209.188 308.444 208.723 308.496C208.258 308.548 207.79 308.426 207.409 308.154C207.087 307.82 206.907 307.374 206.907 306.91C206.907 306.446 207.087 306 207.409 305.666" fill="white"/>
</g>
<path d="M223.586 305.149L220.347 303.647L203.976 342.632C203.976 342.632 203.937 344.776 205.282 345.143L223.586 305.149Z" fill="#263238"/>
<path d="M202.864 319.488C203.068 319.566 203.6 318.627 204.671 317.923C205.743 317.219 206.791 317.141 206.799 316.898C206.807 316.656 205.54 316.46 204.265 317.297C202.99 318.134 202.669 319.488 202.864 319.488Z" fill="#263238"/>
<path d="M202.716 324.502C202.881 324.635 203.6 323.938 204.735 323.657C205.869 323.375 206.823 323.579 206.901 323.383C206.979 323.188 205.939 322.554 204.555 322.937C203.17 323.321 202.497 324.416 202.716 324.502Z" fill="#263238"/>
<path d="M206.628 329.187C206.753 329.022 205.9 328.311 204.602 328.318C203.303 328.326 202.458 329.054 202.584 329.21C202.709 329.367 203.538 329.062 204.609 329.069C205.681 329.077 206.502 329.367 206.628 329.187Z" fill="#263238"/>
<path d="M198.312 317.008C198.531 317.008 198.672 315.983 199.25 314.919C199.829 313.855 200.572 313.143 200.455 312.964C200.338 312.784 199.258 313.3 198.593 314.528C197.928 315.756 198.116 317.031 198.312 317.008Z" fill="#263238"/>
<path d="M194.003 313.879C194.089 313.918 194.558 313.206 194.91 311.877C195.114 311.095 195.222 310.291 195.231 309.483C195.232 309.005 195.203 308.527 195.145 308.052C195.123 307.769 195.057 307.492 194.949 307.23C194.868 307.039 194.726 306.88 194.545 306.778C194.363 306.676 194.153 306.637 193.948 306.667C193.768 306.703 193.598 306.781 193.453 306.893C193.308 307.006 193.191 307.151 193.111 307.316C192.996 307.565 192.917 307.828 192.876 308.099C192.782 308.573 192.732 309.055 192.728 309.538C192.726 310.353 192.85 311.163 193.095 311.939C193.258 312.675 193.636 313.345 194.182 313.864C194.292 313.801 193.885 313.081 193.611 311.799C193.452 311.061 193.386 310.307 193.416 309.554C193.44 309.112 193.498 308.673 193.588 308.239C193.674 307.77 193.838 307.403 194.073 307.379C194.167 307.379 194.198 307.379 194.276 307.528C194.351 307.721 194.399 307.924 194.417 308.13C194.485 308.573 194.526 309.02 194.542 309.468C194.562 310.229 194.512 310.991 194.394 311.744C194.218 312.447 194.087 313.16 194.003 313.879Z" fill="#263238"/>
<path d="M194.402 313.753C194.464 313.698 193.94 312.971 192.712 312.337C191.978 311.962 191.184 311.716 190.366 311.61C189.886 311.547 189.401 311.531 188.918 311.563C188.613 311.552 188.31 311.619 188.037 311.755C187.764 311.892 187.529 312.095 187.354 312.345C187.277 312.525 187.252 312.724 187.282 312.918C187.313 313.111 187.397 313.293 187.526 313.44C187.712 313.651 187.928 313.833 188.168 313.98C188.583 314.256 189.04 314.464 189.521 314.598C190.319 314.833 191.163 314.865 191.977 314.692C193.377 314.387 193.979 313.675 193.917 313.628C193.253 313.85 192.577 314.03 191.891 314.168C191.161 314.252 190.421 314.175 189.724 313.941C189.319 313.808 188.935 313.618 188.582 313.378C188.183 313.12 187.917 312.799 188.035 312.666C188.152 312.533 188.598 312.275 189.005 312.259C189.442 312.22 189.881 312.22 190.319 312.259C191.068 312.328 191.803 312.505 192.501 312.783C193.69 313.307 194.324 313.847 194.402 313.753Z" fill="#263238"/>
<path d="M205.649 264.999C205.649 264.999 233.269 254.682 243.438 256.019C249.124 256.801 258.01 261.103 258.691 268.394C259.371 275.684 257.588 285.422 247.74 290.17C237.892 294.918 198.68 312.518 189.364 315.201C180.048 317.884 156.801 324.258 156.801 324.258L148.001 299.15C148.001 299.15 196.161 282.473 198.703 280.604C201.246 278.734 207.683 276.2 207.683 276.2L205.649 264.999Z" fill="#263238"/>
<path d="M109.634 268.425L109.829 268.37L110.385 268.206C110.87 268.057 111.589 267.846 112.536 267.619C113.673 267.341 114.828 267.139 115.993 267.017C117.539 266.876 119.094 266.876 120.639 267.017C122.515 267.172 124.369 267.526 126.17 268.073C127.171 268.371 128.147 268.75 129.087 269.207L132.091 270.678C136.229 272.649 140.836 274.675 145.756 276.614C155.596 280.525 165.045 282.434 171.78 283.959C175.159 284.742 177.897 285.32 179.774 285.774L181.949 286.282L182.512 286.415H182.707L182.519 286.353L181.956 286.196C181.471 286.063 180.744 285.86 179.805 285.625C177.928 285.148 175.206 284.499 171.827 283.725C165.1 282.16 155.674 280.236 145.865 276.309C140.953 274.37 136.346 272.359 132.208 270.396L129.189 268.98C128.233 268.522 127.242 268.143 126.224 267.846C124.408 267.303 122.538 266.957 120.647 266.813C119.086 266.67 117.515 266.67 115.954 266.813C114.782 266.95 113.622 267.17 112.481 267.471C111.542 267.713 110.823 267.94 110.346 268.104L109.798 268.307C109.739 268.34 109.684 268.38 109.634 268.425Z" fill="#455A64"/>
<path d="M111.081 264.779C111.081 264.826 111.926 264.678 113.279 264.529C115.038 264.343 116.808 264.293 118.575 264.381C120.345 264.474 122.105 264.707 123.839 265.077C125.169 265.358 125.982 265.593 125.99 265.546C125.816 265.452 125.633 265.379 125.442 265.327C124.929 265.149 124.407 264.997 123.878 264.873C120.401 264.004 116.788 263.819 113.24 264.326C112.567 264.42 112.02 264.521 111.676 264.615C111.472 264.647 111.272 264.702 111.081 264.779Z" fill="#455A64"/>
<path d="M217.273 272.305C217.273 272.351 218.056 271.757 219.393 270.936C222.849 268.796 226.726 267.427 230.759 266.923C232.323 266.735 233.277 266.712 233.27 266.657C233.043 266.634 232.815 266.634 232.589 266.657C231.97 266.654 231.351 266.683 230.735 266.743C226.643 267.138 222.709 268.526 219.276 270.787C218.627 271.225 218.11 271.569 217.774 271.882C217.592 272.004 217.424 272.146 217.273 272.305Z" fill="#455A64"/>
<path d="M203.412 309.827L203.193 309.913L202.567 310.179C202.012 310.398 201.206 310.781 200.127 311.196C197.976 312.048 194.792 313.222 190.741 314.559C182.582 317.226 170.849 320.621 156.816 324.157L156.981 324.243C154.36 316.984 151.505 308.966 148.439 300.542L148.353 300.73L158.913 296.389L217.429 272.305C219.815 269.786 222.005 267.564 224.062 265.765C225.801 264.227 227.658 262.828 229.616 261.581C230.848 260.806 232.12 260.096 233.425 259.453L234.45 258.976L234.794 258.804L234.442 258.952L233.402 259.406C232.084 260.027 230.802 260.722 229.561 261.487C227.587 262.723 225.714 264.115 223.961 265.648C221.888 267.439 219.682 269.653 217.289 272.164C203.029 278.015 182.089 286.603 158.741 296.154L148.165 300.503L148.032 300.558L148.079 300.691C151.13 309.115 154.024 317.117 156.644 324.384L156.683 324.493H156.809C170.841 320.926 182.559 317.492 190.709 314.786C194.785 313.417 197.96 312.228 200.096 311.344C201.167 310.922 201.973 310.523 202.521 310.288L203.138 309.999L203.412 309.827Z" fill="#455A64"/>
<path d="M135.134 176.97C135.134 176.97 127.187 181.553 125.575 186.935C124.59 190.205 117.174 232.013 116.001 240.258C114.828 248.502 117.3 254.611 120.82 257.349C124.339 260.087 134.993 263.724 134.993 263.724L149.988 268.581L154.282 257.631L140.015 237.129L141.392 223.315L135.134 176.97Z" fill="#4CE7A0"/>
<path d="M150.77 169.75L155.729 166.09C155.729 166.09 162.19 172.699 169.613 171.917C177.036 171.135 181.432 165.456 181.432 165.456L203.569 169.969C205.055 170.267 207.761 171.205 210.35 174.905C213.245 179.035 226.941 197.339 226.941 197.339H236.531C237.828 197.339 239.1 197.693 240.211 198.363C241.322 199.033 242.229 199.993 242.835 201.14C244.47 204.269 246.433 208.43 246.246 210.159C245.917 213.077 246.48 221.11 242.569 223.597C241.326 224.379 236.875 226.773 233.433 226.617C228.341 226.374 222.428 223.722 219.025 221.344C216.139 219.326 209.435 212.357 206.854 209.611V209.651L205.196 267.721L147.18 266.094L135.134 176.97C135.134 176.97 150.183 169.75 150.77 169.75Z" fill="#4CE7A0"/>
<path d="M207.058 185.309C206.979 185.309 206.831 192.505 206.721 201.383C206.612 210.261 206.596 217.457 206.682 217.457C206.768 217.457 206.917 210.269 207.019 201.383C207.12 192.497 207.144 185.309 207.058 185.309Z" fill="#263238"/>
<path d="M128.109 232.248C128.109 232.248 128.602 232.327 129.478 232.491C130.714 232.738 131.919 233.124 133.069 233.641C134.775 234.405 136.383 235.374 137.856 236.527C139.664 237.949 141.352 239.519 142.901 241.22C144.559 243.011 146.077 244.787 147.5 246.359C148.746 247.769 150.065 249.114 151.45 250.388C152.387 251.236 153.38 252.02 154.423 252.734C154.79 253 155.095 253.172 155.291 253.297C155.389 253.366 155.494 253.423 155.604 253.47C155.521 253.383 155.426 253.309 155.322 253.25C155.135 253.102 154.845 252.914 154.493 252.64C153.479 251.884 152.51 251.069 151.591 250.2C150.426 249.113 149.112 247.728 147.68 246.148C146.249 244.568 144.762 242.785 143.096 240.986C141.534 239.278 139.828 237.708 137.996 236.292C136.501 235.138 134.866 234.177 133.131 233.429C131.962 232.926 130.735 232.569 129.478 232.366C129.137 232.307 128.792 232.268 128.446 232.248C128.334 232.236 128.221 232.236 128.109 232.248Z" fill="#263238"/>
<path d="M126.796 228.314C126.796 228.368 127.672 228.494 129.056 228.877C132.681 229.874 135.97 231.831 138.576 234.54C139.577 235.573 140.14 236.292 140.14 236.261C140.053 236.069 139.939 235.89 139.804 235.729C139.474 235.26 139.113 234.813 138.724 234.391C136.169 231.564 132.822 229.572 129.119 228.674C128.564 228.531 127.999 228.426 127.429 228.361C127.22 228.324 127.008 228.308 126.796 228.314Z" fill="#263238"/>
<g opacity="0.3">
<path d="M234.786 218.121C231.712 218.958 228.02 214.539 225.227 211.77C223.78 210.331 222.271 208.797 221.739 206.826C221.355 205.168 221.522 203.43 222.216 201.875C222.735 200.474 223.421 199.14 224.257 197.901C224.007 200.287 223.413 203.948 224.218 206.944C224.891 209.439 226.471 211.433 228.129 213.319C229.788 215.204 232.04 217.41 234.762 218.121" fill="black"/>
</g>
<path d="M221.677 215.595C221.74 215.595 221.38 214.578 221.091 212.912C220.929 211.937 220.834 210.951 220.809 209.963C220.797 208.754 220.88 207.545 221.059 206.349C221.256 205.157 221.549 203.982 221.935 202.837C222.264 201.903 222.659 200.993 223.116 200.115C223.899 198.621 224.548 197.769 224.501 197.769C224.32 197.939 224.16 198.131 224.024 198.34C223.844 198.565 223.679 198.803 223.531 199.051C223.313 199.369 223.112 199.698 222.929 200.037C222.441 200.91 222.023 201.82 221.677 202.759C221.269 203.916 220.963 205.107 220.762 206.318C220.582 207.532 220.507 208.759 220.535 209.987C220.573 210.988 220.691 211.984 220.887 212.967C220.958 213.389 221.067 213.749 221.153 214.093C221.222 214.374 221.306 214.65 221.403 214.922C221.477 215.153 221.569 215.378 221.677 215.595Z" fill="#263238"/>
<path d="M179.016 167.74C179.016 167.819 179.657 168.217 180.369 168.851C181.081 169.485 181.597 170.087 181.597 170.032C181.347 169.482 180.986 168.989 180.537 168.585C180.087 168.181 179.558 167.875 178.984 167.686L179.016 167.74Z" fill="#263238"/>
<path d="M172.992 171.213C172.929 171.275 173.508 171.901 173.978 172.824C174.447 173.747 174.627 174.584 174.721 174.576C174.754 173.914 174.588 173.257 174.244 172.691C173.99 172.081 173.552 171.564 172.992 171.213Z" fill="#263238"/>
<path d="M162.637 174.85C162.91 174.295 163.132 173.716 163.302 173.121C163.56 172.557 163.756 171.967 163.888 171.361C163.156 172.386 162.723 173.594 162.637 174.85Z" fill="#263238"/>
<path d="M155.979 171.706C156.066 171.706 156.292 170.712 156.949 169.641C157.606 168.569 158.389 167.897 158.326 167.826C157.63 168.208 157.064 168.788 156.699 169.492C156.25 170.145 156 170.914 155.979 171.706Z" fill="#263238"/>
<path d="M136.871 190.51C136.792 190.51 137.77 198.457 139.069 208.227C140.367 217.996 141.47 225.912 141.556 225.904C141.642 225.897 140.656 217.957 139.358 208.188C138.06 198.418 136.957 190.502 136.871 190.51Z" fill="#263238"/>
<path d="M223.835 203.354C223.806 203.627 223.806 203.902 223.835 204.175C223.853 204.495 223.893 204.814 223.953 205.129C223.992 205.317 224.023 205.512 224.054 205.724C224.086 205.935 224.164 206.146 224.226 206.373C224.505 207.45 224.888 208.498 225.368 209.502C225.966 210.721 226.679 211.882 227.496 212.967C228.333 214.04 229.286 215.018 230.335 215.884C231.2 216.586 232.158 217.163 233.183 217.597C233.402 217.691 233.605 217.785 233.808 217.856L234.387 218.02L234.896 218.161C235.052 218.161 235.201 218.2 235.334 218.215C235.592 218.259 235.854 218.282 236.116 218.286C235.127 218.091 234.16 217.797 233.23 217.41C232.242 216.949 231.317 216.366 230.476 215.673C229.451 214.81 228.52 213.839 227.699 212.779C226.894 211.712 226.185 210.576 225.58 209.384C225.1 208.399 224.703 207.376 224.391 206.326C223.929 204.503 223.914 203.346 223.835 203.354Z" fill="#263238"/>
<g opacity="0.3">
<path d="M138.74 269.731C136.276 268.542 135.721 265.351 135.47 262.629C134.735 254.65 133.997 246.674 133.257 238.701C132.912 234.946 132.748 230.668 135.392 227.985C137.809 225.537 141.65 225.388 145.084 225.396C166.32 225.458 185.078 226.084 206.314 226.178L205.235 263.333L138.74 269.731Z" fill="black"/>
</g>
<path d="M215.467 231.88L213.206 274.972C213.162 275.771 212.813 276.524 212.231 277.074C211.649 277.624 210.878 277.93 210.077 277.928L141.447 278.054C140.643 278.055 139.87 277.747 139.288 277.193C138.705 276.64 138.358 275.884 138.318 275.081L135.698 232.717C135.611 230.965 136.863 228.618 138.646 228.587H212.307C212.734 228.582 213.158 228.665 213.553 228.831C213.947 228.996 214.303 229.241 214.6 229.549C214.896 229.858 215.126 230.224 215.275 230.625C215.424 231.026 215.489 231.453 215.467 231.88Z" fill="#E0E0E0"/>
<path d="M215.467 231.881C215.47 231.829 215.47 231.776 215.467 231.724C215.48 231.563 215.48 231.401 215.467 231.239C215.385 230.693 215.161 230.178 214.816 229.747C214.471 229.315 214.018 228.983 213.503 228.783C212.973 228.59 212.408 228.51 211.845 228.549H207.676L181.081 228.502L141.634 228.463H138.834C138.336 228.44 137.843 228.568 137.418 228.83C137.003 229.097 136.646 229.446 136.37 229.855C135.81 230.673 135.51 231.641 135.51 232.632C135.565 233.594 135.627 234.564 135.682 235.534C135.917 239.445 136.167 243.356 136.409 247.4C136.91 255.464 137.426 263.826 137.974 272.36L138.075 273.924C138.122 274.464 138.115 274.98 138.208 275.543C138.319 276.089 138.566 276.599 138.927 277.023C139.289 277.447 139.752 277.772 140.273 277.968C140.791 278.147 141.338 278.222 141.885 278.187H146.578H158.898L182.192 278.132L203.272 278.085H208.137H209.326C209.731 278.091 210.136 278.073 210.539 278.031C211.333 277.922 212.06 277.524 212.581 276.914C213.101 276.304 213.38 275.524 213.362 274.722C213.402 273.94 213.441 273.236 213.48 272.501C213.558 271.03 213.628 269.599 213.699 268.198C214.27 256.989 214.731 247.916 215.044 241.604C215.201 238.475 215.318 236.042 215.396 234.384C215.435 233.562 215.467 232.937 215.482 232.506C215.498 232.076 215.482 231.865 215.482 231.865L215.435 232.506C215.435 232.937 215.373 233.562 215.326 234.384C215.232 236.042 215.091 238.467 214.919 241.604C214.575 247.861 214.082 256.943 213.472 268.152C213.402 269.552 213.323 270.991 213.245 272.454C213.209 273.189 213.17 273.932 213.128 274.683C213.137 275.425 212.882 276.145 212.408 276.717C211.92 277.289 211.238 277.662 210.492 277.765C210.106 277.792 209.72 277.792 209.334 277.765H203.264H182.184H158.89H146.57H141.877C141.368 277.8 140.858 277.733 140.375 277.569C139.9 277.389 139.477 277.092 139.148 276.705C138.818 276.318 138.592 275.854 138.49 275.356C138.404 274.871 138.404 274.307 138.365 273.791L138.263 272.227C137.731 263.677 137.215 255.331 136.699 247.267C136.448 243.238 136.198 239.273 135.917 235.401C135.862 234.431 135.799 233.469 135.744 232.506C135.738 231.577 136.01 230.667 136.527 229.894C136.754 229.503 137.081 229.18 137.474 228.958C137.867 228.735 138.312 228.621 138.764 228.627H141.564H181.003L207.598 228.58H211.767C212.321 228.533 212.878 228.605 213.402 228.791C213.833 228.96 214.219 229.228 214.528 229.573C214.963 230.025 215.252 230.598 215.357 231.216C215.405 231.435 215.442 231.657 215.467 231.881Z" fill="#263238"/>
<path d="M170.998 252.914C170.998 253.714 171.235 254.496 171.68 255.161C172.124 255.826 172.756 256.344 173.494 256.65C174.233 256.956 175.047 257.036 175.831 256.88C176.615 256.724 177.336 256.339 177.902 255.774C178.467 255.208 178.852 254.488 179.008 253.703C179.164 252.919 179.084 252.105 178.778 251.367C178.472 250.628 177.954 249.996 177.289 249.552C176.624 249.107 175.842 248.87 175.042 248.87C173.97 248.872 172.943 249.299 172.185 250.057C171.427 250.815 171 251.842 170.998 252.914Z" fill="white"/>
<path d="M170.998 252.914C171.037 252.914 170.998 252.554 171.186 251.944C171.424 251.079 171.945 250.319 172.664 249.785C173.245 249.349 173.936 249.084 174.66 249.018C175.383 248.953 176.11 249.091 176.76 249.416C177.41 249.74 177.956 250.24 178.338 250.857C178.72 251.475 178.922 252.187 178.922 252.914C178.922 253.487 178.796 254.053 178.553 254.573C178.31 255.092 177.956 255.551 177.516 255.919C177.075 256.286 176.56 256.552 176.005 256.697C175.451 256.843 174.871 256.865 174.307 256.762C173.706 256.655 173.138 256.409 172.649 256.042C171.929 255.508 171.409 254.748 171.17 253.884C171.006 253.273 171.022 252.914 170.983 252.914C170.971 252.999 170.971 253.086 170.983 253.172C170.984 253.422 171.013 253.671 171.069 253.915C171.275 254.826 171.792 255.636 172.531 256.207C173.043 256.602 173.64 256.87 174.276 256.989C175.007 257.132 175.764 257.075 176.466 256.825C177.248 256.55 177.928 256.042 178.414 255.37C178.913 254.696 179.197 253.887 179.229 253.048C179.26 252.21 179.038 251.382 178.591 250.672C178.143 249.963 177.492 249.405 176.722 249.072C175.952 248.739 175.099 248.647 174.276 248.807C173.64 248.926 173.042 249.194 172.531 249.589C171.791 250.163 171.274 250.976 171.069 251.889C171.013 252.133 170.984 252.382 170.983 252.632C170.974 252.726 170.979 252.821 170.998 252.914Z" fill="#263238"/>
<path d="M213.159 236.668C213.072 236.668 212.736 243.903 212.376 252.836C212.017 261.769 211.837 269.02 211.923 269.02C212.009 269.02 212.337 261.785 212.705 252.852C213.072 243.919 213.237 236.668 213.159 236.668Z" fill="#263238"/>
<path d="M233.786 180.451C234.185 180.107 232.433 173.341 232.433 173.341C232.433 173.341 237.087 165.746 237.212 163.297C237.337 160.849 235.374 155.82 235.374 155.82L222.014 152.386C222.014 152.386 217.727 160.356 216.867 163.172C216.006 165.988 218.361 175.562 218.361 175.562L220.621 180.467C220.621 180.467 227.427 185.841 233.786 180.451Z" fill="#FFBE9D"/>
<path d="M237.18 164.759C237.702 163.797 238.172 162.808 238.588 161.795C239.433 159.785 240.473 157.821 238.588 156.695C238.295 156.502 237.964 156.374 237.617 156.32C237.27 156.266 236.916 156.287 236.578 156.382C236.578 156.382 236.867 154.693 235.858 154.035C235.566 153.851 235.234 153.739 234.89 153.709C234.545 153.679 234.199 153.732 233.879 153.863C233.879 153.863 234.192 151.517 232.745 150.476C232.199 150.117 231.564 149.917 230.911 149.897C230.257 149.878 229.612 150.041 229.045 150.367C229.045 150.367 230.195 139.948 230.297 139.416C230.657 137.39 229.914 135.599 227.896 136.1C227.152 136.279 226.746 137.062 225.877 140.456C225.009 143.851 223.617 149.639 223.617 149.639C223.617 149.639 221.27 153.715 220.167 155.897C219.064 158.079 216.866 163.14 216.687 164.501C216.209 167.951 218.251 172.519 218.251 172.519L232.448 173.301C232.448 173.301 236.641 165.745 237.18 164.759Z" fill="#FFBE9D"/>
<path d="M236.296 156.828C235.893 157.322 235.527 157.845 235.201 158.393L234.075 160.106C233.84 160.441 233.636 160.797 233.465 161.169C233.265 161.591 233.207 162.066 233.3 162.523C233.341 162.762 233.445 162.986 233.602 163.172C233.759 163.358 233.963 163.498 234.192 163.579C234.622 163.685 235.076 163.629 235.467 163.422C235.799 163.255 236.116 163.058 236.414 162.835C236.695 162.632 236.953 162.444 237.196 162.257C237.657 161.897 238.017 161.592 238.252 161.373C238.486 161.154 238.619 161.021 238.604 161.005C238.588 160.989 238.017 161.42 237.039 162.092C236.503 162.497 235.936 162.858 235.342 163.172C235.011 163.339 234.631 163.384 234.27 163.297C234.09 163.233 233.93 163.122 233.807 162.974C233.685 162.827 233.604 162.649 233.574 162.46C233.498 162.064 233.548 161.654 233.715 161.287C233.878 160.927 234.072 160.581 234.294 160.254L235.358 158.51C235.717 157.977 236.031 157.414 236.296 156.828Z" fill="#EB996E"/>
<path d="M224.618 158.072C224.746 157.325 224.695 156.558 224.469 155.835C224.342 155.091 224.039 154.388 223.585 153.785C223.507 153.824 223.906 154.732 224.18 155.905C224.453 157.078 224.563 158.072 224.618 158.072Z" fill="#EB996E"/>
<path d="M219.025 161.115C220.334 159.845 221.983 158.983 223.773 158.635C225.557 158.294 227.382 158.225 229.186 158.432C230.625 158.557 232.315 158.933 232.933 160.223C233.551 161.514 232.8 163.274 231.517 164.033C230.17 164.703 228.646 164.936 227.16 164.697C225.687 164.454 224.19 164.394 222.702 164.518" fill="#FFBE9D"/>
<path d="M222.701 164.517C222.701 164.517 223.1 164.517 223.82 164.517C224.839 164.561 225.854 164.658 226.863 164.806C227.571 164.896 228.285 164.925 228.998 164.892C229.83 164.868 230.647 164.662 231.392 164.29C232.228 163.857 232.864 163.117 233.167 162.225C233.331 161.75 233.366 161.24 233.269 160.747C233.15 160.241 232.876 159.784 232.487 159.44C231.701 158.826 230.752 158.456 229.757 158.377C228.861 158.274 227.96 158.219 227.058 158.212C225.526 158.184 223.999 158.416 222.545 158.901C221.564 159.231 220.646 159.725 219.831 160.363C219.615 160.537 219.408 160.722 219.213 160.919C219.08 161.06 219.017 161.138 219.025 161.146C219.033 161.153 219.322 160.872 219.901 160.449C220.728 159.861 221.641 159.404 222.608 159.096C224.049 158.657 225.552 158.451 227.058 158.486C227.947 158.502 228.835 158.562 229.718 158.666C230.651 158.741 231.543 159.086 232.283 159.659C232.628 159.965 232.871 160.369 232.98 160.817C233.066 161.258 233.034 161.714 232.886 162.139C232.608 162.96 232.026 163.644 231.259 164.048C230.552 164.409 229.776 164.614 228.982 164.65C228.283 164.684 227.583 164.666 226.886 164.595C225.87 164.461 224.845 164.395 223.82 164.4C223.542 164.409 223.265 164.436 222.991 164.478C222.795 164.478 222.701 164.501 222.701 164.517Z" fill="#EB996E"/>
<path d="M236.194 156.992C234.7 159.261 233.378 161.756 232.119 164.165C231.819 164.899 231.328 165.54 230.695 166.019C230.156 166.347 228.818 165.745 228.224 165.542L232.322 156.21" fill="#FFBE9D"/>
<path d="M232.323 156.21C232.183 156.431 232.062 156.664 231.963 156.906L231.055 158.862C230.273 160.52 229.249 162.851 228.091 165.479L228.021 165.628L228.177 165.682C228.645 165.87 229.123 166.032 229.608 166.167C229.813 166.219 230.023 166.25 230.234 166.261C230.348 166.267 230.461 166.254 230.57 166.222C230.682 166.196 230.786 166.145 230.876 166.074C231.206 165.835 231.488 165.535 231.705 165.19C232.127 164.525 232.424 163.86 232.761 163.25C233.402 162.006 233.989 160.903 234.505 159.972C235.021 159.042 235.444 158.306 235.749 157.798C235.916 157.548 236.065 157.287 236.195 157.016C235.987 157.258 235.803 157.52 235.647 157.798C235.318 158.291 234.865 159.01 234.325 159.925C233.785 160.841 233.175 161.944 232.518 163.179C232.174 163.79 231.861 164.47 231.462 165.088C231.255 165.397 230.989 165.663 230.68 165.87C230.522 165.953 230.347 165.999 230.169 166.008C229.991 166.016 229.813 165.985 229.647 165.917C229.17 165.783 228.7 165.624 228.24 165.44L228.326 165.643C229.483 162.999 230.492 160.661 231.204 158.979L232.025 156.984C232.148 156.736 232.247 156.477 232.323 156.21Z" fill="#EB996E"/>
<path d="M233.433 153.433C232.113 156.739 230.794 160.045 229.475 163.351C229.232 164.07 228.873 164.744 228.411 165.346C228.173 165.641 227.868 165.874 227.52 166.025C227.173 166.176 226.794 166.241 226.416 166.214C225.911 166.082 225.464 165.784 225.146 165.369C224.829 164.954 224.659 164.445 224.664 163.922C224.696 162.878 224.946 161.852 225.399 160.911C226.587 157.897 227.536 154.796 228.239 151.634" fill="#FFBE9D"/>
<path d="M228.239 151.634C228.192 151.728 228.158 151.828 228.138 151.931L227.903 152.807C227.7 153.589 227.402 154.669 226.988 156.014C226.573 157.36 226.026 158.947 225.345 160.707C224.929 161.607 224.649 162.564 224.516 163.547C224.479 164.086 224.584 164.625 224.821 165.111C225.054 165.637 225.48 166.054 226.01 166.277C226.28 166.374 226.568 166.413 226.854 166.39C227.14 166.367 227.417 166.283 227.668 166.144C228.146 165.884 228.548 165.503 228.834 165.041C229.31 164.18 229.71 163.28 230.031 162.35C230.711 160.621 231.321 159.065 231.838 157.735L233.034 154.606C233.159 154.262 233.261 153.98 233.339 153.754C233.383 153.656 233.414 153.554 233.433 153.448C233.37 153.534 233.32 153.629 233.285 153.73C233.191 153.957 233.066 154.231 232.925 154.567L231.658 157.633C231.126 158.955 230.492 160.504 229.796 162.225C229.473 163.135 229.075 164.016 228.607 164.861C228.346 165.277 227.982 165.619 227.551 165.854C227.338 165.976 227.101 166.05 226.857 166.071C226.612 166.093 226.366 166.062 226.135 165.979C225.677 165.78 225.309 165.418 225.103 164.963C224.886 164.518 224.791 164.024 224.829 163.531C224.946 162.578 225.21 161.65 225.611 160.778C226.284 159.033 226.8 157.43 227.176 156.085C227.551 154.739 227.84 153.613 228.013 152.846C228.091 152.455 228.153 152.158 228.192 151.954C228.223 151.85 228.239 151.742 228.239 151.634Z" fill="#EB996E"/>
<path d="M242.53 204.699C242.17 203.385 233.143 176.689 233.143 176.689L218.219 174.905L224.32 197.902C224.32 197.902 223.373 203.745 224.32 207.202C225.266 210.66 232.924 220.07 236.835 217.809C240.746 215.549 242.882 206.013 242.53 204.699Z" fill="#FFBE9D"/>
<path d="M224.289 172.543C224.578 172.578 224.871 172.54 225.142 172.433C225.812 172.224 226.429 171.87 226.946 171.395C227.464 170.921 227.871 170.337 228.138 169.688C228.265 169.428 228.327 169.14 228.317 168.851C227.944 169.722 227.414 170.518 226.753 171.197C226.023 171.796 225.188 172.253 224.289 172.543Z" fill="#EB996E"/>
</svg>
