<svg width="253" height="189" viewBox="0 0 253 189" fill="none" xmlns="http://www.w3.org/2000/svg">
<path d="M252.45 166.198H0V166.324H252.45V166.198Z" fill="#E0E0E0"/>
<path d="M60.4113 171.545H43.376V171.671H60.4113V171.545Z" fill="#E0E0E0"/>
<path d="M39.6701 171.605H29.562V171.732H39.6701V171.605Z" fill="#E0E0E0"/>
<path d="M153.045 168.899H105.186V169.026H153.045V168.899Z" fill="#E0E0E0"/>
<path d="M84.7122 175.125H69.4541V175.251H84.7122V175.125Z" fill="#E0E0E0"/>
<path d="M208.862 170.636H169.142V170.762H208.862V170.636Z" fill="#E0E0E0"/>
<path d="M119.662 143.679H22.1704C21.4067 143.678 20.6747 143.374 20.1351 142.833C19.5955 142.293 19.2925 141.56 19.2925 140.796V3.75129C19.2991 2.99193 19.6051 2.26586 20.144 1.73079C20.6828 1.19572 21.411 0.894856 22.1704 0.893555H119.662C120.426 0.893555 121.159 1.1973 121.7 1.73796C122.241 2.27862 122.545 3.01192 122.545 3.77653V140.796C122.545 141.561 122.241 142.294 121.7 142.835C121.159 143.376 120.426 143.679 119.662 143.679ZM22.1704 0.994535C21.4401 0.995873 20.7403 1.2869 20.2244 1.80375C19.7085 2.3206 19.4187 3.02103 19.4187 3.75129V140.796C19.4187 141.527 19.7085 142.227 20.2244 142.744C20.7403 143.261 21.4401 143.552 22.1704 143.553H119.662C120.392 143.552 121.093 143.261 121.609 142.744C122.126 142.227 122.417 141.527 122.418 140.796V3.75129C122.417 3.02056 122.126 2.32015 121.609 1.80344C121.093 1.28674 120.392 0.99587 119.662 0.994535H22.1704Z" fill="#E0E0E0"/>
<path d="M228.876 143.679H131.38C130.616 143.678 129.883 143.374 129.343 142.833C128.803 142.293 128.498 141.56 128.497 140.796V3.75129C128.505 2.99147 128.812 2.26541 129.352 1.73047C129.891 1.19554 130.62 0.894841 131.38 0.893555H228.876C229.635 0.896182 230.362 1.19763 230.899 1.73256C231.437 2.26749 231.742 2.9928 231.749 3.75129V140.796C231.749 141.559 231.447 142.291 230.908 142.831C230.37 143.372 229.639 143.677 228.876 143.679ZM131.38 0.994535C130.649 0.99587 129.949 1.28674 129.432 1.80344C128.915 2.32015 128.625 3.02056 128.623 3.75129V140.796C128.625 141.527 128.915 142.227 129.432 142.744C129.949 143.261 130.649 143.552 131.38 143.553H228.876C229.607 143.552 230.307 143.261 230.824 142.744C231.341 142.227 231.632 141.527 231.633 140.796V3.75129C231.632 3.02056 231.341 2.32015 230.824 1.80344C230.307 1.28674 229.607 0.99587 228.876 0.994535H131.38Z" fill="#E0E0E0"/>
<path d="M212.674 107.316H199.809V166.198H212.674V107.316Z" fill="#E0E0E0"/>
<path d="M210.23 166.198H212.674V159.245H207.67L210.23 166.198Z" fill="#F0F0F0"/>
<path d="M164.597 107.316H151.732V166.198H164.597V107.316Z" fill="#E0E0E0"/>
<path d="M212.674 107.316H162.462V161.931H212.674V107.316Z" fill="#F0F0F0"/>
<path d="M188.388 135.187V153.242H210.78V135.187H188.388Z" fill="#E0E0E0"/>
<path d="M164.36 135.187V153.242H186.752V135.187H164.36Z" fill="#E0E0E0"/>
<path d="M177.77 137.136H173.337C172.385 137.135 171.443 136.941 170.569 136.564C169.695 136.187 168.907 135.636 168.253 134.944H182.855C182.201 135.636 181.413 136.187 180.538 136.564C179.664 136.941 178.722 137.135 177.77 137.136Z" fill="#F0F0F0"/>
<path d="M202.026 137.136H197.598C196.645 137.135 195.702 136.941 194.827 136.564C193.952 136.188 193.163 135.636 192.508 134.944H207.115C206.46 135.636 205.671 136.187 204.796 136.564C203.921 136.94 202.978 137.135 202.026 137.136Z" fill="#F0F0F0"/>
<path d="M188.388 111.426V129.481H210.78V111.426H188.388Z" fill="#E0E0E0"/>
<path d="M164.355 111.431V129.486H186.747V111.431H164.355Z" fill="#E0E0E0"/>
<path d="M177.77 113.375H173.337C172.386 113.374 171.444 113.18 170.57 112.804C169.696 112.428 168.908 111.879 168.253 111.188H182.855C182.2 111.879 181.411 112.428 180.537 112.804C179.663 113.18 178.722 113.374 177.77 113.375Z" fill="#F0F0F0"/>
<path d="M202.026 113.375H197.598C196.645 113.374 195.703 113.18 194.828 112.805C193.953 112.429 193.164 111.879 192.508 111.188H207.115C206.459 111.878 205.669 112.428 204.795 112.804C203.92 113.179 202.978 113.374 202.026 113.375Z" fill="#F0F0F0"/>
<path d="M164.906 166.198H162.462V159.245H167.471L164.906 166.198Z" fill="#F0F0F0"/>
<path d="M174.882 98.0911C174.882 100.343 176.447 101.908 174.195 101.908C171.943 101.908 166.733 100.343 166.733 98.0911C166.733 97.0105 167.162 95.9741 167.926 95.21C168.69 94.4459 169.727 94.0166 170.807 94.0166C171.888 94.0166 172.924 94.4459 173.689 95.21C174.453 95.9741 174.882 97.0105 174.882 98.0911Z" fill="#E0E0E0"/>
<path d="M181.855 100.035C181.855 102.282 183.42 103.853 181.168 103.853C178.916 103.853 173.686 102.282 173.686 100.035C173.686 98.9548 174.115 97.9185 174.879 97.1543C175.643 96.3902 176.679 95.9609 177.76 95.9609C178.841 95.9609 179.877 96.3902 180.641 97.1543C181.405 97.9185 181.835 98.9548 181.835 100.035H181.855Z" fill="#E0E0E0"/>
<path d="M188.535 98.8441C188.535 101.091 190.1 102.661 187.848 102.661C185.596 102.661 180.386 101.091 180.386 98.8441C180.386 97.7634 180.815 96.7271 181.579 95.9629C182.343 95.1988 183.38 94.7695 184.46 94.7695C185.541 94.7695 186.577 95.1988 187.341 95.9629C188.106 96.7271 188.535 97.7634 188.535 98.8441Z" fill="#E0E0E0"/>
<path d="M164.239 99.3496C164.239 99.3496 164.572 107.297 177.341 107.297C190.11 107.297 190.438 99.3496 190.438 99.3496H164.239Z" fill="#E6E6E6"/>
<path d="M213.209 10.4824H148.466V82.1277H213.209V10.4824Z" fill="#E0E0E0"/>
<path d="M220.136 8.27053H144.275C144.191 8.26986 144.107 8.28596 144.028 8.31788C143.95 8.34981 143.879 8.39694 143.818 8.45654C143.758 8.51615 143.711 8.58707 143.678 8.66519C143.646 8.74332 143.629 8.82712 143.629 8.91175C143.629 9.08315 143.697 9.24753 143.818 9.36873C143.939 9.48993 144.104 9.55802 144.275 9.55802H220.136C220.221 9.55803 220.305 9.54127 220.383 9.50873C220.461 9.47619 220.532 9.42851 220.592 9.36843C220.651 9.30835 220.698 9.23707 220.73 9.15869C220.762 9.08031 220.778 8.99638 220.778 8.91175C220.778 8.74169 220.71 8.57859 220.59 8.45834C220.47 8.33808 220.306 8.27053 220.136 8.27053Z" fill="#E0E0E0"/>
<path d="M215.956 10.4824H149.748V82.1277H215.956V10.4824Z" fill="#E6E6E6"/>
<path d="M213.209 82.127H148.466V87.2315H213.209V82.127Z" fill="#E0E0E0"/>
<path d="M220.53 82.127H154.323V87.2315H220.53V82.127Z" fill="#E6E6E6"/>
<path d="M212.108 78.2749V14.3242L153.596 14.3242V78.2749H212.108Z" fill="#F5F5F5"/>
<path d="M166.88 78.2788L189.454 14.3281H200.107L177.533 78.2788H166.88Z" fill="#FAFAFA"/>
<path d="M179.82 78.2788L202.394 14.3281H206.55L183.976 78.2788H179.82Z" fill="#FAFAFA"/>
<path d="M212.108 78.2788V14.3281H211.619V78.2788H212.108Z" fill="#E0E0E0"/>
<path d="M153.641 7.11914H147.022V68.828H153.641V7.11914Z" fill="#EBEBEB"/>
<path d="M156.216 7.11914H151.061V68.828H156.216V7.11914Z" fill="#E0E0E0"/>
<path d="M160.26 7.11914H153.641V68.828H160.26V7.11914Z" fill="#EBEBEB"/>
<path d="M162.835 7.11914H157.68V68.828H162.835V7.11914Z" fill="#E0E0E0"/>
<path d="M166.879 7.11914H160.26V68.828H166.879V7.11914Z" fill="#EBEBEB"/>
<path d="M209.645 7.11914H205.833V68.828H209.645V7.11914Z" fill="#EBEBEB"/>
<path d="M211.134 7.11914H208.16V68.828H211.134V7.11914Z" fill="#E0E0E0"/>
<path d="M213.457 7.11914H209.645V68.828H213.457V7.11914Z" fill="#EBEBEB"/>
<path d="M214.946 7.11914H211.972V68.828H214.946V7.11914Z" fill="#E0E0E0"/>
<path d="M217.273 7.11914H213.461V68.828H217.273V7.11914Z" fill="#EBEBEB"/>
<path d="M55.7255 26.4609H48.8286V45.2786H55.7255V26.4609Z" fill="#E6E6E6"/>
<path d="M39.4022 49.5869L37.2109 55.5649H39.4022L52.8123 49.5869H39.4022Z" fill="#F0F0F0"/>
<path d="M37.2109 49.5869V55.5649L50.6261 49.5869H37.2109Z" fill="#E0E0E0"/>
<path d="M91.9929 49.5869L89.8066 55.5649H91.9929L105.408 49.5869H91.9929Z" fill="#F0F0F0"/>
<path d="M89.8066 49.5869V55.5649L103.217 49.5869H89.8066Z" fill="#E0E0E0"/>
<path d="M27.3705 49.8682H41.957V45.319H27.3705V49.8682Z" fill="#E0E0E0"/>
<path d="M114.471 45.3193H41.9521V49.8685H114.471V45.3193Z" fill="#F0F0F0"/>
<path d="M67.2122 45.279H50.4243L48.3491 22.4727H65.137L67.2122 45.279Z" fill="#E0E0E0"/>
<path d="M68.0808 45.279H51.298L49.2178 22.4727H66.0057L68.0808 45.279Z" fill="#F0F0F0"/>
<path d="M53.5903 42.7544L51.9746 24.9971H63.7135L65.3292 42.7544H53.5903Z" fill="#FAFAFA"/>
<path d="M74.8564 37.8721C74.8564 37.8721 75.1644 45.279 87.0649 45.279C98.9654 45.279 99.2734 37.8721 99.2734 37.8721H74.8564Z" fill="#E6E6E6"/>
<path d="M62.4864 164.561H44.0929C43.6764 164.57 43.2683 164.444 42.9286 164.203C42.589 163.962 42.3357 163.618 42.2062 163.222C42.0767 162.826 42.0778 162.399 42.2093 162.004C42.3408 161.609 42.5958 161.266 42.9366 161.027L43.2345 161.431C42.9922 161.612 42.813 161.865 42.7221 162.154C42.6313 162.443 42.6335 162.752 42.7283 163.04C42.8232 163.327 43.006 163.578 43.2508 163.755C43.4957 163.933 43.7902 164.03 44.0929 164.031H62.4864C63.6135 164.03 64.694 163.582 65.491 162.785C66.288 161.988 66.7363 160.907 66.7376 159.78V105.347C66.739 104.12 67.2265 102.944 68.0934 102.076C68.9603 101.208 70.1359 100.719 71.3625 100.717H76.8659V101.222H71.3625C70.2698 101.224 69.2226 101.66 68.4504 102.433C67.6782 103.206 67.2439 104.254 67.2425 105.347V159.805C67.2399 161.066 66.7379 162.274 65.8465 163.165C64.9552 164.057 63.747 164.559 62.4864 164.561Z" fill="#E0E0E0"/>
<path d="M123.928 101.757H90.8013V166.197H123.928V101.757Z" fill="#E0E0E0"/>
<path d="M125.175 101.757H122.443V166.197H125.175V101.757Z" fill="#EBEBEB"/>
<path d="M60.1488 106.59L126.018 106.59V101.758L60.1488 101.758V106.59Z" fill="#EBEBEB"/>
<path d="M59.7549 101.757H26.6284V166.197H59.7549V101.757Z" fill="#E0E0E0"/>
<path d="M60.9971 101.757H58.2656V166.197H60.9971V101.757Z" fill="#EBEBEB"/>
<path d="M49.4951 82.5205H80.3647L84.8381 100.747H53.9685L49.4951 82.5205Z" fill="#E0E0E0"/>
<path d="M53.9688 100.748L54.095 101.758H84.9646L84.8434 100.748H53.9688Z" fill="#E0E0E0"/>
<path d="M50.4497 82.5205H81.3193L85.7927 100.747H54.9231L50.4497 82.5205Z" fill="#F0F0F0"/>
<path d="M55.5742 99.9142L51.5098 83.3535H80.6627L84.7271 99.9142H55.5742Z" fill="#FAFAFA"/>
<path d="M62.9663 100.748L63.0875 101.758H97.0824L96.9562 100.748H62.9663Z" fill="#F0F0F0"/>
<path d="M38.9128 97.1622C38.9128 97.1622 34.3687 89.3312 40.6749 83.0957C40.6749 83.0957 42.3158 84.1711 42.2906 85.6202C42.2654 87.0693 40.5336 87.4277 40.9021 88.6496C41.2707 89.8715 42.9217 91.0327 41.8412 92.0274C40.7608 93.022 42.0129 93.9056 41.9422 95.1275C41.8715 96.3493 38.9128 97.1622 38.9128 97.1622Z" fill="#F0F0F0"/>
<path d="M39.2559 97.8801C39.2559 97.8801 41.0988 89.0141 33.1516 85.0859C33.1516 85.0859 31.9298 86.6259 32.4094 87.9841C32.8891 89.3422 34.6512 89.1403 34.6764 90.4025C34.7017 91.6648 33.5152 93.2956 34.8532 93.9015C36.1911 94.5074 35.2773 95.7393 35.7317 96.8703C36.1861 98.0013 39.2559 97.8801 39.2559 97.8801Z" fill="#F0F0F0"/>
<path d="M32.3135 95.916C32.3135 95.916 32.4649 101.758 38.2561 101.758C44.0474 101.758 44.1837 95.916 44.1837 95.916H32.3135Z" fill="#E0E0E0"/>
<path d="M113.976 166.198H112.825L109.528 149.96L108.952 147.118L105.357 129.446H91.5786L84.1111 166.198H82.96L90.5688 128.744C90.5936 128.617 90.6622 128.502 90.7627 128.42C90.8633 128.338 90.9894 128.294 91.1191 128.295H105.817C105.947 128.294 106.073 128.338 106.173 128.42C106.274 128.502 106.342 128.617 106.367 128.744L109.523 144.285L110.103 147.128L113.976 166.198Z" fill="#EBEBEB"/>
<path d="M136.096 166.198H134.94L127.472 129.426H113.699L110.104 147.128L109.528 149.96L106.231 166.198H105.08L108.953 147.118L109.523 144.285L112.684 128.744C112.709 128.617 112.777 128.502 112.878 128.42C112.978 128.338 113.104 128.294 113.234 128.295H127.932C128.062 128.294 128.188 128.339 128.289 128.421C128.391 128.503 128.461 128.617 128.487 128.744L136.096 166.198Z" fill="#EBEBEB"/>
<path d="M102.136 128.861H127.452C129.774 128.859 132.004 127.947 133.662 126.321C135.32 124.695 136.275 122.483 136.323 120.161L137.267 81.6881C137.281 80.8304 137.123 79.9787 136.805 79.1823C136.486 78.386 136.012 77.6609 135.411 77.0493C134.81 76.4376 134.093 75.9516 133.302 75.6194C132.511 75.2872 131.662 75.1155 130.804 75.1143H114.935C113.347 75.1151 111.814 75.7 110.629 76.7576C109.444 77.8152 108.689 79.2718 108.508 80.8499L102.136 128.861Z" fill="#E6E6E6"/>
<path d="M115.94 128.86H88.9636C88.6289 128.86 88.3078 128.727 88.0711 128.491C87.8344 128.254 87.7014 127.933 87.7014 127.598V127.477C87.7014 126.557 88.0668 125.675 88.7173 125.024C89.3678 124.374 90.2501 124.008 91.17 124.008H115.94V128.86Z" fill="#E6E6E6"/>
<path d="M126.225 188.999C180.291 188.999 224.12 186.44 224.12 183.284C224.12 180.127 180.291 177.568 126.225 177.568C72.1592 177.568 28.3301 180.127 28.3301 183.284C28.3301 186.44 72.1592 188.999 126.225 188.999Z" fill="#F5F5F5"/>
<path d="M139.575 59.3725L139.903 59.6502C140.024 59.7563 140.16 59.8572 140.292 59.9582C140.554 60.1652 140.797 60.3722 141.1 60.5692C141.645 60.968 142.225 61.3316 142.806 61.6951C143.977 62.417 145.205 63.0434 146.477 63.5683C147.743 64.1079 149.048 64.5534 150.38 64.9012C150.713 64.9921 151.056 65.0527 151.389 65.1284L151.894 65.2395C152 65.2395 151.894 65.2395 151.894 65.2647C151.825 65.2809 151.76 65.31 151.702 65.3506C151.657 65.396 151.657 65.396 151.677 65.3859C151.777 65.2379 151.855 65.0764 151.909 64.9062C152.089 64.3237 152.199 63.7221 152.238 63.1139C152.298 62.4524 152.318 61.7557 152.313 61.0539C152.313 59.6452 152.202 58.2062 152.091 56.7622C151.98 55.3182 151.803 53.8691 151.617 52.415C151.43 50.9609 151.223 49.5068 151.006 48.0729L152.904 47.6387C153.74 50.5204 154.415 53.4467 154.924 56.4037C155.188 57.9075 155.372 59.4244 155.474 60.9478C155.533 61.734 155.552 62.5227 155.53 63.3108C155.522 64.1807 155.412 65.0468 155.201 65.8908C155.059 66.4305 154.827 66.9425 154.515 67.4055C154.296 67.7211 154.025 67.9962 153.712 68.2184C153.353 68.4751 152.94 68.6476 152.505 68.7233C152.131 68.7864 151.749 68.7864 151.374 68.7233L150.794 68.6274C150.405 68.5617 150.011 68.5112 149.627 68.4254C148.079 68.1179 146.559 67.6822 145.083 67.1228C143.608 66.5566 142.181 65.871 140.817 65.0729C140.135 64.6639 139.469 64.2347 138.822 63.7652C138.499 63.5329 138.181 63.2603 137.863 63.0381C137.707 62.9068 137.55 62.7806 137.394 62.6392C137.237 62.4979 137.091 62.3817 136.889 62.1899L139.575 59.3725Z" fill="#E4897B"/>
<path d="M134.086 57.0764C139.64 56.3241 144.103 60.8025 144.103 60.8025L139.024 68.6386C139.024 68.6386 133.581 65.1548 132.622 62.7818C131.632 60.3128 131.244 57.445 134.086 57.0764Z" fill="#407BFF"/>
<path opacity="0.6" d="M134.086 57.0764C139.64 56.3241 144.103 60.8025 144.103 60.8025L139.024 68.6386C139.024 68.6386 133.581 65.1548 132.622 62.7818C131.632 60.3128 131.244 57.445 134.086 57.0764Z" fill="#FAFAFA"/>
<path d="M151.051 48.7548L149.208 45.0589L154.04 45.0186C154.04 45.0186 154.136 47.5986 152.914 49.0578L151.051 48.7548Z" fill="#E4897B"/>
<path d="M150.066 41.0859L153.661 41.7272L154.04 45.0191L149.208 45.0595L150.066 41.0859Z" fill="#E4897B"/>
<path d="M114.446 179.06L118.97 179.494L122.1 168.871L117.576 168.432L114.446 179.06Z" fill="#E4897B"/>
<path d="M85.6816 163.347L89.0342 166.497L96.2744 158.54L92.9219 155.39L85.6816 163.347Z" fill="#E4897B"/>
<path d="M90.5839 164.987L88.0594 160.443C88.0165 160.365 87.9469 160.305 87.8634 160.274C87.7799 160.244 87.6881 160.244 87.605 160.276L83.7223 161.751C83.6262 161.792 83.5398 161.853 83.4687 161.929C83.3976 162.006 83.3434 162.097 83.3096 162.196C83.2758 162.295 83.2632 162.4 83.2725 162.504C83.2819 162.608 83.313 162.709 83.3638 162.801C84.2676 164.366 84.7877 165.078 85.8883 167.072C86.57 168.304 87.9079 171.111 88.842 172.818C89.7761 174.524 91.5079 173.671 91.2706 172.884C90.1901 169.349 90.3971 167.365 90.7 165.815C90.7608 165.534 90.7196 165.24 90.5839 164.987Z" fill="#263238"/>
<path d="M119.5 178.115H114.017C113.918 178.116 113.823 178.15 113.746 178.21C113.668 178.27 113.613 178.354 113.587 178.449L112.391 182.786C112.363 182.888 112.359 182.996 112.379 183.101C112.4 183.205 112.445 183.303 112.51 183.387C112.575 183.472 112.659 183.54 112.755 183.586C112.85 183.632 112.956 183.655 113.062 183.654C114.996 183.654 115.91 183.654 118.323 183.654H125.69C127.709 183.654 128.113 181.634 127.285 181.443C123.569 180.625 121.423 179.489 120.277 178.413C120.065 178.219 119.787 178.113 119.5 178.115Z" fill="#263238"/>
<path d="M122.1 168.871L120.484 174.349H115.829L117.571 168.437L122.1 168.871Z" fill="#CE6F64"/>
<path d="M92.9168 155.395L96.2743 158.54L92.5381 162.64L89.1855 159.494L92.9168 155.395Z" fill="#CE6F64"/>
<path d="M139.56 53.9404C139.524 50.2698 136.202 48.9874 136.202 48.9874C136.202 48.9874 140.357 41.121 138.222 35.9004C136.086 30.6797 129.048 29.7608 126.816 32.1994C122.893 32.0328 121.646 37.6675 121.646 37.6675C121.646 37.6675 118.364 38.2178 117.48 40.606C116.597 42.9942 119.288 45.6853 119.288 45.6853C119.288 45.6853 115.542 46.1902 114.163 49.0732C112.785 51.9562 113.633 55.7833 117.773 59.0854C123.792 63.8819 134.854 57.8635 134.854 57.8635C134.854 57.8635 139.6 58.1614 139.56 53.9404Z" fill="#263238"/>
<path d="M138.847 57.5906C138.847 57.5906 140.867 58.4742 134.122 85.1177L115.44 83.497C116.41 75.9235 116.829 71.2179 114.542 55.2832C117.207 54.968 119.892 54.8482 122.574 54.9247C125.419 54.9676 128.257 55.2122 131.067 55.6568C133.691 56.1711 136.288 56.8165 138.847 57.5906Z" fill="#407BFF"/>
<path opacity="0.6" d="M138.847 57.5906C138.847 57.5906 140.867 58.4742 134.122 85.1177L115.44 83.497C116.41 75.9235 116.829 71.2179 114.542 55.2832C117.207 54.968 119.892 54.8482 122.574 54.9247C125.419 54.9676 128.257 55.2122 131.067 55.6568C133.691 56.1711 136.288 56.8165 138.847 57.5906Z" fill="#FAFAFA"/>
<path d="M134.005 56.2874C133.036 56.0551 131.986 55.833 131.027 55.6562C128.217 55.21 125.379 54.9636 122.534 54.9191C121.56 54.8837 120.585 54.8837 119.671 54.9191L120.297 56.1106C120.409 56.3227 123.074 61.296 128.139 64.1184L129.532 64.8959L130.83 63.9719C134.101 61.6343 134.586 58.5948 134.005 56.2874Z" fill="#FAFAFA"/>
<path d="M124.205 45.4326C124.503 48.2146 124.604 53.2687 122.539 54.9247C122.539 54.9247 124.902 59.4133 129.375 61.9025C133.334 59.0851 131.031 55.6568 131.031 55.6568C128.048 54.647 128.32 52.4154 129.012 50.3352L124.205 45.4326Z" fill="#E4897B"/>
<path d="M126.169 47.4316L129.027 50.3348C128.853 50.8172 128.721 51.3139 128.633 51.8192C127.487 51.5516 125.821 50.355 125.801 49.1231C125.824 48.542 125.948 47.9695 126.169 47.4316Z" fill="#CE6F64"/>
<path d="M124.084 39.1214C123.534 43.6655 123.206 45.5892 125.059 48.3207C127.846 52.4205 133.561 52.0973 135.455 47.8158C137.161 43.9483 137.772 37.1523 133.687 34.5521C132.792 33.9756 131.764 33.6374 130.701 33.5694C129.638 33.5014 128.576 33.7059 127.614 34.1635C126.652 34.6211 125.823 35.3167 125.206 36.1843C124.588 37.0519 124.202 38.0629 124.084 39.1214Z" fill="#E4897B"/>
<path d="M127.609 33.5225C131.118 34.4313 127.649 45.1049 122.055 42.0098C122.055 42.0098 122.307 37.5011 123.862 35.5875C124.803 34.4475 126.143 33.7089 127.609 33.5225Z" fill="#263238"/>
<path d="M127.235 34.1125C128.75 36.5764 139.984 41.2468 136.207 35.9453C132.43 30.6439 127.235 34.1125 127.235 34.1125Z" fill="#263238"/>
<path d="M122.64 43.0543C122.577 43.9396 122.866 44.814 123.443 45.488C124.221 46.3715 125.246 45.8363 125.569 44.766C125.857 43.8066 125.801 42.191 124.766 41.6962C124.538 41.5954 124.288 41.5527 124.039 41.5718C123.79 41.5909 123.55 41.6713 123.339 41.8057C123.129 41.9401 122.955 42.1244 122.833 42.3423C122.711 42.5601 122.645 42.8047 122.64 43.0543Z" fill="#E4897B"/>
<path d="M134.101 85.1182C134.101 85.1182 140.428 113.11 136.207 132.841C133.379 146.06 123.175 172.759 123.175 172.759L115.198 172.557C115.198 172.557 122.918 144.535 124.518 133.518C127.25 114.665 120.408 83.9316 120.408 83.9316L134.101 85.1182Z" fill="#263238"/>
<path d="M126.806 90.7676L122.817 97.0586C124.019 104.519 124.781 112.043 125.099 119.592C130.708 109.55 128.053 96.0842 126.806 90.7676Z" fill="#263238"/>
<path d="M123.832 173.172L113.976 172.92L114.547 169.896L125.306 170.405L123.832 173.172Z" fill="#407BFF"/>
<path opacity="0.6" d="M123.832 173.172L113.976 172.92L114.547 169.896L125.306 170.405L123.832 173.172Z" fill="#FAFAFA"/>
<path d="M130.012 84.8147C130.012 84.8147 126.301 114.503 118.253 130.71C111.755 143.782 94.4164 162.463 94.4164 162.463L89.9834 157.894C89.9834 157.894 101.697 137.642 106.529 128.943C118.374 107.621 108.69 91.3531 115.405 83.502L130.012 84.8147Z" fill="#263238"/>
<path d="M94.8603 163.049L89.1348 157.47L91.0382 154.885L97.2738 161.332L94.8603 163.049Z" fill="#407BFF"/>
<path opacity="0.6" d="M94.8603 163.049L89.1348 157.47L91.0382 154.885L97.2738 161.332L94.8603 163.049Z" fill="#FAFAFA"/>
<path d="M115.213 82.3757L114.229 83.9762C114.148 84.1025 114.294 84.2489 114.506 84.264L134.122 85.9605C134.293 85.9605 134.44 85.905 134.46 85.7989L134.773 84.1429C134.773 84.0267 134.657 83.9157 134.47 83.9005L115.531 82.2596C115.473 82.2498 115.413 82.2554 115.357 82.2757C115.301 82.2961 115.252 82.3305 115.213 82.3757Z" fill="#407BFF"/>
<path opacity="0.3" d="M115.213 82.3757L114.229 83.9762C114.148 84.1025 114.294 84.2489 114.506 84.264L134.122 85.9605C134.293 85.9605 134.44 85.905 134.46 85.7989L134.773 84.1429C134.773 84.0267 134.657 83.9157 134.47 83.9005L115.531 82.2596C115.473 82.2498 115.413 82.2554 115.357 82.2757C115.301 82.2961 115.252 82.3305 115.213 82.3757Z" fill="black"/>
<path d="M117.576 84.7083L117.071 84.6629C116.97 84.6629 116.9 84.5972 116.91 84.5316L117.339 82.3807C117.339 82.3151 117.445 82.2696 117.546 82.2797L118.051 82.3252C118.152 82.3252 118.222 82.3908 118.212 82.4564L117.788 84.6073C117.768 84.678 117.677 84.7083 117.576 84.7083Z" fill="#263238"/>
<path d="M132.683 86.0218L132.178 85.9763C132.077 85.9763 132.006 85.9107 132.016 85.8451L132.445 83.6891C132.445 83.6286 132.551 83.5831 132.652 83.5932L133.157 83.6387C133.258 83.6387 133.329 83.7043 133.319 83.7649L132.895 85.9208C132.874 85.9864 132.789 86.0268 132.683 86.0218Z" fill="#263238"/>
<path d="M125.129 85.3654L124.624 85.325C124.523 85.325 124.453 85.2543 124.463 85.1937L124.892 83.0378C124.892 82.9772 124.998 82.9317 125.099 82.9418L125.604 82.9822C125.705 82.9822 125.776 83.0529 125.766 83.1135L125.341 85.2694C125.321 85.33 125.215 85.3755 125.129 85.3654Z" fill="#263238"/>
<path d="M130.683 41.6315C130.617 41.9951 130.759 42.3283 130.996 42.3737C131.233 42.4192 131.501 42.1566 131.552 41.788C131.602 41.4195 131.481 41.0862 131.238 41.0458C130.996 41.0055 130.769 41.2882 130.683 41.6315Z" fill="#263238"/>
<path d="M134.808 42.3887C134.742 42.7522 134.884 43.0854 135.121 43.1309C135.358 43.1763 135.626 42.9138 135.677 42.5452C135.727 42.1766 135.606 41.8434 135.363 41.803C135.121 41.7626 134.899 42.0201 134.808 42.3887Z" fill="#263238"/>
<path d="M135.278 41.7921L136.202 41.7012C136.202 41.7012 135.626 42.297 135.278 41.7921Z" fill="#263238"/>
<path d="M133.617 42.8018C133.793 43.6978 134.09 44.5657 134.5 45.3818C134.288 45.4806 134.057 45.5318 133.824 45.5318C133.59 45.5318 133.359 45.4806 133.147 45.3818L133.617 42.8018Z" fill="#DE5753"/>
<path d="M131.612 46.594C131.12 46.5177 130.652 46.3243 130.25 46.0299C129.848 45.7356 129.522 45.349 129.3 44.9026C129.291 44.8805 129.292 44.856 129.301 44.8343C129.311 44.8126 129.328 44.7955 129.35 44.7865C129.361 44.7815 129.372 44.7788 129.384 44.7784C129.396 44.778 129.407 44.78 129.418 44.7842C129.429 44.7885 129.439 44.7949 129.447 44.8031C129.455 44.8113 129.462 44.8211 129.466 44.8319C129.679 45.248 129.987 45.608 130.365 45.8827C130.743 46.1573 131.181 46.3387 131.643 46.4123C131.667 46.4123 131.69 46.4219 131.707 46.4389C131.724 46.4559 131.733 46.4791 131.733 46.5032C131.733 46.5273 131.724 46.5504 131.707 46.5674C131.69 46.5845 131.667 46.594 131.643 46.594H131.612Z" fill="#263238"/>
<path d="M129.699 38.7624C129.66 38.7631 129.622 38.7515 129.591 38.7293C129.559 38.7071 129.536 38.6755 129.523 38.6389C129.511 38.6023 129.51 38.5628 129.522 38.526C129.534 38.4892 129.557 38.457 129.588 38.4342C129.854 38.2199 130.167 38.0728 130.502 38.0051C130.837 37.9375 131.183 37.9513 131.511 38.0454C131.534 38.0533 131.555 38.0656 131.573 38.0816C131.59 38.0976 131.605 38.1169 131.615 38.1385C131.626 38.16 131.631 38.1834 131.633 38.2073C131.634 38.2312 131.631 38.2551 131.623 38.2776C131.615 38.3002 131.602 38.321 131.586 38.3388C131.57 38.3566 131.551 38.3711 131.529 38.3814C131.508 38.3917 131.484 38.3977 131.461 38.3989C131.437 38.4002 131.413 38.3967 131.39 38.3887C131.119 38.3143 130.835 38.3057 130.56 38.3636C130.285 38.4216 130.028 38.5445 129.81 38.722C129.778 38.7462 129.739 38.7603 129.699 38.7624Z" fill="#263238"/>
<path d="M137.171 40.9946C137.144 40.9945 137.118 40.9886 137.093 40.9772C137.069 40.9659 137.047 40.9495 137.03 40.929C136.857 40.7066 136.635 40.528 136.38 40.4078C136.126 40.2876 135.847 40.2292 135.565 40.2373C135.517 40.2416 135.47 40.2272 135.432 40.1971C135.394 40.167 135.37 40.1235 135.364 40.0757C135.361 40.0521 135.363 40.0281 135.369 40.0053C135.376 39.9825 135.387 39.9612 135.402 39.9429C135.417 39.9245 135.436 39.9093 135.457 39.8983C135.478 39.8873 135.501 39.8807 135.525 39.8788C135.867 39.8612 136.208 39.9264 136.519 40.0688C136.83 40.2112 137.102 40.4266 137.312 40.6967C137.345 40.7315 137.364 40.7776 137.364 40.8255C137.364 40.8734 137.345 40.9195 137.312 40.9542C137.272 40.985 137.222 40.9994 137.171 40.9946Z" fill="#263238"/>
<path d="M115.92 61.9889C115.16 63.4956 114.318 64.9587 113.395 66.3715C112.486 67.765 111.527 69.1282 110.492 70.441C109.446 71.7584 108.325 73.0143 107.134 74.2025C106.518 74.7831 105.918 75.3738 105.256 75.9191L104.751 76.3331L104.63 76.4341L104.469 76.5603C104.362 76.6472 104.251 76.7281 104.135 76.8027C103.676 77.1172 103.177 77.3686 102.651 77.55C101.66 77.8731 100.613 77.9882 99.5761 77.8882C98.6469 77.7953 97.7318 77.5936 96.8496 77.2874C95.2154 76.7172 93.6572 75.9491 92.2096 75.0002C89.4245 73.1936 86.8591 71.0688 84.5654 68.6688L85.9085 67.2601C87.1152 68.2295 88.3875 69.1939 89.6902 70.0673C90.9661 70.9611 92.2947 71.7771 93.6688 72.511C94.977 73.2297 96.3581 73.8069 97.7888 74.2328C99.152 74.6114 100.52 74.6771 101.464 74.2833C101.998 74.0513 102.475 73.7068 102.863 73.2735C103.423 72.7686 103.943 72.2081 104.474 71.6628C105.509 70.5369 106.468 69.3302 107.412 68.1285C108.356 66.9269 109.21 65.604 110.038 64.2913C110.457 63.6349 110.856 62.9684 111.249 62.302C111.643 61.6355 112.022 60.9337 112.35 60.3076L115.92 61.9889Z" fill="#E4897B"/>
<path d="M87.1859 67.8596L85.3884 64.1436L82.3994 67.9404C82.3994 67.9404 84.3786 69.5914 86.3023 69.5308L87.1859 67.8596Z" fill="#E4897B"/>
<path d="M83.4248 63.0586L81.7334 66.295L82.3999 67.941L85.3889 64.1441L83.4248 63.0586Z" fill="#E4897B"/>
<path d="M114.501 55.2833C112.209 55.6872 108.993 62.266 108.993 62.266L115.289 67.9562C115.289 67.9562 119.368 62.4781 119.126 59.4891C118.919 56.9393 117.419 54.7683 114.501 55.2833Z" fill="#407BFF"/>
<path opacity="0.6" d="M114.501 55.2833C112.209 55.6872 108.993 62.266 108.993 62.266L115.289 67.9562C115.289 67.9562 119.368 62.4781 119.126 59.4891C118.919 56.9393 117.419 54.7683 114.501 55.2833Z" fill="#FAFAFA"/>
<path d="M91.4676 167.427C91.4074 167.428 91.3475 167.417 91.2909 167.397C90.7406 167.215 90.3821 166.2 90.2155 165.609C90.2105 165.592 90.2107 165.574 90.2161 165.557C90.2215 165.54 90.2318 165.525 90.2458 165.514C90.2611 165.505 90.2785 165.5 90.2963 165.5C90.314 165.5 90.3314 165.505 90.3467 165.514C90.5134 165.599 91.9776 166.387 92.023 166.963C92.0299 167.026 92.0188 167.089 91.9912 167.147C91.9635 167.204 91.9203 167.252 91.8665 167.286C91.7528 167.376 91.6125 167.425 91.4676 167.427ZM90.4578 165.771C90.7103 166.584 91.0385 167.119 91.3515 167.225C91.4229 167.246 91.4986 167.249 91.5712 167.232C91.6438 167.215 91.7108 167.18 91.7655 167.129C91.7931 167.113 91.8154 167.089 91.8297 167.06C91.844 167.032 91.8498 166.999 91.8463 166.968C91.816 166.614 90.9577 166.054 90.4528 165.771H90.4578Z" fill="#407BFF"/>
<path d="M91.6949 165.998C91.1958 165.996 90.7036 165.881 90.2559 165.66C90.2418 165.653 90.23 165.642 90.222 165.629C90.2139 165.615 90.2099 165.6 90.2105 165.584C90.2106 165.567 90.2154 165.551 90.2243 165.537C90.2332 165.522 90.2459 165.511 90.261 165.503C90.3064 165.503 91.4677 164.842 92.0938 165.064C92.1708 165.089 92.2412 165.131 92.2997 165.187C92.3583 165.243 92.4035 165.312 92.4321 165.387C92.472 165.46 92.4857 165.544 92.471 165.626C92.4563 165.708 92.4141 165.782 92.3513 165.837C92.156 165.961 91.9255 166.017 91.6949 165.998ZM90.5034 165.584C91.0083 165.796 91.9625 165.928 92.2352 165.695C92.2806 165.66 92.321 165.594 92.2655 165.453C92.2454 165.402 92.2141 165.356 92.1739 165.318C92.1337 165.281 92.0857 165.252 92.0332 165.236C91.604 165.084 90.8315 165.423 90.5034 165.584Z" fill="#407BFF"/>
<path d="M121.933 179.004C121.423 178.993 120.916 178.928 120.419 178.813C120.4 178.808 120.383 178.798 120.37 178.784C120.357 178.769 120.35 178.751 120.348 178.732C120.345 178.713 120.349 178.694 120.358 178.678C120.367 178.661 120.381 178.648 120.399 178.641C120.626 178.535 122.61 177.631 123.115 177.954C123.16 177.985 123.196 178.028 123.219 178.078C123.242 178.127 123.251 178.182 123.246 178.237C123.24 178.336 123.213 178.432 123.166 178.519C123.118 178.607 123.053 178.683 122.974 178.742C122.661 178.932 122.299 179.024 121.933 179.004ZM120.752 178.691C121.343 178.802 122.433 178.944 122.883 178.606C122.942 178.561 122.991 178.504 123.026 178.439C123.061 178.373 123.081 178.301 123.085 178.227C123.088 178.204 123.084 178.181 123.076 178.159C123.067 178.138 123.052 178.12 123.034 178.106C122.751 177.914 121.575 178.328 120.752 178.691Z" fill="#407BFF"/>
<path d="M120.459 178.812C120.44 178.82 120.418 178.82 120.398 178.812C120.386 178.801 120.376 178.787 120.371 178.771C120.366 178.755 120.365 178.738 120.368 178.721C120.368 178.641 120.843 176.676 121.918 176.803C122.191 176.833 122.262 176.969 122.277 177.075C122.347 177.58 121.09 178.59 120.494 178.827L120.459 178.812ZM121.822 176.959C121.131 176.959 120.732 178.1 120.595 178.56C121.247 178.216 122.14 177.398 122.11 177.08C122.11 177.055 122.11 176.984 121.913 176.964L121.822 176.959Z" fill="#407BFF"/>
<path d="M131.133 41.0442L132.057 40.9482C132.057 40.9482 131.481 41.5541 131.133 41.0442Z" fill="#263238"/>
<path opacity="0.6" d="M93.1492 12.2705L78.3506 107.934L161.619 120.799L176.417 25.1303L93.1492 12.2705ZM127.361 66.6836C123.539 66.0921 119.979 64.3802 117.13 61.7646C114.281 59.149 112.272 55.7471 111.357 51.9895C110.442 48.2318 110.662 44.2871 111.989 40.6545C113.316 37.0219 115.691 33.8646 118.813 31.5821C121.935 29.2995 125.664 27.9943 129.528 27.8315C133.392 27.6687 137.218 28.6556 140.521 30.6675C143.824 32.6793 146.456 35.6257 148.084 39.1337C149.712 42.6418 150.263 46.554 149.668 50.3753C148.87 55.4946 146.072 60.0878 141.889 63.1457C137.707 66.2035 132.481 67.476 127.361 66.6836Z" fill="#407BFF"/>
<g style="mix-blend-mode:multiply" opacity="0.3">
<path d="M159.104 117.169H158.978L75.5835 104.248V104.122L90.4225 8.34766H90.5437L173.938 21.268V21.3943L159.104 117.169ZM75.8713 104.041L158.892 116.881L173.65 21.4549L90.6295 8.63545L75.8713 104.041Z" fill="#407BFF"/>
</g>
<path d="M130.36 67.6737C129.317 67.6726 128.276 67.5915 127.245 67.4314C122.065 66.6233 117.4 63.8404 114.228 59.6668C111.055 55.4931 109.623 50.2531 110.231 45.046C110.838 39.839 113.439 35.0697 117.488 31.7389C121.536 28.4081 126.717 26.7746 131.943 27.1812C137.17 27.5878 142.036 30.0029 145.52 33.9198C149.005 37.8366 150.837 42.9507 150.632 48.1891C150.427 53.4275 148.201 58.3829 144.422 62.0158C140.642 65.6486 135.603 67.6764 130.36 67.6737ZM127.477 65.9369C131.149 66.5042 134.907 65.97 138.275 64.4018C141.643 62.8337 144.471 60.302 146.401 57.1269C148.33 53.9518 149.275 50.2759 149.116 46.5638C148.956 42.8518 147.7 39.2704 145.505 36.2724C143.311 33.2744 140.276 30.9944 136.786 29.7208C133.296 28.4472 129.506 28.2371 125.896 29.117C122.286 29.997 119.019 31.9275 116.506 34.6645C113.993 37.4015 112.349 40.8221 111.78 44.4938C111.024 49.418 112.252 54.4411 115.195 58.4611C118.137 62.4811 122.555 65.1696 127.477 65.9369Z" fill="#FAFAFA"/>
<path d="M111.277 72.6028L92.9346 69.7666L92.2973 73.8881L110.639 76.7243L111.277 72.6028Z" fill="#407BFF"/>
<path opacity="0.6" d="M111.277 72.6028L92.9346 69.7666L92.2973 73.8881L110.639 76.7243L111.277 72.6028Z" fill="#FAFAFA"/>
<path d="M126.102 74.8954L113.692 72.9766L113.055 77.0981L125.464 79.0169L126.102 74.8954Z" fill="#407BFF"/>
<path opacity="0.6" d="M126.102 74.8954L113.692 72.9766L113.055 77.0981L125.464 79.0169L126.102 74.8954Z" fill="#FAFAFA"/>
<path d="M157.968 88.3735L91.6396 78.1172L91.0023 82.2387L157.33 92.495L157.968 88.3735Z" fill="#FAFAFA"/>
<path d="M123.808 91.8371L90.7681 86.8311L90.1425 90.9598L123.183 95.9659L123.808 91.8371Z" fill="#FAFAFA"/>
<path d="M150.978 96.2653L128.913 92.8535L128.276 96.975L150.34 100.387L150.978 96.2653Z" fill="#FAFAFA"/>
<path d="M141.958 103.848L88.9321 95.6484L88.2948 99.7699L141.32 107.969L141.958 103.848Z" fill="#FAFAFA"/>
<path d="M177.306 120.798H176.801C176.803 119.545 176.649 118.297 176.342 117.082L176.846 116.961C177.159 118.216 177.313 119.505 177.306 120.798ZM175.327 114.275C174.216 111.95 172.537 109.943 170.444 108.438L170.737 108.029C172.898 109.581 174.634 111.65 175.786 114.048L175.327 114.275Z" fill="#407BFF"/>
<path opacity="0.6" d="M177.306 120.798H176.801C176.803 119.545 176.649 118.297 176.342 117.082L176.846 116.961C177.159 118.216 177.313 119.505 177.306 120.798ZM175.327 114.275C174.216 111.95 172.537 109.943 170.444 108.438L170.737 108.029C172.898 109.581 174.634 111.65 175.786 114.048L175.327 114.275Z" fill="#FAFAFA"/>
<path d="M161.618 106.879C158.865 106.879 156.174 107.695 153.885 109.225C151.596 110.754 149.811 112.928 148.758 115.472C147.704 118.016 147.429 120.814 147.966 123.515C148.503 126.215 149.829 128.695 151.775 130.642C153.722 132.589 156.202 133.915 158.903 134.452C161.603 134.989 164.402 134.713 166.945 133.659C169.489 132.606 171.663 130.822 173.192 128.533C174.722 126.243 175.538 123.552 175.538 120.799C175.538 117.107 174.072 113.567 171.461 110.956C168.851 108.345 165.31 106.879 161.618 106.879ZM161.618 132.917C159.222 132.917 156.879 132.206 154.886 130.874C152.893 129.543 151.34 127.65 150.423 125.436C149.506 123.222 149.266 120.786 149.734 118.435C150.201 116.084 151.355 113.925 153.05 112.231C154.745 110.536 156.904 109.382 159.254 108.914C161.605 108.447 164.041 108.687 166.256 109.604C168.47 110.521 170.362 112.074 171.694 114.067C173.025 116.06 173.736 118.402 173.736 120.799C173.736 124.013 172.459 127.095 170.187 129.367C167.914 131.64 164.832 132.917 161.618 132.917Z" fill="#407BFF"/>
<path opacity="0.6" d="M161.618 106.879C158.865 106.879 156.174 107.695 153.885 109.225C151.596 110.754 149.811 112.928 148.758 115.472C147.704 118.016 147.429 120.814 147.966 123.515C148.503 126.215 149.829 128.695 151.775 130.642C153.722 132.589 156.202 133.915 158.903 134.452C161.603 134.989 164.402 134.713 166.945 133.659C169.489 132.606 171.663 130.822 173.192 128.533C174.722 126.243 175.538 123.552 175.538 120.799C175.538 117.107 174.072 113.567 171.461 110.956C168.851 108.345 165.31 106.879 161.618 106.879ZM161.618 132.917C159.222 132.917 156.879 132.206 154.886 130.874C152.893 129.543 151.34 127.65 150.423 125.436C149.506 123.222 149.266 120.786 149.734 118.435C150.201 116.084 151.355 113.925 153.05 112.231C154.745 110.536 156.904 109.382 159.254 108.914C161.605 108.447 164.041 108.687 166.256 109.604C168.47 110.521 170.362 112.074 171.694 114.067C173.025 116.06 173.736 118.402 173.736 120.799C173.736 124.013 172.459 127.095 170.187 129.367C167.914 131.64 164.832 132.917 161.618 132.917Z" fill="#FAFAFA"/>
<path d="M161.618 132.912C168.308 132.912 173.731 127.489 173.731 120.799C173.731 114.11 168.308 108.687 161.618 108.687C154.929 108.687 149.506 114.11 149.506 120.799C149.506 127.489 154.929 132.912 161.618 132.912Z" fill="#407BFF"/>
<path opacity="0.2" d="M161.618 132.912C168.308 132.912 173.731 127.489 173.731 120.799C173.731 114.11 168.308 108.687 161.618 108.687C154.929 108.687 149.506 114.11 149.506 120.799C149.506 127.489 154.929 132.912 161.618 132.912Z" fill="black"/>
<path d="M159.735 128.463L152.626 121.354L154.413 119.571L159.735 124.893L168.828 115.8L170.611 117.587L159.735 128.463Z" fill="#FAFAFA"/>
</svg>
