<svg width="253" height="222" viewBox="0 0 253 222" fill="none" xmlns="http://www.w3.org/2000/svg">
<path d="M224.725 72.1229C221.499 70.3628 220.034 71.8284 218.836 70.3628C217.639 68.8972 222.062 65.0827 213.262 61.2681C213.262 61.2681 212.679 53.0568 200.653 52.7623C188.627 52.4679 191.899 60.9803 188.627 63.0282C185.356 65.0761 184.519 61.857 181.293 63.9115C178.067 65.966 179.533 70.0684 176.896 70.6572C174.259 71.2461 170.739 68.0401 167.513 70.0684C164.288 72.0967 164.288 73.8829 162.816 73.8829C161.343 73.8829 158.419 72.7117 156.659 73.8829C154.899 75.0541 152.844 76.5001 152.844 76.5001H227.074C227.074 76.5001 227.957 73.8829 224.725 72.1229Z" fill="#5AD9F0"/>
<path opacity="0.5" d="M224.725 72.1229C221.499 70.3628 220.034 71.8284 218.836 70.3628C217.639 68.8972 222.062 65.0827 213.262 61.2681C213.262 61.2681 212.679 53.0568 200.653 52.7623C188.627 52.4679 191.899 60.9803 188.627 63.0282C185.356 65.0761 184.519 61.857 181.293 63.9115C178.067 65.966 179.533 70.0684 176.896 70.6572C174.259 71.2461 170.739 68.0401 167.513 70.0684C164.288 72.0967 164.288 73.8829 162.816 73.8829C161.343 73.8829 158.419 72.7117 156.659 73.8829C154.899 75.0541 152.844 76.5001 152.844 76.5001H227.074C227.074 76.5001 227.957 73.8829 224.725 72.1229Z" fill="#5AD9F0"/>
<path d="M112.383 34.6058C110.472 33.5655 109.602 34.4357 108.908 33.5655C108.215 32.6953 110.819 30.4379 105.637 28.1741C105.637 28.1741 105.29 23.3062 98.165 23.136C91.0397 22.9659 92.9307 28.004 91.0397 29.221C89.1488 30.4379 88.6058 28.5274 86.6887 29.7379C84.7716 30.9483 85.6484 33.3888 84.0715 33.7421C82.4947 34.0954 80.4206 32.1718 78.51 33.3888C76.5995 34.6058 76.5995 35.6527 75.7293 35.6527C74.8591 35.6527 73.1121 34.9526 72.0784 35.6527C71.0446 36.3527 69.821 37.2164 69.821 37.2164H113.776C113.776 37.2164 114.3 35.6723 112.383 34.6058Z" fill="#5AD9F0"/>
<path opacity="0.5" d="M112.383 34.6058C110.472 33.5655 109.602 34.4357 108.908 33.5655C108.215 32.6953 110.819 30.4379 105.637 28.1741C105.637 28.1741 105.29 23.3062 98.165 23.136C91.0397 22.9659 92.9307 28.004 91.0397 29.221C89.1488 30.4379 88.6058 28.5274 86.6887 29.7379C84.7716 30.9483 85.6484 33.3888 84.0715 33.7421C82.4947 34.0954 80.4206 32.1718 78.51 33.3888C76.5995 34.6058 76.5995 35.6527 75.7293 35.6527C74.8591 35.6527 73.1121 34.9526 72.0784 35.6527C71.0446 36.3527 69.821 37.2164 69.821 37.2164H113.776C113.776 37.2164 114.3 35.6723 112.383 34.6058Z" fill="#5AD9F0"/>
<path d="M139.189 179.551C133.693 176.548 131.194 179.047 129.192 176.548C127.189 174.048 134.688 167.558 119.698 161.061C119.698 161.061 118.697 147.065 98.2108 146.568C77.7249 146.071 83.2144 160.557 77.7184 164.057C72.2223 167.558 70.724 162.055 65.2279 165.556C59.7319 169.056 62.2247 176.024 57.7297 177.052C53.2347 178.079 47.2611 172.55 41.7388 176.051C36.2166 179.551 36.2428 182.548 33.7434 182.548C31.244 182.548 26.2452 180.546 23.2747 182.548C20.3042 184.55 16.7776 187.043 16.7776 187.043H143.187C143.187 187.043 144.685 182.548 139.189 179.551Z" fill="#5AD9F0"/>
<path opacity="0.5" d="M139.189 179.551C133.693 176.548 131.194 179.047 129.192 176.548C127.189 174.048 134.688 167.558 119.698 161.061C119.698 161.061 118.697 147.065 98.2108 146.568C77.7249 146.071 83.2144 160.557 77.7184 164.057C72.2223 167.558 70.724 162.055 65.2279 165.556C59.7319 169.056 62.2247 176.024 57.7297 177.052C53.2347 178.079 47.2611 172.55 41.7388 176.051C36.2166 179.551 36.2428 182.548 33.7434 182.548C31.244 182.548 26.2452 180.546 23.2747 182.548C20.3042 184.55 16.7776 187.043 16.7776 187.043H143.187C143.187 187.043 144.685 182.548 139.189 179.551Z" fill="#5AD9F0"/>
<g opacity="0.5">
<path d="M224.725 72.1229C221.499 70.3628 220.034 71.8284 218.836 70.3628C217.639 68.8972 222.062 65.0827 213.262 61.2681C213.262 61.2681 212.679 53.0568 200.653 52.7623C188.627 52.4679 191.899 60.9803 188.627 63.0282C185.356 65.0761 184.519 61.857 181.293 63.9115C178.067 65.966 179.533 70.0684 176.896 70.6572C174.259 71.2461 170.739 68.0401 167.513 70.0684C164.288 72.0967 164.288 73.8829 162.816 73.8829C161.343 73.8829 158.419 72.7117 156.659 73.8829C154.899 75.0541 152.844 76.5001 152.844 76.5001H227.074C227.074 76.5001 227.957 73.8829 224.725 72.1229Z" fill="white"/>
<path opacity="0.5" d="M224.725 72.1229C221.499 70.3628 220.034 71.8284 218.836 70.3628C217.639 68.8972 222.062 65.0827 213.262 61.2681C213.262 61.2681 212.679 53.0568 200.653 52.7623C188.627 52.4679 191.899 60.9803 188.627 63.0282C185.356 65.0761 184.519 61.857 181.293 63.9115C178.067 65.966 179.533 70.0684 176.896 70.6572C174.259 71.2461 170.739 68.0401 167.513 70.0684C164.288 72.0967 164.288 73.8829 162.816 73.8829C161.343 73.8829 158.419 72.7117 156.659 73.8829C154.899 75.0541 152.844 76.5001 152.844 76.5001H227.074C227.074 76.5001 227.957 73.8829 224.725 72.1229Z" fill="white"/>
</g>
<g opacity="0.5">
<path d="M112.383 34.6058C110.472 33.5655 109.602 34.4357 108.908 33.5655C108.215 32.6953 110.819 30.4379 105.637 28.1741C105.637 28.1741 105.29 23.3062 98.165 23.136C91.0397 22.9659 92.9307 28.004 91.0397 29.221C89.1488 30.4379 88.6058 28.5274 86.6887 29.7379C84.7716 30.9483 85.6484 33.3888 84.0715 33.7421C82.4947 34.0954 80.4206 32.1718 78.51 33.3888C76.5995 34.6058 76.5995 35.6527 75.7293 35.6527C74.8591 35.6527 73.1121 34.9526 72.0784 35.6527C71.0446 36.3527 69.821 37.2164 69.821 37.2164H113.776C113.776 37.2164 114.3 35.6723 112.383 34.6058Z" fill="white"/>
<path opacity="0.5" d="M112.383 34.6058C110.472 33.5655 109.602 34.4357 108.908 33.5655C108.215 32.6953 110.819 30.4379 105.637 28.1741C105.637 28.1741 105.29 23.3062 98.165 23.136C91.0397 22.9659 92.9307 28.004 91.0397 29.221C89.1488 30.4379 88.6058 28.5274 86.6887 29.7379C84.7716 30.9483 85.6484 33.3888 84.0715 33.7421C82.4947 34.0954 80.4206 32.1718 78.51 33.3888C76.5995 34.6058 76.5995 35.6527 75.7293 35.6527C74.8591 35.6527 73.1121 34.9526 72.0784 35.6527C71.0446 36.3527 69.821 37.2164 69.821 37.2164H113.776C113.776 37.2164 114.3 35.6723 112.383 34.6058Z" fill="white"/>
</g>
<g opacity="0.5">
<path d="M139.189 179.551C133.693 176.548 131.194 179.047 129.192 176.548C127.189 174.048 134.688 167.558 119.698 161.061C119.698 161.061 118.697 147.065 98.2108 146.568C77.7249 146.071 83.2144 160.557 77.7184 164.057C72.2223 167.558 70.724 162.055 65.2279 165.556C59.7319 169.056 62.2247 176.024 57.7297 177.052C53.2347 178.079 47.2611 172.55 41.7388 176.051C36.2166 179.551 36.2428 182.548 33.7434 182.548C31.244 182.548 26.2452 180.546 23.2747 182.548C20.3042 184.55 16.7776 187.043 16.7776 187.043H143.187C143.187 187.043 144.685 182.548 139.189 179.551Z" fill="white"/>
<path opacity="0.5" d="M139.189 179.551C133.693 176.548 131.194 179.047 129.192 176.548C127.189 174.048 134.688 167.558 119.698 161.061C119.698 161.061 118.697 147.065 98.2108 146.568C77.7249 146.071 83.2144 160.557 77.7184 164.057C72.2223 167.558 70.724 162.055 65.2279 165.556C59.7319 169.056 62.2247 176.024 57.7297 177.052C53.2347 178.079 47.2611 172.55 41.7388 176.051C36.2166 179.551 36.2428 182.548 33.7434 182.548C31.244 182.548 26.2452 180.546 23.2747 182.548C20.3042 184.55 16.7776 187.043 16.7776 187.043H143.187C143.187 187.043 144.685 182.548 139.189 179.551Z" fill="white"/>
</g>
<path d="M46.8227 158.24C46.8227 158.24 43.5905 155.407 40.2471 154.439C36.9036 153.47 33.0498 153.451 29.7195 152.541C26.3891 151.632 24.4001 150.866 24.4001 150.866L24.23 153.876L46.6853 159.941L62.0481 155.688L63.5791 152.567C61.9051 153.347 60.1495 153.937 58.3448 154.327C55.0013 155.119 51.2588 155.119 49.1847 155.917C47.1106 156.716 46.8227 158.24 46.8227 158.24Z" fill="white" stroke="#263238" stroke-linecap="round" stroke-linejoin="round"/>
<path d="M23.9159 151.547C28.3053 152.889 32.8047 153.842 37.3616 154.393C40.789 154.858 44.0434 156.181 46.8227 158.24C49.0834 156.795 51.686 155.974 54.3667 155.859C57.5909 155.614 60.7717 154.966 63.8343 153.928L62.8725 155.891L46.3712 159.124L23.5757 153.17L23.9159 151.547Z" fill="white" stroke="#263238" stroke-linecap="round" stroke-linejoin="round"/>
<path d="M23.2943 152.228C26.7819 153.564 30.4364 154.416 34.1555 154.76C40.2274 155.218 46.6525 158.24 46.6525 158.24C49.1377 156.987 51.8661 156.29 54.648 156.199C57.7699 156.172 60.876 155.752 63.8931 154.949C63.7991 155.263 63.7756 155.593 63.8242 155.917C63.8729 156.24 63.9925 156.549 64.1745 156.821L46.5936 160.563L23.1765 153.759L23.2943 152.228Z" fill="white" stroke="#263238" stroke-linecap="round" stroke-linejoin="round"/>
<path d="M23.0064 153.478L45.8609 159.203V159.988L47.7845 160.04V159.137L64.6849 156.468C64.6849 156.468 65.4242 156.298 64.7961 157.122C64.168 157.946 53.2871 167.447 53.2871 167.447L41.2089 168.69L22.8887 164.666L23.0064 153.478Z" fill="#5AD9F0"/>
<mask id="mask0_448_1774" style="mask-type:luminance" maskUnits="userSpaceOnUse" x="22" y="153" width="44" height="16">
<path d="M23.0064 153.478L45.8609 159.203V159.988L47.7845 160.04V159.137L64.6849 156.468C64.6849 156.468 65.4242 156.298 64.7961 157.122C64.168 157.946 53.2871 167.447 53.2871 167.447L41.2089 168.69L22.8887 164.666L23.0064 153.478Z" fill="white"/>
</mask>
<g mask="url(#mask0_448_1774)">
<path opacity="0.3" d="M45.8609 160.001V159.203L23.0065 153.478L22.8953 164.705L41.2089 168.729L41.5361 168.696L46.3713 160.014L45.8609 160.001Z" fill="black"/>
</g>
<path d="M23.0064 153.478L45.8609 159.203V159.988L47.7845 160.04V159.137L64.6849 156.468C64.6849 156.468 65.4242 156.298 64.7961 157.122C64.168 157.946 53.2871 167.447 53.2871 167.447L41.2089 168.69L22.8887 164.666L23.0064 153.478Z" stroke="#263238" stroke-linecap="round" stroke-linejoin="round"/>
<path d="M45.861 160.001L40.8098 168.729L41.7782 168.788L47.7846 160.053L45.861 160.001Z" fill="#5AD9F0" stroke="#263238" stroke-linecap="round" stroke-linejoin="round"/>
<path d="M45.0495 213.214C45.0495 213.214 43.9503 215.517 42.4847 216.57C41.019 217.624 39.1478 218.121 37.6691 219.135C36.8659 219.679 36.0967 220.271 35.366 220.908L34.7771 218.906L44.6831 212.082L52.8945 213.077L54.1638 214.987C53.2464 214.676 52.2912 214.492 51.3241 214.437C49.5641 214.313 47.7386 214.771 46.5805 214.49C46.2468 214.404 45.9364 214.245 45.6717 214.024C45.4069 213.803 45.1944 213.527 45.0495 213.214Z" fill="white" stroke="#263238" stroke-linecap="round" stroke-linejoin="round"/>
<path d="M35.0062 220.51C36.8882 219.094 38.9279 217.902 41.0846 216.957C42.752 216.136 44.1336 214.832 45.0496 213.214C46.3041 213.868 47.7365 214.098 49.1324 213.869C50.7756 213.643 52.445 213.691 54.0723 214.013L53.2675 212.789L44.6832 212.658L34.5679 219.443L35.0062 220.51Z" fill="white" stroke="#263238" stroke-linecap="round" stroke-linejoin="round"/>
<path d="M34.5875 220.13C36.0194 218.839 37.6701 217.813 39.462 217.101C42.3409 216.054 44.9711 213.234 44.9711 213.234C46.3193 213.761 47.7881 213.899 49.2109 213.633C50.7559 213.271 52.3514 213.176 53.9284 213.352C53.7303 212.946 53.6684 212.487 53.7517 212.043L44.5524 211.677L34.2734 219.116L34.5875 220.13Z" fill="white" stroke="#263238" stroke-linecap="round" stroke-linejoin="round"/>
<path d="M34.2146 219.325L44.3954 212.677L44.258 212.147L45.1936 211.873L45.3441 212.481L54.0331 212.219C54.0331 212.219 54.4191 212.219 53.9742 211.748C53.5293 211.277 46.6461 206.193 46.6461 206.193L40.5416 206.848L32.2844 211.788L34.2146 219.325Z" fill="#5AD9F0"/>
<mask id="mask1_448_1774" style="mask-type:luminance" maskUnits="userSpaceOnUse" x="32" y="206" width="23" height="14">
<path d="M34.2146 219.325L44.3954 212.677L44.258 212.147L45.1936 211.873L45.3441 212.481L54.0331 212.219C54.0331 212.219 54.4191 212.219 53.9742 211.748C53.5293 211.277 46.6461 206.193 46.6461 206.193L40.5416 206.848L32.2844 211.788L34.2146 219.325Z" fill="white"/>
</mask>
<g mask="url(#mask1_448_1774)">
<path opacity="0.3" d="M44.2842 212.148L44.4216 212.678L34.2408 219.325L32.291 211.768L40.5482 206.828L40.7118 206.809L44.5328 212.076L44.2842 212.148Z" fill="black"/>
</g>
<path d="M34.2146 219.325L44.3954 212.677L44.258 212.147L45.1936 211.873L45.3441 212.481L54.0331 212.219C54.0331 212.219 54.4191 212.219 53.9742 211.748C53.5293 211.277 46.6461 206.193 46.6461 206.193L40.5416 206.848L32.2844 211.788L34.2146 219.325Z" stroke="#263238" stroke-linecap="round" stroke-linejoin="round"/>
<path d="M44.2842 212.147L40.3584 206.874L40.8164 206.717L45.2198 211.873L44.2842 212.147Z" fill="#5AD9F0" stroke="#263238" stroke-linecap="round" stroke-linejoin="round"/>
<path d="M197.277 142.786L215.754 161.499L176.301 172.615L173.69 153.857L197.277 142.786Z" fill="#5AD9F0" stroke="#263238" stroke-linecap="round" stroke-linejoin="round"/>
<path d="M213.628 164.201L172.82 176.194L176.111 154.629L196.701 145.442L213.628 164.201Z" fill="white" stroke="#263238" stroke-linecap="round" stroke-linejoin="round"/>
<path d="M197.67 146.607L212.849 166.236L174.56 177.353L179.009 153.759L197.67 146.607Z" fill="white"/>
<mask id="mask2_448_1774" style="mask-type:luminance" maskUnits="userSpaceOnUse" x="174" y="146" width="39" height="32">
<path d="M197.67 146.607L212.849 166.236L174.56 177.353L179.009 153.759L197.67 146.607Z" fill="white"/>
</mask>
<g mask="url(#mask2_448_1774)">
<path opacity="0.17" d="M197.67 146.607L212.849 166.236L174.56 177.353L179.009 153.759L197.67 146.607Z" fill="black"/>
</g>
<path d="M197.67 146.607L212.849 166.236L174.56 177.353L179.009 153.759L197.67 146.607Z" stroke="#263238" stroke-linecap="round" stroke-linejoin="round"/>
<path d="M197.67 146.607L190.708 170.777L163.535 179.001L173.978 156.755L197.67 146.607Z" fill="white" stroke="#263238" stroke-linecap="round" stroke-linejoin="round"/>
<path d="M188.778 168.847L162.574 177.647L161.795 173.97L186.069 165.268L188.778 168.847Z" fill="white" stroke="#263238" stroke-linecap="round" stroke-linejoin="round"/>
<path d="M196.996 143.316L214.4 161.401L213.628 164.201L197.67 146.607L188.778 168.847L186.069 165.268L196.996 143.316Z" fill="white" stroke="#263238" stroke-linecap="round" stroke-linejoin="round"/>
<path d="M197.277 142.786L186.167 165.948L160.539 174.65L173.69 153.857L197.277 142.786Z" fill="#5AD9F0"/>
<mask id="mask3_448_1774" style="mask-type:luminance" maskUnits="userSpaceOnUse" x="160" y="142" width="38" height="33">
<path d="M197.277 142.786L186.167 165.948L160.539 174.65L173.69 153.857L197.277 142.786Z" fill="white"/>
</mask>
<g mask="url(#mask3_448_1774)">
<path opacity="0.3" d="M197.277 142.786L186.167 165.948L160.539 174.65L173.69 153.857L197.277 142.786Z" fill="black"/>
</g>
<path d="M197.277 142.786L186.167 165.948L160.539 174.65L173.69 153.857L197.277 142.786Z" stroke="#263238" stroke-linecap="round" stroke-linejoin="round"/>
<path d="M172.63 155.99L193.247 146.581" stroke="#263238" stroke-linecap="round" stroke-linejoin="round"/>
<path d="M111.434 210.028L130.356 186.748L91.321 184.916L88.2131 204.473L111.434 210.028Z" fill="#5AD9F0" stroke="#263238" stroke-linecap="round" stroke-linejoin="round"/>
<path d="M128.308 184.523L87.9448 182.135L90.6405 203.118L110.93 207.489L128.308 184.523Z" fill="white" stroke="#263238" stroke-linecap="round" stroke-linejoin="round"/>
<path d="M111.925 206.082L127.588 182.652L89.7114 180.545L93.5129 203.301L111.925 206.082Z" fill="white"/>
<mask id="mask4_448_1774" style="mask-type:luminance" maskUnits="userSpaceOnUse" x="89" y="180" width="39" height="27">
<path d="M111.925 206.082L127.588 182.652L89.7114 180.545L93.5129 203.301L111.925 206.082Z" fill="white"/>
</mask>
<g mask="url(#mask4_448_1774)">
<path opacity="0.17" d="M111.925 206.082L127.588 182.652L89.7114 180.545L93.5129 203.301L111.925 206.082Z" fill="black"/>
</g>
<path d="M111.925 206.082L127.588 182.652L89.7114 180.545L93.5129 203.301L111.925 206.082Z" stroke="#263238" stroke-linecap="round" stroke-linejoin="round"/>
<path d="M111.925 206.082L105.637 183.339L78.7651 181.514L88.5795 201.476L111.925 206.082Z" fill="white" stroke="#263238" stroke-linecap="round" stroke-linejoin="round"/>
<path d="M103.655 185.754L77.7643 183.11L76.894 187.003L100.861 190.007L103.655 185.754Z" fill="white" stroke="#263238" stroke-linecap="round" stroke-linejoin="round"/>
<path d="M111.159 209.563L129.002 187.167L128.308 184.523L111.925 206.082L103.654 185.754L100.861 190.006L111.159 209.563Z" fill="white" stroke="#263238" stroke-linecap="round" stroke-linejoin="round"/>
<path d="M111.434 210.028L100.972 189.3L75.6572 186.617L88.2131 204.473L111.434 210.028Z" fill="#5AD9F0"/>
<mask id="mask5_448_1774" style="mask-type:luminance" maskUnits="userSpaceOnUse" x="75" y="186" width="37" height="25">
<path d="M111.434 210.028L100.972 189.3L75.6572 186.617L88.2131 204.473L111.434 210.028Z" fill="white"/>
</mask>
<g mask="url(#mask5_448_1774)">
<path opacity="0.3" d="M111.434 210.028L100.972 189.3L75.6572 186.617L88.2131 204.473L111.434 210.028Z" fill="black"/>
</g>
<path d="M111.434 210.028L100.972 189.3L75.6572 186.617L88.2131 204.473L111.434 210.028Z" stroke="#263238" stroke-linecap="round" stroke-linejoin="round"/>
<path d="M86.283 201.895L106.9 206.232" stroke="#263238" stroke-linecap="round" stroke-linejoin="round"/>
<path d="M126.777 53.4881C126.777 53.4881 118.206 57.6298 114.778 62.6482C111.349 67.6666 112.35 76.9314 117.63 79.9281C122.91 82.9247 141.342 93.9299 154.343 92.3596C167.343 90.7893 165.341 77.5007 158.772 72.214C152.203 66.9273 143.344 62.2164 143.344 62.2164C143.344 62.2164 142.919 59.3637 142.343 58.3626C141.767 57.3615 135.205 50.9168 126.777 53.4881Z" fill="#263238" stroke="#263238" stroke-linecap="round" stroke-linejoin="round"/>
<path d="M161.572 75.3412C142.114 69.3872 129.296 80.0456 125.279 84.1284C133.327 88.3093 145.182 93.4455 154.342 92.3397C165.217 91.0246 165.59 81.5046 161.572 75.3412Z" fill="white" stroke="#263238" stroke-linecap="round" stroke-linejoin="round"/>
<path d="M148.343 73.7715C148.343 73.7715 159.773 82.9316 155.769 92.0524" stroke="#263238" stroke-linecap="round" stroke-linejoin="round"/>
<path d="M110.826 49.4973L106.246 70.8599H109.929L119.011 54.025C119.011 54.025 117.238 48.6271 110.826 49.4973Z" fill="white" stroke="#263238" stroke-linecap="round" stroke-linejoin="round"/>
<path d="M168.39 39.1331C164.641 34.553 159.688 30.3067 150.613 29.5804C150.613 29.5804 142.879 29.3383 132.358 33.8137C124.134 37.3076 115.347 44.9367 110.826 49.5167C114.869 50.544 117.277 52.1993 119.017 54.0444C120.81 52.3367 122.374 50.8515 123.525 49.9158C127.399 46.7687 133.085 44.1123 133.085 44.1123C133.085 44.1123 126.915 52.5723 125.704 54.7511C124.494 56.9298 125.344 60.4369 131.75 61.4052C138.155 62.3736 139.732 61.1631 142.271 59.7106C144.81 58.2581 147.957 56.9298 149.167 56.9298C151.586 57.1013 153.987 56.4054 155.939 54.967C159.08 52.7882 160.414 46.6247 161.501 46.1406C162.247 45.8069 168.848 54.4174 173.991 60.8818L174.436 60.6528C176.674 59.5012 178.421 57.1523 179.618 55.0847C175.457 49.0064 170.818 42.1036 168.39 39.1331Z" fill="#5AD9F0" stroke="#263238" stroke-linecap="round" stroke-linejoin="round"/>
<path d="M146.713 33.6436C146.713 33.6436 144.149 39.8135 149.285 42.1494" stroke="#263238" stroke-linecap="round" stroke-linejoin="round"/>
<path d="M133.085 44.0931L138.659 42.4443" stroke="#263238" stroke-linecap="round" stroke-linejoin="round"/>
<path d="M133.013 54.8559C133.013 54.8559 136.526 57.9572 144.751 54.4502" stroke="#263238" stroke-linecap="round" stroke-linejoin="round"/>
<path d="M165.106 43.792C163.077 44.0603 161.5 46.1474 161.5 46.1474C163.841 45.6488 166.221 45.3576 168.613 45.2772" stroke="#263238" stroke-linecap="round" stroke-linejoin="round"/>
<path d="M133.268 44.6032C133.268 44.6032 137.043 44.6032 140.687 44.4658" stroke="#263238" stroke-linecap="round" stroke-linejoin="round"/>
<path d="M135.29 53.2334C135.29 53.2334 135.695 55.6674 140.956 55.3926" stroke="#263238" stroke-linecap="round" stroke-linejoin="round"/>
<path d="M149.285 31.6349C149.285 31.6349 148.441 35.986 149.043 38.2825C149.645 40.5791 151.823 43.2421 153.4 40.4613C154.977 37.6806 155.815 34.5727 155.815 33.0874C155.815 31.6022 150.371 28.8542 149.285 31.6349Z" fill="white" stroke="#263238" stroke-linecap="round" stroke-linejoin="round"/>
<path d="M161.501 26.1912C161.501 26.1912 164.883 25.465 167.788 21.7159C170.693 17.9668 166.944 17.4892 165.734 13.8644C164.523 10.2396 168.783 11.4435 162.619 5.15575C156.456 -1.132 146.413 1.04679 141.682 3.10127C136.951 5.15575 137.102 12.052 133.706 12.5362C130.31 13.0203 128.864 9.75542 124.755 9.75542C120.647 9.75542 116.289 14.1065 117.984 17.7312C119.678 21.356 122.943 19.7923 123.185 19.1838C123.427 18.5753 121.491 19.3081 121.366 17.4892C121.242 15.6702 125.717 16.6451 127.052 19.066C128.132 21.0289 126.149 23.8162 126.215 25.8772C126.352 30.0123 131.416 32.6556 134.668 33.2249C139.058 33.9904 144.397 33.7221 148.375 31.5434C153.263 28.8608 150.993 23.2993 154.591 21.8467C158.19 20.3942 160.035 22.573 160.035 22.573L161.501 26.1912Z" fill="#263238" stroke="#263238" stroke-linecap="round" stroke-linejoin="round"/>
<path d="M124.54 11.9995C123.916 11.7288 123.231 11.635 122.558 11.7285C121.885 11.822 121.251 12.0992 120.725 12.5295" stroke="white" stroke-linecap="round" stroke-linejoin="round"/>
<path d="M156.809 15.3891C156.809 15.3891 156.809 8.19192 151.758 6.72631C146.707 5.26069 140.936 11.7774 138.018 15.8864C135.1 19.9954 130.821 19.0139 127.674 14.6825C127.378 14.2649 127.049 13.8712 126.692 13.5048" stroke="white" stroke-linecap="round" stroke-linejoin="round"/>
<path d="M128.184 28.8867C130.801 30.5683 132.764 31.0525 136.605 29.8486C140.445 28.6447 139.974 22.3896 143.337 19.0266C146.7 15.6635 152.72 16.8609 152.72 16.8609C152.72 16.8609 145.987 13.2492 140.694 17.0964C135.401 20.9436 135.878 27.4408 131.069 28.6447" stroke="white" stroke-linecap="round" stroke-linejoin="round"/>
<path d="M160.179 16.135C160.179 16.135 164.759 14.9311 164.51 10.8418" stroke="white" stroke-linecap="round" stroke-linejoin="round"/>
<path d="M122.492 62.498C122.492 62.498 134.923 64.0683 141.204 68.3867" stroke="white" stroke-linecap="round" stroke-linejoin="round"/>
<path d="M157.555 17.6922C156.781 17.4701 155.959 17.4754 155.188 17.7075C154.416 17.9395 153.728 18.3884 153.204 19.0008C151.15 21.173 151.241 22.2723 149.527 23.6266C149.016 24.0736 148.371 24.3396 147.694 24.3833C147.016 24.4271 146.343 24.2462 145.778 23.8687C145.052 23.5089 144.208 23.751 143.966 25.439C143.723 27.1271 146.02 28.4619 146.386 28.4619C146.751 28.4816 147.113 28.5232 147.473 28.5862C147.473 28.5862 147.473 31.609 149.527 33.4214C151.582 35.2338 155.697 38.1389 158.478 37.5369C161.259 36.935 162.345 30.5229 162.345 27.258C162.243 23.9475 161.591 20.6771 160.415 17.581C159.564 15.6705 157.555 17.6922 157.555 17.6922Z" fill="white" stroke="#263238" stroke-linecap="round" stroke-linejoin="round"/>
<path d="M155.259 25.0395C155.259 25.6938 155.023 26.2565 154.722 26.2565C154.421 26.2565 154.179 25.7135 154.179 25.0395C154.179 24.3656 154.421 23.8291 154.722 23.8291C155.023 23.8291 155.259 24.3722 155.259 25.0395Z" fill="#263238"/>
<path d="M159.57 24.6343C159.57 25.2886 159.328 25.8513 159.034 25.8513C158.739 25.8513 158.491 25.3082 158.491 24.6343C158.491 23.9603 158.733 23.4238 159.034 23.4238C159.335 23.4238 159.57 23.9669 159.57 24.6343Z" fill="#263238"/>
<path d="M152.694 22.5866C152.694 22.5866 153.499 21.3761 155.527 21.9323" stroke="#263238" stroke-linecap="round" stroke-linejoin="round"/>
<path d="M157.817 21.9316C157.817 21.9316 159.165 20.4463 160.382 21.9316" stroke="#263238" stroke-linecap="round" stroke-linejoin="round"/>
<path d="M157.686 24.6338C157.686 24.6338 157.817 27.336 158.628 27.336C159.44 27.336 159.165 28.5465 158.085 28.9521" stroke="#263238" stroke-linecap="round" stroke-linejoin="round"/>
<path d="M157.006 31.6542C157.006 31.6542 154.578 32.7338 153.636 30.2998" stroke="#263238" stroke-linecap="round" stroke-linejoin="round"/>
<path d="M157.575 91.3787C157.575 91.3787 143.835 79.3266 129.597 75.2242C115.36 71.1218 98.9764 73.052 84.7455 69.1982C70.5147 65.3444 62.3229 60.0381 62.3229 60.0381L61.5967 72.8164L157.123 98.6217L222.474 80.5371L228.984 67.2746C228.984 67.2746 221.028 71.3704 206.797 74.7466C192.566 78.1227 176.621 78.1162 167.69 81.4727C158.759 84.8292 157.575 91.3787 157.575 91.3787Z" fill="white" stroke="#263238" stroke-linecap="round" stroke-linejoin="round"/>
<path d="M60.1506 62.9229C60.1506 62.9229 76.0891 72.5737 111.997 75.9498C135.649 78.1679 157.575 91.378 157.575 91.378C167.182 85.2354 178.242 81.7413 189.635 81.2496C208.446 80.5299 229.907 73.0513 229.907 73.0513L225.817 81.472L155.645 95.2122L58.7046 69.8911L60.1506 62.9229Z" fill="white" stroke="#263238" stroke-linecap="round" stroke-linejoin="round"/>
<path d="M57.5008 65.8213C71.0663 71.9483 85.5857 75.6933 100.422 76.8919C126.221 78.8221 156.848 91.3583 156.848 91.3583C156.848 91.3583 173.003 82.6824 190.872 82.6824C204.144 82.5692 217.348 80.7864 230.175 77.3761C229.776 78.7089 229.677 80.1135 229.886 81.4891C230.094 82.8646 230.604 84.1771 231.379 85.3323L156.606 101.264L57.0166 72.3119L57.5008 65.8213Z" fill="white" stroke="#263238" stroke-linecap="round" stroke-linejoin="round"/>
<path d="M57.9849 71.5467L153.472 95.4807V98.8569L161.671 99.0989V95.2125L233.532 83.8801C233.532 83.8801 236.666 83.1539 234.016 86.7721C231.366 90.3903 185.062 130.662 185.062 130.662L133.7 135.968L55.8062 118.872L56.2707 72.8684C56.2722 72.6598 56.3211 72.4542 56.4138 72.2673C56.5065 72.0805 56.6405 71.9171 56.8057 71.7898C56.9709 71.6624 57.163 71.5743 57.3673 71.5322C57.5716 71.4901 57.7828 71.495 57.9849 71.5467Z" fill="#5AD9F0"/>
<mask id="mask6_448_1774" style="mask-type:luminance" maskUnits="userSpaceOnUse" x="55" y="71" width="181" height="65">
<path d="M57.9849 71.5467L153.472 95.4807V98.8569L161.671 99.0989V95.2125L233.532 83.8801C233.532 83.8801 236.666 83.1539 234.016 86.7721C231.366 90.3903 185.062 130.662 185.062 130.662L133.7 135.968L55.8062 118.872L56.2707 72.8684C56.2722 72.6598 56.3211 72.4542 56.4138 72.2673C56.5065 72.0805 56.6405 71.9171 56.8057 71.7898C56.9709 71.6624 57.163 71.5743 57.3673 71.5322C57.5716 71.4901 57.7828 71.495 57.9849 71.5467Z" fill="white"/>
</mask>
<g mask="url(#mask6_448_1774)">
<path opacity="0.3" d="M153.472 98.8568V95.4807L56.2904 71.1279L55.8127 118.872L133.7 135.994L135.093 135.851L155.651 98.9223L153.472 98.8568Z" fill="black"/>
</g>
<path d="M57.9849 71.5467L153.472 95.4807V98.8569L161.671 99.0989V95.2125L233.532 83.8801C233.532 83.8801 236.666 83.1539 234.016 86.7721C231.366 90.3903 185.062 130.662 185.062 130.662L133.7 135.968L55.8062 118.872L56.2707 72.8684C56.2722 72.6598 56.3211 72.4542 56.4138 72.2673C56.5065 72.0805 56.6405 71.9171 56.8057 71.7898C56.9709 71.6624 57.163 71.5743 57.3673 71.5322C57.5716 71.4901 57.7828 71.495 57.9849 71.5467Z" stroke="#263238" stroke-linecap="round" stroke-linejoin="round"/>
<path d="M153.472 98.8574L132.011 135.995L136.114 136.231L161.671 99.0995L153.472 98.8574Z" fill="#5AD9F0" stroke="#263238" stroke-linecap="round" stroke-linejoin="round"/>
<path d="M225.098 85.3986C225.098 85.3986 231.503 86.5959 230.168 90.8685L234.016 86.7857C234.016 86.7857 235.776 84.5938 234.971 84.1685C234.166 83.7432 225.098 85.3986 225.098 85.3986Z" fill="#263238"/>
<path d="M66.8375 73.9737C66.8375 73.9737 57.7755 76.4797 56.3688 83.2516L56.2903 72.868C56.2903 72.868 56.5651 71.3042 57.998 71.5594C59.4309 71.8146 66.8375 73.9737 66.8375 73.9737Z" fill="#263238"/>
<path d="M55.8978 115.691L60.4517 120.029L55.8127 118.871L55.8978 115.691Z" fill="#263238"/>
<path d="M181.784 130.969L187.96 127.934L184.708 130.754L181.784 130.969Z" fill="#263238"/>
<path d="M179.618 55.0918L196.996 75.9245L192.619 76.618L173.991 60.915C173.991 60.915 178.813 57.7548 179.618 55.0918Z" fill="white" stroke="#263238" stroke-linecap="round" stroke-linejoin="round"/>
<path d="M102.555 68.9493C102.555 68.9493 101.685 67.8958 101.463 68.838C101.24 69.7802 99.2709 73.0517 100.808 73.2807C102.346 73.5097 103.216 69.7737 103.216 69.7737L102.555 68.9493Z" fill="white" stroke="#263238" stroke-linecap="round" stroke-linejoin="round"/>
<path d="M104.636 68.8245C104.636 68.8245 103.759 67.7711 103.543 68.7067C103.327 69.6423 101.351 72.9203 102.889 73.1559C104.427 73.3914 105.303 69.6423 105.303 69.6423L104.636 68.8245Z" fill="white" stroke="#263238" stroke-linecap="round" stroke-linejoin="round"/>
<path d="M106.723 68.7461C106.723 68.7461 105.683 67.575 105.414 68.6153C105.146 69.6556 102.797 73.2935 104.636 73.5552C106.474 73.8169 107.495 69.6294 107.495 69.6294L106.723 68.7461Z" fill="white" stroke="#263238" stroke-linecap="round" stroke-linejoin="round"/>
<path d="M108.542 69.1387L112.049 72.5148H107.894L108.542 69.1387Z" fill="white" stroke="#263238" stroke-linecap="round" stroke-linejoin="round"/>
<path d="M108.542 69.1387C108.542 69.1387 107.502 67.9675 107.234 69.0079C106.965 70.0482 104.616 73.6861 106.455 73.9412C108.294 74.1964 109.314 70.0155 109.314 70.0155L108.542 69.1387Z" fill="white" stroke="#263238" stroke-linecap="round" stroke-linejoin="round"/>
<path d="M201.713 72.1683C201.713 72.1683 202.414 70.9905 202.78 71.8804C203.146 72.7702 205.6 75.7014 204.128 76.1725C202.656 76.6436 201.197 73.0843 201.197 73.0843L201.713 72.1683Z" fill="white" stroke="#263238" stroke-linecap="round" stroke-linejoin="round"/>
<path d="M199.659 72.3646C199.659 72.3646 200.359 71.1868 200.725 72.0767C201.092 72.9665 203.552 75.8977 202.073 76.3688C200.594 76.8399 199.142 73.2806 199.142 73.2806L199.659 72.3646Z" fill="white" stroke="#263238" stroke-linecap="round" stroke-linejoin="round"/>
<path d="M197.591 72.6195C197.591 72.6195 198.435 71.3109 198.854 72.2858C199.273 73.2607 202.126 76.4994 200.398 77.0425C198.671 77.5855 196.963 73.6402 196.963 73.6402L197.591 72.6195Z" fill="white" stroke="#263238" stroke-linecap="round" stroke-linejoin="round"/>
<path d="M195.857 73.2939L192.92 77.1804L197.029 76.5262L195.857 73.2939Z" fill="white" stroke="#263238" stroke-linecap="round" stroke-linejoin="round"/>
<path d="M195.857 73.2933C195.857 73.2933 196.695 71.9847 197.12 72.9596C197.545 73.9345 200.392 77.1667 198.664 77.7098C196.937 78.2528 195.229 74.314 195.229 74.314L195.857 73.2933Z" fill="white" stroke="#263238" stroke-linecap="round" stroke-linejoin="round"/>
<path d="M76.6585 108.239L80.846 107.584L76.6585 106.93C76.2897 106.874 75.9486 106.702 75.6848 106.438C75.4211 106.174 75.2487 105.833 75.1929 105.465L74.5386 101.271L73.8843 105.465C73.8288 105.832 73.6573 106.173 73.3949 106.436C73.1325 106.7 72.7928 106.873 72.4252 106.93L68.2312 107.584L72.4252 108.239C72.7916 108.299 73.1297 108.473 73.3916 108.736C73.6535 108.999 73.8259 109.338 73.8843 109.704L74.5386 113.898L75.1929 109.704C75.2516 109.337 75.4249 108.997 75.6881 108.734C75.9513 108.471 76.2909 108.297 76.6585 108.239Z" fill="white"/>
<path d="M45.3767 136.648L49.5707 135.994L45.3767 135.339C45.0095 135.28 44.6705 135.106 44.4074 134.843C44.1444 134.58 43.9708 134.241 43.9111 133.874L43.2568 129.68L42.6025 133.874C42.5457 134.242 42.373 134.583 42.1094 134.846C41.8459 135.11 41.5052 135.282 41.1369 135.339L36.9429 135.994L41.1369 136.648C41.5052 136.705 41.8459 136.877 42.1094 137.141C42.373 137.405 42.5457 137.745 42.6025 138.114L43.2568 142.308L43.9111 138.114C43.9708 137.746 44.1444 137.407 44.4074 137.144C44.6705 136.881 45.0095 136.708 45.3767 136.648Z" fill="#5AD9F0"/>
<path opacity="0.5" d="M45.3767 136.648L49.5707 135.994L45.3767 135.339C45.0095 135.28 44.6705 135.106 44.4074 134.843C44.1444 134.58 43.9708 134.241 43.9111 133.874L43.2568 129.68L42.6025 133.874C42.5457 134.242 42.373 134.583 42.1094 134.846C41.8459 135.11 41.5052 135.282 41.1369 135.339L36.9429 135.994L41.1369 136.648C41.5052 136.705 41.8459 136.877 42.1094 137.141C42.373 137.405 42.5457 137.745 42.6025 138.114L43.2568 142.308L43.9111 138.114C43.9708 137.746 44.1444 137.407 44.4074 137.144C44.6705 136.881 45.0095 136.708 45.3767 136.648Z" fill="white"/>
<path d="M149.802 154.137L153.996 153.483L149.802 152.829C149.434 152.772 149.094 152.601 148.831 152.338C148.568 152.076 148.394 151.737 148.336 151.37L147.682 147.176L147.028 151.37C146.969 151.737 146.796 152.076 146.533 152.338C146.269 152.601 145.929 152.772 145.562 152.829L141.368 153.483L145.562 154.137C145.929 154.194 146.269 154.366 146.533 154.628C146.796 154.89 146.969 155.229 147.028 155.597L147.682 159.791L148.336 155.597C148.394 155.229 148.568 154.89 148.831 154.628C149.094 154.366 149.434 154.194 149.802 154.137Z" fill="#5AD9F0"/>
<path opacity="0.5" d="M149.802 154.137L153.996 153.483L149.802 152.829C149.434 152.772 149.094 152.601 148.831 152.338C148.568 152.076 148.394 151.737 148.336 151.37L147.682 147.176L147.028 151.37C146.969 151.737 146.796 152.076 146.533 152.338C146.269 152.601 145.929 152.772 145.562 152.829L141.368 153.483L145.562 154.137C145.929 154.194 146.269 154.366 146.533 154.628C146.796 154.89 146.969 155.229 147.028 155.597L147.682 159.791L148.336 155.597C148.394 155.229 148.568 154.89 148.831 154.628C149.094 154.366 149.434 154.194 149.802 154.137Z" fill="white"/>
<path d="M40.0115 114.337L42.7857 113.899L40.0115 113.461C39.7681 113.423 39.543 113.309 39.3689 113.135C39.1947 112.961 39.0807 112.736 39.0432 112.492L38.6113 109.725L38.173 112.492C38.1355 112.736 38.0214 112.961 37.8473 113.135C37.6731 113.309 37.448 113.423 37.2046 113.461L34.4304 113.899L37.2046 114.337C37.448 114.375 37.6731 114.489 37.8473 114.663C38.0214 114.837 38.1355 115.062 38.173 115.306L38.6113 118.073L39.0432 115.306C39.0807 115.062 39.1947 114.837 39.3689 114.663C39.543 114.489 39.7681 114.375 40.0115 114.337Z" fill="#5AD9F0"/>
<path opacity="0.5" d="M40.0115 114.337L42.7857 113.899L40.0115 113.461C39.7681 113.423 39.543 113.309 39.3689 113.135C39.1947 112.961 39.0807 112.736 39.0432 112.492L38.6113 109.725L38.173 112.492C38.1355 112.736 38.0214 112.961 37.8473 113.135C37.6731 113.309 37.448 113.423 37.2046 113.461L34.4304 113.899L37.2046 114.337C37.448 114.375 37.6731 114.489 37.8473 114.663C38.0214 114.837 38.1355 115.062 38.173 115.306L38.6113 118.073L39.0432 115.306C39.0807 115.062 39.1947 114.837 39.3689 114.663C39.543 114.489 39.7681 114.375 40.0115 114.337Z" fill="white"/>
<path d="M219.981 120.461L222.755 120.03L219.981 119.591C219.738 119.553 219.514 119.438 219.34 119.264C219.166 119.09 219.051 118.866 219.013 118.623L218.575 115.849L218.143 118.623C218.104 118.866 217.99 119.09 217.816 119.264C217.642 119.438 217.417 119.553 217.174 119.591L214.4 120.03L217.174 120.461C217.417 120.5 217.642 120.614 217.816 120.788C217.99 120.962 218.104 121.187 218.143 121.43L218.575 124.204L219.013 121.43C219.051 121.187 219.166 120.962 219.34 120.788C219.514 120.614 219.738 120.5 219.981 120.461Z" fill="#5AD9F0"/>
<path opacity="0.5" d="M219.981 120.461L222.755 120.03L219.981 119.591C219.738 119.553 219.514 119.438 219.34 119.264C219.166 119.09 219.051 118.866 219.013 118.623L218.575 115.849L218.143 118.623C218.104 118.866 217.99 119.09 217.816 119.264C217.642 119.438 217.417 119.553 217.174 119.591L214.4 120.03L217.174 120.461C217.417 120.5 217.642 120.614 217.816 120.788C217.99 120.962 218.104 121.187 218.143 121.43L218.575 124.204L219.013 121.43C219.051 121.187 219.166 120.962 219.34 120.788C219.514 120.614 219.738 120.5 219.981 120.461Z" fill="white"/>
<path d="M93.1988 97.404L95.9142 96.9787L93.1988 96.5534C92.9606 96.5161 92.7404 96.4041 92.5699 96.2336C92.3994 96.0631 92.2874 95.8429 92.2501 95.6047L91.8183 92.8828L91.393 95.6047C91.3548 95.8425 91.2425 96.0622 91.0721 96.2325C90.9018 96.4029 90.6821 96.5152 90.4443 96.5534L87.7224 96.9787L90.4443 97.404C90.6821 97.4422 90.9018 97.5545 91.0721 97.7248C91.2425 97.8952 91.3548 98.1149 91.393 98.3527L91.7921 101.101L92.2239 98.3789C92.2575 98.1321 92.371 97.9032 92.547 97.7271C92.7231 97.551 92.9521 97.4375 93.1988 97.404Z" fill="white"/>
<path d="M183.158 124.269L185.879 123.837L183.158 123.412C182.92 123.374 182.7 123.261 182.53 123.091C182.359 122.921 182.247 122.701 182.209 122.463L181.784 119.741L181.358 122.463C181.32 122.701 181.208 122.921 181.037 123.091C180.867 123.261 180.647 123.374 180.41 123.412L177.688 123.837L180.41 124.269C180.648 124.306 180.868 124.418 181.039 124.589C181.209 124.759 181.321 124.979 181.358 125.218L181.784 127.933L182.209 125.218C182.246 124.979 182.358 124.759 182.529 124.589C182.699 124.418 182.919 124.306 183.158 124.269Z" fill="white"/>
</svg>
