<svg width="318" height="331" viewBox="0 0 318 331" fill="none" xmlns="http://www.w3.org/2000/svg">
<path d="M3.00977 96.2494C3.89022 99.7413 3.45745 93.317 5.18106 85.4675C6.90466 77.618 9.86687 80.7966 9.86687 80.7966" stroke="#263238" stroke-linecap="round" stroke-linejoin="round"/>
<path d="M2.47266 88.2278L7.88223 86.0117" stroke="#263238" stroke-linecap="round" stroke-linejoin="round"/>
<path d="M12.3519 83.3477C12.3519 83.3477 9.12104 90.063 13.9934 92.8834" stroke="#263238" stroke-linecap="round" stroke-linejoin="round"/>
<path d="M16.9404 81.4678C16.9404 81.4678 22.2829 84.4524 18.9401 90.8543" stroke="#263238" stroke-linecap="round" stroke-linejoin="round"/>
<path d="M13.2843 85.6162L17.112 88.4068" stroke="#263238" stroke-linecap="round" stroke-linejoin="round"/>
<path d="M16.284 84.3857L13.292 89.1536" stroke="#263238" stroke-linecap="round" stroke-linejoin="round"/>
<path d="M33.4729 155.847C34.201 151.41 31.1947 147.224 26.7582 146.495C22.3217 145.767 18.1349 148.774 17.4068 153.21C16.6787 157.647 19.685 161.833 24.1215 162.562C28.558 163.29 32.7448 160.283 33.4729 155.847Z" stroke="#263238" stroke-linecap="round" stroke-linejoin="round"/>
<path d="M38.3016 166.556C43.1862 165.555 46.3338 160.783 45.3321 155.898C44.3303 151.014 39.5585 147.866 34.6739 148.868C29.7893 149.87 26.6417 154.641 27.6435 159.526C28.6452 164.411 33.4171 167.558 38.3016 166.556Z" stroke="#263238" stroke-linecap="round" stroke-linejoin="round"/>
<path d="M32.856 151.166L29.1104 152.502" stroke="#263238" stroke-linecap="round" stroke-linejoin="round"/>
<path d="M33.3782 152.71L27.991 154.657" stroke="#263238" stroke-linecap="round" stroke-linejoin="round"/>
<path d="M33.5796 154.575L27.5657 156.888" stroke="#263238" stroke-linecap="round" stroke-linejoin="round"/>
<path d="M33.1541 157.12L27.6699 159.627" stroke="#263238" stroke-linecap="round" stroke-linejoin="round"/>
<path d="M32.1845 159.074L28.021 160.805" stroke="#263238" stroke-linecap="round" stroke-linejoin="round"/>
<path d="M29.3713 142.122C29.14 141.376 26.4986 140.913 26.3867 142.868C26.2748 144.823 29.1698 143.197 29.9906 142.122C29.9906 142.122 28.4983 144.129 29.1251 144.525" stroke="#263238" stroke-linecap="round" stroke-linejoin="round"/>
<path d="M43.9957 144.555L41.6528 149.427C41.6528 149.427 42.8243 146.987 44.0778 147.189C45.6223 147.465 44.5927 149.994 42.7273 149.061" stroke="#263238" stroke-linecap="round" stroke-linejoin="round"/>
<path d="M298.962 224.109L302.64 227.586" stroke="#263238" stroke-linecap="round" stroke-linejoin="round"/>
<path d="M302.641 223.198L299.559 227.802" stroke="#263238" stroke-linecap="round" stroke-linejoin="round"/>
<path d="M306.259 224.519L309.945 223.146" stroke="#263238" stroke-linecap="round" stroke-linejoin="round"/>
<path d="M311.714 219.312L313.952 221.289" stroke="#263238" stroke-linecap="round" stroke-linejoin="round"/>
<path d="M315.668 216.931L312.833 226.66" stroke="#263238" stroke-linecap="round" stroke-linejoin="round"/>
<path d="M143.957 169.454L153.858 162.642L166.968 163.559L167.789 180.184L158.164 187.063L146.285 186.198L143.957 169.454Z" stroke="#263238" stroke-linecap="round" stroke-linejoin="round"/>
<path d="M146.285 186.197L155.873 179.295L167.789 180.183" stroke="#263238" stroke-linecap="round" stroke-linejoin="round"/>
<path d="M155.873 179.296L153.859 162.642" stroke="#263238" stroke-linecap="round" stroke-linejoin="round"/>
<path d="M143.957 169.453L157.037 170.968L166.968 163.559" stroke="#263238" stroke-linecap="round" stroke-linejoin="round"/>
<path d="M157.037 170.969L158.164 187.063" stroke="#263238" stroke-linecap="round" stroke-linejoin="round"/>
<path d="M259.521 113.604L255.133 127.237L268.788 125.394L259.521 113.604Z" stroke="#263238" stroke-linecap="round" stroke-linejoin="round"/>
<path d="M259.521 113.604L261.961 126.237" stroke="#263238" stroke-linecap="round" stroke-linejoin="round"/>
<path d="M261.573 124.215L263.169 123.961L263.542 126.102" stroke="#263238" stroke-linecap="round" stroke-linejoin="round"/>
<path d="M87.5635 238.353L94.3833 241.703" stroke="#263238" stroke-linecap="round" stroke-linejoin="round"/>
<path d="M92.182 235.794L90.2271 242.92" stroke="#263238" stroke-linecap="round" stroke-linejoin="round"/>
<path d="M93.1296 232.316C93.2415 232.201 93.3789 232.113 93.5309 232.06C93.683 232.006 93.8453 231.99 94.0049 232.011C94.1646 232.032 94.3171 232.09 94.4501 232.181C94.5832 232.271 94.6932 232.392 94.7712 232.533C95.4576 233.607 94.1145 235.861 94.1145 235.861L96.8529 234.816" stroke="#263238" stroke-linecap="round" stroke-linejoin="round"/>
<path d="M141.107 3.64453C147.621 7.30812 140.159 16.2619 140.159 21.4849C140.159 26.708 147.621 25.9618 151.352 27.4541C152.844 27.4541 155.829 27.4541 155.746 31.2445" stroke="#263238" stroke-linecap="round" stroke-linejoin="round"/>
<path d="M133.847 8.39746C134.981 14.5681 142.055 12.3819 146.397 13.7921C153.859 16.2171 149.718 23.9173 147.494 28.5733C146.158 31.349 144.83 35.2439 147.218 37.8778" stroke="#263238" stroke-linecap="round" stroke-linejoin="round"/>
<path d="M134.802 10.793L142.57 4.33887" stroke="#263238" stroke-linecap="round" stroke-linejoin="round"/>
<path d="M137.846 12.7181L143.696 7.86816" stroke="#263238" stroke-linecap="round" stroke-linejoin="round"/>
<path d="M141.286 17.627L146.226 13.7471" stroke="#263238" stroke-linecap="round" stroke-linejoin="round"/>
<path d="M140.264 23.4323L149.919 16.4932" stroke="#263238" stroke-linecap="round" stroke-linejoin="round"/>
<path d="M143.965 26.1407L150.695 21.2012" stroke="#263238" stroke-linecap="round" stroke-linejoin="round"/>
<path d="M146.83 36.6397L155.239 29.79" stroke="#263238" stroke-linecap="round" stroke-linejoin="round"/>
<path d="M147.039 31.2521L152.523 27.3945" stroke="#263238" stroke-linecap="round" stroke-linejoin="round"/>
<path d="M37.2439 242.07C45.2559 238.865 49.1531 229.773 45.9485 221.761C42.744 213.749 33.6512 209.851 25.6392 213.056C17.6272 216.261 13.73 225.353 16.9346 233.365C20.1391 241.377 29.232 245.275 37.2439 242.07Z" stroke="#263238" stroke-linecap="round" stroke-linejoin="round"/>
<path d="M35.3701 212.446C40.817 206.052 45.4506 202.433 47.2339 203.612C49.9499 205.395 45.0775 217.572 36.3551 230.801C27.6326 244.031 18.358 253.313 15.642 251.522C13.8512 250.351 15.3584 244.665 19.0892 237.136" stroke="#263238" stroke-linecap="round" stroke-linejoin="round"/>
<path d="M16.1496 230.772C8.55381 228.586 3.70385 226.034 4.00977 223.997C4.45 220.774 17.5747 220.027 33.2513 222.378C48.9279 224.728 61.2543 229.183 60.7842 232.391C60.4484 234.63 54.0688 235.652 45.0031 235.309" stroke="#263238" stroke-linecap="round" stroke-linejoin="round"/>
<path d="M18.1419 219.453C12.4115 209.112 9.54629 201.046 11.4863 199.785C14.0381 198.136 23.9022 208.836 33.52 223.662C43.1379 238.488 48.8608 251.888 46.3165 253.545C44.6302 254.634 39.7429 250.321 33.8409 242.979" stroke="#263238" stroke-linecap="round" stroke-linejoin="round"/>
<path d="M49.4351 210.372C49.1569 210.796 48.7592 211.128 48.2923 211.327C47.8254 211.525 47.3103 211.581 46.8118 211.486C46.3134 211.392 45.8541 211.152 45.4919 210.797C45.1297 210.442 44.8809 209.987 44.7768 209.491C44.6727 208.994 44.7181 208.478 44.9071 208.008C45.0962 207.537 45.4205 207.133 45.8391 206.846C46.2577 206.56 46.7518 206.404 47.259 206.398C47.7662 206.392 48.2638 206.536 48.689 206.813C48.9721 206.997 49.2161 207.236 49.407 207.514C49.5978 207.793 49.7317 208.107 49.8011 208.438C49.8704 208.768 49.8737 209.109 49.8109 209.441C49.7481 209.773 49.6204 210.09 49.4351 210.372Z" fill="#263238"/>
<path d="M40.9366 249.686C40.6584 250.111 40.2607 250.443 39.7938 250.641C39.3269 250.839 38.8117 250.895 38.3133 250.801C37.8149 250.706 37.3556 250.467 36.9934 250.111C36.6312 249.756 36.3823 249.302 36.2782 248.805C36.1742 248.309 36.2195 247.793 36.4086 247.322C36.5977 246.851 36.922 246.447 37.3405 246.161C37.7591 245.874 38.2532 245.718 38.7605 245.712C39.2677 245.706 39.7653 245.851 40.1904 246.127C40.4736 246.312 40.7176 246.55 40.9084 246.829C41.0993 247.108 41.2332 247.421 41.3025 247.752C41.3718 248.083 41.3752 248.424 41.3124 248.756C41.2496 249.088 41.1219 249.404 40.9366 249.686Z" fill="#263238"/>
<path d="M27.2222 223.012C26.944 223.436 26.5463 223.768 26.0794 223.966C25.6126 224.165 25.0974 224.22 24.599 224.126C24.1005 224.032 23.6412 223.792 23.279 223.437C22.9168 223.081 22.668 222.627 22.5639 222.131C22.4598 221.634 22.5052 221.118 22.6942 220.647C22.8833 220.176 23.2076 219.772 23.6262 219.486C24.0448 219.199 24.5389 219.043 25.0461 219.037C25.5533 219.031 26.0509 219.176 26.4761 219.453C27.0464 219.826 27.4453 220.411 27.5851 221.078C27.725 221.745 27.5945 222.441 27.2222 223.012Z" fill="#263238"/>
<path d="M190.86 111.329H199.65L204.045 103.718L199.65 96.1074H190.86L186.465 103.718L190.86 111.329Z" stroke="#263238" stroke-linecap="round" stroke-linejoin="round"/>
<path d="M189.584 128.035L185.19 120.424H176.4" stroke="#263238" stroke-linecap="round" stroke-linejoin="round"/>
<path d="M177.579 103.718H186.368L190.763 96.1074L186.368 88.4893H177.579L173.184 96.1074L177.579 103.718Z" stroke="#263238" stroke-linecap="round" stroke-linejoin="round"/>
<path d="M190.86 96.1068H199.65L204.045 88.4886L199.65 80.8779H190.86L186.465 88.4886L190.86 96.1068Z" stroke="#263238" stroke-linecap="round" stroke-linejoin="round"/>
<path d="M190.763 97.2865C191.414 97.2865 191.942 96.7587 191.942 96.1076C191.942 95.4565 191.414 94.9287 190.763 94.9287C190.112 94.9287 189.584 95.4565 189.584 96.1076C189.584 96.7587 190.112 97.2865 190.763 97.2865Z" fill="#263238"/>
<path d="M172.408 81.3041C173.059 81.3041 173.587 80.7763 173.587 80.1252C173.587 79.4741 173.059 78.9463 172.408 78.9463C171.757 78.9463 171.229 79.4741 171.229 80.1252C171.229 80.7763 171.757 81.3041 172.408 81.3041Z" fill="#263238"/>
<path d="M188.405 128.035C188.405 127.802 188.474 127.574 188.604 127.38C188.733 127.187 188.918 127.035 189.133 126.946C189.348 126.857 189.585 126.834 189.814 126.879C190.043 126.925 190.253 127.037 190.418 127.202C190.583 127.367 190.695 127.577 190.74 127.805C190.786 128.034 190.763 128.271 190.673 128.487C190.584 128.702 190.433 128.886 190.239 129.016C190.045 129.145 189.817 129.214 189.584 129.214C189.429 129.214 189.276 129.184 189.133 129.125C188.99 129.065 188.86 128.978 188.751 128.869C188.641 128.76 188.554 128.63 188.495 128.487C188.436 128.343 188.405 128.19 188.405 128.035Z" fill="#263238"/>
<path d="M176.4 121.603C177.051 121.603 177.579 121.075 177.579 120.424C177.579 119.773 177.051 119.245 176.4 119.245C175.749 119.245 175.221 119.773 175.221 120.424C175.221 121.075 175.749 121.603 176.4 121.603Z" fill="#263238"/>
<path d="M212.551 88.7059C212.551 88.4709 212.621 88.2413 212.751 88.046C212.882 87.8507 213.068 87.6987 213.285 87.6091C213.502 87.5195 213.741 87.4965 213.971 87.5429C214.202 87.5893 214.413 87.703 214.579 87.8697C214.744 88.0363 214.857 88.2484 214.902 88.479C214.947 88.7097 214.922 88.9484 214.831 89.1651C214.74 89.3817 214.587 89.5665 214.391 89.6959C214.195 89.8254 213.965 89.8937 213.73 89.8923C213.574 89.8923 213.42 89.8615 213.277 89.8018C213.133 89.7421 213.003 89.6546 212.893 89.5443C212.784 89.4341 212.697 89.3032 212.638 89.1593C212.58 89.0154 212.55 88.8613 212.551 88.7059Z" fill="#263238"/>
<path d="M185.1 121.603C185.751 121.603 186.279 121.075 186.279 120.424C186.279 119.773 185.751 119.245 185.1 119.245C184.449 119.245 183.921 119.773 183.921 120.424C183.921 121.075 184.449 121.603 185.1 121.603Z" fill="#263238"/>
<path d="M202.866 88.7059C202.866 88.4713 202.935 88.2419 203.066 88.0468C203.196 87.8517 203.381 87.6996 203.598 87.6098C203.815 87.52 204.053 87.4966 204.284 87.5423C204.514 87.5881 204.725 87.7011 204.891 87.867C205.057 88.0329 205.17 88.2443 205.216 88.4745C205.261 88.7046 205.238 88.9431 205.148 89.1599C205.058 89.3767 204.906 89.562 204.711 89.6923C204.516 89.8227 204.287 89.8923 204.052 89.8923C203.737 89.8923 203.436 89.7673 203.213 89.5448C202.991 89.3223 202.866 89.0206 202.866 88.7059Z" fill="#263238"/>
<path d="M189.584 111.336C189.583 111.101 189.651 110.871 189.781 110.674C189.911 110.478 190.096 110.325 190.313 110.234C190.53 110.144 190.769 110.119 191 110.165C191.231 110.211 191.443 110.324 191.609 110.49C191.776 110.656 191.889 110.868 191.934 111.099C191.98 111.33 191.956 111.569 191.865 111.786C191.774 112.003 191.621 112.189 191.425 112.318C191.229 112.448 190.998 112.517 190.763 112.515C190.451 112.513 190.152 112.389 189.931 112.168C189.711 111.947 189.586 111.648 189.584 111.336Z" fill="#263238"/>
<path d="M204.052 88.6904H213.73" stroke="#263238" stroke-linecap="round" stroke-linejoin="round"/>
<path d="M190.763 111.336L185.1 120.424" stroke="#263238" stroke-linecap="round" stroke-linejoin="round"/>
<path d="M177.579 88.4893L172.408 80.125" stroke="#263238" stroke-linecap="round" stroke-linejoin="round"/>
<path d="M239.919 58.4864C240.933 55.0597 243.046 52.0617 245.933 49.9548C248.819 47.848 252.318 46.7493 255.891 46.8282C259.464 46.9071 262.911 48.1593 265.702 50.3915C268.492 52.6238 270.471 55.7122 271.332 59.1803" stroke="#263238" stroke-linecap="round" stroke-linejoin="round"/>
<path d="M253.663 79.2589C249.693 78.8045 246.029 76.9055 243.37 73.9237C240.71 70.9418 239.24 67.0856 239.24 63.0898" stroke="#263238" stroke-linecap="round" stroke-linejoin="round"/>
<path d="M271.802 63.0898C271.802 67.4045 270.089 71.5427 267.038 74.5943C263.988 77.646 259.851 79.3614 255.536 79.3633" stroke="#263238" stroke-linecap="round" stroke-linejoin="round"/>
<path d="M272.728 52.7714C277.816 52.1222 281.226 52.4729 281.756 53.9951C282.808 57.0244 271.922 63.5532 257.439 68.5823C242.956 73.6113 230.369 75.223 229.309 72.1862C228.75 70.567 231.6 67.948 236.584 65.0903" stroke="#263238" stroke-linecap="round" stroke-linejoin="round"/>
<path d="M185.1 41.623L186.659 44.7792L190.144 45.2866L187.622 47.7489L188.219 51.2185L185.1 49.577L181.981 51.2185L182.578 47.7489L180.056 45.2866L183.54 44.7792L185.1 41.623Z" stroke="#263238" stroke-linecap="round" stroke-linejoin="round"/>
<path d="M74.9385 33.2142C74.9365 36.0204 73.8214 38.7112 71.8378 40.6961C69.8543 42.6811 67.1643 43.7981 64.3581 43.8021C64.0149 43.8021 63.6791 43.7871 63.3508 43.7573C61.3086 43.5636 59.3667 42.7808 57.7611 41.5041C56.1554 40.2274 54.9553 38.5117 54.3064 36.5657C53.6576 34.6197 53.588 32.5271 54.1062 30.5422C54.6244 28.5574 55.7079 26.7659 57.2252 25.3854C58.7425 24.0048 60.6282 23.0948 62.653 22.7659C64.6778 22.437 66.7546 22.7034 68.6308 23.5326C70.5071 24.3619 72.102 25.7183 73.2218 27.4371C74.3416 29.1558 74.938 31.1629 74.9385 33.2142Z" stroke="#263238" stroke-linecap="round" stroke-linejoin="round"/>
<path d="M73.2449 35.1243C73.2464 35.4493 73.1514 35.7674 72.9719 36.0383C72.7925 36.3092 72.5366 36.5208 72.2368 36.6462C71.937 36.7716 71.6067 36.8051 71.2878 36.7426C70.9689 36.6802 70.6757 36.5244 70.4454 36.2951C70.215 36.0659 70.058 35.7734 69.994 35.4548C69.9301 35.1361 69.9621 34.8057 70.0861 34.5053C70.2102 34.2049 70.4206 33.9481 70.6907 33.7674C70.9608 33.5867 71.2784 33.4902 71.6034 33.4902C72.0375 33.4902 72.4539 33.6621 72.7615 33.9684C73.0692 34.2746 73.243 34.6902 73.2449 35.1243Z" stroke="#263238" stroke-linecap="round" stroke-linejoin="round"/>
<path d="M58.5084 39.288C58.509 39.6769 58.4237 40.0612 58.2586 40.4133C58.0935 40.7654 57.8527 41.0767 57.5533 41.325C56.1619 40.1765 55.0903 38.6885 54.4419 37.0048C54.8525 36.7527 55.3256 36.6208 55.8073 36.6243C56.1603 36.6193 56.5107 36.6846 56.8382 36.8162C57.1657 36.9479 57.4637 37.1433 57.7151 37.3912C57.9664 37.639 58.1659 37.9343 58.3021 38.26C58.4383 38.5856 58.5084 38.9351 58.5084 39.288Z" stroke="#263238" stroke-linecap="round" stroke-linejoin="round"/>
<path d="M71.6032 40.9525C69.6465 42.8056 67.053 43.8366 64.3581 43.8326C64.0148 43.8326 63.6791 43.8177 63.3508 43.7878C63.2907 43.5007 63.2607 43.2082 63.2612 42.9148C63.2617 41.9229 63.5972 40.9602 64.2132 40.1828C64.8293 39.4054 65.6899 38.8588 66.6554 38.6316C67.621 38.4045 68.635 38.5101 69.533 38.9313C70.4311 39.3526 71.1605 40.0648 71.6032 40.9525Z" stroke="#263238" stroke-linecap="round" stroke-linejoin="round"/>
<path d="M61.7913 29.0133C63.1347 29.0133 64.2238 27.9243 64.2238 26.5809C64.2238 25.2375 63.1347 24.1484 61.7913 24.1484C60.4479 24.1484 59.3589 25.2375 59.3589 26.5809C59.3589 27.9243 60.4479 29.0133 61.7913 29.0133Z" stroke="#263238" stroke-linecap="round" stroke-linejoin="round"/>
<path d="M64.0449 33.4909C64.0449 33.7138 63.9788 33.9316 63.855 34.1169C63.7312 34.3022 63.5552 34.4466 63.3494 34.5319C63.1435 34.6171 62.9169 34.6395 62.6984 34.596C62.4798 34.5525 62.2791 34.4452 62.1215 34.2876C61.9639 34.1301 61.8566 33.9293 61.8132 33.7107C61.7697 33.4922 61.792 33.2657 61.8773 33.0598C61.9625 32.8539 62.107 32.6779 62.2922 32.5541C62.4775 32.4303 62.6954 32.3643 62.9182 32.3643C63.0661 32.3643 63.2127 32.3934 63.3494 32.45C63.486 32.5066 63.6103 32.5896 63.7149 32.6943C63.8195 32.7989 63.9025 32.9231 63.9591 33.0598C64.0157 33.1965 64.0449 33.343 64.0449 33.4909Z" stroke="#263238" stroke-linecap="round" stroke-linejoin="round"/>
<path d="M72.9463 27.0367C72.6502 27.1338 72.3401 27.1817 72.0285 27.1785C71.6212 27.1785 71.218 27.0982 70.8418 26.9421C70.4656 26.786 70.1239 26.5572 69.8363 26.2689C69.5487 25.9806 69.3207 25.6383 69.1656 25.2618C69.0104 24.8852 68.931 24.4818 68.932 24.0745C68.9244 23.9453 68.9244 23.8157 68.932 23.6865C70.5302 24.4485 71.9107 25.6006 72.9463 27.0367Z" stroke="#263238" stroke-linecap="round" stroke-linejoin="round"/>
<path d="M316.228 156.075L317.369 153.509L315.519 152.494C315.587 152.042 315.6 151.583 315.556 151.128L317.451 150.203L316.444 147.584L314.415 148.166C314.143 147.801 313.827 147.47 313.474 147.181L314.168 145.181L311.602 144.04L310.579 145.89C310.126 145.834 309.667 145.834 309.214 145.89L308.296 143.995L305.67 145.002L306.259 147.024C305.893 147.301 305.56 147.619 305.267 147.972L303.275 147.278L302.163 149.808L304.013 150.83C303.945 151.282 303.932 151.74 303.976 152.195L302.073 153.113L303.081 155.739L305.11 155.15C305.384 155.516 305.699 155.849 306.05 156.142L305.364 158.135L307.931 159.276L308.945 157.426C309.397 157.494 309.856 157.506 310.311 157.463L311.236 159.366L313.855 158.358L313.273 156.329C313.637 156.055 313.967 155.739 314.258 155.389L316.228 156.075ZM308.423 154.643C307.834 154.381 307.336 153.95 306.991 153.405C306.647 152.859 306.472 152.224 306.488 151.58C306.505 150.935 306.712 150.31 307.084 149.783C307.456 149.256 307.975 148.852 308.577 148.62C309.179 148.389 309.836 148.341 310.465 148.482C311.094 148.624 311.667 148.949 312.111 149.417C312.555 149.884 312.851 150.472 312.961 151.108C313.071 151.743 312.99 152.397 312.728 152.986C312.376 153.776 311.725 154.393 310.918 154.704C310.111 155.014 309.214 154.992 308.423 154.643Z" stroke="#263238" stroke-linecap="round" stroke-linejoin="round"/>
<path d="M302.588 169.245L304.14 165.76L301.633 164.372C301.723 163.76 301.738 163.138 301.678 162.522L304.26 161.268L302.909 157.709L300.156 158.508C299.788 158.009 299.359 157.558 298.88 157.165L299.82 154.449L296.306 152.874L294.925 155.381C294.313 155.293 293.692 155.276 293.075 155.329L291.821 152.755L288.255 154.128L289.053 156.874C288.558 157.248 288.107 157.679 287.71 158.157L285.002 157.247L283.45 160.731L285.957 162.119C285.867 162.732 285.852 163.353 285.912 163.969L283.33 165.223L284.703 168.782L287.457 167.991C287.827 168.488 288.255 168.939 288.732 169.334L287.792 172.043L291.284 173.595L292.665 171.08C293.277 171.172 293.898 171.19 294.515 171.133L295.769 173.707L299.335 172.341L298.537 169.588C299.032 169.216 299.483 168.788 299.88 168.312L302.588 169.245ZM291.993 167.297C291.192 166.94 290.515 166.354 290.048 165.612C289.58 164.87 289.343 164.006 289.367 163.13C289.39 162.253 289.673 161.403 290.18 160.688C290.687 159.972 291.394 159.423 292.213 159.11C293.032 158.796 293.926 158.733 294.781 158.927C295.636 159.122 296.414 159.566 297.016 160.203C297.619 160.84 298.019 161.641 298.166 162.505C298.314 163.37 298.201 164.258 297.843 165.059C297.606 165.59 297.267 166.07 296.845 166.47C296.423 166.87 295.926 167.183 295.382 167.391C294.839 167.599 294.26 167.698 293.678 167.682C293.097 167.666 292.524 167.535 291.993 167.297Z" stroke="#263238" stroke-linecap="round" stroke-linejoin="round"/>
<path d="M147.912 136.168C146.889 138.105 145.735 139.97 144.457 141.749C137.828 150.966 128.087 157.472 117.034 160.066C105.981 162.66 94.3621 161.165 84.3251 155.859C83.2879 155.314 82.2732 154.732 81.3032 154.12C80.3332 153.508 79.3856 152.882 78.4753 152.21C77.371 151.412 76.3114 150.561 75.2967 149.673C75.2317 149.625 75.1717 149.57 75.1176 149.509C68.5055 143.658 63.6726 136.064 61.1712 127.596C58.6699 119.128 58.6008 110.128 60.972 101.622C63.3432 93.1172 68.059 85.4505 74.5806 79.4982C81.1022 73.5459 89.1666 69.5481 97.8525 67.9614C106.538 66.3748 115.495 67.2634 123.7 70.5257C131.905 73.788 139.027 79.2925 144.252 86.4101C149.477 93.5278 152.594 101.972 153.248 110.777C153.902 119.582 152.066 128.394 147.949 136.205L147.912 136.168Z" fill="#407BFF"/>
<mask id="mask0_452_701" style="mask-type:luminance" maskUnits="userSpaceOnUse" x="59" y="67" width="95" height="95">
<path d="M147.912 136.168C146.889 138.105 145.735 139.97 144.457 141.749C137.828 150.966 128.087 157.472 117.034 160.066C105.981 162.66 94.3621 161.165 84.3251 155.859C83.2879 155.314 82.2732 154.732 81.3032 154.12C80.3332 153.508 79.3856 152.882 78.4753 152.21C77.371 151.412 76.3114 150.561 75.2967 149.673C75.2317 149.625 75.1717 149.57 75.1176 149.509C68.5055 143.658 63.6726 136.064 61.1712 127.596C58.6699 119.128 58.6008 110.128 60.972 101.622C63.3432 93.1172 68.059 85.4505 74.5806 79.4982C81.1022 73.5459 89.1666 69.5481 97.8525 67.9614C106.538 66.3748 115.495 67.2634 123.7 70.5257C131.905 73.788 139.027 79.2925 144.252 86.4101C149.477 93.5278 152.594 101.972 153.248 110.777C153.902 119.582 152.066 128.394 147.949 136.205L147.912 136.168Z" fill="white"/>
</mask>
<g mask="url(#mask0_452_701)">
<g opacity="0.6">
<path d="M147.912 136.168C146.889 138.105 145.735 139.97 144.457 141.749L143.547 141.003L141.98 140.175L140.331 139.31L140.607 137.317L140.518 135.519C140.421 133.721 141.719 135.191 142.756 134.646C143.565 134.068 144.218 133.299 144.659 132.408C144.659 132.408 145.405 130.013 145.159 129.05C144.757 127.941 144.283 126.859 143.741 125.812L141.07 129.542L138.831 129.371L136.712 128.252L136.436 125.304L135.347 124.737L134.892 123.043L129.004 121.394L128.333 120.216C127.661 119.037 124.953 118.432 124.953 118.432L125.617 116.895L126.662 115.179C127.714 113.463 128.803 116.313 128.803 116.313L130.049 116.962L132.362 115.022L132.974 112.239L136.742 112.456C136.668 112.079 136.726 111.688 136.905 111.349C137.084 111.01 137.374 110.742 137.727 110.59C138.98 110.098 138.428 107.374 137.951 106.367C137.473 105.36 135.712 106.173 135.712 106.173C135.712 106.173 133.795 103.256 133.534 102.092C133.272 100.928 137.19 101.345 138.869 100.174C140.547 99.0026 139.973 96.6746 139.152 96.6224C138.331 96.5701 140.756 91.3247 145.42 92.7648C146.718 93.1677 147.539 93.0259 148.046 92.5783C151.545 99.3149 153.36 106.799 153.337 114.39C153.314 121.981 151.452 129.453 147.912 136.168Z" fill="white"/>
<path d="M115.283 115.985L113.686 117.992C113.686 117.992 113.007 116.373 112.037 117.246L110.545 118.574L109.463 121.603L107.523 122.857L106.336 122.238L105.217 121.641L104.001 120.999L102.837 123.237L101.889 125.028C102.351 125.907 102.926 126.722 103.598 127.453L105.657 131.087L108.165 132.355C109.21 132.394 110.251 132.519 111.276 132.728L113 133.631L112.388 137.362C112.388 137.362 111.089 139.474 110.224 138.892L109.351 138.317L107.933 143.227L107.874 145.928C107.874 145.928 107.03 146.278 106.18 146.562C105.329 146.846 105.866 146.696 104.083 147.248C102.3 147.801 102.442 147.778 100.994 148.189C99.7601 148.621 98.5727 149.175 97.4498 149.845L97.5767 152.442L94.1668 152.942L92.2566 151.927L92.7267 150.285L92.9506 147.719L92.6894 145.801L91.8686 144.107L94.1668 142.025L93.6594 140.72L92.3536 138.123L89.5929 139.615L88.1752 140.361L84.9668 138.921L84.6161 136.974L83.5416 133.475L82.5418 131.296L80.766 128.893L80.3183 126.826L81.3181 124.931L81.8479 123.931L80.2138 121.73L79.7661 120.163L77.0128 117.664C77.0128 117.664 77.8112 117.611 77.6321 116.5C77.4531 115.388 79.2065 113.515 79.2065 113.515C80.1989 114.037 83.176 116.112 83.176 116.112L85.7801 116.47C85.7801 116.47 86.3024 116.47 86.8098 115.485C87.4024 114.579 88.0985 113.745 88.8841 113C88.8841 113 87.6827 108.829 88.5408 108.27C89.3989 107.71 90.2719 104.979 90.2719 104.979L90.9583 103.673C90.9583 103.673 89.3392 102.965 89.0333 102.106C88.7274 101.248 84.7355 102.39 84.7355 102.39L81.9822 104.3L79.8109 105.979L78.8707 107.762C78.8707 107.762 76.9531 105.457 76.9457 106.748C76.7994 108.071 76.5091 109.374 76.0801 110.635C76.0801 110.635 76.4756 110.844 75.9533 111.844C75.431 112.844 74.8639 112.791 73.7149 112.933C72.2169 112.948 70.72 112.846 69.238 112.627C69.238 112.627 68.4918 115.388 69.0067 115.865L69.514 116.328C69.514 116.328 68.7157 118.335 67.9248 117.917L65.9997 116.903L63.3061 117.992L60.3215 121.29L59.6574 121.156C57.8282 108.887 60.9165 96.3915 68.2506 86.3872C75.5848 76.3829 86.5718 69.6784 98.8227 67.7314C98.9944 68.4776 99.1809 69.179 99.1809 69.179L98.4347 72.8649L97.4797 74.6856L96.6589 76.245L95.5024 78.4387L98.4646 81.1696L97.8304 84.4004L96.2261 85.4077L95.7635 87.8327L98.5168 93.2124L99.263 95.324C98.8023 96.3349 98.5753 97.4367 98.5989 98.5474C98.5989 98.5474 98.9347 100.562 100.405 101.36C101.874 102.159 103.807 103.099 103.807 103.099L103.65 106.083L102.986 106.83L104.091 110.046C107.456 111.366 107.135 112.47 107.456 111.366L107.784 110.269L110.075 109.441L112.992 112.926C113.332 112.921 113.667 113.002 113.967 113.161C114.267 113.32 114.522 113.552 114.708 113.836C115.559 114.91 116.887 113.978 115.283 115.985Z" fill="white"/>
<path d="M75.7369 141.973C75.819 143.033 74.476 144.361 74.476 144.361L75.5728 144.935L75.9086 147.92L75.0803 149.502C69.2116 144.317 64.7352 137.745 62.0601 130.386L62.657 127.222L65.2909 126.849C65.2909 126.849 67.6487 125.282 68.6933 125.7C69.7379 126.118 70.693 128.684 70.693 128.684C70.693 128.684 71.4391 132.146 71.3421 132.079H71.2974H71.3571L72.4315 132.646L72.7374 134.012L71.2451 136.847H68.8425C68.8425 136.847 68.365 136.594 68.3202 137.84C68.3592 138.272 68.4905 138.691 68.7055 139.068C68.9205 139.445 69.2141 139.772 69.5663 140.026L72.1629 139.362L72.8568 136.676L75.4087 136.176C75.4087 136.176 75.043 137.825 75.64 138.138L76.2443 138.459L76.6025 140.429C76.3352 140.587 76.1145 140.814 75.9625 141.085C75.8105 141.356 75.7327 141.662 75.7369 141.973Z" fill="white"/>
<path d="M88.0781 146.196C87.8468 145.554 87.7498 144.995 86.1605 144.159C84.5712 143.323 84.6682 143.622 84.0415 144.316C83.7716 144.673 83.403 144.943 82.9814 145.093C82.5597 145.242 82.1034 145.265 81.6687 145.159C80.6241 144.928 81.1688 146.106 81.1688 146.106L81.4225 149.293L78.4752 152.203C79.3855 152.874 80.3281 153.511 81.3031 154.113L81.9299 152.188L86.8246 153.62C85.7875 153.314 86.3993 151.897 86.3993 151.897L85.3547 151.344C85.3547 151.344 88.3094 146.823 88.0781 146.196Z" fill="white"/>
<path d="M118.909 129.632L117.305 128.013L115.469 128.587L114.723 130.08L114.164 131.154L114.91 132.646L116.402 134.459L117.253 132.833C117.253 132.833 119.618 132.833 120.857 131.467C122.095 130.102 118.909 129.632 118.909 129.632Z" fill="white"/>
<path d="M114.193 122.327L117.178 123.894L117.297 123.192C117.453 122.63 117.728 122.109 118.103 121.663L115.82 119.245L114.193 122.327Z" fill="white"/>
<path d="M113.179 157.061L112.321 155.8L111.321 155.277H108.269L106.531 158.575C106.531 158.575 104.867 158.351 102.681 158.157C100.494 157.963 101.032 158.866 101.032 158.866L100.464 160.941C105.98 161.62 111.573 161.319 116.984 160.053C116.355 159.614 115.703 159.211 115.029 158.844L113.179 157.061Z" fill="white"/>
</g>
</g>
<path d="M147.912 136.168C146.889 138.105 145.735 139.97 144.457 141.749C137.828 150.966 128.087 157.472 117.034 160.066C105.981 162.66 94.3621 161.165 84.3251 155.859C83.2879 155.314 82.2732 154.732 81.3032 154.12C80.3332 153.508 79.3856 152.882 78.4753 152.21C77.371 151.412 76.3114 150.561 75.2967 149.673C75.2317 149.625 75.1717 149.57 75.1176 149.509C68.5055 143.658 63.6726 136.064 61.1712 127.596C58.6699 119.128 58.6008 110.128 60.972 101.622C63.3432 93.1172 68.059 85.4505 74.5806 79.4982C81.1022 73.5459 89.1666 69.5481 97.8525 67.9614C106.538 66.3748 115.495 67.2634 123.7 70.5257C131.905 73.788 139.027 79.2925 144.252 86.4101C149.477 93.5278 152.594 101.972 153.248 110.777C153.902 119.582 152.066 128.394 147.949 136.205L147.912 136.168Z" stroke="#263238" stroke-linecap="round" stroke-linejoin="round"/>
<path d="M116.984 160.053C111.573 161.319 105.98 161.62 100.464 160.941L101.031 158.866C101.031 158.866 100.494 157.963 102.68 158.157C104.867 158.351 106.53 158.575 106.53 158.575L108.269 155.277H111.321L112.321 155.8L113.179 157.061L115.029 158.844C115.702 159.211 116.355 159.614 116.984 160.053Z" stroke="#263238" stroke-linecap="round" stroke-linejoin="round"/>
<path d="M148.076 92.5854C147.569 93.0331 146.748 93.1748 145.45 92.7719C140.786 91.3318 138.369 96.5698 139.182 96.6295C139.995 96.6892 140.57 99.047 138.898 100.181C137.227 101.315 133.302 100.927 133.563 102.099C133.825 103.27 135.742 106.18 135.742 106.18C135.742 106.18 137.458 105.374 137.943 106.374C138.428 107.374 138.98 110.105 137.727 110.597C137.374 110.749 137.084 111.017 136.905 111.356C136.726 111.696 136.668 112.086 136.742 112.463L132.974 112.246L132.362 115.03L130.049 116.97L128.803 116.32C128.803 116.32 127.714 113.47 126.662 115.186L125.617 116.902L124.953 118.439C124.953 118.439 127.661 119.044 128.333 120.223L129.004 121.402L134.892 123.051L135.347 124.744L136.436 125.311L136.712 128.259L138.906 129.408L141.144 129.579L143.816 125.849C144.358 126.896 144.831 127.978 145.233 129.087C145.494 130.049 144.733 132.445 144.733 132.445C144.293 133.336 143.639 134.105 142.831 134.683C141.764 135.228 140.458 133.758 140.592 135.556L140.682 137.354L140.406 139.346L142.055 140.212L143.622 141.04L144.532 141.786" stroke="#263238" stroke-linecap="round" stroke-linejoin="round"/>
<path d="M59.7172 121.155L60.3812 121.29L63.3658 117.992L66.0594 116.902L67.9845 117.917C68.7754 118.335 69.5738 116.328 69.5738 116.328L69.0664 115.865C68.5516 115.388 69.2977 112.627 69.2977 112.627C70.7797 112.845 72.2766 112.948 73.7746 112.933C74.9535 112.791 75.5131 112.836 76.013 111.843C76.513 110.851 76.1399 110.635 76.1399 110.635C76.5689 109.374 76.8591 108.071 77.0054 106.747C77.0054 105.456 78.9305 107.762 78.9305 107.762L79.8706 105.979L81.9748 104.307L84.728 102.397C84.728 102.397 88.7199 101.248 89.0259 102.114C89.3318 102.979 90.9509 103.68 90.9509 103.68L90.2645 104.986C90.2645 104.986 89.384 107.702 88.5334 108.277C87.6828 108.851 88.8766 113.007 88.8766 113.007C88.0911 113.752 87.395 114.586 86.8023 115.492C86.28 116.492 85.7727 116.477 85.7727 116.477L83.1686 116.119C83.1686 116.119 80.184 114.044 79.1991 113.522C79.1991 113.522 77.4456 115.395 77.6247 116.507C77.8038 117.619 77.0054 117.671 77.0054 117.671L79.7587 120.17L80.2064 121.737L81.8405 123.938L81.3107 124.938L80.3108 126.833L80.7585 128.9L82.5344 131.303L83.5417 133.474L84.6311 136.989L84.9817 138.936L88.1902 140.376L89.6079 139.63L92.3686 138.138L93.6744 140.734L94.1817 142.04L91.8836 144.122L92.7044 145.815L92.9655 147.733L92.7417 150.3L92.2716 151.941L94.1817 152.956L97.5916 152.464L97.4648 149.86C98.5877 149.19 99.7751 148.635 101.009 148.203C102.457 147.793 102.315 147.815 104.098 147.263C105.881 146.711 105.337 146.86 106.195 146.577C107.053 146.293 107.888 145.942 107.888 145.942L107.948 143.241L109.366 138.332L110.239 138.906C111.104 139.488 112.403 137.377 112.403 137.377L113.015 133.646L111.254 132.728C110.228 132.519 109.188 132.394 108.142 132.355L105.687 131.064L103.628 127.43C102.956 126.7 102.381 125.884 101.919 125.005L102.867 123.215L104.031 120.976L105.247 121.618L106.366 122.215L107.553 122.834L109.493 121.581L110.575 118.551L112.067 117.223C113.037 116.343 113.716 117.969 113.716 117.969L115.313 115.962C116.917 113.955 115.589 114.888 114.768 113.858C114.581 113.574 114.326 113.342 114.026 113.183C113.726 113.024 113.391 112.943 113.052 112.948L110.134 109.463L107.814 110.344L107.486 111.44C107.165 112.545 107.486 111.44 104.12 110.12L103.016 106.904L103.68 106.158L103.837 103.173C103.837 103.173 101.904 102.225 100.434 101.435C98.9646 100.644 98.6288 98.6216 98.6288 98.6216C98.6052 97.5109 98.8322 96.4091 99.2929 95.3982L98.5467 93.2866L95.7934 87.9069L96.256 85.4819L97.8603 84.4746L98.4945 81.2438L95.6143 78.5129L96.7709 76.3192L97.5916 74.7598L98.5467 72.9392L99.2929 69.2532C99.2929 69.2532 99.1063 68.5667 98.9347 67.8057" stroke="#263238" stroke-linecap="round" stroke-linejoin="round"/>
<path d="M75.334 149.666C75.2761 149.599 75.211 149.539 75.14 149.487L75.9683 147.905L75.6325 144.92L74.5356 144.346C74.5356 144.346 75.8787 143.018 75.7966 141.958C75.7821 141.642 75.8527 141.328 76.001 141.048C76.1493 140.769 76.3699 140.534 76.6398 140.369L76.2816 138.399L75.6773 138.078C75.0803 137.765 75.446 136.116 75.446 136.116L72.8941 136.616L72.2002 139.302L69.6036 139.966C69.2514 139.712 68.9578 139.386 68.7428 139.008C68.5279 138.631 68.3965 138.212 68.3575 137.78C68.4023 136.534 68.8799 136.787 68.8799 136.787H71.2825L72.7748 133.952L72.4688 132.587L71.3944 132.02" stroke="#263238" stroke-linecap="round" stroke-linejoin="round"/>
<path d="M71.3271 132.019C71.4465 132.087 70.678 128.624 70.678 128.624C70.678 128.624 69.7229 126.095 68.6783 125.64C67.6337 125.185 65.2759 126.789 65.2759 126.789L62.642 127.162L62.045 130.326" stroke="#263238" stroke-linecap="round" stroke-linejoin="round"/>
<path d="M81.9301 152.188L81.3034 154.113C80.3085 153.506 79.3659 152.869 78.4755 152.203L81.4227 149.293L81.1691 146.106C81.1691 146.106 80.6244 144.928 81.669 145.159C82.1036 145.265 82.5599 145.242 82.9816 145.093C83.4033 144.943 83.7718 144.673 84.0417 144.316C84.6536 143.622 84.5789 143.323 86.1608 144.159C87.7426 144.995 87.8471 145.554 88.0784 146.196C88.3097 146.838 85.3549 151.367 85.3549 151.367L86.3996 151.919C86.3996 151.919 85.7877 153.337 86.8249 153.643L81.9301 152.188Z" stroke="#263238" stroke-linecap="round" stroke-linejoin="round"/>
<path d="M115.469 128.587L117.305 128.013L118.909 129.632C118.909 129.632 122.08 130.042 120.842 131.423C119.603 132.803 117.238 132.788 117.238 132.788L116.372 134.415L114.88 132.602L114.134 131.109L114.693 130.035L115.469 128.587Z" stroke="#263238" stroke-linecap="round" stroke-linejoin="round"/>
<path d="M118.103 121.663C117.728 122.109 117.453 122.63 117.297 123.192L117.178 123.894L114.193 122.327L115.82 119.245L118.103 121.663Z" stroke="#263238" stroke-linecap="round" stroke-linejoin="round"/>
<path d="M280.025 297.664C276.025 300.992 245.217 322.138 201.254 318.728C198.889 298.716 189.868 216.506 200.127 203.612C200.127 203.612 225.019 191.741 247.948 196.725C270.877 201.709 279.801 206.485 281.435 210.618C282.674 213.745 280.905 271.959 280.025 297.664Z" fill="#263238"/>
<path d="M247.187 205.507C233.98 216.946 216.968 214.528 217.341 205.746C217.401 204.373 218.87 202.672 218.87 202.672L218.356 201.881L216.117 198.501C214.483 195.971 212.439 192.793 211.013 190.48C209.82 188.51 239.584 170.2 239.584 180.728C239.584 195.561 246.866 198.352 246.866 198.352C249.612 199.456 252.171 201.202 247.187 205.507Z" fill="white" stroke="#263238" stroke-linecap="round" stroke-linejoin="round"/>
<path d="M255.536 228.16C255.536 228.16 252.872 237.293 254.133 239.912" stroke="white" stroke-linecap="round" stroke-linejoin="round"/>
<path d="M252.425 201.643C252.425 210.455 226.138 219.088 218.438 210.246" stroke="white" stroke-linecap="round" stroke-linejoin="round"/>
<path d="M230.802 191.472C230.802 191.472 229.041 198.112 220.833 203.298C220.441 202.626 219.809 202.127 219.065 201.903C218.818 201.863 218.566 201.863 218.319 201.903L216.08 198.523C220.326 195.464 230.802 191.472 230.802 191.472Z" fill="#263238"/>
<path d="M234.487 183.309C234.487 183.309 234.398 189.86 232.995 191.196C222.586 201.179 212.409 201.97 210.73 199.337C199.426 181.608 202.097 176.952 200.948 173.915C198.911 168.588 196.411 159.888 197.516 154.62C199.978 142.853 222.139 133.728 233.808 145.562C239.404 151.225 241.173 163.514 239.994 173.751" fill="white"/>
<path d="M234.487 183.309C234.487 183.309 234.398 189.86 232.995 191.196C222.586 201.179 212.409 201.97 210.73 199.337C199.426 181.608 202.097 176.952 200.948 173.915C198.911 168.588 196.411 159.888 197.516 154.62C199.978 142.853 222.139 133.728 233.808 145.562C239.404 151.225 241.173 163.514 239.994 173.751" stroke="#263238" stroke-linecap="round" stroke-linejoin="round"/>
<path d="M202.373 168.438C202.373 168.438 199.262 167.043 198.59 168.707" stroke="#263238" stroke-linecap="round" stroke-linejoin="round"/>
<path d="M209.917 168.543C209.917 168.543 216.386 165.835 219.296 169.125" stroke="#263238" stroke-linecap="round" stroke-linejoin="round"/>
<path d="M217.102 173.132C217.206 174.102 216.736 174.945 216.042 175.027C215.349 175.109 214.707 174.37 214.602 173.4C214.498 172.43 214.968 171.58 215.662 171.505C216.356 171.431 216.968 172.162 217.102 173.132Z" fill="#263238"/>
<path d="M204.417 173.422C204.529 174.392 204.052 175.243 203.358 175.317C202.664 175.392 202.022 174.668 201.918 173.698C201.813 172.728 202.283 171.878 202.977 171.803C203.671 171.729 204.298 172.452 204.417 173.422Z" fill="#263238"/>
<path d="M204.731 170.871C205.634 172.326 205.141 174.811 203.947 178.221C202.754 181.631 203.806 182.862 208.387 183.205" fill="white"/>
<path d="M204.731 170.871C205.634 172.326 205.141 174.811 203.947 178.221C202.754 181.631 203.806 182.862 208.387 183.205" stroke="#263238" stroke-linecap="round" stroke-linejoin="round"/>
<path d="M208.387 189.107C208.387 189.107 214.356 188.562 217.087 187.062" stroke="#263238" stroke-linecap="round" stroke-linejoin="round"/>
<path d="M246.202 155.276C246.202 150.844 241.829 141.749 234.159 140.726C229.749 136.115 223.467 134.422 215.841 136.175C198.217 140.219 192.852 157.619 192.084 160.499C192.009 160.768 191.972 160.917 191.972 160.917L196.687 159.723L194.658 163.685L197.128 165.32L196.561 165.946L199.426 168.707L198.53 163.663C199.083 160.41 202.828 155.858 202.828 155.858C201.461 157.63 200.609 159.745 200.366 161.969C201.858 158.097 210.812 154.508 210.812 154.508C207.91 156.866 206.335 161.477 206.335 161.477C209.096 158.074 215.565 155.873 219.706 154.702C221.101 158.067 223.317 161.581 226.481 163.529C229.466 165.364 229.361 169.155 229.361 169.155C232.573 171.387 234.938 174.636 236.077 178.377L239.688 183.317C239.688 183.317 246.202 175.325 246.202 155.276Z" fill="#263238"/>
<path d="M231.003 170.423C229.794 167.834 234.181 160.82 237.293 161.686C239.039 162.178 241.322 165.364 241.77 168.707C242.217 172.05 239.852 178.407 237.33 179.787C235.726 180.683 234.405 178.243 234.405 178.243" fill="white"/>
<path d="M231.003 170.423C229.794 167.834 234.181 160.82 237.293 161.686C239.039 162.178 241.322 165.364 241.77 168.707C242.217 172.05 239.852 178.407 237.33 179.787C235.726 180.683 234.405 178.243 234.405 178.243" stroke="#263238" stroke-linecap="round" stroke-linejoin="round"/>
<path d="M40.6455 297.067L124.953 277.354L300.805 297.664L255.529 328.629L40.6455 297.067Z" fill="white"/>
<path d="M40.6455 297.067L124.953 277.354L300.805 297.664" fill="white"/>
<path d="M40.6455 297.067L124.953 277.354L300.805 297.664" stroke="#263238" stroke-linecap="round" stroke-linejoin="round"/>
<path d="M113.604 301.022L147.733 285.935L190.882 288.166L171.692 304.573L113.604 301.022Z" fill="white" stroke="#263238" stroke-linecap="round" stroke-linejoin="round"/>
<path d="M201.791 202.866C190.845 207.343 188.487 217.409 169.886 257.186C169.886 257.186 161.626 258.88 157.201 268.915C152.777 278.951 160.186 286.875 168.714 286.606C168.714 286.606 172.139 289.591 179.161 289.285C186.182 288.979 217.214 241.494 217.214 241.494L201.791 202.866Z" fill="#263238"/>
<path d="M173.146 259.521C178.041 263.878 180.854 270.273 179.362 277.361" stroke="white" stroke-linecap="round" stroke-linejoin="round"/>
<path d="M177.87 261.617C177.87 261.617 183.884 262.93 184.816 270.631" stroke="white" stroke-linecap="round" stroke-linejoin="round"/>
<path d="M195.464 239.084C192.622 232.073 191.64 224.447 192.613 216.945" stroke="white" stroke-linecap="round" stroke-linejoin="round"/>
<path d="M194.613 228.937C194.158 232.07 197.396 248.754 197.374 266.296" stroke="white" stroke-linecap="round" stroke-linejoin="round"/>
<path d="M276.436 206.164C290.128 213.044 291.754 234.212 278.838 259.521C269.713 277.384 257.118 303.76 249.149 305.529C241.18 307.297 233.405 302.335 233.405 302.335C233.405 302.335 226.69 302.022 224.661 297.246C219.109 284.196 233.219 267.706 238.74 271.653C238.74 271.653 256.469 233.1 259.7 230.668" fill="#263238"/>
<path d="M223.392 289.315C221.579 280.309 235.756 269.684 238.74 271.653C238.74 271.653 249.268 272.243 250.843 279.525" stroke="white" stroke-linecap="round" stroke-linejoin="round"/>
<path d="M261.96 291.232C268.124 280.36 278.838 259.521 278.838 259.521" stroke="white" stroke-linecap="round" stroke-linejoin="round"/>
<path d="M238.74 271.653C238.74 271.653 246.12 267.236 251.634 271.414" stroke="white" stroke-linecap="round" stroke-linejoin="round"/>
<path d="M241.262 266.288C241.262 266.288 245.336 257.334 249.47 249.127C253.603 240.919 263.065 228.764 266.997 228.175" stroke="white" stroke-linecap="round" stroke-linejoin="round"/>
<path d="M163.499 282.383C162.613 282.339 161.747 282.103 160.962 281.689C148.277 275.07 138.413 264.132 132.474 256.282C130.165 253.282 128.039 250.145 126.109 246.888L129.154 233.846C129.154 233.846 132.019 241.307 143.532 248.642C155.045 255.976 168.722 258.394 173.147 265.803C177.064 272.257 170.162 282.703 163.499 282.383Z" fill="white"/>
<mask id="mask1_452_701" style="mask-type:luminance" maskUnits="userSpaceOnUse" x="126" y="233" width="49" height="50">
<path d="M163.499 282.383C162.613 282.339 161.747 282.103 160.962 281.689C148.277 275.07 138.413 264.132 132.474 256.282C130.165 253.282 128.039 250.145 126.109 246.888L129.154 233.846C129.154 233.846 132.019 241.307 143.532 248.642C155.045 255.976 168.722 258.394 173.147 265.803C177.064 272.257 170.162 282.703 163.499 282.383Z" fill="white"/>
</mask>
<g mask="url(#mask1_452_701)">
<path opacity="0.4" d="M163.499 282.383C163.357 281.439 163.107 280.515 162.753 279.629C160.089 272.959 143.972 259.7 143.972 259.7C140.137 259.58 135.921 257.984 132.489 256.282C130.175 253.283 128.044 250.146 126.109 246.888L129.154 233.846C129.154 233.846 132.019 241.307 143.532 248.642C155.045 255.976 168.722 258.394 173.147 265.803C177.064 272.257 170.162 282.703 163.499 282.383Z" fill="#407BFF"/>
</g>
<path d="M163.499 282.383C162.613 282.339 161.747 282.103 160.962 281.689C148.277 275.07 138.413 264.132 132.474 256.282C130.165 253.282 128.039 250.145 126.109 246.888L129.154 233.846C129.154 233.846 132.019 241.307 143.532 248.642C155.045 255.976 168.722 258.394 173.147 265.803C177.064 272.257 170.162 282.703 163.499 282.383Z" stroke="#263238" stroke-linecap="round" stroke-linejoin="round"/>
<path d="M134.772 246.097C134.772 246.097 133.198 253.052 129.049 251.492C126.811 250.649 122.498 243.963 121.685 240.591L134.772 246.097Z" fill="white" stroke="#263238" stroke-linecap="round" stroke-linejoin="round"/>
<path d="M116.484 203.276L119.872 201.53C119.872 201.53 129.445 201.612 135.384 206.44C140.779 210.827 143.517 217.699 143.517 217.699C143.517 217.699 164.476 206.127 185.883 212.767L194.613 261.424L154.478 264.05L129.43 240.255L116.484 203.276Z" fill="white" stroke="#263238" stroke-linecap="round" stroke-linejoin="round"/>
<path d="M197.374 263.371C197.374 263.371 192.666 263.229 186.368 263.438C176.847 263.736 163.693 264.811 157.679 268.31L157.395 268.213L151.889 266.288L151.777 266.124C150.762 264.632 142.577 252.88 130.885 248.097L114.35 201.896C114.35 201.896 131.512 202.642 140.891 218.147L145.599 219.848C145.599 219.848 173.617 211.551 189.301 214.535L197.374 263.371Z" fill="#407BFF"/>
<mask id="mask2_452_701" style="mask-type:luminance" maskUnits="userSpaceOnUse" x="114" y="201" width="84" height="68">
<path d="M197.374 263.371C197.374 263.371 192.666 263.229 186.368 263.438C176.847 263.736 163.693 264.811 157.679 268.31L157.395 268.213L151.889 266.288L151.777 266.124C150.762 264.632 142.577 252.88 130.885 248.097L114.35 201.896C114.35 201.896 131.512 202.642 140.891 218.147L145.599 219.848C145.599 219.848 173.617 211.551 189.301 214.535L197.374 263.371Z" fill="white"/>
</mask>
<g mask="url(#mask2_452_701)">
<path opacity="0.3" d="M151.777 266.132C150.762 264.639 142.577 252.888 130.885 248.105L114.35 201.903C114.35 201.903 131.512 202.649 140.891 218.154L151.777 266.132Z" fill="black" fill-opacity="0.7"/>
<path opacity="0.3" d="M186.368 263.438C176.847 263.737 163.693 264.811 157.679 268.311L157.395 268.214L146.397 221.52C146.397 221.52 155.396 219.498 158.164 220.52C158.156 220.535 176.452 234.033 186.368 263.438Z" fill="black" fill-opacity="0.7"/>
</g>
<path d="M197.374 263.371C197.374 263.371 192.666 263.229 186.368 263.438C176.847 263.736 163.693 264.811 157.679 268.31L157.395 268.213L151.889 266.288L151.777 266.124C150.762 264.632 142.577 252.88 130.885 248.097L114.35 201.896C114.35 201.896 131.512 202.642 140.891 218.147L145.599 219.848C145.599 219.848 173.617 211.551 189.301 214.535L197.374 263.371Z" stroke="#263238" stroke-linecap="round" stroke-linejoin="round"/>
<path d="M145.614 219.855L156.41 264.647" stroke="#263238" stroke-linecap="round" stroke-linejoin="round"/>
<path d="M151.889 266.296L141.398 221.534" stroke="#263238" stroke-linecap="round" stroke-linejoin="round"/>
<path d="M125.236 246.926C122.841 246.261 118.014 231.868 120.222 225.668C120.222 225.668 122.849 221.109 123.953 220.795C125.624 220.31 132.369 220.452 132.041 221.586C131.295 224.213 126.117 224.168 126.117 224.168L124.438 227.242L124.505 228.936C124.505 228.936 126.945 227.16 127.84 227.212C128.303 227.212 130.691 228.406 132.586 229.406C134.205 230.264 135.197 230.734 134.824 231.51C133.623 234.092 128.512 232.256 128.512 232.256L126.587 235.159C126.587 235.159 128.445 235.48 129.258 235.569C130.071 235.659 136.824 240.158 136.623 240.718C135.824 242.911 129.422 240.539 129.422 240.539L128.288 241.486C128.288 241.486 133.004 242.702 133.511 242.881C134.257 243.158 137.13 245.366 137.085 245.62C136.742 247.56 132.78 246.135 132.78 246.135L129.31 245.993C128.782 246.459 128.146 246.787 127.46 246.948" fill="white"/>
<path d="M125.236 246.926C122.841 246.261 118.014 231.868 120.222 225.668C120.222 225.668 122.849 221.109 123.953 220.795C125.624 220.31 132.369 220.452 132.041 221.586C131.295 224.213 126.117 224.168 126.117 224.168L124.438 227.242L124.505 228.936C124.505 228.936 126.945 227.16 127.84 227.212C128.303 227.212 130.691 228.406 132.586 229.406C134.205 230.264 135.197 230.734 134.824 231.51C133.623 234.092 128.512 232.256 128.512 232.256L126.587 235.159C126.587 235.159 128.445 235.48 129.258 235.569C130.071 235.659 136.824 240.158 136.623 240.718C135.824 242.911 129.422 240.539 129.422 240.539L128.288 241.486C128.288 241.486 133.004 242.702 133.511 242.881C134.257 243.158 137.13 245.366 137.085 245.62C136.742 247.56 132.78 246.135 132.78 246.135L129.31 245.993C128.782 246.459 128.146 246.787 127.46 246.948" stroke="#263238" stroke-linecap="round" stroke-linejoin="round"/>
<path d="M124.475 228.937C124.475 228.937 122.237 230.817 121.662 231.362C121.088 231.906 121.229 233.637 121.229 233.637" stroke="#263238" stroke-linecap="round" stroke-linejoin="round"/>
<path d="M122.856 237.457C122.856 239.352 124.125 240.501 124.707 241.113C125.289 241.725 123.774 243.389 125.453 244.583" stroke="#263238" stroke-linecap="round" stroke-linejoin="round"/>
<path d="M233.375 297.53C228.637 298.821 223.489 290.494 217.206 281.406C213.058 275.437 208.417 269.072 203.082 264.99C202.657 264.67 202.224 264.356 201.791 264.058L204.91 248.389C211.386 251.784 215.401 257.223 222.124 262.812C232.943 271.818 242.531 277.347 245.187 281.331C247.843 285.316 241.494 295.314 233.375 297.53Z" fill="white"/>
<mask id="mask3_452_701" style="mask-type:luminance" maskUnits="userSpaceOnUse" x="201" y="248" width="45" height="50">
<path d="M233.375 297.53C228.637 298.821 223.489 290.494 217.206 281.406C213.058 275.437 208.417 269.072 203.082 264.99C202.657 264.67 202.224 264.356 201.791 264.058L204.91 248.389C211.386 251.784 215.401 257.223 222.124 262.812C232.943 271.818 242.531 277.347 245.187 281.331C247.843 285.316 241.494 295.314 233.375 297.53Z" fill="white"/>
</mask>
<g mask="url(#mask3_452_701)">
<path opacity="0.4" d="M217.207 281.399C213.058 275.429 208.417 269.065 203.082 264.983C203.785 265.019 204.488 264.913 205.149 264.67C205.149 264.67 213.58 271.512 217.207 281.399Z" fill="#407BFF"/>
</g>
<path d="M233.375 297.53C228.637 298.821 223.489 290.494 217.206 281.406C213.058 275.437 208.417 269.072 203.082 264.99C202.657 264.67 202.224 264.356 201.791 264.058L204.91 248.389C211.386 251.784 215.401 257.223 222.124 262.812C232.943 271.818 242.531 277.347 245.187 281.331C247.843 285.316 241.494 295.314 233.375 297.53Z" stroke="#263238" stroke-linecap="round" stroke-linejoin="round"/>
<path d="M206.656 263.438C206.332 264.017 205.798 264.45 205.164 264.647C204.995 264.713 204.823 264.77 204.649 264.819H204.507C199.5 266.124 188.234 263.408 188.234 263.408C188.234 263.408 180.854 259.901 180.407 259.073C180.095 258.417 179.818 257.744 179.578 257.059L179.377 256.469C179.377 256.469 176.721 254.977 176.392 253.813C176.064 252.649 175.504 252.321 177.138 252.112C178.772 251.903 187.584 252.112 187.584 252.112L177.996 248.202C177.996 248.202 171.647 245.001 171.057 243.874C170.468 242.747 169.729 242.001 172.975 242.449C176.221 242.897 183.309 244.956 183.309 244.956L188.898 246.142L183.346 243.777C183.346 243.777 172.423 242.456 174.49 239.062H180.69C184.203 239.217 187.696 239.661 191.136 240.39C192.942 240.942 204.88 248.359 204.88 248.359" fill="white"/>
<mask id="mask4_452_701" style="mask-type:luminance" maskUnits="userSpaceOnUse" x="170" y="239" width="37" height="27">
<path d="M206.656 263.438C206.332 264.017 205.798 264.45 205.164 264.647C204.995 264.713 204.823 264.77 204.649 264.819H204.507C199.5 266.124 188.234 263.408 188.234 263.408C188.234 263.408 180.854 259.901 180.407 259.073C180.095 258.417 179.818 257.744 179.578 257.059L179.377 256.469C179.377 256.469 176.721 254.977 176.392 253.813C176.064 252.649 175.504 252.321 177.138 252.112C178.772 251.903 187.584 252.112 187.584 252.112L177.996 248.202C177.996 248.202 171.647 245.001 171.057 243.874C170.468 242.747 169.729 242.001 172.975 242.449C176.221 242.897 183.309 244.956 183.309 244.956L188.898 246.142L183.346 243.777C183.346 243.777 172.423 242.456 174.49 239.062H180.69C184.203 239.217 187.696 239.661 191.136 240.39C192.942 240.942 204.88 248.359 204.88 248.359" fill="white"/>
</mask>
<g mask="url(#mask4_452_701)">
<path opacity="0.4" d="M204.492 264.849C199.485 266.155 188.219 263.439 188.219 263.439C188.219 263.439 180.839 259.932 180.391 259.103C180.08 258.447 179.803 257.775 179.563 257.089L188.621 258.081C188.305 258.652 188.138 259.294 188.138 259.947C188.138 260.599 188.305 261.241 188.621 261.812C189.629 263.625 201.105 265.461 204.492 264.849Z" fill="#407BFF"/>
</g>
<path d="M206.656 263.438C206.332 264.017 205.798 264.45 205.164 264.647C204.995 264.713 204.823 264.77 204.649 264.819H204.507C199.5 266.124 188.234 263.408 188.234 263.408C188.234 263.408 180.854 259.901 180.407 259.073C180.095 258.417 179.818 257.744 179.578 257.059L179.377 256.469C179.377 256.469 176.721 254.977 176.392 253.813C176.064 252.649 175.504 252.321 177.138 252.112C178.772 251.903 187.584 252.112 187.584 252.112L177.996 248.202C177.996 248.202 171.647 245.001 171.057 243.874C170.468 242.747 169.729 242.001 172.975 242.449C176.221 242.897 183.309 244.956 183.309 244.956L188.898 246.142L183.346 243.777C183.346 243.777 172.423 242.456 174.49 239.062H180.69C184.203 239.217 187.696 239.661 191.136 240.39C192.942 240.942 204.88 248.359 204.88 248.359" stroke="#263238" stroke-linecap="round" stroke-linejoin="round"/>
<path d="M179.362 256.499L190.263 258.103" stroke="#263238" stroke-linecap="round" stroke-linejoin="round"/>
<path d="M70.6929 289.881L98.0168 298.089L148.009 286.68C148.009 286.68 117.476 278.01 117.193 278.227C116.909 278.443 70.6929 289.881 70.6929 289.881Z" fill="#407BFF"/>
<mask id="mask5_452_701" style="mask-type:luminance" maskUnits="userSpaceOnUse" x="70" y="278" width="79" height="21">
<path d="M70.6929 289.881L98.0168 298.089L148.009 286.68C148.009 286.68 117.476 278.01 117.193 278.227C116.909 278.443 70.6929 289.881 70.6929 289.881Z" fill="white"/>
</mask>
<g mask="url(#mask5_452_701)">
<path opacity="0.3" d="M70.6929 289.881L98.0168 298.089L148.009 286.68C148.009 286.68 117.476 278.01 117.193 278.227C116.909 278.443 70.6929 289.881 70.6929 289.881Z" fill="black" fill-opacity="0.7"/>
</g>
<path d="M70.6929 289.881L98.0168 298.089L148.009 286.68C148.009 286.68 117.476 278.01 117.193 278.227C116.909 278.443 70.6929 289.881 70.6929 289.881Z" stroke="#263238" stroke-linecap="round" stroke-linejoin="round"/>
<path d="M71.0886 280.256C69.171 280.39 68.6934 287.299 70.6931 289.881L114.835 280.718L118.372 272.347L71.0886 280.256Z" fill="#407BFF"/>
<mask id="mask6_452_701" style="mask-type:luminance" maskUnits="userSpaceOnUse" x="69" y="272" width="50" height="18">
<path d="M71.0886 280.256C69.171 280.39 68.6934 287.299 70.6931 289.881L114.835 280.718L118.372 272.347L71.0886 280.256Z" fill="white"/>
</mask>
<g mask="url(#mask6_452_701)">
<path opacity="0.3" d="M71.0886 280.256C69.171 280.39 68.6934 287.299 70.6931 289.881L114.835 280.718L118.372 272.347L71.0886 280.256Z" fill="black" fill-opacity="0.7"/>
</g>
<path d="M71.0886 280.256C69.171 280.39 68.6934 287.299 70.6931 289.881L114.835 280.718L118.372 272.347L71.0886 280.256Z" stroke="#263238" stroke-linecap="round" stroke-linejoin="round"/>
<path d="M145.867 280.159C145.867 280.159 145.211 283.793 145.636 286.031L97.9646 296.821L72.8343 289.419C72.8343 289.419 70.2228 284.8 72.4986 281.211L118.417 273.414L145.867 280.159Z" fill="white" stroke="#263238" stroke-linecap="round" stroke-linejoin="round"/>
<path d="M71.0884 280.256L118.372 272.347L147.733 279.786L98.3526 289.627L71.0884 280.256Z" fill="#407BFF" stroke="#263238" stroke-linecap="round" stroke-linejoin="round"/>
<path d="M72.7671 284.674L97.7705 292.12L138.697 283.883" stroke="#263238" stroke-linecap="round" stroke-linejoin="round"/>
<path d="M145.502 284.644L101.494 294.03" stroke="#263238" stroke-linecap="round" stroke-linejoin="round"/>
<path d="M73.3564 287.605C73.737 287.643 92.2041 293.328 92.2041 293.328" stroke="#263238" stroke-linecap="round" stroke-linejoin="round"/>
<path d="M141.905 282.92L145.405 282.353" stroke="#263238" stroke-linecap="round" stroke-linejoin="round"/>
<path d="M96.9573 294.709L95.0994 294.291" stroke="#263238" stroke-linecap="round" stroke-linejoin="round"/>
<path d="M72.4987 281.211C73.4772 282.338 74.0434 283.765 74.1044 285.256C74.1654 286.747 73.7176 288.215 72.8345 289.419C72.017 288.219 71.5522 286.814 71.4928 285.363C71.4335 283.912 71.7819 282.474 72.4987 281.211Z" fill="#263238"/>
<mask id="mask7_452_701" style="mask-type:luminance" maskUnits="userSpaceOnUse" x="71" y="281" width="4" height="9">
<path d="M72.4987 281.211C73.4772 282.338 74.0434 283.765 74.1044 285.256C74.1654 286.747 73.7176 288.215 72.8345 289.419C72.017 288.219 71.5522 286.814 71.4928 285.363C71.4335 283.912 71.7819 282.474 72.4987 281.211Z" fill="white"/>
</mask>
<g mask="url(#mask7_452_701)">
<path opacity="0.3" d="M72.4987 281.211C73.4772 282.338 74.0434 283.765 74.1044 285.256C74.1654 286.747 73.7176 288.215 72.8345 289.419C72.017 288.219 71.5522 286.814 71.4928 285.363C71.4335 283.912 71.7819 282.474 72.4987 281.211Z" fill="white" fill-opacity="0.7"/>
</g>
<path d="M72.4987 281.211C73.4772 282.338 74.0434 283.765 74.1044 285.256C74.1654 286.747 73.7176 288.215 72.8345 289.419C72.017 288.219 71.5522 286.814 71.4928 285.363C71.4335 283.912 71.7819 282.474 72.4987 281.211Z" stroke="#263238" stroke-linecap="round" stroke-linejoin="round"/>
<path d="M174.624 292.12L222.34 294.075L217.692 310.498L158.992 308.259L174.624 292.12Z" fill="white"/>
<mask id="mask8_452_701" style="mask-type:luminance" maskUnits="userSpaceOnUse" x="158" y="292" width="65" height="19">
<path d="M174.624 292.12L222.34 294.075L217.692 310.498L158.992 308.259L174.624 292.12Z" fill="white"/>
</mask>
<g mask="url(#mask8_452_701)">
<path opacity="0.4" d="M174.624 292.12L222.34 294.075L217.692 310.498L158.992 308.259L174.624 292.12Z" fill="#407BFF"/>
</g>
<path d="M174.624 292.12L222.34 294.075L217.692 310.498L158.992 308.259L174.624 292.12Z" stroke="#263238" stroke-linecap="round" stroke-linejoin="round"/>
</svg>
