<svg width="294" height="259" viewBox="0 0 294 259" fill="none" xmlns="http://www.w3.org/2000/svg">
<path d="M58.0273 246.631C71.8966 236.943 75.0475 218.96 74.4954 202.788C74.4011 200.095 74.6974 197.247 73.4182 194.877C72.139 192.507 69.1362 190.891 66.6855 192.029C64.6657 192.972 63.8107 195.308 62.6863 197.233C61.1918 199.811 58.9975 201.912 56.3576 203.293C54.6408 204.182 52.52 204.727 50.8234 203.791C48.4939 202.512 48.2178 199.294 48.238 196.607C48.265 191.607 48.2942 186.605 48.3256 181.6C48.3256 178.907 48.3256 176.18 47.5177 173.629C46.7097 171.077 44.8246 168.721 42.2864 168C39.7482 167.28 36.5771 168.761 36.0385 171.367C35.8096 172.457 36.0385 173.595 35.9577 174.733C35.8769 175.871 35.3652 177.083 34.3082 177.426C33.2512 177.769 32.1605 176.982 31.3593 176.194C28.5922 173.501 26.7138 169.993 24.9565 166.519C23.1993 163.045 21.496 159.497 18.9779 156.541C16.4599 153.586 12.9859 151.243 9.14828 151.027C5.31067 150.812 1.20375 153.182 0.234247 156.952C-0.735255 160.722 1.46632 164.573 3.86988 167.637C7.45557 172.166 11.6781 176.153 16.4061 179.473C17.2477 180.079 18.17 180.725 18.4932 181.721C19.0722 183.506 17.3756 185.283 15.6116 185.875C13.5918 186.549 11.4441 186.333 9.35026 186.549C7.2564 186.764 4.96057 187.781 4.17285 189.727C3.06869 192.494 5.36453 195.342 7.65363 197.206C12.1769 200.974 17.3148 203.935 22.8425 205.959C24.8219 206.686 26.8821 207.305 28.4912 208.706C30.1003 210.106 27.6092 215.001 26.6464 216.893C25.6837 218.785 26.6464 216.893 24.5795 216.509C22.5126 216.125 20.6611 215.001 18.6884 214.26C15.0057 212.867 10.239 213.122 7.87581 216.28C6.3273 218.374 6.18591 221.296 6.97363 223.794C7.76135 226.292 9.35026 228.439 11.0132 230.425C16.9245 237.36 24.4785 242.941 33.0492 245.91C41.6199 248.88 49.5307 249.681 58.0341 246.584" fill="#EBEBEB"/>
<path d="M58.2428 258.616C57.4904 251.12 56.0227 243.714 53.8599 236.499C51.1744 227.692 47.9868 219.047 44.313 210.605L41.4583 203.94C40.5158 201.758 39.5867 199.59 38.5431 197.53C36.54 193.579 34.3193 189.743 31.8913 186.038C29.5887 182.483 27.2794 179.19 25.098 176.127C22.9166 173.064 20.8093 170.263 18.7895 167.779C15.6135 163.853 12.1307 160.186 8.3741 156.811C7.02757 155.613 5.99074 154.717 5.27035 154.118L4.44223 153.445C4.35175 153.36 4.25243 153.286 4.146 153.223C4.2237 153.317 4.31177 153.403 4.40857 153.478L5.20302 154.192C5.87629 154.812 6.94005 155.727 8.24618 156.946C11.9331 160.374 15.3604 164.072 18.5 168.008C20.5198 170.499 22.5396 173.313 24.7412 176.376C26.9427 179.44 29.2049 182.739 31.4738 186.293C33.8891 189.985 36.1007 193.806 38.0988 197.739C39.1356 199.759 40.058 201.933 40.9938 204.128L43.8417 210.78C47.5207 219.209 50.7238 227.838 53.4357 236.627C55.6126 243.811 57.1094 251.185 57.9062 258.649" fill="#E0E0E0"/>
<path d="M38.4014 197.516C38.5321 197.145 38.6202 196.761 38.664 196.371C38.8054 195.63 38.9737 194.553 39.1622 193.213C39.5393 190.52 39.9365 186.831 40.3606 182.744C40.7848 178.657 41.2359 174.988 41.6533 172.295C41.862 170.949 42.0371 169.892 42.1717 169.144C42.2647 168.763 42.3144 168.372 42.3198 167.979C42.1694 168.342 42.0566 168.719 41.9832 169.104C41.7947 169.838 41.559 170.908 41.3099 172.235C40.805 174.887 40.2933 178.59 39.8759 182.684C39.4585 186.777 39.0949 190.379 38.8121 193.166C38.6775 194.425 38.563 195.482 38.4755 196.337C38.4068 196.726 38.382 197.121 38.4014 197.516Z" fill="#E0E0E0"/>
<path d="M3.89697 191.066C4.33967 191.163 4.79043 191.22 5.2435 191.234C6.13221 191.308 7.41142 191.416 8.99359 191.604C12.1512 191.941 16.5005 192.567 21.2672 193.463C26.0339 194.358 30.3159 195.375 33.386 196.196C34.9278 196.593 36.1666 196.943 37.0216 197.186C37.459 197.338 37.9099 197.449 38.3681 197.516C37.9548 197.302 37.5219 197.128 37.0755 196.997C36.2339 196.701 35.0086 196.324 33.4802 195.853C30.4169 194.944 26.1349 193.887 21.3615 192.971C16.588 192.055 12.2051 191.503 9.02725 191.248C7.43835 191.113 6.14568 191.059 5.25697 191.039C4.80374 191.007 4.3486 191.016 3.89697 191.066Z" fill="#E0E0E0"/>
<path d="M53.4355 235.859C53.4355 235.859 53.5365 235.725 53.6779 235.442L54.2637 234.189C54.7753 233.105 55.4688 231.496 56.2835 229.537C57.9464 225.585 60.0739 220.051 62.3428 213.917C64.6117 207.784 66.6854 202.23 68.2608 198.251L70.146 193.538C70.348 193.026 70.5163 192.602 70.6509 192.252C70.7205 192.106 70.7703 191.952 70.799 191.794C70.7031 191.922 70.6239 192.063 70.5634 192.211L69.9709 193.457C69.466 194.548 68.7725 196.15 67.9511 198.116C66.2882 202.068 64.1607 207.602 61.8918 213.742C59.6229 219.883 57.5559 225.424 55.9738 229.403C55.1995 231.342 54.5666 232.93 54.0886 234.115C53.8866 234.627 53.7183 235.051 53.5837 235.401C53.5181 235.548 53.4685 235.702 53.4355 235.859Z" fill="#E0E0E0"/>
<path d="M7.57959 221.081C7.7222 221.166 7.87644 221.229 8.03741 221.27L9.38394 221.721L14.2988 223.31C18.4394 224.656 24.1486 226.575 30.4571 228.696C36.7656 230.816 42.4817 232.702 46.6626 233.961C48.7498 234.593 50.4396 235.085 51.6179 235.401L52.9644 235.758C53.1184 235.811 53.2796 235.841 53.4424 235.846C53.301 235.763 53.1493 235.7 52.9913 235.657L51.6448 235.213L46.7367 233.624C42.5894 232.277 36.8868 230.359 30.5783 228.238C24.2698 226.117 18.5538 224.232 14.3863 222.973C12.2992 222.34 10.6026 221.849 9.42434 221.532L8.07781 221.175C7.91567 221.126 7.7486 221.094 7.57959 221.081Z" fill="#E0E0E0"/>
<path d="M227.946 10.9678L190.89 101.461L257.415 128.176L293.906 38.2754L227.946 10.9678Z" fill="#E6E6E6"/>
<path d="M227.946 10.9678L293.926 38.2013H294L293.966 38.2754C283.719 63.5363 271.116 94.621 257.495 128.19L257.462 128.277H257.367L256.883 128.082L190.849 101.549H190.768L190.802 101.468L227.946 10.9678L190.97 101.495L190.923 101.381L256.963 127.894L257.448 128.089L257.32 128.143C270.954 94.5806 283.578 63.5094 293.831 38.2417L293.872 38.3427L227.946 10.9678Z" fill="#E6E6E6"/>
<path d="M223.092 2.33008L186.035 92.8236L252.56 119.546L289.051 29.6377L223.092 2.33008Z" fill="#FAFAFA"/>
<path d="M223.099 2.33008L289.079 29.5636H289.153V29.6377L252.648 119.579L252.615 119.673L252.527 119.633L252.042 119.438L186.002 92.9111L185.921 92.8775L185.955 92.79L223.099 2.33008L186.116 92.8506L186.069 92.7361L252.11 119.256L252.594 119.445L252.473 119.498C266.1 85.9361 278.73 54.8649 288.978 29.5973L289.018 29.705L223.099 2.33008Z" fill="#EBEBEB"/>
<path d="M273.169 43.3923C273.108 43.5471 261.575 39.1911 247.41 33.6636C233.244 28.1361 221.826 23.5646 221.859 23.3963C221.893 23.228 233.453 27.5975 247.619 33.125C261.784 38.6525 273.23 43.2442 273.169 43.3923Z" fill="#E0E0E0"/>
<path d="M270.624 51.6738C270.563 51.8219 259.03 47.4659 244.865 41.9451C230.699 36.4243 219.281 31.8461 219.315 31.6711C219.348 31.496 230.908 35.879 245.074 41.4065C259.239 46.934 270.678 51.5257 270.624 51.6738Z" fill="#E0E0E0"/>
<path d="M262.02 76.7588C261.966 76.9069 250.426 72.5508 236.261 67.0301C222.095 61.5093 210.677 56.9311 210.717 56.756C210.757 56.581 222.304 60.9639 236.476 66.4847C250.648 72.0055 262.08 76.6106 262.02 76.7588Z" fill="#E0E0E0"/>
<path d="M257.96 85.2363C257.906 85.3844 246.367 81.0284 232.201 75.5076C218.036 69.9868 206.617 65.4086 206.657 65.2336C206.698 65.0585 218.244 69.4348 232.416 74.9623C246.589 80.4898 258.021 85.0814 257.96 85.2363Z" fill="#E0E0E0"/>
<path d="M254.587 93.7929C254.526 93.941 242.993 89.585 228.828 84.0642C214.662 78.5435 203.244 73.9653 203.284 73.7902C203.325 73.6152 214.871 77.9981 229.043 83.5189C243.216 89.0397 254.648 93.6448 254.587 93.7929Z" fill="#E0E0E0"/>
<path d="M251.214 102.351C251.153 102.499 239.62 98.1426 225.455 92.6219C211.289 87.1011 199.871 82.5229 199.911 82.3478C199.952 82.1728 211.498 86.5558 225.67 92.0765C239.843 97.5973 251.275 102.202 251.214 102.351Z" fill="#E0E0E0"/>
<path d="M230.773 34.5664C230.605 34.9165 229.918 36.5054 229.918 36.5054L257.987 47.8903L258.842 45.48L230.773 34.5664Z" fill="#EBEBEB"/>
<path d="M216.642 38.0869C216.467 38.437 215.437 40.5915 215.437 40.5915L268.052 60.6278L269.345 57.8809L216.642 38.0869Z" fill="#EBEBEB"/>
<path d="M213.585 46.6113L212.387 49.0889L264.996 69.1253L266.288 66.3784L213.585 46.6113Z" fill="#EBEBEB"/>
<path d="M210.939 55.5508C210.885 55.6787 209.997 58.2438 209.997 58.2438L236.328 68.3428L237.809 65.2525L210.939 55.5508Z" fill="#EBEBEB"/>
<path d="M279.734 257.557C279.734 257.658 217.228 257.732 140.152 257.732C63.0769 257.732 0.550781 257.658 0.550781 257.557C0.550781 257.456 63.0433 257.382 140.152 257.382C217.261 257.382 279.734 257.463 279.734 257.557Z" fill="#263238"/>
<path d="M43.2963 7.87704C42.3941 38.3153 39.7482 152.73 39.048 183.256C39.0009 185.258 39.7475 187.197 41.125 188.65C42.5024 190.103 44.3987 190.952 46.4001 191.012L171.789 194.843C172.789 194.873 173.786 194.705 174.721 194.349C175.656 193.993 176.512 193.455 177.239 192.767C177.965 192.078 178.548 191.253 178.955 190.338C179.361 189.423 179.582 188.437 179.606 187.437L181.558 99.0102L192.175 98.8351C193.431 98.8142 194.629 98.3047 195.516 97.4147C196.402 96.5247 196.906 95.3243 196.922 94.0684L197.737 22.8303C197.749 21.5557 197.257 20.3279 196.368 19.4147C195.479 18.5015 194.264 17.9771 192.99 17.9558L183.376 17.7673L183.45 10.8798C183.472 8.88844 182.705 6.96923 181.318 5.54039C179.931 4.11155 178.035 3.28889 176.044 3.25171L50.9581 0.558645C48.9752 0.52592 47.0593 1.27564 45.6252 2.64542C44.1912 4.0152 43.3545 5.89476 43.2963 7.87704Z" fill="#FF725E"/>
<path opacity="0.4" d="M43.2963 7.87704C42.3941 38.3153 39.7482 152.73 39.048 183.256C39.0009 185.258 39.7475 187.197 41.125 188.65C42.5024 190.103 44.3987 190.952 46.4001 191.012L171.789 194.843C172.789 194.873 173.786 194.705 174.721 194.349C175.656 193.993 176.512 193.455 177.239 192.767C177.965 192.078 178.548 191.253 178.955 190.338C179.361 189.423 179.582 188.437 179.606 187.437L181.558 99.0102L192.175 98.8351C193.431 98.8142 194.629 98.3047 195.516 97.4147C196.402 96.5247 196.906 95.3243 196.922 94.0684L197.737 22.8303C197.749 21.5557 197.257 20.3279 196.368 19.4147C195.479 18.5015 194.264 17.9771 192.99 17.9558L183.376 17.7673L183.45 10.8798C183.472 8.88844 182.705 6.96923 181.318 5.54039C179.931 4.11155 178.035 3.28889 176.044 3.25171L50.9581 0.558645C48.9752 0.52592 47.0593 1.27564 45.6252 2.64542C44.1912 4.0152 43.3545 5.89476 43.2963 7.87704Z" fill="black"/>
<path d="M52.823 9.18262L41.7612 185.356L170.968 192.593L181.396 17.7465L52.823 9.18262Z" fill="#E0E0E0"/>
<path d="M37.291 5.35926L38.1528 181.883L167.554 180.375L166.154 5.22461L37.291 5.35926Z" fill="#EBEBEB"/>
<path d="M20.3516 17.5055L44.7776 192.332L172.819 173.562L148.043 0.168945L20.3516 17.5055Z" fill="#FAFAFA"/>
<path d="M20.3516 17.5049L148.023 0H148.164V0.141385C155.133 48.8521 163.71 108.793 172.967 173.527V173.702H172.792L171.863 173.837L44.7978 192.493H44.6362V192.332C30.2822 88.8979 20.567 18.8784 20.3987 17.4847L44.9796 192.291L44.7978 192.15L171.904 173.507L172.839 173.366L172.691 173.568C163.454 108.827 154.897 48.8858 147.949 0.168316L148.11 0.289504L20.3516 17.5049Z" fill="#263238"/>
<path d="M139.997 58.0154C140.045 58.3049 118.096 61.9876 90.977 66.2494C63.8578 70.5112 41.8286 73.7227 41.8286 73.4399C41.8286 73.1571 63.7299 69.4676 90.849 65.2059C117.968 60.9441 139.95 57.7326 139.997 58.0154Z" fill="#263238"/>
<path d="M149.376 104.968C149.417 105.251 127.468 108.94 100.356 113.195C73.2435 117.45 51.2075 120.675 51.2075 120.386C51.2075 120.096 73.1021 116.414 100.228 112.159C127.354 107.903 149.329 104.672 149.376 104.968Z" fill="#263238"/>
<path d="M150.743 121.868C150.783 122.157 128.835 125.84 101.723 130.095C74.6102 134.35 52.5742 137.575 52.5742 137.285C52.5742 136.996 74.4688 133.313 101.595 129.058C128.721 124.803 150.696 121.578 150.743 121.868Z" fill="#263238"/>
<path d="M135.015 20.9249C135.015 21.1875 120.284 23.4833 102.093 26.0552C83.9009 28.627 69.1025 30.4987 69.1025 30.2361C69.1025 29.9736 83.8336 27.671 102.032 25.1059C120.23 22.5407 135.002 20.6623 135.015 20.9249Z" fill="#263238"/>
<path d="M137.096 30.2834C137.096 30.5459 122.365 32.8485 104.173 35.4136C85.9815 37.9788 71.1831 39.8572 71.1831 39.5946C71.1831 39.332 85.9074 37.0362 104.106 34.4643C122.304 31.8925 137.089 30.0208 137.096 30.2834Z" fill="#263238"/>
<path d="M139.614 40.1596C139.614 40.4289 124.883 42.7247 106.684 45.2966C88.4861 47.8685 73.7348 49.7334 73.6944 49.4708C73.654 49.2083 88.4457 46.9124 106.624 44.3742C124.802 41.836 139.614 39.897 139.614 40.1596Z" fill="#263238"/>
<path d="M153.254 138.282C153.301 138.565 131.353 142.254 104.234 146.509C77.1147 150.764 55.0854 153.989 55.0854 153.7C55.0854 153.41 76.9868 149.727 104.106 145.472C131.225 141.217 153.207 137.992 153.254 138.282Z" fill="#263238"/>
<path d="M155.772 154.696C155.819 154.979 133.871 158.668 106.759 162.923C79.6462 167.178 57.6103 170.403 57.5699 170.114C57.5295 169.824 79.4712 166.141 106.597 161.886C133.723 157.631 155.725 154.406 155.772 154.696Z" fill="#263238"/>
<path d="M62.2959 67.535C62.3498 68.2083 62.7201 71.3457 62.7201 71.3457L116.844 63.5897L116.002 59.0586L62.2959 67.535Z" fill="#FF725E"/>
<path d="M43.4443 85.8748C43.5049 86.5481 43.8483 90.8772 43.8483 90.8772L144.118 74.3216L143.64 68.8682L43.4443 85.8748Z" fill="#FF725E"/>
<path d="M46.4272 101.939C46.4878 102.613 46.8312 106.948 46.8312 106.948L147.101 90.3928L146.623 84.9326L46.4272 101.939Z" fill="#FF725E"/>
<path d="M50.4331 118.292C50.4331 118.542 51.4161 123.376 51.4161 123.376L101.662 115.202L101.164 109.028L50.4331 118.292Z" fill="#FF725E"/>
<path d="M35.8364 29.2808L40.3338 61.7322L69.8834 57.5916L65.8573 25.2412L35.8364 29.2808Z" fill="#263238"/>
<path d="M35.8364 29.2808L40.3338 61.7322L69.8834 57.5916L65.8573 25.2412L35.8364 29.2808Z" fill="#FF725E"/>
<mask id="mask0_419_539" style="mask-type:luminance" maskUnits="userSpaceOnUse" x="35" y="25" width="35" height="37">
<path d="M35.8364 29.2798L40.3338 61.7312L69.8834 57.5906L65.8573 25.2402L35.8364 29.2798Z" fill="white"/>
</mask>
<g mask="url(#mask0_419_539)">
<path d="M50.5675 56.1581L59.495 53.7478C59.3536 52.6773 58.512 48.6108 58.512 48.6108C58.512 48.6108 62.1678 47.3248 61.508 43.5546C60.8482 39.7843 58.5928 31.2742 58.5928 31.2742C56.288 30.7606 53.8879 30.8704 51.6396 31.5922C49.3913 32.3141 47.3759 33.6219 45.8008 35.3811L45.3228 35.913L50.5675 56.1581Z" fill="#FFBE9D"/>
<path d="M58.9092 37.8974C58.8399 37.8631 58.7786 37.8147 58.7293 37.7552C58.6799 37.6957 58.6436 37.6266 58.6227 37.5522C58.6018 37.4778 58.5967 37.3999 58.6078 37.3234C58.6189 37.2469 58.6459 37.1736 58.6871 37.1082C58.7283 37.0429 58.7828 36.9869 58.847 36.9439C58.9112 36.9009 58.9838 36.8719 59.0599 36.8587C59.136 36.8455 59.2141 36.8484 59.289 36.8673C59.364 36.8862 59.4341 36.9206 59.4949 36.9683C59.5576 37.0056 59.6122 37.0551 59.6554 37.1138C59.6986 37.1725 59.7296 37.2394 59.7466 37.3103C59.7635 37.3812 59.7661 37.4548 59.7541 37.5268C59.7421 37.5987 59.7157 37.6675 59.6767 37.7291C59.5967 37.8525 59.4712 37.9394 59.3275 37.9709C59.1838 38.0025 59.0335 37.976 58.9092 37.8974Z" fill="#263238"/>
<path d="M59.6632 36.8679C59.616 36.9487 59.1919 36.7333 58.6735 36.8275C58.1551 36.9218 57.8319 37.2584 57.7646 37.2046C57.6972 37.1507 57.7646 37.0497 57.906 36.8948C58.0944 36.691 58.3456 36.5559 58.6196 36.5111C58.8921 36.4662 59.1718 36.5061 59.4208 36.6255C59.6093 36.7265 59.6834 36.8343 59.6632 36.8679Z" fill="#263238"/>
<path d="M53.7787 38.4373C53.847 38.4628 53.9095 38.5014 53.9627 38.5511C54.0159 38.6008 54.0588 38.6606 54.0888 38.7269C54.1189 38.7932 54.1355 38.8649 54.1377 38.9377C54.14 39.0104 54.1278 39.0829 54.1019 39.151C54.0758 39.2191 54.0366 39.2814 53.9864 39.3343C53.9363 39.3872 53.8762 39.4297 53.8096 39.4594C53.743 39.4891 53.6712 39.5054 53.5984 39.5073C53.5255 39.5093 53.4529 39.4969 53.3849 39.4708C53.3168 39.4447 53.2545 39.4055 53.2016 39.3553C53.1487 39.3052 53.1062 39.2451 53.0765 39.1785C53.0468 39.1119 53.0305 39.0402 53.0285 38.9673C53.0266 38.8944 53.039 38.8219 53.0651 38.7538C53.1178 38.6172 53.2225 38.5071 53.3564 38.4478C53.4902 38.3884 53.6421 38.3847 53.7787 38.4373Z" fill="#263238"/>
<path d="M54.109 38.3763C54.0618 38.4504 53.6377 38.2349 53.126 38.3292C52.6143 38.4234 52.2777 38.7668 52.2104 38.7062C52.143 38.6456 52.2104 38.5581 52.3518 38.3965C52.5478 38.202 52.799 38.0724 53.0712 38.0255C53.3434 37.9785 53.6234 38.0164 53.8733 38.1339C54.0686 38.2349 54.1494 38.3157 54.109 38.3763Z" fill="#263238"/>
<path d="M56.9971 42.2619C57.2435 42.1059 57.5143 41.9921 57.7983 41.9253C57.9329 41.8849 58.0339 41.8378 58.0339 41.7637C58.0102 41.6267 57.9497 41.4987 57.8589 41.3934L57.2529 40.4172C56.7034 39.5981 56.2344 38.7278 55.8525 37.8184C56.4893 38.5723 57.0444 39.3915 57.5088 40.2623L58.0945 41.252C58.2153 41.4079 58.2794 41.6002 58.2763 41.7974C58.2676 41.8537 58.2453 41.9071 58.2112 41.9529C58.1772 41.9986 58.1325 42.0354 58.0811 42.0599C58.0103 42.0937 57.9357 42.1186 57.8589 42.134C57.5809 42.2249 57.2895 42.2682 56.9971 42.2619Z" fill="#263238"/>
<path d="M55.4554 43.1489C54.8561 42.9267 57.0914 43.6606 58.1484 43.4115C58.0233 43.7158 57.7988 43.9687 57.5114 44.1289C57.224 44.2891 56.8908 44.3471 56.5662 44.2935C55.314 44.0915 55.4554 43.1489 55.4554 43.1489Z" fill="white"/>
<path d="M58.4916 48.5552C56.7611 48.9136 54.9629 48.7471 53.3276 48.0771C53.3276 48.0771 54.9906 50.5682 58.7138 49.5247L58.4916 48.5552Z" fill="#EB996E"/>
<path d="M45.9421 39.5479C45.8546 39.5479 43.1009 39.8643 44.1445 42.9142C45.188 45.9641 47.9551 43.9241 47.9349 43.8365C47.9147 43.749 45.9421 39.5479 45.9421 39.5479Z" fill="#FFBE9D"/>
<path d="M46.6222 43.1094C46.6222 43.1094 46.5818 43.1632 46.501 43.2373C46.3914 43.3333 46.2494 43.3838 46.1038 43.3787C45.7402 43.3787 45.2891 42.9478 45.0872 42.3957C44.9906 42.1333 44.9538 41.8527 44.9795 41.5743C44.9765 41.4681 44.9988 41.3627 45.0445 41.2668C45.0901 41.1708 45.1578 41.087 45.242 41.0222C45.2976 40.9848 45.3646 40.9683 45.4312 40.9757C45.4978 40.9831 45.5596 41.0139 45.6056 41.0626C45.6796 41.1367 45.6796 41.204 45.6998 41.204C45.72 41.204 45.747 41.13 45.6998 41.0088C45.6556 40.9395 45.5891 40.8873 45.5113 40.8607C45.4602 40.8392 45.4052 40.8281 45.3497 40.8281C45.2943 40.8281 45.2393 40.8392 45.1882 40.8607C45.07 40.9296 44.9714 41.0277 44.9019 41.1456C44.8323 41.2634 44.7941 41.3971 44.7909 41.5339C44.7486 41.845 44.7833 42.1617 44.8919 42.4563C44.9695 42.7372 45.1286 42.9888 45.3491 43.1793C45.5696 43.3698 45.8416 43.4907 46.1307 43.5268C46.221 43.5229 46.3092 43.4985 46.3885 43.4553C46.4679 43.4121 46.5363 43.3514 46.5886 43.2777C46.6424 43.1834 46.6357 43.1094 46.6222 43.1094Z" fill="#EB996E"/>
<path d="M58.539 31.1655C58.0476 33.9326 54.4994 35.6494 51.766 36.316C52.8365 34.9694 52.0892 35.3397 52.7355 34.4039C50.9532 36.64 48.424 38.158 45.6123 38.6791C45.2808 38.0814 45.0729 37.423 45.0009 36.7433C44.929 36.0635 44.9946 35.3762 45.1937 34.7223C45.3928 34.0684 45.7214 33.4613 46.16 32.937C46.5986 32.4127 47.1382 31.9819 47.7466 31.6704C48.5478 31.2597 49.4365 31.0645 50.2646 30.7077C50.9379 30.4047 51.6111 29.9805 52.3248 29.7314C54.4792 28.9908 57.96 27.7116 58.539 31.1655Z" fill="#263238"/>
<path d="M47.0393 36.9688C46.9653 37.3592 46.972 41.7759 46.972 41.7759L45.2417 37.8373L47.0393 36.9688Z" fill="#263238"/>
<path d="M32.874 71.8774L40.354 60.856C41.7758 58.6704 43.6925 56.8506 45.9488 55.544C47.1433 54.8428 48.4406 54.3339 49.7932 54.0359C53.1152 54.4406 56.4814 53.813 59.4343 52.2382C62.1266 52.0313 64.8344 52.2887 67.4395 52.999L82.2513 56.0153L80.1103 69.0093L72.287 67.9388L73.9836 79.4651L78.6426 96.2967L50.1231 101.925L47.5916 86.3256L45.5179 75.0889L42.1516 79.869L32.874 71.8774Z" fill="#455A64"/>
</g>
<path d="M194.613 255.214L194.579 249.02L206.173 248.886L206.321 257.941L205.601 257.995C202.403 258.21 189.328 258.87 187.18 258.244C184.79 257.551 194.613 255.214 194.613 255.214Z" fill="#FF725E"/>
<path d="M202.12 257.9C202.28 256.92 202.795 256.033 203.567 255.409C204.323 254.79 205.285 254.478 206.26 254.534L206.301 257.772L202.12 257.9Z" fill="#FF725E"/>
<path d="M189.812 256.527C189.812 256.527 186.372 257.564 186.809 258.13C187.247 258.695 200.49 258.527 206.334 257.941V257.679L190.889 258.009C190.889 258.009 190.492 256.548 189.812 256.527Z" fill="#FF725E"/>
<path d="M206.482 257.672H206.28L205.708 257.719L203.607 257.833C201.823 257.921 199.366 258.008 196.646 258.042C193.926 258.076 191.468 258.042 189.684 258.042L187.577 257.982H187.005H186.803H187.577H189.691C191.468 257.982 193.926 257.982 196.646 257.982C199.366 257.982 201.823 257.867 203.601 257.807L205.708 257.739H206.28L206.482 257.672Z" fill="#263238"/>
<path d="M190.863 258.189C190.768 257.84 190.632 257.503 190.459 257.186C190.248 256.894 190.004 256.627 189.731 256.392C190.097 256.52 190.4 256.783 190.58 257.125C190.799 257.434 190.9 257.812 190.863 258.189Z" fill="#263238"/>
<path d="M194.262 256.405C194.229 256.405 194.067 256.23 193.892 255.968C193.769 255.816 193.681 255.639 193.636 255.449C193.67 255.449 193.838 255.624 194.007 255.894C194.175 256.163 194.296 256.385 194.262 256.405Z" fill="#263238"/>
<path d="M195.199 255.9C195.199 255.9 194.983 255.806 194.781 255.631C194.579 255.456 194.438 255.288 194.465 255.261C194.492 255.234 194.673 255.348 194.875 255.53C195.077 255.712 195.219 255.873 195.199 255.9Z" fill="#263238"/>
<path d="M195.777 254.796C195.585 254.873 195.377 254.903 195.171 254.884C194.968 254.908 194.762 254.889 194.565 254.83C194.758 254.753 194.965 254.723 195.171 254.742C195.375 254.719 195.581 254.737 195.777 254.796Z" fill="#263238"/>
<path d="M195.973 254.022C195.774 254.159 195.54 254.232 195.299 254.231C195.071 254.271 194.836 254.24 194.626 254.144C194.848 254.105 195.074 254.087 195.299 254.09C195.521 254.049 195.747 254.027 195.973 254.022Z" fill="#263238"/>
<path d="M193.858 255.403C193.611 255.444 193.358 255.444 193.111 255.403C192.842 255.369 192.576 255.313 192.317 255.234C192.157 255.192 192.004 255.131 191.859 255.053C191.77 255.002 191.702 254.921 191.67 254.824C191.659 254.768 191.664 254.711 191.684 254.659C191.705 254.606 191.739 254.561 191.785 254.527C192.066 254.382 192.389 254.339 192.698 254.408C193.007 254.477 193.282 254.653 193.475 254.904C193.592 255.048 193.677 255.216 193.724 255.396C193.739 255.462 193.739 255.531 193.724 255.598C193.643 255.369 193.524 255.155 193.374 254.965C193.201 254.775 192.98 254.635 192.734 254.561C192.588 254.514 192.435 254.497 192.282 254.51C192.13 254.522 191.981 254.565 191.845 254.635C191.724 254.723 191.778 254.864 191.906 254.938C192.041 255.01 192.183 255.069 192.33 255.113C192.58 255.197 192.837 255.26 193.098 255.302C193.576 255.382 193.858 255.382 193.858 255.403Z" fill="#263238"/>
<path d="M193.664 255.443C193.574 255.286 193.54 255.103 193.569 254.924C193.592 254.729 193.662 254.542 193.771 254.379C193.832 254.267 193.92 254.173 194.027 254.105C194.135 254.037 194.257 253.997 194.384 253.988C194.46 254.003 194.528 254.047 194.572 254.112C194.616 254.176 194.633 254.255 194.62 254.332C194.603 254.451 194.562 254.566 194.498 254.668C194.402 254.834 194.285 254.985 194.148 255.119C194.037 255.258 193.891 255.365 193.724 255.429C193.724 255.429 193.872 255.294 194.074 255.052C194.195 254.915 194.299 254.763 194.384 254.601C194.485 254.446 194.552 254.163 194.384 254.13C194.216 254.096 194.007 254.305 193.892 254.453C193.791 254.598 193.722 254.763 193.69 254.938C193.667 255.105 193.658 255.274 193.664 255.443Z" fill="#263238"/>
<path d="M206.206 254.501C206.206 254.501 205.87 254.501 205.351 254.541C204.669 254.626 204.025 254.901 203.492 255.336C202.96 255.771 202.561 256.347 202.342 256.999C202.173 257.504 202.16 257.833 202.133 257.833C202.122 257.755 202.122 257.676 202.133 257.598C202.154 257.386 202.195 257.176 202.254 256.972C202.453 256.287 202.855 255.678 203.407 255.226C203.958 254.775 204.634 254.5 205.344 254.44C205.557 254.418 205.771 254.418 205.984 254.44C206.061 254.45 206.135 254.471 206.206 254.501Z" fill="#263238"/>
<path d="M204.92 249.72C205.059 251.302 205.1 252.892 205.041 254.48C204.911 252.897 204.871 251.307 204.92 249.72Z" fill="#263238"/>
<path d="M200.645 256.789C199.536 257.012 198.396 257.037 197.279 256.863C197.279 256.823 198.04 256.863 198.975 256.863C199.911 256.863 200.638 256.749 200.645 256.789Z" fill="#263238"/>
<path d="M202.9 256.755C202.9 256.755 202.84 256.917 202.766 257.092C202.692 257.267 202.651 257.422 202.611 257.415C202.571 257.408 202.55 257.233 202.611 257.031C202.672 256.829 202.9 256.728 202.9 256.755Z" fill="#263238"/>
<path d="M203.756 255.679C203.789 255.679 203.715 255.827 203.594 255.948C203.473 256.07 203.359 256.15 203.332 256.123C203.305 256.096 203.372 255.975 203.493 255.854C203.614 255.733 203.729 255.652 203.756 255.679Z" fill="#263238"/>
<path d="M204.974 255.174C204.974 255.214 204.813 255.214 204.644 255.275C204.476 255.335 204.355 255.429 204.321 255.403C204.288 255.376 204.389 255.221 204.597 255.147C204.806 255.073 204.988 255.14 204.974 255.174Z" fill="#263238"/>
<path d="M205.849 254.931C205.849 254.972 205.796 255.032 205.701 255.066C205.607 255.099 205.513 255.113 205.499 255.066C205.486 255.019 205.553 254.972 205.647 254.931C205.742 254.891 205.829 254.897 205.849 254.931Z" fill="#263238"/>
<path d="M253.874 252.016L251.982 246.118L240.92 249.585L243.613 258.237L244.286 258.069C247.397 257.281 260.027 253.847 261.879 252.588C263.939 251.188 253.874 252.016 253.874 252.016Z" fill="#FF725E"/>
<path d="M247.572 256.896C247.119 256.012 246.354 255.328 245.424 254.978C244.511 254.621 243.496 254.621 242.583 254.978L243.553 258.068L247.572 256.896Z" fill="#FF725E"/>
<path d="M258.842 251.774C258.842 251.774 262.437 251.693 262.208 252.366C261.979 253.039 249.329 256.985 243.599 258.237L243.545 257.988L258.324 253.504C258.324 253.504 258.209 252.002 258.842 251.774Z" fill="#FF725E"/>
<path d="M243.351 258.035L243.553 257.995L244.105 257.853L246.124 257.315C247.841 256.843 250.211 256.163 252.803 255.356C255.395 254.548 257.732 253.76 259.415 253.174L261.401 252.461L261.939 252.259C262.003 252.239 262.064 252.212 262.121 252.178L261.926 252.232L261.381 252.407L259.361 253.08C257.671 253.645 255.321 254.426 252.743 255.221C250.164 256.015 247.787 256.722 246.077 257.241L244.058 257.826L243.512 257.988C243.457 258 243.403 258.015 243.351 258.035Z" fill="#263238"/>
<path d="M258.357 253.678C258.346 253.317 258.373 252.956 258.438 252.601C258.547 252.257 258.697 251.927 258.883 251.618C258.575 251.85 258.366 252.189 258.297 252.567C258.186 252.933 258.207 253.327 258.357 253.678Z" fill="#263238"/>
<path d="M254.574 253.039C254.614 253.039 254.708 252.81 254.796 252.507C254.883 252.204 254.91 251.948 254.87 251.935C254.761 252.097 254.688 252.281 254.654 252.473C254.586 252.653 254.558 252.847 254.574 253.039Z" fill="#263238"/>
<path d="M253.53 252.851C253.564 252.851 253.705 252.696 253.84 252.467C253.974 252.238 254.062 252.03 254.028 252.009C253.995 251.989 253.86 252.164 253.719 252.393C253.577 252.622 253.496 252.831 253.53 252.851Z" fill="#263238"/>
<path d="M252.642 251.983C252.847 251.989 253.051 251.952 253.241 251.875C253.442 251.834 253.632 251.751 253.8 251.633C253.594 251.618 253.388 251.655 253.2 251.741C252.877 251.835 252.628 251.943 252.642 251.983Z" fill="#263238"/>
<path d="M252.217 251.303C252.436 251.374 252.672 251.374 252.891 251.303C253.129 251.271 253.351 251.167 253.53 251.007C253.301 251.04 253.076 251.094 252.857 251.168C252.64 251.196 252.426 251.241 252.217 251.303Z" fill="#263238"/>
<path d="M254.648 251.956C254.897 251.928 255.14 251.853 255.361 251.734C255.608 251.62 255.845 251.485 256.068 251.33C256.205 251.239 256.332 251.133 256.445 251.014C256.513 250.937 256.551 250.839 256.553 250.738C256.547 250.681 256.524 250.628 256.489 250.583C256.453 250.539 256.405 250.506 256.351 250.489C256.038 250.436 255.716 250.495 255.443 250.657C255.169 250.818 254.961 251.071 254.856 251.37C254.793 251.547 254.766 251.735 254.776 251.923C254.772 251.99 254.786 252.057 254.816 252.118C254.818 251.876 254.864 251.637 254.951 251.411C255.053 251.173 255.221 250.97 255.435 250.825C255.559 250.735 255.7 250.67 255.849 250.634C255.998 250.598 256.152 250.592 256.304 250.616C256.438 250.67 256.438 250.812 256.337 250.926C256.232 251.037 256.115 251.137 255.987 251.222C255.774 251.38 255.549 251.522 255.314 251.646C254.917 251.855 254.641 251.936 254.648 251.956Z" fill="#263238"/>
<path d="M254.843 251.935C254.884 251.76 254.861 251.576 254.776 251.417C254.697 251.236 254.575 251.079 254.419 250.959C254.33 250.876 254.222 250.816 254.105 250.785C253.988 250.753 253.864 250.75 253.746 250.777C253.712 250.795 253.682 250.82 253.658 250.85C253.634 250.88 253.616 250.915 253.605 250.952C253.594 250.989 253.591 251.027 253.596 251.066C253.6 251.104 253.612 251.141 253.631 251.174C253.681 251.284 253.754 251.38 253.847 251.457C253.991 251.583 254.149 251.691 254.318 251.78C254.467 251.877 254.639 251.933 254.816 251.942C254.816 251.942 254.634 251.861 254.365 251.693C254.211 251.597 254.067 251.487 253.934 251.363C253.793 251.242 253.638 250.993 253.806 250.905C253.906 250.886 254.009 250.891 254.107 250.918C254.205 250.944 254.295 250.993 254.372 251.06C254.514 251.166 254.631 251.301 254.715 251.457C254.777 251.611 254.82 251.771 254.843 251.935Z" fill="#263238"/>
<path d="M242.623 254.932C242.623 254.932 242.933 254.804 243.451 254.709C244.126 254.576 244.824 254.636 245.465 254.884C246.107 255.132 246.664 255.557 247.073 256.11C247.39 256.534 247.504 256.85 247.531 256.837C247.52 256.76 247.497 256.685 247.464 256.615C247.38 256.418 247.276 256.231 247.154 256.056C246.752 255.467 246.181 255.014 245.517 254.756C244.852 254.498 244.125 254.446 243.431 254.608C243.223 254.659 243.02 254.729 242.825 254.817C242.752 254.844 242.684 254.883 242.623 254.932Z" fill="#263238"/>
<path d="M242.34 249.969C242.695 251.517 243.145 253.041 243.687 254.533C243.522 253.755 243.315 252.987 243.067 252.231C242.871 251.463 242.628 250.708 242.34 249.969Z" fill="#263238"/>
<path d="M248.629 255.381C249.198 255.336 249.758 255.221 250.299 255.038C250.849 254.893 251.378 254.678 251.874 254.398C251.874 254.365 251.147 254.634 250.258 254.903C249.37 255.173 248.622 255.341 248.629 255.381Z" fill="#263238"/>
<path d="M246.461 256.055C246.461 256.055 246.569 256.19 246.69 256.331C246.811 256.473 246.905 256.607 246.939 256.594C246.973 256.58 246.939 256.405 246.798 256.237C246.656 256.069 246.474 256.021 246.461 256.055Z" fill="#263238"/>
<path d="M245.316 255.295C245.316 255.329 245.404 255.423 245.559 255.504C245.714 255.585 245.848 255.618 245.862 255.585C245.875 255.551 245.774 255.457 245.626 255.376C245.478 255.295 245.316 255.262 245.316 255.295Z" fill="#263238"/>
<path d="M244.01 255.194C244.01 255.228 244.172 255.194 244.353 255.194C244.535 255.194 244.683 255.255 244.703 255.194C244.724 255.133 244.582 255.039 244.36 255.032C244.138 255.026 243.97 255.16 244.01 255.194Z" fill="#263238"/>
<path d="M243.108 255.234C243.108 255.274 243.189 255.308 243.29 255.315C243.391 255.321 243.478 255.315 243.478 255.261C243.478 255.207 243.404 255.187 243.296 255.18C243.189 255.173 243.108 255.193 243.108 255.234Z" fill="#263238"/>
<path d="M186.722 132.27L192.135 252.548L210.192 252.925L207.196 152.232L239.917 254.124L254.675 250.084L221.745 132.27" fill="#263238"/>
<path d="M239.143 253.444L239.984 255.06L255.624 250.502L254.675 247.876L239.143 253.444Z" fill="#455A64"/>
<path d="M252.87 247.275C252.965 247.275 253.106 247.444 253.187 247.706C253.268 247.969 253.254 248.218 253.187 248.245C253.119 248.272 252.958 248.077 252.877 247.807C252.796 247.538 252.776 247.302 252.87 247.275Z" fill="#455A64"/>
<path d="M251.699 243.371C251.793 243.371 252.002 243.755 252.164 244.293C252.325 244.832 252.379 245.297 252.285 245.324C252.19 245.35 251.988 244.94 251.827 244.394C251.665 243.849 251.605 243.398 251.699 243.371Z" fill="#455A64"/>
<path d="M250.527 239.466C250.621 239.466 250.83 239.85 250.992 240.388C251.153 240.927 251.207 241.391 251.113 241.418C251.019 241.445 250.817 241.028 250.655 240.489C250.493 239.951 250.433 239.493 250.527 239.466Z" fill="#455A64"/>
<path d="M249.356 235.582C249.45 235.582 249.659 235.966 249.82 236.504C249.982 237.043 250.036 237.508 249.941 237.534C249.847 237.561 249.645 237.144 249.484 236.605C249.322 236.067 249.261 235.582 249.356 235.582Z" fill="#455A64"/>
<path d="M248.184 231.655C248.279 231.655 248.487 232.039 248.649 232.578C248.81 233.116 248.864 233.581 248.77 233.608C248.676 233.635 248.474 233.217 248.312 232.679C248.151 232.14 248.097 231.682 248.184 231.655Z" fill="#455A64"/>
<path d="M247.013 227.752C247.107 227.718 247.316 228.136 247.477 228.674C247.639 229.213 247.693 229.671 247.599 229.704C247.504 229.738 247.302 229.314 247.141 228.775C246.979 228.237 246.925 227.779 247.013 227.752Z" fill="#455A64"/>
<path d="M245.841 223.84C245.936 223.84 246.144 224.23 246.306 224.769C246.468 225.308 246.521 225.765 246.427 225.799C246.333 225.833 246.131 225.409 245.969 224.87C245.808 224.331 245.754 223.874 245.841 223.84Z" fill="#455A64"/>
<path d="M244.643 219.935C244.737 219.935 244.946 220.325 245.108 220.864C245.269 221.402 245.323 221.86 245.229 221.887C245.134 221.914 244.933 221.503 244.771 220.965C244.609 220.426 244.582 219.968 244.643 219.935Z" fill="#455A64"/>
<path d="M243.498 216.057C243.592 216.057 243.801 216.447 243.963 216.986C244.124 217.524 244.178 217.982 244.084 218.009C243.99 218.036 243.788 217.625 243.626 217.087C243.465 216.548 243.411 216.057 243.498 216.057Z" fill="#455A64"/>
<path d="M242.327 212.124C242.421 212.124 242.63 212.515 242.791 213.053C242.953 213.592 243.007 214.05 242.913 214.076C242.818 214.103 242.616 213.693 242.455 213.154C242.293 212.616 242.239 212.151 242.327 212.124Z" fill="#455A64"/>
<path d="M241.162 208.22C241.25 208.22 241.458 208.61 241.62 209.149C241.782 209.687 241.835 210.145 241.748 210.172C241.66 210.199 241.445 209.788 241.283 209.25C241.122 208.711 241.068 208.247 241.162 208.22Z" fill="#455A64"/>
<path d="M239.991 204.314C240.078 204.314 240.287 204.698 240.449 205.244C240.61 205.789 240.664 206.24 240.577 206.267C240.489 206.294 240.274 205.883 240.112 205.345C239.95 204.806 239.93 204.341 239.991 204.314Z" fill="#455A64"/>
<path d="M238.819 200.41C238.907 200.41 239.116 200.794 239.277 201.333C239.439 201.871 239.493 202.336 239.405 202.363C239.318 202.39 239.102 201.979 238.941 201.434C238.779 200.888 238.725 200.437 238.819 200.41Z" fill="#455A64"/>
<path d="M237.648 196.532C237.735 196.532 237.944 196.916 238.106 197.455C238.267 197.993 238.321 198.458 238.234 198.485C238.146 198.512 237.931 198.094 237.769 197.556C237.608 197.017 237.554 196.532 237.648 196.532Z" fill="#455A64"/>
<path d="M236.476 192.601C236.564 192.601 236.772 192.984 236.934 193.523C237.095 194.062 237.149 194.526 237.062 194.553C236.974 194.58 236.759 194.163 236.597 193.624C236.436 193.085 236.382 192.628 236.476 192.601Z" fill="#455A64"/>
<path d="M235.305 188.696C235.399 188.696 235.601 189.08 235.762 189.619C235.924 190.157 235.985 190.622 235.89 190.649C235.796 190.676 235.587 190.258 235.426 189.72C235.264 189.181 235.217 188.723 235.305 188.696Z" fill="#455A64"/>
<path d="M234.133 184.79C234.228 184.756 234.43 185.174 234.591 185.712C234.753 186.251 234.813 186.709 234.719 186.742C234.625 186.776 234.416 186.352 234.254 185.813C234.093 185.275 234.039 184.817 234.133 184.79Z" fill="#455A64"/>
<path d="M232.962 180.878C233.056 180.878 233.258 181.268 233.42 181.807C233.581 182.346 233.642 182.803 233.548 182.837C233.453 182.871 233.245 182.447 233.083 181.908C232.922 181.369 232.868 180.912 232.962 180.878Z" fill="#455A64"/>
<path d="M231.791 177.007C231.885 177.007 232.087 177.397 232.248 177.936C232.41 178.475 232.471 178.932 232.376 178.959C232.282 178.986 232.073 178.576 231.912 178.037C231.75 177.498 231.696 177.007 231.791 177.007Z" fill="#455A64"/>
<path d="M230.619 173.068C230.713 173.068 230.915 173.459 231.077 173.997C231.238 174.536 231.299 174.994 231.205 175.021C231.11 175.048 230.902 174.637 230.74 174.098C230.578 173.56 230.504 173.095 230.619 173.068Z" fill="#455A64"/>
<path d="M229.447 169.164C229.542 169.164 229.744 169.555 229.905 170.093C230.067 170.632 230.127 171.09 230.033 171.117C229.939 171.143 229.737 170.733 229.569 170.194C229.4 169.656 229.353 169.191 229.447 169.164Z" fill="#455A64"/>
<path d="M228.276 165.259C228.37 165.259 228.572 165.649 228.734 166.188C228.896 166.727 228.956 167.184 228.862 167.211C228.768 167.238 228.566 166.827 228.404 166.289C228.242 165.75 228.182 165.286 228.276 165.259Z" fill="#455A64"/>
<path d="M227.138 161.354C227.233 161.354 227.434 161.738 227.596 162.284C227.758 162.829 227.818 163.28 227.724 163.307C227.63 163.334 227.428 162.923 227.266 162.385C227.105 161.846 227.01 161.381 227.138 161.354Z" fill="#455A64"/>
<path d="M225.933 157.483C226.027 157.483 226.229 157.867 226.397 158.406C226.566 158.944 226.613 159.409 226.519 159.436C226.424 159.463 226.222 159.052 226.061 158.507C225.899 157.961 225.839 157.483 225.933 157.483Z" fill="#455A64"/>
<path d="M224.761 153.544C224.856 153.544 225.064 153.928 225.226 154.466C225.388 155.005 225.441 155.469 225.347 155.496C225.253 155.523 225.051 155.106 224.889 154.567C224.728 154.029 224.667 153.571 224.761 153.544Z" fill="#455A64"/>
<path d="M223.59 149.639C223.684 149.639 223.893 150.022 224.055 150.561C224.216 151.1 224.27 151.564 224.176 151.591C224.082 151.618 223.88 151.201 223.718 150.662C223.556 150.123 223.496 149.666 223.59 149.639Z" fill="#455A64"/>
<path d="M222.425 145.734C222.519 145.734 222.728 146.118 222.89 146.657C223.051 147.195 223.105 147.66 223.011 147.687C222.917 147.714 222.715 147.296 222.553 146.758C222.391 146.219 222.324 145.761 222.425 145.734Z" fill="#455A64"/>
<path d="M221.247 141.829C221.341 141.795 221.55 142.213 221.711 142.751C221.873 143.29 221.927 143.748 221.833 143.782C221.738 143.815 221.536 143.391 221.375 142.852C221.213 142.314 221.153 141.856 221.247 141.829Z" fill="#455A64"/>
<path d="M220.075 137.918C220.17 137.918 220.378 138.308 220.54 138.847C220.702 139.386 220.755 139.844 220.661 139.877C220.567 139.911 220.365 139.487 220.203 138.948C220.042 138.409 219.988 137.958 220.075 137.918Z" fill="#455A64"/>
<path d="M219.2 135.002C219.295 135.002 219.436 135.164 219.517 135.433C219.598 135.702 219.584 135.938 219.517 135.965C219.449 135.992 219.288 135.803 219.207 135.534C219.126 135.265 219.106 135.029 219.2 135.002Z" fill="#455A64"/>
<path d="M207.082 251.942C207.176 251.942 207.263 252.158 207.284 252.434C207.304 252.71 207.23 252.946 207.129 252.952C207.028 252.959 206.947 252.737 206.934 252.454C206.92 252.171 206.981 251.949 207.082 251.942Z" fill="#455A64"/>
<path d="M206.94 247.936C207.034 247.936 207.135 248.373 207.155 248.932C207.176 249.491 207.115 249.935 207.014 249.935C206.913 249.935 206.825 249.498 206.805 248.945C206.785 248.393 206.819 247.936 206.94 247.936Z" fill="#455A64"/>
<path d="M206.792 243.931C206.886 243.931 206.981 244.368 206.994 244.927C207.008 245.486 206.947 245.93 206.846 245.93C206.745 245.93 206.657 245.486 206.644 244.934C206.63 244.382 206.691 243.931 206.792 243.931Z" fill="#455A64"/>
<path d="M206.691 239.918C206.785 239.918 206.873 240.362 206.886 240.914C206.9 241.466 206.833 241.918 206.738 241.924C206.644 241.931 206.55 241.48 206.536 240.928C206.523 240.376 206.59 239.918 206.691 239.918Z" fill="#455A64"/>
<path d="M206.59 235.905C206.691 235.905 206.779 236.35 206.792 236.908C206.806 237.467 206.738 237.912 206.644 237.912C206.55 237.912 206.456 237.467 206.442 236.915C206.429 236.363 206.496 235.912 206.59 235.905Z" fill="#455A64"/>
<path d="M206.489 231.892C206.583 231.892 206.678 232.336 206.691 232.895C206.705 233.454 206.637 233.898 206.543 233.898C206.449 233.898 206.355 233.454 206.341 232.901C206.328 232.349 206.395 231.898 206.489 231.892Z" fill="#455A64"/>
<path d="M206.354 227.886C206.455 227.886 206.55 228.323 206.57 228.882C206.59 229.441 206.523 229.885 206.428 229.892C206.334 229.899 206.233 229.448 206.22 228.896C206.206 228.344 206.267 227.886 206.354 227.886Z" fill="#455A64"/>
<path d="M206.186 223.88C206.287 223.88 206.381 224.318 206.408 224.87C206.435 225.422 206.368 225.879 206.274 225.879C206.179 225.879 206.078 225.442 206.051 224.883C206.024 224.324 206.092 223.88 206.186 223.88Z" fill="#455A64"/>
<path d="M206.031 219.867C206.125 219.867 206.226 220.312 206.247 220.864C206.267 221.416 206.206 221.867 206.105 221.874C206.004 221.88 205.917 221.429 205.896 220.877C205.876 220.325 205.937 219.874 206.031 219.867Z" fill="#455A64"/>
<path d="M205.89 215.861C205.991 215.861 206.085 216.306 206.099 216.858C206.112 217.41 206.058 217.861 205.957 217.868C205.856 217.874 205.769 217.423 205.749 216.871C205.729 216.319 205.796 215.868 205.89 215.861Z" fill="#455A64"/>
<path d="M205.769 211.85C205.863 211.85 205.957 212.294 205.971 212.846C205.984 213.398 205.923 213.849 205.829 213.856C205.735 213.863 205.641 213.412 205.621 212.86C205.6 212.307 205.674 211.856 205.769 211.85Z" fill="#455A64"/>
<path d="M205.661 207.843C205.762 207.843 205.85 208.287 205.863 208.839C205.877 209.391 205.809 209.842 205.715 209.842C205.621 209.842 205.526 209.398 205.513 208.846C205.5 208.294 205.594 207.843 205.661 207.843Z" fill="#455A64"/>
<path d="M205.593 203.831C205.688 203.831 205.775 204.275 205.789 204.834C205.802 205.393 205.728 205.837 205.634 205.837C205.54 205.837 205.445 205.393 205.439 204.841C205.432 204.289 205.479 203.831 205.593 203.831Z" fill="#455A64"/>
<path d="M205.513 199.823C205.607 199.823 205.694 200.268 205.701 200.82C205.708 201.372 205.641 201.823 205.54 201.823C205.439 201.823 205.358 201.378 205.351 200.826C205.344 200.274 205.412 199.823 205.513 199.823Z" fill="#455A64"/>
<path d="M205.459 195.812C205.56 195.812 205.641 196.256 205.647 196.815C205.654 197.374 205.58 197.818 205.486 197.818C205.392 197.818 205.304 197.367 205.297 196.815C205.291 196.263 205.365 195.812 205.459 195.812Z" fill="#455A64"/>
<path d="M205.432 191.819C205.533 191.819 205.614 192.27 205.614 192.822C205.614 193.375 205.54 193.826 205.445 193.826C205.351 193.826 205.27 193.381 205.264 192.822C205.257 192.264 205.338 191.819 205.432 191.819Z" fill="#455A64"/>
<path d="M205.426 187.779C205.52 187.779 205.601 188.224 205.601 188.782C205.601 189.341 205.527 189.779 205.426 189.786C205.325 189.792 205.25 189.335 205.25 188.782C205.25 188.23 205.331 187.779 205.426 187.779Z" fill="#455A64"/>
<path d="M205.439 183.78C205.533 183.78 205.607 184.231 205.607 184.783C205.607 185.336 205.526 185.787 205.425 185.787C205.324 185.787 205.257 185.336 205.257 184.783C205.257 184.231 205.338 183.78 205.439 183.78Z" fill="#455A64"/>
<path d="M205.466 179.768C205.567 179.768 205.641 180.219 205.634 180.771C205.627 181.323 205.547 181.774 205.452 181.774C205.358 181.774 205.277 181.323 205.284 180.771C205.291 180.219 205.372 179.768 205.466 179.768Z" fill="#455A64"/>
<path d="M205.52 175.762C205.614 175.762 205.688 176.213 205.681 176.765C205.674 177.317 205.587 177.768 205.493 177.768C205.398 177.768 205.324 177.317 205.331 176.758C205.338 176.199 205.425 175.762 205.52 175.762Z" fill="#455A64"/>
<path d="M205.594 171.749C205.688 171.749 205.755 172.207 205.749 172.759C205.742 173.311 205.648 173.755 205.553 173.755C205.459 173.755 205.385 173.304 205.399 172.752C205.412 172.2 205.493 171.749 205.594 171.749Z" fill="#455A64"/>
<path d="M205.681 167.737C205.775 167.737 205.843 168.195 205.829 168.747C205.816 169.299 205.728 169.75 205.634 169.744C205.54 169.737 205.466 169.293 205.479 168.74C205.493 168.188 205.594 167.737 205.681 167.737Z" fill="#455A64"/>
<path d="M205.823 163.725C205.917 163.725 205.978 164.182 205.957 164.735C205.937 165.287 205.843 165.738 205.742 165.731C205.641 165.724 205.587 165.28 205.607 164.721C205.627 164.162 205.728 163.725 205.823 163.725Z" fill="#455A64"/>
<path d="M206.058 159.724C206.152 159.724 206.2 160.182 206.166 160.734C206.132 161.286 206.025 161.73 205.924 161.724C205.823 161.717 205.782 161.266 205.816 160.707C205.85 160.148 205.957 159.71 206.058 159.724Z" fill="#455A64"/>
<path d="M206.422 155.726C206.523 155.726 206.55 156.19 206.496 156.742C206.442 157.294 206.314 157.732 206.22 157.725C206.126 157.719 206.092 157.261 206.146 156.709C206.2 156.157 206.328 155.719 206.422 155.726Z" fill="#455A64"/>
<path d="M206.812 152.77C206.906 152.77 206.954 153.019 206.913 153.289C206.873 153.558 206.765 153.78 206.671 153.767C206.577 153.753 206.529 153.517 206.563 153.241C206.597 152.965 206.718 152.73 206.812 152.77Z" fill="#455A64"/>
<path d="M191.664 253.134L210.757 253.443L210.609 250.259L191.664 250.36V253.134Z" fill="#455A64"/>
<path d="M204.187 133.791C204.254 134.03 204.292 134.277 204.301 134.525C204.348 135.003 204.416 135.69 204.483 136.545C204.618 138.248 204.786 140.584 204.941 143.197C205.022 144.489 205.089 145.728 205.156 146.859C205.145 147.846 205.262 148.831 205.506 149.788C205.705 150.413 206.143 150.933 206.725 151.235C206.943 151.321 207.169 151.388 207.398 151.437C207.334 151.453 207.267 151.453 207.203 151.437C207.014 151.438 206.827 151.403 206.651 151.336C206.328 151.197 206.037 150.994 205.796 150.738C205.555 150.482 205.37 150.179 205.25 149.848C204.966 148.875 204.819 147.867 204.813 146.852C204.739 145.721 204.658 144.482 204.577 143.19C204.416 140.591 204.288 138.241 204.214 136.538C204.173 135.683 204.153 134.996 204.146 134.518C204.127 134.275 204.14 134.03 204.187 133.791Z" fill="#455A64"/>
<path d="M206.038 135.386C206.038 135.434 205.89 135.555 205.87 135.838C205.865 135.912 205.874 135.987 205.899 136.057C205.923 136.128 205.961 136.193 206.011 136.248C206.075 136.303 206.153 136.338 206.237 136.35C206.32 136.362 206.405 136.35 206.482 136.316C206.563 136.288 206.633 136.237 206.686 136.17C206.738 136.104 206.77 136.023 206.779 135.939C206.775 135.864 206.757 135.791 206.725 135.724C206.692 135.657 206.646 135.597 206.59 135.548C206.381 135.353 206.166 135.393 206.159 135.339C206.152 135.285 206.381 135.137 206.738 135.339C206.84 135.403 206.925 135.488 206.988 135.59C207.051 135.691 207.09 135.806 207.102 135.925C207.102 136.081 207.055 136.234 206.967 136.363C206.88 136.492 206.756 136.592 206.611 136.65C206.466 136.708 206.307 136.721 206.154 136.688C206.002 136.655 205.863 136.577 205.755 136.464C205.679 136.371 205.625 136.262 205.6 136.145C205.574 136.028 205.576 135.906 205.607 135.79C205.742 135.4 206.038 135.346 206.038 135.386Z" fill="#455A64"/>
<path d="M223.031 138.24C222.582 138.546 222.068 138.742 221.53 138.813C220.234 139.073 218.889 138.924 217.682 138.384C216.476 137.845 215.467 136.943 214.797 135.803C214.489 135.355 214.29 134.841 214.218 134.302C214.279 134.302 214.461 134.867 215.006 135.648C215.696 136.699 216.673 137.531 217.82 138.045C218.968 138.559 220.239 138.735 221.483 138.55C222.425 138.436 223.011 138.187 223.031 138.24Z" fill="#455A64"/>
<path d="M193.004 133.791C193.092 134.225 193.069 134.674 192.936 135.097C192.692 136.142 192.127 137.084 191.32 137.79C190.509 138.498 189.497 138.936 188.425 139.042C187.99 139.118 187.543 139.081 187.126 138.935C187.126 138.874 187.631 138.935 188.398 138.793C189.396 138.628 190.328 138.19 191.091 137.528C191.844 136.853 192.4 135.988 192.701 135.023C192.93 134.289 192.943 133.791 193.004 133.791Z" fill="#455A64"/>
<path d="M190.317 81.4979C190.317 81.4979 172.327 89.1058 171.755 88.8163C171.183 88.5267 170.779 74.0381 170.779 74.0381H161.831C161.831 74.0381 160.135 95.5287 165.527 98.9489C172.9 103.662 190.748 93.859 190.748 93.859L190.317 81.4979Z" fill="#FFBE9D"/>
<path d="M130.242 55.5438L128.397 63.5826L137.028 65.636C137.028 65.636 140.576 66.4238 144.104 71.453C147.632 76.4823 148.999 78.7108 148.999 78.7108L154.977 49.168L148.487 53.8C147.2 54.7047 145.771 55.3874 144.259 55.8198C142.408 56.3584 139.937 56.9711 138.557 56.9038C135.758 56.6346 132.98 56.1802 130.242 55.5438Z" fill="#263238"/>
<path d="M227.091 89.8332L148.999 78.7108L154.978 49.168L230.908 67.4808C231.726 67.6772 232.439 68.1759 232.904 68.8767C233.368 69.5775 233.55 70.4282 233.413 71.2578L230.848 87.0661C230.7 87.9233 230.227 88.6902 229.527 89.2061C228.826 89.7219 227.953 89.9467 227.091 89.8332Z" fill="#FF725E"/>
<path d="M123.274 55.9205C123.219 55.9106 123.164 55.9142 123.111 55.9308C123.059 55.9473 123.012 55.9765 122.973 56.0157C122.935 56.0549 122.906 56.1029 122.89 56.1555C122.875 56.2082 122.872 56.2639 122.883 56.3177C123.21 58.065 123.639 59.7916 124.169 61.4884C124.351 61.953 128.673 62.3704 128.673 62.3704L129.865 57.1795L123.274 55.9205Z" fill="#FF725E"/>
<path d="M220.823 79.6594L222.014 74.886L171.567 64.6523L170.537 69.4527L220.823 79.6594Z" fill="#263238"/>
<path d="M211.02 79.4978L199.871 78.6024C199.797 77.303 199.871 72.267 199.871 72.267C199.871 72.267 195.232 71.5466 195.158 66.8808C195.084 62.2151 195.905 51.5977 195.905 51.5977C198.54 50.4624 201.429 50.0511 204.276 50.4061C207.123 50.7612 209.823 51.8698 212.097 53.6175L212.771 54.1494L211.02 79.4978Z" fill="#FFBE9D"/>
<path d="M197.009 59.5901C197.13 59.4675 197.198 59.3037 197.202 59.132C197.205 58.9604 197.143 58.794 197.028 58.6667C196.913 58.5394 196.753 58.461 196.582 58.4474C196.411 58.4338 196.241 58.4861 196.107 58.5936C196.041 58.653 195.987 58.725 195.949 58.8054C195.91 58.8857 195.889 58.9729 195.884 59.0618C195.88 59.1507 195.893 59.2396 195.923 59.3234C195.953 59.4071 196 59.484 196.06 59.5497C196.181 59.6806 196.348 59.7583 196.526 59.7659C196.704 59.7735 196.878 59.7102 197.009 59.5901Z" fill="#263238"/>
<path d="M195.885 58.5133C195.959 58.5941 196.417 58.244 197.05 58.244C197.683 58.244 198.154 58.5672 198.228 58.4864C198.302 58.4056 198.188 58.3046 197.986 58.1498C197.712 57.956 197.385 57.8524 197.05 57.8535C196.713 57.8569 196.387 57.9704 196.121 58.1767C195.919 58.3517 195.852 58.5133 195.885 58.5133Z" fill="#263238"/>
<path d="M203.244 59.0919C203.165 59.1363 203.095 59.1962 203.04 59.2682C202.984 59.3401 202.944 59.4225 202.921 59.5105C202.898 59.5984 202.893 59.6901 202.907 59.78C202.921 59.8698 202.952 59.956 203 60.0333C203.048 60.1106 203.111 60.1775 203.185 60.2298C203.259 60.2822 203.343 60.3189 203.432 60.3379C203.521 60.3569 203.613 60.3577 203.702 60.3403C203.791 60.3228 203.876 60.2875 203.951 60.2365C204.102 60.1432 204.211 59.9939 204.252 59.8211C204.294 59.6483 204.265 59.466 204.173 59.3141C204.127 59.2383 204.066 59.1723 203.994 59.1201C203.923 59.0678 203.841 59.0303 203.755 59.0097C203.668 58.989 203.579 58.9857 203.491 58.9998C203.404 59.0139 203.32 59.0452 203.244 59.0919Z" fill="#263238"/>
<path d="M202.827 59.0985C202.894 59.1793 203.352 58.8292 203.991 58.8225C204.631 58.8158 205.095 59.1524 205.163 59.0716C205.23 58.9908 205.129 58.8898 204.927 58.735C204.654 58.5364 204.323 58.4324 203.985 58.4387C203.649 58.4431 203.324 58.5539 203.055 58.7552C202.86 58.9168 202.786 59.0649 202.827 59.0985Z" fill="#263238"/>
<path d="M200.261 64.3631C199.932 64.2346 199.584 64.1618 199.231 64.1477C199.063 64.1477 198.935 64.0938 198.922 63.9996C198.915 63.8327 198.954 63.6672 199.036 63.5216C199.204 63.1041 199.373 62.6732 199.548 62.2221C200.024 61.1258 200.389 59.9845 200.638 58.8154C200.051 59.8572 199.571 60.9558 199.204 62.0942C199.043 62.5453 198.881 62.9762 198.726 63.4408C198.625 63.6496 198.592 63.8853 198.632 64.114C198.657 64.177 198.696 64.2333 198.746 64.2789C198.797 64.3244 198.857 64.3578 198.922 64.3766C199.014 64.4005 199.109 64.4141 199.204 64.417C199.557 64.4619 199.915 64.4437 200.261 64.3631Z" fill="#263238"/>
<path d="M202.335 65.0703C203.008 64.6731 200.504 66.0465 199.204 65.9792C199.425 66.3105 199.751 66.5574 200.13 66.6796C200.509 66.8018 200.918 66.7923 201.291 66.6525C202.678 66.1744 202.335 65.0703 202.335 65.0703Z" fill="white"/>
<path d="M199.884 72.2002C202.03 72.2443 204.14 71.6465 205.944 70.4834C205.944 70.4834 204.516 73.8497 199.884 73.4054V72.2002Z" fill="#EB996E"/>
<path d="M212.838 58.6735C212.939 58.6399 216.292 58.4177 215.74 62.3226C215.188 66.2276 211.418 64.3828 211.424 64.2684C211.431 64.1539 212.838 58.6735 212.838 58.6735Z" fill="#FFBE9D"/>
<path d="M212.818 63.0644C212.818 63.0644 212.878 63.125 212.986 63.1923C213.062 63.2389 213.146 63.27 213.234 63.2839C213.322 63.2977 213.411 63.2941 213.498 63.2731C213.774 63.1504 214.011 62.9555 214.185 62.709C214.36 62.4625 214.464 62.1736 214.488 61.8727C214.544 61.5388 214.528 61.1967 214.44 60.8695C214.421 60.7428 214.371 60.6227 214.294 60.5195C214.218 60.4163 214.118 60.3331 214.003 60.277C213.927 60.2457 213.843 60.2413 213.765 60.2646C213.686 60.2879 213.618 60.3375 213.572 60.405C213.505 60.5059 213.518 60.5867 213.498 60.5935C213.478 60.6002 213.424 60.5194 213.498 60.3578C213.531 60.2632 213.598 60.1842 213.686 60.1357C213.806 60.0713 213.945 60.0544 214.077 60.0885C214.228 60.1412 214.364 60.2301 214.474 60.3474C214.583 60.4648 214.661 60.607 214.703 60.7618C214.819 61.1248 214.847 61.5103 214.784 61.8861C214.754 62.2379 214.62 62.5727 214.399 62.8484C214.179 63.124 213.882 63.328 213.545 63.4347C213.436 63.4507 213.324 63.4414 213.219 63.4076C213.114 63.3737 213.018 63.3162 212.939 63.2394C212.811 63.1654 212.804 63.0711 212.818 63.0644Z" fill="#EB996E"/>
<path d="M195.952 51.4841C197.158 54.6687 201.776 55.9277 205.169 56.1162C203.601 54.736 204.57 55.0255 203.601 54.056C206.219 56.3205 209.565 57.5658 213.026 57.5637C213.286 56.7772 213.386 55.9467 213.319 55.1211C213.252 54.2956 213.02 53.4918 212.637 52.7573C212.254 52.0229 211.728 51.3727 211.09 50.8453C210.451 50.3178 209.713 49.9238 208.92 49.6865C207.876 49.3701 206.765 49.3431 205.701 49.094C204.806 48.8853 203.944 48.5285 203.008 48.4208C200.275 48.0168 195.838 47.2762 195.912 51.5111" fill="#263238"/>
<path d="M210.98 55.8193C211.155 56.2704 212.131 61.5354 212.131 61.5354L213.316 56.4589L210.98 55.8193Z" fill="#263238"/>
<path d="M244.138 120.932C245.931 118.87 246.914 116.227 246.904 113.495C246.894 110.763 245.892 108.128 244.084 106.079L226.081 85.666L221.261 99.1313C221.591 99.3468 235.278 114.024 235.278 114.024L223.516 128.688C222.623 129.799 222.026 131.119 221.781 132.523C221.536 133.928 221.651 135.372 222.116 136.72L225.26 144.415L233.871 140.557L233.198 139.554H226.741L226.357 138.006L244.138 120.932Z" fill="#FFBE9D"/>
<path d="M235.608 94.2971L224.236 82.8516C222.045 80.5616 219.35 78.8142 216.366 77.7482C214.784 77.1831 213.124 76.8652 211.444 76.8057C207.578 78.031 203.427 78.031 199.561 76.8057C196.306 77.161 193.136 78.0719 190.189 79.4987L173.216 86.3862L178.663 101.4L187.772 98.3367L188.311 112.475L186.507 133.596L221.752 133.919L221.294 114.758V100.902L226.384 105.85L235.608 94.2971Z" fill="#455A64"/>
</svg>
