<svg width="50" height="50" viewBox="0 0 50 50" fill="none" xmlns="http://www.w3.org/2000/svg">
<path d="M22.501 15.4894L18.8704 14.0071L18.7973 14.2208M22.501 15.4894V17.0483M22.501 15.4894L25.4275 16.55M22.501 17.0483L18.3635 15.4894L18.4654 15.1915M22.501 17.0483V19.2433H23.8224M18.4654 15.1915L15.6289 14.0071L15.9069 13L18.7973 14.2208M18.4654 15.1915L18.7973 14.2208M23.8224 19.2433L20.8959 22.198H21.424M23.8224 19.2433L26.5256 22.198H25.9607M23.8224 19.2433H25.4275V16.55M21.424 22.198V23.9863H21.7983M21.424 22.198H23.3566M23.3566 22.198V23.9863H23.1263M23.3566 22.198H24.0281M21.7983 23.9863V26.1745H23.1263V23.9863M21.7983 23.9863H23.1263M24.4024 23.9863H24.0281V22.198M24.4024 23.9863V26.1745H25.7304V23.9863M24.4024 23.9863H25.7304M25.7304 23.9863H25.9607V22.198M25.9607 22.198H24.0281M25.4275 16.55L34.3716 19.7915V35.711M21.3059 30.474V29.2721H29.9899V35.711M29.9899 35.711H21.3059V37H29.9899H34.3716V35.711M29.9899 35.711H34.3716" stroke="#1F2A44" stroke-linecap="round" stroke-linejoin="round"/>
</svg>
