<svg width="37" height="37" viewBox="0 0 37 37" fill="none" xmlns="http://www.w3.org/2000/svg">
<path fill-rule="evenodd" clip-rule="evenodd" d="M18.5 4.125C15.139 4.125 12.2509 6.14496 10.9814 9.03505C10.7978 9.45301 10.6719 9.73864 10.5624 9.94225C10.4494 10.1522 10.391 10.2007 10.3762 10.2103C10.3496 10.2277 10.2896 10.2566 10.1117 10.2736C9.92831 10.2911 9.68408 10.2917 9.31105 10.2917H9.25C6.41954 10.2917 4.125 12.5862 4.125 15.4167C4.125 18.2471 6.41954 20.5417 9.25 20.5417H12.0882L13.0882 19.5417H9.25C6.97183 19.5417 5.125 17.6948 5.125 15.4167C5.125 13.1385 6.97183 11.2917 9.25 11.2917H9.31105L9.33455 11.2917H9.33458C9.67764 11.2917 9.97016 11.2917 10.2068 11.2691C10.4543 11.2454 10.7005 11.1929 10.923 11.0476C11.1574 10.8946 11.3136 10.6567 11.4431 10.4159C11.5738 10.1729 11.7155 9.85028 11.8882 9.45719L11.8969 9.43723C13.0127 6.89725 15.5499 5.125 18.5 5.125C21.4501 5.125 23.9873 6.89725 25.1031 9.43723L25.1118 9.4571C25.2845 9.85023 25.4262 10.1729 25.5569 10.4159C25.6864 10.6567 25.8426 10.8946 26.077 11.0476C26.2995 11.1929 26.5457 11.2454 26.7932 11.2691C27.0298 11.2917 27.3224 11.2917 27.6654 11.2917H27.6655L27.6889 11.2917H28.375C30.308 11.2917 31.875 12.8587 31.875 14.7917V16.0417C31.875 17.9747 30.308 19.5417 28.375 19.5417H23.9118L24.9118 20.5417H28.375C30.8603 20.5417 32.875 18.5269 32.875 16.0417V14.7917C32.875 12.3064 30.8603 10.2917 28.375 10.2917H27.6889C27.3159 10.2917 27.0717 10.2911 26.8883 10.2736C26.7104 10.2566 26.6504 10.2277 26.6238 10.2103C26.609 10.2007 26.5506 10.1522 26.4376 9.94225C26.3281 9.73864 26.2022 9.45301 26.0186 9.03504C24.7491 6.14496 21.861 4.125 18.5 4.125Z" fill="#464646"/>
<path d="M18.4999 18.5L18.1464 18.1464L18.4999 17.7929L18.8535 18.1464L18.4999 18.5ZM18.9999 32.375C18.9999 32.6511 18.7761 32.875 18.4999 32.875C18.2238 32.875 17.9999 32.6511 17.9999 32.375L18.9999 32.375ZM11.9797 24.3131L18.1464 18.1464L18.8535 18.8536L12.6868 25.0202L11.9797 24.3131ZM18.8535 18.1464L25.0201 24.3131L24.313 25.0202L18.1464 18.8536L18.8535 18.1464ZM18.9999 18.5L18.9999 32.375L17.9999 32.375L17.9999 18.5L18.9999 18.5Z" fill="#464646"/>
</svg>
