<svg width="96" height="92" viewBox="0 0 96 92" fill="none" xmlns="http://www.w3.org/2000/svg">
<path d="M70.9765 89.1367C76.4953 84.4682 83.2355 81.3887 88.6944 76.7112C89.6202 75.9183 93.2102 74.0872 93.527 72.8224M93.527 72.8224C93.9374 71.18 89.9387 69.0838 89.0194 68.5684C84.3846 65.9698 76.2607 61.5127 70.9208 59.2379M93.527 72.8224C74.1577 76.4144 45.0719 65.2965 43.0423 47.5002M43.0423 47.5002C42.5049 42.7886 43.864 37.6089 47.8019 32.1101C55.2479 21.7134 68.1841 32.8783 61.5769 42.6101C57.9284 47.9827 49.7004 48.4662 43.0423 47.5002ZM43.0423 47.5002C41.1299 47.2227 39.3471 46.8257 37.8395 46.3905C19.1483 40.9957 3.94684 20.9789 1.99999 1.99951" stroke="#00FFA3" stroke-width="4" stroke-miterlimit="1.5" stroke-linecap="round" stroke-linejoin="round"/>
</svg>
