<svg width="50" height="50" viewBox="0 0 50 50" fill="none" xmlns="http://www.w3.org/2000/svg">
<circle cx="25" cy="25" r="25" fill="#1F2A44"/>
<path d="M29.37 28.51C29.8607 28.8367 30.404 29 31 29C31.8427 29 32.5533 28.7087 33.132 28.126C33.7107 27.5433 34 26.831 34 25.989V25C34.0007 23.7547 33.7643 22.5847 33.291 21.49C32.8177 20.3953 32.176 19.443 31.366 18.633C30.556 17.823 29.603 17.1817 28.507 16.709C27.411 16.2363 26.241 16 24.997 16C23.753 16 22.583 16.2363 21.487 16.709C20.391 17.1817 19.4387 17.8233 18.63 18.634C17.8213 19.4447 17.181 20.3977 16.709 21.493C16.2363 22.5877 16 23.7577 16 25.003C16 26.2483 16.2363 27.418 16.709 28.512C17.1817 29.606 17.8233 30.558 18.634 31.368C19.4447 32.178 20.3977 32.8193 21.493 33.292L29.37 28.51ZM29.37 28.51C29.0351 28.2873 28.7596 28.0141 28.5436 27.6904L29.37 28.51ZM16.5 25.0015C16.5 25.0269 16.5001 25.0522 16.5003 25.0775M16.5 25.0015C16.5 25.001 16.5 25.0005 16.5 25L16.5003 25.0775M16.5 25.0015C16.5 25.002 16.5 25.0025 16.5 25.003C16.5 25.0279 16.5001 25.0527 16.5003 25.0775M16.5 25.0015L16.5003 25.0775M24.9995 28.5C24.0353 28.4999 23.1995 28.1566 22.5214 27.4786C21.8433 26.8004 21.5 25.9644 21.5 25M24.9995 28.5L22.165 27.836L22.5187 27.4826M24.9995 28.5C24.0162 28.4999 23.1992 28.163 22.5187 27.4826M24.9995 28.5L22.5187 27.4826M21.5 25C21.5 24.0356 21.8433 23.1996 22.5214 22.5214C23.1996 21.8433 24.0356 21.5 25 21.5M21.5 25C21.5 24.0172 21.8371 23.2 22.5186 22.5186C23.2 21.8371 24.0172 21.5 25 21.5M21.5 25C21.5 25.9827 21.837 26.8003 22.5186 27.4824C22.5186 27.4825 22.5187 27.4825 22.5187 27.4826M25 21.5C25.9644 21.5 26.8004 21.8433 27.4786 22.5214C28.1566 23.1995 28.4999 24.0352 28.5 24.9994C28.5012 24.017 28.1645 23.2001 27.4826 22.5187C26.8004 21.8371 25.9828 21.5 25 21.5ZM24.997 16.5C24.9721 16.5 24.9473 16.5001 24.9225 16.5003C24.9478 16.5001 24.9731 16.5 24.9985 16.5M24.997 16.5H25C24.9995 16.5 24.999 16.5 24.9985 16.5M24.997 16.5C24.9975 16.5 24.998 16.5 24.9985 16.5M24.997 16.5L24.9985 16.5M33.499 26.0668C33.4817 26.7182 33.2328 27.2899 32.7664 27.7587C32.2813 28.2463 31.6841 28.4992 31.0006 28.5M33.499 26.0668L31.0006 28.5M33.499 26.0668C33.4821 26.7454 33.2426 27.3051 32.7772 27.7737C32.2953 28.2589 31.7137 28.4999 31.0006 28.5M33.499 26.0668L31.0006 28.5M28.5843 26.6482L28.382 26.1804L28.2065 26.4331C28.4017 25.9952 28.5 25.516 28.5 25V25.989C28.5 26.2186 28.5283 26.4387 28.5843 26.6482ZM33.4992 24.8705C33.4997 24.9135 33.5 24.9565 33.5 24.9997C33.5 24.9565 33.4997 24.9135 33.4992 24.8705Z" fill="white" stroke="white"/>
</svg>
