<svg width="50" height="50" viewBox="0 0 50 50" fill="none" xmlns="http://www.w3.org/2000/svg">
<circle cx="25" cy="25" r="25" fill="#1F2A44"/>
<path d="M27.2001 24.8094L23.3501 27.0094V22.6094L27.2001 24.8094Z" fill="white" stroke="white" stroke-width="1.5" stroke-linecap="round" stroke-linejoin="round"/>
<path d="M14 25.5888V24.0312C14 20.8467 14 19.2539 14.9955 18.2298C15.9921 17.2046 17.5607 17.1606 20.6968 17.0715C22.1818 17.0297 23.6998 17 25 17C26.3002 17 27.8171 17.0297 29.3032 17.0715C32.4393 17.1606 34.0079 17.2046 35.0034 18.2298C35.9989 19.255 36 20.8478 36 24.0312V25.5877C36 28.7733 36 30.365 35.0045 31.3902C34.0079 32.4143 32.4404 32.4594 29.3032 32.5474C27.8182 32.5903 26.3002 32.62 25 32.62C23.6998 32.62 22.1829 32.5903 20.6968 32.5474C17.5607 32.4594 15.9921 32.4154 14.9955 31.3902C13.9989 30.365 14 28.7722 14 25.5888Z" stroke="white" stroke-width="1.5"/>
</svg>
