<svg width="311" height="176" viewBox="0 0 311 176" fill="none" xmlns="http://www.w3.org/2000/svg">
<g clip-path="url(#clip0_197_100)">
<path d="M303.689 148.399C302.565 139.387 296.963 130.507 288.343 127.574C291.742 136.85 291.741 147.026 288.34 156.302C287.016 159.874 285.169 163.71 286.415 167.311C287.191 169.551 289.087 171.265 291.207 172.337C293.327 173.409 295.68 173.919 298.003 174.42L298.461 174.797C302.149 166.493 304.813 157.411 303.689 148.399Z" fill="#F0F0F0"/>
<path d="M288.257 127.745C293.277 133.354 296.397 140.396 297.174 147.873C297.37 149.48 297.311 151.107 296.998 152.696C296.644 154.233 295.883 155.648 294.795 156.793C293.802 157.881 292.659 158.879 291.949 160.189C291.595 160.864 291.389 161.607 291.343 162.368C291.297 163.129 291.413 163.891 291.684 164.604C292.311 166.398 293.548 167.86 294.807 169.249C296.205 170.79 297.681 172.369 298.276 174.412C298.348 174.66 298.729 174.534 298.657 174.287C297.623 170.732 294.162 168.712 292.511 165.51C291.741 164.016 291.417 162.281 292.139 160.704C292.771 159.325 293.948 158.295 294.963 157.202C296.041 156.1 296.832 154.752 297.267 153.276C297.66 151.708 297.782 150.086 297.628 148.478C297.341 144.852 296.483 141.294 295.087 137.934C293.514 134.09 291.294 130.543 288.522 127.445C288.351 127.254 288.086 127.555 288.257 127.745Z" fill="white"/>
<path d="M297.066 145.45C298.307 145.15 299.4 144.42 300.15 143.39C300.9 142.361 301.259 141.099 301.163 139.829C301.142 139.573 300.741 139.592 300.762 139.849C300.854 141.031 300.519 142.207 299.819 143.164C299.118 144.121 298.097 144.797 296.94 145.07C296.689 145.13 296.816 145.51 297.066 145.45Z" fill="white"/>
<path d="M295.372 156.307C293.131 154.973 291.477 152.847 290.74 150.351C290.667 150.104 290.286 150.229 290.358 150.476C291.131 153.072 292.856 155.282 295.191 156.665C295.414 156.796 295.593 156.438 295.372 156.307Z" fill="white"/>
<path d="M293.142 134.469C292.686 134.685 292.184 134.784 291.68 134.759C291.176 134.733 290.686 134.583 290.255 134.323C290.034 134.188 289.855 134.547 290.074 134.68C290.552 134.966 291.093 135.131 291.65 135.16C292.207 135.19 292.762 135.083 293.268 134.849C293.317 134.831 293.358 134.795 293.382 134.748C293.405 134.701 293.41 134.646 293.395 134.596C293.379 134.546 293.342 134.504 293.295 134.48C293.247 134.457 293.192 134.452 293.142 134.469Z" fill="white"/>
<path d="M262.066 143.671C262.202 143.759 262.337 143.847 262.473 143.938C264.289 145.128 266.004 146.464 267.603 147.931C267.728 148.042 267.853 148.157 267.975 148.272C271.789 151.848 274.903 156.099 277.16 160.808C278.057 162.683 278.809 164.623 279.41 166.612C280.24 169.358 280.921 172.402 282.565 174.648C282.733 174.885 282.917 175.11 283.114 175.324H297.964C297.998 175.307 298.031 175.294 298.065 175.277L298.658 175.304C298.634 175.199 298.607 175.091 298.584 174.986C298.57 174.925 298.553 174.865 298.54 174.804C298.53 174.763 298.519 174.723 298.513 174.686C298.509 174.672 298.506 174.659 298.502 174.648C298.496 174.611 298.485 174.578 298.479 174.544C298.33 173.939 298.176 173.334 298.018 172.73C298.018 172.726 298.018 172.726 298.015 172.723C296.798 168.119 295.185 163.575 292.932 159.42C292.865 159.295 292.797 159.167 292.722 159.042C291.696 157.174 290.519 155.394 289.202 153.718C288.478 152.802 287.708 151.924 286.895 151.086C284.789 148.925 282.356 147.108 279.685 145.701C274.358 142.898 268.192 141.823 262.5 143.536C262.354 143.58 262.212 143.624 262.066 143.671Z" fill="#F0F0F0"/>
<path d="M262.1 143.86C269.494 145.324 276.238 149.074 281.374 154.578C282.5 155.743 283.436 157.078 284.145 158.533C284.791 159.974 285.038 161.56 284.86 163.127C284.724 164.592 284.415 166.075 284.638 167.547C284.764 168.299 285.048 169.016 285.471 169.651C285.894 170.286 286.447 170.825 287.093 171.232C288.677 172.288 290.548 172.713 292.391 173.066C294.438 173.457 296.571 173.831 298.279 175.106C298.486 175.261 298.714 174.931 298.508 174.777C295.535 172.559 291.552 173.025 288.301 171.459C286.783 170.728 285.478 169.537 285.102 167.845C284.773 166.364 285.091 164.835 285.241 163.353C285.437 161.826 285.255 160.275 284.711 158.835C284.077 157.348 283.195 155.98 282.102 154.788C279.682 152.065 276.849 149.739 273.705 147.894C270.129 145.769 266.214 144.269 262.13 143.46C261.878 143.41 261.848 143.81 262.1 143.86Z" fill="white"/>
<path d="M279.825 152.709C280.634 151.724 281.066 150.485 281.043 149.213C281.021 147.94 280.545 146.717 279.702 145.762C279.53 145.569 279.222 145.825 279.394 146.018C280.181 146.906 280.624 148.046 280.642 149.231C280.661 150.416 280.254 151.569 279.495 152.481C279.33 152.679 279.661 152.906 279.825 152.709Z" fill="white"/>
<path d="M285.027 162.394C282.433 162.674 279.828 161.969 277.732 160.419C277.525 160.265 277.296 160.594 277.504 160.748C279.688 162.357 282.4 163.085 285.099 162.788C285.356 162.759 285.283 162.366 285.027 162.394Z" fill="white"/>
<path d="M270.06 146.295C269.827 146.741 269.486 147.122 269.068 147.404C268.651 147.686 268.169 147.86 267.667 147.911C267.41 147.936 267.483 148.33 267.739 148.305C268.293 148.246 268.825 148.053 269.287 147.742C269.749 147.432 270.128 147.013 270.39 146.523C270.419 146.479 270.43 146.425 270.42 146.373C270.411 146.322 270.382 146.276 270.34 146.244C270.296 146.214 270.242 146.203 270.19 146.212C270.137 146.222 270.091 146.251 270.06 146.295Z" fill="white"/>
<path d="M5.42101 39.8617C8.41496 39.8617 10.842 37.4418 10.842 34.4567C10.842 31.4717 8.41496 29.0518 5.42101 29.0518C2.42707 29.0518 0 31.4717 0 34.4567C0 37.4418 2.42707 39.8617 5.42101 39.8617Z" fill="#E4E4E4"/>
<path d="M277.488 39.8617C280.482 39.8617 282.909 37.4418 282.909 34.4567C282.909 31.4717 280.482 29.0518 277.488 29.0518C274.494 29.0518 272.067 31.4717 272.067 34.4567C272.067 37.4418 274.494 39.8617 277.488 39.8617Z" fill="#E4E4E4"/>
<path d="M279.182 34.1191H221.883V34.7948H279.182V34.1191Z" fill="#E4E4E4"/>
<path d="M206.804 34.1191H153.854V34.7948H206.804V34.1191Z" fill="#E4E4E4"/>
<path d="M138.775 34.1191H85.3755V34.7948H138.775V34.1191Z" fill="#E4E4E4"/>
<path d="M70.361 34.1191H5.4209V34.7948H70.361V34.1191Z" fill="#E4E4E4"/>
<path d="M79.6214 43.7465C78.1136 43.7465 76.6397 43.3007 75.3861 42.4655C74.1324 41.6303 73.1553 40.4432 72.5783 39.0544C72.0014 37.6655 71.8504 36.1373 72.1445 34.6629C72.4387 33.1885 73.1647 31.8341 74.2309 30.7711C75.297 29.7081 76.6554 28.9843 78.1341 28.691C79.6129 28.3977 81.1457 28.5482 82.5387 29.1235C83.9316 29.6988 85.1222 30.673 85.9599 31.9229C86.7976 33.1729 87.2447 34.6424 87.2447 36.1457C87.2424 38.1608 86.4385 40.0928 85.0093 41.5177C83.5802 42.9427 81.6425 43.7442 79.6214 43.7465Z" fill="#7BAFDF"/>
<path d="M77.927 42.2269C76.3857 42.2269 74.8791 41.7712 73.5976 40.9174C72.3161 40.0637 71.3173 38.8502 70.7275 37.4305C70.1377 36.0108 69.9833 34.4486 70.284 32.9414C70.5847 31.4342 71.3269 30.0498 72.4167 28.9632C73.5065 27.8766 74.8951 27.1366 76.4067 26.8368C77.9183 26.537 79.4852 26.6909 80.9091 27.2789C82.3331 27.867 83.5501 28.8629 84.4064 30.1406C85.2627 31.4183 85.7197 32.9205 85.7197 34.4572C85.7174 36.5171 84.8956 38.492 83.4347 39.9486C81.9738 41.4052 79.993 42.2245 77.927 42.2269ZM77.927 27.3631C76.5198 27.3631 75.1441 27.7792 73.9741 28.5587C72.804 29.3382 71.892 30.4461 71.3535 31.7424C70.815 33.0387 70.6741 34.4651 70.9486 35.8412C71.2232 37.2173 71.9008 38.4813 72.8959 39.4734C73.8909 40.4656 75.1587 41.1412 76.5389 41.4149C77.9191 41.6886 79.3497 41.5482 80.6498 41.0112C81.9499 40.4743 83.0611 39.565 83.843 38.3984C84.6248 37.2318 85.0421 35.8603 85.0421 34.4572C85.04 32.5764 84.2896 30.7732 82.9558 29.4433C81.6219 28.1133 79.8134 27.3652 77.927 27.3631Z" fill="#3F3D56"/>
<path d="M77.7576 36.8216C77.6229 36.8216 77.4936 36.7682 77.3983 36.6732L74.5184 33.8018C74.471 33.7548 74.4334 33.6989 74.4077 33.6374C74.382 33.5758 74.3687 33.5099 74.3687 33.4432C74.3686 33.3766 74.3817 33.3106 74.4072 33.249C74.4328 33.1874 74.4702 33.1314 74.5175 33.0843C74.5648 33.0372 74.6209 32.9998 74.6827 32.9744C74.7445 32.9489 74.8107 32.9358 74.8775 32.9359C74.9443 32.936 75.0105 32.9492 75.0722 32.9749C75.1339 33.0005 75.1899 33.038 75.2371 33.0852L77.7576 35.5984L82.7699 30.6008C82.8653 30.5061 82.9945 30.453 83.1291 30.4531C83.2637 30.4533 83.3927 30.5066 83.4879 30.6015C83.5831 30.6964 83.6366 30.8251 83.6367 30.9593C83.6369 31.0935 83.5836 31.2223 83.4886 31.3173L78.117 36.6732C78.0217 36.7682 77.8924 36.8216 77.7576 36.8216Z" fill="white"/>
<path d="M148.061 43.7465C146.554 43.7465 145.08 43.3007 143.826 42.4655C142.572 41.6303 141.595 40.4432 141.018 39.0544C140.441 37.6655 140.29 36.1373 140.584 34.6629C140.879 33.1885 141.605 31.8341 142.671 30.7711C143.737 29.7081 145.095 28.9843 146.574 28.691C148.053 28.3977 149.586 28.5482 150.979 29.1235C152.372 29.6988 153.562 30.673 154.4 31.9229C155.238 33.1729 155.685 34.6424 155.685 36.1457C155.682 38.1608 154.878 40.0928 153.449 41.5177C152.02 42.9427 150.082 43.7442 148.061 43.7465Z" fill="#7BAFDF"/>
<path d="M146.367 42.2269C144.826 42.2269 143.32 41.7712 142.038 40.9174C140.757 40.0637 139.758 38.8502 139.168 37.4305C138.578 36.0108 138.424 34.4486 138.724 32.9414C139.025 31.4342 139.767 30.0498 140.857 28.9632C141.947 27.8766 143.336 27.1366 144.847 26.8368C146.359 26.537 147.926 26.6909 149.35 27.2789C150.773 27.867 151.991 28.8629 152.847 30.1406C153.703 31.4183 154.16 32.9205 154.16 34.4572C154.158 36.5171 153.336 38.492 151.875 39.9486C150.414 41.4052 148.433 42.2245 146.367 42.2269ZM146.367 27.3631C144.96 27.3631 143.585 27.7792 142.414 28.5587C141.244 29.3382 140.332 30.4461 139.794 31.7424C139.255 33.0387 139.115 34.4651 139.389 35.8412C139.664 37.2173 140.341 38.4813 141.336 39.4734C142.331 40.4656 143.599 41.1412 144.979 41.4149C146.36 41.6886 147.79 41.5482 149.09 41.0112C150.39 40.4743 151.502 39.565 152.283 38.3984C153.065 37.2318 153.483 35.8603 153.483 34.4572C153.48 32.5764 152.73 30.7732 151.396 29.4433C150.062 28.1133 148.254 27.3652 146.367 27.3631Z" fill="#3F3D56"/>
<path d="M146.198 36.8211C146.063 36.8211 145.934 36.7677 145.839 36.6726L142.959 33.8012C142.911 33.7542 142.874 33.6984 142.848 33.6368C142.822 33.5753 142.809 33.5093 142.809 33.4427C142.809 33.376 142.822 33.31 142.848 33.2485C142.873 33.1869 142.911 33.1309 142.958 33.0838C143.005 33.0367 143.061 32.9993 143.123 32.9738C143.185 32.9484 143.251 32.9353 143.318 32.9354C143.385 32.9355 143.451 32.9487 143.513 32.9743C143.574 32.9999 143.63 33.0375 143.678 33.0847L146.198 35.5978L151.21 30.6003C151.258 30.5531 151.314 30.5156 151.375 30.49C151.437 30.4644 151.503 30.4512 151.57 30.4512C151.637 30.4511 151.703 30.4642 151.765 30.4896C151.826 30.5151 151.882 30.5525 151.93 30.5996C151.977 30.6467 152.014 30.7026 152.04 30.7642C152.066 30.8257 152.079 30.8917 152.079 30.9583C152.079 31.025 152.065 31.0909 152.04 31.1524C152.014 31.2139 151.976 31.2698 151.929 31.3168L146.557 36.6726C146.462 36.7677 146.333 36.8211 146.198 36.8211Z" fill="white"/>
<path d="M216.163 43.7465C214.655 43.7465 213.181 43.3007 211.928 42.4655C210.674 41.6303 209.697 40.4432 209.12 39.0544C208.543 37.6655 208.392 36.1373 208.686 34.6629C208.98 33.1885 209.706 31.8341 210.772 30.7711C211.839 29.7081 213.197 28.9843 214.676 28.691C216.154 28.3977 217.687 28.5482 219.08 29.1235C220.473 29.6988 221.664 30.673 222.501 31.9229C223.339 33.1729 223.786 34.6424 223.786 36.1457C223.784 38.1608 222.98 40.0928 221.551 41.5177C220.122 42.9427 218.184 43.7442 216.163 43.7465Z" fill="#F0F0F0"/>
<path d="M214.469 42.2269C212.928 42.2269 211.421 41.7712 210.14 40.9174C208.858 40.0637 207.859 38.8502 207.269 37.4305C206.68 36.0108 206.525 34.4486 206.826 32.9414C207.127 31.4342 207.869 30.0498 208.959 28.9632C210.049 27.8766 211.437 27.1366 212.949 26.8368C214.46 26.537 216.027 26.6909 217.451 27.2789C218.875 27.867 220.092 28.8629 220.948 30.1406C221.805 31.4183 222.262 32.9205 222.262 34.4572C222.259 36.5171 221.438 38.492 219.977 39.9486C218.516 41.4052 216.535 42.2245 214.469 42.2269ZM214.469 27.3631C213.062 27.3631 211.686 27.7792 210.516 28.5587C209.346 29.3382 208.434 30.4461 207.895 31.7424C207.357 33.0387 207.216 34.4651 207.491 35.8412C207.765 37.2173 208.443 38.4813 209.438 39.4734C210.433 40.4656 211.701 41.1412 213.081 41.4149C214.461 41.6886 215.892 41.5482 217.192 41.0112C218.492 40.4743 219.603 39.565 220.385 38.3984C221.167 37.2318 221.584 35.8603 221.584 34.4572C221.582 32.5764 220.832 30.7732 219.498 29.4433C218.164 28.1133 216.355 27.3652 214.469 27.3631Z" fill="#CACACA"/>
<path d="M209.579 73.8168C208.071 73.8168 206.597 73.371 205.344 72.5358C204.09 71.7006 203.113 70.5136 202.536 69.1247C201.959 67.7358 201.808 66.2076 202.102 64.7332C202.396 63.2588 203.122 61.9044 204.188 60.8414C205.255 59.7785 206.613 59.0546 208.092 58.7613C209.57 58.468 211.103 58.6185 212.496 59.1938C213.889 59.7691 215.08 60.7433 215.917 61.9932C216.755 63.2432 217.202 64.7127 217.202 66.216C217.2 68.2312 216.396 70.1631 214.967 71.5881C213.538 73.013 211.6 73.8145 209.579 73.8168Z" fill="#7BAFDF"/>
<path d="M209.071 68.5814C208.936 68.5814 208.807 68.528 208.711 68.433L205.831 65.5616C205.736 65.4665 205.683 65.3376 205.683 65.2033C205.683 65.0689 205.736 64.94 205.831 64.845C205.927 64.75 206.056 64.6966 206.191 64.6966C206.326 64.6966 206.455 64.75 206.55 64.845L209.071 67.3582L214.083 62.3606C214.178 62.2659 214.308 62.2128 214.442 62.2129C214.577 62.213 214.706 62.2664 214.801 62.3613C214.896 62.4562 214.95 62.5849 214.95 62.7191C214.95 62.8533 214.897 62.982 214.802 63.0771L209.43 68.433C209.335 68.528 209.206 68.5814 209.071 68.5814Z" fill="white"/>
<path d="M226.601 171.836L222.497 171.203L222.992 155.115L229.05 156.049L226.601 171.836Z" fill="#9E616A"/>
<path d="M227.033 175.965L213.797 173.924L213.823 173.757C214.034 172.395 214.779 171.172 215.895 170.358C217.011 169.543 218.405 169.204 219.771 169.415L227.856 170.661L227.033 175.965Z" fill="#2F2E41"/>
<path d="M269.745 171.431L265.595 171.607L262.938 155.731L269.063 155.471L269.745 171.431Z" fill="#9E616A"/>
<path d="M270.975 175.397L257.593 175.965L257.586 175.797C257.527 174.419 258.02 173.075 258.955 172.06C259.89 171.044 261.191 170.441 262.573 170.382L270.746 170.035L270.975 175.397Z" fill="#2F2E41"/>
<path d="M261.574 76.7824C261.77 76.7275 261.971 76.6902 262.173 76.6711L259.586 55.5576L250.808 37.0226C250.255 35.8566 250.167 34.5252 250.561 33.2969C250.954 32.0686 251.8 31.0348 252.928 30.4041C254.056 29.7733 255.382 29.5925 256.639 29.8981C257.895 30.2037 258.988 30.973 259.698 32.0508C261.999 35.5434 263.739 39.3725 264.857 43.3999L268.545 56.695L265.848 79.4948C265.951 80.1375 265.866 80.7962 265.603 81.3918C265.34 81.9874 264.91 82.4944 264.364 82.8519C263.819 83.2094 263.181 83.4022 262.528 83.4069C261.876 83.4117 261.235 83.2283 260.685 82.8788C260.134 82.5293 259.696 82.0286 259.424 81.4369C259.152 80.8452 259.058 80.1878 259.152 79.5437C259.246 78.8996 259.524 78.2964 259.954 77.8065C260.384 77.3166 260.946 76.961 261.574 76.7824Z" fill="#9E616A"/>
<path d="M248.739 36.9834C248.105 35.2625 248.17 33.3626 248.921 31.6891C249.672 30.0156 251.05 28.701 252.759 28.0259C254.469 27.3508 256.376 27.3687 258.072 28.0757C259.769 28.7827 261.121 30.1228 261.841 31.8101L267.335 44.6948L256.244 57.3447L248.739 36.9834Z" fill="#2F2E41"/>
<path d="M240.219 39.1864L247.673 26.6874C252.822 23.3307 257.058 25.5256 259.316 31.231C261.284 36.2022 262.811 42.4914 261.903 48.983C259.868 63.5243 258.176 65.198 258.176 65.198C258.176 65.198 270.881 79.2172 268.171 97.1212L270.204 164.684L264.105 164.346L255.635 125.497L249.197 101.175L238.016 130.902L228.191 165.359L221.415 164.008L225.48 125.835L231.24 81.9197L237.847 65.198L234.628 53.5434C234.628 53.5434 230.901 45.436 240.219 39.1864Z" fill="#2F2E41"/>
<path d="M215.449 57.0374C215.586 57.1876 215.709 57.3497 215.817 57.5219L233.606 45.7805L246.315 29.6688C247.114 28.6552 248.269 27.9817 249.547 27.7839C250.825 27.5862 252.131 27.879 253.201 28.6033C254.271 29.3275 255.025 30.4294 255.312 31.6867C255.6 32.9439 255.398 34.263 254.748 35.3778C252.642 38.9905 249.984 42.2537 246.869 45.0498L236.588 54.2798L214.925 62.0614C214.395 62.4408 213.766 62.6593 213.114 62.6906C212.461 62.7219 211.814 62.5647 211.25 62.2378C210.685 61.911 210.227 61.4285 209.932 60.8484C209.636 60.2682 209.514 59.6152 209.582 58.9679C209.649 58.3205 209.903 57.7064 210.312 57.1994C210.722 56.6925 211.269 56.3143 211.889 56.1103C212.509 55.9064 213.175 55.8854 213.807 56.0498C214.438 56.2143 215.009 56.5572 215.449 57.0374Z" fill="#9E616A"/>
<path d="M245.425 27.8062C246.686 26.4715 248.42 25.6808 250.257 25.603C252.094 25.5252 253.889 26.1664 255.259 27.3898C256.629 28.6131 257.464 30.3217 257.588 32.151C257.712 33.9803 257.114 35.7853 255.921 37.1809L246.815 47.8387L230.509 43.5981L245.425 27.8062Z" fill="#2F2E41"/>
<path d="M251.478 21.013C256.359 18.3526 258.153 12.2506 255.485 7.38391C252.816 2.51716 246.696 0.728572 241.815 3.38897C236.934 6.04937 235.14 12.1513 237.808 17.0181C240.477 21.8848 246.597 23.6734 251.478 21.013Z" fill="#9E616A"/>
<path d="M244.962 1.96709e-10H251.469C255.734 1.96709e-10 259.192 3.87873 259.192 8.6634L258.891 20.2687C254.282 20.8404 249.774 22.0426 245.494 23.8413L244.887 21.2556L243.689 24.661C242.624 25.1756 241.567 25.7384 240.52 26.3493C241.742 20.623 242.245 14.9101 241.406 10.4722H239.202V8.06759L238.454 10.4722H234.459C234.459 9.09694 234.731 7.73517 235.258 6.46462C235.786 5.19408 236.56 4.03963 237.535 3.0672C238.511 2.09477 239.668 1.3234 240.943 0.797128C242.217 0.270856 243.583 -8.42867e-06 244.962 1.96709e-10Z" fill="#2F2E41"/>
<path d="M310.661 176H181.573C181.483 176 181.397 175.964 181.334 175.901C181.27 175.838 181.234 175.752 181.234 175.662C181.234 175.572 181.27 175.487 181.334 175.423C181.397 175.36 181.483 175.324 181.573 175.324H310.661C310.751 175.324 310.837 175.36 310.901 175.423C310.964 175.487 311 175.572 311 175.662C311 175.752 310.964 175.838 310.901 175.901C310.837 175.964 310.751 176 310.661 176Z" fill="#CACACA"/>
<path d="M77.9272 80.3992C77.8373 80.3992 77.7511 80.3636 77.6876 80.3003C77.6241 80.2369 77.5884 80.151 77.5884 80.0614V42.2265C77.5884 42.1369 77.6241 42.051 77.6876 41.9876C77.7511 41.9243 77.8373 41.8887 77.9272 41.8887C78.0171 41.8887 78.1032 41.9243 78.1668 41.9876C78.2303 42.051 78.266 42.1369 78.266 42.2265V80.0614C78.266 80.151 78.2303 80.2369 78.1668 80.3003C78.1032 80.3636 78.017 80.3992 77.9272 80.3992Z" fill="#3F3D56"/>
<path d="M54.0284 86.2705C53.4582 86.2705 52.9113 86.4964 52.5081 86.8984C52.1049 87.3004 51.8784 87.8456 51.8784 88.4142C51.8784 88.9827 52.1049 89.5279 52.5081 89.9299C52.9113 90.3319 53.4582 90.5578 54.0284 90.5578H101.835C102.404 90.5568 102.95 90.3305 103.353 89.9286C103.755 89.5267 103.981 88.982 103.981 88.4142C103.981 87.8463 103.755 87.3016 103.353 86.8997C102.95 86.4978 102.404 86.2715 101.835 86.2705H54.0284Z" fill="#E4E4E4"/>
<path d="M66.8469 96.4297C66.5646 96.4291 66.2849 96.484 66.0238 96.5911C65.7627 96.6983 65.5254 96.8557 65.3253 97.0543C65.1252 97.253 64.9664 97.489 64.8578 97.7488C64.7492 98.0087 64.693 98.2873 64.6924 98.5688C64.6918 98.8503 64.7468 99.1292 64.8543 99.3895C64.9618 99.6498 65.1197 99.8864 65.3189 100.086C65.5181 100.285 65.7548 100.444 66.0154 100.552C66.276 100.66 66.5555 100.716 66.8378 100.717H89.016C89.5862 100.717 90.1331 100.491 90.5363 100.089C90.9395 99.6871 91.166 99.1419 91.166 98.5733C91.166 98.0048 90.9395 97.4596 90.5363 97.0575C90.1331 96.6555 89.5862 96.4297 89.016 96.4297H66.8469Z" fill="#E4E4E4"/>
<path d="M123.485 86.2705C122.915 86.2705 122.368 86.4964 121.965 86.8984C121.561 87.3004 121.335 87.8456 121.335 88.4142C121.335 88.9827 121.561 89.5279 121.965 89.9299C122.368 90.3319 122.915 90.5578 123.485 90.5578H171.291C171.861 90.5568 172.407 90.3305 172.809 89.9286C173.212 89.5267 173.438 88.982 173.438 88.4142C173.438 87.8463 173.212 87.3016 172.809 86.8997C172.407 86.4978 171.861 86.2715 171.291 86.2705H123.485Z" fill="#E4E4E4"/>
<path d="M136.304 96.4297C136.022 96.4291 135.742 96.484 135.481 96.5911C135.22 96.6983 134.982 96.8557 134.782 97.0543C134.582 97.253 134.423 97.489 134.315 97.7488C134.206 98.0087 134.15 98.2873 134.149 98.5688C134.149 98.8503 134.204 99.1292 134.311 99.3895C134.419 99.6498 134.577 99.8864 134.776 100.086C134.975 100.285 135.212 100.444 135.472 100.552C135.733 100.66 136.013 100.716 136.295 100.717H158.473C159.043 100.717 159.59 100.491 159.993 100.089C160.396 99.6871 160.623 99.1419 160.623 98.5733C160.623 98.0048 160.396 97.4596 159.993 97.0575C159.59 96.6555 159.043 96.4297 158.473 96.4297H136.304Z" fill="#E4E4E4"/>
<path d="M147.384 80.3992C147.294 80.3992 147.208 80.3636 147.144 80.3003C147.081 80.2369 147.045 80.151 147.045 80.0614V42.2265C147.045 42.1369 147.081 42.051 147.144 41.9876C147.208 41.9243 147.294 41.8887 147.384 41.8887C147.474 41.8887 147.56 41.9243 147.623 41.9876C147.687 42.051 147.723 42.1369 147.723 42.2265V80.0614C147.723 80.151 147.687 80.2369 147.623 80.3003C147.56 80.3636 147.474 80.3992 147.384 80.3992Z" fill="#3F3D56"/>
</g>
<defs>
<clipPath id="clip0_197_100">
<rect width="311" height="176" fill="white"/>
</clipPath>
</defs>
</svg>
