<svg width="188" height="166" viewBox="0 0 188 166" fill="none" xmlns="http://www.w3.org/2000/svg">
<g clip-path="url(#clip0_197_145)">
<path d="M163.359 99.4439H5.15022C3.8741 99.4425 2.65065 98.9349 1.74829 98.0325C0.845933 97.1302 0.338355 95.9068 0.336914 94.6307V5.42578H168.173V94.6307C168.171 95.9068 167.664 97.1302 166.761 98.0325C165.859 98.9349 164.636 99.4425 163.359 99.4439Z" fill="#E6E6E6"/>
<path d="M157.063 90.2316H11.4464C10.789 90.2309 10.1587 89.9694 9.69387 89.5045C9.22902 89.0397 8.96754 88.4094 8.9668 87.7521V17.1192C8.96754 16.4618 9.22902 15.8315 9.69387 15.3667C10.1587 14.9019 10.789 14.6404 11.4464 14.6396H157.063C157.721 14.6404 158.351 14.9019 158.816 15.3667C159.281 15.8315 159.542 16.4618 159.543 17.1192V87.7521C159.542 88.4094 159.281 89.0397 158.816 89.5045C158.351 89.9694 157.721 90.2309 157.063 90.2316Z" fill="white"/>
<path d="M168.509 8.67766H0V4.81322C0.00144151 3.53711 0.50902 2.31369 1.41138 1.41135C2.31374 0.50901 3.53718 0.00144148 4.81331 0H163.696C164.972 0.00144148 166.196 0.50901 167.098 1.41135C168 2.31369 168.508 3.53711 168.509 4.81322V8.67766Z" fill="#7BAFDF"/>
<path d="M45.8904 63.1873H19.9727C19.3153 63.1866 18.6851 62.9251 18.2202 62.4603C17.7554 61.9954 17.4939 61.3652 17.4932 60.7078V43.67C17.4939 43.0126 17.7554 42.3823 18.2202 41.9175C18.6851 41.4526 19.3153 41.1912 19.9727 41.1904H45.8904C46.5478 41.1912 47.178 41.4526 47.6429 41.9175C48.1077 42.3823 48.3692 43.0126 48.37 43.67V60.7078C48.3692 61.3652 48.1077 61.9954 47.6429 62.4603C47.178 62.9251 46.5478 63.1866 45.8904 63.1873Z" fill="#E6E6E6"/>
<path d="M149.637 43.9487H67.7483C67.3825 43.9487 67.0317 43.8034 66.7731 43.5448C66.5144 43.2861 66.3691 42.9353 66.3691 42.5696C66.3691 42.2038 66.5144 41.853 66.7731 41.5944C67.0317 41.3357 67.3825 41.1904 67.7483 41.1904H149.637C150.003 41.1904 150.354 41.3357 150.612 41.5944C150.871 41.853 151.016 42.2038 151.016 42.5696C151.016 42.9353 150.871 43.2861 150.612 43.5448C150.354 43.8034 150.003 43.9487 149.637 43.9487Z" fill="#E6E6E6"/>
<path d="M149.637 53.8138H67.7482C67.3825 53.8138 67.0317 53.6685 66.7731 53.4099C66.5144 53.1513 66.3691 52.8005 66.3691 52.4347C66.3691 52.069 66.5144 51.7182 66.7731 51.4596C67.0317 51.201 67.3825 51.0557 67.7482 51.0557H149.637C150.003 51.0557 150.354 51.201 150.612 51.4596C150.871 51.7182 151.016 52.069 151.016 52.4347C151.016 52.8005 150.871 53.1513 150.612 53.4099C150.354 53.6685 150.003 53.8138 149.637 53.8138Z" fill="#E6E6E6"/>
<path d="M149.637 63.6802H67.7483C67.3825 63.6802 67.0317 63.5349 66.7731 63.2762C66.5144 63.0176 66.3691 62.6668 66.3691 62.301C66.3691 61.9352 66.5144 61.5845 66.7731 61.3258C67.0317 61.0672 67.3825 60.9219 67.7483 60.9219H149.637C150.003 60.9219 150.354 61.0672 150.612 61.3258C150.871 61.5845 151.016 61.9352 151.016 62.301C151.016 62.6668 150.871 63.0176 150.612 63.2762C150.354 63.5349 150.003 63.6802 149.637 63.6802Z" fill="#E6E6E6"/>
<path d="M122.389 162.282H118.813L117.111 148.487H122.39L122.389 162.282Z" fill="#A0616A"/>
<path d="M116.258 161.26H123.155V165.602H111.915C111.915 165.032 112.027 164.467 112.246 163.941C112.464 163.414 112.784 162.935 113.187 162.532C113.59 162.128 114.069 161.809 114.596 161.59C115.123 161.372 115.687 161.26 116.258 161.26Z" fill="#2F2E41"/>
<path d="M137.266 162.282H133.69L131.988 148.487H137.267L137.266 162.282Z" fill="#A0616A"/>
<path d="M131.136 161.26H138.033V165.602H126.793C126.793 165.032 126.905 164.467 127.124 163.941C127.342 163.414 127.662 162.935 128.065 162.532C128.468 162.128 128.947 161.809 129.474 161.59C130.001 161.372 130.565 161.26 131.136 161.26Z" fill="#2F2E41"/>
<path d="M136.81 159.111H133.17C132.841 159.109 132.525 158.985 132.283 158.762C132.041 158.539 131.891 158.234 131.862 157.907L128.777 120.743C128.768 120.635 128.719 120.535 128.64 120.46C128.561 120.386 128.457 120.344 128.348 120.342C128.24 120.34 128.135 120.379 128.053 120.45C127.971 120.521 127.919 120.62 127.906 120.728L123.475 157.954C123.437 158.273 123.283 158.566 123.043 158.78C122.803 158.993 122.493 159.111 122.172 159.111H117.701C117.355 159.11 117.022 158.973 116.776 158.728C116.531 158.484 116.392 158.152 116.389 157.805C116.379 155.467 116.363 153.112 116.348 150.756C116.206 129.776 116.059 108.081 120.44 99.5822L120.48 99.5047L136.289 99.2344L136.328 99.3213C141.111 109.773 139.66 133.123 138.256 155.704L138.121 157.88C138.099 158.213 137.952 158.526 137.709 158.754C137.466 158.983 137.144 159.111 136.81 159.111Z" fill="#2F2E41"/>
<path d="M129.322 71.3011C133.279 71.3011 136.487 68.0933 136.487 64.1364C136.487 60.1794 133.279 56.9717 129.322 56.9717C125.365 56.9717 122.157 60.1794 122.157 64.1364C122.157 68.0933 125.365 71.3011 129.322 71.3011Z" fill="#A0616A"/>
<path d="M119.554 100.822L119.751 92.6073L118.33 86.1979C117.971 84.6108 117.992 82.9614 118.391 81.3839C118.79 79.8065 119.556 78.3457 120.627 77.1204C121.669 75.9013 122.984 74.9457 124.465 74.3315C125.947 73.7173 127.552 73.462 129.151 73.5863C129.254 73.5943 129.358 73.6029 129.461 73.6122C130.827 73.7352 132.155 74.1319 133.364 74.7788C134.573 75.4257 135.64 76.3094 136.501 77.3774C137.379 78.4513 138.033 79.6912 138.422 81.023C138.811 82.3548 138.928 83.7513 138.766 85.1293L137.046 100.157L119.554 100.822Z" fill="#7BAFDF"/>
<path d="M113.467 115.544C113.805 115.28 114.081 114.945 114.276 114.563C114.47 114.181 114.579 113.761 114.593 113.332C114.608 112.904 114.529 112.477 114.36 112.082C114.192 111.688 113.94 111.335 113.621 111.049L117.655 101.437L112.331 102.436L109.316 111.411C108.871 111.979 108.649 112.691 108.693 113.411C108.737 114.132 109.044 114.812 109.556 115.321C110.067 115.83 110.748 116.135 111.469 116.176C112.19 116.217 112.901 115.992 113.467 115.544Z" fill="#A0616A"/>
<path d="M143.906 116.697C143.583 116.414 143.327 116.064 143.154 115.672C142.982 115.279 142.897 114.853 142.907 114.425C142.917 113.996 143.02 113.575 143.21 113.19C143.401 112.806 143.673 112.468 144.008 112.2L140.527 102.374L145.786 103.675L148.285 112.807C148.697 113.399 148.878 114.122 148.793 114.839C148.708 115.556 148.363 116.217 147.823 116.697C147.283 117.176 146.586 117.441 145.864 117.441C145.142 117.441 144.445 117.176 143.906 116.697Z" fill="#A0616A"/>
<path d="M114.108 110.834C113.923 110.834 113.74 110.795 113.571 110.72L110.502 109.345C110.207 109.213 109.971 108.977 109.839 108.682C109.707 108.386 109.69 108.053 109.789 107.745L114.937 91.7536L116.927 79.706C116.997 79.2779 117.154 78.8685 117.386 78.5019C117.618 78.1354 117.921 77.8194 118.278 77.5725C118.635 77.3257 119.038 77.1532 119.463 77.0652C119.888 76.9773 120.326 76.9757 120.751 77.0605C121.177 77.1453 121.581 77.3149 121.94 77.5591C122.298 77.8033 122.604 78.1171 122.839 78.4819C123.074 78.8467 123.233 79.255 123.307 79.6825C123.381 80.1101 123.368 80.5481 123.269 80.9706L120.245 93.891L115.363 109.905C115.282 110.174 115.115 110.409 114.889 110.577C114.663 110.744 114.389 110.835 114.108 110.834Z" fill="#7BAFDF"/>
<path d="M143.385 110.834C143.104 110.835 142.83 110.744 142.604 110.577C142.378 110.409 142.211 110.174 142.129 109.905L137.25 93.9002L134.224 80.9706C134.125 80.5482 134.112 80.1102 134.186 79.6826C134.26 79.2551 134.419 78.8467 134.654 78.4819C134.889 78.1171 135.194 77.8033 135.553 77.5591C135.912 77.3149 136.316 77.1453 136.741 77.0605C137.167 76.9757 137.605 76.9773 138.03 77.0652C138.455 77.1532 138.858 77.3257 139.215 77.5726C139.571 77.8194 139.875 78.1355 140.107 78.502C140.339 78.8685 140.495 79.278 140.566 79.7061L142.561 91.7747L147.704 107.745C147.803 108.053 147.785 108.386 147.654 108.682C147.522 108.977 147.286 109.213 146.991 109.345L143.922 110.72C143.753 110.795 143.57 110.834 143.385 110.834Z" fill="#7BAFDF"/>
<path d="M129.469 56.2168C127.478 55.3542 124.876 56.4275 124.073 58.4432C123.573 59.6977 123.725 61.1127 124.001 62.4347C124.277 63.7568 124.67 65.0762 124.628 66.426C124.585 67.7759 124.004 69.2085 122.806 69.833C122.091 70.2062 121.254 70.2477 120.478 70.4702C119.703 70.6927 118.902 71.213 118.79 72.0122C118.621 73.2212 120.088 74.1421 120.078 75.3628C120.068 76.6562 118.451 77.4243 118.242 78.7006C118.206 79.0744 118.265 79.4511 118.415 79.7955C118.564 80.14 118.799 80.4408 119.096 80.6697C119.696 81.1205 120.378 81.4507 121.104 81.6419C126.69 83.4272 132.638 83.7661 138.39 82.6268C139.533 82.3988 140.71 82.0905 141.598 81.3357C142.486 80.581 142.994 79.2598 142.483 78.212C141.718 76.6412 139.288 76.5517 138.441 75.0233C137.933 74.1065 138.167 72.981 138.274 71.9384C138.55 69.2457 139.187 66.1001 138.519 63.4773C137.914 61.1076 136.602 58.0455 134.726 56.4762C133.38 55.3502 130.811 55.8632 129.091 56.2106L129.469 56.2168Z" fill="#2F2E41"/>
<path d="M187.709 166H85.6081C85.5308 166 85.4566 165.97 85.4019 165.915C85.3471 165.86 85.3164 165.786 85.3164 165.709C85.3164 165.631 85.3471 165.557 85.4019 165.502C85.4566 165.448 85.5308 165.417 85.6081 165.417H187.709C187.786 165.417 187.86 165.448 187.915 165.502C187.97 165.557 188 165.631 188 165.709C188 165.786 187.97 165.86 187.915 165.915C187.86 165.97 187.786 166 187.709 166Z" fill="#CCCCCC"/>
<path d="M176.958 159.357C172.751 164.99 164.019 165.583 164.019 165.583C164.019 165.583 162.108 157.043 166.314 151.41C170.521 145.777 179.252 145.184 179.252 145.184C179.252 145.184 181.164 153.724 176.958 159.357Z" fill="#E6E6E6"/>
<path d="M155.529 161.475C158.304 165.192 164.066 165.583 164.066 165.583C164.066 165.583 165.328 159.948 162.552 156.231C159.776 152.513 154.015 152.122 154.015 152.122C154.015 152.122 152.753 157.758 155.529 161.475Z" fill="#E6E6E6"/>
</g>
<defs>
<clipPath id="clip0_197_145">
<rect width="188" height="166" fill="white"/>
</clipPath>
</defs>
</svg>
