<svg width="289" height="197" viewBox="0 0 289 197" fill="none" xmlns="http://www.w3.org/2000/svg">
<g clip-path="url(#clip0_197_62)">
<path d="M255.767 92.5137H37.3633V196.378H255.767V92.5137Z" fill="#E6E6E6"/>
<path d="M249.521 101.42H43.6084V188.077H249.521V101.42Z" fill="white"/>
<path d="M215.086 117.55H209.754V122.894H215.086V117.55Z" fill="#E6E6E6"/>
<path d="M72.8614 117.55H67.5293V122.894H72.8614V117.55Z" fill="#7BAFDF"/>
<path d="M85.149 132.856H67.375V150.669H85.149V132.856Z" fill="#E6E6E6"/>
<path d="M255.673 86.5127H37.2695V95.8115H255.673V86.5127Z" fill="#7BAFDF"/>
<path d="M44.165 94.9489C45.1148 94.9489 45.8848 94.1773 45.8848 93.2254C45.8848 92.2736 45.1148 91.502 44.165 91.502C43.2153 91.502 42.4453 92.2736 42.4453 93.2254C42.4453 94.1773 43.2153 94.9489 44.165 94.9489Z" fill="white"/>
<path d="M50.6924 94.9489C51.6422 94.9489 52.4121 94.1773 52.4121 93.2254C52.4121 92.2736 51.6422 91.502 50.6924 91.502C49.7426 91.502 48.9727 92.2736 48.9727 93.2254C48.9727 94.1773 49.7426 94.9489 50.6924 94.9489Z" fill="white"/>
<path d="M57.2197 94.9489C58.1695 94.9489 58.9394 94.1773 58.9394 93.2254C58.9394 92.2736 58.1695 91.502 57.2197 91.502C56.2699 91.502 55.5 92.2736 55.5 93.2254C55.5 94.1773 56.2699 94.9489 57.2197 94.9489Z" fill="white"/>
<path d="M289 196.378H0V197H289V196.378Z" fill="#E6E6E6"/>
<path d="M147.129 134.639H103.583V137.144H147.129V134.639Z" fill="#E6E6E6"/>
<path d="M170.827 143.776H103.583V146.282H170.827V143.776Z" fill="#7BAFDF"/>
<path d="M158.386 152.386H103.583V154.891H158.386V152.386Z" fill="#E6E6E6"/>
<path d="M135.576 160.963H103.583V163.468H135.576V160.963Z" fill="#E6E6E6"/>
<path d="M151.869 169.54H103.583V172.045H151.869V169.54Z" fill="#E6E6E6"/>
<path d="M224.27 117.55H218.938V122.894H224.27V117.55Z" fill="#E6E6E6"/>
<path d="M233.452 117.55H228.12V122.894H233.452V117.55Z" fill="#E6E6E6"/>
<path opacity="0.997" d="M222.624 163.468C228.604 163.468 233.452 158.609 233.452 152.615C233.452 146.622 228.604 141.763 222.624 141.763C216.643 141.763 211.795 146.622 211.795 152.615C211.795 158.609 216.643 163.468 222.624 163.468Z" fill="#7BAFDF"/>
<path d="M58.5104 29.3859C65.2434 29.3859 70.7015 23.9158 70.7015 17.1681C70.7015 10.4203 65.2434 4.9502 58.5104 4.9502C51.7775 4.9502 46.3193 10.4203 46.3193 17.1681C46.3193 23.9158 51.7775 29.3859 58.5104 29.3859Z" fill="#2F2E41"/>
<path d="M28.1717 121.705H22.8325L20.293 101.071H28.1711L28.1717 121.705Z" fill="#FEB8B8"/>
<path d="M19.0209 120.177H29.3153V126.673H12.5391C12.5391 124.95 13.222 123.298 14.4376 122.079C15.6531 120.861 17.3018 120.177 19.0209 120.177Z" fill="#2F2E41"/>
<path d="M19.8388 118.72L14.7461 117.118L18.4873 96.668L26.0037 99.0323L19.8388 118.72Z" fill="#FEB8B8"/>
<path d="M11.5615 114.517L21.3839 117.606L19.4431 123.804L3.43652 118.77C3.6914 117.956 4.10374 117.2 4.65001 116.546C5.19628 115.892 5.86578 115.352 6.62028 114.957C7.37479 114.562 8.19952 114.32 9.04739 114.244C9.89526 114.169 10.7497 114.261 11.5618 114.517L11.5615 114.517Z" fill="#2F2E41"/>
<path d="M21.5758 110.486C21.3426 110.486 21.1112 110.444 20.8929 110.362L16.9645 108.886C16.5237 108.719 16.1574 108.399 15.9325 107.984C15.7076 107.568 15.6391 107.086 15.7393 106.624C16.728 102.169 20.0976 87.001 21.9427 78.8654C24.1309 69.2154 56.0531 67.4222 57.4109 67.3506L57.5226 67.3447L61.1136 71.8653C62.4111 76.0453 61.9998 79.3056 59.8912 81.5561C53.7377 88.1219 35.3662 84.0477 33.1756 83.5322L23.4113 109.222C23.269 109.594 23.0175 109.914 22.69 110.14C22.3624 110.365 21.9743 110.486 21.5768 110.486H21.5758Z" fill="#2F2E41"/>
<path d="M27.2358 113.54C27.0025 113.54 26.7712 113.498 26.5528 113.416L22.6257 111.94C22.1848 111.773 21.8185 111.452 21.5936 111.037C21.3687 110.622 21.3002 110.14 21.4005 109.678C22.3892 105.223 25.7588 90.0547 27.6039 81.9191C29.7921 72.2691 61.7143 70.4759 63.0721 70.4043L63.1838 70.3984L66.7735 74.9203C68.0711 79.1003 67.6598 82.3606 65.5511 84.6111C59.398 91.1753 41.0261 87.1027 38.8355 86.5869L29.07 112.276C28.9277 112.648 28.6762 112.968 28.3487 113.193C28.0211 113.419 27.633 113.54 27.2355 113.54L27.2358 113.54Z" fill="#2F2E41"/>
<path d="M15.874 50.695C16.0182 50.8885 16.1471 51.093 16.2593 51.3066L37.7334 53.5739L40.8252 49.3262L47.831 53.1636L41.7596 63.471L15.4233 56.7412C14.7588 57.3905 13.9129 57.8216 12.998 57.9773C12.0831 58.1329 11.1426 58.0058 10.3015 57.6127C9.4605 57.2196 8.7588 56.5792 8.28977 55.7767C7.82074 54.9742 7.60659 54.0476 7.67582 53.1202C7.74505 52.1927 8.09438 51.3084 8.67733 50.5848C9.26028 49.8611 10.0492 49.3325 10.9393 49.0692C11.8293 48.8059 12.7782 48.8204 13.6598 49.1108C14.5415 49.4011 15.314 49.9536 15.8747 50.6947L15.874 50.695Z" fill="#FEB8B8"/>
<path d="M65.7766 76.6519C65.4661 76.6512 65.1603 76.5765 64.8842 76.4341C60.5902 74.2459 52.2287 70.4563 44.4751 69.6633C44.2097 69.6373 43.9527 69.5559 43.7206 69.4244C43.4885 69.2929 43.2864 69.1143 43.1272 68.8999C42.965 68.6832 42.849 68.4354 42.7866 68.1718C42.7242 67.9083 42.7166 67.6347 42.7643 67.368C43.464 63.4864 45.0689 53.6021 44.8622 45.6806C44.8013 43.2449 45.5691 40.8609 47.0395 38.9206C48.5098 36.9802 50.5951 35.599 52.9526 35.0039C54.3715 34.6287 55.8126 34.3439 57.2674 34.1512C58.94 33.9389 60.6389 34.1221 62.2281 34.6862C63.8173 35.2503 65.2526 36.1796 66.4191 37.3996C67.5855 38.6195 68.4506 40.0964 68.9451 41.7117C69.4396 43.327 69.5497 45.0359 69.2667 46.7016C67.8841 54.9109 66.49 66.3769 67.7015 74.3809C67.7572 74.7396 67.7126 75.1068 67.5729 75.4418C67.4331 75.7767 67.2036 76.0663 66.9097 76.2786C66.5808 76.5199 66.1842 76.6506 65.7766 76.6519Z" fill="#CCCCCC"/>
<path d="M45.2603 55.7714C44.9926 55.771 44.7278 55.7156 44.4823 55.6087L38.8883 53.1821C38.4118 52.9748 38.0368 52.5864 37.8457 52.1024C37.6545 51.6183 37.6627 51.078 37.8686 50.6L42.1927 40.5891C42.4496 39.9824 42.8231 39.4325 43.2921 38.9705C43.761 38.5086 44.3161 38.1438 44.9258 37.8968C45.5354 37.6499 46.1876 37.5258 46.8451 37.5314C47.5026 37.5371 48.1526 37.6725 48.7579 37.93C49.3632 38.1874 49.9119 38.5618 50.3728 39.0317C50.8338 39.5017 51.1978 40.0581 51.4442 40.669C51.6906 41.28 51.8145 41.9336 51.8088 42.5926C51.8031 43.2515 51.668 43.9029 51.4111 44.5096C51.4018 44.5316 51.3923 44.5536 51.3826 44.5755L47.0585 54.5867C46.9063 54.9381 46.6551 55.2374 46.3357 55.4478C46.0162 55.6583 45.6425 55.7707 45.2603 55.7714Z" fill="#CCCCCC"/>
<path d="M58.065 30.7454C63.9711 30.7454 68.759 25.947 68.759 20.028C68.759 14.1089 63.9711 9.31055 58.065 9.31055C52.1589 9.31055 47.3711 14.1089 47.3711 20.028C47.3711 25.947 52.1589 30.7454 58.065 30.7454Z" fill="#FEB8B8"/>
<path d="M47.1787 14.7615C52.244 17.8604 57.9546 19.7462 63.8659 20.272L62.1068 18.16C63.3875 18.6345 64.7352 18.9027 66.0997 18.9545C66.7829 18.9744 67.4612 18.8334 68.0803 18.5431C68.6993 18.2527 69.2418 17.8209 69.6642 17.2824C70.0091 16.7234 70.2139 16.0891 70.2613 15.4337C70.3087 14.7782 70.1973 14.121 69.9364 13.518C69.4005 12.3149 68.5662 11.2694 67.513 10.4808C65.6462 9.00074 63.443 8.00658 61.0998 7.58688C58.7566 7.16719 56.3462 7.33498 54.0834 8.07532C52.5311 8.5402 51.1409 9.4339 50.0721 10.654C49.0583 11.9075 47.1067 13.0243 47.6257 14.5515L47.1787 14.7615Z" fill="#2F2E41"/>
<path d="M59.0215 5.73267C61.153 3.56583 63.7326 1.89362 66.5786 0.833764C68.385 0.0721725 70.3663 -0.17427 72.3037 0.121654C74.2137 0.506797 76.0197 1.83084 76.5527 3.70896C76.9873 5.24455 76.5384 6.89805 75.8623 8.34436C75.1862 9.79067 74.2835 11.1306 73.7366 12.6301C73.1786 14.1602 73.0108 15.8057 73.2483 17.4172C73.4859 19.0288 74.1213 20.5554 75.0969 21.8584C76.0725 23.1614 77.3574 24.1996 78.8349 24.8786C80.3124 25.5577 81.9358 25.8562 83.5576 25.747C81.6811 25.9993 79.9515 26.8832 78.1172 27.3533C76.2829 27.8233 74.1181 27.7919 72.755 26.4747C71.3128 25.0813 71.284 22.8158 71.3538 20.8096L71.6642 11.8617C71.717 10.3407 71.7623 8.77088 71.2147 7.35071C70.6672 5.93053 69.3665 4.68768 67.8479 4.70075C66.6969 4.71039 65.6784 5.40944 64.7552 6.09853C63.832 6.78761 62.8552 7.52275 61.7088 7.62541C60.5624 7.72807 59.2534 6.87877 59.339 5.72769" fill="#2F2E41"/>
<path d="M40.0862 73.8982C39.3776 73.8974 38.6781 73.739 38.038 73.4345C37.3978 73.1301 36.833 72.6872 36.3843 72.1376C35.9355 71.5881 35.6139 70.9457 35.4427 70.2566C35.2715 69.5675 35.255 68.849 35.3942 68.1527C35.5335 67.4564 35.8251 66.7998 36.248 66.2301C36.671 65.6603 37.2148 65.1917 37.8402 64.858C38.4656 64.5242 39.1571 64.3336 39.8649 64.2999C40.5726 64.2663 41.279 64.3903 41.9332 64.6632C42.1299 64.7465 42.3207 64.8434 42.504 64.9531L61.9844 56.1891L62.5316 50.8942L70.9288 50.6689L70.8732 59.484C70.863 60.5053 70.5245 61.496 69.9079 62.3092C69.2912 63.1223 68.4293 63.7145 67.4502 63.9978L44.6701 70.4951C44.6262 70.6459 44.5744 70.7943 44.5149 70.9397C44.1494 71.8146 43.5344 72.562 42.747 73.0882C41.9596 73.6144 41.0348 73.8961 40.0884 73.8979L40.0862 73.8982Z" fill="#FEB8B8"/>
<path d="M70.2171 54.9883C69.9783 55.1094 69.7173 55.1801 69.4501 55.1961L63.3659 55.571C62.8474 55.6023 62.3377 55.4263 61.9486 55.0815C61.5594 54.7367 61.3226 54.2513 61.2901 53.7317L60.6224 42.8432C60.5424 41.5157 60.9915 40.2106 61.871 39.2147C62.7505 38.2189 63.9885 37.6136 65.313 37.5319C66.6375 37.4503 67.9402 37.8989 68.9349 38.7792C69.9296 39.6595 70.5349 40.8996 70.6179 42.2269L71.2859 53.1154C71.3091 53.4979 71.2204 53.8789 71.0306 54.2116C70.8409 54.5442 70.5584 54.8142 70.2178 54.9883H70.2171Z" fill="#CCCCCC"/>
<path d="M57.9656 71.9443H21.6252C21.3203 71.9443 21.0732 72.192 21.0732 72.4975V74.4456C21.0732 74.7511 21.3203 74.9987 21.6252 74.9987H57.9656C58.2704 74.9987 58.5175 74.7511 58.5175 74.4456V72.4975C58.5175 72.192 58.2704 71.9443 57.9656 71.9443Z" fill="#3F3D56"/>
<path d="M7.11035 72.1633V50.7816C7.11126 50.0297 7.40971 49.3088 7.94026 48.777C8.47081 48.2453 9.19013 47.9462 9.94044 47.9453H48.691C49.4413 47.9461 50.1607 48.2452 50.6912 48.777C51.2218 49.3087 51.5202 50.0296 51.521 50.7816V72.1633C51.5202 72.9153 51.2218 73.6362 50.6912 74.1679C50.1607 74.6997 49.4413 74.9988 48.691 74.9996H9.94044C9.19013 74.9987 8.47081 74.6996 7.94026 74.1678C7.40971 73.6361 7.11126 72.9152 7.11035 72.1633Z" fill="#3F3D56"/>
<path d="M29.7814 64.0919C31.2243 64.0919 32.3939 62.9197 32.3939 61.4737C32.3939 60.0277 31.2243 58.8555 29.7814 58.8555C28.3386 58.8555 27.1689 60.0277 27.1689 61.4737C27.1689 62.9197 28.3386 64.0919 29.7814 64.0919Z" fill="white"/>
</g>
<defs>
<clipPath id="clip0_197_62">
<rect width="289" height="197" fill="white"/>
</clipPath>
</defs>
</svg>
