<svg width="299" height="214" viewBox="0 0 299 214" fill="none" xmlns="http://www.w3.org/2000/svg">
<g clip-path="url(#clip0_197_168)">
<path d="M13.8191 43.5711C16.4504 43.5711 18.5835 41.4329 18.5835 38.7953C18.5835 36.1577 16.4504 34.0195 13.8191 34.0195C11.1878 34.0195 9.05469 36.1577 9.05469 38.7953C9.05469 41.4329 11.1878 43.5711 13.8191 43.5711Z" fill="#E6E6E6"/>
<path d="M28.112 43.5711C30.7433 43.5711 32.8764 41.4329 32.8764 38.7953C32.8764 36.1577 30.7433 34.0195 28.112 34.0195C25.4807 34.0195 23.3477 36.1577 23.3477 38.7953C23.3477 41.4329 25.4807 43.5711 28.112 43.5711Z" fill="#E6E6E6"/>
<path d="M42.406 43.5711C45.0373 43.5711 47.1704 41.4329 47.1704 38.7953C47.1704 36.1577 45.0373 34.0195 42.406 34.0195C39.7747 34.0195 37.6416 36.1577 37.6416 38.7953C37.6416 41.4329 39.7747 43.5711 42.406 43.5711Z" fill="#E6E6E6"/>
<path d="M56.699 43.5711C59.3302 43.5711 61.4633 41.4329 61.4633 38.7953C61.4633 36.1577 59.3302 34.0195 56.699 34.0195C54.0677 34.0195 51.9346 36.1577 51.9346 38.7953C51.9346 41.4329 54.0677 43.5711 56.699 43.5711Z" fill="#E6E6E6"/>
<path d="M70.9919 43.5711C73.6232 43.5711 75.7563 41.4329 75.7563 38.7953C75.7563 36.1577 73.6232 34.0195 70.9919 34.0195C68.3606 34.0195 66.2275 36.1577 66.2275 38.7953C66.2275 41.4329 68.3606 43.5711 70.9919 43.5711Z" fill="#E6E6E6"/>
<path d="M85.2849 43.5711C87.9162 43.5711 90.0493 41.4329 90.0493 38.7953C90.0493 36.1577 87.9162 34.0195 85.2849 34.0195C82.6536 34.0195 80.5205 36.1577 80.5205 38.7953C80.5205 41.4329 82.6536 43.5711 85.2849 43.5711Z" fill="#E6E6E6"/>
<path d="M99.5779 43.5711C102.209 43.5711 104.342 41.4329 104.342 38.7953C104.342 36.1577 102.209 34.0195 99.5779 34.0195C96.9466 34.0195 94.8135 36.1577 94.8135 38.7953C94.8135 41.4329 96.9466 43.5711 99.5779 43.5711Z" fill="#E6E6E6"/>
<path d="M110.588 44.6121H2.80995C2.29591 44.6115 1.80311 44.4065 1.43963 44.0422C1.07616 43.6778 0.871698 43.1838 0.871094 42.6686V34.924C0.871697 34.4087 1.07616 33.9147 1.43963 33.5504C1.80311 33.186 2.29591 32.9811 2.80995 32.9805H110.588C111.102 32.9811 111.595 33.186 111.958 33.5504C112.322 33.9147 112.526 34.4087 112.527 34.924V42.6686C112.526 43.1838 112.322 43.6778 111.958 44.0422C111.595 44.4065 111.102 44.6115 110.588 44.6121ZM2.80995 33.7579C2.50152 33.7582 2.20582 33.8812 1.98773 34.0998C1.76964 34.3184 1.64697 34.6148 1.64663 34.924V42.6686C1.64697 42.9777 1.76964 43.2741 1.98773 43.4927C2.20582 43.7114 2.50152 43.8343 2.80995 43.8347H110.588C110.896 43.8343 111.192 43.7114 111.41 43.4927C111.628 43.2741 111.751 42.9777 111.751 42.6686V34.924C111.751 34.6148 111.628 34.3184 111.41 34.0998C111.192 33.8812 110.896 33.7582 110.588 33.7579L2.80995 33.7579Z" fill="#E6E6E6"/>
<path d="M25.8748 1.11666C26.1702 1.117 26.4533 1.23475 26.6622 1.44409C26.871 1.65343 26.9885 1.93725 26.9888 2.2333V26.4311C26.9885 26.7271 26.871 27.0109 26.6622 27.2203C26.4533 27.4296 26.1702 27.5474 25.8748 27.5477H2.22799C1.93265 27.5474 1.6495 27.4296 1.44066 27.2203C1.23182 27.0109 1.11435 26.7271 1.11401 26.4311V2.23332C1.11435 1.93727 1.23182 1.65345 1.44066 1.44411C1.6495 1.23477 1.93265 1.11701 2.22799 1.11667L25.8748 1.11666ZM25.8748 1.60389e-05H2.22799C1.63709 1.60389e-05 1.07039 0.235311 0.652565 0.65414C0.234737 1.07297 0 1.64102 0 2.23334V26.4311C0 27.0234 0.234737 27.5914 0.652565 28.0103C1.07039 28.4291 1.63709 28.6644 2.22799 28.6644H25.8748C26.4657 28.6644 27.0324 28.4291 27.4503 28.0103C27.8681 27.5914 28.1028 27.0234 28.1028 26.4311V2.23332C28.1028 1.64101 27.8681 1.07295 27.4503 0.654124C27.0324 0.235295 26.4657 1.69681e-05 25.8748 1.60389e-05Z" fill="#E6E6E6"/>
<path d="M22.186 7.477H6.40905C6.33561 7.47746 6.26282 7.46335 6.19485 7.4355C6.12687 7.40764 6.06507 7.36659 6.01298 7.3147C5.9609 7.26281 5.91957 7.2011 5.89136 7.13314C5.86315 7.06518 5.84863 6.9923 5.84863 6.91869C5.84863 6.84508 5.86315 6.77219 5.89136 6.70423C5.91957 6.63627 5.9609 6.57457 6.01298 6.52268C6.06507 6.47079 6.12687 6.42973 6.19485 6.40188C6.26282 6.37402 6.33561 6.35991 6.40905 6.36036H22.186C22.2595 6.35991 22.3323 6.37402 22.4002 6.40188C22.4682 6.42973 22.53 6.47079 22.5821 6.52268C22.6342 6.57457 22.6755 6.63627 22.7037 6.70423C22.7319 6.77219 22.7465 6.84508 22.7465 6.91869C22.7465 6.9923 22.7319 7.06518 22.7037 7.13314C22.6755 7.2011 22.6342 7.26281 22.5821 7.3147C22.53 7.36659 22.4682 7.40764 22.4002 7.4355C22.3323 7.46335 22.2595 7.47746 22.186 7.477Z" fill="#7BAFDF"/>
<path d="M22.186 11.4311H6.40905C6.33561 11.4316 6.26282 11.4174 6.19485 11.3896C6.12687 11.3617 6.06507 11.3207 6.01298 11.2688C5.9609 11.2169 5.91957 11.1552 5.89136 11.0872C5.86315 11.0193 5.84863 10.9464 5.84863 10.8728C5.84863 10.7992 5.86315 10.7263 5.89136 10.6583C5.91957 10.5904 5.9609 10.5287 6.01298 10.4768C6.06507 10.4249 6.12687 10.3838 6.19485 10.356C6.26282 10.3281 6.33561 10.314 6.40905 10.3145H22.186C22.2595 10.314 22.3323 10.3281 22.4002 10.356C22.4682 10.3838 22.53 10.4249 22.5821 10.4768C22.6342 10.5287 22.6755 10.5904 22.7037 10.6583C22.7319 10.7263 22.7465 10.7992 22.7465 10.8728C22.7465 10.9464 22.7319 11.0193 22.7037 11.0872C22.6755 11.1552 22.6342 11.2169 22.5821 11.2688C22.53 11.3207 22.4682 11.3617 22.4002 11.3896C22.3323 11.4174 22.2595 11.4316 22.186 11.4311Z" fill="#7BAFDF"/>
<path d="M22.186 15.3842H6.40905C6.33561 15.3847 6.26282 15.3706 6.19485 15.3427C6.12687 15.3149 6.06507 15.2738 6.01298 15.2219C5.9609 15.17 5.91957 15.1083 5.89136 15.0404C5.86315 14.9724 5.84863 14.8995 5.84863 14.8259C5.84863 14.7523 5.86315 14.6794 5.89136 14.6115C5.91957 14.5435 5.9609 14.4818 6.01298 14.4299C6.06507 14.378 6.12687 14.337 6.19485 14.3091C6.26282 14.2812 6.33561 14.2671 6.40905 14.2676H22.186C22.2595 14.2671 22.3323 14.2812 22.4002 14.3091C22.4682 14.337 22.53 14.378 22.5821 14.4299C22.6342 14.4818 22.6755 14.5435 22.7037 14.6115C22.7319 14.6794 22.7465 14.7523 22.7465 14.8259C22.7465 14.8995 22.7319 14.9724 22.7037 15.0404C22.6755 15.1083 22.6342 15.17 22.5821 15.2219C22.53 15.2738 22.4682 15.3149 22.4002 15.3427C22.3323 15.3706 22.2595 15.3847 22.186 15.3842Z" fill="#7BAFDF"/>
<path d="M22.186 19.3383H6.40905C6.33561 19.3388 6.26282 19.3247 6.19485 19.2968C6.12687 19.269 6.06507 19.2279 6.01298 19.176C5.9609 19.1241 5.91957 19.0624 5.89136 18.9945C5.86315 18.9265 5.84863 18.8536 5.84863 18.78C5.84863 18.7064 5.86315 18.6335 5.89136 18.5656C5.91957 18.4976 5.9609 18.4359 6.01298 18.384C6.06507 18.3321 6.12687 18.2911 6.19485 18.2632C6.26282 18.2353 6.33561 18.2212 6.40905 18.2217H22.186C22.2595 18.2212 22.3323 18.2353 22.4002 18.2632C22.4682 18.2911 22.53 18.3321 22.5821 18.384C22.6342 18.4359 22.6755 18.4976 22.7037 18.5656C22.7319 18.6335 22.7465 18.7064 22.7465 18.78C22.7465 18.8536 22.7319 18.9265 22.7037 18.9945C22.6755 19.0624 22.6342 19.1241 22.5821 19.176C22.53 19.2279 22.4682 19.269 22.4002 19.2968C22.3323 19.3247 22.2595 19.3388 22.186 19.3383Z" fill="#7BAFDF"/>
<path d="M22.1865 23.2924H6.40953C6.26181 23.2924 6.12013 23.2336 6.01567 23.1289C5.91122 23.0242 5.85254 22.8822 5.85254 22.7341C5.85254 22.586 5.91122 22.444 6.01567 22.3393C6.12013 22.2346 6.26181 22.1758 6.40953 22.1758H22.1865C22.3343 22.1758 22.4759 22.2346 22.5804 22.3393C22.6848 22.444 22.7435 22.586 22.7435 22.7341C22.7435 22.8822 22.6848 23.0242 22.5804 23.1289C22.4759 23.2336 22.3343 23.2924 22.1865 23.2924Z" fill="#7BAFDF"/>
<path d="M106.639 1.11666C106.935 1.117 107.218 1.23475 107.427 1.44409C107.636 1.65343 107.753 1.93725 107.753 2.2333V26.4311C107.753 26.7271 107.636 27.0109 107.427 27.2203C107.218 27.4296 106.935 27.5474 106.639 27.5477H82.9926C82.6973 27.5474 82.4141 27.4296 82.2053 27.2203C81.9965 27.0109 81.879 26.7271 81.8787 26.4311V2.23332C81.879 1.93727 81.9965 1.65345 82.2053 1.44411C82.4141 1.23477 82.6973 1.11701 82.9926 1.11667L106.639 1.11666ZM106.639 1.60389e-05H82.9926C82.4017 1.60389e-05 81.835 0.235311 81.4172 0.65414C80.9994 1.07297 80.7646 1.64102 80.7646 2.23334V26.4311C80.7646 27.0234 80.9994 27.5914 81.4172 28.0103C81.835 28.4291 82.4017 28.6644 82.9926 28.6644H106.639C107.23 28.6644 107.797 28.4291 108.215 28.0103C108.633 27.5914 108.867 27.0234 108.867 26.4311V2.23332C108.867 1.64101 108.633 1.07295 108.215 0.654124C107.797 0.235295 107.23 1.60389e-05 106.639 1.60389e-05Z" fill="#E6E6E6"/>
<path d="M102.951 7.477H87.1737C87.1003 7.47746 87.0275 7.46335 86.9595 7.4355C86.8915 7.40764 86.8297 7.36659 86.7776 7.3147C86.7255 7.26281 86.6842 7.2011 86.656 7.13314C86.6278 7.06518 86.6133 6.9923 86.6133 6.91869C86.6133 6.84508 86.6278 6.77219 86.656 6.70423C86.6842 6.63627 86.7255 6.57457 86.7776 6.52268C86.8297 6.47079 86.8915 6.42973 86.9595 6.40188C87.0275 6.37402 87.1003 6.35991 87.1737 6.36036H102.951C103.098 6.36127 103.239 6.42049 103.342 6.5251C103.446 6.6297 103.504 6.7712 103.504 6.91869C103.504 7.06617 103.446 7.20766 103.342 7.31227C103.239 7.41688 103.098 7.4761 102.951 7.477Z" fill="#7BAFDF"/>
<path d="M102.951 11.4311H87.1737C87.1003 11.4316 87.0275 11.4174 86.9595 11.3896C86.8915 11.3617 86.8297 11.3207 86.7776 11.2688C86.7255 11.2169 86.6842 11.1552 86.656 11.0872C86.6278 11.0193 86.6133 10.9464 86.6133 10.8728C86.6133 10.7992 86.6278 10.7263 86.656 10.6583C86.6842 10.5904 86.7255 10.5287 86.7776 10.4768C86.8297 10.4249 86.8915 10.3838 86.9595 10.356C87.0275 10.3281 87.1003 10.314 87.1737 10.3145H102.951C103.098 10.3154 103.239 10.3746 103.342 10.4792C103.446 10.5838 103.504 10.7253 103.504 10.8728C103.504 11.0203 103.446 11.1618 103.342 11.2664C103.239 11.371 103.098 11.4302 102.951 11.4311Z" fill="#7BAFDF"/>
<path d="M102.951 15.3842H87.1737C87.1003 15.3847 87.0275 15.3706 86.9595 15.3427C86.8915 15.3149 86.8297 15.2738 86.7776 15.2219C86.7255 15.17 86.6842 15.1083 86.656 15.0404C86.6278 14.9724 86.6133 14.8995 86.6133 14.8259C86.6133 14.7523 86.6278 14.6794 86.656 14.6115C86.6842 14.5435 86.7255 14.4818 86.7776 14.4299C86.8297 14.378 86.8915 14.337 86.9595 14.3091C87.0275 14.2812 87.1003 14.2671 87.1737 14.2676H102.951C103.098 14.2685 103.239 14.3277 103.342 14.4323C103.446 14.5369 103.504 14.6784 103.504 14.8259C103.504 14.9734 103.446 15.1149 103.342 15.2195C103.239 15.3241 103.098 15.3833 102.951 15.3842Z" fill="#7BAFDF"/>
<path d="M102.951 19.3383H87.1737C87.1003 19.3388 87.0275 19.3247 86.9595 19.2968C86.8915 19.269 86.8297 19.2279 86.7776 19.176C86.7255 19.1241 86.6842 19.0624 86.656 18.9945C86.6278 18.9265 86.6133 18.8536 86.6133 18.78C86.6133 18.7064 86.6278 18.6335 86.656 18.5656C86.6842 18.4976 86.7255 18.4359 86.7776 18.384C86.8297 18.3321 86.8915 18.2911 86.9595 18.2632C87.0275 18.2353 87.1003 18.2212 87.1737 18.2217H102.951C103.098 18.2226 103.239 18.2818 103.342 18.3864C103.446 18.491 103.504 18.6325 103.504 18.78C103.504 18.9275 103.446 19.069 103.342 19.1736C103.239 19.2782 103.098 19.3374 102.951 19.3383Z" fill="#7BAFDF"/>
<path d="M102.951 23.2924H87.1742C87.0265 23.2924 86.8848 23.2336 86.7803 23.1289C86.6759 23.0242 86.6172 22.8822 86.6172 22.7341C86.6172 22.586 86.6759 22.444 86.7803 22.3393C86.8848 22.2346 87.0265 22.1758 87.1742 22.1758H102.951C103.099 22.1758 103.241 22.2346 103.345 22.3393C103.45 22.444 103.508 22.586 103.508 22.7341C103.508 22.8822 103.45 23.0242 103.345 23.1289C103.241 23.2336 103.099 23.2924 102.951 23.2924Z" fill="#7BAFDF"/>
<path d="M187.012 47.643C187.307 47.6434 187.59 47.7611 187.799 47.9705C188.008 48.1798 188.125 48.4636 188.126 48.7597V72.9574C188.125 73.2535 188.008 73.5373 187.799 73.7466C187.59 73.956 187.307 74.0737 187.012 74.0741H163.365C163.069 74.0737 162.786 73.956 162.577 73.7466C162.369 73.5373 162.251 73.2535 162.251 72.9574V48.7597C162.251 48.4636 162.369 48.1798 162.577 47.9705C162.786 47.7611 163.069 47.6434 163.365 47.643L187.012 47.643ZM187.012 46.5264H163.365C162.774 46.5264 162.207 46.7617 161.789 47.1805C161.371 47.5994 161.137 48.1674 161.137 48.7597V72.9575C161.137 73.5498 161.371 74.1178 161.789 74.5367C162.207 74.9555 162.774 75.1908 163.365 75.1908H187.012C187.602 75.1908 188.169 74.9555 188.587 74.5367C189.005 74.1178 189.24 73.5498 189.24 72.9575V48.7597C189.24 48.1674 189.005 47.5993 188.587 47.1805C188.169 46.7617 187.602 46.5264 187.012 46.5264Z" fill="#7BAFDF"/>
<path d="M183.323 54.0044H167.546C167.472 54.0048 167.4 53.9907 167.332 53.9628C167.264 53.935 167.202 53.8939 167.15 53.842C167.098 53.7901 167.056 53.7285 167.028 53.6605C167 53.5925 166.985 53.5196 166.985 53.446C166.985 53.3724 167 53.2995 167.028 53.2316C167.056 53.1636 167.098 53.1019 167.15 53.05C167.202 52.9981 167.264 52.9571 167.332 52.9292C167.4 52.9014 167.472 52.8873 167.546 52.8877H183.323C183.47 52.8886 183.611 52.9478 183.714 53.0524C183.818 53.1571 183.876 53.2985 183.876 53.446C183.876 53.5935 183.818 53.735 183.714 53.8396C183.611 53.9442 183.47 54.0034 183.323 54.0044Z" fill="#7BAFDF"/>
<path d="M183.323 57.9575H167.546C167.399 57.9575 167.257 57.8987 167.152 57.7939C167.048 57.6892 166.989 57.5472 166.989 57.3992C166.989 57.2511 167.048 57.1091 167.152 57.0044C167.257 56.8996 167.399 56.8408 167.546 56.8408H183.323C183.471 56.8408 183.613 56.8996 183.717 57.0044C183.822 57.1091 183.88 57.2511 183.88 57.3992C183.88 57.5472 183.822 57.6892 183.717 57.7939C183.613 57.8987 183.471 57.9575 183.323 57.9575Z" fill="#7BAFDF"/>
<path d="M183.323 61.9116H167.546C167.473 61.9119 167.4 61.8978 167.332 61.8699C167.264 61.842 167.202 61.8009 167.15 61.749C167.098 61.6971 167.057 61.6355 167.029 61.5676C167.001 61.4996 166.986 61.4268 166.986 61.3532C166.986 61.2797 167.001 61.2069 167.029 61.1389C167.057 61.071 167.098 61.0093 167.15 60.9575C167.202 60.9056 167.264 60.8645 167.332 60.8366C167.4 60.8087 167.473 60.7946 167.546 60.7949H183.323C183.47 60.7958 183.611 60.8551 183.715 60.9597C183.818 61.0643 183.877 61.2058 183.877 61.3532C183.877 61.5007 183.818 61.6422 183.715 61.7468C183.611 61.8514 183.47 61.9107 183.323 61.9116Z" fill="#7BAFDF"/>
<path d="M183.323 65.8647H167.546C167.472 65.8651 167.4 65.851 167.332 65.8232C167.264 65.7953 167.202 65.7543 167.15 65.7024C167.098 65.6505 167.056 65.5888 167.028 65.5208C167 65.4529 166.985 65.38 166.985 65.3064C166.985 65.2328 167 65.1599 167.028 65.0919C167.056 65.024 167.098 64.9623 167.15 64.9104C167.202 64.8585 167.264 64.8174 167.332 64.7896C167.4 64.7617 167.472 64.7476 167.546 64.7481H183.323C183.47 64.749 183.611 64.8082 183.714 64.9128C183.818 65.0174 183.876 65.1589 183.876 65.3064C183.876 65.4539 183.818 65.5954 183.714 65.7C183.611 65.8046 183.47 65.8638 183.323 65.8647Z" fill="#7BAFDF"/>
<path d="M183.323 69.8188H167.546C167.472 69.8192 167.4 69.8051 167.332 69.7773C167.264 69.7494 167.202 69.7084 167.15 69.6565C167.098 69.6046 167.056 69.5429 167.028 69.4749C167 69.407 166.985 69.3341 166.985 69.2605C166.985 69.1869 167 69.114 167.028 69.046C167.056 68.9781 167.098 68.9164 167.15 68.8645C167.202 68.8126 167.264 68.7715 167.332 68.7437C167.4 68.7158 167.472 68.7017 167.546 68.7022H183.323C183.47 68.7031 183.611 68.7623 183.714 68.8669C183.818 68.9715 183.876 69.113 183.876 69.2605C183.876 69.408 183.818 69.5495 183.714 69.6541C183.611 69.7587 183.47 69.8179 183.323 69.8188Z" fill="#7BAFDF"/>
<path d="M66.5664 28.6647H42.3004C41.6442 28.6639 41.015 28.4023 40.551 27.9372C40.087 27.472 39.826 26.8414 39.8252 26.1836V8.77828C39.8259 8.12044 40.0869 7.48974 40.5509 7.02455C41.015 6.55936 41.6441 6.29766 42.3004 6.29688H66.5664C67.2227 6.2976 67.852 6.55927 68.316 7.02446C68.7801 7.48966 69.0412 8.12039 69.0419 8.77828V26.1836C69.0411 26.8414 68.78 27.4721 68.316 27.9372C67.8519 28.4024 67.2227 28.664 66.5664 28.6647ZM42.3004 7.41353C41.9395 7.41398 41.5935 7.55792 41.3383 7.81377C41.0831 8.06962 40.9396 8.41649 40.9392 8.77828V26.1836C40.9396 26.5453 41.0831 26.8922 41.3383 27.148C41.5935 27.4038 41.9395 27.5477 42.3004 27.548H66.5664C66.9273 27.5477 67.2734 27.4038 67.5286 27.148C67.7839 26.8922 67.9275 26.5454 67.9279 26.1836V8.77828C67.9275 8.41646 67.7839 8.06959 67.5286 7.81375C67.2734 7.5579 66.9274 7.41397 66.5664 7.41353H42.3004Z" fill="#E6E6E6"/>
<path d="M62.3218 14.0854H46.5448C46.3977 14.0845 46.2569 14.0253 46.1531 13.9207C46.0494 13.8161 45.9912 13.6746 45.9912 13.5271C45.9912 13.3796 46.0494 13.2381 46.1531 13.1335C46.2569 13.0289 46.3977 12.9697 46.5448 12.9688H62.3218C62.3952 12.9683 62.468 12.9824 62.536 13.0103C62.604 13.0381 62.6658 13.0792 62.7179 13.1311C62.77 13.183 62.8113 13.2447 62.8395 13.3126C62.8677 13.3806 62.8822 13.4535 62.8822 13.5271C62.8822 13.6007 62.8677 13.6736 62.8395 13.7415C62.8113 13.8095 62.77 13.8712 62.7179 13.9231C62.6658 13.975 62.604 14.016 62.536 14.0439C62.468 14.0717 62.3952 14.0859 62.3218 14.0854Z" fill="#7BAFDF"/>
<path d="M62.3218 18.0385H46.5448C46.3977 18.0376 46.2569 17.9784 46.1531 17.8738C46.0494 17.7692 45.9912 17.6277 45.9912 17.4802C45.9912 17.3327 46.0494 17.1912 46.1531 17.0866C46.2569 16.982 46.3977 16.9228 46.5448 16.9219H62.3218C62.3952 16.9214 62.468 16.9355 62.536 16.9634C62.604 16.9913 62.6658 17.0323 62.7179 17.0842C62.77 17.1361 62.8113 17.1978 62.8395 17.2658C62.8677 17.3337 62.8822 17.4066 62.8822 17.4802C62.8822 17.5538 62.8677 17.6267 62.8395 17.6947C62.8113 17.7626 62.77 17.8243 62.7179 17.8762C62.6658 17.9281 62.604 17.9692 62.536 17.997C62.468 18.0249 62.3952 18.039 62.3218 18.0385Z" fill="#7BAFDF"/>
<path d="M62.3218 21.9926H46.5448C46.3977 21.9917 46.2569 21.9325 46.1531 21.8279C46.0494 21.7233 45.9912 21.5818 45.9912 21.4343C45.9912 21.2868 46.0494 21.1453 46.1531 21.0407C46.2569 20.9361 46.3977 20.8769 46.5448 20.876H62.3218C62.3952 20.8755 62.468 20.8896 62.536 20.9175C62.604 20.9454 62.6658 20.9864 62.7179 21.0383C62.77 21.0902 62.8113 21.1519 62.8395 21.2198C62.8677 21.2878 62.8822 21.3607 62.8822 21.4343C62.8822 21.5079 62.8677 21.5808 62.8395 21.6488C62.8113 21.7167 62.77 21.7784 62.7179 21.8303C62.6658 21.8822 62.604 21.9233 62.536 21.9511C62.468 21.979 62.3952 21.9931 62.3218 21.9926Z" fill="#7BAFDF"/>
<path d="M147.085 38.3092L123.779 31.5343C123.149 31.3503 122.618 30.9234 122.301 30.3471C121.985 29.7708 121.909 29.0923 122.091 28.4603L126.928 11.7437C127.111 11.1121 127.537 10.5793 128.112 10.262C128.687 9.94479 129.364 9.86911 129.994 10.0516L153.3 16.8265C153.93 17.0104 154.462 17.4374 154.778 18.0137C155.095 18.5901 155.17 19.2688 154.988 19.9008L150.152 36.6174C149.968 37.249 149.542 37.7818 148.967 38.099C148.393 38.4161 147.716 38.4917 147.085 38.3092ZM129.684 11.124C129.337 11.0237 128.965 11.0654 128.649 11.2398C128.333 11.4143 128.098 11.7074 127.998 12.0548L123.161 28.7713C123.061 29.1189 123.103 29.492 123.277 29.809C123.451 30.1259 123.743 30.3607 124.09 30.4618L147.395 37.2367C147.742 37.3371 148.114 37.2956 148.431 37.1211C148.747 36.9467 148.981 36.6537 149.082 36.3063L153.918 19.5898C154.018 19.2422 153.977 18.8689 153.803 18.552C153.629 18.235 153.336 18.0001 152.99 17.8989L129.684 11.124Z" fill="#E6E6E6"/>
<path d="M147.059 23.1221L131.907 18.7173C131.765 18.6758 131.646 18.5797 131.575 18.4501C131.504 18.3205 131.487 18.1679 131.528 18.0259C131.569 17.8838 131.665 17.7639 131.794 17.6925C131.923 17.6211 132.075 17.6039 132.217 17.6448L147.37 22.0497C147.512 22.0909 147.631 22.187 147.702 22.3167C147.774 22.4464 147.791 22.5992 147.749 22.7414C147.708 22.8836 147.612 23.0036 147.483 23.075C147.354 23.1464 147.201 23.1634 147.059 23.1221Z" fill="#7BAFDF"/>
<path d="M145.961 26.9193L130.808 22.5145C130.738 22.4941 130.672 22.46 130.615 22.4142C130.558 22.3683 130.511 22.3117 130.475 22.2475C130.44 22.1832 130.418 22.1127 130.41 22.0398C130.402 21.9669 130.408 21.8932 130.428 21.8227C130.449 21.7523 130.483 21.6866 130.528 21.6294C130.574 21.5721 130.631 21.5245 130.695 21.4891C130.759 21.4538 130.829 21.4314 130.902 21.4233C130.975 21.4152 131.048 21.4216 131.118 21.442L146.271 25.8468C146.413 25.8883 146.532 25.9844 146.603 26.114C146.674 26.2437 146.691 26.3962 146.65 26.5383C146.609 26.6803 146.513 26.8002 146.384 26.8716C146.255 26.9431 146.103 26.9602 145.961 26.9193Z" fill="#7BAFDF"/>
<path d="M144.862 30.7159L129.709 26.3111C129.568 26.2696 129.448 26.1735 129.377 26.0439C129.306 25.9142 129.29 25.7617 129.331 25.6196C129.372 25.4776 129.467 25.3577 129.597 25.2863C129.726 25.2148 129.878 25.1977 130.02 25.2386L145.172 29.6434C145.314 29.6847 145.434 29.7807 145.505 29.9104C145.576 30.0402 145.593 30.1929 145.552 30.3352C145.511 30.4774 145.415 30.5974 145.286 30.6688C145.156 30.7402 145.004 30.7571 144.862 30.7159Z" fill="#7BAFDF"/>
<path d="M299 212.949H54.5645V214H299V212.949Z" fill="#E6E6E6"/>
<path d="M196.488 211.305H156.739L158.087 193.747H195.141L196.488 211.305Z" fill="#E6E6E6"/>
<path d="M199.183 209.279H154.719V213.331H199.183V209.279Z" fill="#E6E6E6"/>
<path d="M252.743 80.6309H100.822C99.7495 80.6309 98.7213 81.0578 97.9632 81.8176C97.2052 82.5775 96.7793 83.6082 96.7793 84.6828V177.54H256.785V84.6828C256.785 84.1507 256.68 83.6238 256.477 83.1322C256.274 82.6406 255.976 82.1939 255.601 81.8176C255.226 81.4414 254.78 81.1429 254.289 80.9393C253.799 80.7357 253.273 80.6309 252.743 80.6309Z" fill="#3F3D56"/>
<path d="M96.7793 177.54V192.735C96.7793 193.267 96.8839 193.794 97.087 194.285C97.2901 194.777 97.5879 195.224 97.9632 195.6C98.3386 195.976 98.7842 196.275 99.2746 196.478C99.7651 196.682 100.291 196.787 100.822 196.787H252.743C253.815 196.787 254.843 196.36 255.601 195.6C256.359 194.84 256.785 193.809 256.785 192.735V177.54H96.7793Z" fill="#E6E6E6"/>
<path d="M249.038 89.0723H104.864V170.111H249.038V89.0723Z" fill="#E6E6E6"/>
<path d="M176.95 191.046C179.183 191.046 180.993 189.232 180.993 186.994C180.993 184.756 179.183 182.942 176.95 182.942C174.718 182.942 172.908 184.756 172.908 186.994C172.908 189.232 174.718 191.046 176.95 191.046Z" fill="#3F3D56"/>
<path d="M109.36 92.4949C109.784 92.4949 110.127 92.1507 110.127 91.726C110.127 91.3013 109.784 90.957 109.36 90.957C108.936 90.957 108.593 91.3013 108.593 91.726C108.593 92.1507 108.936 92.4949 109.36 92.4949Z" fill="white"/>
<path d="M112.271 92.4949C112.695 92.4949 113.038 92.1507 113.038 91.726C113.038 91.3013 112.695 90.957 112.271 90.957C111.847 90.957 111.504 91.3013 111.504 91.726C111.504 92.1507 111.847 92.4949 112.271 92.4949Z" fill="white"/>
<path d="M115.183 92.4949C115.607 92.4949 115.95 92.1507 115.95 91.726C115.95 91.3013 115.607 90.957 115.183 90.957C114.759 90.957 114.416 91.3013 114.416 91.726C114.416 92.1507 114.759 92.4949 115.183 92.4949Z" fill="white"/>
<path d="M244.883 94.3389H108.593V162.398H244.883V94.3389Z" fill="white"/>
<path d="M117.652 104.691C117.524 104.692 117.402 104.742 117.311 104.833C117.221 104.924 117.17 105.046 117.17 105.174V129.587C117.17 129.715 117.221 129.838 117.311 129.928C117.402 130.019 117.524 130.07 117.652 130.07H145.777C145.905 130.07 146.027 130.019 146.117 129.928C146.208 129.838 146.259 129.715 146.259 129.587V105.174C146.259 105.046 146.208 104.924 146.117 104.833C146.027 104.742 145.905 104.692 145.777 104.691H117.652Z" fill="#E6E6E6"/>
<path d="M162.811 104.77C162.683 104.77 162.561 104.821 162.47 104.911C162.38 105.002 162.329 105.124 162.329 105.252V129.587C162.329 129.715 162.38 129.837 162.47 129.928C162.561 130.019 162.683 130.069 162.811 130.07H190.847C190.974 130.069 191.097 130.018 191.187 129.928C191.277 129.837 191.328 129.715 191.328 129.587V105.252C191.328 105.124 191.277 105.002 191.187 104.911C191.097 104.821 190.974 104.77 190.847 104.77H162.811Z" fill="#E6E6E6"/>
<path d="M207.495 104.515C207.368 104.515 207.245 104.566 207.155 104.656C207.065 104.747 207.014 104.87 207.014 104.998V129.587C207.014 129.715 207.065 129.838 207.155 129.928C207.245 130.019 207.368 130.07 207.495 130.07H235.822C235.95 130.07 236.073 130.019 236.163 129.928C236.253 129.838 236.304 129.715 236.304 129.587V104.998C236.304 104.87 236.253 104.747 236.163 104.656C236.073 104.566 235.95 104.515 235.822 104.515H207.495Z" fill="#E6E6E6"/>
<path d="M118.166 142.154C117.902 142.155 117.649 142.26 117.463 142.447C117.277 142.635 117.172 142.888 117.172 143.153C117.172 143.417 117.277 143.671 117.463 143.858C117.649 144.045 117.902 144.151 118.166 144.151H144.609C144.873 144.151 145.126 144.045 145.313 143.858C145.499 143.671 145.604 143.417 145.604 143.153C145.604 142.888 145.499 142.635 145.313 142.447C145.126 142.26 144.873 142.155 144.609 142.154H118.166Z" fill="#E6E6E6"/>
<path d="M118.166 146.903C117.902 146.904 117.649 147.009 117.463 147.196C117.277 147.384 117.172 147.637 117.172 147.902C117.172 148.166 117.277 148.42 117.463 148.607C117.649 148.795 117.902 148.9 118.166 148.901H130.072C130.336 148.9 130.589 148.795 130.775 148.607C130.962 148.42 131.066 148.166 131.066 147.902C131.066 147.637 130.962 147.384 130.775 147.196C130.589 147.009 130.336 146.904 130.072 146.903H118.166Z" fill="#7BAFDF"/>
<path d="M163.81 142.154C163.546 142.155 163.293 142.26 163.107 142.447C162.92 142.635 162.815 142.888 162.815 143.153C162.815 143.417 162.92 143.671 163.107 143.858C163.293 144.045 163.546 144.151 163.81 144.151H190.253C190.517 144.151 190.77 144.045 190.956 143.858C191.143 143.671 191.247 143.417 191.247 143.153C191.247 142.888 191.143 142.635 190.956 142.447C190.77 142.26 190.517 142.155 190.253 142.154H163.81Z" fill="#E6E6E6"/>
<path d="M163.81 146.903C163.546 146.904 163.293 147.009 163.107 147.196C162.92 147.384 162.815 147.637 162.815 147.902C162.815 148.166 162.92 148.42 163.107 148.607C163.293 148.795 163.546 148.9 163.81 148.901H175.716C175.98 148.9 176.233 148.795 176.419 148.607C176.606 148.42 176.71 148.166 176.71 147.902C176.71 147.637 176.606 147.384 176.419 147.196C176.233 147.009 175.98 146.904 175.716 146.903H163.81Z" fill="#7BAFDF"/>
<path d="M208.314 142.154C208.05 142.155 207.797 142.26 207.61 142.447C207.424 142.635 207.319 142.888 207.319 143.153C207.319 143.417 207.424 143.671 207.61 143.858C207.797 144.045 208.05 144.151 208.314 144.151H234.757C235.021 144.151 235.274 144.045 235.46 143.858C235.646 143.671 235.751 143.417 235.751 143.153C235.751 142.888 235.646 142.635 235.46 142.447C235.274 142.26 235.021 142.155 234.757 142.154H208.314Z" fill="#E6E6E6"/>
<path d="M118.166 137.249C117.902 137.25 117.649 137.355 117.463 137.542C117.277 137.729 117.172 137.983 117.172 138.248C117.172 138.512 117.277 138.766 117.463 138.953C117.649 139.14 117.902 139.246 118.166 139.246H144.609C144.873 139.246 145.126 139.14 145.313 138.953C145.499 138.766 145.604 138.512 145.604 138.248C145.604 137.983 145.499 137.729 145.313 137.542C145.126 137.355 144.873 137.25 144.609 137.249H118.166Z" fill="#E6E6E6"/>
<path d="M163.81 137.249C163.546 137.25 163.293 137.355 163.107 137.542C162.92 137.729 162.815 137.983 162.815 138.248C162.815 138.512 162.92 138.766 163.107 138.953C163.293 139.14 163.546 139.246 163.81 139.246H190.253C190.517 139.246 190.77 139.14 190.956 138.953C191.143 138.766 191.247 138.512 191.247 138.248C191.247 137.983 191.143 137.729 190.956 137.542C190.77 137.355 190.517 137.25 190.253 137.249H163.81Z" fill="#E6E6E6"/>
<path d="M208.314 137.249C208.05 137.25 207.797 137.355 207.61 137.542C207.424 137.729 207.319 137.983 207.319 138.248C207.319 138.512 207.424 138.766 207.61 138.953C207.797 139.14 208.05 139.246 208.314 139.246H234.757C235.021 139.246 235.274 139.14 235.46 138.953C235.646 138.766 235.751 138.512 235.751 138.248C235.751 137.983 235.646 137.729 235.46 137.542C235.274 137.355 235.021 137.25 234.757 137.249H208.314Z" fill="#E6E6E6"/>
<path d="M208.313 146.903C208.049 146.904 207.796 147.009 207.61 147.196C207.423 147.384 207.318 147.637 207.318 147.902C207.318 148.166 207.423 148.42 207.61 148.607C207.796 148.795 208.049 148.9 208.313 148.901H220.218C220.482 148.9 220.735 148.795 220.922 148.607C221.108 148.42 221.213 148.166 221.213 147.902C221.213 147.637 221.108 147.384 220.922 147.196C220.735 147.009 220.482 146.904 220.218 146.903H208.313Z" fill="#7BAFDF"/>
</g>
<defs>
<clipPath id="clip0_197_168">
<rect width="299" height="214" fill="white"/>
</clipPath>
</defs>
</svg>
