<svg width="184" height="172" viewBox="0 0 184 172" fill="none" xmlns="http://www.w3.org/2000/svg">
<g clip-path="url(#clip0_197_226)">
<path d="M170.09 131.585L178.344 132.874C181.138 129.493 183.065 125.481 183.955 121.188C177.92 126.125 168.741 123.501 161.422 126.197C159.146 127.056 157.092 128.415 155.413 130.174C153.734 131.934 152.472 134.048 151.722 136.361L147.688 140.699C151.34 142.144 155.261 142.78 159.183 142.565C163.104 142.349 166.932 141.286 170.403 139.449C172.34 138.399 174.137 137.11 175.751 135.612C172.863 133.794 170.09 131.585 170.09 131.585Z" fill="#F2F2F2"/>
<path d="M167.16 118.391L175.123 115.866C176.116 111.594 176.049 107.145 174.931 102.904C171.732 110.014 162.346 111.757 156.998 117.432C155.344 119.215 154.112 121.347 153.394 123.67C152.676 125.994 152.491 128.448 152.851 130.853L151.176 136.534C155.089 136.199 158.883 135.021 162.297 133.08C165.71 131.139 168.662 128.481 170.949 125.29C172.214 123.487 173.247 121.532 174.024 119.471C170.628 119.132 167.16 118.391 167.16 118.391Z" fill="#F2F2F2"/>
<path d="M184 143.327C184 143.369 183.992 143.412 183.976 143.451C183.959 143.49 183.935 143.526 183.905 143.556C183.875 143.586 183.839 143.61 183.8 143.626C183.761 143.643 183.719 143.651 183.676 143.651H0.324064C0.238117 143.651 0.155689 143.617 0.0949155 143.556C0.0341419 143.495 0 143.413 0 143.327C0 143.241 0.0341419 143.159 0.0949155 143.098C0.155689 143.037 0.238117 143.003 0.324064 143.003H183.676C183.719 143.003 183.761 143.011 183.8 143.027C183.839 143.044 183.875 143.067 183.905 143.098C183.935 143.128 183.959 143.163 183.976 143.203C183.992 143.242 184 143.284 184 143.327Z" fill="#CCCCCC"/>
<path d="M75.9775 129.519C108.313 129.519 134.527 103.319 134.527 71.001C134.527 38.6826 108.313 12.4834 75.9775 12.4834C43.6416 12.4834 17.4282 38.6826 17.4282 71.001C17.4282 103.319 43.6416 129.519 75.9775 129.519Z" fill="#E6E6E6"/>
<path d="M126.357 71.0008C126.363 78.8576 124.526 86.6065 120.995 93.626C117.464 100.645 112.336 106.74 106.023 111.421C105.6 111.737 105.17 112.045 104.737 112.344C96.2947 118.209 86.259 121.353 75.9773 121.353C65.6955 121.353 55.6598 118.209 47.2173 112.344C46.7843 112.045 46.354 111.737 45.9319 111.421C39.6229 106.736 34.4982 100.64 30.9674 93.6219C27.4366 86.6034 25.5977 78.8565 25.5977 71.0008C25.5977 63.145 27.4366 55.3982 30.9674 48.3796C34.4982 41.3611 39.6229 35.2654 45.9319 30.5801C46.354 30.2644 46.7843 29.9568 47.2173 29.6574C55.6598 23.7921 65.6955 20.6484 75.9773 20.6484C86.259 20.6484 96.2947 23.7921 104.737 29.6574C105.17 29.9568 105.6 30.2644 106.023 30.5801C112.336 35.2613 117.464 41.3561 120.995 48.3756C124.526 55.3951 126.363 63.1439 126.357 71.0008Z" fill="white"/>
<path d="M75.9771 116.999C101.395 116.999 122 96.4052 122 71.0014C122 45.5977 101.395 25.0039 75.9771 25.0039C50.5596 25.0039 29.9546 45.5977 29.9546 71.0014C29.9546 96.4052 50.5596 116.999 75.9771 116.999Z" fill="#7BAFDF"/>
<path opacity="0.2" d="M76.0974 25.1318C75.3997 25.1318 74.7063 25.1501 74.0163 25.1808C85.6482 26.2024 96.4566 31.6049 104.252 40.2939C112.047 48.9829 116.246 60.3086 115.998 71.9764C115.751 83.6441 111.074 94.7815 102.917 103.132C94.7603 111.483 83.7322 116.422 72.0674 116.949C73.3957 117.065 74.7392 117.127 76.0974 117.127C88.3033 117.127 100.009 112.281 108.64 103.655C117.271 95.0283 122.12 83.3287 122.12 71.1294C122.12 58.9301 117.271 47.2304 108.64 38.6042C100.009 29.978 88.3033 25.1318 76.0974 25.1318Z" fill="black"/>
<path d="M76.1135 21.7373C75.7165 21.738 75.3359 21.8959 75.0552 22.1765C74.7744 22.4571 74.6164 22.8375 74.6157 23.2343V29.7665C74.6157 30.1635 74.7735 30.5442 75.0544 30.825C75.3353 31.1057 75.7163 31.2634 76.1135 31.2634C76.5107 31.2634 76.8917 31.1057 77.1726 30.825C77.4535 30.5442 77.6113 30.1635 77.6113 29.7665V23.2343C77.6106 22.8375 77.4525 22.4571 77.1718 22.1765C76.8911 21.8959 76.5105 21.738 76.1135 21.7373Z" fill="white"/>
<path d="M106.022 30.5801C105.6 30.2644 105.17 29.9569 104.737 29.6575C104.477 29.6405 104.217 29.6916 103.983 29.8057C103.749 29.9198 103.549 30.0929 103.403 30.308L99.7236 35.7052C99.5001 36.0333 99.4161 36.4367 99.4901 36.8266C99.5642 37.2166 99.7902 37.5612 100.118 37.7846C100.447 38.008 100.85 38.0919 101.241 38.0179C101.631 37.9439 101.975 37.718 102.199 37.39L105.878 31.9927C106.018 31.788 106.105 31.5515 106.13 31.3048C106.155 31.058 106.118 30.809 106.022 30.5801Z" fill="white"/>
<path d="M122.738 55.1901C122.664 55.0081 122.555 54.8425 122.417 54.7027C122.279 54.5629 122.114 54.4517 121.933 54.3753C121.752 54.299 121.558 54.2591 121.361 54.2578C121.165 54.2566 120.97 54.2941 120.788 54.3681L114.731 56.8259C114.364 56.9756 114.071 57.265 113.916 57.6306C113.762 57.9961 113.76 58.4079 113.909 58.7755C114.058 59.1431 114.348 59.4363 114.713 59.5908C115.079 59.7453 115.491 59.7483 115.859 59.5993L121.915 57.1416C122.283 56.9912 122.576 56.7014 122.73 56.3356C122.884 55.9699 122.887 55.558 122.738 55.1901Z" fill="white"/>
<path d="M52.2308 35.7052L48.5517 30.308C48.4051 30.0929 48.2049 29.9198 47.9709 29.8057C47.7369 29.6916 47.4772 29.6405 47.2174 29.6575C46.7844 29.9569 46.3541 30.2644 45.932 30.5801C45.8363 30.809 45.7994 31.058 45.8246 31.3048C45.8498 31.5515 45.9363 31.788 46.0763 31.9927L49.7554 37.3899C49.9789 37.718 50.3237 37.9439 50.7139 38.0179C51.1041 38.092 51.5077 38.008 51.8359 37.7846C52.1642 37.5612 52.3902 37.2166 52.4643 36.8266C52.5383 36.4367 52.4543 36.0333 52.2308 35.7052Z" fill="white"/>
<path d="M37.223 56.8265L31.1665 54.3688C30.7986 54.2194 30.3863 54.2223 30.0205 54.3767C29.6546 54.5311 29.3651 54.8244 29.2156 55.1922C29.0661 55.5599 29.0689 55.972 29.2233 56.3376C29.3778 56.7033 29.6712 56.9927 30.0391 57.1422L36.0956 59.5999C36.4635 59.7489 36.8755 59.7459 37.2411 59.5914C37.6068 59.4369 37.8961 59.1437 38.0455 58.7761C38.1949 58.4085 38.1922 57.9967 38.038 57.6312C37.8837 57.2656 37.5906 56.9762 37.223 56.8265Z" fill="white"/>
<path d="M76.1135 110.738C75.7165 110.739 75.3359 110.897 75.0552 111.177C74.7744 111.458 74.6164 111.838 74.6157 112.235V118.767C74.6157 119.164 74.7735 119.545 75.0544 119.826C75.3353 120.107 75.7163 120.264 76.1135 120.264C76.5107 120.264 76.8917 120.107 77.1726 119.826C77.4535 119.545 77.6113 119.164 77.6113 118.767V112.235C77.6106 111.838 77.4525 111.458 77.1718 111.177C76.8911 110.897 76.5105 110.739 76.1135 110.738Z" fill="white"/>
<path d="M105.878 110.009L102.199 104.612C102.088 104.45 101.947 104.311 101.782 104.203C101.618 104.095 101.434 104.021 101.241 103.984C101.047 103.948 100.849 103.949 100.656 103.989C100.464 104.029 100.281 104.107 100.118 104.218C99.9559 104.328 99.8168 104.47 99.709 104.634C99.6012 104.798 99.5268 104.982 99.4901 105.176C99.4535 105.369 99.4552 105.567 99.4953 105.759C99.5353 105.952 99.6129 106.135 99.7236 106.297L103.403 111.694C103.549 111.909 103.749 112.082 103.983 112.196C104.217 112.311 104.477 112.362 104.737 112.345C105.17 112.045 105.6 111.738 106.022 111.422C106.118 111.193 106.155 110.944 106.13 110.697C106.105 110.451 106.018 110.214 105.878 110.009Z" fill="white"/>
<path d="M121.915 84.8607L115.859 82.4029C115.491 82.2536 115.079 82.2565 114.713 82.4109C114.347 82.5653 114.057 82.8586 113.908 83.2264C113.759 83.5941 113.761 84.0061 113.916 84.3718C114.07 84.7375 114.364 85.0269 114.732 85.1764L120.788 87.6341C121.156 87.7831 121.568 87.78 121.934 87.6256C122.299 87.4711 122.588 87.1778 122.738 86.8103C122.887 86.4427 122.885 86.0309 122.73 85.6653C122.576 85.2998 122.283 85.0104 121.915 84.8607Z" fill="white"/>
<path d="M51.8359 104.217C51.5076 103.994 51.104 103.91 50.7139 103.984C50.3238 104.058 49.979 104.284 49.7554 104.612L46.0763 110.009C45.9363 110.214 45.8498 110.451 45.8246 110.697C45.7994 110.944 45.8363 111.193 45.932 111.422C46.3541 111.738 46.7844 112.045 47.2174 112.345C47.4772 112.362 47.7369 112.31 47.9709 112.196C48.2049 112.082 48.4051 111.909 48.5517 111.694L52.2308 106.297C52.3415 106.134 52.4191 105.952 52.4592 105.759C52.4992 105.567 52.501 105.369 52.4643 105.175C52.4276 104.982 52.3533 104.798 52.2455 104.634C52.1376 104.47 51.9985 104.328 51.8359 104.217Z" fill="white"/>
<path d="M38.0454 83.2243C37.9714 83.0423 37.8623 82.8767 37.7242 82.7369C37.5862 82.5971 37.4219 82.4858 37.2409 82.4095C37.0598 82.3332 36.8654 82.2933 36.6689 82.292C36.4724 82.2908 36.2776 82.3283 36.0955 82.4023L30.0391 84.8601C29.6715 85.0097 29.3783 85.2992 29.2241 85.6647C29.0699 86.0303 29.0672 86.4421 29.2166 86.8097C29.366 87.1772 29.6553 87.4705 30.0209 87.625C30.3866 87.7795 30.7986 87.7825 31.1665 87.6335L37.223 85.1758C37.5904 85.0254 37.8833 84.7355 38.0374 84.3698C38.1915 84.004 38.1944 83.5922 38.0454 83.2243Z" fill="white"/>
<path d="M78.057 70.2579C78.1953 71.0762 78.0032 71.9158 77.5228 72.5927C77.0425 73.2696 76.3131 73.7284 75.4948 73.8685L48.9166 78.3869C48.5112 78.4559 48.0961 78.4443 47.6952 78.3529C47.2942 78.2615 46.9152 78.0921 46.5797 77.8543C46.2443 77.6165 45.959 77.315 45.7401 76.967C45.5212 76.619 45.3731 76.2313 45.3041 75.8261C45.2351 75.4209 45.2467 75.0061 45.3382 74.6053C45.4296 74.2046 45.5991 73.8257 45.837 73.4905C46.075 73.1552 46.3766 72.87 46.7248 72.6513C47.073 72.4325 47.4609 72.2845 47.8663 72.2156L74.4445 67.6971C75.2631 67.5589 76.1033 67.7509 76.7805 68.231C77.4578 68.711 77.9168 69.44 78.057 70.2579Z" fill="#3F3D56"/>
<path d="M106.03 99.6888C105.648 100.073 105.129 100.289 104.588 100.291C104.046 100.294 103.526 100.081 103.141 99.7001L74.5303 71.3289C74.1464 70.9475 73.9296 70.4293 73.9277 69.8883C73.9259 69.3472 74.139 68.8275 74.5203 68.4434C74.9016 68.0593 75.4198 67.8422 75.9612 67.8399C76.5025 67.8375 77.0227 68.05 77.4073 68.4307L106.018 96.802C106.402 97.1835 106.619 97.7018 106.621 98.243C106.623 98.7842 106.411 99.3042 106.03 99.6888Z" fill="#3F3D56"/>
<path d="M75.9772 74.5394C77.9324 74.5394 79.5174 72.9553 79.5174 71.0012C79.5174 69.047 77.9324 67.4629 75.9772 67.4629C74.022 67.4629 72.437 69.047 72.437 71.0012C72.437 72.9553 74.022 74.5394 75.9772 74.5394Z" fill="#CCCCCC"/>
<path d="M51.5924 9.64682C46.1582 18.1856 37.8669 23.8524 27.6417 27.5751C27.4396 27.7263 27.2098 27.8363 26.9652 27.8988C26.7206 27.9612 26.4661 27.9749 26.2162 27.9391C25.9663 27.9032 25.726 27.8186 25.5088 27.6899C25.2917 27.5612 25.102 27.391 24.9507 27.189C19.3965 19.777 20.6506 9.18383 27.9811 3.52021C29.7533 2.15332 31.7796 1.15189 33.9422 0.574074C36.1049 -0.00374676 38.3608 -0.146455 40.5791 0.154237C42.7974 0.45493 44.9338 1.19303 46.8643 2.32569C48.7949 3.45835 50.4811 4.96301 51.825 6.75231L51.9787 6.95732C52.13 7.15926 52.24 7.38902 52.3025 7.63347C52.365 7.87792 52.3787 8.13228 52.3428 8.38203C52.307 8.63177 52.2222 8.87201 52.0935 9.08902C51.9647 9.30604 51.7944 9.49558 51.5924 9.64682Z" fill="#E6E6E6"/>
<path d="M100.13 6.75231C101.474 4.96301 103.16 3.45835 105.09 2.32569C107.021 1.19303 109.157 0.454931 111.376 0.154238C113.594 -0.146454 115.85 -0.00374975 118.012 0.574071C120.175 1.15189 122.201 2.15332 123.974 3.52021C131.304 9.18383 132.558 19.777 127.004 27.189C126.853 27.391 126.663 27.5612 126.446 27.6898C126.229 27.8185 125.988 27.9032 125.738 27.9391C125.489 27.9749 125.234 27.9612 124.989 27.8988C124.745 27.8363 124.515 27.7263 124.313 27.5751C114.821 23.9428 107.036 17.6572 100.362 9.64682C99.9542 9.34136 99.6842 8.88639 99.6118 8.38201C99.5394 7.87763 99.6703 7.36515 99.976 6.95731L100.13 6.75231Z" fill="#E6E6E6"/>
<path d="M97.7478 121.698C97.4017 121.893 97.1468 122.216 97.0389 122.598C96.931 122.98 96.9789 123.389 97.1722 123.736L105.816 139.174C106.01 139.521 106.334 139.776 106.716 139.884C107.098 139.991 107.508 139.943 107.855 139.749C108.201 139.555 108.456 139.232 108.564 138.85C108.672 138.468 108.624 138.059 108.43 137.712L99.7863 122.274C99.5918 121.928 99.2681 121.673 98.886 121.565C98.5039 121.457 98.0946 121.505 97.7478 121.698Z" fill="#E6E6E6"/>
<path d="M52.1686 122.274L43.5246 137.713C43.3307 138.059 43.2824 138.468 43.3904 138.85C43.4984 139.232 43.7537 139.556 44.1003 139.75C44.4469 139.943 44.8564 139.992 45.2386 139.884C45.6209 139.776 45.9446 139.521 46.1386 139.175L54.7827 123.736C54.8788 123.565 54.9401 123.376 54.9632 123.18C54.9863 122.985 54.9707 122.787 54.9172 122.598C54.8638 122.409 54.7736 122.232 54.6518 122.078C54.5299 121.923 54.3789 121.794 54.2072 121.698C54.0355 121.602 53.8466 121.541 53.6513 121.518C53.4559 121.495 53.2579 121.511 53.0686 121.564C52.8793 121.618 52.7024 121.708 52.5479 121.83C52.3935 121.951 52.2646 122.102 52.1686 122.274Z" fill="#E6E6E6"/>
<path d="M107.566 143.127C110.123 143.127 112.196 141.055 112.196 138.5C112.196 135.945 110.123 133.873 107.566 133.873C105.01 133.873 102.937 135.945 102.937 138.5C102.937 141.055 105.01 143.127 107.566 143.127Z" fill="#E6E6E6"/>
<path d="M110.835 24.7315C113.391 24.7315 115.464 22.6599 115.464 20.1045C115.464 17.5491 113.391 15.4775 110.835 15.4775C108.278 15.4775 106.205 17.5491 106.205 20.1045C106.205 22.6599 108.278 24.7315 110.835 24.7315Z" fill="#E6E6E6"/>
<path d="M75.7052 13.8448C78.262 13.8448 80.3346 11.7732 80.3346 9.21779C80.3346 6.66239 78.262 4.59082 75.7052 4.59082C73.1484 4.59082 71.0757 6.66239 71.0757 9.21779C71.0757 11.7732 73.1484 13.8448 75.7052 13.8448Z" fill="#E6E6E6"/>
<path d="M42.2096 24.1875C44.7663 24.1875 46.839 22.116 46.839 19.5606C46.839 17.0052 44.7663 14.9336 42.2096 14.9336C39.6528 14.9336 37.5801 17.0052 37.5801 19.5606C37.5801 22.116 39.6528 24.1875 42.2096 24.1875Z" fill="#E6E6E6"/>
<path d="M45.2047 143.127C47.7615 143.127 49.8342 141.055 49.8342 138.5C49.8342 135.945 47.7615 133.873 45.2047 133.873C42.6479 133.873 40.5752 135.945 40.5752 138.5C40.5752 141.055 42.6479 143.127 45.2047 143.127Z" fill="#E6E6E6"/>
<path d="M103.935 97.0868C104.118 97.3723 104.361 97.6145 104.647 97.7961C104.933 97.9777 105.256 98.0943 105.592 98.1379C105.928 98.1814 106.27 98.1507 106.593 98.0479C106.916 97.9452 107.213 97.7729 107.462 97.5432L114.726 101.433L114.337 97.1708L107.498 94.13C107.084 93.7371 106.541 93.5096 105.97 93.4906C105.4 93.4715 104.842 93.6623 104.403 94.0268C103.964 94.3912 103.673 94.904 103.587 95.468C103.501 96.032 103.625 96.6079 103.935 97.0868Z" fill="#FFB7B7"/>
<path d="M109.229 98.5739L112.075 94.6465L125.789 101.126L142.855 97.9257C143.699 97.7675 144.567 97.7969 145.397 98.0117C146.228 98.2266 147.002 98.6216 147.663 99.1688C148.324 99.7159 148.856 100.402 149.222 101.178C149.588 101.954 149.779 102.801 149.78 103.658C149.781 105.208 149.168 106.694 148.073 107.792C146.979 108.89 145.494 109.508 143.944 109.513L124.387 109.549L109.229 98.5739Z" fill="#3F3D56"/>
<path d="M104.844 166.407L101.963 165.03L105.92 152.998L110.171 155.03L104.844 166.407Z" fill="#FFB7B7"/>
<path d="M124.153 164.468C123.944 164.599 123.734 164.728 123.523 164.857C123.102 165.115 122.677 165.369 122.251 165.618C122.038 165.743 121.822 165.868 121.608 165.99V165.997L121.596 165.999L121.591 166.001L121.266 166.081L120.798 164.847L120.582 164.278L120.278 163.472L119.719 161.998L116.778 154.238L121.35 153.111L121.521 153.811H121.524L121.608 154.158L123.206 160.632L123.531 161.956L123.542 161.996L123.739 162.787L123.908 163.472L124.096 164.238L124.153 164.468Z" fill="#FFB7B7"/>
<path d="M151.426 137.216C151.136 137.681 150.839 138.144 150.541 138.603C149.987 139.457 149.418 140.299 148.834 141.128C148.834 141.13 148.832 141.13 148.83 141.132C148.489 141.448 148.113 141.722 147.708 141.95C147.691 141.963 147.672 141.972 147.656 141.982C147.358 142.147 147.041 142.274 146.712 142.361C146.593 142.39 146.473 142.42 146.354 142.449C145.927 142.551 145.504 142.638 145.083 142.714C144.334 142.847 143.594 142.942 142.857 143.001C142.798 143.008 142.739 143.012 142.68 143.016C139.652 143.238 136.705 142.881 133.629 142.295C132.11 142.008 130.559 141.663 128.954 141.306C128.429 141.187 127.902 141.071 127.369 140.955C127.329 140.946 127.287 140.935 127.244 140.927C126.483 140.76 125.708 140.595 124.915 140.432C123.916 140.227 122.886 140.028 121.816 139.84L121.892 141.348C121.955 142.508 122.196 143.651 122.607 144.737C123.064 146.074 123.426 147.131 122.662 149.332L122.294 150.398C122.485 150.927 122.55 151.493 122.485 152.052C122.42 152.611 122.226 153.147 121.919 153.618L121.845 153.73L124.915 161.492L125.114 161.995H123.542L121.608 161.998H118.331L113.603 152.516L113.376 152.064V152.041L113.865 133.82C113.872 133.66 113.884 133.497 113.905 133.336C113.992 132.606 114.222 131.9 114.585 131.259C114.947 130.619 115.433 130.057 116.015 129.606C116.572 129.171 117.211 128.851 117.893 128.664C118.575 128.477 119.288 128.428 119.99 128.519L121.608 128.729L124.915 129.156L127.244 129.458L127.291 129.465L134.16 130.353L134.653 128.344L134.744 128.31L137.636 127.251L147.639 123.586L147.664 123.578L148.322 123.337L148.4 123.464C148.423 123.502 148.447 123.54 148.468 123.578C149.118 124.743 149.648 125.972 150.048 127.244C150.722 129.324 151.276 131.439 151.709 133.581C151.728 133.674 151.745 133.759 151.76 133.835L151.766 133.858C151.772 133.894 151.777 133.918 151.779 133.924C152.009 134.884 151.849 136.055 151.426 137.216Z" fill="#2F2E41"/>
<path d="M151.848 130.502C151.816 130.366 151.776 130.229 151.734 130.096C151.398 129.087 151.007 128.097 150.562 127.131C150.062 126.032 149.464 124.854 148.751 123.579C148.406 122.962 148.035 122.319 147.638 121.653C147.439 121.319 147.233 120.978 147.018 120.631C147.01 120.615 147.001 120.6 146.991 120.585L146.929 120.483L137.033 121.807L133.347 122.3L133.127 124.135L133.074 124.59C133.072 124.59 133.072 124.59 133.074 124.592L132.926 125.831V125.833L132.729 127.47L132.712 127.467L127.244 126.759L121.608 126.03L118.58 125.638C117.879 125.547 117.166 125.596 116.483 125.783C115.801 125.969 115.162 126.29 114.605 126.725C114.023 127.176 113.537 127.738 113.175 128.378C112.813 129.019 112.582 129.725 112.496 130.455C112.477 130.603 112.464 130.755 112.458 130.906L109.602 137.67C107.893 141.715 106.804 145.995 106.373 150.365L104.279 157.057L104.577 157.085L109.016 157.497L110.188 157.607L112.769 153.841C113.063 153.412 113.342 152.97 113.602 152.517C114.031 151.778 114.412 151.013 114.743 150.225L120.326 136.947C120.757 137.021 121.185 137.091 121.608 137.158C123.565 137.475 125.443 137.734 127.244 137.934C133.097 138.587 138.166 138.638 142.679 138.084C143.946 137.93 145.171 137.727 146.354 137.475C146.788 137.384 147.216 137.286 147.638 137.181C147.737 137.158 147.835 137.135 147.932 137.109C148.806 136.884 149.61 136.443 150.27 135.827C150.93 135.211 151.424 134.439 151.708 133.582C152.048 132.59 152.096 131.521 151.848 130.502Z" fill="#2F2E41"/>
<path d="M105.764 164.442L102.647 162.95L102.159 162.715L101.378 164.631L95.9283 165.829C95.6589 165.888 95.4154 166.032 95.2334 166.239C95.0514 166.447 94.9405 166.706 94.9169 166.981C94.8932 167.256 94.9581 167.531 95.102 167.766C95.2459 168.001 95.4614 168.184 95.7168 168.289L101.042 170.46L102.732 168.94L102.317 170.98L104.323 171.799L106.521 164.806L105.764 164.442Z" fill="#2F2E41"/>
<path d="M124.915 161.492L125.114 161.995H124.915V161.492Z" fill="#2F2E41"/>
<path d="M123.83 162.103L120.564 163.234L120.052 163.411L120.846 165.321L117.817 170.006C117.668 170.237 117.596 170.51 117.612 170.786C117.629 171.061 117.733 171.323 117.91 171.535C118.086 171.747 118.326 171.897 118.594 171.963C118.862 172.029 119.144 172.007 119.398 171.902L124.711 169.7L124.842 167.431L125.984 169.173L127.985 168.344L124.624 161.829L123.83 162.103Z" fill="#2F2E41"/>
<path d="M151.034 133.565C150.84 133.564 150.649 133.517 150.477 133.427L133.246 124.428L133.047 123.613L132.672 121.035L132.677 121.011L134.316 113.46C134.286 113.395 134.223 113.289 134.152 113.169C133.42 111.93 131.194 108.159 135.443 102.968L142.904 94.2744L149.307 93.999L149.38 94.091C151.092 96.2388 152.246 98.776 152.741 101.477C153.235 104.179 153.055 106.96 152.214 109.575L151.548 121.609L152.263 124.04C152.681 125.468 152.612 126.995 152.066 128.379L152.23 132.315C152.237 132.476 152.21 132.637 152.153 132.788C152.096 132.939 152.009 133.077 151.897 133.194C151.786 133.31 151.652 133.403 151.503 133.467C151.355 133.531 151.195 133.564 151.034 133.565Z" fill="#3F3D56"/>
<path d="M136.087 143.49C136.379 143.317 136.629 143.083 136.821 142.804C137.012 142.524 137.14 142.206 137.195 141.871C137.251 141.537 137.232 141.195 137.14 140.869C137.049 140.542 136.887 140.24 136.666 139.983L140.809 132.862L136.533 133.103L133.254 139.828C132.847 140.228 132.6 140.763 132.562 141.332C132.523 141.901 132.694 142.465 133.043 142.916C133.392 143.368 133.895 143.675 134.456 143.781C135.017 143.887 135.597 143.783 136.087 143.49Z" fill="#FFB7B7"/>
<path d="M137.759 138.254L133.931 135.274L140.887 121.801L138.28 104.644C138.151 103.796 138.211 102.93 138.455 102.107C138.699 101.285 139.12 100.526 139.691 99.8848C140.261 99.2436 140.965 98.7357 141.754 98.3972C142.542 98.0587 143.396 97.8978 144.254 97.926C145.803 97.9787 147.268 98.6435 148.327 99.7746C149.387 100.906 149.954 102.411 149.905 103.959L149.261 123.495L137.759 138.254Z" fill="#3F3D56"/>
<path d="M138.796 90.6626V84.3299C138.795 82.0794 139.688 79.9205 141.279 78.3281C142.87 76.7357 145.029 75.8403 147.281 75.8389C149.533 75.8374 151.693 76.7301 153.286 78.3204C154.879 79.9107 155.775 82.0685 155.777 84.319V84.3299C157.273 87.4465 156.337 88.9282 155.777 90.6626C155.776 90.9646 155.656 91.2541 155.442 91.4676C155.229 91.6812 154.939 91.8014 154.637 91.8019H139.937C139.635 91.8016 139.345 91.6814 139.131 91.4678C138.917 91.2543 138.797 90.9647 138.796 90.6626Z" fill="#2F2E41"/>
<path d="M144.503 91.3901C148.013 91.3901 150.858 88.5463 150.858 85.0383C150.858 81.5303 148.013 78.6865 144.503 78.6865C140.993 78.6865 138.148 81.5303 138.148 85.0383C138.148 88.5463 140.993 91.3901 144.503 91.3901Z" fill="#FFB7B7"/>
<path d="M151.154 86.704C151.096 86.6949 151.039 86.6828 150.981 86.6737C149.99 86.498 148.998 86.3253 148.01 86.1465L147.919 83.9074L146.722 85.9132C143.99 86.8191 141.435 86.3071 139.031 85.1769C138.238 84.8007 137.468 84.3767 136.727 83.9074C136.929 82.669 137.405 81.4914 138.121 80.4608C138.837 79.4301 139.774 78.5725 140.865 77.9506C140.956 77.8991 141.044 77.8536 141.134 77.8082L141.136 77.8079L141.137 77.8073L141.137 77.8063L141.137 77.8051C141.292 77.7324 141.45 77.6627 141.607 77.5991C142.842 77.1171 144.187 76.995 145.488 77.2471C146.789 77.4991 147.991 78.115 148.956 79.0232C150.896 80.8745 151.769 83.9316 151.154 86.704Z" fill="#2F2E41"/>
</g>
<defs>
<clipPath id="clip0_197_226">
<rect width="184" height="172" fill="white"/>
</clipPath>
</defs>
</svg>
