<svg width="347" height="338" viewBox="0 0 347 338" fill="none" xmlns="http://www.w3.org/2000/svg">
<path d="M15.373 201.47H36.5752V192.51H15.373V201.47Z" fill="#EBEBEB"/>
<path d="M27.2072 181.213L37.7122 180.988L43.0448 180.9C44.8303 180.86 46.6238 180.9 48.4094 180.86H48.7617V181.221L48.8097 190.18V190.581H48.4254L37.8243 190.533C34.2933 190.533 30.7542 190.437 27.2232 190.397H26.999V190.18C26.999 188.659 27.0631 187.146 27.1031 185.656L27.2072 181.213ZM27.2072 181.213L27.3193 185.737C27.3193 187.234 27.4074 188.707 27.4234 190.172L27.2072 189.956C30.7382 189.916 34.2773 189.828 37.8083 189.82L48.4254 189.772L48.025 190.172V181.213L48.4254 181.605C46.6799 181.605 44.9344 181.605 43.1809 181.557L37.9124 181.469L27.2072 181.213Z" fill="#EBEBEB"/>
<path d="M3.58698 181.213L14.092 180.988L19.4245 180.9C21.2101 180.86 22.9956 180.9 24.7891 180.86H25.1414V181.221L25.1895 190.18V190.581H24.7891L14.1881 190.533C10.649 190.533 7.11801 190.437 3.58698 190.397H3.36279V190.18C3.36279 188.659 3.43485 187.146 3.46688 185.656L3.58698 181.213ZM3.58698 181.213L3.69908 185.737C3.69908 187.234 3.78716 188.707 3.80317 190.172L3.58698 189.956C7.11801 189.916 10.649 189.828 14.1881 189.82L24.7891 189.772L24.3888 190.172V181.213L24.7491 181.573C22.9956 181.573 21.2581 181.573 19.5046 181.525L14.2361 181.437L3.58698 181.213Z" fill="#EBEBEB"/>
<path d="M329.682 15.0143L319.177 15.2385L313.845 15.3266C312.059 15.3666 310.265 15.3266 308.48 15.3746H308.128V15.0143L308.08 6.05464V5.6543H308.48L319.081 5.71034C322.62 5.71034 326.151 5.79842 329.682 5.83845H329.906V6.05464C329.906 7.57594 329.834 9.08924 329.802 10.5865L329.682 15.0143ZM329.682 15.0143L329.57 10.4904C329.57 9.00116 329.482 7.5279 329.466 6.05464L329.682 6.27883C326.151 6.27883 322.62 6.40694 319.081 6.40694L308.48 6.45498L308.88 6.05464L308.84 15.0143L308.48 14.662C310.225 14.662 311.971 14.662 313.724 14.662L318.993 14.7581L329.682 15.0143Z" fill="#EBEBEB"/>
<path d="M341.508 17.3525H320.306V26.3122H341.508V17.3525Z" fill="#EBEBEB"/>
<path d="M24.7573 15.0624L14.2443 15.2785L8.91172 15.3746C7.12619 15.3746 5.34066 15.3746 3.55513 15.3746H3.19482V15.0624V6.10269V5.69434H3.58716L14.1882 5.74238C17.7193 5.74238 21.2503 5.83045 24.7893 5.87049H25.0055V6.08667C25.0055 7.59997 24.9334 9.11326 24.9014 10.6105L24.7573 15.0624ZM24.7573 15.0624L24.6372 10.5305C24.6372 9.0412 24.5491 7.56794 24.5331 6.10269L24.7573 6.31887C21.2183 6.35891 17.6872 6.44698 14.1562 6.44698L3.58716 6.471L3.9795 6.07066L3.90744 15.0624L3.58716 14.67C5.33266 14.67 7.07014 14.67 8.82364 14.7181L14.0922 14.8061L24.7573 15.0624Z" fill="#EBEBEB"/>
<path d="M152.571 71.5508H173.773V62.5911H152.571V71.5508Z" fill="#EBEBEB"/>
<path d="M320.306 184.56L330.819 184.335L336.152 184.247C337.937 184.207 339.723 184.247 341.508 184.199H341.869V184.56L341.909 193.519V193.92H341.476L330.875 193.872C327.344 193.872 323.813 193.775 320.274 193.735H320.058V193.519C320.058 191.998 320.13 190.485 320.162 188.995L320.306 184.56ZM320.306 184.56L320.426 189.083C320.426 190.581 320.514 192.054 320.531 193.519L320.306 193.303C323.845 193.263 327.376 193.175 330.907 193.167L341.508 193.119L341.116 193.519L341.156 184.56L341.508 184.92C339.763 184.92 338.025 184.92 336.272 184.872L331.003 184.784L320.306 184.56Z" fill="#EBEBEB"/>
<path d="M181.675 267.959H202.877V258.999H181.675V267.959Z" fill="#EBEBEB"/>
<path d="M164.388 51.2931L174.933 51.093L180.266 51.0049C182.052 51.0049 183.837 51.0049 185.631 51.0049H185.983V51.3652L186.023 60.3249V60.7252H185.623L175.022 60.6772C171.483 60.6772 167.952 60.5891 164.42 60.541H164.196V60.3249C164.196 58.8036 164.268 57.2903 164.3 55.801L164.388 51.2931ZM164.388 51.2931L164.509 55.825C164.509 57.3143 164.597 58.7875 164.613 60.2528L164.396 60.0366C167.927 60.0366 171.459 59.9085 174.998 59.9085L185.599 59.8525L185.198 60.2528L185.238 51.2931L185.599 51.6534C183.845 51.6534 182.108 51.6534 180.354 51.6054L175.086 51.5173L164.388 51.2931Z" fill="#EBEBEB"/>
<path d="M58.4502 259.271H31.5792L16.2061 182.605L40.8031 171.3L58.4502 259.271Z" fill="#DBDBDB"/>
<path d="M135.364 259.271H58.4498L40.8027 171.3H117.717L135.364 259.271Z" fill="#EBEBEB"/>
<path d="M44.6543 218.14H3.4751V302.636H44.6543V218.14Z" fill="#DBDBDB"/>
<path d="M155.125 302.636H143.875L127.109 218.14H155.125V302.636Z" fill="#DBDBDB"/>
<path d="M67.2817 218.14H44.6543V302.636H67.2817V218.14Z" fill="#EBEBEB"/>
<path d="M177.752 218.14H155.125V302.636H177.752V218.14Z" fill="#EBEBEB"/>
<path d="M155.125 259.271H67.2817V302.629H155.125V259.271Z" fill="#EBEBEB"/>
<path d="M155.125 240.527H67.2817V259.448H155.125V240.527Z" fill="#EBEBEB"/>
<path d="M50.2031 218.14L58.7464 217.988L67.2817 217.876H67.538V218.14L67.6421 228.045V237.933C67.6421 244.523 67.6901 251.112 67.6421 257.71C67.594 264.308 67.6421 270.889 67.53 277.487C67.4179 284.085 67.3858 290.666 67.2417 297.264C67.1029 290.666 67.0095 284.074 66.9615 277.487C66.8734 270.889 66.8654 264.3 66.8414 257.71C66.8173 251.12 66.8414 244.523 66.8414 237.933V228.045L66.9375 218.156L67.1937 218.412L58.6584 218.308L50.2031 218.14Z" fill="#DBDBDB"/>
<path d="M155.125 218.14C155.301 224.753 155.381 231.367 155.453 237.989L155.549 257.838L155.453 277.687L155.333 287.615L155.125 297.536L154.917 287.615L154.797 277.687L154.701 257.838L154.797 237.989C154.869 231.367 154.917 224.753 155.125 218.14Z" fill="#DBDBDB"/>
<path d="M155.125 259.271C147.807 259.447 140.488 259.527 133.162 259.599L111.207 259.695L89.2605 259.599L78.2831 259.479L67.2817 259.271L78.2671 259.063L89.2445 258.943L111.207 258.847L133.162 258.943C140.504 259.015 147.807 259.095 155.125 259.271Z" fill="#DBDBDB"/>
<path d="M155.125 240.528C147.807 240.704 140.489 240.784 133.162 240.856L111.207 240.952L89.2607 240.856L78.2832 240.736L67.2979 240.528L78.2832 240.32L89.2607 240.2L111.223 240.104L133.178 240.2C140.505 240.272 147.807 240.352 155.125 240.528Z" fill="#DBDBDB"/>
<path d="M19.1285 302.629L18.568 309.475L17.2709 325.296H11.3058L10.0087 309.475L9.44824 302.629H19.1285Z" fill="#C7C7C7"/>
<path d="M9.44824 302.629H19.1285L18.568 309.475H10.0087L9.44824 302.629Z" fill="#A6A6A6"/>
<path d="M60.8121 302.629L60.2516 309.475L58.9545 325.296H52.9894L51.6923 309.475L51.1318 302.629H60.8121Z" fill="#C7C7C7"/>
<path d="M51.1318 302.629H60.8121L60.2516 309.475H51.6923L51.1318 302.629Z" fill="#A6A6A6"/>
<path d="M129.943 302.629L129.39 309.475L128.093 325.296H122.128L120.831 309.475L120.271 302.629H129.943Z" fill="#C7C7C7"/>
<path d="M120.271 302.629H129.943L129.39 309.475H120.831L120.271 302.629Z" fill="#A6A6A6"/>
<path d="M171.643 302.629L171.083 309.475L169.786 325.296H163.82L162.523 309.475L161.963 302.629H171.643Z" fill="#C7C7C7"/>
<path d="M171.643 302.629L171.083 309.475H162.523L161.963 302.629H171.643Z" fill="#A6A6A6"/>
<path d="M157.255 55.8652H19.8169V61.7663H157.255V55.8652Z" fill="#EBEBEB"/>
<path d="M39.8022 84.9945H34.4456L32.2998 61.7666H39.8022V84.9945Z" fill="#EBEBEB"/>
<path d="M137.27 84.9945H142.626L144.772 61.7666H137.27V84.9945Z" fill="#EBEBEB"/>
<path d="M32.2998 61.7666H39.7942V69.7655H33.0364L32.2998 61.7666Z" fill="#DBDBDB"/>
<path d="M144.772 61.7666L144.035 69.7655H137.27V61.7666H144.772Z" fill="#DBDBDB"/>
<path d="M69.5875 20.4667C63.4863 28.7217 57.1288 38.2819 55.5835 48.6908C55.583 48.723 55.594 48.7544 55.6144 48.7793C55.6349 48.8042 55.6635 48.8211 55.6953 48.8268C55.727 48.8326 55.7597 48.8269 55.7876 48.8108C55.8156 48.7947 55.8369 48.7692 55.8477 48.7389C56.5511 45.9165 57.4528 43.1472 58.546 40.4518C62.5495 39.3468 66.4888 38.442 68.5946 34.4626C70.7004 30.4832 70.4682 25.0386 70.0599 20.5788C70.0439 20.3145 69.7076 20.3065 69.5875 20.4667Z" fill="#EBEBEB"/>
<path d="M58.61 40.3475C61.2922 34.051 64.9063 28.1938 69.3312 22.9727L69.3792 23.0207C66.5799 26.6226 64.1219 30.4771 62.0369 34.5346C64.0547 32.4848 66.2646 30.6432 68.1782 28.4734C68.1782 28.4734 68.2743 28.4734 68.2423 28.5374C66.3446 30.8114 64.2388 33.2855 61.8368 34.9429C61.1749 36.1706 60.5023 37.3983 59.819 38.6261C59.9872 38.53 60.1633 38.4499 60.3315 38.3618V38.4099L59.763 38.6901C59.4427 39.2666 59.1224 39.8511 58.7942 40.4276C58.7301 40.5877 58.546 40.4756 58.61 40.3475Z" fill="#A6A6A6"/>
<path d="M60.6438 38.2018C62.2829 37.2825 63.8488 36.2386 65.3278 35.0791C65.3278 35.0791 65.4239 35.0791 65.3838 35.1351C63.951 36.3758 62.3824 37.4502 60.7078 38.3379C60.6989 38.3421 60.6892 38.3445 60.6794 38.345C60.6695 38.3454 60.6596 38.3439 60.6503 38.3406C60.641 38.3373 60.6325 38.3321 60.6252 38.3255C60.6179 38.3188 60.6119 38.3108 60.6077 38.3019C60.6035 38.2929 60.6011 38.2832 60.6007 38.2734C60.6002 38.2635 60.6017 38.2536 60.605 38.2444C60.6084 38.2351 60.6135 38.2265 60.6202 38.2192C60.6268 38.2119 60.6348 38.206 60.6438 38.2018Z" fill="#A6A6A6"/>
<path d="M54.9108 48.5711C54.9108 48.6992 55.135 48.6912 55.135 48.5711C55.135 45.1602 55.135 41.7332 55.1911 38.3063C56.0638 36.5448 57.9374 35.5679 59.2425 34.1507C60.1718 33.1187 60.9779 31.9821 61.6446 30.7638C63.2135 27.8519 64.1725 24.6507 64.463 21.3558C64.8233 17.7047 63.4381 5.67036 61.9008 6.08671C61.1001 6.3029 58.5219 12.268 57.8413 14.2377C56.7386 17.4886 55.9346 20.8333 55.4393 24.2302C54.1982 32.2531 54.3023 40.4922 54.9108 48.5711Z" fill="#EBEBEB"/>
<path d="M54.8869 33.8549C55.2112 29.5174 55.9049 25.2155 56.9607 20.9959C57.9375 16.4801 59.0825 12.2364 61.4045 8.18495C61.4045 8.10488 61.5566 8.18495 61.5166 8.249C59.9702 11.3776 58.7727 14.6669 57.9455 18.0574C58.1057 17.8172 58.2898 17.585 58.45 17.3528C58.514 17.2647 58.6662 17.3528 58.6021 17.4409C58.3971 17.806 58.1557 18.1493 57.8815 18.4657C57.0808 21.6685 56.5043 24.9833 56.0159 28.2741L56.128 28.146C56.128 28.146 56.192 28.146 56.176 28.146L55.9839 28.4743C55.7357 30.1397 55.5035 31.8052 55.2713 33.4546C58.3216 31.0102 60.7087 27.8384 62.2132 24.2307C60.9432 28.0781 58.4844 31.4228 55.1912 33.7829C55.1351 34.2312 55.0711 34.6716 55.007 35.12C55.007 35.2081 54.8469 35.1841 54.8469 35.12C54.8469 34.7277 54.8469 34.3193 54.8469 33.935C54.8458 33.9193 54.8489 33.9036 54.856 33.8895C54.863 33.8754 54.8737 33.8635 54.8869 33.8549Z" fill="#A6A6A6"/>
<path d="M56.2883 27.6013C58.61 24.3176 60.6356 20.8343 62.3414 17.1924C62.3414 17.1924 62.4375 17.1924 62.4215 17.1924C61.074 21.0237 59.045 24.5798 56.4324 27.6894C56.4266 27.6988 56.419 27.7071 56.4101 27.7136C56.4011 27.7201 56.3909 27.7248 56.3801 27.7274C56.3694 27.73 56.3582 27.7305 56.3472 27.7288C56.3363 27.727 56.3258 27.7232 56.3163 27.7174C56.3068 27.7116 56.2986 27.704 56.2921 27.6951C56.2855 27.6861 56.2808 27.6759 56.2782 27.6651C56.2756 27.6544 56.2752 27.6432 56.2769 27.6322C56.2786 27.6213 56.2825 27.6108 56.2883 27.6013Z" fill="#A6A6A6"/>
<path d="M59.3067 16.3353C60.2515 14.6699 61.2363 13.0525 62.1251 11.3551C62.1251 11.307 62.2132 11.3551 62.1972 11.3951C61.4702 13.1675 60.5491 14.8538 59.4508 16.4234C59.4367 16.4361 59.4189 16.444 59.4 16.4457C59.381 16.4475 59.3621 16.4431 59.3459 16.4332C59.3297 16.4233 59.3171 16.4084 59.31 16.3908C59.303 16.3731 59.3018 16.3537 59.3067 16.3353Z" fill="#A6A6A6"/>
<path d="M53.2298 39.8272C53.1846 42.09 52.9164 44.3428 52.4291 46.553C52.4291 46.7932 52.5011 47.0334 52.5332 47.2896C53.2298 44.8478 53.6356 42.3322 53.7422 39.7952C53.7599 39.7591 53.7691 39.7193 53.7691 39.6791C53.7691 39.6389 53.7599 39.5992 53.7422 39.563C53.8394 36.1646 53.5871 32.7652 52.9895 29.4183C51.9326 23.149 49.6267 17.1278 45.2549 12.4358C45.2183 12.4052 45.1753 12.3832 45.1291 12.3713C45.0829 12.3595 45.0346 12.3581 44.9878 12.3674C44.941 12.3766 44.8968 12.3961 44.8585 12.4246C44.8203 12.453 44.7888 12.4897 44.7665 12.5319C43.005 17.0157 43.6215 22.3723 45.1268 26.8481C45.9413 29.2725 47.1096 31.5632 48.5938 33.6459C50.1151 35.7437 52.0287 37.5293 53.2298 39.8272Z" fill="#EBEBEB"/>
<path d="M45.7913 14.5259C49.9389 21.2517 52.8213 29.2185 53.1736 37.1613C53.1736 37.3054 52.9414 37.3454 52.9174 37.2013C52.8213 36.4887 52.7172 35.7761 52.5971 35.0715C50.7989 33.4761 49.2186 31.6509 47.8971 29.6428C47.8971 29.6428 47.8971 29.5628 47.9612 29.6428C49.3852 31.3844 50.9091 33.0419 52.5251 34.6071C52.2262 32.8563 51.8712 31.1268 51.4602 29.4186C51.3481 29.2985 51.244 29.1624 51.1319 29.0343C51.0198 28.9062 51.1799 28.8261 51.252 28.9142L51.3561 29.0263C50.7735 26.6916 50.0489 24.3947 49.1862 22.1484C48.0351 20.9755 47.0247 19.6722 46.1756 18.2651C46.1756 18.2651 46.1756 18.193 46.2317 18.2651C46.8284 19.1435 47.4698 19.9906 48.1533 20.8033C48.4256 21.1235 48.7378 21.4278 49.0261 21.7401C48.0693 19.3033 46.9346 16.9403 45.6312 14.67C45.6121 14.6488 45.6022 14.6208 45.6037 14.5923C45.6052 14.5638 45.6179 14.537 45.6392 14.5179C45.6604 14.4988 45.6884 14.4889 45.7169 14.4904C45.7454 14.4919 45.7722 14.5047 45.7913 14.5259Z" fill="#A6A6A6"/>
<path d="M46.632 22.8209C47.9691 24.6224 49.4984 26.3439 50.7395 28.2015C50.7395 28.2575 50.7395 28.3136 50.6514 28.2735C49.0674 26.6459 47.688 24.8309 46.5439 22.8689C46.5039 22.8129 46.5919 22.7648 46.632 22.8209Z" fill="#A6A6A6"/>
<path d="M50.932 28.6174L50.9883 28.6817C50.9883 28.6817 50.9883 28.7782 50.924 28.738L50.8677 28.6737C50.8275 28.6737 50.8918 28.5852 50.932 28.6174Z" fill="#A6A6A6"/>
<path d="M38.6651 25.7516C39.1487 29.5083 40.6617 33.058 43.0368 36.0084C44.0105 37.1684 45.216 38.1121 46.5759 38.7788C48.1132 39.5394 49.7226 40.3802 51.3079 41.0367C52.0633 42.9594 52.6265 44.9522 52.9894 46.9858C53.0374 46.8097 53.0854 46.6335 53.1415 46.4573C52.1166 37.6979 46.4558 30.2114 39.2016 25.4073C39.1449 25.3718 39.0794 25.3532 39.0126 25.3535C38.9457 25.3539 38.8804 25.3732 38.8241 25.4093C38.7679 25.4454 38.7231 25.4968 38.6949 25.5574C38.6667 25.618 38.6564 25.6854 38.6651 25.7516Z" fill="#EBEBEB"/>
<path d="M41.3233 31.3643C41.4204 31.4256 41.514 31.4925 41.6035 31.5644C41.6035 31.5644 41.6035 31.6205 41.6035 31.6125C41.5031 31.5642 41.4067 31.508 41.3153 31.4443C41.3091 31.4393 41.3042 31.4328 41.3011 31.4255C41.298 31.4181 41.2968 31.4101 41.2976 31.4021C41.2984 31.3942 41.3012 31.3866 41.3056 31.3799C41.3101 31.3733 41.3162 31.3679 41.3233 31.3643Z" fill="#A6A6A6"/>
<path d="M62.0534 55.8649H47.1206L47.8572 46.0805L48.1375 42.8857H60.9004L61.1886 46.0805L62.0534 55.8649Z" fill="#DBDBDB"/>
<path d="M61.1883 46.0805H47.8569L48.1372 42.8857H60.9001L61.1883 46.0805Z" fill="#C7C7C7"/>
<path d="M61.9173 40.2676H47.1206V43.5424H61.9173V40.2676Z" fill="#DBDBDB"/>
<path d="M98.3242 55.8489V20.3145H89.3726V55.8489H98.3242Z" fill="#C7C7C7"/>
<path d="M98.332 22.3165V18.4092H89.3804V22.3165H98.332Z" fill="#DBDBDB"/>
<path d="M98.3242 28.7617V27.3125H89.3726V28.7617H98.3242Z" fill="#DBDBDB"/>
<path d="M98.3242 51.1808V47.2734H89.3726V51.1808H98.3242Z" fill="#DBDBDB"/>
<path d="M104.578 55.8489V14.3975H98.3243V55.8489H104.578Z" fill="#DBDBDB"/>
<path d="M103.305 34.2307V18.2891H99.5495V34.2307H103.305Z" fill="#EBEBEB"/>
<path d="M149.11 51.3591L119.631 22.2178L115.235 26.665L144.714 55.8063L149.11 51.3591Z" fill="#C7C7C7"/>
<path d="M141.332 45.3958L129.995 34.1885L127.355 36.8591L138.692 48.0664L141.332 45.3958Z" fill="#DBDBDB"/>
<path d="M115.203 55.8492V24.3662H104.586V55.8492H115.203Z" fill="#A6A6A6"/>
<path d="M115.195 52.5106V49.5801H104.578V52.5106H115.195Z" fill="#C7C7C7"/>
<path d="M115.203 47.6497V46.5127H104.586V47.6497H115.203Z" fill="#C7C7C7"/>
<path d="M78.2352 56.3132L89.7734 29.0947L83.0259 26.2344L71.4876 53.4529L78.2352 56.3132Z" fill="#A6A6A6"/>
<path d="M79.0025 52.9881L80.0889 50.457L73.3492 47.5642L72.2628 50.0953L79.0025 52.9881Z" fill="#C7C7C7"/>
<path d="M85.9468 36.8231L87.0332 34.292L80.2935 31.3992L79.2071 33.9302L85.9468 36.8231Z" fill="#C7C7C7"/>
<path d="M84.7824 39.5426L85.2056 38.5566L78.4659 35.6638L78.0427 36.6498L84.7824 39.5426Z" fill="#C7C7C7"/>
<path d="M311.931 228.518H233.632V325.296H311.931V228.518Z" fill="#EBEBEB"/>
<path d="M315.718 224.498H229.836V228.517H315.718V224.498Z" fill="#DBDBDB"/>
<path d="M342.733 224.498H315.726V228.517H342.733V224.498Z" fill="#EBEBEB"/>
<path d="M338.458 228.518H311.931V325.296H338.458V228.518Z" fill="#DBDBDB"/>
<path d="M303.5 273.452H242.063V238.718H303.5V273.452ZM242.263 273.251H303.299V238.918H242.263V273.251Z" fill="#C7C7C7"/>
<path d="M276.173 248.87H264.21V255.748H276.173V248.87Z" fill="#C7C7C7"/>
<path d="M279.823 255.324H267.645V249.287H279.823V255.324ZM267.813 255.124H279.575V249.519H267.813V255.124Z" fill="#C7C7C7"/>
<path d="M303.5 317.073H242.063V282.339H303.5V317.073ZM242.263 316.872H303.299V282.539H242.263V316.872Z" fill="#C7C7C7"/>
<path d="M276.173 292.492H264.21V299.37H276.173V292.492Z" fill="#C7C7C7"/>
<path d="M279.823 298.946H267.645V292.9H279.823V298.946ZM267.813 298.745H279.575V293.141H267.813V298.745Z" fill="#C7C7C7"/>
<path d="M343.126 325.295L300.241 325.487L257.348 325.559L171.563 325.695L85.7774 325.559L42.8927 325.487L0 325.295L42.8927 325.095L85.7774 325.031L171.563 324.895L257.348 325.031L300.241 325.095L343.126 325.295Z" fill="#263238"/>
<path d="M322.973 325.295H327.561L295.429 155.502H284.003L322.973 325.295Z" fill="#455A64"/>
<path d="M284.003 155.502L289.768 180.611H300.177L295.437 155.526L295.429 155.502H284.003Z" fill="#37474F"/>
<path d="M276.1 325.295H280.688L279.663 155.502H268.246L276.1 325.295Z" fill="#455A64"/>
<path d="M268.246 155.502L269.407 180.611H279.815L279.663 155.526V155.502H268.246Z" fill="#37474F"/>
<path d="M233.816 325.295H229.236L254.53 155.502H265.956L233.816 325.295Z" fill="#455A64"/>
<path d="M250.791 180.611H261.199L265.956 155.502H254.53L254.522 155.526L250.791 180.611Z" fill="#37474F"/>
<path d="M243.224 255.867H309.897V252.552H243.224V255.867Z" fill="#455A64"/>
<path d="M342.76 92.6174C345.101 45.2442 319.724 5.49229 286.078 3.82906C252.432 2.16583 223.258 39.2211 220.916 86.5943C218.574 133.968 243.951 173.719 277.598 175.383C311.244 177.046 340.418 139.991 342.76 92.6174Z" fill="#4AADEE"/>
<path d="M272.77 2.97949L287.086 3.86825L276.181 175.303L261.856 174.414L272.77 2.97949Z" fill="#4AADEE"/>
<g opacity="0.1">
<path d="M272.77 2.97949L287.086 3.86825L276.181 175.303L261.856 174.414L272.77 2.97949Z" fill="black"/>
</g>
<path d="M329.58 91.8001C331.922 44.4268 306.545 4.67496 272.898 3.01172C239.252 1.34849 210.078 38.4037 207.736 85.777C205.394 133.15 230.772 172.902 264.418 174.565C298.064 176.228 327.238 139.173 329.58 91.8001Z" fill="#4AADEE"/>
<path d="M316.185 91.1377C318.012 54.1835 298.214 23.1742 271.966 21.8767C245.717 20.5792 222.958 49.4847 221.131 86.439C219.305 123.393 239.102 154.402 265.35 155.7C291.599 156.998 314.358 128.092 316.185 91.1377Z" fill="white"/>
<path d="M302.918 90.4815C304.235 63.8357 289.964 41.4768 271.043 40.5415C252.122 39.6062 235.716 60.4486 234.399 87.0944C233.081 113.74 247.352 136.099 266.273 137.034C285.194 137.97 301.601 117.127 302.918 90.4815Z" fill="#4AADEE"/>
<path d="M289.514 89.8196C290.316 73.5971 281.629 59.9846 270.11 59.4152C258.591 58.8458 248.604 71.5351 247.802 87.7576C247 103.98 255.687 117.592 267.206 118.162C278.725 118.731 288.713 106.042 289.514 89.8196Z" fill="white"/>
<path d="M277.918 87.1233C278.414 94.3295 274.667 100.855 269.543 101.792C264.418 102.729 259.878 97.6924 259.39 90.5263C258.902 83.3601 262.641 76.7945 267.757 75.8497C272.874 74.9049 277.421 79.9172 277.918 87.1233Z" fill="#4AADEE"/>
<path opacity="0.4" d="M329.58 91.8001C331.922 44.4268 306.545 4.67496 272.898 3.01172C239.252 1.34849 210.078 38.4037 207.736 85.777C205.394 133.15 230.772 172.902 264.418 174.565C298.064 176.228 327.238 139.173 329.58 91.8001Z" fill="white"/>
<path d="M211.156 277.687C211.433 270.691 211.337 263.686 210.868 256.701C209.837 242.294 207.638 227.995 204.295 213.944C202.461 206.033 200.203 198.251 197.849 190.484C197.777 190.244 197.409 190.316 197.473 190.556C204.743 217.948 210.716 246.22 210.284 274.692C210.172 282.699 209.251 290.49 208.49 298.408C208.49 298.625 208.818 298.705 208.867 298.489C210.388 291.747 210.876 284.645 211.156 277.687Z" fill="#4AADEE"/>
<path d="M197.473 190.588C197.473 190.588 186.447 218.564 188.913 225.137C191.379 231.711 196.472 233.144 196.472 233.144C196.472 233.144 189.73 242.753 194.438 251.8C199.146 260.848 209.651 260.408 210.316 270.64C210.316 270.608 210.9 227.804 197.473 190.588Z" fill="#4AADEE"/>
<path d="M209.123 252.938C209.138 252.888 209.138 252.835 209.123 252.786C207.673 233.688 204.088 214.813 198.434 196.514C198.434 196.465 198.329 196.514 198.345 196.514C200.523 204.697 202.453 212.922 204.134 221.191C202.654 219.789 200.845 218.781 198.874 218.26C198.834 218.26 198.818 218.3 198.874 218.316C200.946 219.076 202.807 220.319 204.303 221.943C204.631 223.545 204.943 225.146 205.239 226.811C202.781 224.057 199.362 222.696 195.943 221.399C195.895 221.399 195.871 221.455 195.943 221.471C199.506 222.92 203.046 224.786 205.464 227.876C206.302 232.52 207.038 237.178 207.673 241.848C205.892 239.985 203.609 238.678 201.1 238.085C201.028 238.085 200.98 238.181 201.06 238.205C203.648 238.95 205.963 240.433 207.722 242.473H207.77C207.986 244.114 208.194 245.764 208.386 247.405C207.008 246.241 205.454 245.304 203.782 244.627C203.742 244.627 203.718 244.683 203.782 244.699C205.488 245.438 207.049 246.474 208.394 247.757C208.415 247.765 208.437 247.765 208.458 247.757C208.634 249.359 208.818 250.896 208.979 252.465C206.497 249.466 203.276 247.165 199.635 245.788C199.62 245.782 199.603 245.783 199.589 245.79C199.575 245.797 199.564 245.809 199.559 245.824C199.553 245.839 199.554 245.855 199.561 245.869C199.568 245.884 199.58 245.895 199.595 245.9C203.19 247.488 206.349 249.922 208.802 252.994C208.829 253.028 208.866 253.053 208.907 253.066C208.949 253.079 208.993 253.079 209.035 253.066C209.275 255.468 209.491 257.87 209.667 260.272C209.667 260.272 209.723 260.312 209.723 260.272C209.491 257.878 209.363 255.404 209.123 252.938Z" fill="#263238"/>
<path d="M200.267 215.505C198.272 214.265 195.993 213.554 193.645 213.439C193.635 213.439 193.625 213.444 193.617 213.451C193.61 213.459 193.605 213.469 193.605 213.479C193.605 213.49 193.61 213.5 193.617 213.508C193.625 213.515 193.635 213.52 193.645 213.52C195.912 213.945 198.114 214.664 200.195 215.657C200.275 215.697 200.347 215.561 200.267 215.505Z" fill="#263238"/>
<path d="M201.604 245.122C200.07 244.243 198.383 243.664 196.632 243.417C196.568 243.417 196.568 243.505 196.632 243.513C198.343 243.855 199.998 244.434 201.548 245.235C201.612 245.267 201.668 245.154 201.604 245.122Z" fill="#263238"/>
<path d="M240.125 225.594C235.467 228.816 231.188 232.555 227.37 236.739C223.437 241.172 220.4 246.324 218.427 251.912C214.24 263.563 211.989 275.821 211.765 288.199C211.619 295.053 212.278 301.9 213.727 308.601C213.736 308.652 213.765 308.697 213.808 308.726C213.851 308.755 213.904 308.766 213.955 308.757C214.006 308.747 214.051 308.718 214.08 308.675C214.109 308.632 214.12 308.58 214.111 308.529C212.308 296.704 212.375 284.67 214.311 272.866C216.201 261.288 219.179 248.701 226.529 239.293C230.533 234.177 235.529 230.149 240.469 225.986C240.726 225.762 240.397 225.401 240.125 225.594Z" fill="#4AADEE"/>
<path d="M213.366 279.864C216.021 275.573 219.141 271.588 222.67 267.982C228.179 262.465 232.823 258.55 233.543 254.907C234.264 251.264 228.019 248.573 228.019 248.573C228.019 248.573 235.649 249.943 237.731 246.74C239.813 243.537 240.83 224.993 240.83 224.993C240.83 224.993 226.978 234.906 220.5 248.798C214.023 262.689 213.366 279.864 213.366 279.864Z" fill="#4AADEE"/>
<path d="M235.89 242.393C234.975 242.261 234.049 242.228 233.127 242.296C233.106 242.303 233.086 242.316 233.073 242.334C233.059 242.352 233.052 242.374 233.052 242.397C233.052 242.419 233.059 242.441 233.073 242.459C233.086 242.477 233.106 242.49 233.127 242.497C234.04 242.497 234.961 242.449 235.874 242.497C235.885 242.494 235.895 242.489 235.903 242.48C235.911 242.472 235.916 242.462 235.918 242.45C235.92 242.439 235.918 242.427 235.913 242.417C235.908 242.407 235.9 242.398 235.89 242.393Z" fill="#263238"/>
<path d="M225.897 260.384C224.433 260.419 222.986 260.709 221.622 261.241C221.622 261.241 221.622 261.313 221.622 261.305C223.039 260.968 224.464 260.832 225.897 260.592C225.925 260.592 225.951 260.581 225.971 260.561C225.99 260.542 226.001 260.515 226.001 260.488C226.001 260.46 225.99 260.434 225.971 260.414C225.951 260.395 225.925 260.384 225.897 260.384Z" fill="#263238"/>
<path d="M222.903 254.17C222.293 254.164 221.684 254.217 221.085 254.331C221.029 254.331 221.029 254.443 221.085 254.443C221.692 254.474 222.301 254.444 222.903 254.355C223.015 254.339 223.015 254.17 222.903 254.17Z" fill="#263238"/>
<path d="M172.7 245.274C177.216 246.804 181.544 248.843 185.599 251.352C189.808 254.026 193.458 257.494 196.344 261.56C202.439 270.019 207.107 279.417 210.164 289.384C211.86 294.9 212.911 300.593 213.295 306.351C213.286 306.388 213.266 306.422 213.236 306.445C213.206 306.469 213.169 306.482 213.131 306.482C213.092 306.482 213.055 306.469 213.025 306.445C212.996 306.422 212.975 306.388 212.966 306.351C211.687 296.362 208.85 286.636 204.559 277.526C200.348 268.598 195.039 259.11 186.944 253.185C182.516 249.983 177.544 247.861 172.588 245.635C172.252 245.547 172.436 245.186 172.7 245.274Z" fill="#4AADEE"/>
<path d="M206.889 283.011C203.75 280.153 200.305 277.65 196.616 275.548C190.875 272.346 186.207 270.264 184.79 267.478C183.373 264.691 187.801 261.072 187.801 261.072C187.801 261.072 181.94 263.939 179.513 261.833C177.087 259.727 171.979 244.946 171.979 244.946C171.979 244.946 185.503 249.75 193.95 259.511C202.397 269.271 206.889 283.011 206.889 283.011Z" fill="#4AADEE"/>
<path d="M183.861 253.962C183.256 253.921 182.648 253.956 182.052 254.066C182.037 254.066 182.023 254.072 182.012 254.083C182.002 254.093 181.996 254.108 181.996 254.122C181.996 254.137 182.002 254.152 182.012 254.162C182.023 254.173 182.037 254.178 182.052 254.178C182.644 254.114 183.229 254.138 183.829 254.122C183.85 254.127 183.872 254.122 183.89 254.11C183.908 254.098 183.921 254.08 183.925 254.058C183.93 254.037 183.925 254.015 183.913 253.997C183.901 253.979 183.882 253.967 183.861 253.962Z" fill="#263238"/>
<path d="M224.328 324.991H193.806L198.153 293.107L199.266 284.94H218.859L219.972 293.107L224.328 324.991Z" fill="#455A64"/>
<path d="M219.972 293.107H198.153L199.266 284.94H218.859L219.972 293.107Z" fill="#263238"/>
<path d="M221.661 282.099H196.464V289.025H221.661V282.099Z" fill="#455A64"/>
<path d="M222.134 71.8877L9.77393 84.3555L12.0213 122.634L224.382 110.167L222.134 71.8877Z" fill="#4AADEE"/>
<path d="M221.517 61.4209L224.992 120.624L268.013 88.396L221.517 61.4209Z" fill="#4AADEE"/>
<g opacity="0.5">
<path d="M268.013 88.396L224.992 120.616L224.376 110.167L12.018 122.633L9.76807 84.3525L222.126 71.8859L221.509 61.4209L268.013 88.396Z" fill="white"/>
<path d="M10.1364 124.755L7.6543 82.4791L220.004 70.0124L219.299 57.834L271.64 88.188L223.207 124.459L222.494 112.289L10.1364 124.755ZM11.8819 86.2423L13.8996 120.528L226.257 108.045L226.77 116.78L264.402 88.6043L223.727 65.0241L224.24 73.7676L11.8819 86.2423Z" fill="#4AADEE"/>
</g>
<path d="M117.949 284.46C117.949 284.46 117.148 316.175 117.148 316.199C117.148 322.06 117.292 327.201 117.604 329.811V329.859C117.615 330.487 117.765 331.105 118.045 331.668C119.798 332.845 166.654 334.07 168.304 333.558C169.953 333.046 168.632 328.306 166.854 326.808C165.077 325.311 147.358 316.92 147.358 316.92L147.87 285.221L117.949 284.46Z" fill="#EB9481"/>
<path d="M117.092 309.905C117.092 309.905 117.148 316.175 117.14 316.199C117.14 322.06 117.284 327.2 117.597 329.81V329.858C117.676 330.476 117.824 331.083 118.037 331.668C119.791 332.845 166.647 334.07 168.296 333.558C169.946 333.045 168.624 328.305 166.847 326.808C165.069 325.31 147.358 316.919 147.358 316.919V310.514L117.092 309.905Z" fill="white"/>
<path d="M150.225 316.919C147.11 316.406 143.315 316.967 140.985 319.233C140.897 319.321 141.025 319.441 141.121 319.409C144.072 318.387 147.124 317.684 150.225 317.311C150.27 317.302 150.311 317.277 150.34 317.242C150.369 317.206 150.385 317.161 150.385 317.115C150.385 317.069 150.369 317.024 150.34 316.988C150.311 316.953 150.27 316.928 150.225 316.919Z" fill="#263238"/>
<path d="M152.515 318.217C149.392 317.704 145.605 318.265 143.275 320.523C143.187 320.611 143.315 320.739 143.411 320.707C146.362 319.685 149.414 318.982 152.515 318.609C152.56 318.6 152.6 318.575 152.63 318.54C152.659 318.504 152.675 318.459 152.675 318.413C152.675 318.367 152.659 318.322 152.63 318.286C152.6 318.251 152.56 318.226 152.515 318.217Z" fill="#263238"/>
<path d="M154.773 319.522C151.65 319.009 147.863 319.562 145.533 321.827C145.445 321.916 145.533 322.044 145.669 322.012C148.617 320.989 151.667 320.286 154.765 319.914C154.81 319.906 154.852 319.882 154.882 319.847C154.912 319.812 154.928 319.767 154.929 319.721C154.93 319.675 154.915 319.63 154.887 319.593C154.858 319.557 154.818 319.532 154.773 319.522Z" fill="#263238"/>
<path d="M168.328 333.63C166.678 334.134 119.822 332.917 118.069 331.74C117.396 331.308 117.172 324.47 117.148 316.199V315.935L147.382 316.383V316.895C147.382 316.895 165.109 325.383 166.903 326.888C168.696 328.393 169.977 333.125 168.328 333.63Z" fill="#37474F"/>
<path d="M117.14 315.935V316.199C117.18 324.47 117.396 331.308 118.069 331.74C118.87 332.277 129.022 332.821 139.992 333.213C153.131 333.678 167.431 333.91 168.328 333.63C169.977 333.125 168.648 328.377 166.879 326.88C165.109 325.383 147.358 316.919 147.358 316.919V316.415L137.301 316.239L117.14 315.935Z" fill="#4AADEE"/>
<path d="M167.84 331.796C159.953 331.395 128.077 330.531 120.247 330.739C120.183 330.739 120.183 330.787 120.247 330.787C128.061 331.355 159.937 331.964 167.84 331.924C168.008 331.924 168.008 331.804 167.84 331.796Z" fill="#263238"/>
<path opacity="0.1" d="M137.302 316.239C138.038 321.3 139.167 328.762 139.992 333.214C153.131 333.678 167.432 333.91 168.328 333.63C169.978 333.126 168.649 328.378 166.879 326.88C165.11 325.383 147.358 316.92 147.358 316.92V316.415L137.302 316.239Z" fill="black"/>
<path d="M114.418 316.367L148.327 316.695C148.327 316.695 150.249 261.448 150.393 243.08C150.561 222.046 149.368 159.008 149.368 159.008H124.018C124.018 159.008 117.22 172.916 121.104 188.553L122.177 244.833L114.418 316.367Z" fill="#263238"/>
<path d="M116.932 310.434C117.827 310.313 118.728 310.241 119.631 310.218C120.631 310.145 121.632 310.073 122.633 310.033C124.563 309.945 126.492 309.913 128.422 309.905C132.321 309.905 136.213 309.905 140.104 310.041C142.322 310.113 144.532 310.202 146.742 310.33C146.83 310.33 146.822 310.466 146.742 310.466C142.882 310.61 139.015 310.666 135.156 310.746C131.297 310.826 127.437 310.89 123.586 310.818C122.473 310.818 121.368 310.818 120.263 310.722C119.158 310.626 118.029 310.722 116.948 310.562C116.884 310.554 116.852 310.45 116.932 310.434Z" fill="#37474F"/>
<path d="M145.885 279.96C146.277 270.832 146.574 261.696 146.822 252.568C147.318 234.297 147.449 216.023 147.214 197.746C147.086 187.497 146.814 177.248 146.51 166.999C146.51 166.879 146.678 166.887 146.686 166.999C147.655 185.343 148.031 203.727 148.047 222.094C148.063 240.462 147.711 258.654 146.782 276.885C146.277 287.126 145.653 297.383 144.692 307.592C144.692 307.68 144.548 307.68 144.548 307.592C144.964 298.392 145.485 289.184 145.885 279.96Z" fill="#37474F"/>
<path d="M154.22 289.496C154.22 289.496 154.476 320.154 154.476 320.178C154.476 326.039 154.612 331.18 154.924 333.83C154.919 333.843 154.919 333.857 154.924 333.87C154.925 334.5 155.076 335.12 155.365 335.68C155.361 335.693 155.361 335.707 155.365 335.72C157.11 336.897 203.966 338.122 205.616 337.601C207.265 337.081 205.952 332.357 204.166 330.86C202.381 329.362 184.646 320.875 184.646 320.875L184.101 290.233L154.22 289.496Z" fill="#EB9481"/>
<path d="M154.42 313.877C154.42 313.877 154.476 320.154 154.476 320.178C154.476 326.039 154.613 331.18 154.925 333.83C154.92 333.843 154.92 333.857 154.925 333.87C154.999 334.489 155.147 335.096 155.365 335.68C155.362 335.693 155.362 335.707 155.365 335.72C157.111 336.897 203.967 338.122 205.616 337.601C207.266 337.081 205.953 332.357 204.167 330.859C202.381 329.362 184.646 320.875 184.646 320.875L184.686 314.469L154.42 313.877Z" fill="white"/>
<path d="M187.56 320.923C184.438 320.41 180.651 320.963 178.321 323.229C178.232 323.317 178.321 323.445 178.457 323.413C181.405 322.39 184.454 321.687 187.552 321.315C187.598 321.307 187.639 321.283 187.669 321.248C187.699 321.213 187.716 321.169 187.717 321.122C187.718 321.076 187.703 321.031 187.674 320.995C187.646 320.958 187.606 320.933 187.56 320.923Z" fill="#263238"/>
<path d="M189.834 322.196C186.712 321.684 182.924 322.236 180.594 324.502C180.506 324.59 180.594 324.718 180.731 324.686C183.679 323.664 186.728 322.96 189.826 322.589C189.872 322.58 189.913 322.557 189.943 322.522C189.973 322.486 189.99 322.442 189.991 322.396C189.992 322.35 189.977 322.304 189.948 322.268C189.92 322.232 189.879 322.206 189.834 322.196Z" fill="#263238"/>
<path d="M192.108 323.501C188.986 322.988 185.19 323.501 182.868 325.807C182.772 325.895 182.868 326.023 183.005 325.991C185.953 324.968 189.002 324.265 192.1 323.893C192.146 323.885 192.187 323.861 192.217 323.826C192.247 323.791 192.264 323.747 192.265 323.7C192.266 323.654 192.251 323.609 192.222 323.573C192.194 323.536 192.153 323.511 192.108 323.501Z" fill="#263238"/>
<path d="M205.656 337.601C204.006 338.114 157.158 336.897 155.405 335.72C154.732 335.279 154.508 328.441 154.476 320.178C154.476 320.09 154.476 320.002 154.476 319.914L184.71 320.362V320.875C184.71 320.875 202.429 329.362 204.223 330.859C206.016 332.357 207.313 337.105 205.656 337.601Z" fill="#4AADEE"/>
<path d="M205.176 335.775C197.281 335.375 165.414 334.51 157.575 334.718C157.519 334.718 157.511 334.718 157.575 334.766C165.39 335.335 197.273 335.935 205.176 335.903C205.36 335.903 205.36 335.783 205.176 335.775Z" fill="#263238"/>
<path d="M138.726 191.42C138.726 191.42 152.634 235.265 152.891 243.32C153.099 250.19 152.226 320.682 152.226 320.682L187.456 320.89C187.456 320.89 184.486 249.005 183.933 241.847C182.908 228.459 171.178 191.708 162.795 158.968H124.811C124.811 158.968 125.139 176.118 132.938 188.513C132.938 188.513 136.501 190.146 138.726 191.42Z" fill="#263238"/>
<path d="M154.116 314.188C158.184 314.068 162.403 313.948 166.471 314.052C170.538 314.156 174.558 314.213 178.585 314.453C180.867 314.589 183.149 314.669 185.431 314.893C185.503 314.893 185.503 315.013 185.431 315.013C181.363 315.253 177.28 315.205 173.212 315.165C169.145 315.125 165.134 315.085 161.098 314.901C158.808 314.797 156.534 314.685 154.252 314.525C153.98 314.517 153.852 314.197 154.116 314.188Z" fill="#37474F"/>
<path d="M158.608 166.326C159.865 170.514 175.422 227.979 177.024 236.322C178.625 244.665 180.795 299.448 180.643 308.231C180.643 309.32 180.603 310.409 180.563 311.498C180.563 311.519 180.554 311.54 180.539 311.555C180.524 311.57 180.504 311.578 180.483 311.578C180.461 311.578 180.441 311.57 180.426 311.555C180.411 311.54 180.402 311.519 180.402 311.498C180.162 302.771 177.832 245.282 176.335 236.722C174.934 228.315 159.432 171.194 158.352 166.39C158.352 166.36 158.362 166.33 158.38 166.306C158.399 166.282 158.425 166.265 158.455 166.258C158.484 166.251 158.515 166.253 158.543 166.266C158.571 166.278 158.594 166.299 158.608 166.326Z" fill="#37474F"/>
<path d="M147.438 192.269C145.685 192.256 143.937 192.098 142.21 191.796C140.497 191.424 138.805 190.961 137.141 190.411C135.502 190.04 133.842 189.772 132.169 189.61C130.485 189.365 128.845 188.877 127.301 188.161C127.229 188.161 127.173 188.233 127.245 188.265C128.74 189.072 130.302 189.75 131.913 190.291C133.578 190.819 135.324 190.891 137.021 191.308C138.732 191.817 140.473 192.218 142.234 192.509C143.97 192.721 145.727 192.689 147.454 192.413C147.526 192.373 147.502 192.269 147.438 192.269Z" fill="#37474F"/>
<path d="M149.656 227.147C149.32 225.841 149.008 224.544 148.655 223.247C147.943 220.629 147.222 218.011 146.429 215.417C144.828 210.26 143.371 205.072 141.713 199.947C140.768 197.033 139.92 194.094 138.815 191.236C138.809 191.221 138.798 191.209 138.784 191.202C138.77 191.195 138.754 191.194 138.739 191.2C138.724 191.205 138.712 191.216 138.705 191.23C138.698 191.245 138.697 191.261 138.703 191.276C139.263 193.934 140.048 196.536 140.752 199.155C141.457 201.773 142.21 204.383 142.97 206.993C144.468 212.166 145.941 217.354 147.582 222.495C148.036 223.936 148.511 225.372 149.008 226.802C149.512 228.259 149.912 229.765 150.521 231.182C150.561 231.262 150.665 231.23 150.649 231.182C150.417 229.797 150 228.476 149.656 227.147Z" fill="#37474F"/>
<path d="M153.82 116.499C151.274 116.836 146.886 112.232 145.517 108.973C145.764 107.254 146.098 105.549 146.517 103.864C146.846 102.263 147.166 100.397 147.318 98.708L157.655 102.375C156.834 104.434 156.266 106.585 155.966 108.781C155.95 109.013 155.95 109.245 155.966 109.477C155.966 109.477 155.966 109.549 155.966 109.597C156.078 110.918 156.286 116.179 153.82 116.499Z" fill="#EB9481"/>
<path d="M145.621 108.132C151.049 109.958 154.981 106.899 156.774 105.025C157.215 103.504 157.679 102.375 157.679 102.375L147.342 98.708C147.166 100.397 146.846 102.231 146.541 103.864C146.157 105.658 145.789 107.219 145.621 108.132Z" fill="#263238"/>
<path d="M160.882 86.2497C162.171 89.9809 160.577 100.966 157.975 103.496C154.212 107.172 147.846 107.74 144.676 103.168C141.609 98.7324 143.939 84.4562 146.862 82.1342C151.161 78.7153 158.976 80.717 160.882 86.2497Z" fill="#EB9481"/>
<path d="M150.065 93.2402C150.065 93.2402 150.121 93.2803 150.113 93.3123C149.993 94.0489 149.985 94.9137 150.625 95.25C149.808 95.0738 149.832 93.9208 150.065 93.2402Z" fill="#263238"/>
<path d="M150.825 92.5508C152.034 92.6068 151.818 95.0169 150.705 94.9528C149.592 94.8888 149.816 92.4947 150.825 92.5508Z" fill="#263238"/>
<path d="M145.885 92.8633C145.885 92.8633 145.821 92.8633 145.821 92.9193C145.821 93.672 145.605 94.5207 144.908 94.7049V94.7529C145.741 94.7049 145.965 93.5759 145.885 92.8633Z" fill="#263238"/>
<path d="M145.308 92.0227C144.115 91.8305 143.819 94.2246 144.916 94.4247C146.013 94.6249 146.285 92.1908 145.308 92.0227Z" fill="#263238"/>
<path d="M151.874 91.5341C151.554 91.422 151.274 91.2619 150.969 91.1258C150.665 90.9897 150.329 90.8696 150.169 90.5253C150.121 90.423 150.109 90.3079 150.133 90.1979C150.158 90.0879 150.218 89.9891 150.305 89.9168C150.499 89.8043 150.72 89.7451 150.945 89.7451C151.17 89.7451 151.391 89.8043 151.586 89.9168C152.017 90.0813 152.371 90.4012 152.579 90.8135C152.622 90.9127 152.634 91.0225 152.614 91.1287C152.595 91.235 152.544 91.3331 152.468 91.4103C152.393 91.4876 152.296 91.5407 152.19 91.5627C152.084 91.5848 151.974 91.5748 151.874 91.5341Z" fill="#263238"/>
<path d="M144.46 90.7334C144.796 90.7334 145.108 90.6293 145.436 90.5732C145.789 90.5584 146.128 90.4323 146.405 90.2129C146.473 90.1228 146.509 90.0133 146.509 89.9007C146.509 89.7881 146.473 89.6785 146.405 89.5884C146.249 89.4265 146.052 89.3093 145.836 89.2488C145.619 89.1882 145.39 89.1866 145.172 89.2441C144.71 89.2911 144.282 89.508 143.971 89.8526C143.904 89.9369 143.863 90.0393 143.854 90.1469C143.845 90.2544 143.868 90.3622 143.92 90.4566C143.973 90.551 144.052 90.6277 144.148 90.677C144.244 90.7263 144.352 90.7459 144.46 90.7334Z" fill="#263238"/>
<path d="M150.265 100.077C150.072 100.237 149.872 100.462 149.6 100.462C149.318 100.436 149.044 100.349 148.799 100.205C148.892 100.362 149.027 100.491 149.188 100.577C149.349 100.663 149.53 100.703 149.712 100.694C149.867 100.666 150.01 100.594 150.124 100.486C150.238 100.378 150.317 100.238 150.353 100.085C150.353 100.085 150.289 100.053 150.265 100.077Z" fill="#263238"/>
<path d="M149.672 97.7792C149.459 98.0575 149.19 98.2882 148.883 98.4564C148.575 98.6246 148.236 98.7267 147.887 98.7561C147.581 98.8004 147.271 98.8004 146.966 98.7561L146.798 98.716L146.63 98.676C146.592 98.6641 146.56 98.6406 146.537 98.6089C146.514 98.5772 146.501 98.539 146.501 98.4998C146.498 98.476 146.498 98.4516 146.501 98.4278V98.3317C146.541 97.7552 146.67 96.8905 146.67 96.8905C146.453 96.9785 145.34 97.3629 145.38 97.0666C145.678 94.4874 146.233 91.9445 147.038 89.4761C147.043 89.462 147.052 89.4497 147.064 89.4411C147.076 89.4324 147.091 89.4277 147.106 89.4277C147.121 89.4277 147.135 89.4324 147.148 89.4411C147.16 89.4497 147.169 89.462 147.174 89.4761C146.918 91.8782 146.245 94.1841 145.949 96.5782C146.342 96.4312 146.755 96.3422 147.174 96.314C147.254 96.314 146.894 97.9874 146.894 98.2436C147.36 98.3315 147.839 98.3251 148.302 98.2247C148.766 98.1243 149.204 97.932 149.592 97.6591C149.672 97.6671 149.72 97.7232 149.672 97.7792Z" fill="#263238"/>
<path d="M147.334 98.4605C147.613 98.8968 147.999 99.2549 148.455 99.5014C148.703 99.6227 148.983 99.6646 149.256 99.6215C149.864 99.5174 149.928 98.9729 149.856 98.5005C149.817 98.2458 149.749 97.9961 149.656 97.7559C148.975 98.2287 148.163 98.4752 147.334 98.4605Z" fill="#263238"/>
<path d="M148.455 99.5004C148.703 99.6217 148.983 99.6636 149.256 99.6205C149.864 99.5164 149.928 98.9719 149.856 98.4995C149.544 98.4852 149.237 98.5761 148.983 98.7575C148.728 98.939 148.543 99.2007 148.455 99.5004Z" fill="#FF98B9"/>
<path d="M158.015 93.5276C157.415 91.2457 158.952 87.6025 157.903 86.5296C155.645 84.1996 150.425 88.0109 147.038 87.8027C143.651 87.5945 142.802 85.4007 143.579 82.7824C144.356 80.1642 146.742 78.5308 150.465 78.2345C153.705 78.0847 156.896 79.0765 159.481 81.0369C159.481 81.0369 158.744 79.6517 159.088 79.2594C159.433 78.8671 160.946 80.2602 161.394 80.8608C161.721 81.3482 161.957 81.8907 162.091 82.4621C162.588 82.3736 163.095 82.3574 163.596 82.4141C164.323 82.5176 164.992 82.8715 165.486 83.4149C165.534 83.6231 164.325 83.6872 163.484 83.6712C163.484 83.6712 164.901 85.857 164.749 87.6266C164.597 89.3961 161.25 97.6351 160.586 97.6832C159.721 97.7152 158.264 94.4244 158.015 93.5276Z" fill="#263238"/>
<path d="M163.18 83.415C163.18 83.415 163.108 83.415 163.132 83.415C163.901 84.1262 164.456 85.0388 164.733 86.0493C164.99 87.2663 164.916 88.5302 164.517 89.7084C163.714 91.9473 162.675 94.0945 161.418 96.1139C161.415 96.1207 161.412 96.1282 161.411 96.136C161.411 96.1437 161.411 96.1515 161.414 96.1589C161.416 96.1664 161.42 96.1733 161.424 96.1793C161.429 96.1853 161.435 96.1903 161.442 96.194C161.449 96.1977 161.457 96.2 161.464 96.2007C161.472 96.2015 161.48 96.2008 161.487 96.1986C161.495 96.1963 161.502 96.1926 161.508 96.1877C161.514 96.1828 161.519 96.1768 161.522 96.17C162.992 94.0585 164.121 91.7296 164.869 89.268C165.398 87.2183 165.077 84.7202 163.18 83.415Z" fill="#263238"/>
<path d="M158.119 85.6411C157.13 85.4569 156.114 85.4569 155.125 85.6411C154.205 85.8948 153.321 86.2605 152.49 86.73C150.589 87.72 148.446 88.153 146.309 87.9791V88.0191C148.255 88.3245 150.247 88.0458 152.034 87.2184C152.92 86.7556 153.835 86.3491 154.772 86.0014C155.864 85.772 156.986 85.7179 158.095 85.8412C158.108 85.8428 158.122 85.8418 158.134 85.8382C158.147 85.8347 158.159 85.8286 158.169 85.8204C158.18 85.8123 158.189 85.8021 158.195 85.7906C158.202 85.779 158.206 85.7663 158.207 85.7532C158.209 85.74 158.208 85.7267 158.204 85.714C158.201 85.7012 158.195 85.6893 158.186 85.6789C158.178 85.6685 158.168 85.6598 158.157 85.6533C158.145 85.6468 158.132 85.6427 158.119 85.6411Z" fill="#263238"/>
<path d="M157.527 79.9168C156.244 79.1597 154.858 78.5933 153.412 78.2354C152.036 77.8416 150.603 77.6926 149.176 77.795C146.718 78.0192 144.372 79.3964 143.635 81.8785C143.234 83.136 143.316 84.4982 143.867 85.6978C143.877 85.7105 143.891 85.7196 143.907 85.7236C143.922 85.7276 143.939 85.7262 143.953 85.7198C143.968 85.7133 143.98 85.7022 143.988 85.688C143.995 85.6739 143.998 85.6576 143.995 85.6417C143.552 84.5418 143.477 83.3278 143.781 82.1816C144.086 81.0354 144.754 80.0189 145.685 79.2843C147.799 77.6829 150.601 77.747 153.067 78.3155C154.603 78.6933 156.095 79.23 157.519 79.9168C157.519 79.9168 157.535 79.9168 157.527 79.9168Z" fill="#263238"/>
<path d="M158.744 95.225C158.744 95.225 161.146 91.6539 162.747 92.5107C164.348 93.3674 162.595 98.5078 160.721 99.2444C160.488 99.3543 160.235 99.416 159.978 99.4258C159.72 99.4355 159.463 99.3931 159.222 99.3011C158.982 99.2092 158.762 99.0695 158.576 98.8905C158.391 98.7115 158.244 98.4969 158.143 98.2596L158.744 95.225Z" fill="#EB9481"/>
<path d="M118.157 167.68C118.261 167.816 166.999 172.227 167.495 171.763C168.176 171.115 165.27 122.345 156.566 112.384C154.428 109.926 146.862 106.98 144.372 108.509C137.91 112.512 133.923 121.488 131.368 126.717C129.471 130.592 127.037 137.262 124.779 144.115C121.056 155.413 117.797 167.191 118.157 167.68Z" fill="#4AADEE"/>
<path d="M147.558 122.849C147.689 123.68 147.937 124.489 148.295 125.251C148.639 126.018 149.086 126.734 149.624 127.381C149.497 126.549 149.249 125.739 148.887 124.979C148.543 124.212 148.096 123.495 147.558 122.849ZM155.757 154.788C155.89 155.62 156.141 156.429 156.502 157.19C156.838 157.964 157.286 158.684 157.831 159.328C157.55 157.661 156.835 156.098 155.757 154.796V154.788ZM135.516 153.259C135.648 154.091 135.899 154.9 136.26 155.661C136.595 156.435 137.046 157.153 137.598 157.791C137.466 156.958 137.212 156.148 136.845 155.389C136.505 154.619 136.058 153.902 135.516 153.259ZM121.648 163.332C123.311 163.042 124.87 162.325 126.172 161.25C124.507 161.534 122.947 162.252 121.648 163.332ZM154.66 138.062C155.492 137.931 156.3 137.683 157.062 137.325C157.833 136.985 158.55 136.534 159.192 135.988C158.36 136.121 157.551 136.372 156.79 136.733C156.019 137.069 155.301 137.517 154.66 138.062ZM141.577 113.361C142.408 113.23 143.217 112.982 143.979 112.624C144.752 112.283 145.472 111.833 146.117 111.287C144.454 111.58 142.894 112.294 141.585 113.361H141.577ZM155.501 116.996C155.993 116.315 156.386 115.569 156.67 114.778C156.871 114.231 157.026 113.669 157.134 113.097L156.91 112.792C156.568 113.346 156.284 113.934 156.061 114.546C155.756 115.331 155.567 116.156 155.501 116.996ZM136.068 137.013C136.56 136.33 136.954 135.58 137.237 134.787C137.54 134.004 137.728 133.182 137.798 132.345C137.307 133.027 136.914 133.773 136.629 134.563C136.325 135.354 136.137 136.185 136.068 137.029V137.013ZM133.034 169.041L133.49 169.081C133.557 168.767 133.6 168.448 133.618 168.128C133.396 168.433 133.2 168.757 133.034 169.097V169.041ZM163.155 170.922C163.647 170.241 164.041 169.495 164.324 168.704C164.63 167.919 164.819 167.094 164.885 166.254C163.914 167.634 163.318 169.243 163.155 170.922ZM124.25 145.725C124.442 145.815 124.635 145.895 124.827 145.965C125.613 146.267 126.438 146.455 127.277 146.525C126.595 146.033 125.845 145.642 125.051 145.364L124.442 145.156L124.25 145.725ZM144.796 165.085C146.174 166.059 147.784 166.655 149.464 166.815C148.783 166.325 148.036 165.934 147.246 165.654C146.461 165.346 145.636 165.155 144.796 165.085ZM143.194 145.869C143.877 146.362 144.627 146.756 145.42 147.038C146.19 147.339 146.999 147.528 147.822 147.598C146.444 146.624 144.835 146.028 143.154 145.869H143.194ZM160.641 124.53C161.049 124.844 161.489 125.112 161.954 125.331C161.906 125.123 161.85 124.923 161.802 124.715C161.413 124.624 161.016 124.568 160.617 124.546L160.641 124.53ZM134.411 120.631C135.109 120.887 135.839 121.044 136.581 121.096C136.008 120.671 135.38 120.326 134.715 120.071L134.411 120.631Z" fill="white"/>
<path d="M152.29 120.055C164.789 123.025 184.245 125.964 190.651 121.912C193.926 119.838 201.532 101.679 203.654 91.4861C204.207 88.8359 182.468 85.1207 181.779 87.9231C180.851 91.7023 178.673 103.617 177.6 105.49C176.983 106.563 163.187 108.164 152.074 109.926C139.039 112.008 142.145 117.645 152.29 120.055Z" fill="#EB9481"/>
<path d="M185.343 64.9356C185.869 64.9879 186.373 65.1696 186.812 65.4643C187.251 65.7591 187.61 66.1579 187.857 66.6251C188.503 65.8073 189.415 65.2409 190.435 65.0237C192.253 64.7114 193.534 67.4258 193.534 67.4258C194.382 66.7108 195.425 66.2673 196.528 66.1527C198.298 66.0326 199.987 68.5547 199.987 68.5547C200.547 68.3793 201.14 68.3365 201.72 68.4296C202.299 68.5227 202.849 68.7492 203.326 69.0912C206.697 71.9176 205.64 87.3468 202.934 93.5041L182.348 90.3974C182.348 90.3974 179.586 78.7715 180.042 75.1844C180.41 72.2299 182.14 64.6314 185.343 64.9356Z" fill="#EB9481"/>
<path d="M187.745 66.6729C186.692 69.8148 186.028 73.0738 185.767 76.3772C185.767 76.4493 185.871 76.4653 185.879 76.3772C186.215 73.1745 187.433 69.9077 187.897 66.6969C187.937 66.6249 187.801 66.5928 187.745 66.6729Z" fill="#263238"/>
<path d="M193.27 67.4822C193.068 68.2097 192.965 68.9612 192.965 69.7161C192.909 70.5168 192.877 71.3175 192.845 72.1182C192.797 73.7195 192.784 75.3209 192.805 76.9223C192.805 76.9944 192.917 77.0104 192.925 76.9223C192.973 75.3209 193.053 73.7195 193.182 72.1182C193.238 71.3175 193.31 70.5168 193.382 69.7161C193.5 68.9724 193.535 68.2177 193.486 67.4662C193.478 67.4428 193.462 67.4227 193.442 67.4091C193.421 67.3955 193.396 67.3891 193.372 67.3909C193.347 67.3928 193.324 67.4027 193.305 67.4192C193.287 67.4357 193.274 67.4579 193.27 67.4822Z" fill="#263238"/>
<path d="M199.963 68.6421C199.794 69.3005 199.738 69.9826 199.795 70.6598C199.795 71.3885 199.795 72.1171 199.795 72.8457C199.755 74.3029 199.723 75.7602 199.635 77.2094C199.635 77.2895 199.747 77.2975 199.747 77.2094C199.843 75.7362 199.955 74.2549 200.035 72.7816C200.075 72.053 200.115 71.3244 200.147 70.6038C200.237 69.9423 200.21 69.2702 200.067 68.6181C200.067 68.6181 199.979 68.6101 199.963 68.6421Z" fill="#263238"/>
<path d="M169.769 125.868L168.969 106.291C168.969 106.291 155.309 107.172 147.566 110.014C139.824 112.857 142.458 117.076 149.968 120.007C157.479 122.937 169.769 125.868 169.769 125.868Z" fill="#4AADEE"/>
<path d="M166.559 107.308C165.774 107.002 164.948 106.813 164.108 106.747C164.791 107.241 165.541 107.634 166.334 107.916C167.117 108.221 167.939 108.41 168.776 108.477C168.099 107.98 167.351 107.586 166.559 107.308ZM156.062 114.514C155.76 115.3 155.571 116.125 155.501 116.964C155.993 116.28 156.387 115.531 156.67 114.738C156.969 113.967 157.157 113.159 157.231 112.336C156.74 113.017 156.347 113.764 156.062 114.554V114.514ZM169.449 118.277C168.764 118.421 168.097 118.644 167.463 118.942C166.69 119.279 165.97 119.727 165.325 120.271C166.157 120.139 166.965 119.891 167.728 119.534C168.342 119.259 168.925 118.918 169.465 118.517L169.449 118.277ZM144.075 111.871C143.719 112.168 143.418 112.526 143.187 112.928C143.451 112.832 143.715 112.728 143.987 112.616C144.76 112.275 145.48 111.825 146.125 111.279C145.418 111.387 144.729 111.589 144.075 111.879V111.871Z" fill="white"/>
<path d="M165.454 107.444C165.362 112.998 165.649 118.552 166.31 124.067H166.438C166.478 119.519 165.87 110.455 165.638 107.444C165.646 107.388 165.454 107.388 165.454 107.444Z" fill="#263238"/>
<path d="M169.665 123.41C169.793 124.211 169.865 125.012 169.97 125.86V126.116L169.689 126.06C167.976 125.7 166.262 125.356 164.565 124.939C162.867 124.523 161.17 124.091 159.489 123.61C157.807 123.13 156.126 122.633 154.476 122.057C152.827 121.481 151.169 120.904 149.56 120.191L154.636 121.521C156.326 121.961 158.015 122.401 159.697 122.858L164.749 124.235C166.43 124.683 168.104 125.204 169.785 125.676L169.545 125.876C169.609 125.052 169.609 124.235 169.665 123.41Z" fill="#263238"/>
<path d="M154.012 121.712C153.389 121.864 152.744 121.905 152.106 121.833C151.468 121.775 150.847 121.59 150.281 121.288C150.601 121.288 150.913 121.328 151.226 121.352L152.146 121.432C152.773 121.491 153.396 121.585 154.012 121.712Z" fill="#263238"/>
<path d="M34.9578 316.208C32.2035 314.719 28.4723 314.022 25.5658 315.407C25.4537 315.455 25.5658 315.615 25.6299 315.615C28.7168 315.604 31.796 315.926 34.8137 316.576C34.8603 316.587 34.909 316.58 34.9511 316.557C34.9932 316.535 35.0259 316.498 35.0433 316.454C35.0607 316.409 35.0616 316.36 35.046 316.315C35.0303 316.27 34.999 316.232 34.9578 316.208Z" fill="#263238"/>
<path d="M36.6634 318.162C33.909 316.673 30.1778 315.976 27.2714 317.361C27.1593 317.409 27.2714 317.57 27.3354 317.57C30.4274 317.554 33.512 317.874 36.5353 318.522C36.578 318.524 36.6201 318.512 36.6556 318.488C36.691 318.464 36.7178 318.43 36.7321 318.389C36.7464 318.349 36.7475 318.305 36.7351 318.264C36.7228 318.224 36.6976 318.188 36.6634 318.162Z" fill="#263238"/>
<path d="M38.3687 320.123C35.6144 318.634 31.8832 317.937 28.9767 319.322C28.8646 319.37 28.9767 319.53 29.0488 319.53C32.139 319.524 35.2209 319.851 38.2406 320.507C38.2916 320.524 38.3472 320.52 38.3953 320.496C38.4433 320.472 38.4799 320.43 38.4968 320.379C38.5138 320.328 38.5099 320.273 38.4859 320.225C38.4618 320.177 38.4197 320.14 38.3687 320.123Z" fill="#263238"/>
<path d="M40.0823 322.069C37.3199 320.58 33.5968 319.883 30.6823 321.269C30.5702 321.317 30.6823 321.477 30.7543 321.477C33.8445 321.47 36.9264 321.797 39.9462 322.454C39.9972 322.472 40.0532 322.469 40.102 322.445C40.1508 322.422 40.1884 322.38 40.2064 322.33C40.2245 322.279 40.2215 322.222 40.1983 322.174C40.175 322.125 40.1333 322.087 40.0823 322.069Z" fill="#263238"/>
<path d="M42.5486 311.163C41.908 309.21 39.53 309.234 37.9766 309.866C35.3309 311.009 33.0312 312.826 31.3069 315.135C31.297 315.142 31.2889 315.152 31.2834 315.163C31.2778 315.174 31.2749 315.186 31.2749 315.199C31.2749 315.211 31.2778 315.224 31.2834 315.235C31.2889 315.246 31.297 315.255 31.3069 315.263C31.2429 315.487 31.363 315.791 31.6432 315.775C34.3575 315.655 37.248 315.863 39.8582 314.919C41.4036 314.366 43.1571 313.013 42.5486 311.163ZM35.7507 314.758C34.4216 314.847 33.1005 314.871 31.7473 315.015C33.0524 313.99 34.3015 312.917 35.7507 312.02C36.4192 311.58 37.1175 311.187 37.8405 310.843C38.9695 310.331 42.9649 309.746 41.4116 312.797C40.5468 314.518 37.3361 314.646 35.7507 314.758Z" fill="#263238"/>
<path d="M24.1006 311.98C26.1904 313.781 28.9848 314.622 31.475 315.695C31.5319 315.714 31.5925 315.719 31.6519 315.71C31.7112 315.701 31.7675 315.678 31.8161 315.643C31.8647 315.608 31.9042 315.561 31.9312 315.508C31.9582 315.454 31.972 315.395 31.9714 315.335C31.9843 315.335 31.9971 315.333 32.0088 315.327C32.0205 315.322 32.0307 315.314 32.0386 315.303C32.0464 315.293 32.0517 315.281 32.0539 315.269C32.0562 315.256 32.0553 315.243 32.0515 315.231C31.2613 312.461 29.7563 309.948 27.6877 307.944C26.4627 306.791 24.2528 305.927 22.9557 307.528C21.6586 309.129 22.8836 310.923 24.1006 311.98ZM23.4521 309.466C23.0838 306.063 26.6548 308.024 27.4555 308.905C28.0045 309.488 28.5179 310.103 28.9928 310.747C29.9857 312.084 30.7784 313.533 31.6351 314.95C30.4421 314.35 29.233 313.853 28 313.301C26.5908 312.636 23.6523 311.315 23.4521 309.466Z" fill="#263238"/>
<path d="M4.0676 312.013C3.89145 313.077 3.7153 314.118 3.55516 315.127C2.49826 321.605 1.87373 326.601 2.36215 327.057C3.85142 328.475 48.5537 337.466 50.2271 337.242C51.9005 337.018 51.4121 332.262 49.9549 330.532C49.0661 329.483 42.9569 324.968 38.3049 321.597C35.3103 319.435 32.9243 317.729 32.9243 317.729L41.892 288.745L11.8343 282.812C11.8343 282.812 4.38788 310.299 4.0676 312.013Z" fill="#FFC4C0"/>
<path d="M50.2271 337.242C48.5537 337.442 3.85142 328.475 2.36215 327.057C1.87373 326.593 2.49826 321.605 3.55516 315.127C3.7153 314.126 3.88344 313.077 4.0676 312.013C4.17169 311.412 5.15654 307.665 6.38159 303.045C10.7373 303.91 28.2163 307.425 35.6306 308.914L32.9083 317.721C32.9083 317.721 35.3103 319.419 38.2889 321.589C42.9409 324.96 49.0501 329.468 49.9309 330.524C51.4041 332.262 51.8925 337.026 50.2271 337.242Z" fill="#EBEBEB"/>
<path d="M50.5954 337.53C49.4904 337.659 30.1059 333.807 16.0538 330.653C12.8031 329.924 9.84052 329.227 7.45448 328.635C4.16366 327.834 1.96978 327.178 1.65751 326.881C1.11305 326.353 4.53998 308.025 5.14049 305.903L34.8619 312.053L33.1164 317.545C33.1164 317.545 48.8579 328.883 50.3552 330.661C51.8525 332.438 52.3009 337.314 50.5954 337.53Z" fill="#4AADEE"/>
<path d="M49.8985 335.48C42.2679 333.735 11.3535 327.329 3.68292 326.16C3.61887 326.16 3.61086 326.16 3.68292 326.208C11.1934 328.13 42.1639 334.263 49.8665 335.608C50.0266 335.632 50.0266 335.52 49.8985 335.48Z" fill="#263238"/>
<path d="M41.8516 305.023C42.1719 304.87 50.8834 267.478 54.8548 252.233C60.5877 230.23 66.1444 194.368 67.8099 186.897C71.2479 178.296 73.5831 169.294 74.7598 160.106H38.6169C38.6169 160.106 29.1448 178.226 34.0129 191.037C34.4613 192.214 27.7035 237.477 24.2045 244.835C21.1859 251.176 7.39014 297.616 7.39014 297.616L41.8516 305.023Z" fill="#37474F"/>
<path d="M41.6598 297.36C40.779 297.04 39.8342 296.88 38.9214 296.639C38.0087 296.399 36.9918 296.151 36.023 295.935C34.0853 295.494 32.1476 295.078 30.21 294.654C26.3267 293.813 22.4353 293.052 18.544 292.252C17.4764 292.033 16.4088 291.825 15.3413 291.627C14.29 291.371 13.2183 291.207 12.1385 291.139C12.1285 291.144 12.1202 291.152 12.1143 291.162C12.1085 291.172 12.1055 291.183 12.1055 291.195C12.1055 291.206 12.1085 291.217 12.1143 291.227C12.1202 291.237 12.1285 291.245 12.1385 291.251C13.0201 291.581 13.9282 291.835 14.8528 292.011C15.8137 292.252 16.7825 292.476 17.7513 292.692C19.6569 293.124 21.5626 293.565 23.4762 293.981C27.3195 294.782 31.1708 295.671 35.0301 296.455C36.127 296.671 37.216 296.896 38.3209 297.08C39.4259 297.264 40.5148 297.552 41.6197 297.632C41.7158 297.624 41.8199 297.416 41.6598 297.36Z" fill="#263238"/>
<path d="M58.3538 185.239C57.6573 189.003 57.0808 192.79 56.4562 196.561C56.144 198.491 55.7196 200.396 55.3993 202.318C55.079 204.24 54.7828 206.097 54.4785 207.987C53.2508 215.593 52.0364 223.197 50.8354 230.798C50.2376 234.578 49.6317 238.352 49.0179 242.12C48.4538 245.839 47.6921 249.524 46.7359 253.162C45.7431 256.797 44.5741 260.368 43.4611 263.979L40.0582 275.044C37.8083 282.379 38.1285 283.628 36.1108 291.058C35.8626 291.979 35.6064 292.9 35.3101 293.82C35.3093 293.841 35.3156 293.861 35.3279 293.877C35.3403 293.893 35.3579 293.905 35.3777 293.91C35.3976 293.914 35.4185 293.912 35.4368 293.903C35.4551 293.894 35.4698 293.879 35.4783 293.86C37.9684 286.59 37.6241 285.341 39.9381 278.007C42.2521 270.673 44.6221 263.402 46.824 256.068C47.8911 252.498 48.744 248.867 49.3782 245.195C50.0187 241.416 50.5792 237.628 51.1877 233.841C52.3834 226.24 53.5978 218.636 54.8308 211.03C55.4233 207.298 56.0799 203.559 56.5443 199.82C57.0247 195.929 57.6973 192.061 58.2738 188.186C58.4179 187.233 58.554 186.288 58.6821 185.336C58.6821 185.119 58.3939 185.031 58.3538 185.239Z" fill="#263238"/>
<path d="M89.4368 318.698C86.3542 318.105 82.5909 318.554 80.2209 320.732C80.1328 320.82 80.2209 320.948 80.357 320.916C83.3039 319.983 86.3427 319.371 89.4208 319.09C89.4665 319.083 89.5084 319.06 89.5392 319.026C89.57 318.991 89.5879 318.947 89.5898 318.901C89.5917 318.854 89.5775 318.809 89.5496 318.772C89.5217 318.735 89.4818 318.709 89.4368 318.698Z" fill="#263238"/>
<path d="M91.6624 320.051C88.5878 319.459 84.8166 319.907 82.4546 322.085C82.3585 322.173 82.4546 322.301 82.5827 322.269C85.535 321.337 88.5791 320.725 91.6624 320.444C91.7077 320.435 91.7484 320.41 91.7776 320.374C91.8068 320.339 91.8228 320.294 91.8228 320.248C91.8228 320.201 91.8068 320.157 91.7776 320.121C91.7484 320.085 91.7077 320.061 91.6624 320.051Z" fill="#263238"/>
<path d="M93.856 321.404C90.7814 320.812 87.0182 321.26 84.6482 323.438C84.5601 323.526 84.6482 323.654 84.7843 323.622C87.7312 322.69 90.77 322.077 93.848 321.796C93.8935 321.788 93.9347 321.764 93.9647 321.729C93.9947 321.694 94.0116 321.65 94.0125 321.603C94.0135 321.557 93.9984 321.512 93.9699 321.476C93.9414 321.439 93.9011 321.414 93.856 321.404Z" fill="#263238"/>
<path d="M96.0741 322.758C92.9994 322.165 89.2282 322.613 86.8662 324.791C86.7701 324.879 86.8662 325.007 86.9943 324.975C89.9414 324.044 92.9801 323.432 96.0581 323.15C96.1038 323.143 96.1457 323.12 96.1765 323.085C96.2073 323.051 96.2252 323.007 96.2271 322.96C96.229 322.914 96.2147 322.868 96.1868 322.832C96.1589 322.795 96.1191 322.768 96.0741 322.758Z" fill="#263238"/>
<path d="M95.1616 311.62C93.9606 309.946 91.7027 310.675 90.4136 311.748C88.2231 313.626 86.5662 316.048 85.6095 318.77C85.6043 318.781 85.602 318.794 85.6026 318.807C85.6033 318.819 85.6068 318.831 85.6131 318.842C85.6193 318.853 85.6281 318.862 85.6385 318.869C85.649 318.876 85.661 318.881 85.6735 318.882C85.6735 319.114 85.8897 319.37 86.1539 319.274C88.7081 318.346 91.5425 317.673 93.7284 315.992C95.0335 315.015 96.2986 313.197 95.1616 311.62ZM89.757 317.081C88.5159 317.561 87.2589 317.985 86.0338 318.514C86.9706 317.153 87.8434 315.751 88.9163 314.51C89.4214 313.888 89.9699 313.302 90.5577 312.757C91.4785 311.956 95.1216 310.179 94.5611 313.558C94.2408 315.383 91.2383 316.496 89.757 317.081Z" fill="#263238"/>
<path d="M77.8107 317.921C80.3409 319.018 83.2554 318.978 85.9537 319.258C86.0136 319.259 86.0729 319.246 86.1269 319.22C86.1808 319.194 86.2279 319.156 86.2645 319.108C86.3011 319.061 86.326 319.006 86.3374 318.947C86.3488 318.888 86.3462 318.827 86.33 318.77C86.3387 318.761 86.3457 318.752 86.3504 318.741C86.3552 318.73 86.3576 318.718 86.3576 318.706C86.3576 318.694 86.3552 318.682 86.3504 318.671C86.3457 318.66 86.3387 318.65 86.33 318.642C84.7438 316.235 82.5546 314.286 79.9806 312.989C78.4673 312.268 76.0973 312.1 75.3446 314.014C74.592 315.927 76.3295 317.28 77.8107 317.921ZM76.4496 315.719C75.0804 312.58 79.0358 313.397 80.1327 313.974C80.8345 314.359 81.5087 314.792 82.1504 315.271C83.5036 316.248 84.6886 317.393 85.9297 318.473C84.6165 318.257 83.2954 318.153 81.9663 317.985C80.3729 317.801 77.1862 317.449 76.4496 315.719Z" fill="#263238"/>
<path d="M58.5941 315.152C58.5941 316.977 59.3948 335.241 59.9473 335.593C61.6848 336.698 107.284 336.826 108.877 336.306C110.471 335.785 109.077 331.189 107.276 329.78C106.203 328.915 99.341 325.673 94.1205 323.271C90.7657 321.725 88.0914 320.524 88.0914 320.524L88.2355 315.168L88.6518 290.803H58.5461C58.5461 290.803 58.3939 303.309 58.5941 315.152Z" fill="#FFC4C0"/>
<path d="M108.885 336.306C107.284 336.826 61.6846 336.69 59.9551 335.593C59.3866 335.233 58.618 316.977 58.5939 315.16C58.5939 313.95 58.5939 312.757 58.5459 311.524H88.3234L88.2593 315.16L88.1072 320.5L94.1364 323.254C99.3488 325.657 106.211 328.915 107.292 329.772C109.077 331.189 110.47 335.777 108.885 336.306Z" fill="#EBEBEB"/>
<path d="M109.958 336.673C108.901 337.026 89.1405 337.026 74.7282 336.673C71.3973 336.593 68.3227 336.489 65.9206 336.377C62.5338 336.209 60.2598 336.017 59.8915 335.777C59.2509 335.368 58.3462 316.72 58.5223 314.526L88.6441 314.678L88.7562 320.419C88.7562 320.419 106.571 328.53 108.389 329.98C110.207 331.429 111.592 336.137 109.958 336.673Z" fill="#4AADEE"/>
<path d="M108.869 334.808C101.046 334.568 69.4754 334.336 61.7248 334.688C61.6687 334.688 61.6607 334.736 61.7248 334.736C69.4754 335.144 101.046 335.12 108.869 334.936C109.037 334.928 109.037 334.808 108.869 334.808Z" fill="#263238"/>
<path d="M53.2299 192.438C53.2299 192.438 58.3783 242.961 58.4584 244.146C58.4584 244.619 56.2485 306.36 56.2485 306.36H90.3016C90.3016 306.36 89.0846 248.502 88.5641 241.368C88.5081 240.567 86.3062 189.179 76.3937 160.106H38.5693C38.5693 160.106 38.8976 177.185 46.6643 189.54C48.9044 190.384 51.0963 191.352 53.2299 192.438Z" fill="#37474F"/>
<path d="M88.1477 299.978C87.2109 299.842 86.2581 299.874 85.3133 299.826C84.3684 299.778 83.3356 299.73 82.3427 299.706C80.357 299.666 78.3393 299.65 76.3856 299.626C72.3822 299.578 68.4428 299.626 64.4714 299.626H61.2206C60.1262 299.586 59.0304 299.642 57.9458 299.794C57.8898 299.794 57.8978 299.898 57.9458 299.914C58.8727 300.06 59.81 300.129 60.7482 300.122C61.7411 300.162 62.7339 300.186 63.7268 300.202C65.6804 300.242 67.6341 300.29 69.5958 300.314C73.5272 300.362 77.4665 300.435 81.4059 300.419C82.5269 300.419 83.6398 300.419 84.7608 300.378C85.8817 300.338 87.0027 300.378 88.1076 300.25C88.2518 300.226 88.3158 300.002 88.1477 299.978Z" fill="#263238"/>
<path d="M80.4526 246.972C79.5559 228.773 77.6422 210.653 75.2322 192.606C73.9191 182.717 72.3737 172.845 69.6994 163.221C69.6994 163.221 69.6274 163.221 69.6354 163.221C71.7207 172.026 73.2927 180.944 74.3434 189.932C75.4644 198.819 76.5373 207.723 77.4421 216.642C79.2756 234.738 80.0923 252.897 80.2044 271.089C80.2685 281.322 79.9963 286.142 79.708 296.367C79.708 296.463 79.8521 296.455 79.8601 296.367C81.3414 278.175 81.3174 265.196 80.4526 246.972Z" fill="#263238"/>
<path d="M78.6032 167.145C78.6032 167.13 78.5973 167.116 78.5868 167.105C78.5762 167.095 78.562 167.089 78.5471 167.089C78.5323 167.089 78.518 167.095 78.5075 167.105C78.497 167.116 78.4911 167.13 78.4911 167.145C78.6352 169.299 79.0035 171.645 78.0427 173.679C77.202 175.464 75.5926 176.473 74.1113 177.682C74.1113 177.722 74.1113 177.794 74.1754 177.778C76.1371 177.186 78.0987 176.097 78.8754 174.079C79.7401 171.845 79.2677 169.387 78.6032 167.145Z" fill="#263238"/>
<path d="M62.205 191.325C60.6258 191.279 59.0453 191.332 57.4729 191.485C55.933 191.567 54.3892 191.54 52.853 191.405C52.0824 191.325 51.3175 191.197 50.563 191.021C49.7623 190.837 49.0417 190.549 48.2651 190.332C47.5598 190.179 46.827 190.206 46.1352 190.413C45.3346 190.597 44.5339 190.725 43.6611 190.837C41.7654 191.113 39.8434 191.161 37.9362 190.981C37.8642 190.981 37.8321 191.085 37.9362 191.101C39.5399 191.437 41.174 191.606 42.8124 191.606C43.6518 191.587 44.4891 191.512 45.3185 191.381C46.0799 191.158 46.8715 191.056 47.6646 191.077C48.4424 191.285 49.207 191.539 49.9545 191.838C50.7161 192.051 51.4921 192.209 52.2765 192.31C53.8476 192.518 55.4357 192.567 57.0166 192.454C58.7998 192.414 60.5704 192.145 62.2851 191.654C62.3286 191.643 62.3661 191.615 62.3894 191.577C62.4127 191.539 62.4198 191.493 62.4092 191.449C62.3986 191.406 62.3711 191.368 62.3328 191.345C62.2945 191.322 62.2485 191.315 62.205 191.325Z" fill="#263238"/>
<path d="M58.5379 241.368C58.5304 241.364 58.5222 241.362 58.5139 241.362C58.5055 241.362 58.4973 241.364 58.4898 241.368C58.4856 241.375 58.4834 241.383 58.4834 241.392C58.4834 241.4 58.4856 241.408 58.4898 241.416V241.536C58.5052 241.542 58.5225 241.542 58.5379 241.536V241.416C58.5414 241.408 58.5433 241.4 58.5433 241.392C58.5433 241.383 58.5414 241.375 58.5379 241.368Z" fill="#263238"/>
<path d="M57.6333 232.665C57.3344 229.393 57.0141 226.121 56.6725 222.849C55.9839 216.299 55.3354 209.75 54.6628 203.2C54.2785 199.485 54.0062 195.738 53.3977 192.054C53.3977 191.958 53.2296 191.958 53.2376 192.054C53.2856 195.337 53.6379 198.62 53.9182 201.895C54.1984 205.17 54.4866 208.445 54.7909 211.719C55.4074 218.269 55.9919 224.827 56.7606 231.368C56.9795 233.22 57.209 235.089 57.4492 236.973C57.6974 238.831 58.0257 240.68 58.2499 242.538C58.2499 242.555 58.2566 242.571 58.2686 242.583C58.2806 242.595 58.2969 242.602 58.3139 242.602C58.3309 242.602 58.3472 242.595 58.3592 242.583C58.3712 242.571 58.378 242.555 58.378 242.538C58.0897 239.255 57.9376 235.94 57.6333 232.665Z" fill="#263238"/>
<path d="M57.8975 119.039C58.1538 119.744 62.1972 124.019 65.488 123.451C66.561 123.267 65.8083 117.365 65.8083 117.365L65.8483 116.917L66.4649 110.648L58.7222 106.933L57.6093 106.452C57.6093 106.452 57.5532 108.182 57.5132 110.327C57.5132 110.432 57.5132 110.528 57.5132 110.64C57.5132 110.752 57.5132 110.872 57.5132 110.984V111.961C57.5132 112.217 57.5132 112.457 57.5132 112.714C57.5132 112.97 57.5132 113.234 57.5132 113.514C57.511 115.363 57.6395 117.209 57.8975 119.039Z" fill="#FFC4C0"/>
<path d="M57.5132 110.344C58.3398 111.982 59.5138 113.421 60.9534 114.559C62.3929 115.697 64.0634 116.507 65.8483 116.934L66.4648 110.664L58.7222 106.949L57.6093 106.469C57.6093 106.469 57.5532 108.182 57.5132 110.344Z" fill="#263238"/>
<path d="M76.0893 150.234L76.3935 160.107H38.6172C38.6172 160.107 43.069 130.841 53.0295 120.072C58.0098 114.66 63.3023 115.677 67.0335 119.456C67.9703 120.417 78.2911 133.868 79.4762 139.553C80.509 144.517 76.0893 150.234 76.0893 150.234Z" fill="#4AADEE"/>
<path opacity="0.1" d="M76.3535 158.929H38.8174C38.8654 158.624 38.9295 158.272 39.0015 157.872H76.3295L76.3535 158.929ZM76.2334 154.925H39.554C39.482 155.294 39.4099 155.646 39.3458 155.982H76.2654L76.2334 154.925ZM76.1453 151.971H40.1705C40.0905 152.331 40.0184 152.683 39.9464 153.028H76.1774L76.1453 151.971ZM40.8431 149.008C40.763 149.369 40.675 149.721 40.5949 150.065H76.2174C76.3695 149.865 76.6258 149.497 76.93 149.008H40.8431ZM41.5717 146.054L41.3075 147.111H77.9949C78.1711 146.774 78.3312 146.422 78.4913 146.054H41.5717ZM42.3724 143.099L42.0842 144.156H79.1719C79.268 143.812 79.3561 143.459 79.4281 143.099H42.3724ZM79.5883 140.145H43.2372C43.1251 140.497 43.021 140.849 42.9169 141.202H79.6523C79.6486 140.845 79.6246 140.49 79.5803 140.137L79.5883 140.145ZM78.7075 137.19H44.182C44.0619 137.542 43.9498 137.895 43.8297 138.247H79.1079C78.9958 137.903 78.8516 137.566 78.6995 137.182L78.7075 137.19ZM77.2343 134.228H45.2229C45.0867 134.58 44.9586 134.932 44.8305 135.292H77.7867C77.6186 134.932 77.4264 134.58 77.2503 134.22L77.2343 134.228ZM75.4968 131.273H46.3999C46.2504 131.625 46.1063 131.978 45.9675 132.33H76.1373C75.9291 131.972 75.713 131.617 75.4888 131.265L75.4968 131.273ZM73.5911 128.319H47.721C47.5529 128.671 47.3847 129.023 47.2246 129.375H74.2797L73.5911 128.319ZM71.5574 125.364H49.2663C49.0662 125.708 48.866 126.061 48.6818 126.421H72.278C72.0378 126.053 71.7896 125.7 71.5494 125.356L71.5574 125.364ZM69.4036 122.409H51.1239C50.8757 122.754 50.6435 123.106 50.4113 123.466H70.1722L69.4036 122.409ZM67.0736 119.455H53.582C53.4005 119.636 53.2164 119.829 53.0295 120.031C52.8427 120.234 52.6986 120.394 52.5972 120.512H67.9383C67.522 119.951 67.2177 119.607 67.0656 119.447L67.0736 119.455ZM62.1734 116.492H58.5543C57.6585 116.711 56.8022 117.067 56.0161 117.549H64.6955C63.9099 117.07 63.0571 116.711 62.1654 116.484L62.1734 116.492Z" fill="#030402"/>
<path d="M63.7427 127.711C70.5085 130.305 95.722 136.078 101.031 131.666C109.366 124.74 115.883 112.33 119.246 102.153C120.407 98.6139 98.1882 95.5633 96.9711 99.5587C95.3698 104.763 91.3663 114.235 90.3014 115.861C89.2365 117.486 74.1596 117.758 63.9909 118.711C55.5036 119.504 55.1593 124.428 63.7427 127.711Z" fill="#FFC4C0"/>
<path d="M99.6134 75.9144C100.221 75.7097 100.876 75.6959 101.492 75.8748C102.107 76.0537 102.653 76.4168 103.056 76.9152C103.716 76.0522 104.656 75.4462 105.715 75.2018C107.604 74.8655 108.965 77.6759 108.965 77.6759C109.835 76.9209 110.912 76.4464 112.056 76.3147C113.898 76.1706 115.675 78.8129 115.675 78.8129C116.857 78.5604 118.091 78.7423 119.15 79.3253C121.912 81.0067 121.977 85.939 122.057 89.0776C122.137 92.2163 119.406 101.184 119.062 102.946L99.7495 104.811C99.7495 104.811 93.8244 96.484 95.0254 85.9309C95.3858 82.7923 97.3234 76.7711 99.6134 75.9144Z" fill="#FFC4C0"/>
<path d="M102.736 77.0514C101.551 80.2542 101.383 83.6651 101.022 87.044C101.027 87.0562 101.035 87.0668 101.046 87.0743C101.057 87.0817 101.069 87.0857 101.083 87.0857C101.096 87.0857 101.108 87.0817 101.119 87.0743C101.13 87.0668 101.138 87.0562 101.143 87.044C101.463 83.6731 102.44 80.4143 102.896 77.0674C102.912 76.9954 102.768 76.9633 102.736 77.0514Z" fill="#263238"/>
<path d="M108.701 77.7321C108.501 78.4896 108.404 79.2707 108.413 80.0541C108.365 80.8548 108.333 81.7115 108.309 82.5363C108.309 84.1937 108.309 85.8591 108.309 87.5165C108.309 87.5886 108.421 87.6046 108.421 87.5165C108.463 85.8618 108.535 84.207 108.637 82.5523C108.69 81.7249 108.754 80.9002 108.829 80.0781C108.944 79.3043 108.97 78.52 108.909 77.7401C108.899 77.7214 108.885 77.7056 108.867 77.6943C108.849 77.6831 108.828 77.6767 108.807 77.6759C108.786 77.6751 108.765 77.6798 108.747 77.6897C108.728 77.6996 108.712 77.7142 108.701 77.7321Z" fill="#263238"/>
<path d="M115.683 78.8604C115.516 79.5491 115.465 80.2607 115.531 80.9662C115.531 81.7269 115.531 82.4795 115.531 83.2402C115.531 84.7535 115.491 86.2588 115.419 87.772C115.419 87.8521 115.531 87.8601 115.531 87.772C115.619 86.2347 115.723 84.6974 115.787 83.1681C115.787 82.3674 115.851 81.6548 115.875 80.9022C115.964 80.2159 115.932 79.5194 115.779 78.8444C115.777 78.8317 115.77 78.8203 115.76 78.8128C115.749 78.8053 115.736 78.8023 115.723 78.8044C115.71 78.8065 115.699 78.8136 115.692 78.8241C115.684 78.8346 115.681 78.8477 115.683 78.8604Z" fill="#263238"/>
<path d="M92.303 110.344L110.278 124.972C110.278 124.972 103.44 132.699 99.7253 133.492C96.0101 134.284 75.9049 133.131 64.4952 128.519C53.0854 123.907 55.9999 119.432 64.335 118.455C72.6702 117.478 88.1154 115.644 88.6198 115.34C89.1242 115.036 92.303 110.344 92.303 110.344Z" fill="#4AADEE"/>
<path opacity="0.1" d="M66.1685 129.151C65.6027 128.954 65.0502 128.746 64.511 128.527C63.9265 128.287 63.3741 128.054 62.8616 127.822L57.0727 123.09C56.9506 122.654 56.9759 122.19 57.1447 121.769L66.1685 129.151ZM59.3386 119.759C58.9991 119.919 58.6748 120.109 58.3698 120.328L70.9005 130.569C71.7012 130.769 72.5019 130.961 73.2545 131.129L59.3386 119.759ZM62.7335 118.71C62.2691 118.799 61.8368 118.895 61.4204 119.007L77.25 131.962C77.9546 132.09 78.6592 132.21 79.3638 132.322L62.7335 118.71ZM66.737 118.182L65.2717 118.35L82.9428 132.763C83.5994 132.851 84.256 132.931 84.8965 132.995L66.737 118.182ZM70.8124 117.702L69.3632 117.878L88.3154 133.363L90.149 133.507L70.8124 117.702ZM74.8879 117.213L73.4387 117.389L93.3678 133.675L95.0892 133.723L74.8879 117.213ZM78.9474 116.709L77.4982 116.893L98.0358 133.707C98.535 133.689 99.0324 133.638 99.525 133.555L78.9474 116.709ZM82.9508 116.196L81.5096 116.388L101.527 132.73C101.839 132.554 102.151 132.354 102.472 132.138L82.9508 116.196ZM86.9543 115.652L85.529 115.852L104.009 130.961C104.289 130.745 104.569 130.513 104.81 130.28L86.9543 115.652ZM89.6526 114.05C89.4124 114.379 89.1962 114.667 89.012 114.851L106.275 128.967L107.075 128.231L89.6526 114.05ZM91.374 111.648L90.7655 112.513L108.381 126.926L109.109 126.125L91.374 111.648Z" fill="#030402"/>
<path d="M106.179 126.782C101.375 122.546 96.5064 118.319 91.302 114.571C91.2914 114.564 91.2782 114.561 91.2655 114.563C91.2527 114.565 91.2414 114.573 91.2339 114.583C91.2265 114.594 91.2236 114.607 91.2258 114.62C91.2281 114.633 91.2353 114.644 91.2459 114.651C95.9219 119.031 101.014 122.971 106.091 126.87C106.155 126.918 106.235 126.83 106.179 126.782Z" fill="#263238"/>
<path d="M54.887 93.1375C54.563 93.3829 54.1743 93.528 53.7688 93.555C53.3633 93.5821 52.9588 93.4898 52.6051 93.2897C51.5962 92.8893 50.3071 91.8484 49.2102 92.577C47.9771 93.3777 48.4095 95.1633 48.994 96.2202C49.5597 97.1102 50.0627 98.0385 50.4993 98.9985C50.8456 99.9258 51.0246 100.907 51.0277 101.897C51.0277 103.891 49.9388 105.732 50.0669 107.718C50.235 110.12 52.4689 111.85 54.3746 112.938C56.2802 114.027 58.6022 114.468 60.7801 115.228C62.6082 115.928 64.2309 117.077 65.4986 118.568C66.7663 120.06 67.6383 121.847 68.0343 123.764C68.251 124.705 68.377 125.665 68.4106 126.63C68.4106 127.663 68.3385 128.704 68.4106 129.737C68.4424 130.322 68.6139 130.891 68.9106 131.397C69.2072 131.903 69.6206 132.33 70.1161 132.643C71.0621 133.141 72.0901 133.463 73.1507 133.596C73.1843 133.606 73.2145 133.624 73.2379 133.65C73.2613 133.676 73.2768 133.708 73.2827 133.743C73.2885 133.777 73.2845 133.812 73.2711 133.845C73.2576 133.877 73.2353 133.904 73.2067 133.924C72.6291 134.324 72.0245 134.682 71.3972 134.997C70.856 135.31 70.2578 135.512 69.6377 135.59C69.0175 135.668 68.388 135.622 67.7861 135.454C66.4249 134.973 65.6082 133.7 64.8636 132.547C64.0455 131.167 62.8949 130.014 61.5167 129.192C60.0935 128.44 58.5531 127.933 56.9608 127.695C53.8782 127.167 50.7235 127.327 47.6568 126.678C46.17 126.414 44.7517 125.853 43.4873 125.027C42.2228 124.202 41.1382 123.129 40.2985 121.874C39.4742 120.599 38.9285 119.163 38.6972 117.663C38.5258 116.023 38.6123 114.367 38.9534 112.754C39.5958 109.297 39.8243 105.776 39.634 102.265C39.5141 100.611 39.3056 98.9648 39.0094 97.3331C38.698 95.8104 38.545 94.2594 38.553 92.7052C38.5854 91.3578 38.9726 90.0428 39.6755 88.8929C40.3783 87.743 41.3721 86.7988 42.5565 86.1555C43.7216 85.4727 45.0427 85.1008 46.3929 85.0756C47.7432 85.0504 49.0772 85.3726 50.2671 86.0114C54.1264 88.2133 55.3914 92.6411 54.887 93.1375Z" fill="#263238"/>
<path d="M50.5874 109.471C51.0279 110.536 51.6812 111.5 52.5072 112.304C53.3333 113.108 54.3147 113.735 55.3915 114.147C57.5934 114.947 60.0115 114.995 62.2534 115.748C64.3375 116.363 66.1948 117.577 67.594 119.239C68.7779 120.901 69.3955 122.9 69.3555 124.94C69.4355 127.246 69.2033 129.544 69.4516 131.842C69.4516 131.882 69.3875 131.898 69.3795 131.842C68.5788 127.838 70.1241 123.355 67.618 119.776C66.0894 117.791 63.9233 116.394 61.4847 115.82C59.3629 115.22 57.073 115.164 55.0312 114.291C54.0064 113.824 53.0853 113.158 52.3221 112.33C51.5589 111.502 50.9691 110.53 50.5874 109.471Z" fill="#263238"/>
<path d="M38.3045 120.545C38.0985 119.201 38.142 117.83 38.4326 116.501C38.7288 114.9 39.1052 113.299 39.4495 111.697C39.1692 113.066 38.937 114.452 38.6968 115.837C38.4253 117.139 38.3364 118.473 38.4326 119.8C38.6131 121.11 39.0861 122.362 39.8166 123.464C40.547 124.566 41.5162 125.489 42.6522 126.166C44.9582 127.583 47.5844 127.855 50.2267 127.863C52.5751 127.822 54.9236 127.937 57.2567 128.207C59.8717 128.494 62.3975 129.326 64.671 130.649C64.671 130.649 64.671 130.73 64.671 130.706C60.0911 128.023 54.8386 128.159 49.7142 128.167C47.1793 128.288 44.6625 127.683 42.46 126.422C41.3993 125.782 40.4825 124.93 39.7673 123.918C39.0522 122.907 38.5541 121.758 38.3045 120.545Z" fill="#263238"/>
<path d="M53.2855 95.7077C53.4297 95.7077 55.3833 93.6579 55.5915 93.4578C55.7997 93.2576 57.8655 91.3439 57.8975 91.2078C57.228 90.5365 56.4409 89.9937 55.5755 89.6065C55.0551 89.4944 53.5017 90.7915 53.2455 91.0317C52.9893 91.2719 51.6441 92.8092 51.7723 93.3376C52.13 94.2123 52.6427 95.0151 53.2855 95.7077Z" fill="#4AADEE"/>
<path d="M74.6157 99.7981C77.5142 110.471 71.5011 113.514 69.1391 114.034C67.0253 114.507 59.8591 116.252 55.8797 105.931C51.9003 95.6105 55.9438 90.8945 60.6838 89.3492C65.4239 87.8038 71.7253 89.117 74.6157 99.7981Z" fill="#FFC4C0"/>
<path d="M73.4627 97.6371C73.2065 97.6371 72.9663 97.6371 72.662 97.6371C72.3847 97.6762 72.1023 97.6197 71.8613 97.4769C71.7968 97.4206 71.7525 97.3448 71.7352 97.2609C71.7178 97.1771 71.7284 97.0898 71.7653 97.0126C71.866 96.8696 72.0028 96.7558 72.1617 96.6827C72.3205 96.6096 72.4959 96.5798 72.67 96.5962C73.0251 96.5807 73.3732 96.6977 73.6469 96.9245C73.7002 96.9767 73.7389 97.042 73.759 97.1139C73.779 97.1859 73.7797 97.2618 73.7611 97.3341C73.7424 97.4064 73.705 97.4725 73.6526 97.5257C73.6002 97.5789 73.5347 97.6173 73.4627 97.6371Z" fill="#263238"/>
<path d="M66.537 99.3985C66.7746 99.3129 67.0072 99.214 67.2336 99.1023C67.4986 99.0304 67.7324 98.8727 67.8982 98.6539C67.9364 98.5769 67.9477 98.4893 67.9303 98.4051C67.9129 98.3209 67.8678 98.245 67.8021 98.1895C67.6532 98.1006 67.4831 98.0537 67.3097 98.0537C67.1363 98.0537 66.9662 98.1006 66.8173 98.1895C66.4728 98.3005 66.1854 98.5419 66.0166 98.8621C65.9903 98.9353 65.9851 99.0145 66.0016 99.0905C66.0181 99.1666 66.0555 99.2365 66.1097 99.2924C66.1639 99.3483 66.2327 99.3878 66.3082 99.4066C66.3837 99.4253 66.463 99.4225 66.537 99.3985Z" fill="#263238"/>
<path d="M68.659 101.753C68.659 101.753 68.611 101.801 68.659 101.833C68.8432 102.562 68.9313 103.434 68.3228 103.819C68.3228 103.819 68.3228 103.867 68.3228 103.859C69.0834 103.57 68.9553 102.417 68.659 101.753Z" fill="#263238"/>
<path d="M67.8338 101.136C66.6328 101.304 67.0332 103.698 68.1781 103.538C69.3231 103.378 68.8427 100.984 67.8338 101.136Z" fill="#263238"/>
<path d="M67.3859 101.344C67.2017 101.52 67.0416 101.792 66.7934 101.864C66.5451 101.936 66.2409 101.736 65.9927 101.528C66.0727 101.992 66.329 102.425 66.7934 102.409C67.2578 102.393 67.506 101.928 67.538 101.44C67.554 101.384 67.4579 101.272 67.3859 101.344Z" fill="#263238"/>
<path d="M72.566 100.623C72.566 100.623 72.6301 100.623 72.6381 100.679C72.7422 101.424 72.9904 102.28 73.703 102.393V102.433C72.8623 102.457 72.55 101.344 72.566 100.623Z" fill="#263238"/>
<path d="M73.0948 99.7348C74.2799 99.4306 74.7843 101.809 73.6954 102.089C72.6064 102.369 72.11 99.9831 73.0948 99.7348Z" fill="#263238"/>
<path d="M73.631 99.7826C73.8392 99.8706 74.0794 100.055 74.3035 100.023C74.5277 99.9908 74.7039 99.6865 74.816 99.4062C74.816 99.4062 74.816 99.4062 74.864 99.4062C74.9681 99.8626 74.9201 100.367 74.5037 100.543C74.0874 100.719 73.7431 100.383 73.5429 99.9507C73.5029 99.8867 73.5429 99.7505 73.631 99.7826Z" fill="#263238"/>
<path d="M72.2617 104.21C72.2617 104.21 72.622 105.283 72.7261 105.812C72.7261 105.86 72.614 105.908 72.4379 105.956C72.0063 106.124 71.5369 106.17 71.0809 106.089C70.6249 106.009 70.1997 105.805 69.8517 105.499C69.8435 105.49 69.8389 105.478 69.8384 105.465C69.838 105.453 69.8417 105.44 69.8491 105.43C69.8565 105.42 69.8671 105.413 69.8791 105.409C69.8912 105.406 69.9041 105.407 69.9157 105.411C70.6729 105.738 71.5156 105.811 72.3178 105.62C72.3178 105.467 71.6292 103.802 71.7093 103.778C72.1202 103.736 72.5349 103.75 72.9423 103.818C72.2457 101.56 71.1968 99.4222 70.5403 97.1643C70.5341 97.1477 70.5344 97.1294 70.5409 97.1129C70.5474 97.0964 70.5598 97.0829 70.5757 97.075C70.5915 97.0671 70.6097 97.0653 70.6268 97.0699C70.6439 97.0746 70.6587 97.0854 70.6684 97.1003C71.8684 99.3524 72.842 101.718 73.5748 104.162C73.6309 104.443 72.4859 104.258 72.2617 104.21Z" fill="#263238"/>
<path d="M72.3177 105.54C72.1349 106.035 71.8291 106.476 71.429 106.821C71.1999 107.003 70.9202 107.109 70.6283 107.125C70.0038 107.125 69.8276 106.629 69.7796 106.141C69.7473 105.875 69.7473 105.606 69.7796 105.34C70.5813 105.681 71.4724 105.751 72.3177 105.54Z" fill="#263238"/>
<path d="M71.4292 106.836C71.2001 107.018 70.9204 107.124 70.6285 107.14C70.004 107.14 69.8278 106.644 69.7798 106.156C70.0912 106.066 70.4238 106.084 70.7233 106.208C71.0229 106.332 71.2717 106.553 71.4292 106.836Z" fill="#FF98B9"/>
<path d="M57.465 109.359C58.4018 109.191 57.465 103.298 57.465 103.298C57.465 103.298 61.1322 101.336 61.3003 95.7631C61.4993 97.3848 61.2211 99.0293 60.4996 100.495C60.4996 100.495 66.9051 98.5015 68.5625 92.4883C68.5625 92.4883 68.0181 95.4909 67.1853 96.6839C68.7427 95.8499 69.9707 94.5117 70.6683 92.8887C70.6683 92.8887 72.4378 95.8192 73.4947 96.5158C73.4947 96.5158 72.2857 85.4023 60.6037 88.4529C58.5049 88.9626 56.5866 90.0396 55.0586 91.5661C53.5307 93.0926 52.4519 95.0099 51.9403 97.1083C51.0996 100.687 52.2926 104.939 53.7659 107.325C54.6866 108.742 57.465 109.359 57.465 109.359Z" fill="#263238"/>
<path d="M60.4356 104.187C60.4356 104.187 57.7213 100.984 56.232 101.961C54.7427 102.938 57.0327 107.782 58.9063 108.294C59.1442 108.376 59.3963 108.409 59.6473 108.392C59.8983 108.374 60.1433 108.306 60.3675 108.192C60.5916 108.077 60.7905 107.919 60.9522 107.726C61.1138 107.533 61.2349 107.31 61.3084 107.069L60.4356 104.187Z" fill="#FFC4C0"/>
</svg>
