<svg width="58" height="64" viewBox="0 0 58 64" fill="none" xmlns="http://www.w3.org/2000/svg">
<path fill-rule="evenodd" clip-rule="evenodd" d="M51.2908 21.6459C52.9398 19.4823 55.8133 16.5632 56.1721 11.6804C56.5405 6.67055 51.2801 1.60575 45.9492 1.06365C40.4621 0.505451 36.8225 3.69465 33.1813 7.64889C23.5211 18.1383 9.36684 32.5392 2.60281 41.5614C2.23149 42.0567 1.64498 51.3315 1.31757 56.2269C1.18998 58.1348 0.814284 60.4412 2.48839 61.8408C4.15275 63.2324 6.45383 62.6182 8.32166 62.0168C12.5623 60.6513 16.5568 58.6082 20.5432 56.6465C22.1061 55.8775 41.9217 32.9279 51.2908 21.6459Z" fill="white" stroke="#2F2965" stroke-width="2" stroke-miterlimit="1.5" stroke-linecap="round" stroke-linejoin="round"/>
<path fill-rule="evenodd" clip-rule="evenodd" d="M35.9348 4.91211C35.009 5.74965 34.1106 6.67838 33.2123 7.65401C31.5817 9.42449 29.8229 11.3067 27.9937 13.255C28.1671 13.347 28.3391 13.4383 28.5104 13.5283C34.8604 16.8624 41.163 22.5664 45.3366 28.7717C47.5633 26.1468 49.6158 23.7054 51.3219 21.651C51.5029 21.4136 51.6986 21.1672 51.904 20.91C48.4418 14.1763 42.8799 7.839 35.9348 4.91211Z" fill="white" stroke="#2F2965" stroke-width="2" stroke-miterlimit="1.5" stroke-linecap="round" stroke-linejoin="round"/>
<path d="M2.53613 41.7327C3.16801 41.5063 4.4829 41.4461 5.16626 41.4561C8.79284 41.5095 9.52233 45.4755 9.28471 48.3414C10.1832 47.6593 11.2923 47.0447 12.438 46.9181C15.8026 46.5463 16.9856 49.6088 15.9943 52.3627C18.5626 51.6686 22.3928 53.0476 20.7058 56.5256" stroke="#2F2965" stroke-width="2" stroke-miterlimit="1.5" stroke-linecap="round" stroke-linejoin="round"/>
<path d="M1.53369 53.2565C3.69498 53.1933 5.9316 53.9626 7.81723 55.2533C9.78187 56.5981 11.3654 58.5092 12.0858 60.6346" stroke="#2F2965" stroke-width="2" stroke-miterlimit="1.5" stroke-linecap="round" stroke-linejoin="round"/>
<path d="M9.27344 48.3328C11.758 44.8676 15.9527 39.4312 19.0943 35.7878C24.1052 29.9767 29.7103 23.3225 34.963 17.7324" stroke="#2F2965" stroke-width="2" stroke-miterlimit="1.5" stroke-linecap="round" stroke-linejoin="round"/>
<path fill-rule="evenodd" clip-rule="evenodd" d="M15.9976 52.3588C24.3122 43.342 32.4249 32.1116 41.1239 23.4551L15.9976 52.3588Z" fill="white"/>
<path d="M15.9976 52.3588C24.3122 43.342 32.425 32.1116 41.1239 23.4551" stroke="#2F2965" stroke-width="2" stroke-miterlimit="1.5" stroke-linecap="round" stroke-linejoin="round"/>
</svg>
