<svg width="608" height="480" viewBox="0 0 608 480" fill="none" xmlns="http://www.w3.org/2000/svg">
<path d="M44.3951 165.116C21.5094 87.7311 75.5983 8.88693 156.034 2.38273C175.419 0.815166 194.906 3.71729 212.993 10.8657L217.671 12.7143C250.787 25.802 287.5 26.5739 321.136 14.8895L331.667 11.2314C352.987 3.82541 375.619 0.952381 398.113 2.79618L456.543 7.58548C507.654 11.7749 547 55.3386 547 106.621C547 126.203 553.058 145.591 564.343 161.593C589.878 197.803 586.956 246.864 557.303 279.787L488.639 356.022C480.653 364.889 474.807 375.47 471.551 386.95C463.029 417.004 437.4 439.077 406.415 443.049L378.147 446.673C353.636 449.816 328.75 445.39 306.826 433.989L283.514 421.867C256.149 407.638 224.012 405.766 195.181 416.724C119.636 445.434 40.4314 384.178 49.223 303.841L55.826 243.504C57.9211 224.359 56.1872 204.989 50.7254 186.521L44.3951 165.116Z" fill="#EFFEF7"/>
<path d="M468.375 363.266C468.375 366.441 397.114 369 309.301 369C221.487 369 150.215 366.441 150.215 363.266C150.215 360.092 221.476 357.544 309.301 357.544C397.125 357.544 468.375 360.103 468.375 363.266Z" fill="#92E3A9"/>
<path opacity="0.6" d="M468.375 363.266C468.375 366.441 397.114 369 309.301 369C221.487 369 150.215 366.441 150.215 363.266C150.215 360.092 221.476 357.544 309.301 357.544C397.125 357.544 468.375 360.103 468.375 363.266Z" fill="white"/>
<path d="M158.831 184.551C158.896 184.551 158.086 180.524 157.999 180.233C157.071 177.36 153.583 172.351 150.193 172.351C149.631 172.368 149.078 172.504 148.572 172.748C148.065 172.993 147.615 173.341 147.252 173.771C146.888 174.201 146.619 174.702 146.462 175.242C146.305 175.782 146.263 176.349 146.338 176.907C146.587 179.282 148.725 181.312 150.657 182.478C152.925 183.893 158.831 184.551 158.831 184.551Z" fill="#92E3A9"/>
<path d="M165.385 157.429C162.2 158.574 160.624 164.469 160.721 167.492C160.721 167.751 161.326 171.811 161.39 171.811H161.455C161.196 172.739 160.926 173.733 160.656 174.834C160.181 176.864 159.663 179.153 159.263 181.701C158.8 184.431 158.497 187.185 158.356 189.95C158.189 193.049 158.294 196.156 158.669 199.236C158.673 199.272 158.673 199.308 158.669 199.344C158.259 198.448 157.007 195.975 156.888 195.791C155.225 193.265 150.539 189.313 147.268 190.252C146.731 190.418 146.236 190.694 145.813 191.063C145.391 191.432 145.05 191.886 144.814 192.394C144.578 192.903 144.451 193.456 144.442 194.017C144.434 194.578 144.543 195.135 144.763 195.651C145.626 197.886 148.218 199.268 150.388 199.894C152.839 200.585 158.302 199.765 158.734 199.7C159.202 202.821 159.873 205.908 160.742 208.942C161.25 210.713 161.822 212.484 162.384 214.244C162.006 213.477 161.649 212.797 161.595 212.711C159.933 210.184 155.247 206.232 151.975 207.172C151.439 207.337 150.943 207.613 150.521 207.982C150.098 208.351 149.758 208.805 149.522 209.314C149.285 209.823 149.159 210.375 149.15 210.937C149.141 211.498 149.25 212.054 149.47 212.57C150.334 214.795 152.925 216.187 155.096 216.803C157.266 217.418 161.973 216.803 163.204 216.652C163.431 217.321 163.658 218.001 163.895 218.671C164.975 221.91 166.141 225.149 167.134 228.323C167.491 229.403 167.793 230.569 168.106 231.692C167.771 231.012 167.469 230.44 167.415 230.364C165.763 227.827 161.066 223.886 157.806 224.825C157.268 224.989 156.772 225.264 156.348 225.633C155.924 226.001 155.582 226.455 155.345 226.964C155.108 227.473 154.98 228.026 154.971 228.588C154.961 229.15 155.07 229.707 155.29 230.224C156.154 232.448 158.756 233.841 160.926 234.456C163.096 235.072 167.34 234.532 168.808 234.327C169.099 235.482 169.391 236.648 169.618 237.782C169.747 238.559 169.931 239.293 170.028 240.092L170.352 242.403C170.503 243.882 170.676 245.405 170.784 246.851C170.87 247.866 170.935 248.827 171 249.788C170.665 248.708 169.92 246.473 169.92 246.301C168.725 243.925 166.94 241.895 164.737 240.405C164.615 240.135 164.47 239.875 164.306 239.628C163.998 239.157 163.594 238.757 163.122 238.452C162.649 238.147 162.118 237.944 161.562 237.858C161.006 237.771 160.439 237.803 159.896 237.949C159.353 238.096 158.847 238.355 158.41 238.71C155.851 240.924 156.488 246.992 157.665 249.777C157.73 249.939 158.745 251.645 159.306 252.703L157.935 250.997C156.985 249.842 156.013 248.719 154.977 247.51C154.444 246.948 153.915 246.376 153.39 245.793C152.871 245.21 152.256 244.66 151.684 244.076C150.323 242.77 148.887 241.507 147.365 240.276C148.38 239.444 151.91 236.464 152.925 234.435C153.94 232.405 154.664 229.565 153.606 227.416C153.373 226.905 153.035 226.449 152.615 226.076C152.195 225.704 151.701 225.424 151.165 225.255C150.629 225.086 150.064 225.032 149.506 225.095C148.948 225.159 148.41 225.339 147.926 225.624C145.054 227.416 144.763 233.517 145.508 236.421C145.508 236.605 146.328 238.656 146.771 239.768C145.875 239.023 144.989 238.289 144.061 237.609C141.383 235.547 138.662 233.538 135.855 231.519L133.339 229.651C133.696 229.36 137.971 225.905 139.116 223.627C140.131 221.608 140.854 218.757 139.796 216.619C139.565 216.106 139.227 215.647 138.807 215.272C138.386 214.898 137.891 214.616 137.354 214.446C136.817 214.276 136.25 214.221 135.69 214.285C135.131 214.348 134.591 214.53 134.106 214.816C131.245 216.619 130.953 222.709 131.698 225.613C131.752 225.829 132.864 228.766 133.188 229.5C131.342 228.129 129.517 226.747 127.789 225.311C125.427 223.376 123.191 221.292 121.095 219.07C121.257 218.941 125.738 215.345 126.904 213.024C127.919 211.005 128.642 208.154 127.584 206.006C127.351 205.497 127.013 205.043 126.593 204.673C126.173 204.303 125.68 204.025 125.145 203.857C124.611 203.689 124.048 203.635 123.492 203.698C122.935 203.761 122.399 203.941 121.916 204.224C119.044 206.027 118.763 212.128 119.497 215.021C119.551 215.216 120.393 217.461 120.825 218.509L120.663 218.617C118.612 216.323 116.769 213.852 115.157 211.231C114.261 209.806 113.472 208.381 112.738 206.988C113.645 206.405 117.737 203.749 119.022 201.719C120.307 199.689 121.29 197.066 120.469 194.82C120.293 194.292 120.01 193.807 119.636 193.395C119.263 192.983 118.808 192.653 118.3 192.427C117.792 192.2 117.243 192.082 116.687 192.079C116.131 192.077 115.58 192.19 115.07 192.412C112.026 193.88 111.065 199.97 111.486 202.907C111.486 203.069 111.918 204.699 112.242 205.876C111.918 205.25 111.572 204.591 111.281 203.976C110.201 201.676 109.283 199.495 108.527 197.562C108.106 196.482 107.739 195.403 107.448 194.496C108.031 193.47 110.352 189.27 110.568 186.938C110.784 184.606 110.438 181.766 108.678 180.146C108.277 179.752 107.797 179.446 107.269 179.249C106.742 179.052 106.179 178.968 105.617 179.003C105.055 179.037 104.506 179.19 104.007 179.45C103.508 179.71 103.069 180.073 102.718 180.513C100.699 183.224 102.632 189.022 104.381 191.483C104.532 191.699 107.275 194.723 107.307 194.723V194.658C107.61 195.576 107.933 196.547 108.322 197.616C109.046 199.57 109.877 201.773 110.946 204.094C112.067 206.628 113.336 209.094 114.746 211.48C116.319 214.154 118.125 216.683 120.145 219.038L120.221 219.113C119.378 218.595 116.981 217.224 116.776 217.137C114.001 215.939 107.923 215.27 105.698 217.818C105.341 218.252 105.079 218.757 104.93 219.299C104.78 219.841 104.747 220.409 104.831 220.965C104.916 221.521 105.116 222.054 105.42 222.527C105.724 223 106.124 223.404 106.595 223.713C108.538 225.095 111.475 224.793 113.624 224.145C116.053 223.378 120.102 219.675 120.48 219.383C122.592 221.73 124.857 223.934 127.26 225.98C128.653 227.179 130.089 228.345 131.579 229.5C130.834 229.079 130.165 228.701 130.068 228.658C127.293 227.46 121.225 226.79 119.001 229.338C118.641 229.771 118.377 230.275 118.226 230.817C118.074 231.36 118.039 231.928 118.123 232.484C118.207 233.041 118.407 233.573 118.711 234.047C119.014 234.521 119.415 234.925 119.886 235.234C121.84 236.616 124.766 236.313 126.926 235.665C129.085 235.018 132.659 231.886 133.598 231.055L135.283 232.372C138.004 234.456 140.681 236.518 143.327 238.624C144.244 239.369 145.119 240.125 146.004 240.891C145.346 240.513 144.784 240.2 144.687 240.157C141.912 238.969 135.844 238.289 133.62 240.848C133.26 241.281 132.996 241.785 132.845 242.327C132.694 242.869 132.659 243.437 132.742 243.994C132.826 244.551 133.026 245.083 133.33 245.557C133.634 246.031 134.034 246.435 134.505 246.743C136.46 248.125 139.386 247.823 141.545 247.164C143.705 246.506 146.944 243.688 148.023 242.716C148.898 243.515 149.783 244.325 150.604 245.145C151.144 245.718 151.684 246.225 152.223 246.841L153.767 248.6C154.718 249.745 155.689 250.922 156.586 252.066C157.212 252.865 157.795 253.632 158.389 254.399C157.482 253.654 155.679 252.239 155.506 252.12C152.947 250.512 147.052 248.935 144.46 251.116C144.042 251.492 143.708 251.951 143.479 252.465C143.25 252.978 143.131 253.534 143.131 254.096C143.131 254.658 143.25 255.214 143.479 255.728C143.708 256.241 144.042 256.701 144.46 257.076C146.177 258.739 149.114 258.912 151.349 258.566C153.8 258.188 158.248 255.327 158.799 254.928C159.771 256.202 160.699 257.454 161.563 258.642C164.554 262.777 166.886 266.34 168.484 268.845L168.646 269.104L170.719 268.1L170.395 267.604C168.722 265.109 166.292 261.568 163.172 257.454C162.2 256.148 161.12 254.787 160.008 253.384C161.163 252.122 162.245 250.796 163.247 249.41C165.623 250.339 170.579 250.371 171.216 250.371C171.324 251.98 171.41 253.535 171.464 255.003C171.68 260.11 171.658 264.364 171.615 267.334C171.615 267.452 171.615 267.56 171.615 267.679L173.893 266.599C173.893 263.641 173.775 259.646 173.483 254.917C173.375 253.297 173.235 251.559 173.084 249.777C173.71 249.626 178.86 248.298 180.804 246.743C182.574 245.34 184.431 243.051 184.367 240.665C184.371 240.102 184.257 239.545 184.032 239.03C183.807 238.515 183.475 238.053 183.06 237.674C182.644 237.295 182.154 237.008 181.62 236.831C181.086 236.654 180.521 236.592 179.961 236.648C176.593 237.08 173.785 242.489 173.235 245.469C173.235 245.642 173.051 247.629 172.986 248.806C172.922 248.082 172.857 247.38 172.781 246.646C172.63 245.167 172.436 243.699 172.241 242.111C172.112 241.356 171.982 240.578 171.864 239.801C171.745 239.023 171.54 238.224 171.378 237.436C170.967 235.59 170.471 233.744 169.92 231.897C171.216 231.768 175.815 231.228 177.78 230.094C179.745 228.96 181.916 226.995 182.218 224.62C182.307 224.065 182.278 223.498 182.133 222.955C181.988 222.412 181.73 221.906 181.377 221.469C181.024 221.032 180.582 220.675 180.082 220.419C179.581 220.164 179.033 220.017 178.471 219.988C175.081 219.902 171.475 224.825 170.482 227.686C170.417 227.859 169.931 229.986 169.693 231.163C169.348 230.083 169.024 228.95 168.614 227.837C167.534 224.598 166.314 221.435 165.126 218.228L164.046 215.28C164.511 215.28 169.985 214.719 172.187 213.445C174.142 212.365 176.323 210.346 176.625 207.971C176.715 207.416 176.688 206.848 176.543 206.304C176.399 205.761 176.142 205.254 175.788 204.816C175.434 204.379 174.992 204.022 174.491 203.767C173.99 203.512 173.44 203.366 172.878 203.339C169.488 203.252 165.882 208.187 164.889 211.037C164.813 211.253 164.122 214.276 163.982 215.108C163.204 212.948 162.448 210.789 161.822 208.629C160.92 205.711 160.199 202.74 159.663 199.732C159.879 199.732 165.601 199.193 167.858 197.897C169.812 196.763 171.993 194.787 172.295 192.412C172.384 191.856 172.355 191.288 172.209 190.745C172.064 190.201 171.805 189.694 171.451 189.257C171.096 188.82 170.654 188.463 170.152 188.208C169.65 187.954 169.1 187.808 168.538 187.78C165.159 187.694 161.552 192.628 160.559 195.478C160.494 195.662 159.965 198.005 159.738 199.117H159.544C159.098 196.076 158.925 193.001 159.026 189.929C159.026 188.244 159.188 186.625 159.35 185.059C160.429 185.059 165.342 185.059 167.501 184.13C169.661 183.202 171.95 181.496 172.511 179.175C172.661 178.631 172.694 178.062 172.609 177.504C172.523 176.946 172.321 176.413 172.015 175.939C171.71 175.465 171.307 175.061 170.835 174.754C170.362 174.446 169.829 174.242 169.272 174.154C165.914 173.7 161.79 178.203 160.494 180.924C160.419 181.075 159.868 182.662 159.479 183.828C159.555 183.116 159.63 182.392 159.728 181.669C160.073 179.131 160.537 176.832 160.969 174.791C161.228 173.636 161.477 172.631 161.725 171.627C162.805 171.087 167.037 168.874 168.495 167.071C169.952 165.268 171.227 162.687 170.654 160.366C170.535 159.807 170.298 159.28 169.959 158.821C169.619 158.361 169.186 157.979 168.687 157.701C168.188 157.423 167.635 157.255 167.065 157.208C166.496 157.161 165.923 157.236 165.385 157.429Z" fill="#92E3A9"/>
<path d="M104.186 209.622C106.832 209.514 112.122 206.793 112.133 206.793C112.144 206.793 109.283 203.856 109.078 203.684C106.713 201.805 101.034 199.548 98.2156 201.427C97.7563 201.751 97.3703 202.168 97.0826 202.65C96.795 203.133 96.6121 203.671 96.546 204.229C96.4798 204.787 96.5317 205.353 96.6985 205.889C96.8652 206.426 97.143 206.922 97.5137 207.344C99.0362 209.19 101.962 209.708 104.186 209.622Z" fill="#92E3A9"/>
<g opacity="0.5">
<path d="M158.831 184.551C158.896 184.551 158.086 180.524 157.999 180.233C157.071 177.36 153.583 172.351 150.193 172.351C149.631 172.368 149.078 172.504 148.572 172.748C148.065 172.993 147.615 173.341 147.252 173.771C146.888 174.201 146.619 174.702 146.462 175.242C146.305 175.782 146.263 176.349 146.338 176.907C146.587 179.282 148.725 181.312 150.657 182.478C152.925 183.893 158.831 184.551 158.831 184.551Z" fill="white"/>
<path d="M165.385 157.429C162.2 158.574 160.624 164.469 160.721 167.492C160.721 167.751 161.326 171.811 161.39 171.811H161.455C161.196 172.739 160.926 173.733 160.656 174.834C160.181 176.864 159.663 179.153 159.263 181.701C158.8 184.431 158.497 187.185 158.356 189.95C158.189 193.049 158.294 196.156 158.669 199.236C158.673 199.272 158.673 199.308 158.669 199.344C158.259 198.448 157.007 195.975 156.888 195.791C155.225 193.265 150.539 189.313 147.268 190.252C146.731 190.418 146.236 190.694 145.813 191.063C145.391 191.432 145.05 191.886 144.814 192.394C144.578 192.903 144.451 193.456 144.442 194.017C144.434 194.578 144.543 195.135 144.763 195.651C145.626 197.886 148.218 199.268 150.388 199.894C152.839 200.585 158.302 199.765 158.734 199.7C159.202 202.821 159.873 205.908 160.742 208.942C161.25 210.713 161.822 212.484 162.384 214.244C162.006 213.477 161.649 212.797 161.595 212.711C159.933 210.184 155.247 206.232 151.975 207.172C151.439 207.337 150.943 207.613 150.521 207.982C150.098 208.351 149.758 208.805 149.522 209.314C149.285 209.823 149.159 210.375 149.15 210.937C149.141 211.498 149.25 212.054 149.47 212.57C150.334 214.795 152.925 216.187 155.096 216.803C157.266 217.418 161.973 216.803 163.204 216.652C163.431 217.321 163.658 218.001 163.895 218.671C164.975 221.91 166.141 225.149 167.134 228.323C167.491 229.403 167.793 230.569 168.106 231.692C167.771 231.012 167.469 230.44 167.415 230.364C165.763 227.827 161.066 223.886 157.806 224.825C157.268 224.989 156.772 225.264 156.348 225.633C155.924 226.001 155.582 226.455 155.345 226.964C155.108 227.473 154.98 228.026 154.971 228.588C154.961 229.15 155.07 229.707 155.29 230.224C156.154 232.448 158.756 233.841 160.926 234.456C163.096 235.072 167.34 234.532 168.808 234.327C169.099 235.482 169.391 236.648 169.618 237.782C169.747 238.559 169.931 239.293 170.028 240.092L170.352 242.403C170.503 243.882 170.676 245.405 170.784 246.851C170.87 247.866 170.935 248.827 171 249.788C170.665 248.708 169.92 246.473 169.92 246.301C168.725 243.925 166.94 241.895 164.737 240.405C164.615 240.135 164.47 239.875 164.306 239.628C163.998 239.157 163.594 238.757 163.122 238.452C162.649 238.147 162.118 237.944 161.562 237.858C161.006 237.771 160.439 237.803 159.896 237.949C159.353 238.096 158.847 238.355 158.41 238.71C155.851 240.924 156.488 246.992 157.665 249.777C157.73 249.939 158.745 251.645 159.306 252.703L157.935 250.997C156.985 249.842 156.013 248.719 154.977 247.51C154.444 246.948 153.915 246.376 153.39 245.793C152.871 245.21 152.256 244.66 151.684 244.076C150.323 242.77 148.887 241.507 147.365 240.276C148.38 239.444 151.91 236.464 152.925 234.435C153.94 232.405 154.664 229.565 153.606 227.416C153.373 226.905 153.035 226.449 152.615 226.076C152.195 225.704 151.701 225.424 151.165 225.255C150.629 225.086 150.064 225.032 149.506 225.095C148.948 225.159 148.41 225.339 147.926 225.624C145.054 227.416 144.763 233.517 145.508 236.421C145.508 236.605 146.328 238.656 146.771 239.768C145.875 239.023 144.989 238.289 144.061 237.609C141.383 235.547 138.662 233.538 135.855 231.519L133.339 229.651C133.696 229.36 137.971 225.905 139.116 223.627C140.131 221.608 140.854 218.757 139.796 216.619C139.565 216.106 139.227 215.647 138.807 215.272C138.386 214.898 137.891 214.616 137.354 214.446C136.817 214.276 136.25 214.221 135.69 214.285C135.131 214.348 134.591 214.53 134.106 214.816C131.245 216.619 130.953 222.709 131.698 225.613C131.752 225.829 132.864 228.766 133.188 229.5C131.342 228.129 129.517 226.747 127.789 225.311C125.427 223.376 123.191 221.292 121.095 219.07C121.257 218.941 125.738 215.345 126.904 213.024C127.919 211.005 128.642 208.154 127.584 206.006C127.351 205.497 127.013 205.043 126.593 204.673C126.173 204.303 125.68 204.025 125.145 203.857C124.611 203.689 124.048 203.635 123.492 203.698C122.935 203.761 122.399 203.941 121.916 204.224C119.044 206.027 118.763 212.128 119.497 215.021C119.551 215.216 120.393 217.461 120.825 218.509L120.663 218.617C118.612 216.323 116.769 213.852 115.157 211.231C114.261 209.806 113.472 208.381 112.738 206.988C113.645 206.405 117.737 203.749 119.022 201.719C120.307 199.689 121.29 197.066 120.469 194.82C120.293 194.292 120.01 193.807 119.636 193.395C119.263 192.983 118.808 192.653 118.3 192.427C117.792 192.2 117.243 192.082 116.687 192.079C116.131 192.077 115.58 192.19 115.07 192.412C112.026 193.88 111.065 199.97 111.486 202.907C111.486 203.069 111.918 204.699 112.242 205.876C111.918 205.25 111.572 204.591 111.281 203.976C110.201 201.676 109.283 199.495 108.527 197.562C108.106 196.482 107.739 195.403 107.448 194.496C108.031 193.47 110.352 189.27 110.568 186.938C110.784 184.606 110.438 181.766 108.678 180.146C108.277 179.752 107.797 179.446 107.269 179.249C106.742 179.052 106.179 178.968 105.617 179.003C105.055 179.037 104.506 179.19 104.007 179.45C103.508 179.71 103.069 180.073 102.718 180.513C100.699 183.224 102.632 189.022 104.381 191.483C104.532 191.699 107.275 194.723 107.307 194.723V194.658C107.61 195.576 107.933 196.547 108.322 197.616C109.046 199.57 109.877 201.773 110.946 204.094C112.067 206.628 113.336 209.094 114.746 211.48C116.319 214.154 118.125 216.683 120.145 219.038L120.221 219.113C119.378 218.595 116.981 217.224 116.776 217.137C114.001 215.939 107.923 215.27 105.698 217.818C105.341 218.252 105.079 218.757 104.93 219.299C104.78 219.841 104.747 220.409 104.831 220.965C104.916 221.521 105.116 222.054 105.42 222.527C105.724 223 106.124 223.404 106.595 223.713C108.538 225.095 111.475 224.793 113.624 224.145C116.053 223.378 120.102 219.675 120.48 219.383C122.592 221.73 124.857 223.934 127.26 225.98C128.653 227.179 130.089 228.345 131.579 229.5C130.834 229.079 130.165 228.701 130.068 228.658C127.293 227.46 121.225 226.79 119.001 229.338C118.641 229.771 118.377 230.275 118.226 230.817C118.074 231.36 118.039 231.928 118.123 232.484C118.207 233.041 118.407 233.573 118.711 234.047C119.014 234.521 119.415 234.925 119.886 235.234C121.84 236.616 124.766 236.313 126.926 235.665C129.085 235.018 132.659 231.886 133.598 231.055L135.283 232.372C138.004 234.456 140.681 236.518 143.327 238.624C144.244 239.369 145.119 240.125 146.004 240.891C145.346 240.513 144.784 240.2 144.687 240.157C141.912 238.969 135.844 238.289 133.62 240.848C133.26 241.281 132.996 241.785 132.845 242.327C132.694 242.869 132.659 243.437 132.742 243.994C132.826 244.551 133.026 245.083 133.33 245.557C133.634 246.031 134.034 246.435 134.505 246.743C136.46 248.125 139.386 247.823 141.545 247.164C143.705 246.506 146.944 243.688 148.023 242.716C148.898 243.515 149.783 244.325 150.604 245.145C151.144 245.718 151.684 246.225 152.223 246.841L153.767 248.6C154.718 249.745 155.689 250.922 156.586 252.066C157.212 252.865 157.795 253.632 158.389 254.399C157.482 253.654 155.679 252.239 155.506 252.12C152.947 250.512 147.052 248.935 144.46 251.116C144.042 251.492 143.708 251.951 143.479 252.465C143.25 252.978 143.131 253.534 143.131 254.096C143.131 254.658 143.25 255.214 143.479 255.728C143.708 256.241 144.042 256.701 144.46 257.076C146.177 258.739 149.114 258.912 151.349 258.566C153.8 258.188 158.248 255.327 158.799 254.928C159.771 256.202 160.699 257.454 161.563 258.642C164.554 262.777 166.886 266.34 168.484 268.845L168.646 269.104L170.719 268.1L170.395 267.604C168.722 265.109 166.292 261.568 163.172 257.454C162.2 256.148 161.12 254.787 160.008 253.384C161.163 252.122 162.245 250.796 163.247 249.41C165.623 250.339 170.579 250.371 171.216 250.371C171.324 251.98 171.41 253.535 171.464 255.003C171.68 260.11 171.658 264.364 171.615 267.334C171.615 267.452 171.615 267.56 171.615 267.679L173.893 266.599C173.893 263.641 173.775 259.646 173.483 254.917C173.375 253.297 173.235 251.559 173.084 249.777C173.71 249.626 178.86 248.298 180.804 246.743C182.574 245.34 184.431 243.051 184.367 240.665C184.371 240.102 184.257 239.545 184.032 239.03C183.807 238.515 183.475 238.053 183.06 237.674C182.644 237.295 182.154 237.008 181.62 236.831C181.086 236.654 180.521 236.592 179.961 236.648C176.593 237.08 173.785 242.489 173.235 245.469C173.235 245.642 173.051 247.629 172.986 248.806C172.922 248.082 172.857 247.38 172.781 246.646C172.63 245.167 172.436 243.699 172.241 242.111C172.112 241.356 171.982 240.578 171.864 239.801C171.745 239.023 171.54 238.224 171.378 237.436C170.967 235.59 170.471 233.744 169.92 231.897C171.216 231.768 175.815 231.228 177.78 230.094C179.745 228.96 181.916 226.995 182.218 224.62C182.307 224.065 182.278 223.498 182.133 222.955C181.988 222.412 181.73 221.906 181.377 221.469C181.024 221.032 180.582 220.675 180.082 220.419C179.581 220.164 179.033 220.017 178.471 219.988C175.081 219.902 171.475 224.825 170.482 227.686C170.417 227.859 169.931 229.986 169.693 231.163C169.348 230.083 169.024 228.95 168.614 227.837C167.534 224.598 166.314 221.435 165.126 218.228L164.046 215.28C164.511 215.28 169.985 214.719 172.187 213.445C174.142 212.365 176.323 210.346 176.625 207.971C176.715 207.416 176.688 206.848 176.543 206.304C176.399 205.761 176.142 205.254 175.788 204.816C175.434 204.379 174.992 204.022 174.491 203.767C173.99 203.512 173.44 203.366 172.878 203.339C169.488 203.252 165.882 208.187 164.889 211.037C164.813 211.253 164.122 214.276 163.982 215.108C163.204 212.948 162.448 210.789 161.822 208.629C160.92 205.711 160.199 202.74 159.663 199.732C159.879 199.732 165.601 199.193 167.858 197.897C169.812 196.763 171.993 194.787 172.295 192.412C172.384 191.856 172.355 191.288 172.209 190.745C172.064 190.201 171.805 189.694 171.451 189.257C171.096 188.82 170.654 188.463 170.152 188.208C169.65 187.954 169.1 187.808 168.538 187.78C165.159 187.694 161.552 192.628 160.559 195.478C160.494 195.662 159.965 198.005 159.738 199.117H159.544C159.098 196.076 158.925 193.001 159.026 189.929C159.026 188.244 159.188 186.625 159.35 185.059C160.429 185.059 165.342 185.059 167.501 184.13C169.661 183.202 171.95 181.496 172.511 179.175C172.661 178.631 172.694 178.062 172.609 177.504C172.523 176.946 172.321 176.413 172.015 175.939C171.71 175.465 171.307 175.061 170.835 174.754C170.362 174.446 169.829 174.242 169.272 174.154C165.914 173.7 161.79 178.203 160.494 180.924C160.419 181.075 159.868 182.662 159.479 183.828C159.555 183.116 159.63 182.392 159.728 181.669C160.073 179.131 160.537 176.832 160.969 174.791C161.228 173.636 161.477 172.631 161.725 171.627C162.805 171.087 167.037 168.874 168.495 167.071C169.952 165.268 171.227 162.687 170.654 160.366C170.535 159.807 170.298 159.28 169.959 158.821C169.619 158.361 169.186 157.979 168.687 157.701C168.188 157.423 167.635 157.255 167.065 157.208C166.496 157.161 165.923 157.236 165.385 157.429Z" fill="white"/>
<path d="M104.186 209.622C106.832 209.514 112.122 206.793 112.133 206.793C112.144 206.793 109.283 203.856 109.078 203.684C106.713 201.805 101.034 199.548 98.2156 201.427C97.7563 201.751 97.3703 202.168 97.0826 202.65C96.795 203.133 96.6121 203.671 96.546 204.229C96.4798 204.787 96.5317 205.353 96.6985 205.889C96.8652 206.426 97.143 206.922 97.5137 207.344C99.0362 209.19 101.962 209.708 104.186 209.622Z" fill="white"/>
</g>
<path d="M135.077 275.863C135.077 275.863 151.133 237.166 160.116 238.85C169.099 240.535 144.708 300.545 144.708 300.545C144.708 300.545 172.954 247.261 192.216 247.261C211.478 247.261 185.155 306.149 160.764 325.778C160.764 325.778 199.277 284.274 221.757 293.257C244.237 302.241 176.808 344.296 176.808 344.296C176.808 344.296 215.97 331.954 211.478 341.488C206.987 351.022 194.818 352.707 194.818 352.707L239.087 354.952H85L119.67 351.584C119.67 351.584 83.7151 333.639 93.3246 326.34C102.934 319.041 124.14 334.751 124.14 334.751C124.14 334.751 87.5481 294.369 94.6095 279.232C101.671 264.094 133.134 306.711 133.134 306.711C133.134 306.711 107.447 252.314 112.619 242.77C117.791 233.225 135.077 275.863 135.077 275.863Z" fill="#92E3A9"/>
<path opacity="0.4" d="M135.077 275.863C135.077 275.863 151.133 237.166 160.116 238.85C169.099 240.535 144.708 300.545 144.708 300.545C144.708 300.545 172.954 247.261 192.216 247.261C211.478 247.261 185.155 306.149 160.764 325.778C160.764 325.778 199.277 284.274 221.757 293.257C244.237 302.241 176.808 344.296 176.808 344.296C176.808 344.296 215.97 331.954 211.478 341.488C206.987 351.022 194.818 352.707 194.818 352.707L239.087 354.952H85L119.67 351.584C119.67 351.584 83.7151 333.639 93.3246 326.34C102.934 319.041 124.14 334.751 124.14 334.751C124.14 334.751 87.5481 294.369 94.6095 279.232C101.671 264.094 133.134 306.711 133.134 306.711C133.134 306.711 107.447 252.314 112.619 242.77C117.791 233.225 135.077 275.863 135.077 275.863Z" fill="white"/>
<path d="M129.949 277.904C144.071 319.635 144.071 349.166 144.071 349.166C144.071 349.166 127.379 349.814 110.039 336.976" stroke="#263238" stroke-linecap="round" stroke-linejoin="round"/>
<path d="M137.01 300.373C139.917 287.897 143.779 275.664 148.563 263.781" stroke="#263238" stroke-linecap="round" stroke-linejoin="round"/>
<path d="M178.741 275.982L142.786 329.267C142.786 329.267 118.385 308.752 110.039 297.166" stroke="#263238" stroke-linecap="round" stroke-linejoin="round"/>
<path d="M143.424 342.104C143.424 342.104 181.3 324.127 196.719 313.858" stroke="#263238" stroke-linecap="round" stroke-linejoin="round"/>
<path d="M458.939 184.551C458.874 184.551 459.695 180.524 459.77 180.233C460.699 177.36 464.197 172.351 467.576 172.351C468.139 172.368 468.691 172.504 469.198 172.748C469.705 172.993 470.154 173.341 470.518 173.771C470.881 174.201 471.15 174.702 471.308 175.242C471.465 175.782 471.507 176.349 471.431 176.907C471.183 179.282 469.045 181.312 467.112 182.478C464.845 183.893 458.939 184.551 458.939 184.551Z" fill="#92E3A9"/>
<path d="M452.385 157.429C455.57 158.573 457.157 164.468 457.049 167.492C457.049 167.751 456.445 171.811 456.391 171.811H456.326C456.574 172.739 456.844 173.732 457.114 174.834C457.589 176.864 458.107 179.153 458.507 181.701C458.97 184.43 459.273 187.185 459.414 189.95C459.586 193.048 459.481 196.156 459.101 199.235C459.097 199.271 459.097 199.307 459.101 199.343C459.522 198.447 460.774 195.975 460.882 195.791C462.545 193.265 467.231 189.313 470.503 190.252C471.04 190.416 471.536 190.691 471.96 191.06C472.384 191.429 472.725 191.882 472.961 192.392C473.197 192.901 473.324 193.455 473.332 194.016C473.34 194.578 473.229 195.135 473.008 195.651C472.144 197.886 469.552 199.268 467.382 199.894C464.931 200.585 459.468 199.764 459.036 199.7C458.573 202.822 457.902 205.909 457.028 208.942C456.524 210.713 455.977 212.48 455.387 214.243C455.764 213.477 456.121 212.797 456.175 212.71C457.838 210.184 462.534 206.232 465.795 207.171C466.332 207.335 466.829 207.61 467.252 207.979C467.676 208.348 468.017 208.802 468.254 209.311C468.49 209.82 468.616 210.374 468.624 210.935C468.632 211.497 468.522 212.054 468.3 212.57C467.436 214.794 464.845 216.187 462.675 216.802C460.504 217.418 455.797 216.802 454.566 216.651L453.886 218.67C452.806 221.909 451.629 225.149 450.647 228.323C450.29 229.403 449.977 230.569 449.664 231.692C450.01 231.011 450.301 230.439 450.355 230.364C452.018 227.826 456.704 223.885 459.965 224.825C460.502 224.989 460.998 225.264 461.422 225.633C461.846 226.001 462.188 226.455 462.425 226.964C462.662 227.473 462.79 228.026 462.799 228.588C462.809 229.149 462.7 229.706 462.48 230.223C461.617 232.447 459.014 233.84 456.844 234.456C454.674 235.071 450.431 234.531 448.962 234.326C448.671 235.482 448.39 236.648 448.163 237.781C448.023 238.559 447.839 239.293 447.742 240.092L447.418 242.402C447.267 243.882 447.094 245.404 446.986 246.851C446.9 247.866 446.835 248.827 446.77 249.788C447.116 248.708 447.85 246.473 447.904 246.3C449.103 243.927 450.887 241.898 453.087 240.405C453.209 240.132 453.357 239.872 453.529 239.628C453.835 239.156 454.237 238.754 454.709 238.448C455.18 238.142 455.711 237.939 456.266 237.853C456.822 237.766 457.389 237.798 457.932 237.945C458.474 238.093 458.979 238.354 459.414 238.71C461.984 240.923 461.336 246.991 460.159 249.777C460.094 249.939 459.133 251.645 458.518 252.703C458.982 252.131 459.414 251.623 459.9 250.997C460.839 249.842 461.811 248.719 462.847 247.51L464.435 245.793C464.953 245.21 465.579 244.659 466.151 244.076C467.501 242.77 468.937 241.506 470.416 240.275C469.412 239.444 465.871 236.464 464.856 234.434C463.841 232.404 463.117 229.565 464.175 227.416C464.408 226.903 464.746 226.445 465.167 226.072C465.588 225.699 466.083 225.418 466.62 225.249C467.157 225.08 467.724 225.026 468.283 225.091C468.842 225.155 469.381 225.337 469.866 225.624C472.727 227.416 473.018 233.516 472.273 236.421C472.273 236.604 471.453 238.656 471.01 239.768C471.906 239.023 472.792 238.289 473.72 237.609C476.398 235.546 479.173 233.538 481.926 231.519L484.442 229.651C484.085 229.359 479.81 225.904 478.665 223.626C477.661 221.607 476.927 218.757 477.985 216.619C478.216 216.105 478.554 215.646 478.974 215.272C479.395 214.897 479.89 214.616 480.427 214.446C480.964 214.276 481.531 214.221 482.091 214.284C482.65 214.348 483.19 214.529 483.675 214.816C486.547 216.619 486.828 222.708 486.083 225.613C486.029 225.829 484.917 228.766 484.604 229.5C486.439 228.129 488.264 226.747 490.002 225.311C492.365 223.376 494.601 221.291 496.697 219.07C496.535 218.94 492.054 215.345 490.888 213.023C489.873 211.004 489.149 208.154 490.207 206.005C490.439 205.493 490.776 205.036 491.196 204.662C491.616 204.289 492.11 204.008 492.645 203.838C493.181 203.668 493.746 203.612 494.305 203.675C494.863 203.738 495.402 203.917 495.887 204.202C498.759 206.005 499.05 212.106 498.305 214.999C498.251 215.194 497.409 217.439 496.988 218.487C497.038 218.529 497.092 218.565 497.15 218.595C499.198 216.301 501.037 213.83 502.646 211.209C503.553 209.784 504.33 208.359 505.064 206.966C504.157 206.383 500.065 203.727 498.78 201.697C497.496 199.667 496.524 197.044 497.334 194.798C497.508 194.263 497.794 193.772 498.171 193.355C498.548 192.938 499.009 192.605 499.523 192.378C500.037 192.151 500.594 192.035 501.156 192.037C501.718 192.039 502.274 192.159 502.786 192.39C505.842 193.858 506.792 199.948 506.371 202.885C506.371 203.047 505.939 204.677 505.626 205.854C505.939 205.228 506.284 204.569 506.576 203.954C507.656 201.654 508.573 199.473 509.329 197.54C509.761 196.46 510.117 195.381 510.409 194.474C509.815 193.448 507.505 189.248 507.278 186.916C507.051 184.584 507.418 181.744 509.178 180.124C509.579 179.73 510.058 179.424 510.585 179.227C511.111 179.031 511.673 178.947 512.235 178.981C512.796 179.016 513.343 179.168 513.842 179.428C514.34 179.689 514.778 180.051 515.127 180.491C517.157 183.202 515.225 189 513.475 191.461C513.324 191.677 510.571 194.701 510.539 194.701V194.636C510.236 195.554 509.912 196.525 509.524 197.594C508.811 199.548 507.98 201.751 506.911 204.072C505.781 206.604 504.508 209.07 503.099 211.458C501.527 214.132 499.72 216.661 497.701 219.016L497.625 219.091C498.467 218.573 500.864 217.202 501.069 217.115C503.855 215.917 509.923 215.248 512.147 217.796C512.505 218.229 512.768 218.734 512.918 219.275C513.069 219.817 513.103 220.385 513.02 220.941C512.936 221.497 512.736 222.029 512.434 222.503C512.131 222.977 511.732 223.382 511.262 223.691C509.308 225.073 506.382 224.771 504.222 224.123C501.793 223.356 497.744 219.653 497.377 219.361C495.265 221.708 493 223.912 490.596 225.958C489.203 227.157 487.757 228.323 486.277 229.478C487.022 229.057 487.692 228.679 487.789 228.636C490.564 227.438 496.632 226.768 498.856 229.316C499.216 229.749 499.48 230.253 499.631 230.795C499.782 231.338 499.817 231.906 499.734 232.462C499.65 233.019 499.45 233.551 499.146 234.025C498.842 234.499 498.442 234.903 497.971 235.212C496.027 236.594 493.09 236.291 490.942 235.643C488.793 234.996 485.198 231.864 484.269 231.033C483.697 231.476 483.189 231.918 482.574 232.35C479.864 234.434 477.175 236.496 474.53 238.602C473.612 239.347 472.738 240.103 471.852 240.869L473.17 240.135C475.944 238.947 482.012 238.267 484.237 240.826C484.596 241.259 484.86 241.763 485.012 242.305C485.163 242.847 485.198 243.415 485.114 243.972C485.031 244.529 484.83 245.061 484.527 245.535C484.223 246.009 483.822 246.413 483.351 246.721C481.397 248.103 478.471 247.801 476.322 247.142C474.174 246.484 470.924 243.666 469.844 242.694C468.969 243.493 468.084 244.303 467.274 245.123C466.724 245.696 466.195 246.203 465.655 246.819L464.1 248.578C463.161 249.723 462.178 250.9 461.282 252.044C460.656 252.843 460.073 253.61 459.489 254.377C460.386 253.632 462.2 252.217 462.362 252.098C464.92 250.49 470.827 248.913 473.407 251.094C473.825 251.47 474.16 251.929 474.389 252.443C474.618 252.956 474.736 253.512 474.736 254.074C474.736 254.636 474.618 255.192 474.389 255.706C474.16 256.219 473.825 256.679 473.407 257.054C471.679 258.717 468.743 258.89 466.518 258.544C464.057 258.166 459.608 255.305 459.058 254.906C458.086 256.18 457.157 257.432 456.294 258.62C453.303 262.755 450.971 266.318 449.373 268.823C449.373 268.92 449.265 268.996 449.211 269.082L447.138 268.078L447.461 267.582C449.135 265.087 451.575 261.546 454.685 257.432C455.667 256.126 456.736 254.765 457.848 253.362C456.691 252.102 455.609 250.776 454.609 249.388C452.223 250.317 447.278 250.349 446.63 250.349C446.533 251.958 446.446 253.513 446.382 254.981C446.166 260.088 446.187 264.342 446.241 267.312V267.657L443.963 266.577C443.963 263.619 444.082 259.624 444.384 254.895C444.481 253.275 444.622 251.537 444.784 249.755C444.147 249.604 438.996 248.276 437.053 246.721C435.293 245.318 433.436 243.029 433.501 240.643C433.495 240.08 433.608 239.522 433.832 239.006C434.057 238.49 434.388 238.027 434.804 237.648C435.22 237.268 435.711 236.981 436.246 236.805C436.78 236.629 437.346 236.568 437.906 236.626C441.264 237.058 444.082 242.467 444.633 245.447C444.633 245.62 444.805 247.607 444.87 248.784C444.946 248.06 445 247.358 445.086 246.624C445.226 245.145 445.421 243.677 445.626 242.089C445.745 241.334 445.874 240.556 445.993 239.779C446.112 239.001 446.317 238.202 446.479 237.414C446.889 235.568 447.386 233.722 447.936 231.875C446.641 231.746 442.052 231.206 440.076 230.072C438.1 228.938 435.941 226.973 435.649 224.598C435.559 224.043 435.587 223.475 435.731 222.931C435.875 222.388 436.133 221.881 436.486 221.444C436.84 221.006 437.282 220.649 437.783 220.394C438.285 220.14 438.834 219.994 439.396 219.966C442.775 219.88 446.382 224.803 447.375 227.664C447.44 227.837 447.926 229.964 448.163 231.141C448.509 230.061 448.833 228.928 449.243 227.816C450.323 224.576 451.543 221.413 452.73 218.206C453.098 217.223 453.443 216.241 453.81 215.258C453.346 215.258 447.872 214.697 445.669 213.423C443.715 212.343 441.534 210.324 441.231 207.949C441.143 207.394 441.172 206.827 441.317 206.284C441.462 205.741 441.719 205.235 442.073 204.798C442.426 204.361 442.867 204.003 443.368 203.748C443.868 203.493 444.417 203.346 444.978 203.317C448.368 203.23 451.975 208.165 452.968 211.015C453.044 211.231 453.735 214.254 453.875 215.086C454.652 212.926 455.419 210.767 456.034 208.607C456.946 205.692 457.668 202.72 458.194 199.71C457.978 199.71 452.266 199.171 450.01 197.875C448.044 196.741 445.863 194.765 445.572 192.39C445.482 191.835 445.509 191.267 445.654 190.723C445.798 190.18 446.055 189.673 446.409 189.236C446.763 188.798 447.205 188.441 447.706 188.186C448.207 187.932 448.757 187.786 449.319 187.758C452.698 187.672 456.304 192.606 457.298 195.456C457.362 195.64 457.902 197.983 458.129 199.095H458.313C458.759 196.054 458.932 192.979 458.831 189.907C458.831 188.222 458.669 186.603 458.507 185.037C457.427 185.037 452.525 185.037 450.366 184.109C448.206 183.18 445.907 181.474 445.345 179.153C445.195 178.609 445.162 178.04 445.248 177.482C445.333 176.924 445.535 176.391 445.841 175.917C446.147 175.443 446.549 175.039 447.022 174.732C447.495 174.424 448.027 174.22 448.584 174.132C451.942 173.678 456.067 178.181 457.373 180.902C457.438 181.053 457.999 182.64 458.377 183.806C458.302 183.094 458.226 182.37 458.129 181.647C457.794 179.109 457.319 176.81 456.887 174.769C456.628 173.614 456.38 172.61 456.132 171.605C455.052 171.066 450.819 168.852 449.373 167.049C447.926 165.246 446.63 162.665 447.213 160.344C447.337 159.799 447.573 159.285 447.907 158.837C448.241 158.388 448.666 158.014 449.153 157.74C449.64 157.465 450.179 157.296 450.736 157.242C451.293 157.188 451.854 157.252 452.385 157.429Z" fill="#92E3A9"/>
<path d="M513.583 209.622C510.938 209.514 505.647 206.793 505.647 206.793C505.647 206.793 508.487 203.856 508.692 203.684C511.057 201.805 516.736 199.548 519.554 201.427C520.015 201.75 520.402 202.166 520.691 202.649C520.979 203.132 521.163 203.67 521.229 204.228C521.295 204.787 521.243 205.353 521.075 205.89C520.908 206.427 520.628 206.922 520.256 207.344C518.734 209.19 515.84 209.708 513.583 209.622Z" fill="#92E3A9"/>
<g opacity="0.5">
<path d="M458.939 184.551C458.874 184.551 459.695 180.524 459.77 180.233C460.699 177.36 464.197 172.351 467.576 172.351C468.139 172.368 468.691 172.504 469.198 172.748C469.705 172.993 470.154 173.341 470.518 173.771C470.881 174.201 471.15 174.702 471.308 175.242C471.465 175.782 471.507 176.349 471.431 176.907C471.183 179.282 469.045 181.312 467.112 182.478C464.845 183.893 458.939 184.551 458.939 184.551Z" fill="white"/>
<path d="M452.385 157.429C455.57 158.573 457.157 164.468 457.049 167.492C457.049 167.751 456.445 171.811 456.391 171.811H456.326C456.574 172.739 456.844 173.732 457.114 174.834C457.589 176.864 458.107 179.153 458.507 181.701C458.97 184.43 459.273 187.185 459.414 189.95C459.586 193.048 459.481 196.156 459.101 199.235C459.097 199.271 459.097 199.307 459.101 199.343C459.522 198.447 460.774 195.975 460.882 195.791C462.545 193.265 467.231 189.313 470.503 190.252C471.04 190.416 471.536 190.691 471.96 191.06C472.384 191.429 472.725 191.882 472.961 192.392C473.197 192.901 473.324 193.455 473.332 194.016C473.34 194.578 473.229 195.135 473.008 195.651C472.144 197.886 469.552 199.268 467.382 199.894C464.931 200.585 459.468 199.764 459.036 199.7C458.573 202.822 457.902 205.909 457.028 208.942C456.524 210.713 455.977 212.48 455.387 214.243C455.764 213.477 456.121 212.797 456.175 212.71C457.838 210.184 462.534 206.232 465.795 207.171C466.332 207.335 466.829 207.61 467.252 207.979C467.676 208.348 468.017 208.802 468.254 209.311C468.49 209.82 468.616 210.374 468.624 210.935C468.632 211.497 468.522 212.054 468.3 212.57C467.436 214.794 464.845 216.187 462.675 216.802C460.504 217.418 455.797 216.802 454.566 216.651L453.886 218.67C452.806 221.909 451.629 225.149 450.647 228.323C450.29 229.403 449.977 230.569 449.664 231.692C450.01 231.011 450.301 230.439 450.355 230.364C452.018 227.826 456.704 223.885 459.965 224.825C460.502 224.989 460.998 225.264 461.422 225.633C461.846 226.001 462.188 226.455 462.425 226.964C462.662 227.473 462.79 228.026 462.799 228.588C462.809 229.149 462.7 229.706 462.48 230.223C461.617 232.447 459.014 233.84 456.844 234.456C454.674 235.071 450.431 234.531 448.962 234.326C448.671 235.482 448.39 236.648 448.163 237.781C448.023 238.559 447.839 239.293 447.742 240.092L447.418 242.402C447.267 243.882 447.094 245.404 446.986 246.851C446.9 247.866 446.835 248.827 446.77 249.788C447.116 248.708 447.85 246.473 447.904 246.3C449.103 243.927 450.887 241.898 453.087 240.405C453.209 240.132 453.357 239.872 453.529 239.628C453.835 239.156 454.237 238.754 454.709 238.448C455.18 238.142 455.711 237.939 456.266 237.853C456.822 237.766 457.389 237.798 457.932 237.945C458.474 238.093 458.979 238.354 459.414 238.71C461.984 240.923 461.336 246.991 460.159 249.777C460.094 249.939 459.133 251.645 458.518 252.703C458.982 252.131 459.414 251.623 459.9 250.997C460.839 249.842 461.811 248.719 462.847 247.51L464.435 245.793C464.953 245.21 465.579 244.659 466.151 244.076C467.501 242.77 468.937 241.506 470.416 240.275C469.412 239.444 465.871 236.464 464.856 234.434C463.841 232.404 463.117 229.565 464.175 227.416C464.408 226.903 464.746 226.445 465.167 226.072C465.588 225.699 466.083 225.418 466.62 225.249C467.157 225.08 467.724 225.026 468.283 225.091C468.842 225.155 469.381 225.337 469.866 225.624C472.727 227.416 473.018 233.516 472.273 236.421C472.273 236.604 471.453 238.656 471.01 239.768C471.906 239.023 472.792 238.289 473.72 237.609C476.398 235.546 479.173 233.538 481.926 231.519L484.442 229.651C484.085 229.359 479.81 225.904 478.665 223.626C477.661 221.607 476.927 218.757 477.985 216.619C478.216 216.105 478.554 215.646 478.974 215.272C479.395 214.897 479.89 214.616 480.427 214.446C480.964 214.276 481.531 214.221 482.091 214.284C482.65 214.348 483.19 214.529 483.675 214.816C486.547 216.619 486.828 222.708 486.083 225.613C486.029 225.829 484.917 228.766 484.604 229.5C486.439 228.129 488.264 226.747 490.002 225.311C492.365 223.376 494.601 221.291 496.697 219.07C496.535 218.94 492.054 215.345 490.888 213.023C489.873 211.004 489.149 208.154 490.207 206.005C490.439 205.493 490.776 205.036 491.196 204.662C491.616 204.289 492.11 204.008 492.645 203.838C493.181 203.668 493.746 203.612 494.305 203.675C494.863 203.738 495.402 203.917 495.887 204.202C498.759 206.005 499.05 212.106 498.305 214.999C498.251 215.194 497.409 217.439 496.988 218.487C497.038 218.529 497.092 218.565 497.15 218.595C499.198 216.301 501.037 213.83 502.646 211.209C503.553 209.784 504.33 208.359 505.064 206.966C504.157 206.383 500.065 203.727 498.78 201.697C497.496 199.667 496.524 197.044 497.334 194.798C497.508 194.263 497.794 193.772 498.171 193.355C498.548 192.938 499.009 192.605 499.523 192.378C500.037 192.151 500.594 192.035 501.156 192.037C501.718 192.039 502.274 192.159 502.786 192.39C505.842 193.858 506.792 199.948 506.371 202.885C506.371 203.047 505.939 204.677 505.626 205.854C505.939 205.228 506.284 204.569 506.576 203.954C507.656 201.654 508.573 199.473 509.329 197.54C509.761 196.46 510.117 195.381 510.409 194.474C509.815 193.448 507.505 189.248 507.278 186.916C507.051 184.584 507.418 181.744 509.178 180.124C509.579 179.73 510.058 179.424 510.585 179.227C511.111 179.031 511.673 178.947 512.235 178.981C512.796 179.016 513.343 179.168 513.842 179.428C514.34 179.689 514.778 180.051 515.127 180.491C517.157 183.202 515.225 189 513.475 191.461C513.324 191.677 510.571 194.701 510.539 194.701V194.636C510.236 195.554 509.912 196.525 509.524 197.594C508.811 199.548 507.98 201.751 506.911 204.072C505.781 206.604 504.508 209.07 503.099 211.458C501.527 214.132 499.72 216.661 497.701 219.016L497.625 219.091C498.467 218.573 500.864 217.202 501.069 217.115C503.855 215.917 509.923 215.248 512.147 217.796C512.505 218.229 512.768 218.734 512.918 219.275C513.069 219.817 513.103 220.385 513.02 220.941C512.936 221.497 512.736 222.029 512.434 222.503C512.131 222.977 511.732 223.382 511.262 223.691C509.308 225.073 506.382 224.771 504.222 224.123C501.793 223.356 497.744 219.653 497.377 219.361C495.265 221.708 493 223.912 490.596 225.958C489.203 227.157 487.757 228.323 486.277 229.478C487.022 229.057 487.692 228.679 487.789 228.636C490.564 227.438 496.632 226.768 498.856 229.316C499.216 229.749 499.48 230.253 499.631 230.795C499.782 231.338 499.817 231.906 499.734 232.462C499.65 233.019 499.45 233.551 499.146 234.025C498.842 234.499 498.442 234.903 497.971 235.212C496.027 236.594 493.09 236.291 490.942 235.643C488.793 234.996 485.198 231.864 484.269 231.033C483.697 231.476 483.189 231.918 482.574 232.35C479.864 234.434 477.175 236.496 474.53 238.602C473.612 239.347 472.738 240.103 471.852 240.869L473.17 240.135C475.944 238.947 482.012 238.267 484.237 240.826C484.596 241.259 484.86 241.763 485.012 242.305C485.163 242.847 485.198 243.415 485.114 243.972C485.031 244.529 484.83 245.061 484.527 245.535C484.223 246.009 483.822 246.413 483.351 246.721C481.397 248.103 478.471 247.801 476.322 247.142C474.174 246.484 470.924 243.666 469.844 242.694C468.969 243.493 468.084 244.303 467.274 245.123C466.724 245.696 466.195 246.203 465.655 246.819L464.1 248.578C463.161 249.723 462.178 250.9 461.282 252.044C460.656 252.843 460.073 253.61 459.489 254.377C460.386 253.632 462.2 252.217 462.362 252.098C464.92 250.49 470.827 248.913 473.407 251.094C473.825 251.47 474.16 251.929 474.389 252.443C474.618 252.956 474.736 253.512 474.736 254.074C474.736 254.636 474.618 255.192 474.389 255.706C474.16 256.219 473.825 256.679 473.407 257.054C471.679 258.717 468.743 258.89 466.518 258.544C464.057 258.166 459.608 255.305 459.058 254.906C458.086 256.18 457.157 257.432 456.294 258.62C453.303 262.755 450.971 266.318 449.373 268.823C449.373 268.92 449.265 268.996 449.211 269.082L447.138 268.078L447.461 267.582C449.135 265.087 451.575 261.546 454.685 257.432C455.667 256.126 456.736 254.765 457.848 253.362C456.691 252.102 455.609 250.776 454.609 249.388C452.223 250.317 447.278 250.349 446.63 250.349C446.533 251.958 446.446 253.513 446.382 254.981C446.166 260.088 446.187 264.342 446.241 267.312V267.657L443.963 266.577C443.963 263.619 444.082 259.624 444.384 254.895C444.481 253.275 444.622 251.537 444.784 249.755C444.147 249.604 438.996 248.276 437.053 246.721C435.293 245.318 433.436 243.029 433.501 240.643C433.495 240.08 433.608 239.522 433.832 239.006C434.057 238.49 434.388 238.027 434.804 237.648C435.22 237.268 435.711 236.981 436.246 236.805C436.78 236.629 437.346 236.568 437.906 236.626C441.264 237.058 444.082 242.467 444.633 245.447C444.633 245.62 444.805 247.607 444.87 248.784C444.946 248.06 445 247.358 445.086 246.624C445.226 245.145 445.421 243.677 445.626 242.089C445.745 241.334 445.874 240.556 445.993 239.779C446.112 239.001 446.317 238.202 446.479 237.414C446.889 235.568 447.386 233.722 447.936 231.875C446.641 231.746 442.052 231.206 440.076 230.072C438.1 228.938 435.941 226.973 435.649 224.598C435.559 224.043 435.587 223.475 435.731 222.931C435.875 222.388 436.133 221.881 436.486 221.444C436.84 221.006 437.282 220.649 437.783 220.394C438.285 220.14 438.834 219.994 439.396 219.966C442.775 219.88 446.382 224.803 447.375 227.664C447.44 227.837 447.926 229.964 448.163 231.141C448.509 230.061 448.833 228.928 449.243 227.816C450.323 224.576 451.543 221.413 452.73 218.206C453.098 217.223 453.443 216.241 453.81 215.258C453.346 215.258 447.872 214.697 445.669 213.423C443.715 212.343 441.534 210.324 441.231 207.949C441.143 207.394 441.172 206.827 441.317 206.284C441.462 205.741 441.719 205.235 442.073 204.798C442.426 204.361 442.867 204.003 443.368 203.748C443.868 203.493 444.417 203.346 444.978 203.317C448.368 203.23 451.975 208.165 452.968 211.015C453.044 211.231 453.735 214.254 453.875 215.086C454.652 212.926 455.419 210.767 456.034 208.607C456.946 205.692 457.668 202.72 458.194 199.71C457.978 199.71 452.266 199.171 450.01 197.875C448.044 196.741 445.863 194.765 445.572 192.39C445.482 191.835 445.509 191.267 445.654 190.723C445.798 190.18 446.055 189.673 446.409 189.236C446.763 188.798 447.205 188.441 447.706 188.186C448.207 187.932 448.757 187.786 449.319 187.758C452.698 187.672 456.304 192.606 457.298 195.456C457.362 195.64 457.902 197.983 458.129 199.095H458.313C458.759 196.054 458.932 192.979 458.831 189.907C458.831 188.222 458.669 186.603 458.507 185.037C457.427 185.037 452.525 185.037 450.366 184.109C448.206 183.18 445.907 181.474 445.345 179.153C445.195 178.609 445.162 178.04 445.248 177.482C445.333 176.924 445.535 176.391 445.841 175.917C446.147 175.443 446.549 175.039 447.022 174.732C447.495 174.424 448.027 174.22 448.584 174.132C451.942 173.678 456.067 178.181 457.373 180.902C457.438 181.053 457.999 182.64 458.377 183.806C458.302 183.094 458.226 182.37 458.129 181.647C457.794 179.109 457.319 176.81 456.887 174.769C456.628 173.614 456.38 172.61 456.132 171.605C455.052 171.066 450.819 168.852 449.373 167.049C447.926 165.246 446.63 162.665 447.213 160.344C447.337 159.799 447.573 159.285 447.907 158.837C448.241 158.388 448.666 158.014 449.153 157.74C449.64 157.465 450.179 157.296 450.736 157.242C451.293 157.188 451.854 157.252 452.385 157.429Z" fill="white"/>
<path d="M513.583 209.622C510.938 209.514 505.647 206.793 505.647 206.793C505.647 206.793 508.487 203.856 508.692 203.684C511.057 201.805 516.736 199.548 519.554 201.427C520.015 201.75 520.402 202.166 520.691 202.649C520.979 203.132 521.163 203.67 521.229 204.228C521.295 204.787 521.243 205.353 521.075 205.89C520.908 206.427 520.628 206.922 520.256 207.344C518.734 209.19 515.84 209.708 513.583 209.622Z" fill="white"/>
</g>
<path d="M482.693 275.863C482.693 275.863 466.637 237.166 457.654 238.85C448.671 240.535 473.061 300.545 473.061 300.545C473.061 300.545 444.816 247.261 425.554 247.261C406.292 247.261 432.615 306.149 457.017 325.778C457.017 325.778 418.492 284.274 396.024 293.257C373.555 302.241 440.994 344.296 440.994 344.296C440.994 344.296 401.832 331.954 406.324 341.488C410.816 351.022 423.016 352.707 423.016 352.707L378.748 354.952H532.77L498.1 351.584C498.1 351.584 534.055 333.639 524.424 326.34C514.793 319.041 493.608 334.751 493.608 334.751C493.608 334.751 530.2 294.369 523.139 279.232C516.077 264.094 484.614 306.711 484.614 306.711C484.614 306.711 510.301 252.314 505.129 242.77C499.957 233.225 482.693 275.863 482.693 275.863Z" fill="#92E3A9"/>
<path opacity="0.4" d="M482.693 275.863C482.693 275.863 466.637 237.166 457.654 238.85C448.671 240.535 473.061 300.545 473.061 300.545C473.061 300.545 444.816 247.261 425.554 247.261C406.292 247.261 432.615 306.149 457.017 325.778C457.017 325.778 418.492 284.274 396.024 293.257C373.555 302.241 440.994 344.296 440.994 344.296C440.994 344.296 401.832 331.954 406.324 341.488C410.816 351.022 423.016 352.707 423.016 352.707L378.748 354.952H532.77L498.1 351.584C498.1 351.584 534.055 333.639 524.424 326.34C514.793 319.041 493.608 334.751 493.608 334.751C493.608 334.751 530.2 294.369 523.139 279.232C516.077 264.094 484.614 306.711 484.614 306.711C484.614 306.711 510.301 252.314 505.129 242.77C499.957 233.225 482.693 275.863 482.693 275.863Z" fill="white"/>
<path d="M487.832 277.904C473.709 319.635 473.709 349.166 473.709 349.166C473.709 349.166 490.401 349.814 507.731 336.976" stroke="#263238" stroke-linecap="round" stroke-linejoin="round"/>
<path d="M480.771 300.373C477.857 287.898 473.991 275.665 469.207 263.781" stroke="#263238" stroke-linecap="round" stroke-linejoin="round"/>
<path d="M439.04 275.982L474.983 329.267C474.983 329.267 499.385 308.752 507.731 297.166" stroke="#263238" stroke-linecap="round" stroke-linejoin="round"/>
<path d="M474.347 342.104C474.347 342.104 436.47 324.127 421.062 313.858" stroke="#263238" stroke-linecap="round" stroke-linejoin="round"/>
<path d="M234.444 82.2592L225.622 68.1797H147.926V82.2592V87.3231V321.557H467.738V82.2592H234.444Z" fill="#263238"/>
<path d="M465.633 88.7158H150.301V316.45H465.633V88.7158Z" fill="white"/>
<mask id="mask0_234_91" style="mask-type:luminance" maskUnits="userSpaceOnUse" x="150" y="88" width="316" height="229">
<path d="M465.633 88.7158H150.301V316.45H465.633V88.7158Z" fill="white"/>
</mask>
<g mask="url(#mask0_234_91)">
<path opacity="0.17" d="M467.177 86.7617H459.856V318.178H467.177V86.7617Z" fill="black"/>
<path opacity="0.17" d="M467.177 226.683H459.856V316.299H467.177V226.683Z" fill="black"/>
<path d="M466.043 85.6387H149.049V98.023H466.043V85.6387Z" fill="#92E3A9" stroke="#263238" stroke-miterlimit="10"/>
</g>
<path d="M465.633 88.7158H150.301V316.45H465.633V88.7158Z" stroke="#263238" stroke-linecap="round" stroke-linejoin="round"/>
<g opacity="0.17">
<path d="M314.591 109.964H292.532C292.277 109.964 292.024 109.914 291.789 109.816C291.553 109.719 291.339 109.575 291.158 109.395C290.978 109.214 290.835 109 290.737 108.764C290.639 108.529 290.589 108.276 290.589 108.021C290.587 107.765 290.637 107.511 290.734 107.274C290.831 107.037 290.974 106.821 291.154 106.639C291.335 106.458 291.55 106.314 291.786 106.215C292.023 106.117 292.276 106.066 292.532 106.066H314.591C314.847 106.066 315.101 106.117 315.337 106.215C315.574 106.314 315.789 106.458 315.969 106.639C316.15 106.821 316.293 107.037 316.39 107.274C316.487 107.511 316.536 107.765 316.535 108.021C316.535 108.276 316.484 108.529 316.387 108.764C316.289 109 316.146 109.214 315.965 109.395C315.785 109.575 315.571 109.719 315.335 109.816C315.099 109.914 314.846 109.964 314.591 109.964Z" fill="black"/>
<path d="M358.708 109.964H336.65C336.135 109.961 335.642 109.756 335.278 109.392C334.915 109.028 334.709 108.535 334.706 108.021C334.706 107.504 334.91 107.009 335.275 106.643C335.639 106.276 336.133 106.069 336.65 106.066H358.708C359.227 106.066 359.724 106.272 360.09 106.639C360.457 107.005 360.662 107.502 360.662 108.021C360.66 108.537 360.452 109.031 360.086 109.396C359.72 109.76 359.225 109.964 358.708 109.964Z" fill="black"/>
<path d="M402.837 109.964H380.778C380.262 109.964 379.766 109.76 379.4 109.396C379.034 109.031 378.827 108.537 378.824 108.021C378.824 107.502 379.03 107.005 379.396 106.639C379.763 106.272 380.26 106.066 380.778 106.066H402.837C403.353 106.069 403.847 106.276 404.212 106.643C404.576 107.009 404.78 107.504 404.78 108.021C404.777 108.535 404.572 109.028 404.208 109.392C403.844 109.756 403.351 109.961 402.837 109.964Z" fill="black"/>
<path d="M446.954 109.964H424.895C424.64 109.964 424.387 109.914 424.151 109.816C423.916 109.719 423.701 109.575 423.521 109.395C423.34 109.214 423.197 109 423.1 108.764C423.002 108.529 422.952 108.276 422.952 108.021C422.95 107.765 422.999 107.511 423.097 107.274C423.194 107.037 423.336 106.821 423.517 106.639C423.698 106.458 423.912 106.314 424.149 106.215C424.385 106.117 424.639 106.066 424.895 106.066H446.954C447.47 106.069 447.965 106.276 448.329 106.643C448.693 107.009 448.897 107.504 448.897 108.021C448.894 108.535 448.689 109.028 448.325 109.392C447.961 109.756 447.468 109.961 446.954 109.964Z" fill="black"/>
</g>
<path d="M180.102 202.918H213.432" stroke="#263238" stroke-width="3" stroke-linecap="round" stroke-linejoin="round"/>
<path d="M212.838 208.111H216.477" stroke="#263238" stroke-linecap="round" stroke-linejoin="round"/>
<path d="M191.967 208.111H210.636" stroke="#263238" stroke-linecap="round" stroke-linejoin="round"/>
<path d="M177.553 208.111H189.992" stroke="#263238" stroke-linecap="round" stroke-linejoin="round"/>
<path d="M201.188 213.305H216.477" stroke="#263238" stroke-linecap="round" stroke-linejoin="round"/>
<path d="M192.842 213.305H198.78" stroke="#263238" stroke-linecap="round" stroke-linejoin="round"/>
<path d="M177.553 213.305H190.208" stroke="#263238" stroke-linecap="round" stroke-linejoin="round"/>
<path d="M185.813 218.486H216.477" stroke="#263238" stroke-linecap="round" stroke-linejoin="round"/>
<path d="M177.553 218.486H182.963" stroke="#263238" stroke-linecap="round" stroke-linejoin="round"/>
<path d="M208.887 223.681H216.477" stroke="#263238" stroke-linecap="round" stroke-linejoin="round"/>
<path d="M194.386 223.681H206.242" stroke="#263238" stroke-linecap="round" stroke-linejoin="round"/>
<path d="M177.553 223.681H191.967" stroke="#263238" stroke-linecap="round" stroke-linejoin="round"/>
<path d="M190.208 228.874H216.477" stroke="#263238" stroke-linecap="round" stroke-linejoin="round"/>
<path d="M177.553 228.874H187.789" stroke="#263238" stroke-linecap="round" stroke-linejoin="round"/>
<path d="M256.113 202.918H289.444" stroke="#263238" stroke-width="3" stroke-linecap="round" stroke-linejoin="round"/>
<path d="M288.851 208.111H292.489" stroke="#263238" stroke-linecap="round" stroke-linejoin="round"/>
<path d="M267.979 208.111H286.648" stroke="#263238" stroke-linecap="round" stroke-linejoin="round"/>
<path d="M253.565 208.111H266.004" stroke="#263238" stroke-linecap="round" stroke-linejoin="round"/>
<path d="M277.201 213.305H292.489" stroke="#263238" stroke-linecap="round" stroke-linejoin="round"/>
<path d="M268.854 213.305H274.793" stroke="#263238" stroke-linecap="round" stroke-linejoin="round"/>
<path d="M253.565 213.305H266.22" stroke="#263238" stroke-linecap="round" stroke-linejoin="round"/>
<path d="M261.825 218.486H292.489" stroke="#263238" stroke-linecap="round" stroke-linejoin="round"/>
<path d="M253.565 218.486H258.975" stroke="#263238" stroke-linecap="round" stroke-linejoin="round"/>
<path d="M284.899 223.681H292.489" stroke="#263238" stroke-linecap="round" stroke-linejoin="round"/>
<path d="M270.398 223.681H282.254" stroke="#263238" stroke-linecap="round" stroke-linejoin="round"/>
<path d="M253.565 223.681H267.98" stroke="#263238" stroke-linecap="round" stroke-linejoin="round"/>
<path d="M266.22 228.874H292.489" stroke="#263238" stroke-linecap="round" stroke-linejoin="round"/>
<path d="M253.565 228.874H263.801" stroke="#263238" stroke-linecap="round" stroke-linejoin="round"/>
<path d="M332.125 202.918H365.456" stroke="#263238" stroke-width="3" stroke-linecap="round" stroke-linejoin="round"/>
<path d="M364.863 208.111H368.501" stroke="#263238" stroke-linecap="round" stroke-linejoin="round"/>
<path d="M343.992 208.111H362.66" stroke="#263238" stroke-linecap="round" stroke-linejoin="round"/>
<path d="M329.578 208.111H342.016" stroke="#263238" stroke-linecap="round" stroke-linejoin="round"/>
<path d="M353.213 213.305H368.502" stroke="#263238" stroke-linecap="round" stroke-linejoin="round"/>
<path d="M344.866 213.305H350.805" stroke="#263238" stroke-linecap="round" stroke-linejoin="round"/>
<path d="M329.578 213.305H342.232" stroke="#263238" stroke-linecap="round" stroke-linejoin="round"/>
<path d="M337.837 218.486H368.501" stroke="#263238" stroke-linecap="round" stroke-linejoin="round"/>
<path d="M329.577 218.486H334.987" stroke="#263238" stroke-linecap="round" stroke-linejoin="round"/>
<path d="M360.911 223.681H368.502" stroke="#263238" stroke-linecap="round" stroke-linejoin="round"/>
<path d="M346.41 223.681H358.265" stroke="#263238" stroke-linecap="round" stroke-linejoin="round"/>
<path d="M329.578 223.681H343.992" stroke="#263238" stroke-linecap="round" stroke-linejoin="round"/>
<path d="M342.232 228.874H368.501" stroke="#263238" stroke-linecap="round" stroke-linejoin="round"/>
<path d="M329.578 228.874H339.813" stroke="#263238" stroke-linecap="round" stroke-linejoin="round"/>
<path d="M408.138 202.918H441.469" stroke="#263238" stroke-width="3" stroke-linecap="round" stroke-linejoin="round"/>
<path d="M440.875 208.111H444.514" stroke="#263238" stroke-linecap="round" stroke-linejoin="round"/>
<path d="M420.004 208.111H438.672" stroke="#263238" stroke-linecap="round" stroke-linejoin="round"/>
<path d="M405.59 208.111H418.028" stroke="#263238" stroke-linecap="round" stroke-linejoin="round"/>
<path d="M429.225 213.305H444.513" stroke="#263238" stroke-linecap="round" stroke-linejoin="round"/>
<path d="M420.878 213.305H426.817" stroke="#263238" stroke-linecap="round" stroke-linejoin="round"/>
<path d="M405.59 213.305H418.244" stroke="#263238" stroke-linecap="round" stroke-linejoin="round"/>
<path d="M413.85 218.486H444.514" stroke="#263238" stroke-linecap="round" stroke-linejoin="round"/>
<path d="M405.59 218.486H410.999" stroke="#263238" stroke-linecap="round" stroke-linejoin="round"/>
<path d="M436.923 223.681H444.514" stroke="#263238" stroke-linecap="round" stroke-linejoin="round"/>
<path d="M422.422 223.681H434.278" stroke="#263238" stroke-linecap="round" stroke-linejoin="round"/>
<path d="M405.59 223.681H420.004" stroke="#263238" stroke-linecap="round" stroke-linejoin="round"/>
<path d="M418.244 228.874H444.514" stroke="#263238" stroke-linecap="round" stroke-linejoin="round"/>
<path d="M405.59 228.874H415.826" stroke="#263238" stroke-linecap="round" stroke-linejoin="round"/>
<path d="M454.782 186.192H161.099V125.609H454.782V186.192Z" fill="#92E3A9"/>
<path opacity="0.7" d="M454.782 186.192H161.099V125.609H454.782V186.192Z" fill="white"/>
<path d="M380.465 186.192H235.469V125.609H380.465V186.192Z" fill="#92E3A9"/>
<path opacity="0.92" d="M380.465 186.192H235.469V125.609H380.465V186.192Z" fill="white"/>
<path d="M350.837 143.166H360.717" stroke="#263238" stroke-linecap="round" stroke-linejoin="round"/>
<path d="M294.282 143.166H344.888" stroke="#263238" stroke-linecap="round" stroke-linejoin="round"/>
<path d="M255.217 143.166H288.915" stroke="#263238" stroke-linecap="round" stroke-linejoin="round"/>
<path d="M319.288 148.359H360.716" stroke="#263238" stroke-linecap="round" stroke-linejoin="round"/>
<path d="M296.657 148.359H312.734" stroke="#263238" stroke-linecap="round" stroke-linejoin="round"/>
<path d="M255.217 148.359H289.52" stroke="#263238" stroke-linecap="round" stroke-linejoin="round"/>
<path d="M277.611 153.553H360.717" stroke="#263238" stroke-linecap="round" stroke-linejoin="round"/>
<path d="M255.217 153.553H269.869" stroke="#263238" stroke-linecap="round" stroke-linejoin="round"/>
<path d="M340.126 158.746H360.717" stroke="#263238" stroke-linecap="round" stroke-linejoin="round"/>
<path d="M300.825 158.746H332.979" stroke="#263238" stroke-linecap="round" stroke-linejoin="round"/>
<path d="M255.217 158.746H294.281" stroke="#263238" stroke-linecap="round" stroke-linejoin="round"/>
<path d="M289.52 163.929H360.717" stroke="#263238" stroke-linecap="round" stroke-linejoin="round"/>
<path d="M255.217 163.929H282.966" stroke="#263238" stroke-linecap="round" stroke-linejoin="round"/>
<path d="M454.782 315.694H161.099V255.111H454.782V315.694Z" fill="#92E3A9"/>
<path opacity="0.7" d="M454.782 315.694H161.099V255.111H454.782V315.694Z" fill="white"/>
<mask id="mask1_234_91" style="mask-type:luminance" maskUnits="userSpaceOnUse" x="391" y="230" width="67" height="87">
<path d="M457.049 230.516H391.845V316.072H457.049V230.516Z" fill="white"/>
</mask>
<g mask="url(#mask1_234_91)">
<path d="M420.026 278.164C420.026 278.164 402.826 285.074 400.127 285.927C397.428 286.78 397.266 287.946 397.266 291.65C397.266 295.353 397.773 312.056 397.773 313.406C397.773 314.755 397.6 317.282 397.6 317.282H453.951C453.951 317.282 450.237 302.166 448.045 295.029C445.853 287.892 446.868 287.266 442.992 284.912C439.116 282.558 428.955 279.179 426.796 278.671C424.557 278.32 422.293 278.15 420.026 278.164Z" fill="#263238" stroke="#263238" stroke-linecap="round" stroke-linejoin="round"/>
<path d="M420.868 276.306C420.868 276.306 416.819 275.972 415.135 279.351C413.45 282.731 409.402 290.602 409.402 290.602L414.293 293.636L408.603 296.54C409.553 300.706 410.735 304.815 412.144 308.849C413.124 311.496 414.249 314.088 415.513 316.612C415.513 316.612 423.719 307.337 426.958 304.465C429.093 302.422 430.861 300.026 432.184 297.382L427.973 293.506L435.228 292.664C435.228 292.664 433.371 283.227 431.007 279.351C428.642 275.475 420.868 276.306 420.868 276.306Z" fill="#263238" stroke="#263238" stroke-linecap="round" stroke-linejoin="round"/>
<path d="M412.587 308.957C412.889 309.799 413.213 310.598 413.526 311.3" stroke="white" stroke-width="0.5" stroke-linecap="round" stroke-linejoin="round"/>
<path d="M413.202 283.552L409.402 290.602L414.293 293.636L409.056 296.606C409.056 296.606 410.276 301.929 411.809 306.701" stroke="white" stroke-width="0.5" stroke-linecap="round" stroke-linejoin="round"/>
<path d="M432.356 280.355L435.196 292.664L427.94 293.506L432.151 297.383C432.151 297.383 424.053 306.873 420.695 310.706" stroke="white" stroke-width="0.5" stroke-linecap="round" stroke-linejoin="round"/>
<path d="M442.959 299.24L439.925 317.963" stroke="white" stroke-width="0.5" stroke-linecap="round" stroke-linejoin="round"/>
<path d="M401.315 295.871C401.315 295.871 400.98 307.165 401.142 310.706C401.276 312.951 401.73 315.166 402.492 317.282" stroke="white" stroke-width="0.5" stroke-linecap="round" stroke-linejoin="round"/>
<path d="M432.508 303.796L435.369 299.92L437.734 303.796H432.508Z" fill="white" stroke="#263238" stroke-miterlimit="10"/>
<path d="M435.876 266.697C435.876 266.697 438.737 266.362 439.418 270.584C440.098 274.805 438.068 280.193 431.32 280.193C424.572 280.193 425.09 275.129 425.252 271.426C425.414 267.722 435.876 266.697 435.876 266.697Z" fill="#263238" stroke="#263238" stroke-miterlimit="10"/>
<path d="M419.184 273.618C419.184 273.618 419.011 278.498 418.677 284.069C418.342 289.641 415.643 297.22 415.643 303.623C415.62 307.171 415.789 310.718 416.15 314.247C416.15 314.247 421.711 303.45 424.237 297.22C426.764 290.99 429.636 272.938 429.636 272.938L419.184 273.618Z" fill="white" stroke="#263238" stroke-miterlimit="10"/>
<path d="M435.704 262.529C436.959 260.071 437.653 257.364 437.734 254.604C437.734 250.393 436.891 244.66 432 242.123C427.109 239.585 417.662 241.28 415.308 246.171C413.719 249.298 412.974 252.786 413.148 256.288C413.318 258.182 413.714 260.049 414.325 261.849C414.325 261.849 415.005 258.61 419.551 256.969C424.097 255.328 428.999 253.589 431.352 254.809C433.706 256.029 435.704 262.529 435.704 262.529Z" fill="#263238" stroke="#263238" stroke-linecap="round" stroke-linejoin="round"/>
<path d="M414.465 260.802C414.465 260.802 412.436 257.767 411.593 259.959C410.751 262.151 411.939 265.358 413.278 266.027C414.617 266.697 415.308 266.362 415.308 266.362L414.465 260.802Z" fill="white" stroke="#263238" stroke-linecap="round" stroke-linejoin="round"/>
<path d="M435.703 261.309C435.703 261.309 438.068 258.945 438.068 261.136C437.949 263.17 437.194 265.116 435.909 266.697C434.894 268.047 434.386 267.377 434.386 267.377L435.703 261.309Z" fill="white" stroke="#263238" stroke-linecap="round" stroke-linejoin="round"/>
<path d="M431.698 251.603L433.371 246.884C433.437 246.699 433.427 246.496 433.343 246.319C433.259 246.142 433.108 246.005 432.923 245.939C432.739 245.874 432.535 245.884 432.358 245.968C432.181 246.052 432.044 246.203 431.979 246.387L430.575 250.328C429.098 249.979 427.565 249.935 426.071 250.199C424.576 250.462 423.151 251.028 421.883 251.862C417.499 254.734 413.958 257.26 413.958 257.26C413.958 257.26 414.131 266.87 415.977 270.411C417.823 273.953 421.041 278.164 423.74 278.164C426.44 278.164 431.158 272.268 433.015 270.411C434.872 268.554 436.049 261.309 436.049 258.945C436.049 257.249 433.263 253.557 431.698 251.603Z" fill="white" stroke="#263238" stroke-miterlimit="10"/>
<path d="M425.058 294.921C422.319 295.168 419.559 294.799 416.982 293.841C416.209 297.074 415.761 300.376 415.643 303.699C415.62 307.247 415.789 310.793 416.15 314.323C416.15 314.323 421.711 303.526 424.237 297.296C424.507 296.562 424.799 295.752 425.058 294.921Z" fill="#92E3A9" stroke="#263238" stroke-miterlimit="10"/>
</g>
<mask id="mask2_234_91" style="mask-type:luminance" maskUnits="userSpaceOnUse" x="315" y="230" width="66" height="87">
<path d="M380.627 230.516H315.423V316.072H380.627V230.516Z" fill="white"/>
</mask>
<g mask="url(#mask2_234_91)">
<path d="M345.364 269.212C341.063 269.7 336.792 270.421 332.569 271.372C327.635 272.646 325.259 273.196 325.259 275.572C325.259 277.947 324.709 288.183 323.1 292.761C321.491 297.339 319.623 303.914 319.623 306.29C319.623 308.665 323.1 318.717 323.1 318.717H329.492C329.492 318.717 327.116 307.013 327.116 305.922C327.116 304.832 330.409 295.125 330.409 295.125L330.593 319.073H364.064L363.708 296.216C363.708 296.216 366.623 305.545 366.623 307.186C366.623 308.827 365.543 319.624 365.543 319.624H371.892C371.892 319.624 375.002 307.747 374.818 303.536C374.635 299.325 371.579 285.98 371.169 281.942C370.758 277.904 373.177 275.723 368.793 272.98C364.41 270.238 354.347 268.597 352.155 268.413C349.871 268.458 347.596 268.726 345.364 269.212Z" fill="#92E3A9" stroke="#263238" stroke-miterlimit="10"/>
<path d="M330.377 295.18L330.928 286.034L328.909 279.092" stroke="#263238" stroke-linecap="round" stroke-linejoin="round"/>
<path d="M363.654 284.576V296.27" stroke="#263238" stroke-linecap="round" stroke-linejoin="round"/>
<path d="M363.827 287.87L366.753 283.476" stroke="#263238" stroke-linecap="round" stroke-linejoin="round"/>
<path d="M348.473 281.65L347.382 318.76" stroke="#263238" stroke-linecap="round" stroke-linejoin="round"/>
<path d="M347.923 264.829C346.296 264.918 344.748 265.562 343.539 266.654C341.531 268.489 340.796 275.616 340.796 275.616C340.796 275.616 347.199 273.791 348.29 273.456C349.38 273.121 359.087 275.281 359.087 275.281C359.087 275.281 358.18 268.889 355.621 266.146C353.062 263.404 347.923 264.829 347.923 264.829Z" fill="#263238" stroke="#263238" stroke-linecap="round" stroke-linejoin="round"/>
<path d="M345.364 258.977C345.364 258.977 346.832 261.136 346.832 267.614C346.832 274.093 347.556 280.776 348.473 281.651C349.391 282.525 353.224 273.013 353.224 268.694C353.297 265.838 353.986 263.032 355.243 260.467C355.243 260.467 350.665 257.357 348.29 256.99C347.641 256.889 346.978 257.038 346.435 257.406C345.892 257.775 345.509 258.336 345.364 258.977Z" fill="white" stroke="#263238" stroke-linecap="round" stroke-linejoin="round"/>
<path d="M347.124 274.74C347.415 278.293 347.912 281.089 348.473 281.65C349.035 282.212 350.795 278.649 352.004 274.827C350.383 275.056 348.736 275.027 347.124 274.74Z" fill="#263238" stroke="#263238" stroke-linecap="round" stroke-linejoin="round"/>
<path d="M356.517 241.431C356.517 241.431 357.597 241.798 359.627 239.963C361.656 238.127 360.706 234.661 359.81 235.396C359.238 235.863 358.742 236.416 358.342 237.037C357.987 235.967 357.334 235.02 356.46 234.309C355.586 233.597 354.527 233.15 353.407 233.02C349.574 232.653 344.996 237.954 344.996 237.954C344.996 237.954 336.596 244.174 337.503 249.108C338.41 254.042 343.172 258.426 345.363 258.977C347.555 259.527 351.583 255.511 350.848 252.034C350.114 248.557 349.574 243.396 350.848 242.889C352.709 242.297 354.601 241.81 356.517 241.431Z" fill="#263238" stroke="#263238" stroke-linecap="round" stroke-linejoin="round"/>
<path d="M344.996 256.05C344.996 256.05 341.898 253.891 341.164 255.51C340.429 257.13 342.081 260.078 344.09 260.985C346.098 261.891 347.923 258.976 347.923 258.976C347.923 258.976 354.325 264.094 358.72 264.278C363.114 264.461 363.298 260.985 362.563 254.409C361.829 247.834 359.637 242.705 357.996 240.88C356.355 239.055 349.952 240.697 347.933 242.338C345.914 243.979 344.694 245.447 346.659 245.814C348.624 246.182 350.492 246.894 348.668 248.924C346.843 250.954 345.925 250.198 346.508 251.667C347.091 253.135 349.434 254.593 347.242 255.327L344.996 256.05Z" fill="white" stroke="#263238" stroke-linecap="round" stroke-linejoin="round"/>
</g>
<mask id="mask3_234_91" style="mask-type:luminance" maskUnits="userSpaceOnUse" x="229" y="230" width="67" height="87">
<path d="M295.07 230.105H229.866V316.083H295.07V230.105Z" fill="white"/>
</mask>
<g mask="url(#mask3_234_91)">
<path d="M264.654 265.769C264.654 265.769 241.613 268.511 240.901 270.519C240.188 272.528 231.766 292.114 233.04 293.917C234.314 295.72 236.884 296.076 238.892 296.076C240.315 295.949 241.66 295.374 242.736 294.435L236.884 319.269H279.295L280.58 301.896C280.58 301.896 285.514 304.055 288.808 303.731C292.101 303.408 291.367 300.805 290.632 295.871C289.898 290.937 289.553 278.315 288.257 275.94C286.961 273.564 271.435 266.978 271.435 266.978L264.654 265.769Z" fill="#263238" stroke="#263238" stroke-linecap="round" stroke-linejoin="round"/>
<path d="M280.926 295.547V284.21L281.833 282.019" stroke="white" stroke-linecap="round" stroke-linejoin="round"/>
<path d="M243.989 286.035L245.824 278.358L245.457 276.717" stroke="white" stroke-linecap="round" stroke-linejoin="round"/>
<path d="M248.804 320.046C248.804 320.046 252.27 305.049 253.922 295.731C255.574 286.413 262.452 265.769 262.452 265.769L273.065 268.695C273.065 268.695 265.929 289.533 264.104 298.495C262.279 307.456 260.746 320.154 260.746 320.154L248.804 320.046Z" fill="#92E3A9" stroke="#263238" stroke-miterlimit="10"/>
<path d="M263.92 263.609C263.92 263.609 260.811 263.609 259.709 265.768C258.608 267.927 257.15 276.371 257.15 276.371C257.15 276.371 263.737 273.445 264.287 273.445C264.838 273.445 267.397 273.628 268.671 275.086C269.945 276.544 272.698 280.02 272.698 280.02C272.698 280.02 276.898 273.261 275.808 268.878C275.434 267.433 274.614 266.143 273.464 265.191C272.315 264.239 270.894 263.674 269.405 263.576L263.92 263.609Z" fill="#92E3A9" stroke="#263238" stroke-miterlimit="10"/>
<path d="M262.84 258.793C262.84 258.793 262.473 271.598 262.84 275.248C263.208 278.897 263.758 279.815 263.758 279.815C263.758 279.815 266.868 274.697 267.775 272.872C268.682 271.048 271.435 269.029 272.72 267.388C274.005 265.746 274.879 259.527 274.879 259.527C274.879 259.527 270.129 263.187 267.57 262.27C265.759 261.469 264.145 260.282 262.84 258.793Z" fill="white" stroke="#263238" stroke-linecap="round" stroke-linejoin="round"/>
<path d="M270.398 235.655C267.289 236.109 264.255 237.663 263.38 240.697C262.646 243.256 262.301 251.667 262.106 255.867C261.912 260.067 264.115 265.38 265.939 265.93C267.462 266.471 269.102 266.598 270.69 266.297C271.608 265.93 275.819 260.262 276.909 259.161C278 258.059 281.293 247.823 281.293 244.174C281.373 242.374 280.864 240.597 279.843 239.112C278.822 237.627 277.345 236.516 275.635 235.947C273.929 235.483 272.145 235.384 270.398 235.655Z" fill="white" stroke="#263238" stroke-linecap="round" stroke-linejoin="round"/>
<path d="M279.457 252.812C279.457 252.812 282.383 250.242 281.617 253.535C281.381 254.519 280.932 255.44 280.302 256.231C279.671 257.022 278.874 257.665 277.967 258.113L279.457 252.812Z" fill="white" stroke="#263238" stroke-linecap="round" stroke-linejoin="round"/>
<path d="M262.452 249.292C262.452 249.292 260.292 247.284 260.292 250.026C260.376 251.822 261.018 253.547 262.128 254.961L262.452 249.292Z" fill="white" stroke="#263238" stroke-linecap="round" stroke-linejoin="round"/>
<path d="M279.458 252.812C280.406 250.015 281.019 247.115 281.282 244.174C281.363 242.374 280.854 240.597 279.833 239.112C278.812 237.627 277.334 236.516 275.625 235.947C273.919 235.483 272.135 235.384 270.388 235.655C267.278 236.109 264.244 237.663 263.37 240.697C262.807 243.723 262.479 246.788 262.387 249.864C263.316 249.141 265.248 247.37 264.838 245.265C264.288 242.522 263.186 241.248 265.194 239.963C267.203 238.678 269.589 240.514 272.882 241.615C276.175 242.716 279.458 241.248 280.375 242.155C281.293 243.062 277.449 246.917 278 248.374C278.551 249.832 279.825 251.484 279.458 252.769V252.812Z" fill="#263238" stroke="#263238" stroke-linecap="round" stroke-linejoin="round"/>
<path d="M253.123 287.87C253.123 287.87 250.381 284.026 248.556 283.843C246.731 283.659 242.337 287.87 242.337 287.87H253.123Z" fill="white" stroke="#263238" stroke-linecap="round" stroke-linejoin="round"/>
<path d="M270.496 288.227H273.065L273.605 293.355L270.863 292.621L270.496 288.227Z" fill="white" stroke="#263238" stroke-linecap="round" stroke-linejoin="round"/>
<path d="M273.065 288.227L277.633 290.246L278.723 295.914L273.605 293.355L273.065 288.227Z" fill="white" stroke="#263238" stroke-linecap="round" stroke-linejoin="round"/>
<path d="M287.674 298.161L261.534 287.925C260.027 288.665 258.614 289.582 257.323 290.656C256.561 291.423 255.997 292.365 255.682 293.399C255.682 293.399 268.11 302.361 274.145 305.103C280.181 307.846 288.959 308.763 290.417 307.263C291.874 305.762 291.496 300.136 290.6 299.219C290.116 298.719 289.563 298.29 288.959 297.945" fill="#263238"/>
<path d="M287.674 298.161L261.534 287.925C260.027 288.665 258.614 289.582 257.323 290.656C256.561 291.423 255.997 292.365 255.682 293.399C255.682 293.399 268.11 302.361 274.145 305.103C280.181 307.846 288.959 308.763 290.417 307.263C291.874 305.762 291.496 300.136 290.6 299.219C290.116 298.719 289.563 298.29 288.959 297.945" stroke="#263238" stroke-linecap="round" stroke-linejoin="round"/>
<path d="M270.496 287.362L270.863 292.664C270.863 292.664 251.665 297.047 244.539 298.332C237.413 299.617 233.569 298.689 232.479 295.406C231.388 292.124 235.038 288.086 236.679 287.179C238.32 286.272 270.496 287.362 270.496 287.362Z" fill="#263238" stroke="#263238" stroke-linecap="round" stroke-linejoin="round"/>
</g>
<mask id="mask4_234_91" style="mask-type:luminance" maskUnits="userSpaceOnUse" x="164" y="230" width="58" height="87">
<path d="M221.973 230.516H164.241V316.072H221.973V230.516Z" fill="white"/>
</mask>
<g mask="url(#mask4_234_91)">
<path d="M199.882 274.827C199.882 274.827 207.203 276.652 210.129 277.57C213.055 278.487 213.962 279.578 213.962 281.77C213.962 283.962 212.321 293.647 212.321 295.115V304.994C212.321 307.737 215.063 317.789 215.063 317.789H179.432C179.432 317.789 175.416 302.436 172.673 294.035C169.931 285.635 169.564 282.698 172.306 281.413C178.825 279.025 185.477 277.013 192.227 275.389C194.763 275.023 197.321 274.835 199.882 274.827Z" fill="#92E3A9" stroke="#263238" stroke-miterlimit="10"/>
<path d="M210.496 286.888C210.496 286.888 212.655 296.951 211.953 300.6C211.251 304.25 206.285 318.156 206.285 318.156" stroke="#263238" stroke-linecap="round" stroke-linejoin="round"/>
<path d="M172.285 281.402C172.285 281.402 169.046 281.953 169.909 286.164C170.773 290.375 166.616 317.594 166.616 317.594H174.66C174.66 317.594 180.145 303.148 181.052 299.682C181.959 296.216 182.704 293.463 181.052 290.537" fill="#92E3A9"/>
<path d="M172.285 281.402C172.285 281.402 169.046 281.953 169.909 286.164C170.773 290.375 166.616 317.594 166.616 317.594H174.66C174.66 317.594 180.145 303.148 181.052 299.682C181.959 296.216 182.704 293.463 181.052 290.537" stroke="#263238" stroke-miterlimit="10"/>
<path d="M206.35 257.022L207.548 294.262H196.74V260.229L206.35 257.022Z" fill="#263238" stroke="#263238" stroke-linecap="round" stroke-linejoin="round"/>
<path d="M192.389 283.788C192.389 283.788 195.499 297.825 196.784 302.068C198.068 306.311 198.241 316.104 197.863 317.421C197.485 318.739 202.43 317.421 202.43 317.421C202.43 317.421 203.715 307.704 204.45 302.068C205.184 296.432 202.981 285.797 202.981 285.797L200.606 276.468L191.644 278.12L192.389 283.788Z" fill="white" stroke="#263238" stroke-linecap="round" stroke-linejoin="round"/>
<path d="M200.217 268.424C199.707 271.335 199.769 274.316 200.4 277.202C201.48 281.23 204.428 288.54 201.869 290.548C199.31 292.556 195.833 291.466 194.008 287.805C192.184 284.145 190.532 275.011 190.532 267.517C190.532 260.024 191.266 258.739 193.825 258.739C196.384 258.739 200.217 268.424 200.217 268.424Z" fill="white" stroke="#263238" stroke-linecap="round" stroke-linejoin="round"/>
<path d="M194.948 264.958C193.304 266.388 191.37 267.445 189.279 268.057C186.537 268.608 185.079 261.298 184.712 254.021C184.345 246.743 186.18 242.684 190.013 240.859C193.846 239.034 203.175 239.941 206.835 241.399C210.496 242.856 214.879 245.243 214.879 249.076C214.879 252.909 209.934 256.051 208.477 256.914C207.019 257.778 203.542 259.074 201.35 261.298C199.457 262.897 197.287 264.138 194.948 264.958Z" fill="#263238" stroke="#263238" stroke-linecap="round" stroke-linejoin="round"/>
<path d="M194.948 264.958C194.948 264.958 197.107 270.443 201.167 270.616C205.227 270.789 209.805 261.482 209.945 257.454C210.085 253.427 205.918 246.484 205.918 246.484C205.918 246.484 198.792 262.756 194.948 264.958Z" fill="white" stroke="#263238" stroke-linecap="round" stroke-linejoin="round"/>
<path d="M193.857 256.731L194.214 296.216H181.97L184.712 250.328" fill="#263238"/>
<path d="M193.857 256.731L194.214 296.216H181.97L184.712 250.328" stroke="#263238" stroke-linecap="round" stroke-linejoin="round"/>
</g>
</svg>
