<svg width="489" height="521" viewBox="0 0 489 521" fill="none" xmlns="http://www.w3.org/2000/svg">
<path opacity="0.2" d="M189.006 411.22L284.128 393.484C284.128 393.484 305.647 461.383 309.988 470.166L307.715 475.495L309.147 484.414L214.616 505.911L207.037 499.934L189.006 411.22Z" fill="black" fill-opacity="0.7"/>
<path d="M277.218 386.207L185.263 407.979L207.034 499.933L298.989 478.162L277.218 386.207Z" fill="#50E3B9"/>
<mask id="mask0_617_2767" style="mask-type:luminance" maskUnits="userSpaceOnUse" x="185" y="386" width="114" height="114">
<path d="M277.218 386.207L185.263 407.979L207.034 499.933L298.989 478.162L277.218 386.207Z" fill="white"/>
</mask>
<g mask="url(#mask0_617_2767)">
<path opacity="0.2" d="M283.094 411.016L298.353 475.449L210.662 496.207C200.095 469.768 192.017 436.478 192.017 436.478L283.094 411.016Z" fill="black" fill-opacity="0.7"/>
</g>
<path d="M277.218 386.207L185.263 407.979L207.034 499.933L298.989 478.162L277.218 386.207Z" stroke="#263238" stroke-linecap="round" stroke-linejoin="round"/>
<path d="M301.864 472.302C278.879 477.745 246.327 482.857 226.693 485.743C216.468 487.243 209.651 488.129 209.651 488.129C200.947 472.223 185.245 407.982 185.245 407.982L277.197 386.213C277.379 386.997 277.538 387.781 277.708 388.553C288.673 438.239 301.864 472.302 301.864 472.302Z" fill="white"/>
<mask id="mask1_617_2767" style="mask-type:luminance" maskUnits="userSpaceOnUse" x="185" y="386" width="117" height="103">
<path d="M301.866 472.3C278.881 477.743 246.329 482.855 226.695 485.741C216.47 487.241 209.652 488.127 209.652 488.127C200.949 472.221 185.247 407.98 185.247 407.98L277.199 386.211C277.381 386.995 277.54 387.779 277.71 388.551C288.675 438.237 301.866 472.3 301.866 472.3Z" fill="white"/>
</mask>
<g mask="url(#mask1_617_2767)">
<path opacity="0.4" d="M301.866 472.301C278.88 477.744 246.329 482.857 226.695 485.743C211.925 475.937 208.391 466.325 208.573 457.156C208.766 446.271 256.191 456.906 266.098 446.124C273.165 438.432 272.915 405.789 277.733 388.553C288.674 438.238 301.866 472.301 301.866 472.301Z" fill="#50E3B9"/>
</g>
<path d="M301.864 472.302C278.879 477.745 246.327 482.857 226.693 485.743C216.468 487.243 209.651 488.129 209.651 488.129C200.947 472.223 185.245 407.982 185.245 407.982L277.197 386.213C277.379 386.997 277.538 387.781 277.708 388.553C288.673 438.239 301.864 472.302 301.864 472.302Z" stroke="#263238" stroke-linecap="round" stroke-linejoin="round"/>
<path d="M200.789 421.889C202.036 420.435 203.533 419.215 205.209 418.287L206.572 421.786L211.333 420.059C212.924 419.48 214.741 418.73 215.298 417.151C216.173 419.23 219.195 418.878 221.343 418.196C236.211 413.41 251.398 409.678 266.79 407.027" stroke="#263238" stroke-linecap="round" stroke-linejoin="round"/>
<path d="M203.094 434.614C202.105 434.103 202.924 432.342 204.037 432.41C205.15 432.478 205.866 433.705 205.957 434.819C206.45 434.765 206.913 434.557 207.28 434.224C207.647 433.892 207.9 433.452 208.002 432.967L209.582 434.103C209.45 433.907 209.36 433.687 209.317 433.455C209.274 433.223 209.279 432.984 209.332 432.754C209.385 432.524 209.484 432.308 209.624 432.118C209.764 431.928 209.941 431.768 210.145 431.649C210.348 431.53 210.574 431.454 210.808 431.426C211.043 431.398 211.28 431.418 211.506 431.485C211.733 431.552 211.943 431.664 212.124 431.816C212.304 431.967 212.452 432.154 212.558 432.365C212.445 431.07 212.945 429.206 214.206 429.502C214.599 429.663 214.958 429.898 215.263 430.195C215.648 430.429 216.082 430.569 216.532 430.604C216.981 430.638 217.433 430.567 217.849 430.394C218.265 430.221 218.635 429.952 218.928 429.61C219.221 429.267 219.429 428.86 219.535 428.422C220.773 429.831 222.943 429.638 224.841 429.32L241.384 426.502C241.543 425.457 242.065 424.116 243.111 424.23C243.713 424.321 244.111 424.9 244.633 425.218C245.439 425.556 246.339 425.588 247.167 425.309C254.619 423.694 261.932 421.495 269.039 418.73" stroke="#263238" stroke-linecap="round" stroke-linejoin="round"/>
<path d="M208.798 449.102C211.008 449.295 213.233 448.988 215.308 448.204C214.941 447.428 214.848 446.55 215.044 445.715C215.24 444.879 215.714 444.134 216.388 443.602L218.387 444.886C226.44 444.695 234.444 443.589 242.247 441.591C245.735 440.705 249.189 439.626 252.632 438.546L272.243 432.434" stroke="#263238" stroke-linecap="round" stroke-linejoin="round"/>
<path opacity="0.2" d="M360.753 46.3306L358.923 46.4442C358.081 46.542 357.231 46.3343 356.528 45.859C355.826 45.3837 355.317 44.6722 355.094 43.8537C352.299 33.6848 342.074 27.9698 330.268 28.7083C319.611 29.3673 308.374 36.0935 301.864 45.3876C301.064 46.6059 300.004 47.632 298.761 48.3922C297.517 49.1525 296.121 49.628 294.672 49.7847L285.582 50.3527C284.341 50.4674 283.096 50.1804 282.03 49.534C280.964 48.8876 280.134 47.916 279.663 46.7624C275.993 38.0932 266.687 32.6509 256.018 33.3099C244.191 34.037 231.965 41.1382 225.887 51.8639C225.406 52.7271 224.725 53.4618 223.9 54.0057C223.075 54.5496 222.131 54.8867 221.149 54.9884L219.319 55.102C218.89 55.1493 218.488 55.3342 218.172 55.6291C217.857 55.924 217.646 56.3131 217.57 56.7381L216.854 61.2829C216.81 61.4353 216.799 61.5952 216.82 61.7523C216.842 61.9094 216.896 62.0603 216.98 62.1951C217.063 62.33 217.174 62.4459 217.305 62.5353C217.436 62.6248 217.584 62.6858 217.74 62.7145L219.944 63.3849C220.799 63.6392 221.539 64.183 222.036 64.9232C222.534 65.6633 222.758 66.5535 222.671 67.4411C221.899 81.9957 232.17 92.6872 246.793 91.7896C260.893 90.9148 274.311 79.5301 278.697 65.4982C279.067 64.3622 279.714 63.3358 280.578 62.5109C281.443 61.6861 282.498 61.0885 283.651 60.7716C286.777 59.9481 290.029 59.7168 293.24 60.0899C294.263 60.2091 295.204 60.7089 295.875 61.4898C296.547 62.2708 296.9 63.2758 296.864 64.3052C296.864 78.1099 306.897 88.0629 321.02 87.1881C335.665 86.3018 349.55 74.156 353.435 59.3855C353.715 58.3629 354.229 57.4197 354.938 56.6308C355.646 55.8419 356.528 55.2289 357.514 54.8407L359.98 53.8977C360.324 53.7803 360.631 53.573 360.869 53.2974C361.107 53.0218 361.267 52.6877 361.332 52.3297L362.059 47.785C362.118 47.5967 362.127 47.3963 362.085 47.2036C362.043 47.0108 361.952 46.8322 361.82 46.6855C361.688 46.5387 361.521 46.4288 361.333 46.3666C361.146 46.3044 360.946 46.292 360.753 46.3306ZM247.417 87.9493C233.783 88.7901 224.569 78.0872 226.773 64.0893C228.977 50.0914 241.839 37.9569 255.439 37.1729C269.039 36.389 278.288 47.0351 276.072 61.0329C273.857 75.0308 261.018 87.1085 247.417 87.9493ZM280.128 58.0788C280.181 57.3214 280.204 56.5374 280.197 55.7269C280.211 55.4031 280.34 55.0949 280.56 54.8575C280.781 54.6202 281.079 54.4692 281.401 54.4317L297.671 53.4318C297.812 53.4184 297.955 53.442 298.084 53.5002C298.214 53.5584 298.326 53.6493 298.409 53.7639C298.493 53.8785 298.545 54.0129 298.561 54.1539C298.577 54.2948 298.556 54.4376 298.501 54.568C298.251 55.352 298.023 56.136 297.819 56.9313C290.82 54.8975 283.832 56.7268 280.128 58.0788ZM321.622 83.3477C307.988 84.1885 298.773 73.4856 300.989 59.4877C303.204 45.4898 316.043 33.3553 329.644 32.5713C343.244 31.7874 352.492 42.4335 350.288 56.4314C348.084 70.4292 335.256 82.507 321.622 83.3477Z" fill="black" fill-opacity="0.7"/>
<path d="M349.083 49.1602L244.827 62.999C242.365 63.3259 239.999 64.1651 237.881 65.4626C235.764 66.7601 233.942 68.487 232.533 70.5319L217.274 92.7331C217.134 92.9395 217.042 93.1747 217.006 93.4214C216.97 93.668 216.989 93.9197 217.064 94.1577C217.138 94.3957 217.265 94.6139 217.435 94.7961C217.605 94.9782 217.814 95.1197 218.047 95.21C219.069 95.603 220.193 95.6396 221.239 95.3138C222.284 94.988 223.189 94.3189 223.807 93.4148L237.919 72.9634C238.758 71.739 239.843 70.7027 241.105 69.9203C242.366 69.1379 243.777 68.6265 245.247 68.4186L349.458 53.6481L349.083 49.1602Z" fill="#263238"/>
<path d="M208.435 57.9315L313.578 56.1932C316.064 56.1582 318.53 56.6458 320.816 57.6244C323.102 58.603 325.157 60.0508 326.848 61.8741L345.232 81.5757C345.402 81.7581 345.527 81.9766 345.6 82.2147C345.673 82.4527 345.691 82.7043 345.653 82.9503C345.615 83.1964 345.521 83.4305 345.379 83.6352C345.238 83.8399 345.051 84.0098 344.834 84.1321C343.883 84.6744 342.776 84.8796 341.694 84.7147C340.611 84.5497 339.616 84.0242 338.869 83.2232L321.883 65.0441C320.867 63.9547 319.635 63.089 318.266 62.5022C316.896 61.9153 315.42 61.6202 313.93 61.6355L208.673 62.4309L208.435 57.9315Z" fill="#263238"/>
<path d="M272.163 64.625C273.458 64.8636 273.402 73.7145 270.47 76.7027C267.539 79.6908 264.539 72.4192 265.301 69.806C266.062 67.1927 268.107 63.8523 272.163 64.625Z" fill="#50E3B9" stroke="#263238" stroke-linecap="round" stroke-linejoin="round"/>
<path d="M290.434 63.4875C289.184 63.8966 290.332 72.5771 293.604 75.2699C296.876 77.9626 298.967 70.282 297.887 67.7937C296.808 65.3054 294.354 62.2264 290.434 63.4875Z" fill="#50E3B9" stroke="#263238" stroke-linecap="round" stroke-linejoin="round"/>
<path opacity="0.5" d="M225.295 43.91C230.795 39.2061 242.441 31.196 255.189 38.8198C267.937 46.4437 272.334 54.7265 269.721 65.9407C267.107 77.1549 259.074 92.1527 240.18 89.5394C221.285 86.9262 208.219 58.5214 225.295 43.91Z" fill="#50E3B9"/>
<path opacity="0.5" d="M299.637 40.2861C305.136 35.5823 316.771 27.5608 329.519 35.1846C342.267 42.8085 346.675 51.0913 344.051 62.3055C341.426 73.5197 333.416 88.5174 314.51 85.9042C295.603 83.291 282.549 54.8407 299.637 40.2861Z" fill="#50E3B9"/>
<path d="M351.254 47.5692L349.424 47.6829C348.518 47.7427 347.614 47.5371 346.823 47.0911C346.032 46.6451 345.388 45.9782 344.971 45.1719C339.903 35.3097 328.303 29.7879 316.475 30.515C311.251 30.8557 306.201 32.5276 301.806 35.3715C297.411 38.2155 293.816 42.1369 291.365 46.7626C290.777 47.9652 289.884 48.9931 288.776 49.7445C287.668 50.4959 286.383 50.9445 285.048 51.046L275.958 51.6027C274.618 51.6732 273.283 51.3901 272.086 50.7819C270.89 50.1737 269.874 49.2617 269.141 48.1373C266.137 43.8495 262.085 40.402 257.372 38.1228C252.658 35.8436 247.44 34.8087 242.213 35.1166C230.386 35.8551 219.558 42.7632 215.752 53.182C215.435 54.0327 214.877 54.7727 214.147 55.3115C213.416 55.8502 212.545 56.1644 211.639 56.2157L209.809 56.3293C209.41 56.3556 209.038 56.5389 208.774 56.8392C208.51 57.1395 208.375 57.5322 208.4 57.9313L208.673 62.3738C208.696 62.706 208.828 63.0215 209.047 63.2719C209.267 63.5222 209.562 63.6937 209.889 63.76L212.275 64.3962C213.2 64.6305 214.039 65.1255 214.692 65.8223C215.344 66.5191 215.783 67.3886 215.956 68.3275C217.04 75.1791 220.593 81.3974 225.946 85.8093C231.299 90.2213 238.081 92.522 245.014 92.2774C251.946 92.0328 258.55 89.2598 263.578 84.4816C268.607 79.7033 271.713 73.2501 272.311 66.3391C272.436 65.2662 272.884 64.2566 273.596 63.4447C274.309 62.6329 275.252 62.0572 276.299 61.7944C279.417 60.971 282.662 60.7397 285.866 61.1126C286.949 61.2518 287.965 61.7177 288.777 62.4485C289.589 63.1792 290.159 64.1401 290.411 65.2029C291.824 72.0217 295.693 78.0838 301.283 82.2372C306.872 86.3906 313.793 88.346 320.729 87.7318C327.666 87.1177 334.135 83.9767 338.908 78.9059C343.681 73.835 346.425 67.1875 346.618 60.2264C346.669 59.277 346.992 58.3621 347.548 57.5907C348.104 56.8193 348.869 56.2237 349.754 55.8748L352.026 54.9431C352.341 54.837 352.613 54.6307 352.799 54.3558C352.986 54.0809 353.078 53.7525 353.06 53.4206L352.776 48.9781C352.756 48.5914 352.585 48.2278 352.301 47.9648C352.017 47.7017 351.641 47.5598 351.254 47.5692ZM245.497 88.1654C240.619 88.4691 235.76 87.3187 231.536 84.8599C227.312 82.401 223.912 78.7442 221.767 74.3522C219.622 69.9603 218.828 65.0308 219.486 60.1875C220.144 55.3442 222.224 50.8051 225.463 47.1445C228.702 43.4839 232.954 40.8665 237.681 39.6235C242.408 38.3806 247.397 38.568 252.018 40.162C256.638 41.7561 260.682 44.6851 263.637 48.5783C266.592 52.4716 268.326 57.154 268.619 62.033C269.001 68.5604 266.784 74.9738 262.451 79.8708C258.118 84.7679 252.022 87.7501 245.497 88.1654ZM272.084 59.1243C271.959 58.3517 271.811 57.5905 271.629 56.8519C271.594 56.7057 271.592 56.5536 271.622 56.4063C271.652 56.259 271.714 56.1201 271.805 55.9997C271.895 55.8793 272.01 55.7802 272.143 55.7095C272.276 55.6388 272.422 55.5983 272.572 55.5908L288.843 54.5795C288.996 54.5613 289.152 54.5781 289.298 54.6287C289.444 54.6794 289.577 54.7625 289.687 54.8719C289.796 54.9813 289.879 55.1141 289.93 55.2602C289.98 55.4064 289.997 55.5621 289.979 55.7157C289.899 56.4656 289.843 57.2382 289.809 57.9881C283.936 56.5253 277.755 56.9223 272.118 59.1243H272.084ZM319.736 83.5638C314.858 83.8675 309.999 82.7172 305.775 80.2583C301.55 77.7994 298.151 74.1426 296.006 69.7507C293.861 65.3587 293.067 60.4292 293.725 55.5859C294.383 50.7427 296.463 46.2035 299.702 42.5429C302.94 38.8823 307.192 36.2649 311.919 35.0219C316.646 33.779 321.636 33.9664 326.257 35.5605C330.877 37.1545 334.921 40.0835 337.876 43.9768C340.831 47.87 342.565 52.5524 342.857 57.4314C343.243 63.954 341.031 70.3642 336.705 75.261C332.379 80.1577 326.29 83.1428 319.77 83.5638H319.736Z" fill="#757575" stroke="#263238" stroke-linecap="round" stroke-linejoin="round"/>
<path opacity="0.4" d="M227.318 79.4277C227.318 79.4277 218.228 67.3954 224.636 53.4203C230.419 40.854 243.951 39.4224 250.371 42.0583L236.407 66.5092C237.692 60.5369 239.615 54.7201 242.145 49.1595C242.145 49.1595 229.806 61.6576 227.318 79.4277Z" fill="white"/>
<path opacity="0.4" d="M301.374 74.1554C301.374 74.1554 292.285 62.1345 298.693 48.1593C304.476 35.5817 318.008 34.1501 324.416 36.7974L310.407 61.2028C311.464 52.4427 316.202 43.8759 316.202 43.8759C316.202 43.8759 303.851 56.3626 301.374 74.1554Z" fill="white"/>
<path opacity="0.2" d="M34.847 286.443L38.142 301.248L41.9028 284.489L32.0179 117.094H25.2803L34.847 286.443Z" fill="black" fill-opacity="0.7"/>
<path d="M28.8257 115.06L38.1424 283.444L34.7338 297.294L29.8028 283.909L20.4633 115.514C20.4417 115.234 20.4762 114.952 20.5649 114.685C20.6537 114.419 20.7947 114.172 20.9799 113.96C21.1651 113.749 21.3906 113.576 21.6434 113.453C21.8961 113.33 22.1709 113.258 22.4516 113.242L26.5987 113.015C26.88 113 27.1615 113.041 27.4267 113.136C27.6918 113.231 27.9353 113.378 28.1428 113.569C28.3503 113.759 28.5176 113.989 28.6348 114.245C28.7521 114.501 28.817 114.778 28.8257 115.06Z" fill="#50E3B9"/>
<mask id="mask2_617_2767" style="mask-type:luminance" maskUnits="userSpaceOnUse" x="20" y="113" width="19" height="185">
<path d="M28.8276 115.062L38.1444 283.446L34.7358 297.296L29.8047 283.911L20.4652 115.516C20.4436 115.236 20.4782 114.954 20.5669 114.687C20.6556 114.42 20.7967 114.174 20.9819 113.962C21.167 113.751 21.3926 113.578 21.6453 113.455C21.898 113.332 22.1728 113.26 22.4536 113.244L26.6007 113.017C26.882 113.002 27.1635 113.043 27.4286 113.138C27.6938 113.233 27.9373 113.38 28.1447 113.57C28.3522 113.761 28.5195 113.991 28.6368 114.247C28.7541 114.503 28.8189 114.78 28.8276 115.062Z" fill="white"/>
</mask>
<g mask="url(#mask2_617_2767)">
<path opacity="0.2" d="M34.7131 297.294L29.782 283.91L20.4652 115.515C20.4436 115.234 20.4782 114.952 20.5669 114.685C20.6556 114.419 20.7967 114.172 20.9819 113.961C21.167 113.749 21.3926 113.576 21.6453 113.453C21.898 113.33 22.1728 113.258 22.4536 113.242H23.033L32.418 282.864L34.7131 297.294Z" fill="black" fill-opacity="0.7"/>
</g>
<path d="M28.8257 115.06L38.1424 283.444L34.7338 297.294L29.8028 283.909L20.4633 115.514C20.4417 115.234 20.4762 114.952 20.5649 114.685C20.6537 114.419 20.7947 114.172 20.9799 113.96C21.1651 113.749 21.3906 113.576 21.6434 113.453C21.8961 113.33 22.1709 113.258 22.4516 113.242L26.5987 113.015C26.88 113 27.1615 113.041 27.4267 113.136C27.6918 113.231 27.9353 113.378 28.1428 113.569C28.3503 113.759 28.5176 113.989 28.6348 114.245C28.7521 114.501 28.817 114.778 28.8257 115.06Z" stroke="#263238" stroke-linecap="round" stroke-linejoin="round"/>
<path d="M23.1904 116.197L32.28 281.502C32.2901 281.69 32.3373 281.874 32.4188 282.044C32.5003 282.214 32.6145 282.366 32.7549 282.491C32.8953 282.617 33.0591 282.714 33.2369 282.776C33.4147 282.838 33.603 282.865 33.7911 282.854H34.7909" fill="#50E3B9"/>
<path d="M23.1904 116.197L32.28 281.502C32.2901 281.69 32.3373 281.874 32.4188 282.044C32.5003 282.214 32.6145 282.366 32.7549 282.491C32.8953 282.617 33.0591 282.714 33.2369 282.776C33.4147 282.838 33.603 282.865 33.7911 282.854H34.7909" stroke="#263238" stroke-linecap="round" stroke-linejoin="round"/>
<path opacity="0.2" d="M64.5584 317.824L95.3605 116.571C96.3098 110.383 99.6772 104.826 104.722 101.121C109.768 97.4162 116.078 95.8663 122.266 96.8123L418.028 142.09C421.092 142.557 424.034 143.623 426.686 145.228C429.338 146.832 431.647 148.944 433.483 151.441C435.319 153.938 436.645 156.773 437.385 159.783C438.125 162.793 438.265 165.919 437.797 168.983L406.984 370.237C406.519 373.303 405.455 376.247 403.851 378.901C402.247 381.555 400.136 383.866 397.639 385.704C395.141 387.541 392.305 388.868 389.294 389.608C386.283 390.348 383.155 390.488 380.09 390.018L84.3167 344.729C78.1296 343.78 72.5726 340.413 68.8675 335.367C65.1623 330.322 63.6124 324.012 64.5584 317.824Z" fill="black" fill-opacity="0.7"/>
<path d="M88.2961 124.142L90.6352 108.856C90.6807 108.559 90.8428 108.291 91.0856 108.113C91.3285 107.934 91.6323 107.86 91.9301 107.905L98.3768 108.892L95.6958 126.412L89.2491 125.426C88.9532 125.38 88.687 125.22 88.5086 124.98C88.3302 124.739 88.2538 124.438 88.2961 124.142Z" fill="#50E3B9" stroke="#263238" stroke-linecap="round" stroke-linejoin="round"/>
<path d="M128.34 91.9494L143.626 94.2885C143.924 94.3341 144.191 94.4961 144.37 94.7389C144.548 94.9818 144.623 95.2856 144.577 95.5835L143.591 102.03L126.07 99.3491L127.057 92.9024C127.102 92.6065 127.262 92.3404 127.503 92.1619C127.743 91.9835 128.044 91.9071 128.34 91.9494Z" fill="#50E3B9" stroke="#263238" stroke-linecap="round" stroke-linejoin="round"/>
<path d="M149.173 95.1311L164.459 97.4701C164.757 97.5157 165.024 97.6777 165.203 97.9206C165.381 98.1634 165.456 98.4672 165.41 98.7651L164.424 105.212L146.903 102.531L147.89 96.0841C147.935 95.7881 148.095 95.522 148.336 95.3436C148.576 95.1651 148.877 95.0888 149.173 95.1311Z" fill="#50E3B9" stroke="#263238" stroke-linecap="round" stroke-linejoin="round"/>
<path d="M61.1502 313.281L91.9523 112.028C92.9016 105.84 96.269 100.283 101.314 96.5784C106.36 92.8733 112.67 91.3233 118.857 92.2693L414.619 137.547C417.684 138.014 420.626 139.08 423.277 140.685C425.929 142.289 428.239 144.401 430.075 146.898C431.911 149.396 433.237 152.23 433.977 155.24C434.717 158.25 434.857 161.376 434.389 164.44L403.576 365.694C403.111 368.76 402.046 371.704 400.443 374.358C398.839 377.012 396.728 379.323 394.23 381.161C391.732 382.998 388.897 384.325 385.886 385.065C382.874 385.805 379.747 385.945 376.682 385.475L80.9085 340.186C74.7213 339.237 69.1644 335.87 65.4592 330.824C61.7541 325.779 60.2042 319.469 61.1502 313.281Z" fill="#50E3B9" stroke="#263238" stroke-linecap="round" stroke-linejoin="round"/>
<path d="M377.841 382.963L80.5451 337.459C77.9237 337.059 75.4067 336.147 73.138 334.775C70.8693 333.402 68.8934 331.596 67.3233 329.459C65.7531 327.322 64.6195 324.897 63.9873 322.321C63.355 319.746 63.2365 317.072 63.6385 314.451L94.6793 111.652C95.4886 106.359 98.3673 101.604 102.682 98.434C106.997 95.2634 112.394 93.9366 117.687 94.7454L414.994 140.25C420.287 141.065 425.04 143.946 428.209 148.262C431.379 152.578 432.707 157.975 431.901 163.269L400.86 366.057C400.459 368.678 399.546 371.196 398.172 373.464C396.798 375.733 394.991 377.709 392.853 379.279C390.716 380.849 388.29 381.983 385.714 382.615C383.138 383.247 380.463 383.365 377.841 382.963Z" fill="#757575" stroke="#263238" stroke-linecap="round" stroke-linejoin="round"/>
<path d="M84.1583 213.817C84.1206 214.037 84.019 214.24 83.8661 214.403C83.7133 214.565 83.516 214.679 83.2988 214.73C83.0817 214.782 82.8543 214.768 82.6451 214.69C82.4358 214.613 82.2539 214.476 82.122 214.296C81.9902 214.116 81.9142 213.901 81.9036 213.679C81.893 213.456 81.9482 213.235 82.0624 213.043C82.1765 212.851 82.3446 212.698 82.5456 212.601C82.7465 212.504 82.9716 212.469 83.1926 212.499C83.3436 212.519 83.489 212.57 83.62 212.648C83.751 212.726 83.8649 212.83 83.955 212.953C84.0451 213.076 84.1096 213.216 84.1445 213.364C84.1794 213.513 84.1841 213.666 84.1583 213.817Z" fill="#999999" stroke="#263238" stroke-linecap="round" stroke-linejoin="round"/>
<path d="M83.6015 224.396C83.487 224.953 83.1631 225.444 82.6968 225.768C82.2304 226.093 81.6573 226.226 81.0958 226.14C80.5343 226.054 80.0272 225.755 79.6795 225.306C79.3317 224.857 79.1698 224.291 79.2272 223.726C79.3417 223.17 79.6655 222.678 80.1319 222.354C80.5982 222.029 81.1713 221.897 81.7328 221.983C82.2944 222.069 82.8014 222.367 83.1492 222.816C83.4969 223.266 83.6588 223.831 83.6015 224.396Z" fill="#263238"/>
<path d="M87.498 198.934C87.3835 199.49 87.0596 199.981 86.5933 200.306C86.1269 200.63 85.5538 200.763 84.9923 200.677C84.4307 200.591 83.9237 200.293 83.576 199.843C83.2282 199.394 83.0663 198.829 83.1236 198.263C83.154 197.964 83.2448 197.675 83.3906 197.412C83.5363 197.149 83.734 196.919 83.9716 196.735C84.2092 196.551 84.4817 196.418 84.7725 196.342C85.0634 196.267 85.3665 196.252 85.6635 196.297C85.9605 196.343 86.2451 196.448 86.5001 196.607C86.755 196.766 86.975 196.975 87.1466 197.222C87.3182 197.468 87.4378 197.747 87.4982 198.042C87.5586 198.336 87.5585 198.639 87.498 198.934Z" fill="#263238"/>
<path d="M81.8857 231.543C81.8372 231.858 81.6963 232.152 81.4808 232.387C81.2654 232.622 80.985 232.788 80.6752 232.864C80.3654 232.94 80.0401 232.922 79.7403 232.813C79.4405 232.705 79.1797 232.509 78.9909 232.252C78.802 231.995 78.6936 231.688 78.6793 231.369C78.6651 231.05 78.7456 230.735 78.9107 230.462C79.0758 230.189 79.3181 229.971 79.607 229.836C79.8958 229.701 80.2183 229.654 80.5337 229.702C80.7434 229.734 80.9448 229.807 81.1263 229.917C81.3078 230.026 81.4658 230.171 81.5914 230.342C81.717 230.513 81.8076 230.707 81.8581 230.913C81.9086 231.119 81.918 231.333 81.8857 231.543Z" fill="#263238"/>
<path d="M424.435 159.781L392.702 367.158C392.301 369.772 390.879 372.119 388.749 373.685C386.618 375.251 383.954 375.907 381.34 375.509L132.275 337.39L126.878 336.617L106.574 333.504L96.7464 332.004L82.544 329.8L79.4422 329.323C76.8287 328.923 74.4811 327.501 72.9152 325.37C71.3494 323.24 70.6933 320.575 71.0912 317.961L102.836 110.515C103.033 109.221 103.483 107.978 104.161 106.858C104.839 105.738 105.732 104.763 106.787 103.988C107.842 103.213 109.04 102.654 110.312 102.343C111.584 102.032 112.904 101.975 114.198 102.176L207.173 116.401L221.239 118.56L234.68 120.616L251.95 123.252L258.199 124.206L416.13 148.373C417.424 148.577 418.666 149.033 419.784 149.716C420.902 150.4 421.875 151.297 422.646 152.356C423.417 153.416 423.972 154.617 424.279 155.89C424.586 157.164 424.639 158.486 424.435 159.781Z" fill="#263238"/>
<g opacity="0.1">
<path d="M190.96 335.482L85.294 319.314C84.6074 319.208 83.991 318.833 83.5799 318.273C83.1689 317.713 82.9967 317.013 83.1011 316.326L93.5882 247.779C93.6973 247.092 94.0739 246.475 94.6359 246.065C95.1979 245.654 95.8995 245.482 96.5877 245.587L202.254 261.755C202.594 261.806 202.921 261.924 203.216 262.102C203.511 262.28 203.768 262.515 203.971 262.793C204.175 263.07 204.322 263.386 204.404 263.72C204.485 264.055 204.5 264.402 204.446 264.743L193.959 333.289C193.907 333.63 193.787 333.958 193.608 334.253C193.429 334.547 193.193 334.804 192.914 335.008C192.636 335.211 192.32 335.358 191.984 335.44C191.649 335.521 191.301 335.535 190.96 335.482ZM96.4855 246.496C96.2638 246.462 96.0377 246.472 95.8201 246.526C95.6024 246.579 95.3975 246.675 95.217 246.808C95.0365 246.941 94.884 247.108 94.7683 247.3C94.6526 247.492 94.5759 247.705 94.5426 247.927L84.0555 316.462C84.0217 316.684 84.0318 316.91 84.0855 317.128C84.1391 317.345 84.2352 317.55 84.3682 317.731C84.5012 317.911 84.6685 318.064 84.8605 318.179C85.0525 318.295 85.2654 318.372 85.4871 318.405L191.096 334.573C191.318 334.607 191.544 334.597 191.762 334.543C191.979 334.489 192.184 334.393 192.365 334.26C192.545 334.127 192.698 333.96 192.813 333.768C192.929 333.576 193.006 333.363 193.039 333.142L203.537 264.606C203.603 264.158 203.49 263.702 203.222 263.336C202.954 262.971 202.553 262.725 202.106 262.652L96.4855 246.496Z" fill="white"/>
</g>
<path opacity="0.4" d="M128.356 287.976L152.012 301.394C154.517 296.801 155.681 291.596 155.371 286.373C155.062 281.15 153.292 276.119 150.262 271.854L128.356 287.976Z" fill="#50E3B9"/>
<path opacity="0.6" d="M128.583 286.625L149.716 271.094C146.86 267.331 143.095 264.356 138.775 262.447L134.605 272.332L128.583 286.625Z" fill="#50E3B9"/>
<path d="M132.185 260.492L128.526 284.352L137.934 262.049C136.078 261.328 134.151 260.806 132.185 260.492Z" fill="#50E3B9"/>
<path opacity="0.1" d="M127.106 287.692L131.276 260.423C126.487 259.768 121.61 260.37 117.123 262.168C112.637 263.966 108.694 266.898 105.682 270.679C102.671 274.459 100.693 278.958 99.9431 283.733C99.1933 288.508 99.6972 293.396 101.405 297.917L127.106 287.692Z" fill="white"/>
<path opacity="0.2" d="M123.289 315.598C128.802 316.441 134.441 315.613 139.48 313.221C144.518 310.83 148.725 306.984 151.557 302.179L127.481 288.545L101.735 298.714C103.573 303.144 106.523 307.025 110.298 309.982C114.074 312.94 118.548 314.874 123.289 315.598Z" fill="#50E3B9"/>
<path d="M171.373 271.568L168.24 271.089C167.849 271.029 167.484 271.297 167.424 271.688L166.944 274.822C166.885 275.212 167.153 275.578 167.544 275.637L170.677 276.117C171.068 276.177 171.433 275.908 171.493 275.518L171.973 272.384C172.032 271.993 171.764 271.628 171.373 271.568Z" fill="#50E3B9"/>
<path d="M188.404 275.889L174.713 273.787C174.644 273.777 174.577 273.754 174.518 273.718C174.458 273.682 174.406 273.635 174.364 273.579C174.323 273.523 174.293 273.459 174.277 273.391C174.261 273.323 174.258 273.253 174.27 273.184C174.279 273.115 174.303 273.049 174.338 272.989C174.374 272.929 174.421 272.877 174.477 272.836C174.534 272.795 174.597 272.765 174.665 272.749C174.733 272.733 174.803 272.73 174.872 272.741L188.506 274.843C188.575 274.853 188.641 274.876 188.701 274.912C188.761 274.948 188.813 274.995 188.854 275.051C188.896 275.107 188.925 275.171 188.942 275.239C188.958 275.306 188.96 275.377 188.949 275.445C188.925 275.572 188.857 275.685 188.757 275.766C188.658 275.848 188.532 275.891 188.404 275.889Z" fill="#50E3B9"/>
<path d="M183.87 277.536L174.36 276.082C174.291 276.072 174.225 276.049 174.165 276.013C174.105 275.977 174.053 275.93 174.012 275.874C173.971 275.818 173.941 275.754 173.925 275.686C173.908 275.619 173.906 275.548 173.917 275.48C173.939 275.342 174.015 275.218 174.128 275.135C174.24 275.052 174.381 275.017 174.519 275.037L184.029 276.491C184.098 276.501 184.164 276.524 184.224 276.56C184.284 276.595 184.336 276.643 184.377 276.699C184.419 276.755 184.448 276.819 184.465 276.886C184.481 276.954 184.484 277.024 184.472 277.093C184.463 277.162 184.439 277.228 184.404 277.288C184.368 277.348 184.321 277.4 184.264 277.441C184.208 277.483 184.145 277.512 184.077 277.529C184.009 277.545 183.939 277.547 183.87 277.536Z" fill="#50E3B9"/>
<path opacity="0.6" d="M169.817 281.746L166.683 281.266C166.292 281.207 165.927 281.475 165.867 281.866L165.388 284.999C165.328 285.39 165.596 285.755 165.987 285.815L169.121 286.295C169.511 286.354 169.877 286.086 169.936 285.695L170.416 282.562C170.476 282.171 170.207 281.806 169.817 281.746Z" fill="#50E3B9"/>
<path d="M186.847 286.057L173.144 283.967C173.008 283.942 172.886 283.865 172.803 283.753C172.721 283.642 172.684 283.502 172.701 283.364C172.724 283.226 172.799 283.103 172.912 283.02C173.024 282.937 173.165 282.902 173.303 282.921L187.006 285.023C187.074 285.034 187.139 285.057 187.198 285.093C187.256 285.129 187.308 285.176 187.348 285.231C187.389 285.286 187.418 285.349 187.434 285.416C187.451 285.483 187.454 285.552 187.443 285.62C187.433 285.688 187.409 285.753 187.374 285.812C187.338 285.87 187.291 285.921 187.236 285.962C187.18 286.003 187.117 286.032 187.051 286.048C186.984 286.065 186.915 286.068 186.847 286.057Z" fill="#50E3B9"/>
<path d="M182.314 287.693L172.781 286.239C172.658 286.202 172.553 286.121 172.484 286.013C172.415 285.904 172.388 285.774 172.407 285.647C172.427 285.52 172.491 285.404 172.589 285.321C172.687 285.237 172.812 285.192 172.94 285.193L182.45 286.648C182.519 286.657 182.586 286.681 182.645 286.716C182.705 286.752 182.757 286.799 182.799 286.856C182.84 286.912 182.87 286.975 182.886 287.043C182.902 287.111 182.905 287.181 182.893 287.25C182.874 287.385 182.802 287.507 182.694 287.589C182.586 287.672 182.449 287.709 182.314 287.693Z" fill="#50E3B9"/>
<path opacity="0.4" d="M168.971 292.14L165.833 291.664C165.441 291.605 165.076 291.874 165.017 292.265L164.541 295.404C164.482 295.795 164.751 296.16 165.142 296.22L168.281 296.695C168.672 296.754 169.037 296.485 169.097 296.094L169.572 292.956C169.632 292.564 169.362 292.199 168.971 292.14Z" fill="#50E3B9"/>
<path d="M185.279 296.237L171.645 294.147C171.522 294.11 171.416 294.03 171.347 293.921C171.279 293.812 171.251 293.682 171.271 293.555C171.29 293.428 171.355 293.312 171.453 293.229C171.55 293.146 171.675 293.1 171.804 293.102L185.438 295.192C185.507 295.202 185.573 295.225 185.633 295.261C185.693 295.297 185.745 295.344 185.786 295.4C185.828 295.456 185.857 295.52 185.874 295.588C185.89 295.655 185.892 295.726 185.881 295.794C185.871 295.863 185.848 295.93 185.812 295.989C185.777 296.049 185.729 296.101 185.673 296.143C185.617 296.184 185.553 296.214 185.486 296.23C185.418 296.246 185.348 296.249 185.279 296.237Z" fill="#50E3B9"/>
<path d="M180.735 297.873L171.225 296.418C171.102 296.381 170.996 296.301 170.927 296.192C170.859 296.084 170.831 295.954 170.851 295.827C170.87 295.7 170.935 295.584 171.033 295.5C171.131 295.417 171.255 295.372 171.384 295.373L180.894 296.827C181.017 296.864 181.122 296.945 181.191 297.053C181.26 297.162 181.287 297.292 181.268 297.419C181.248 297.546 181.184 297.662 181.086 297.745C180.988 297.829 180.863 297.874 180.735 297.873Z" fill="#50E3B9"/>
<path opacity="0.2" d="M166.704 302.107L163.571 301.628C163.18 301.568 162.815 301.836 162.755 302.227L162.276 305.361C162.216 305.751 162.484 306.117 162.875 306.176L166.008 306.656C166.399 306.716 166.764 306.447 166.824 306.057L167.304 302.923C167.363 302.532 167.095 302.167 166.704 302.107Z" fill="#50E3B9"/>
<path d="M183.722 306.418L170.088 304.328C169.95 304.305 169.826 304.23 169.744 304.117C169.661 304.004 169.625 303.864 169.645 303.725C169.655 303.656 169.678 303.59 169.714 303.53C169.749 303.47 169.797 303.418 169.853 303.377C169.909 303.336 169.973 303.306 170.04 303.29C170.108 303.274 170.178 303.271 170.247 303.282L183.938 305.373C184.007 305.383 184.074 305.406 184.133 305.442C184.193 305.477 184.245 305.525 184.287 305.581C184.328 305.637 184.357 305.701 184.374 305.768C184.39 305.836 184.393 305.906 184.381 305.975C184.373 306.05 184.348 306.122 184.308 306.187C184.269 306.251 184.216 306.306 184.154 306.348C184.091 306.39 184.02 306.418 183.946 306.43C183.871 306.443 183.795 306.438 183.722 306.418Z" fill="#50E3B9"/>
<path d="M179.201 308.053L169.691 306.599C169.622 306.589 169.556 306.566 169.496 306.53C169.436 306.495 169.384 306.447 169.343 306.391C169.302 306.335 169.272 306.271 169.256 306.204C169.239 306.136 169.237 306.066 169.248 305.997C169.258 305.928 169.281 305.862 169.317 305.802C169.353 305.742 169.4 305.69 169.456 305.649C169.512 305.607 169.576 305.578 169.644 305.561C169.711 305.545 169.782 305.542 169.85 305.554L179.36 307.008C179.498 307.03 179.622 307.106 179.705 307.219C179.788 307.331 179.823 307.472 179.803 307.61C179.794 307.679 179.77 307.746 179.735 307.805C179.699 307.865 179.652 307.917 179.596 307.959C179.539 308 179.476 308.03 179.408 308.046C179.34 308.062 179.27 308.065 179.201 308.053Z" fill="#50E3B9"/>
<path opacity="0.1" d="M165.15 312.299L162.016 311.819C161.625 311.759 161.26 312.028 161.2 312.419L160.721 315.552C160.661 315.943 160.929 316.308 161.32 316.368L164.454 316.847C164.844 316.907 165.21 316.639 165.269 316.248L165.749 313.115C165.809 312.724 165.54 312.358 165.15 312.299Z" fill="white"/>
<path d="M182.166 316.598L168.531 314.507C168.393 314.485 168.27 314.409 168.187 314.297C168.104 314.184 168.069 314.043 168.088 313.905C168.098 313.836 168.121 313.77 168.157 313.71C168.193 313.65 168.24 313.598 168.296 313.557C168.352 313.515 168.416 313.486 168.484 313.47C168.551 313.453 168.622 313.451 168.69 313.462L182.382 315.553C182.451 315.562 182.517 315.586 182.577 315.621C182.637 315.657 182.689 315.704 182.73 315.76C182.771 315.816 182.801 315.88 182.817 315.948C182.833 316.016 182.836 316.086 182.825 316.155C182.816 316.23 182.791 316.302 182.752 316.366C182.713 316.431 182.66 316.486 182.597 316.528C182.535 316.57 182.464 316.598 182.389 316.61C182.315 316.622 182.238 316.618 182.166 316.598Z" fill="#50E3B9"/>
<path d="M177.644 318.235L168.123 316.781C168.055 316.77 167.989 316.745 167.931 316.709C167.872 316.673 167.822 316.625 167.781 316.569C167.741 316.513 167.713 316.45 167.697 316.383C167.682 316.316 167.679 316.246 167.691 316.178C167.699 316.109 167.721 316.042 167.757 315.981C167.792 315.92 167.839 315.868 167.896 315.826C167.952 315.784 168.016 315.755 168.085 315.739C168.153 315.724 168.224 315.722 168.293 315.735L177.803 317.19C177.879 317.19 177.955 317.208 178.024 317.24C178.093 317.272 178.155 317.319 178.204 317.378C178.254 317.436 178.291 317.504 178.311 317.578C178.332 317.651 178.337 317.728 178.326 317.804C178.314 317.88 178.287 317.952 178.245 318.016C178.203 318.08 178.148 318.134 178.083 318.175C178.018 318.216 177.946 318.242 177.87 318.253C177.794 318.263 177.717 318.257 177.644 318.235Z" fill="#50E3B9"/>
<g opacity="0.1">
<path d="M389.976 290.466L218.229 264.186C217.541 264.082 216.839 264.253 216.277 264.664C215.715 265.075 215.339 265.692 215.23 266.379L214.502 271.106L214.366 272.015L213.389 278.389L213.253 279.298L212.275 285.66L212.139 286.558L211.162 292.932L211.026 293.829L210.048 300.203L209.912 301.112L208.935 307.475L208.799 308.384L207.822 314.747L207.685 315.656L206.708 322.018L206.572 322.927L205.595 329.29L205.458 330.199L204.742 334.925C204.689 335.266 204.704 335.615 204.785 335.95C204.866 336.285 205.013 336.601 205.217 336.88C205.42 337.159 205.677 337.394 205.972 337.574C206.267 337.753 206.594 337.872 206.935 337.925L378.648 364.205C379.335 364.306 380.034 364.131 380.592 363.718C381.149 363.305 381.521 362.687 381.625 362.001L382.352 357.274L382.488 356.365L383.465 350.003L383.602 349.094L384.579 342.72L384.715 341.822L385.692 335.46L385.829 334.551L386.806 328.188L386.942 327.279L387.919 320.905L388.056 320.007L389.033 313.633L389.169 312.736L390.146 306.373L390.283 305.464L391.26 299.09L391.396 298.181L392.123 293.455C392.229 292.774 392.063 292.08 391.661 291.521C391.259 290.962 390.654 290.583 389.976 290.466ZM380.773 361.865C380.703 362.311 380.459 362.712 380.095 362.98C379.732 363.248 379.277 363.362 378.83 363.296L207.128 337.016C206.679 336.946 206.275 336.701 206.005 336.336C205.735 335.97 205.62 335.512 205.686 335.062L206.413 330.335L381.488 357.138L380.773 361.865ZM381.636 356.184L206.549 329.392L207.526 323.018L382.602 349.821L381.636 356.184ZM382.772 348.912L207.662 322.166L208.64 315.792L383.715 342.583L382.772 348.912ZM383.909 341.64L208.821 314.838L209.799 308.475L384.874 335.266L383.909 341.64ZM385.045 334.369L209.958 307.566L210.935 301.203L386.01 328.006L385.045 334.369ZM386.181 327.097L211.094 300.294L212.071 293.92L387.147 320.723L386.181 327.097ZM387.317 319.814L212.23 293.023L213.207 286.66L388.283 313.451L387.317 319.814ZM388.453 312.543L213.23 285.797L214.207 279.434L389.283 306.225L388.453 312.543ZM389.589 305.282L214.343 278.525L215.32 272.151L390.396 298.954L389.589 305.282ZM215.627 271.197L216.354 266.481C216.388 266.26 216.464 266.047 216.58 265.855C216.696 265.663 216.848 265.495 217.029 265.362C217.209 265.229 217.414 265.133 217.632 265.08C217.85 265.026 218.076 265.016 218.297 265.05L389.794 291.375C390.24 291.445 390.639 291.689 390.906 292.053C391.172 292.417 391.283 292.872 391.214 293.318L390.487 298.045L215.627 271.197Z" fill="white"/>
</g>
<g opacity="0.1">
<path d="M408.313 168.144L115.721 123.355C115.332 123.295 114.935 123.313 114.553 123.407C114.172 123.501 113.812 123.669 113.495 123.903C113.179 124.136 112.911 124.429 112.708 124.766C112.505 125.103 112.371 125.477 112.312 125.866L95.9171 232.975C95.7995 233.758 95.9962 234.555 96.4645 235.194C96.9328 235.833 97.6345 236.26 98.4167 236.383L391.02 281.172C391.803 281.29 392.601 281.093 393.239 280.624C393.878 280.156 394.305 279.454 394.429 278.672L410.824 171.552C410.884 171.163 410.866 170.767 410.772 170.385C410.678 170.003 410.509 169.643 410.276 169.326C410.043 169.01 409.749 168.742 409.412 168.539C409.076 168.336 408.702 168.202 408.313 168.144ZM169.713 183.539L190.028 186.641L188.255 198.184L167.906 195.071L169.713 183.539ZM167.043 194.901L146.648 191.845L148.42 180.289L168.77 183.403L167.043 194.901ZM190.959 186.8L211.32 189.913L209.548 201.468L189.198 198.355L190.959 186.8ZM296.489 202.025L276.14 198.912L277.901 187.357L298.261 190.47L296.489 202.025ZM299.159 190.663L319.52 193.776L317.747 205.331L297.398 202.218L299.159 190.663ZM233.476 193.367L253.836 196.48L252.064 208.035L231.681 204.82L233.476 193.367ZM230.806 204.729L210.457 201.616L212.184 190.049L232.544 193.163L230.806 204.729ZM254.734 196.571L275.038 199.673L273.265 211.228L252.916 208.115L254.734 196.571ZM275.992 199.821L296.353 202.934L294.58 214.489L274.231 211.376L275.992 199.821ZM275.231 198.775L254.882 195.662L256.643 184.107L277.003 187.232L275.231 198.775ZM253.973 195.526L233.623 192.413L235.385 180.858L255.722 183.959L253.973 195.526ZM232.68 192.322L212.331 189.197L214.092 177.551L234.453 180.664L232.68 192.322ZM211.411 189.004L191.062 185.891L192.823 174.336L213.183 177.449L211.411 189.004ZM209.366 202.377L207.605 213.909L187.256 210.796L189.028 199.241L209.366 202.377ZM210.275 202.513L230.624 205.627L228.851 217.182L208.502 214.068L210.275 202.513ZM231.533 205.763L251.882 208.876L250.11 220.431L229.772 217.318L231.533 205.763ZM252.791 209.012L273.14 212.137L271.368 223.681L251.019 220.567L252.791 209.012ZM274.049 212.273L294.398 215.386L292.626 226.941L272.277 223.828L274.049 212.273ZM295.307 215.523L315.657 218.636L313.884 230.191L293.535 227.078L295.307 215.523ZM295.444 214.625L297.205 203.07L317.565 206.183L315.793 217.738L295.444 214.625ZM318.463 206.32L338.823 209.433L337.051 220.988L316.702 217.875L318.463 206.32ZM339.721 209.569L360.082 212.694L358.309 224.237L337.96 221.124L339.721 209.569ZM339.869 208.672L341.63 197.116L362.002 200.275L360.252 211.785L339.869 208.672ZM338.96 208.535L318.611 205.411L320.372 193.856L340.732 196.98L338.96 208.535ZM320.485 192.958L322.258 181.403L342.607 184.516L340.937 196.071L320.485 192.958ZM319.588 192.822L299.239 189.697L301 178.153L321.349 181.267L319.588 192.822ZM298.33 189.561L277.969 186.448L279.742 174.893L300.091 178.006L298.33 189.561ZM277.071 186.311L256.745 183.232L258.517 171.677L278.867 174.79L277.071 186.311ZM255.813 183.05L235.498 179.937L237.259 168.382L257.609 171.507L255.813 183.05ZM234.589 179.824L214.24 176.71L215.956 165.133L236.407 168.246L234.589 179.824ZM213.331 176.574L192.971 173.461L194.743 161.906L215.092 165.053L213.331 176.574ZM192.096 173.291L171.746 170.177L173.508 158.622L193.857 161.747L192.096 173.291ZM191.959 174.199L190.187 185.755L169.838 182.641L171.599 171.086L191.959 174.199ZM168.929 182.505L148.58 179.381L150.341 167.825L170.701 170.95L168.929 182.505ZM147.671 179.244L127.333 176.131L129.094 164.576L149.454 167.689L147.671 179.244ZM147.534 180.153L145.762 191.708L125.413 188.595L127.185 177.04L147.534 180.153ZM145.625 192.651L143.853 204.206L123.504 201.093L125.276 189.538L145.625 192.651ZM146.534 192.799L166.884 195.912L165.111 207.467L144.762 204.343L146.534 192.799ZM167.793 196.048L188.119 199.139L186.347 210.694L165.963 207.558L167.793 196.048ZM186.21 211.637L184.438 223.192L164.089 220.068L165.861 208.512L186.21 211.637ZM187.119 211.773L207.468 214.886L205.73 226.407L185.369 223.294L187.119 211.773ZM208.377 215.023L228.727 218.136L226.954 229.691L206.605 226.578L208.377 215.023ZM229.59 218.227L250.041 221.34L248.269 232.895L227.863 229.816L229.59 218.227ZM250.848 221.476L271.197 224.59L269.425 236.145L249.076 233.031L250.848 221.476ZM272.106 224.726L292.455 227.85L290.683 239.394L270.334 236.281L272.106 224.726ZM293.364 227.987L313.714 231.1L311.941 242.655L291.592 239.542L293.364 227.987ZM314.623 231.236L335.017 234.361L333.245 245.916L312.896 242.803L314.623 231.236ZM314.759 230.327L316.531 218.784L336.926 221.863L335.154 233.418L314.759 230.327ZM337.79 222.033L358.139 225.146L356.366 236.701L336.017 233.588L337.79 222.033ZM359.116 225.271L379.465 228.384L377.693 239.94L357.343 236.826L359.116 225.271ZM359.252 224.374L361.013 212.819L381.374 215.932L379.567 227.544L359.252 224.374ZM361.161 211.876L362.922 200.321L383.283 203.434L381.487 215.046L361.161 211.876ZM363.058 199.377L364.797 187.913L385.146 191.026L383.396 202.547L363.058 199.377ZM362.161 199.23L341.8 196.117L343.573 184.562L363.899 187.777L362.161 199.23ZM343.709 183.664L345.482 172.2L365.808 175.279L364.047 186.834L343.709 183.664ZM342.811 183.516L322.451 180.403L324.223 168.848L344.573 171.973L342.811 183.516ZM321.553 180.267L301.17 177.244L302.943 165.689L323.292 168.803L321.553 180.267ZM300.295 177.017L279.935 173.904L281.707 162.349L302.056 165.462L300.295 177.017ZM279.037 173.756L258.654 170.734L260.426 159.179L280.775 162.292L279.037 173.756ZM257.779 170.507L237.418 167.394L239.168 155.964L259.517 159.077L257.779 170.507ZM236.498 167.326L216.138 164.201L217.91 152.657L238.259 155.77L236.498 167.326ZM215.24 164.065L194.879 160.951L196.64 149.419L217.001 152.555L215.24 164.065ZM193.982 160.815L173.621 157.702L175.394 146.147L195.743 149.26L193.982 160.815ZM172.78 157.577L152.329 154.464L154.101 142.909L174.451 146.033L172.78 157.577ZM172.633 158.486L170.872 170.041L150.522 166.928L152.284 155.373L172.633 158.486ZM149.613 166.792L129.264 163.667L131.025 152.123L151.375 155.236L149.613 166.792ZM128.355 163.531L108.006 160.417L109.767 148.862L130.128 151.976L128.355 163.531ZM128.219 164.44L126.447 175.995L106.097 172.881L107.858 161.326L128.219 164.44ZM126.31 176.938L124.538 188.493L104.189 185.38L105.961 173.825L126.31 176.938ZM124.401 189.436L122.629 200.991L102.28 197.878L104.052 186.323L124.401 189.436ZM122.493 201.934L120.732 213.478L100.371 210.364L102.143 198.809L122.493 201.934ZM123.402 202.07L143.751 205.183L141.99 216.738L121.629 213.625L123.402 202.07ZM144.66 205.32L165.009 208.433L163.236 219.988L142.887 216.875L144.66 205.32ZM163.1 220.897L161.339 232.452L140.967 229.225L142.74 217.67L163.1 220.897ZM164.009 221.033L184.358 224.146L182.597 235.702L162.237 232.588L164.009 221.033ZM185.21 224.135L205.56 227.26L203.798 238.803L183.438 235.69L185.21 224.135ZM206.469 227.396L226.818 230.509L225.045 242.098L204.685 238.985L206.469 227.396ZM227.727 230.645L248.076 233.759L246.315 245.314L225.954 242.201L227.727 230.645ZM248.985 233.906L269.357 237.054L267.596 248.609L247.235 245.484L248.985 233.906ZM270.243 237.156L290.592 240.269L288.831 251.824L268.47 248.711L270.243 237.156ZM291.501 240.405L311.85 243.519L310.089 255.074L289.729 251.96L291.501 240.405ZM312.759 243.666L333.108 246.859L331.347 258.414L310.987 255.301L312.759 243.666ZM334.017 246.916L354.367 250.029L352.605 261.629L332.245 258.516L334.017 246.916ZM334.154 246.007L335.926 234.452L356.275 237.576L354.503 249.131L334.154 246.007ZM357.184 237.769L377.534 240.883L375.761 252.438L355.412 249.324L357.184 237.769ZM378.431 240.996L398.78 244.109L397.008 255.664L376.67 252.54L378.431 240.996ZM378.567 240.099L380.34 228.544L400.689 231.657L398.883 243.212L378.567 240.099ZM380.476 227.6L382.237 216.045L402.598 219.159L400.825 230.714L380.476 227.6ZM382.385 215.102L384.112 203.684L404.563 206.74L402.802 218.295L382.385 215.102ZM384.282 202.604L386.066 191.186L406.415 194.299L404.654 205.854L384.282 202.604ZM386.191 190.106L387.975 178.687L408.324 181.801L406.563 193.356L386.191 190.106ZM385.294 189.97L364.933 186.857L366.706 175.302L387.055 178.415L385.294 189.97ZM366.842 174.393L368.614 162.849L388.964 165.962L387.191 177.517L366.842 174.393ZM365.933 174.256L345.584 171.143L347.356 159.588L367.705 162.701L365.933 174.256ZM344.675 171.007L324.326 167.894L326.166 156.486L346.515 159.599L344.675 171.007ZM323.417 167.757L303.068 164.633L304.84 153.089L325.189 156.202L323.417 167.757ZM302.159 164.496L281.855 161.531L283.627 149.976L303.976 153.089L302.159 164.496ZM280.9 161.247L260.563 158.236L262.335 146.681L282.684 149.794L280.9 161.247ZM259.642 157.986L239.293 154.873L241.077 143.465L261.403 146.59L259.642 157.986ZM238.395 154.737L218.035 151.623L219.807 140.068L240.157 143.181L238.395 154.737ZM217.137 151.487L196.777 148.362L198.549 136.819L218.91 140.057L217.137 151.487ZM195.868 148.226L175.519 145.113L177.325 133.706L197.674 136.819L195.868 148.226ZM174.621 144.977L154.261 141.863L156.033 130.308L176.382 133.422L174.621 144.977ZM153.363 141.727L133.014 138.75L134.786 127.207L155.135 130.32L153.363 141.727ZM153.215 142.625L151.454 154.18L131.094 151.067L132.866 139.512L153.215 142.625ZM130.196 150.93L109.847 148.01L111.619 136.455L131.968 139.568L130.196 150.93ZM100.178 211.16L120.516 214.273L118.755 225.828L98.394 222.715L100.178 211.16ZM121.436 214.409L141.785 217.522L140.024 229.078L119.663 225.964L121.436 214.409ZM139.831 229.986L138.07 241.542L117.721 238.428L119.482 226.873L139.831 229.986ZM140.74 230.123L161.134 233.225L159.373 244.78L139.024 241.667L140.74 230.123ZM161.998 233.384L182.347 236.497L180.586 248.052L160.282 244.927L161.998 233.384ZM183.302 236.633L203.651 239.746L201.89 251.301L181.529 248.188L183.302 236.633ZM204.594 239.883L224.943 243.007L223.182 254.551L202.799 251.404L204.594 239.883ZM225.852 243.144L246.201 246.257L244.361 257.812L224.011 254.699L225.852 243.144ZM247.11 246.393L267.459 249.506L265.698 261.061L245.338 257.948L247.11 246.393ZM268.368 249.643L288.672 252.767L286.911 264.311L266.55 261.198L268.368 249.643ZM289.626 252.903L309.976 256.017L308.214 267.572L287.854 264.459L289.626 252.903ZM310.885 256.153L331.234 259.266L329.473 270.821L309.123 267.708L310.885 256.153ZM332.143 259.414L352.492 262.527L350.697 274.128L330.336 271.003L332.143 259.414ZM353.401 262.663L373.75 265.777L371.989 277.332L351.628 274.218L353.401 262.663ZM353.537 261.754L355.31 250.199L375.659 253.324L373.886 264.868L353.537 261.754ZM376.568 253.46L396.917 256.573L395.156 268.128L374.761 265.038L376.568 253.46ZM409.949 171.416L408.461 180.96L388.111 177.847L389.884 166.292L408.177 169.087C408.713 169.171 409.195 169.462 409.52 169.897C409.845 170.332 409.987 170.877 409.915 171.416H409.949ZM115.675 124.264L133.968 127.059L132.207 138.614L111.756 135.512L113.21 126.014C113.25 125.742 113.344 125.482 113.485 125.247C113.626 125.012 113.813 124.807 114.033 124.645C114.254 124.482 114.505 124.365 114.771 124.299C115.037 124.234 115.314 124.222 115.585 124.264H115.675ZM96.9056 233.111L98.3599 223.612L118.709 226.737L116.948 238.281L98.553 235.497C98.0065 235.41 97.5166 235.111 97.1907 234.663C96.8649 234.216 96.7296 233.658 96.8147 233.111H96.9056ZM391.156 280.274L372.852 277.468L374.625 265.913L394.974 269.026L393.52 278.536C393.436 279.079 393.14 279.567 392.697 279.893C392.254 280.219 391.7 280.356 391.156 280.274Z" fill="white"/>
</g>
<path opacity="0.5" d="M398.656 245.017L393.52 278.512C393.482 278.771 393.392 279.02 393.257 279.245C393.121 279.469 392.943 279.665 392.732 279.82C392.52 279.975 392.281 280.087 392.026 280.149C391.771 280.211 391.507 280.223 391.248 280.182L98.4855 235.371C98.2273 235.331 97.9796 235.24 97.7565 235.104C97.5333 234.968 97.3392 234.79 97.1851 234.579C97.0311 234.367 96.9201 234.128 96.8586 233.874C96.7971 233.62 96.7863 233.357 96.8267 233.099L97.5084 228.622C97.5084 228.622 111.268 217.533 119.88 218.851C130.049 220.407 131.878 226.179 140.968 227.543C150.057 228.906 160.01 207.886 168.236 209.136C172.679 209.818 173.815 213.238 175.985 216.374C176.916 217.815 178.151 219.036 179.604 219.951C181.056 220.865 182.69 221.452 184.393 221.668L184.734 221.725C195.869 223.43 210.934 164.325 226.25 166.665C233.067 167.699 235.76 180.743 237.794 195.15C240.373 213.329 241.827 233.78 248.929 234.814C261.631 236.757 265.972 210.954 277.765 212.806C285.185 213.942 287.889 227.69 294.138 238.586C297.83 245.029 302.773 250.482 310.681 251.687C317.873 252.823 322.679 251.119 326.417 248.494C333.745 243.37 337.018 234.621 346.175 235.996C351.606 236.825 353.583 241.006 355.606 244.949C357.367 248.358 359.162 251.653 363.343 252.289C368.263 253.05 372.433 246.006 376.898 239.791C380.545 234.655 384.351 230.042 388.873 230.701C393.395 231.36 396.236 236.962 397.611 240.927C398.04 242.268 398.389 243.634 398.656 245.017Z" fill="#50E3B9"/>
<path opacity="0.5" d="M405.7 198.991L393.52 278.525C393.482 278.784 393.392 279.033 393.256 279.257C393.121 279.482 392.943 279.677 392.732 279.832C392.52 279.988 392.281 280.1 392.026 280.162C391.771 280.224 391.507 280.235 391.248 280.195L98.4855 235.372C98.2273 235.332 97.9796 235.241 97.7565 235.105C97.5333 234.97 97.3392 234.791 97.1851 234.58C97.0311 234.369 96.9201 234.129 96.8586 233.876C96.7971 233.622 96.7863 233.358 96.8267 233.1L97.5084 228.623C109.666 230.487 116.153 221.386 124.311 222.636C132.469 223.885 136.696 229.578 144.331 230.748C151.966 231.918 163.748 214.046 172.099 215.33C173.409 215.52 174.688 215.879 175.906 216.398C179.121 217.739 181.337 219.897 184.313 221.693C186.656 223.113 189.26 224.048 191.971 224.442C201.754 225.93 221.331 190.527 232.681 192.265C234.646 192.62 236.426 193.649 237.714 195.174C244.418 202.479 246.145 220.749 255.598 222.192C267.062 223.954 273.198 205.309 284.321 207.002C295.444 208.694 298.717 227.873 311.59 229.839C324.463 231.805 338.426 196.628 351.799 198.673C365.172 200.718 368.99 218.795 380.613 220.568C393.373 222.522 405.7 198.991 405.7 198.991Z" fill="#50E3B9"/>
<path d="M400.019 235.963L393.498 278.514C393.459 278.773 393.369 279.022 393.234 279.246C393.098 279.471 392.92 279.666 392.709 279.822C392.498 279.977 392.258 280.089 392.003 280.151C391.749 280.213 391.484 280.224 391.225 280.184L98.4855 235.373C98.2273 235.333 97.9796 235.242 97.7565 235.106C97.5333 234.97 97.3392 234.791 97.1851 234.58C97.0311 234.369 96.9201 234.13 96.8586 233.876C96.7971 233.622 96.7863 233.358 96.8267 233.1L97.1562 230.907C97.5766 230.51 104.473 223.999 111.472 225.067C118.71 226.204 118.732 232.657 128.822 234.157C138.911 235.657 141.854 227.715 156.17 229.908C170.486 232.1 170.441 242.11 185.245 244.383C200.05 246.655 203.106 234.646 213.65 236.259C224.194 237.872 223.455 243.996 229.432 244.905C235.408 245.814 238.885 236.452 246.236 237.577C253.587 238.702 259.211 254.108 267.494 255.381C273.311 256.267 283.594 244.746 294.092 238.565C298.523 235.952 303.011 234.293 307.193 234.941C315.839 236.259 320.884 243.008 326.371 248.473C329.78 251.882 333.45 254.836 338.245 255.574C345.062 256.619 350.3 250.416 355.56 244.962C359.832 240.52 364.138 236.566 369.376 237.361C371.996 237.694 374.531 238.511 376.852 239.77C381.397 242.315 382.59 245.746 388.021 246.587C394.554 247.621 400.019 235.963 400.019 235.963Z" fill="#50E3B9"/>
<path d="M133.071 119.899L117.346 117.49C116.983 117.435 116.634 117.308 116.319 117.117C116.005 116.927 115.731 116.676 115.514 116.379C115.296 116.083 115.139 115.746 115.052 115.389C114.965 115.032 114.949 114.661 115.006 114.297C115.118 113.562 115.517 112.902 116.116 112.461C116.714 112.02 117.463 111.835 118.199 111.945L133.912 114.354C134.646 114.469 135.304 114.869 135.745 115.467C136.185 116.065 136.372 116.812 136.264 117.547C136.149 118.28 135.749 118.939 135.151 119.379C134.554 119.82 133.806 120.007 133.071 119.899Z" fill="#50E3B9"/>
<path d="M141.752 116.731H142.002L157.727 119.14C157.95 119.168 158.166 119.241 158.361 119.354C158.556 119.468 158.727 119.619 158.863 119.799C159.121 120.157 159.23 120.6 159.17 121.037C159.106 121.43 158.905 121.787 158.604 122.047C158.303 122.306 157.92 122.452 157.522 122.457H157.261L141.547 120.049C141.322 120.024 141.105 119.953 140.91 119.839C140.714 119.726 140.544 119.572 140.411 119.39C140.228 119.142 140.116 118.849 140.09 118.542C140.064 118.235 140.124 117.926 140.263 117.652C140.403 117.377 140.616 117.146 140.878 116.986C141.141 116.825 141.444 116.741 141.752 116.742M141.752 115.606C141.035 115.588 140.338 115.846 139.806 116.326C139.274 116.807 138.947 117.474 138.893 118.19C138.839 118.905 139.062 119.614 139.516 120.169C139.97 120.724 140.62 121.084 141.331 121.173L157.045 123.582C157.189 123.593 157.333 123.593 157.477 123.582C158.182 123.578 158.86 123.309 159.375 122.828C159.891 122.347 160.207 121.69 160.26 120.987C160.313 120.284 160.099 119.586 159.661 119.033C159.224 118.481 158.594 118.113 157.897 118.003L142.172 115.606C142.032 115.595 141.892 115.595 141.752 115.606Z" fill="#50E3B9"/>
<path d="M165.725 120.401H165.964L181.677 122.81C182.089 122.878 182.46 123.098 182.718 123.426C182.975 123.754 183.101 124.167 183.069 124.583C183.038 124.999 182.852 125.388 182.548 125.674C182.244 125.96 181.845 126.121 181.427 126.127H181.177L165.453 123.719C165.229 123.691 165.013 123.618 164.817 123.505C164.622 123.391 164.452 123.24 164.316 123.06C164.187 122.883 164.095 122.683 164.044 122.47C163.993 122.257 163.986 122.037 164.021 121.821C164.083 121.431 164.281 121.075 164.581 120.817C164.88 120.559 165.262 120.415 165.657 120.412M165.657 119.276C164.94 119.258 164.243 119.515 163.711 119.996C163.179 120.477 162.852 121.144 162.798 121.86C162.744 122.575 162.967 123.284 163.421 123.839C163.875 124.394 164.525 124.754 165.237 124.843L180.962 127.252C181.101 127.263 181.242 127.263 181.382 127.252C182.087 127.248 182.765 126.979 183.281 126.498C183.796 126.017 184.112 125.36 184.165 124.657C184.218 123.953 184.004 123.256 183.567 122.703C183.129 122.151 182.499 121.783 181.802 121.673L166.089 119.276C165.945 119.265 165.801 119.265 165.657 119.276Z" fill="#50E3B9"/>
<path d="M410.54 159.838L410.734 158.611L409.825 158.395C409.804 158.192 409.754 157.993 409.677 157.804L410.381 157.191L409.654 156.191L408.847 156.68C408.69 156.554 408.518 156.447 408.336 156.362L408.393 155.43L407.166 155.248L406.95 156.157C406.752 156.178 406.557 156.224 406.371 156.293L405.746 155.589L404.746 156.327L405.234 157.123C405.108 157.282 405.005 157.458 404.928 157.645L403.996 157.577L403.803 158.804L404.712 159.032C404.733 159.231 404.782 159.426 404.859 159.611L404.155 160.225L404.894 161.224L405.689 160.736C405.848 160.859 406.019 160.966 406.2 161.054L406.143 161.986L407.37 162.167L407.586 161.27C407.787 161.238 407.985 161.189 408.177 161.122L408.791 161.827L409.79 161.088L409.302 160.293C409.425 160.136 409.529 159.964 409.609 159.781L410.54 159.838ZM407.052 160.134C406.77 160.09 406.508 159.963 406.297 159.77C406.087 159.577 405.939 159.326 405.872 159.049C405.804 158.771 405.821 158.48 405.919 158.212C406.017 157.944 406.192 157.711 406.422 157.543C406.653 157.375 406.928 157.278 407.213 157.266C407.498 157.254 407.78 157.327 408.024 157.475C408.268 157.624 408.462 157.841 408.582 158.1C408.703 158.359 408.744 158.647 408.7 158.929C408.671 159.117 408.605 159.296 408.506 159.458C408.408 159.62 408.278 159.761 408.125 159.873C407.972 159.985 407.799 160.065 407.615 160.11C407.431 160.155 407.24 160.163 407.052 160.134Z" fill="#50E3B9"/>
<path opacity="0.2" d="M233.824 295.039L230.478 294.527L226.8 318.562L230.147 319.074L233.824 295.039Z" fill="#50E3B9"/>
<path d="M233.273 298.653L229.926 298.141L228.195 309.45L231.542 309.963L233.273 298.653Z" fill="#50E3B9"/>
<path opacity="0.2" d="M225.385 299.944L222.038 299.432L218.36 323.466L221.707 323.979L225.385 299.944Z" fill="#50E3B9"/>
<path d="M221.039 305.763L219.307 317.084L222.654 317.596L224.386 306.275L221.039 305.763Z" fill="#50E3B9"/>
<path opacity="0.2" d="M219.338 294.336L215.986 293.828L212.339 317.899L215.691 318.407L219.338 294.336Z" fill="#50E3B9"/>
<path d="M217.165 303.231L213.818 302.719L212.086 314.04L215.433 314.552L217.165 303.231Z" fill="#50E3B9"/>
<path opacity="0.2" d="M240.626 300.932L237.279 300.42L233.601 324.455L236.948 324.967L240.626 300.932Z" fill="#50E3B9"/>
<path d="M240.085 304.543L236.738 304.031L235.006 315.352L238.353 315.864L240.085 304.543Z" fill="#50E3B9"/>
<path opacity="0.2" d="M249.234 294.975L245.887 294.463L242.209 318.498L245.556 319.01L249.234 294.975Z" fill="#50E3B9"/>
<path d="M248.818 297.686L245.471 297.174L243.738 308.495L247.085 309.007L248.818 297.686Z" fill="#50E3B9"/>
<path opacity="0.2" d="M255.818 302.329L252.471 301.816L248.793 325.851L252.14 326.363L255.818 302.329Z" fill="#50E3B9"/>
<path d="M255.671 303.237L252.324 302.725L250.592 314.046L253.939 314.558L255.671 303.237Z" fill="#50E3B9"/>
<path opacity="0.2" d="M265.253 290.913L261.906 290.4L258.228 314.435L261.575 314.947L265.253 290.913Z" fill="#50E3B9"/>
<path d="M265.128 291.823L261.781 291.311L260.051 302.62L263.397 303.132L265.128 291.823Z" fill="#50E3B9"/>
<path opacity="0.2" d="M270.466 307.202L267.119 306.689L263.441 330.724L266.788 331.236L270.466 307.202Z" fill="#50E3B9"/>
<path d="M269.913 310.825L266.566 310.312L264.834 321.634L268.181 322.146L269.913 310.825Z" fill="#50E3B9"/>
<path opacity="0.2" d="M277.778 309.756L274.431 309.244L270.753 333.279L274.1 333.791L277.778 309.756Z" fill="#50E3B9"/>
<path d="M276.391 318.815L273.044 318.303L271.312 329.624L274.658 330.136L276.391 318.815Z" fill="#50E3B9"/>
<path opacity="0.2" d="M287.624 295.803L284.277 295.291L280.6 319.326L283.946 319.838L287.624 295.803Z" fill="#50E3B9"/>
<path d="M286.09 305.774L282.743 305.262L281.013 316.572L284.359 317.084L286.09 305.774Z" fill="#50E3B9"/>
<path opacity="0.2" d="M293.521 307.538L290.174 307.025L286.496 331.06L289.843 331.572L293.521 307.538Z" fill="#50E3B9"/>
<path d="M292.821 312.073L289.474 311.561L287.743 322.87L291.09 323.382L292.821 312.073Z" fill="#50E3B9"/>
<path opacity="0.2" d="M302.003 302.416L298.656 301.904L294.978 325.939L298.325 326.451L302.003 302.416Z" fill="#50E3B9"/>
<path d="M302.379 306.106L299.027 305.598L297.309 316.936L300.661 317.444L302.379 306.106Z" fill="#50E3B9"/>
<path opacity="0.2" d="M311.186 292.77L307.839 292.258L304.161 316.293L307.508 316.805L311.186 292.77Z" fill="#50E3B9"/>
<path d="M311.174 292.778L307.827 292.266L306.095 303.587L309.442 304.099L311.174 292.778Z" fill="#50E3B9"/>
<path opacity="0.2" d="M316.385 309.147L313.038 308.635L309.36 332.67L312.707 333.182L316.385 309.147Z" fill="#50E3B9"/>
<path d="M315.957 311.87L312.61 311.357L310.878 322.678L314.225 323.191L315.957 311.87Z" fill="#50E3B9"/>
<path opacity="0.2" d="M322.282 320.872L318.936 320.359L315.258 344.394L318.605 344.906L322.282 320.872Z" fill="#50E3B9"/>
<path d="M321.866 323.582L318.52 323.07L316.787 334.391L320.134 334.903L321.866 323.582Z" fill="#50E3B9"/>
<path opacity="0.2" d="M331.751 309.301L328.404 308.789L324.726 332.824L328.073 333.336L331.751 309.301Z" fill="#50E3B9"/>
<path d="M330.376 318.338L327.029 317.826L325.297 329.147L328.644 329.659L330.376 318.338Z" fill="#50E3B9"/>
<path opacity="0.2" d="M341.363 296.866L338.016 296.354L334.338 320.388L337.685 320.9L341.363 296.866Z" fill="#50E3B9"/>
<path d="M339.693 307.725L336.346 307.213L334.613 318.534L337.96 319.046L339.693 307.725Z" fill="#50E3B9"/>
<path opacity="0.2" d="M346.808 311.598L343.461 311.086L339.783 335.121L343.13 335.633L346.808 311.598Z" fill="#50E3B9"/>
<path d="M347.274 315.232L343.922 314.725L342.204 326.063L345.556 326.571L347.274 315.232Z" fill="#50E3B9"/>
<path opacity="0.2" d="M353.708 316.752L350.361 316.24L346.683 340.275L350.03 340.787L353.708 316.752Z" fill="#50E3B9"/>
<path d="M352.196 326.713L348.85 326.201L347.117 337.522L350.464 338.034L352.196 326.713Z" fill="#50E3B9"/>
<path opacity="0.2" d="M362.386 310.401L359.039 309.889L355.361 333.923L358.708 334.436L362.386 310.401Z" fill="#50E3B9"/>
<path d="M362.386 310.411L359.039 309.898L357.307 321.219L360.654 321.732L362.386 310.411Z" fill="#50E3B9"/>
<path opacity="0.2" d="M368.766 319.049L365.419 318.537L361.741 342.572L365.088 343.084L368.766 319.049Z" fill="#50E3B9"/>
<path d="M368.484 320.86L365.137 320.348L363.404 331.669L366.751 332.181L368.484 320.86Z" fill="#50E3B9"/>
<path opacity="0.2" d="M376.795 316.957L373.448 316.445L369.77 340.48L373.117 340.992L376.795 316.957Z" fill="#50E3B9"/>
<path d="M376.65 317.868L373.303 317.355L371.57 328.676L374.917 329.189L376.65 317.868Z" fill="#50E3B9"/>
<path opacity="0.2" d="M383.833 321.202L380.486 320.689L376.808 344.724L380.155 345.236L383.833 321.202Z" fill="#50E3B9"/>
<path d="M383.133 332.967L379.781 332.459L378.063 343.797L381.415 344.305L383.133 332.967Z" fill="#50E3B9"/>
<path d="M262.313 354.582L199.283 344.938L198.984 346.892L262.014 356.537L262.313 354.582Z" fill="#999999" stroke="#263238" stroke-linecap="round" stroke-linejoin="round"/>
<path opacity="0.2" d="M302.374 217.18C302.374 217.18 293.829 221.918 299.272 234.757C304.714 247.596 337.811 268.706 337.141 279.432C337.141 279.432 303.158 258.253 293.716 270.478C293.716 270.478 319.382 295.372 322.052 314.097C324.722 332.821 333.414 341.127 353.502 351.807C373.59 362.487 417.265 418.842 417.265 418.842L410.732 324.198L347.105 252.39L315.656 234.461L302.374 217.18Z" fill="black" fill-opacity="0.7"/>
<path d="M475.007 385.927L418.992 422.717H418.901C418.85 422.714 418.8 422.696 418.757 422.666C418.715 422.636 418.682 422.594 418.663 422.546C418.413 421.887 393.667 355.749 387.702 350.591C384.343 347.556 381.896 343.645 380.635 339.297C380.635 339.297 380.635 339.241 380.635 339.207C380.419 338.479 380.316 338.002 380.294 337.877C376.999 331.176 371.944 325.498 365.671 321.448C361.477 318.907 357.048 316.776 352.446 315.085C345.401 312.233 338.152 309.291 333.028 303.848C332.15 302.918 331.348 301.919 330.631 300.86C322.484 288.93 309.907 275.762 305.714 273.057C301.522 270.353 293.807 270.717 293.739 270.717C293.676 270.724 293.613 270.706 293.562 270.668C293.511 270.63 293.477 270.575 293.466 270.512C293.33 269.472 293.424 268.415 293.742 267.416C294.06 266.416 294.594 265.499 295.307 264.729C296.377 263.478 297.707 262.474 299.204 261.787C300.701 261.101 302.329 260.747 303.976 260.753C310.452 260.753 319.371 264.161 323.87 268.445C328.37 272.728 338.777 275.875 339.97 276.239C341.663 275.239 345.651 277.375 347.117 278.295C345.379 272.103 346.083 269.717 346.356 269.115C342.629 264.286 323.223 249.993 312.918 242.823C310.077 240.835 307.941 239.415 307.009 238.858C302.203 236.029 298.227 227.178 298.999 220.997C299.037 220.158 299.26 219.337 299.653 218.595C300.046 217.852 300.599 217.206 301.272 216.702C302.238 216.095 303.37 215.805 304.51 215.873C304.972 215.885 305.433 215.942 305.885 216.043C305.93 216.063 305.972 216.09 306.01 216.123C306.1 216.248 315.747 227.689 319.087 229.485C320.723 230.359 329.426 234.756 337.698 238.847L341.425 240.687C341.402 237.085 341.592 233.485 341.993 229.905C342.311 228.496 344.56 226.496 347.117 225.36C348.31 224.815 350.525 224.031 352.15 224.894C352.775 225.247 354.252 226.155 356.297 227.428L359.706 229.541C360.431 228.426 361.32 227.427 362.342 226.576C363.194 226.076 367.909 225.201 369.591 225.792C371.056 226.326 375.76 229.314 380.737 232.473L382.884 233.825C383.146 233.336 383.759 232.314 384.339 232.086C386.795 231.179 389.469 231.037 392.008 231.677C393.689 232.291 399.461 236.552 405.051 240.676C408.119 242.948 411.062 245.119 413.005 246.425C413.07 246.442 413.127 246.483 413.164 246.539C413.72 246.914 414.186 247.209 414.539 247.414C418.652 249.766 428.764 302.803 428.866 303.337C429.525 306.893 431.934 310.563 434.479 314.449C437.359 318.494 439.714 322.889 441.489 327.526C444.727 336.991 452.101 350.841 462.906 367.77C463.883 369.285 464.891 370.842 465.928 372.44C468.848 376.86 471.962 381.473 475.007 385.927Z" fill="white"/>
<path opacity="0.4" d="M350.185 284.351C348.015 286.067 332.267 284.442 330.335 289.737C329.199 292.861 330.04 297.588 332.994 303.826C332.116 302.895 331.314 301.896 330.597 300.837C322.45 288.907 309.873 275.739 305.68 273.035C301.487 270.331 293.807 270.717 293.739 270.717C293.676 270.724 293.613 270.706 293.562 270.668C293.511 270.63 293.477 270.575 293.466 270.512C293.33 269.472 293.424 268.415 293.742 267.416C294.06 266.416 294.594 265.499 295.307 264.729C296.377 263.478 297.707 262.474 299.204 261.787C300.701 261.1 302.329 260.747 303.976 260.753C310.452 260.753 319.371 264.161 323.87 268.445C328.37 272.728 338.777 275.875 339.97 276.239C341.663 275.239 345.651 277.375 347.117 278.295C345.379 272.103 346.083 269.717 346.356 269.115C342.629 264.286 323.223 249.993 312.918 242.823C310.077 240.835 307.941 239.415 307.009 238.858C302.203 236.029 298.227 227.178 298.999 220.997C299.037 220.158 299.26 219.337 299.653 218.595C300.046 217.852 300.599 217.206 301.272 216.702C302.238 216.095 303.37 215.805 304.51 215.873C303.728 216.178 303.006 216.616 302.374 217.168C299.215 219.861 306.748 234.075 310.986 238.006C315.417 242.108 335.346 252.288 342.504 258.355C346.435 261.684 351.594 266.729 351.594 266.729C348.446 272.092 352.298 282.67 350.185 284.351Z" fill="#50E3B9"/>
<path d="M423.355 197.467C423.355 197.365 423.355 197.342 423.355 197.388C423.364 197.399 423.368 197.413 423.368 197.427C423.368 197.442 423.364 197.455 423.355 197.467Z" fill="#50E3B9"/>
<path opacity="0.4" d="M462.907 367.713C454.465 359.68 441.898 347.171 439.546 341.683C435.956 333.275 433.559 325.515 429.093 319.857C424.628 314.198 415.573 253.901 412.971 253.73C410.369 253.56 416.243 277.59 416.55 278.817C416.3 278.056 413.05 267.819 409.937 256.15C406.711 244.027 403.45 243.368 403.45 243.368C399.121 244.232 399.098 247.311 396.882 247.265C394.667 247.22 387.066 241.823 387.066 241.823C379.692 242.891 352.026 225.076 352.026 225.076C345.731 225.928 344.254 231.427 349.628 236.585C355.002 241.743 363.035 247.992 363.035 247.992C357.854 250.515 338.834 239.846 338.834 239.846L337.698 238.823L341.425 240.664C341.402 237.062 341.592 233.461 341.993 229.882C342.311 228.473 344.561 226.473 347.117 225.337C348.31 224.791 350.526 224.007 352.151 224.871C352.776 225.223 354.253 226.132 356.298 227.405L359.706 229.518C360.431 228.403 361.32 227.403 362.342 226.553C363.194 226.053 367.91 225.178 369.591 225.769C371.057 226.303 375.761 229.291 380.737 232.449L382.885 233.801C383.146 233.313 383.759 232.29 384.339 232.063C386.796 231.156 389.469 231.013 392.008 231.654C393.69 232.268 399.462 236.528 405.052 240.653C408.119 242.925 411.062 245.095 413.005 246.402C413.07 246.419 413.127 246.459 413.164 246.515C413.721 246.89 414.187 247.186 414.539 247.39C418.652 249.742 428.764 302.78 428.866 303.314C429.525 306.87 431.934 310.54 434.479 314.426C437.361 318.478 439.716 322.88 441.489 327.526C444.728 336.934 452.101 350.784 462.907 367.713Z" fill="#50E3B9"/>
<path d="M418.901 422.49C418.901 422.49 393.905 355.682 387.872 350.433C384.158 347.075 381.584 342.643 380.509 337.753C377.191 330.986 372.083 325.257 365.739 321.187C354.956 314.086 338.652 312.245 330.767 300.736C322.882 289.226 310.247 275.74 305.771 272.854C301.294 269.968 293.67 270.49 293.67 270.49C292.886 266.014 297.874 261.026 303.896 261.026C309.918 261.026 318.882 264.173 323.62 268.65C328.358 273.126 339.925 276.535 339.925 276.535C341.765 275.217 347.458 278.876 347.458 278.876C345.185 271.183 346.56 269.104 346.56 269.104C342.095 263.06 311.52 241.302 307.055 238.666C302.589 236.03 298.374 227.361 299.158 221.043C299.177 220.259 299.378 219.489 299.745 218.795C300.112 218.101 300.634 217.502 301.272 217.044C301.909 216.586 302.644 216.282 303.419 216.156C304.193 216.03 304.987 216.085 305.737 216.317C305.737 216.317 315.462 227.883 318.882 229.724C322.302 231.565 349.128 244.983 353.07 246.551C354.165 247.018 355.356 247.214 356.543 247.123C357.729 247.032 358.877 246.657 359.888 246.028" stroke="#263238" stroke-linecap="round" stroke-linejoin="round"/>
<path d="M341.675 241.098C341.675 241.098 341.675 232.349 342.243 229.974C342.811 227.6 349.14 223.509 352.026 225.077C354.911 226.645 376.226 240.666 381.782 241.291" stroke="#263238" stroke-linecap="round" stroke-linejoin="round"/>
<path d="M359.785 229.814C360.54 228.661 361.45 227.617 362.489 226.712C363.273 226.246 367.943 225.383 369.522 225.951C372.681 227.087 391.292 239.926 394.439 240.721" stroke="#263238" stroke-linecap="round" stroke-linejoin="round"/>
<path d="M382.975 234.155C382.975 234.155 383.781 232.542 384.429 232.281C386.827 231.391 389.438 231.253 391.916 231.883C394.814 232.94 410.72 245.517 414.402 247.596C418.083 249.676 427.297 296.248 428.604 303.349C429.911 310.451 437.819 317.552 441.227 327.55C444.636 337.549 452.805 352.796 465.689 372.521C467.962 375.929 470.325 379.531 472.7 383.008" stroke="#263238" stroke-linecap="round" stroke-linejoin="round"/>
<path d="M357.889 259.629C357.889 259.629 359.025 254.3 362.229 251.937C365.433 249.573 369.728 253.323 372.875 253.709" stroke="#263238" stroke-linecap="round" stroke-linejoin="round"/>
<path d="M379.385 251.151C379.385 251.151 381.157 245.027 384.316 243.652C387.474 242.278 392.337 246.413 394.439 246.607" stroke="#263238" stroke-linecap="round" stroke-linejoin="round"/>
<path d="M400.098 245.618C400.098 245.618 402.461 243.346 403.449 243.346C404.438 243.346 408.574 247.675 409.471 247.97C410.369 248.265 411.437 246.641 412.971 246.618" stroke="#263238" stroke-linecap="round" stroke-linejoin="round"/>
<path d="M392.905 240.04C394.633 239.912 396.356 240.338 397.825 241.256" stroke="#263238" stroke-linecap="round" stroke-linejoin="round"/>
<path d="M346.617 269.093C346.617 269.093 345.049 265.048 345.833 262.98" stroke="#263238" stroke-linecap="round" stroke-linejoin="round"/>
<path d="M349.696 239.416C349.696 239.416 351.571 241.609 351.673 243.37C351.776 245.131 356.218 247.267 356.218 247.267" stroke="#263238" stroke-linecap="round" stroke-linejoin="round"/>
<path d="M379.771 240.757C379.771 240.757 382.351 239.836 383.725 240.757" stroke="#263238" stroke-linecap="round" stroke-linejoin="round"/>
<path d="M346.618 274.421C346.53 273.121 346.763 271.82 347.296 270.631C347.829 269.442 348.645 268.403 349.674 267.604" stroke="#263238" stroke-linecap="round" stroke-linejoin="round"/>
<path d="M347.538 278.863C347.538 278.863 344.606 281.386 344.606 282.965" stroke="#263238" stroke-linecap="round" stroke-linejoin="round"/>
<path d="M334.039 274.422C337.516 275.717 340.402 281.125 342.504 282.046" stroke="#263238" stroke-linecap="round" stroke-linejoin="round"/>
<path d="M376.158 257.195C378.26 260.218 382.975 282.192 387.725 289.145" stroke="#263238" stroke-linecap="round" stroke-linejoin="round"/>
<path d="M393.792 250.994C394.19 251.255 396.951 259.8 396.951 259.8" stroke="#263238" stroke-linecap="round" stroke-linejoin="round"/>
<path d="M429.094 305.133C429.786 309.505 431.046 313.768 432.843 317.813" stroke="#263238" stroke-linecap="round" stroke-linejoin="round"/>
<path d="M380.862 339.242C380.51 337.799 378.987 328.334 377.112 325.176" stroke="#263238" stroke-linecap="round" stroke-linejoin="round"/>
<path opacity="0.2" d="M62.4434 486.925C62.4434 486.925 99.415 437.216 127.297 428.115C155.179 419.014 156.554 406.664 155.418 383.622C154.282 360.58 155.122 337.356 147.465 334.584C139.807 331.812 156.645 301.725 148.601 289.807L95.8474 372.68L62.4434 486.925Z" fill="black" fill-opacity="0.7"/>
<path d="M53.4793 500.775L52.9225 500.593L53.7178 501.036L53.4793 500.775ZM143.352 348.287C138.807 346.162 129.786 336.197 128.661 334.948C134.342 325.381 139.955 316.155 141.898 313.939C145.931 309.395 150.851 296.135 148.851 289.727C147.022 283.842 141.034 284.785 140.216 284.944H140.125C140.094 284.949 140.065 284.96 140.04 284.978C140.014 284.996 139.993 285.019 139.978 285.046C139.853 285.262 127.661 305.816 123.878 310.735C122.071 313.076 117.913 318.405 113.652 323.745L112.391 323.552C109.748 323.14 107.052 323.217 104.437 323.779L104.176 323.87C102.824 324.453 101.52 325.145 100.279 325.938L99.3814 325.563C97.5862 324.813 93.8709 323.37 92.1098 323.29C89.9624 323.177 82.3953 326.699 77.8733 329.539C74.7558 328.593 71.5068 328.151 68.2497 328.233C64.7844 328.38 57.7172 331.255 52.0363 333.562C49.5139 334.584 47.3325 335.47 46.0599 335.834L44.9237 336.175C41.5152 337.186 39.6745 337.754 37.3112 342.481C34.8571 347.389 32.2097 365.693 30.9372 374.487L30.7668 375.68C30.2782 379.089 30.3578 385.065 30.4373 391.439C30.5623 400.301 30.6872 409.459 29.3693 413.027C27.5889 417.521 25.2365 421.768 22.3703 425.661C21.9954 426.195 21.6545 426.695 21.3364 427.172C19.5625 429.941 18.1462 432.922 17.1211 436.046C16.1667 438.568 14.9737 441.341 13.8148 443.874C11.6788 448.567 9.69043 452.441 9.69043 452.441C9.69043 452.441 49.9684 496.878 53.4793 500.775C53.6684 500.848 53.8619 500.908 54.0587 500.957C54.1951 500.729 61.6257 488.027 69.4995 475.495C76.3167 464.678 83.3952 453.986 86.4288 451.532C90.5887 447.963 93.614 443.256 95.132 437.989C96.7682 432.728 107.21 426.241 117.31 419.969C128.479 413.038 140.034 405.869 140.421 399.938C140.637 396.87 141.341 391.791 142.159 385.894C144.375 369.92 147.124 350.025 143.352 348.287ZM124.219 373.828L119.253 378.657C118.549 374.68 113.72 369.397 112.959 368.59C113.341 366.678 113.587 364.742 113.697 362.796C113.879 360.58 114.072 358.251 114.618 357.876C115.163 357.501 117.674 353.331 121.764 346.514C122.105 351.32 126.309 356.615 126.877 357.376L124.219 373.828Z" fill="white"/>
<path opacity="0.4" d="M65.2615 359.069C63.7958 372.158 50.9682 404.63 50.9682 404.63L48.6958 371.919C48.6958 371.919 38.7087 416.31 35.9705 417.912C33.2322 419.514 28.4262 428.002 25.7447 434.739C23.9382 439.284 17.7914 442.375 13.917 443.931C15.0532 441.397 16.2689 438.625 17.2233 436.103C18.2484 432.979 19.6647 429.997 21.4386 427.229C21.7567 426.752 22.0976 426.252 22.4725 425.718C25.3387 421.825 27.6911 417.578 29.4715 413.084C30.7894 409.493 30.6076 400.335 30.5395 391.496C30.4599 385.122 30.3804 379.1 30.869 375.737L31.0394 374.544C32.3119 365.75 34.9593 347.446 37.4134 342.537C39.7767 337.811 41.6401 337.243 45.0259 336.232L46.1621 335.891C47.4346 335.493 49.5707 334.607 52.1385 333.618C57.8194 331.346 64.8865 328.437 68.3519 328.29C71.5912 328.222 74.8206 328.67 77.9187 329.619C82.4634 326.767 90.0077 323.256 92.1551 323.37C93.9162 323.449 97.6316 324.892 99.4268 325.642C91.8825 329.528 79.1912 338.89 79.1912 338.89C64.8411 342.003 65.2615 359.069 65.2615 359.069Z" fill="#50E3B9"/>
<path opacity="0.4" d="M90.6895 341.686C94.404 339.114 98.2536 336.744 102.222 334.584C105.903 332.857 107.085 325.972 104.494 324.029C104.397 323.957 104.284 323.91 104.165 323.893L104.426 323.802C107.041 323.24 109.737 323.163 112.379 323.575C107.619 330.721 103.892 336.198 102.904 337.379C99.6313 341.356 90.6895 341.686 90.6895 341.686Z" fill="#50E3B9"/>
<path opacity="0.4" d="M109.471 386.529L111.209 387.279C110.152 391.494 109.471 386.529 109.471 386.529Z" fill="#50E3B9"/>
<path opacity="0.4" d="M143.351 348.287C138.807 346.162 129.785 336.197 128.661 334.948C134.341 325.381 139.954 316.155 141.897 313.939C145.931 309.395 150.85 296.135 148.851 289.727C147.021 283.842 141.034 284.785 140.216 284.944V285.194C140.216 285.194 146.692 286.001 146.681 295.363C146.669 304.725 129.854 323.279 129.854 323.279C129.854 323.279 112.561 355.717 111.424 355.229C110.288 354.74 107.755 376.907 107.755 376.907C107.755 376.907 112.572 381.009 111.424 386.531C111.364 386.803 111.307 387.053 111.254 387.281L118.662 390.473C118.662 390.473 126.093 385.258 129.865 392.928C133.637 400.597 93.5977 428.002 90.4504 432.058C90.4504 432.058 90.0073 447.34 84.1673 449.589C80.3837 451.044 73.7143 465.496 69.499 475.506C76.3162 464.689 83.3946 453.998 86.4283 451.544C90.5882 447.975 93.6135 443.267 95.1315 438C96.7676 432.74 107.209 426.252 117.31 419.98C128.479 413.049 140.034 405.88 140.42 399.949C140.636 396.881 141.34 391.803 142.158 385.906C144.374 369.92 147.124 350.025 143.351 348.287ZM124.218 373.828L119.253 378.657C118.548 374.68 113.72 369.397 112.958 368.59C113.34 366.678 113.587 364.742 113.697 362.796C113.879 360.58 114.072 358.251 114.617 357.876C115.163 357.501 117.674 353.331 121.764 346.514C122.105 351.32 126.309 356.615 126.877 357.376L124.218 373.828Z" fill="#50E3B9"/>
<path d="M94.9043 341.98C98.0004 341.315 100.815 339.708 102.96 337.379C106.368 333.55 120.23 315.893 124.07 310.905C127.911 305.918 140.182 285.193 140.182 285.193C140.182 285.193 146.703 283.66 148.623 289.806C150.544 295.953 145.942 308.985 141.715 313.78C137.489 318.575 116.003 356.569 114.447 357.717C112.89 358.864 114.072 369.624 111.038 371.919" stroke="#263238" stroke-linecap="round" stroke-linejoin="round"/>
<path d="M112.687 368.692C112.687 368.692 118.697 374.986 119.083 379.202L124.446 373.952L127.139 357.33C127.139 357.33 121.833 350.945 121.992 345.695" stroke="#263238" stroke-linecap="round" stroke-linejoin="round"/>
<path d="M128.366 334.982C128.366 334.982 138.262 346.208 143.25 348.514C148.238 350.821 140.977 388.804 140.182 399.927C139.387 411.05 98.3588 426.764 94.9047 437.91C93.4087 443.138 90.4053 447.809 86.2697 451.34C79.6116 456.737 53.8428 500.844 53.8428 500.844" stroke="#263238" stroke-linecap="round" stroke-linejoin="round"/>
<path d="M113.8 324.029C113.8 324.029 107.948 322.949 104.494 324.029C101.04 325.108 86.4287 335.481 83.0201 337.379C79.6115 339.276 74.5782 339.651 73.4307 341.98" stroke="#263238" stroke-linecap="round" stroke-linejoin="round"/>
<path d="M100.29 326.232C100.29 326.232 94.3814 323.665 92.109 323.551C89.8366 323.437 80.5994 327.789 76.3841 330.857C73.143 333.233 69.5029 335.011 65.6357 336.106" stroke="#263238" stroke-linecap="round" stroke-linejoin="round"/>
<path d="M77.8847 329.801C74.7866 328.833 71.5515 328.376 68.3066 328.449C63.3073 328.665 50.2638 334.8 46.1736 336.084C42.0833 337.368 40.1631 337.482 37.6067 342.606C35.0502 347.73 32.2325 367.795 31.0849 375.726C29.9374 383.656 31.9825 406.869 29.6761 413.141C27.3696 419.412 23.8133 424.105 21.6659 427.366C17.2916 433.865 17.7801 438.728 9.81543 452.498" stroke="#263238" stroke-linecap="round" stroke-linejoin="round"/>
<path d="M68.6248 343.707C63.6369 348.127 64.5572 356.569 65.2162 359.068C65.8752 361.568 62.8188 371.566 61.8076 376.907" stroke="#263238" stroke-linecap="round" stroke-linejoin="round"/>
<path d="M100.29 347.979C91.2006 348.172 88.3828 354.307 87.792 358.341" stroke="#263238" stroke-linecap="round" stroke-linejoin="round"/>
<path d="M61.9093 338.889C59.2165 338.696 52.3085 342.923 50.9678 349.831" stroke="#263238" stroke-linecap="round" stroke-linejoin="round"/>
<path d="M127.138 357.331C127.138 357.331 128.478 353.502 129.819 353.115" stroke="#263238" stroke-linecap="round" stroke-linejoin="round"/>
<path d="M124.445 373.953C123.784 376.205 122.963 378.407 121.991 380.543C120.855 382.815 121.991 386.44 121.991 386.44" stroke="#263238" stroke-linecap="round" stroke-linejoin="round"/>
<path d="M119.083 379.203C118.89 383.043 114.663 387.156 113.8 386.441" stroke="#263238" stroke-linecap="round" stroke-linejoin="round"/>
<path d="M82.9521 372.68C82.8158 376.906 75.1465 407.788 75.1465 407.788" stroke="#263238" stroke-linecap="round" stroke-linejoin="round"/>
</svg>
